%TF.GenerationSoftware,KiCad,Pcbnew,9.0.0*%
%TF.CreationDate,2025-03-28T09:56:41+01:00*%
%TF.ProjectId,Inverter_KiCAD,496e7665-7274-4657-925f-4b694341442e,rev?*%
%TF.SameCoordinates,Original*%
%TF.FileFunction,Soldermask,Top*%
%TF.FilePolarity,Negative*%
%FSLAX46Y46*%
G04 Gerber Fmt 4.6, Leading zero omitted, Abs format (unit mm)*
G04 Created by KiCad (PCBNEW 9.0.0) date 2025-03-28 09:56:41*
%MOMM*%
%LPD*%
G01*
G04 APERTURE LIST*
G04 Aperture macros list*
%AMRoundRect*
0 Rectangle with rounded corners*
0 $1 Rounding radius*
0 $2 $3 $4 $5 $6 $7 $8 $9 X,Y pos of 4 corners*
0 Add a 4 corners polygon primitive as box body*
4,1,4,$2,$3,$4,$5,$6,$7,$8,$9,$2,$3,0*
0 Add four circle primitives for the rounded corners*
1,1,$1+$1,$2,$3*
1,1,$1+$1,$4,$5*
1,1,$1+$1,$6,$7*
1,1,$1+$1,$8,$9*
0 Add four rect primitives between the rounded corners*
20,1,$1+$1,$2,$3,$4,$5,0*
20,1,$1+$1,$4,$5,$6,$7,0*
20,1,$1+$1,$6,$7,$8,$9,0*
20,1,$1+$1,$8,$9,$2,$3,0*%
G04 Aperture macros list end*
%ADD10RoundRect,0.140000X0.140000X0.170000X-0.140000X0.170000X-0.140000X-0.170000X0.140000X-0.170000X0*%
%ADD11RoundRect,0.135000X-0.135000X-0.185000X0.135000X-0.185000X0.135000X0.185000X-0.135000X0.185000X0*%
%ADD12RoundRect,0.150000X0.150000X-0.512500X0.150000X0.512500X-0.150000X0.512500X-0.150000X-0.512500X0*%
%ADD13RoundRect,0.135000X0.135000X0.185000X-0.135000X0.185000X-0.135000X-0.185000X0.135000X-0.185000X0*%
%ADD14RoundRect,0.140000X-0.140000X-0.170000X0.140000X-0.170000X0.140000X0.170000X-0.140000X0.170000X0*%
%ADD15RoundRect,0.135000X-0.185000X0.135000X-0.185000X-0.135000X0.185000X-0.135000X0.185000X0.135000X0*%
%ADD16RoundRect,0.218750X0.218750X0.256250X-0.218750X0.256250X-0.218750X-0.256250X0.218750X-0.256250X0*%
%ADD17RoundRect,0.250000X2.450000X-0.650000X2.450000X0.650000X-2.450000X0.650000X-2.450000X-0.650000X0*%
%ADD18R,2.400000X0.740000*%
%ADD19RoundRect,0.237500X0.300000X0.237500X-0.300000X0.237500X-0.300000X-0.237500X0.300000X-0.237500X0*%
%ADD20R,1.460500X0.508000*%
%ADD21C,0.800000*%
%ADD22C,6.400000*%
%ADD23RoundRect,0.750000X-0.750000X-0.750000X0.750000X-0.750000X0.750000X0.750000X-0.750000X0.750000X0*%
%ADD24C,3.000000*%
%ADD25RoundRect,0.225000X-0.225000X-0.275000X0.225000X-0.275000X0.225000X0.275000X-0.225000X0.275000X0*%
%ADD26RoundRect,0.250000X0.600000X0.750000X-0.600000X0.750000X-0.600000X-0.750000X0.600000X-0.750000X0*%
%ADD27O,1.700000X2.000000*%
%ADD28RoundRect,0.150000X-0.587500X-0.150000X0.587500X-0.150000X0.587500X0.150000X-0.587500X0.150000X0*%
%ADD29RoundRect,0.135000X0.185000X-0.135000X0.185000X0.135000X-0.185000X0.135000X-0.185000X-0.135000X0*%
%ADD30RoundRect,0.250000X0.725000X-0.600000X0.725000X0.600000X-0.725000X0.600000X-0.725000X-0.600000X0*%
%ADD31O,1.950000X1.700000*%
%ADD32RoundRect,0.075000X-0.700000X-0.075000X0.700000X-0.075000X0.700000X0.075000X-0.700000X0.075000X0*%
%ADD33RoundRect,0.075000X-0.075000X-0.700000X0.075000X-0.700000X0.075000X0.700000X-0.075000X0.700000X0*%
%ADD34RoundRect,0.140000X-0.170000X0.140000X-0.170000X-0.140000X0.170000X-0.140000X0.170000X0.140000X0*%
%ADD35R,0.409999X0.810001*%
%ADD36R,4.460001X3.480001*%
%ADD37RoundRect,1.500000X1.500000X-1.500000X1.500000X1.500000X-1.500000X1.500000X-1.500000X-1.500000X0*%
%ADD38C,6.000000*%
%ADD39RoundRect,0.250001X0.799999X-2.049999X0.799999X2.049999X-0.799999X2.049999X-0.799999X-2.049999X0*%
%ADD40R,4.318000X1.016000*%
%ADD41R,0.508000X1.460500*%
%ADD42RoundRect,0.150000X0.150000X-0.825000X0.150000X0.825000X-0.150000X0.825000X-0.150000X-0.825000X0*%
%ADD43RoundRect,0.218750X0.256250X-0.218750X0.256250X0.218750X-0.256250X0.218750X-0.256250X-0.218750X0*%
%ADD44RoundRect,0.140000X0.170000X-0.140000X0.170000X0.140000X-0.170000X0.140000X-0.170000X-0.140000X0*%
%ADD45RoundRect,0.237500X-0.237500X0.300000X-0.237500X-0.300000X0.237500X-0.300000X0.237500X0.300000X0*%
%ADD46RoundRect,0.250001X-0.799999X2.049999X-0.799999X-2.049999X0.799999X-2.049999X0.799999X2.049999X0*%
%ADD47RoundRect,0.237500X-0.300000X-0.237500X0.300000X-0.237500X0.300000X0.237500X-0.300000X0.237500X0*%
G04 APERTURE END LIST*
D10*
%TO.C,C29*%
X186939556Y-108372056D03*
X185979556Y-108372056D03*
%TD*%
D11*
%TO.C,R19*%
X194990000Y-89300000D03*
X196010000Y-89300000D03*
%TD*%
D12*
%TO.C,BU33SD5WG-TR1*%
X194200000Y-126200000D03*
X195150000Y-126200000D03*
X196100000Y-126200000D03*
X196100000Y-123925000D03*
X194200000Y-123925000D03*
%TD*%
D13*
%TO.C,R23*%
X194220000Y-109200000D03*
X193200000Y-109200000D03*
%TD*%
D11*
%TO.C,R3*%
X187490000Y-113400000D03*
X188510000Y-113400000D03*
%TD*%
D14*
%TO.C,C5*%
X188220000Y-131100000D03*
X189180000Y-131100000D03*
%TD*%
D15*
%TO.C,R22*%
X202447056Y-109177056D03*
X202447056Y-110197056D03*
%TD*%
D16*
%TO.C,L1*%
X189947056Y-108972056D03*
X188372056Y-108972056D03*
%TD*%
D15*
%TO.C,R16*%
X197397056Y-83877056D03*
X197397056Y-84897056D03*
%TD*%
D16*
%TO.C,D5*%
X180987500Y-112300000D03*
X179412500Y-112300000D03*
%TD*%
D11*
%TO.C,R21*%
X203512056Y-91067056D03*
X204532056Y-91067056D03*
%TD*%
D17*
%TO.C,C1*%
X185000000Y-122250000D03*
X185000000Y-117150000D03*
%TD*%
D18*
%TO.C,J6*%
X203347056Y-104307056D03*
X199447056Y-104307056D03*
X203347056Y-103037056D03*
X199447056Y-103037056D03*
X203347056Y-101767056D03*
X199447056Y-101767056D03*
X203347056Y-100497056D03*
X199447056Y-100497056D03*
X203347056Y-99227056D03*
X199447056Y-99227056D03*
X203347056Y-97957056D03*
X199447056Y-97957056D03*
X203347056Y-96687056D03*
X199447056Y-96687056D03*
%TD*%
D11*
%TO.C,R20*%
X195090000Y-90900000D03*
X196110000Y-90900000D03*
%TD*%
D17*
%TO.C,C4*%
X171200000Y-122100000D03*
X171200000Y-117000000D03*
%TD*%
D13*
%TO.C,R25*%
X165797056Y-83947056D03*
X164777056Y-83947056D03*
%TD*%
D19*
%TO.C,C18*%
X192362500Y-123900000D03*
X190637500Y-123900000D03*
%TD*%
D16*
%TO.C,D10*%
X193175000Y-89300000D03*
X191600000Y-89300000D03*
%TD*%
D20*
%TO.C,U3*%
X182472906Y-132692056D03*
X182472906Y-133962056D03*
X182472906Y-135232056D03*
X182472906Y-136502056D03*
X187921206Y-136502056D03*
X187921206Y-135232056D03*
X187921206Y-133962056D03*
X187921206Y-132692056D03*
%TD*%
D21*
%TO.C,H113*%
X142600000Y-85000000D03*
X143302944Y-83302944D03*
X143302944Y-86697056D03*
X145000000Y-82600000D03*
D22*
X145000000Y-85000000D03*
D21*
X145000000Y-87400000D03*
X146697056Y-83302944D03*
X146697056Y-86697056D03*
X147400000Y-85000000D03*
%TD*%
D23*
%TO.C,J1*%
X170900000Y-135300000D03*
D24*
X175900000Y-135300000D03*
%TD*%
D25*
%TO.C,SW2*%
X191747056Y-83897056D03*
X195847056Y-83897056D03*
X191747056Y-85497056D03*
X195847056Y-85497056D03*
%TD*%
D11*
%TO.C,R18*%
X195000000Y-87700000D03*
X196020000Y-87700000D03*
%TD*%
D16*
%TO.C,D11*%
X193187500Y-90900000D03*
X191612500Y-90900000D03*
%TD*%
D13*
%TO.C,R17*%
X190317056Y-83897056D03*
X189297056Y-83897056D03*
%TD*%
D26*
%TO.C,J4*%
X203097056Y-130322056D03*
D27*
X200597056Y-130322056D03*
%TD*%
D14*
%TO.C,C22*%
X161217056Y-89797056D03*
X162177056Y-89797056D03*
%TD*%
D13*
%TO.C,R14*%
X178610000Y-83900000D03*
X177590000Y-83900000D03*
%TD*%
D28*
%TO.C,Q5*%
X193109556Y-133172056D03*
X193109556Y-135072056D03*
X194984556Y-134122056D03*
%TD*%
D11*
%TO.C,R12*%
X193754556Y-131522056D03*
X194774556Y-131522056D03*
%TD*%
D19*
%TO.C,C17*%
X192362500Y-126200000D03*
X190637500Y-126200000D03*
%TD*%
D29*
%TO.C,R15*%
X182197056Y-91307056D03*
X182197056Y-90287056D03*
%TD*%
D15*
%TO.C,R10*%
X198400000Y-123900000D03*
X198400000Y-124920000D03*
%TD*%
D21*
%TO.C,H109*%
X202600000Y-85000000D03*
X203302944Y-83302944D03*
X203302944Y-86697056D03*
X205000000Y-82600000D03*
D22*
X205000000Y-85000000D03*
D21*
X205000000Y-87400000D03*
X206697056Y-83302944D03*
X206697056Y-86697056D03*
X207400000Y-85000000D03*
%TD*%
D30*
%TO.C,J7*%
X203672056Y-122547056D03*
D31*
X203672056Y-120047056D03*
X203672056Y-117547056D03*
X203672056Y-115047056D03*
%TD*%
D13*
%TO.C,R1*%
X181110000Y-109200000D03*
X180090000Y-109200000D03*
%TD*%
D32*
%TO.C,U6*%
X178797056Y-96027056D03*
X178797056Y-96527056D03*
X178797056Y-97027056D03*
X178797056Y-97527056D03*
X178797056Y-98027056D03*
X178797056Y-98527056D03*
X178797056Y-99027056D03*
X178797056Y-99527056D03*
X178797056Y-100027056D03*
X178797056Y-100527056D03*
X178797056Y-101027056D03*
X178797056Y-101527056D03*
X178797056Y-102027056D03*
X178797056Y-102527056D03*
X178797056Y-103027056D03*
X178797056Y-103527056D03*
D33*
X180722056Y-105452056D03*
X181222056Y-105452056D03*
X181722056Y-105452056D03*
X182222056Y-105452056D03*
X182722056Y-105452056D03*
X183222056Y-105452056D03*
X183722056Y-105452056D03*
X184222056Y-105452056D03*
X184722056Y-105452056D03*
X185222056Y-105452056D03*
X185722056Y-105452056D03*
X186222056Y-105452056D03*
X186722056Y-105452056D03*
X187222056Y-105452056D03*
X187722056Y-105452056D03*
X188222056Y-105452056D03*
D32*
X190147056Y-103527056D03*
X190147056Y-103027056D03*
X190147056Y-102527056D03*
X190147056Y-102027056D03*
X190147056Y-101527056D03*
X190147056Y-101027056D03*
X190147056Y-100527056D03*
X190147056Y-100027056D03*
X190147056Y-99527056D03*
X190147056Y-99027056D03*
X190147056Y-98527056D03*
X190147056Y-98027056D03*
X190147056Y-97527056D03*
X190147056Y-97027056D03*
X190147056Y-96527056D03*
X190147056Y-96027056D03*
D33*
X188222056Y-94102056D03*
X187722056Y-94102056D03*
X187222056Y-94102056D03*
X186722056Y-94102056D03*
X186222056Y-94102056D03*
X185722056Y-94102056D03*
X185222056Y-94102056D03*
X184722056Y-94102056D03*
X184222056Y-94102056D03*
X183722056Y-94102056D03*
X183222056Y-94102056D03*
X182722056Y-94102056D03*
X182222056Y-94102056D03*
X181722056Y-94102056D03*
X181222056Y-94102056D03*
X180722056Y-94102056D03*
%TD*%
D34*
%TO.C,C31*%
X198497056Y-83917056D03*
X198497056Y-84877056D03*
%TD*%
D10*
%TO.C,C24*%
X177057056Y-103797056D03*
X176097056Y-103797056D03*
%TD*%
D25*
%TO.C,SW7*%
X195697056Y-109197056D03*
X199797056Y-109197056D03*
X195697056Y-110797056D03*
X199797056Y-110797056D03*
%TD*%
D21*
%TO.C,H111*%
X202600000Y-145000000D03*
X203302944Y-143302944D03*
X203302944Y-146697056D03*
X205000000Y-142600000D03*
D22*
X205000000Y-145000000D03*
D21*
X205000000Y-147400000D03*
X206697056Y-143302944D03*
X206697056Y-146697056D03*
X207400000Y-145000000D03*
%TD*%
D16*
%TO.C,D1*%
X181087500Y-110500000D03*
X179512500Y-110500000D03*
%TD*%
D25*
%TO.C,SW1*%
X180350000Y-83900000D03*
X184450000Y-83900000D03*
X180350000Y-85500000D03*
X184450000Y-85500000D03*
%TD*%
D35*
%TO.C,U7*%
X181705000Y-124207600D03*
X180435000Y-124207600D03*
X179165000Y-124207600D03*
X177895000Y-124207600D03*
X177895000Y-129592400D03*
X179165000Y-129592400D03*
X180435000Y-129592400D03*
X181705000Y-129592400D03*
D36*
X179800000Y-126900000D03*
%TD*%
D14*
%TO.C,C6*%
X190492906Y-134032056D03*
X191452906Y-134032056D03*
%TD*%
%TO.C,C14*%
X142720000Y-115000000D03*
X143680000Y-115000000D03*
%TD*%
D25*
%TO.C,SW8*%
X167447056Y-83897056D03*
X171547056Y-83897056D03*
X167447056Y-85497056D03*
X171547056Y-85497056D03*
%TD*%
D37*
%TO.C,BT1*%
X144900000Y-136300000D03*
D38*
X144900000Y-129100000D03*
%TD*%
D10*
%TO.C,C26*%
X186939556Y-107372056D03*
X185979556Y-107372056D03*
%TD*%
D11*
%TO.C,R6*%
X184290000Y-127500000D03*
X185310000Y-127500000D03*
%TD*%
%TO.C,R5*%
X188390000Y-114600000D03*
X189410000Y-114600000D03*
%TD*%
D10*
%TO.C,C20*%
X187980000Y-84900000D03*
X187020000Y-84900000D03*
%TD*%
D39*
%TO.C,C10*%
X152300000Y-120600000D03*
X152300000Y-111800000D03*
%TD*%
D29*
%TO.C,R11*%
X192397056Y-131497056D03*
X192397056Y-130477056D03*
%TD*%
D40*
%TO.C,Y1*%
X162198056Y-93297056D03*
X171596056Y-93297056D03*
%TD*%
D35*
%TO.C,U8*%
X171002056Y-124597056D03*
X169732056Y-124597056D03*
X168462056Y-124597056D03*
X167192056Y-124597056D03*
X167192056Y-129981856D03*
X168462056Y-129981856D03*
X169732056Y-129981856D03*
X171002056Y-129981856D03*
D36*
X169097056Y-127289456D03*
%TD*%
D41*
%TO.C,U2*%
X141795000Y-122224150D03*
X143065000Y-122224150D03*
X144335000Y-122224150D03*
X145605000Y-122224150D03*
X145605000Y-116775850D03*
X144335000Y-116775850D03*
X143065000Y-116775850D03*
X141795000Y-116775850D03*
%TD*%
D26*
%TO.C,J5*%
X203097056Y-137822056D03*
D27*
X200597056Y-137822056D03*
%TD*%
D18*
%TO.C,J3*%
X161000000Y-144380000D03*
X157100000Y-144380000D03*
X161000000Y-143110000D03*
X157100000Y-143110000D03*
X161000000Y-141840000D03*
X157100000Y-141840000D03*
X161000000Y-140570000D03*
X157100000Y-140570000D03*
X161000000Y-139300000D03*
X157100000Y-139300000D03*
%TD*%
D10*
%TO.C,C39*%
X175877056Y-84997056D03*
X174917056Y-84997056D03*
%TD*%
D42*
%TO.C,U5*%
X161490000Y-113800000D03*
X162760000Y-113800000D03*
X164030000Y-113800000D03*
X165300000Y-113800000D03*
X166570000Y-113800000D03*
X167840000Y-113800000D03*
X169110000Y-113800000D03*
X170380000Y-113800000D03*
X170380000Y-108850000D03*
X169110000Y-108850000D03*
X167840000Y-108850000D03*
X166570000Y-108850000D03*
X165300000Y-108850000D03*
X164030000Y-108850000D03*
X162760000Y-108850000D03*
X161490000Y-108850000D03*
%TD*%
D10*
%TO.C,C38*%
X205027056Y-110197056D03*
X204067056Y-110197056D03*
%TD*%
D34*
%TO.C,C30*%
X192700000Y-96020000D03*
X192700000Y-96980000D03*
%TD*%
D43*
%TO.C,D3*%
X184200000Y-126087500D03*
X184200000Y-124512500D03*
%TD*%
D34*
%TO.C,C19*%
X159900000Y-108800000D03*
X159900000Y-109760000D03*
%TD*%
D13*
%TO.C,R7*%
X181110000Y-113700000D03*
X180090000Y-113700000D03*
%TD*%
D10*
%TO.C,C21*%
X172577056Y-89997056D03*
X171617056Y-89997056D03*
%TD*%
D21*
%TO.C,H114*%
X142600000Y-145000000D03*
X143302944Y-143302944D03*
X143302944Y-146697056D03*
X145000000Y-142600000D03*
D22*
X145000000Y-145000000D03*
D21*
X145000000Y-147400000D03*
X146697056Y-143302944D03*
X146697056Y-146697056D03*
X147400000Y-145000000D03*
%TD*%
D10*
%TO.C,C28*%
X176877056Y-95697056D03*
X175917056Y-95697056D03*
%TD*%
D16*
%TO.C,D9*%
X193187500Y-87700000D03*
X191612500Y-87700000D03*
%TD*%
D44*
%TO.C,C32*%
X180997056Y-92277056D03*
X180997056Y-91317056D03*
%TD*%
D14*
%TO.C,C27*%
X191017056Y-105697056D03*
X191977056Y-105697056D03*
%TD*%
D16*
%TO.C,D12*%
X201174556Y-91097056D03*
X199599556Y-91097056D03*
%TD*%
D14*
%TO.C,C15*%
X144620000Y-115000000D03*
X145580000Y-115000000D03*
%TD*%
%TO.C,C16*%
X192367056Y-103047056D03*
X193327056Y-103047056D03*
%TD*%
%TO.C,C7*%
X190437056Y-135297056D03*
X191397056Y-135297056D03*
%TD*%
D45*
%TO.C,C23*%
X194297056Y-96037500D03*
X194297056Y-97762500D03*
%TD*%
D46*
%TO.C,C8*%
X156000000Y-124900000D03*
X156000000Y-133700000D03*
%TD*%
D15*
%TO.C,R13*%
X185900000Y-83890000D03*
X185900000Y-84910000D03*
%TD*%
%TO.C,R24*%
X173197056Y-83937056D03*
X173197056Y-84957056D03*
%TD*%
D43*
%TO.C,D8*%
X198400000Y-122587500D03*
X198400000Y-121012500D03*
%TD*%
D10*
%TO.C,C13*%
X141780000Y-115000000D03*
X140820000Y-115000000D03*
%TD*%
D47*
%TO.C,C25*%
X188397056Y-110772056D03*
X190122056Y-110772056D03*
%TD*%
M02*
