%TF.GenerationSoftware,KiCad,Pcbnew,7.0.7-7.0.7~ubuntu22.04.1*%
%TF.CreationDate,2023-09-07T14:29:00+02:00*%
%TF.ProjectId,Inverter_KiCAD,496e7665-7274-4657-925f-4b694341442e,rev?*%
%TF.SameCoordinates,Original*%
%TF.FileFunction,Soldermask,Top*%
%TF.FilePolarity,Negative*%
%FSLAX46Y46*%
G04 Gerber Fmt 4.6, Leading zero omitted, Abs format (unit mm)*
G04 Created by KiCad (PCBNEW 7.0.7-7.0.7~ubuntu22.04.1) date 2023-09-07 14:29:00*
%MOMM*%
%LPD*%
G01*
G04 APERTURE LIST*
G04 Aperture macros list*
%AMRoundRect*
0 Rectangle with rounded corners*
0 $1 Rounding radius*
0 $2 $3 $4 $5 $6 $7 $8 $9 X,Y pos of 4 corners*
0 Add a 4 corners polygon primitive as box body*
4,1,4,$2,$3,$4,$5,$6,$7,$8,$9,$2,$3,0*
0 Add four circle primitives for the rounded corners*
1,1,$1+$1,$2,$3*
1,1,$1+$1,$4,$5*
1,1,$1+$1,$6,$7*
1,1,$1+$1,$8,$9*
0 Add four rect primitives between the rounded corners*
20,1,$1+$1,$2,$3,$4,$5,0*
20,1,$1+$1,$4,$5,$6,$7,0*
20,1,$1+$1,$6,$7,$8,$9,0*
20,1,$1+$1,$8,$9,$2,$3,0*%
G04 Aperture macros list end*
%ADD10RoundRect,0.218750X-0.218750X-0.256250X0.218750X-0.256250X0.218750X0.256250X-0.218750X0.256250X0*%
%ADD11RoundRect,0.218750X-0.256250X0.218750X-0.256250X-0.218750X0.256250X-0.218750X0.256250X0.218750X0*%
%ADD12C,0.800000*%
%ADD13C,6.400000*%
%ADD14RoundRect,0.140000X-0.140000X-0.170000X0.140000X-0.170000X0.140000X0.170000X-0.140000X0.170000X0*%
%ADD15RoundRect,0.250000X0.550000X-1.250000X0.550000X1.250000X-0.550000X1.250000X-0.550000X-1.250000X0*%
%ADD16RoundRect,0.250000X0.625000X-0.312500X0.625000X0.312500X-0.625000X0.312500X-0.625000X-0.312500X0*%
%ADD17C,1.524000*%
%ADD18R,4.000000X4.000000*%
%ADD19C,4.000000*%
%ADD20RoundRect,0.140000X0.140000X0.170000X-0.140000X0.170000X-0.140000X-0.170000X0.140000X-0.170000X0*%
%ADD21C,1.600000*%
%ADD22R,1.905000X2.000000*%
%ADD23O,1.905000X2.000000*%
%ADD24C,2.400000*%
%ADD25C,1.498600*%
%ADD26RoundRect,0.225000X0.275000X-0.225000X0.275000X0.225000X-0.275000X0.225000X-0.275000X-0.225000X0*%
%ADD27RoundRect,0.135000X-0.185000X0.135000X-0.185000X-0.135000X0.185000X-0.135000X0.185000X0.135000X0*%
%ADD28RoundRect,0.135000X-0.135000X-0.185000X0.135000X-0.185000X0.135000X0.185000X-0.135000X0.185000X0*%
%ADD29RoundRect,0.135000X0.135000X0.185000X-0.135000X0.185000X-0.135000X-0.185000X0.135000X-0.185000X0*%
%ADD30RoundRect,0.250000X-2.050000X-0.300000X2.050000X-0.300000X2.050000X0.300000X-2.050000X0.300000X0*%
%ADD31RoundRect,0.250002X-4.449998X-5.149998X4.449998X-5.149998X4.449998X5.149998X-4.449998X5.149998X0*%
%ADD32RoundRect,0.140000X-0.170000X0.140000X-0.170000X-0.140000X0.170000X-0.140000X0.170000X0.140000X0*%
%ADD33C,0.650000*%
%ADD34R,1.450000X0.600000*%
%ADD35R,1.450000X0.300000*%
%ADD36O,2.100000X1.000000*%
%ADD37O,1.600000X1.000000*%
%ADD38RoundRect,0.250000X-0.725000X0.600000X-0.725000X-0.600000X0.725000X-0.600000X0.725000X0.600000X0*%
%ADD39O,1.950000X1.700000*%
%ADD40RoundRect,0.150000X-0.512500X-0.150000X0.512500X-0.150000X0.512500X0.150000X-0.512500X0.150000X0*%
%ADD41RoundRect,0.135000X0.185000X-0.135000X0.185000X0.135000X-0.185000X0.135000X-0.185000X-0.135000X0*%
%ADD42R,0.508000X1.460500*%
%ADD43RoundRect,0.254000X0.254000X0.746000X-0.254000X0.746000X-0.254000X-0.746000X0.254000X-0.746000X0*%
%ADD44RoundRect,0.317500X0.317500X0.682500X-0.317500X0.682500X-0.317500X-0.682500X0.317500X-0.682500X0*%
%ADD45RoundRect,0.265000X0.265000X0.735000X-0.265000X0.735000X-0.265000X-0.735000X0.265000X-0.735000X0*%
%ADD46R,1.700000X1.700000*%
%ADD47O,1.700000X1.700000*%
%ADD48C,2.006600*%
%ADD49RoundRect,0.150000X0.150000X-0.825000X0.150000X0.825000X-0.150000X0.825000X-0.150000X-0.825000X0*%
%ADD50C,1.600200*%
%ADD51C,3.708400*%
%ADD52RoundRect,0.218750X0.218750X0.256250X-0.218750X0.256250X-0.218750X-0.256250X0.218750X-0.256250X0*%
%ADD53RoundRect,0.218750X0.256250X-0.218750X0.256250X0.218750X-0.256250X0.218750X-0.256250X-0.218750X0*%
%ADD54RoundRect,0.075000X-0.700000X-0.075000X0.700000X-0.075000X0.700000X0.075000X-0.700000X0.075000X0*%
%ADD55RoundRect,0.075000X-0.075000X-0.700000X0.075000X-0.700000X0.075000X0.700000X-0.075000X0.700000X0*%
%ADD56RoundRect,0.250000X-0.550000X1.500000X-0.550000X-1.500000X0.550000X-1.500000X0.550000X1.500000X0*%
%ADD57RoundRect,0.250000X0.600000X0.750000X-0.600000X0.750000X-0.600000X-0.750000X0.600000X-0.750000X0*%
%ADD58O,1.700000X2.000000*%
%ADD59R,0.740000X2.400000*%
%ADD60RoundRect,0.150000X0.150000X-0.587500X0.150000X0.587500X-0.150000X0.587500X-0.150000X-0.587500X0*%
%ADD61C,2.800000*%
%ADD62C,3.200000*%
%ADD63R,0.508000X1.346200*%
%ADD64RoundRect,0.225000X-0.250000X0.225000X-0.250000X-0.225000X0.250000X-0.225000X0.250000X0.225000X0*%
%ADD65RoundRect,0.140000X0.170000X-0.140000X0.170000X0.140000X-0.170000X0.140000X-0.170000X-0.140000X0*%
%ADD66R,1.016000X4.318000*%
%ADD67RoundRect,0.250000X-0.550000X1.050000X-0.550000X-1.050000X0.550000X-1.050000X0.550000X1.050000X0*%
%ADD68RoundRect,0.225000X0.250000X-0.225000X0.250000X0.225000X-0.250000X0.225000X-0.250000X-0.225000X0*%
%ADD69RoundRect,0.250000X-0.312500X-0.625000X0.312500X-0.625000X0.312500X0.625000X-0.312500X0.625000X0*%
%ADD70RoundRect,0.150000X0.825000X0.150000X-0.825000X0.150000X-0.825000X-0.150000X0.825000X-0.150000X0*%
%ADD71R,1.500000X2.000000*%
%ADD72R,3.800000X2.000000*%
%ADD73RoundRect,0.150000X0.150000X-0.725000X0.150000X0.725000X-0.150000X0.725000X-0.150000X-0.725000X0*%
G04 APERTURE END LIST*
D10*
%TO.C,D402*%
X186710000Y-125100000D03*
X188285000Y-125100000D03*
%TD*%
D11*
%TO.C,D804*%
X121200000Y-149372500D03*
X121200000Y-150947500D03*
%TD*%
D12*
%TO.C,H109*%
X92070000Y-58870000D03*
X92772944Y-57172944D03*
X92772944Y-60567056D03*
X94470000Y-56470000D03*
D13*
X94470000Y-58870000D03*
D12*
X94470000Y-61270000D03*
X96167056Y-57172944D03*
X96167056Y-60567056D03*
X96870000Y-58870000D03*
%TD*%
D11*
%TO.C,D502*%
X112200000Y-139212500D03*
X112200000Y-140787500D03*
%TD*%
D14*
%TO.C,C812*%
X157237500Y-163775000D03*
X158197500Y-163775000D03*
%TD*%
D15*
%TO.C,C203*%
X86340000Y-111200000D03*
X86340000Y-106800000D03*
%TD*%
D10*
%TO.C,D302*%
X139137500Y-125200000D03*
X140712500Y-125200000D03*
%TD*%
D16*
%TO.C,R408*%
X193835000Y-108902500D03*
X193835000Y-105977500D03*
%TD*%
D17*
%TO.C,U301*%
X122500000Y-123592500D03*
X122500000Y-121052500D03*
X122500000Y-118512500D03*
X122500000Y-113432500D03*
X122500000Y-110892500D03*
X122500000Y-108352500D03*
X122500000Y-105812500D03*
%TD*%
D18*
%TO.C,C1004*%
X89000000Y-29000000D03*
D19*
X89000000Y-39000000D03*
%TD*%
D20*
%TO.C,C901*%
X57380000Y-120300000D03*
X56420000Y-120300000D03*
%TD*%
D21*
%TO.C,U701*%
X65500000Y-123592500D03*
X65500000Y-121052500D03*
X65500000Y-118512500D03*
X65500000Y-113432500D03*
X65500000Y-110892500D03*
X65500000Y-108352500D03*
X65500000Y-105812500D03*
%TD*%
D22*
%TO.C,Q202*%
X87540000Y-102940000D03*
D23*
X90080000Y-102940000D03*
X92620000Y-102940000D03*
%TD*%
D24*
%TO.C,J104*%
X212000000Y-86920000D03*
X212000000Y-92000000D03*
X212000000Y-97080000D03*
%TD*%
D25*
%TO.C,U502*%
X64320000Y-134400000D03*
X66860000Y-134400000D03*
X69400000Y-134400000D03*
%TD*%
D14*
%TO.C,C818*%
X120720000Y-160700000D03*
X121680000Y-160700000D03*
%TD*%
D26*
%TO.C,SW801*%
X103700000Y-177150000D03*
X103700000Y-173050000D03*
X105300000Y-177150000D03*
X105300000Y-173050000D03*
%TD*%
D27*
%TO.C,R1402*%
X45800000Y-65400000D03*
X45800000Y-66420000D03*
%TD*%
D11*
%TO.C,D803*%
X115200000Y-149375000D03*
X115200000Y-150950000D03*
%TD*%
D27*
%TO.C,R302*%
X145005000Y-122630000D03*
X145005000Y-123650000D03*
%TD*%
D28*
%TO.C,R305*%
X144415000Y-126500000D03*
X145435000Y-126500000D03*
%TD*%
D22*
%TO.C,Q403*%
X193660000Y-102940000D03*
D23*
X196200000Y-102940000D03*
X198740000Y-102940000D03*
%TD*%
D26*
%TO.C,SW804*%
X114400000Y-166050000D03*
X114400000Y-161950000D03*
X116000000Y-166050000D03*
X116000000Y-161950000D03*
%TD*%
D29*
%TO.C,R809*%
X139610000Y-127500000D03*
X138590000Y-127500000D03*
%TD*%
D15*
%TO.C,C204*%
X104740000Y-111200000D03*
X104740000Y-106800000D03*
%TD*%
D16*
%TO.C,R208*%
X98715000Y-108902500D03*
X98715000Y-105977500D03*
%TD*%
D10*
%TO.C,D403*%
X191737500Y-125100000D03*
X193312500Y-125100000D03*
%TD*%
D15*
%TO.C,C404*%
X199860000Y-111200000D03*
X199860000Y-106800000D03*
%TD*%
D30*
%TO.C,D902*%
X50050000Y-70760000D03*
D31*
X59200000Y-73300000D03*
D30*
X50050000Y-75840000D03*
%TD*%
D12*
%TO.C,H103*%
X210600000Y-206000000D03*
X211302944Y-204302944D03*
X211302944Y-207697056D03*
X213000000Y-203600000D03*
D13*
X213000000Y-206000000D03*
D12*
X213000000Y-208400000D03*
X214697056Y-204302944D03*
X214697056Y-207697056D03*
X215400000Y-206000000D03*
%TD*%
D32*
%TO.C,C808*%
X166275000Y-176945000D03*
X166275000Y-177905000D03*
%TD*%
D12*
%TO.C,H108*%
X44600000Y-58000000D03*
X45302944Y-56302944D03*
X45302944Y-59697056D03*
X47000000Y-55600000D03*
D13*
X47000000Y-58000000D03*
D12*
X47000000Y-60400000D03*
X48697056Y-56302944D03*
X48697056Y-59697056D03*
X49400000Y-58000000D03*
%TD*%
%TO.C,H107*%
X210600000Y-72000000D03*
X211302944Y-70302944D03*
X211302944Y-73697056D03*
X213000000Y-69600000D03*
D13*
X213000000Y-72000000D03*
D12*
X213000000Y-74400000D03*
X214697056Y-70302944D03*
X214697056Y-73697056D03*
X215400000Y-72000000D03*
%TD*%
D33*
%TO.C,J801*%
X211400000Y-196890000D03*
X211400000Y-191110000D03*
D34*
X209955000Y-197250000D03*
X209955000Y-196450000D03*
D35*
X209955000Y-195250000D03*
X209955000Y-194250000D03*
X209955000Y-193750000D03*
X209955000Y-192750000D03*
D34*
X209955000Y-191550000D03*
X209955000Y-190750000D03*
X209955000Y-190750000D03*
X209955000Y-191550000D03*
D35*
X209955000Y-192250000D03*
X209955000Y-193250000D03*
X209955000Y-194750000D03*
X209955000Y-195750000D03*
D34*
X209955000Y-196450000D03*
X209955000Y-197250000D03*
D36*
X210870000Y-198320000D03*
D37*
X215050000Y-198320000D03*
D36*
X210870000Y-189680000D03*
D37*
X215050000Y-189680000D03*
%TD*%
D15*
%TO.C,C304*%
X152300000Y-111200000D03*
X152300000Y-106800000D03*
%TD*%
D10*
%TO.C,D203*%
X96640000Y-125200000D03*
X98215000Y-125200000D03*
%TD*%
D28*
%TO.C,R205*%
X96890000Y-126500000D03*
X97910000Y-126500000D03*
%TD*%
D38*
%TO.C,J802*%
X132400000Y-161000000D03*
D39*
X132400000Y-163500000D03*
X132400000Y-166000000D03*
X132400000Y-168500000D03*
X132400000Y-171000000D03*
%TD*%
D22*
%TO.C,Q303*%
X146100000Y-102940000D03*
D23*
X148640000Y-102940000D03*
X151180000Y-102940000D03*
%TD*%
D18*
%TO.C,C1003*%
X125000000Y-29000000D03*
D19*
X125000000Y-39000000D03*
%TD*%
D29*
%TO.C,R808*%
X92910000Y-127500000D03*
X91890000Y-127500000D03*
%TD*%
D32*
%TO.C,C902*%
X55100000Y-111220000D03*
X55100000Y-112180000D03*
%TD*%
D14*
%TO.C,C815*%
X102720000Y-160700000D03*
X103680000Y-160700000D03*
%TD*%
D32*
%TO.C,C602*%
X39500000Y-120420000D03*
X39500000Y-121380000D03*
%TD*%
D27*
%TO.C,R201*%
X92365000Y-122630000D03*
X92365000Y-123650000D03*
%TD*%
D40*
%TO.C,U802*%
X204862500Y-193150000D03*
X204862500Y-194100000D03*
X204862500Y-195050000D03*
X207137500Y-195050000D03*
X207137500Y-194100000D03*
X207137500Y-193150000D03*
%TD*%
D41*
%TO.C,R807*%
X121200000Y-147807500D03*
X121200000Y-146787500D03*
%TD*%
D42*
%TO.C,U601*%
X40905000Y-113275850D03*
X39635000Y-113275850D03*
X38365000Y-113275850D03*
X37095000Y-113275850D03*
X37095000Y-118724150D03*
X38365000Y-118724150D03*
X39635000Y-118724150D03*
X40905000Y-118724150D03*
%TD*%
D43*
%TO.C,U602*%
X51810000Y-111550000D03*
D44*
X49270000Y-111550000D03*
X46730000Y-111550000D03*
D43*
X44190000Y-111550000D03*
X44190000Y-120450000D03*
D44*
X46730000Y-120450000D03*
X49270000Y-120450000D03*
D45*
X51810000Y-120450000D03*
%TD*%
D46*
%TO.C,J101*%
X185260000Y-140570000D03*
D47*
X185260000Y-143110000D03*
X182720000Y-140570000D03*
X182720000Y-143110000D03*
X180180000Y-140570000D03*
X180180000Y-143110000D03*
X177640000Y-140570000D03*
X177640000Y-143110000D03*
X175100000Y-140570000D03*
X175100000Y-143110000D03*
X172560000Y-140570000D03*
X172560000Y-143110000D03*
X170020000Y-140570000D03*
X170020000Y-143110000D03*
X167480000Y-140570000D03*
X167480000Y-143110000D03*
X164940000Y-140570000D03*
X164940000Y-143110000D03*
X162400000Y-140570000D03*
X162400000Y-143110000D03*
X159860000Y-140570000D03*
X159860000Y-143110000D03*
X157320000Y-140570000D03*
X157320000Y-143110000D03*
X154780000Y-140570000D03*
X154780000Y-143110000D03*
X152240000Y-140570000D03*
X152240000Y-143110000D03*
X149700000Y-140570000D03*
X149700000Y-143110000D03*
X147160000Y-140570000D03*
X147160000Y-143110000D03*
X144620000Y-140570000D03*
X144620000Y-143110000D03*
X142080000Y-140570000D03*
X142080000Y-143110000D03*
X139540000Y-140570000D03*
X139540000Y-143110000D03*
%TD*%
D14*
%TO.C,C606*%
X53120000Y-120300000D03*
X54080000Y-120300000D03*
%TD*%
D41*
%TO.C,R804*%
X103200000Y-147812500D03*
X103200000Y-146792500D03*
%TD*%
D28*
%TO.C,R304*%
X139387500Y-126500000D03*
X140407500Y-126500000D03*
%TD*%
D12*
%TO.C,H102*%
X34600000Y-130000000D03*
X35302944Y-128302944D03*
X35302944Y-131697056D03*
X37000000Y-127600000D03*
D13*
X37000000Y-130000000D03*
D12*
X37000000Y-132400000D03*
X38697056Y-128302944D03*
X38697056Y-131697056D03*
X39400000Y-130000000D03*
%TD*%
D29*
%TO.C,R409*%
X192160000Y-105900000D03*
X191140000Y-105900000D03*
%TD*%
D48*
%TO.C,U501*%
X64005501Y-204750000D03*
X69505500Y-204750000D03*
X73005501Y-143249996D03*
X64005501Y-143249996D03*
%TD*%
D22*
%TO.C,Q203*%
X98540000Y-102940000D03*
D23*
X101080000Y-102940000D03*
X103620000Y-102940000D03*
%TD*%
D22*
%TO.C,Q402*%
X182660000Y-102940000D03*
D23*
X185200000Y-102940000D03*
X187740000Y-102940000D03*
%TD*%
D29*
%TO.C,R1201*%
X125885000Y-142105000D03*
X124865000Y-142105000D03*
%TD*%
D41*
%TO.C,R1401*%
X42575000Y-101035000D03*
X42575000Y-100015000D03*
%TD*%
D12*
%TO.C,H104*%
X210600000Y-130000000D03*
X211302944Y-128302944D03*
X211302944Y-131697056D03*
X213000000Y-127600000D03*
D13*
X213000000Y-130000000D03*
D12*
X213000000Y-132400000D03*
X214697056Y-128302944D03*
X214697056Y-131697056D03*
X215400000Y-130000000D03*
%TD*%
D10*
%TO.C,D1403*%
X44625000Y-104700000D03*
X46200000Y-104700000D03*
%TD*%
D12*
%TO.C,H114*%
X188300000Y-94470000D03*
X189002944Y-92772944D03*
X189002944Y-96167056D03*
X190700000Y-92070000D03*
D13*
X190700000Y-94470000D03*
D12*
X190700000Y-96870000D03*
X192397056Y-92772944D03*
X192397056Y-96167056D03*
X193100000Y-94470000D03*
%TD*%
D32*
%TO.C,C903*%
X60200000Y-107820000D03*
X60200000Y-108780000D03*
%TD*%
D14*
%TO.C,C816*%
X108720000Y-160700000D03*
X109680000Y-160700000D03*
%TD*%
D24*
%TO.C,J102*%
X42525000Y-76825000D03*
X42525000Y-71745000D03*
%TD*%
D16*
%TO.C,R306*%
X139925000Y-108902500D03*
X139925000Y-105977500D03*
%TD*%
D28*
%TO.C,R405*%
X191987500Y-126400000D03*
X193007500Y-126400000D03*
%TD*%
D29*
%TO.C,R309*%
X144610000Y-105900000D03*
X143590000Y-105900000D03*
%TD*%
%TO.C,R602*%
X48510000Y-109800000D03*
X47490000Y-109800000D03*
%TD*%
D11*
%TO.C,D801*%
X103200000Y-149377500D03*
X103200000Y-150952500D03*
%TD*%
D20*
%TO.C,C605*%
X51732500Y-109800000D03*
X50772500Y-109800000D03*
%TD*%
D11*
%TO.C,D1402*%
X47100000Y-65212500D03*
X47100000Y-66787500D03*
%TD*%
D16*
%TO.C,R308*%
X146275000Y-108902500D03*
X146275000Y-105977500D03*
%TD*%
D29*
%TO.C,R810*%
X187960000Y-127425000D03*
X186940000Y-127425000D03*
%TD*%
D49*
%TO.C,U902*%
X55100000Y-108850000D03*
X56370000Y-108850000D03*
X57640000Y-108850000D03*
X58910000Y-108850000D03*
X58910000Y-103900000D03*
X57640000Y-103900000D03*
X56370000Y-103900000D03*
X55100000Y-103900000D03*
%TD*%
D50*
%TO.C,J1301*%
X120994999Y-196060000D03*
X118224999Y-196060000D03*
X115455000Y-196060000D03*
X112685000Y-196060000D03*
X109915001Y-196060000D03*
X119609999Y-198600000D03*
X116839999Y-198600000D03*
X114070000Y-198600000D03*
X111300000Y-198600000D03*
D51*
X102960001Y-197330000D03*
X127949999Y-197330000D03*
%TD*%
D28*
%TO.C,R204*%
X91862500Y-126500000D03*
X92882500Y-126500000D03*
%TD*%
D41*
%TO.C,R501*%
X106200000Y-137510000D03*
X106200000Y-136490000D03*
%TD*%
D32*
%TO.C,C603*%
X38500000Y-120420000D03*
X38500000Y-121380000D03*
%TD*%
D52*
%TO.C,D401*%
X190757500Y-128400000D03*
X189182500Y-128400000D03*
%TD*%
D15*
%TO.C,C403*%
X181460000Y-111200000D03*
X181460000Y-106800000D03*
%TD*%
D27*
%TO.C,R401*%
X187485000Y-122630000D03*
X187485000Y-123650000D03*
%TD*%
D29*
%TO.C,R403*%
X190310000Y-127100000D03*
X189290000Y-127100000D03*
%TD*%
D53*
%TO.C,D901*%
X61300000Y-122187500D03*
X61300000Y-120612500D03*
%TD*%
D12*
%TO.C,H112*%
X140740000Y-94470000D03*
X141442944Y-92772944D03*
X141442944Y-96167056D03*
X143140000Y-92070000D03*
D13*
X143140000Y-94470000D03*
D12*
X143140000Y-96870000D03*
X144837056Y-92772944D03*
X144837056Y-96167056D03*
X145540000Y-94470000D03*
%TD*%
D16*
%TO.C,R206*%
X92365000Y-108902500D03*
X92365000Y-105977500D03*
%TD*%
D53*
%TO.C,L801*%
X165900000Y-181012500D03*
X165900000Y-179437500D03*
%TD*%
D18*
%TO.C,C1002*%
X161000000Y-29000000D03*
D19*
X161000000Y-39000000D03*
%TD*%
D41*
%TO.C,R801*%
X159350000Y-163612500D03*
X159350000Y-162592500D03*
%TD*%
D54*
%TO.C,U801*%
X155925000Y-167250000D03*
X155925000Y-167750000D03*
X155925000Y-168250000D03*
X155925000Y-168750000D03*
X155925000Y-169250000D03*
X155925000Y-169750000D03*
X155925000Y-170250000D03*
X155925000Y-170750000D03*
X155925000Y-171250000D03*
X155925000Y-171750000D03*
X155925000Y-172250000D03*
X155925000Y-172750000D03*
X155925000Y-173250000D03*
X155925000Y-173750000D03*
X155925000Y-174250000D03*
X155925000Y-174750000D03*
D55*
X157850000Y-176675000D03*
X158350000Y-176675000D03*
X158850000Y-176675000D03*
X159350000Y-176675000D03*
X159850000Y-176675000D03*
X160350000Y-176675000D03*
X160850000Y-176675000D03*
X161350000Y-176675000D03*
X161850000Y-176675000D03*
X162350000Y-176675000D03*
X162850000Y-176675000D03*
X163350000Y-176675000D03*
X163850000Y-176675000D03*
X164350000Y-176675000D03*
X164850000Y-176675000D03*
X165350000Y-176675000D03*
D54*
X167275000Y-174750000D03*
X167275000Y-174250000D03*
X167275000Y-173750000D03*
X167275000Y-173250000D03*
X167275000Y-172750000D03*
X167275000Y-172250000D03*
X167275000Y-171750000D03*
X167275000Y-171250000D03*
X167275000Y-170750000D03*
X167275000Y-170250000D03*
X167275000Y-169750000D03*
X167275000Y-169250000D03*
X167275000Y-168750000D03*
X167275000Y-168250000D03*
X167275000Y-167750000D03*
X167275000Y-167250000D03*
D55*
X165350000Y-165325000D03*
X164850000Y-165325000D03*
X164350000Y-165325000D03*
X163850000Y-165325000D03*
X163350000Y-165325000D03*
X162850000Y-165325000D03*
X162350000Y-165325000D03*
X161850000Y-165325000D03*
X161350000Y-165325000D03*
X160850000Y-165325000D03*
X160350000Y-165325000D03*
X159850000Y-165325000D03*
X159350000Y-165325000D03*
X158850000Y-165325000D03*
X158350000Y-165325000D03*
X157850000Y-165325000D03*
%TD*%
D28*
%TO.C,R307*%
X136390000Y-105000000D03*
X137410000Y-105000000D03*
%TD*%
D12*
%TO.C,H113*%
X188300000Y-58870000D03*
X189002944Y-57172944D03*
X189002944Y-60567056D03*
X190700000Y-56470000D03*
D13*
X190700000Y-58870000D03*
D12*
X190700000Y-61270000D03*
X192397056Y-57172944D03*
X192397056Y-60567056D03*
X193100000Y-58870000D03*
%TD*%
D27*
%TO.C,R701*%
X61200000Y-104690000D03*
X61200000Y-105710000D03*
%TD*%
D12*
%TO.C,H111*%
X140740000Y-58870000D03*
X141442944Y-57172944D03*
X141442944Y-60567056D03*
X143140000Y-56470000D03*
D13*
X143140000Y-58870000D03*
D12*
X143140000Y-61270000D03*
X144837056Y-57172944D03*
X144837056Y-60567056D03*
X145540000Y-58870000D03*
%TD*%
D32*
%TO.C,C809*%
X154350000Y-167345000D03*
X154350000Y-168305000D03*
%TD*%
D56*
%TO.C,C302*%
X152300000Y-119540000D03*
X152300000Y-124940000D03*
%TD*%
D57*
%TO.C,J1102*%
X56700000Y-129800000D03*
D58*
X54200000Y-129800000D03*
%TD*%
D59*
%TO.C,J803*%
X108390000Y-176950000D03*
X108390000Y-173050000D03*
X109660000Y-176950000D03*
X109660000Y-173050000D03*
X110930000Y-176950000D03*
X110930000Y-173050000D03*
X112200000Y-176950000D03*
X112200000Y-173050000D03*
X113470000Y-176950000D03*
X113470000Y-173050000D03*
X114740000Y-176950000D03*
X114740000Y-173050000D03*
X116010000Y-176950000D03*
X116010000Y-173050000D03*
%TD*%
D11*
%TO.C,D503*%
X118200000Y-139212500D03*
X118200000Y-140787500D03*
%TD*%
D60*
%TO.C,Q1101*%
X125600000Y-133000000D03*
X127500000Y-133000000D03*
X126550000Y-131125000D03*
%TD*%
D28*
%TO.C,R601*%
X47490000Y-107800000D03*
X48510000Y-107800000D03*
%TD*%
%TO.C,R1102*%
X125940000Y-134562500D03*
X126960000Y-134562500D03*
%TD*%
D38*
%TO.C,J804*%
X132400000Y-147462500D03*
D39*
X132400000Y-149962500D03*
X132400000Y-152462500D03*
X132400000Y-154962500D03*
%TD*%
D61*
%TO.C,F501*%
X35400000Y-139600000D03*
X57900000Y-139600000D03*
%TD*%
D62*
%TO.C,J501*%
X51825000Y-183140000D03*
X51825000Y-174000000D03*
X51825000Y-164860000D03*
%TD*%
D20*
%TO.C,C604*%
X48480000Y-108800000D03*
X47520000Y-108800000D03*
%TD*%
D56*
%TO.C,C201*%
X86340000Y-119540000D03*
X86340000Y-124940000D03*
%TD*%
D30*
%TO.C,D903*%
X50050000Y-82260000D03*
D31*
X59200000Y-84800000D03*
D30*
X50050000Y-87340000D03*
%TD*%
D32*
%TO.C,C1301*%
X109500000Y-185520000D03*
X109500000Y-186480000D03*
%TD*%
D15*
%TO.C,C502*%
X89200000Y-133950000D03*
X89200000Y-129550000D03*
%TD*%
D63*
%TO.C,Q301*%
X138655000Y-120991100D03*
X139925000Y-120991100D03*
X141195000Y-120991100D03*
X145005000Y-120991100D03*
X146275000Y-120991100D03*
X147545000Y-120991100D03*
X147545000Y-111008900D03*
X146275000Y-111008900D03*
X145005000Y-111008900D03*
X141195000Y-111008900D03*
X139925000Y-111008900D03*
X138655000Y-111008900D03*
%TD*%
D64*
%TO.C,C813*%
X136000000Y-147825000D03*
X136000000Y-149375000D03*
%TD*%
D65*
%TO.C,C811*%
X154200000Y-175305000D03*
X154200000Y-174345000D03*
%TD*%
D29*
%TO.C,R209*%
X97010000Y-105900000D03*
X95990000Y-105900000D03*
%TD*%
D66*
%TO.C,Y801*%
X146600000Y-174199000D03*
X146600000Y-164801000D03*
%TD*%
D63*
%TO.C,Q401*%
X186215000Y-120991100D03*
X187485000Y-120991100D03*
X188755000Y-120991100D03*
X192565000Y-120991100D03*
X193835000Y-120991100D03*
X195105000Y-120991100D03*
X195105000Y-111008900D03*
X193835000Y-111008900D03*
X192565000Y-111008900D03*
X188755000Y-111008900D03*
X187485000Y-111008900D03*
X186215000Y-111008900D03*
%TD*%
D22*
%TO.C,Q302*%
X135100000Y-102940000D03*
D23*
X137640000Y-102940000D03*
X140180000Y-102940000D03*
%TD*%
D56*
%TO.C,C402*%
X199860000Y-119540000D03*
X199860000Y-124940000D03*
%TD*%
D28*
%TO.C,R407*%
X184040000Y-105000000D03*
X185060000Y-105000000D03*
%TD*%
%TO.C,R207*%
X89290000Y-105000000D03*
X90310000Y-105000000D03*
%TD*%
D30*
%TO.C,Q901*%
X50050000Y-93760000D03*
D31*
X59200000Y-96300000D03*
D30*
X50050000Y-98840000D03*
%TD*%
D29*
%TO.C,R802*%
X208010000Y-196300000D03*
X206990000Y-196300000D03*
%TD*%
D57*
%TO.C,J1101*%
X204350000Y-131425000D03*
D58*
X201850000Y-131425000D03*
%TD*%
D67*
%TO.C,C501*%
X76300000Y-129900000D03*
X76300000Y-133500000D03*
%TD*%
D56*
%TO.C,C301*%
X133900000Y-119540000D03*
X133900000Y-124940000D03*
%TD*%
D28*
%TO.C,R404*%
X186960000Y-126400000D03*
X187980000Y-126400000D03*
%TD*%
D12*
%TO.C,H101*%
X34600000Y-206000000D03*
X35302944Y-204302944D03*
X35302944Y-207697056D03*
X37000000Y-203600000D03*
D13*
X37000000Y-206000000D03*
D12*
X37000000Y-208400000D03*
X38697056Y-204302944D03*
X38697056Y-207697056D03*
X39400000Y-206000000D03*
%TD*%
D46*
%TO.C,J103*%
X185260000Y-201530000D03*
D47*
X185260000Y-204070000D03*
X182720000Y-201530000D03*
X182720000Y-204070000D03*
X180180000Y-201530000D03*
X180180000Y-204070000D03*
X177640000Y-201530000D03*
X177640000Y-204070000D03*
X175100000Y-201530000D03*
X175100000Y-204070000D03*
X172560000Y-201530000D03*
X172560000Y-204070000D03*
X170020000Y-201530000D03*
X170020000Y-204070000D03*
X167480000Y-201530000D03*
X167480000Y-204070000D03*
X164940000Y-201530000D03*
X164940000Y-204070000D03*
X162400000Y-201530000D03*
X162400000Y-204070000D03*
X159860000Y-201530000D03*
X159860000Y-204070000D03*
X157320000Y-201530000D03*
X157320000Y-204070000D03*
X154780000Y-201530000D03*
X154780000Y-204070000D03*
X152240000Y-201530000D03*
X152240000Y-204070000D03*
X149700000Y-201530000D03*
X149700000Y-204070000D03*
X147160000Y-201530000D03*
X147160000Y-204070000D03*
X144620000Y-201530000D03*
X144620000Y-204070000D03*
X142080000Y-201530000D03*
X142080000Y-204070000D03*
X139540000Y-201530000D03*
X139540000Y-204070000D03*
%TD*%
D17*
%TO.C,U302*%
X159600000Y-123592500D03*
X159600000Y-121052500D03*
X159600000Y-118512500D03*
X159600000Y-113432500D03*
X159600000Y-110892500D03*
X159600000Y-108352500D03*
X159600000Y-105812500D03*
%TD*%
D26*
%TO.C,SW803*%
X108400000Y-166050000D03*
X108400000Y-161950000D03*
X110000000Y-166050000D03*
X110000000Y-161950000D03*
%TD*%
D68*
%TO.C,C806*%
X136000000Y-162775000D03*
X136000000Y-161225000D03*
%TD*%
D10*
%TO.C,D303*%
X144165000Y-125200000D03*
X145740000Y-125200000D03*
%TD*%
D27*
%TO.C,R402*%
X192565000Y-122630000D03*
X192565000Y-123650000D03*
%TD*%
D17*
%TO.C,U202*%
X112040000Y-123592500D03*
X112040000Y-121052500D03*
X112040000Y-118512500D03*
X112040000Y-113432500D03*
X112040000Y-110892500D03*
X112040000Y-108352500D03*
X112040000Y-105812500D03*
%TD*%
D18*
%TO.C,C1001*%
X197000000Y-29000000D03*
D19*
X197000000Y-39000000D03*
%TD*%
D29*
%TO.C,R203*%
X95210000Y-127100000D03*
X94190000Y-127100000D03*
%TD*%
D32*
%TO.C,C904*%
X61200000Y-107820000D03*
X61200000Y-108780000D03*
%TD*%
D14*
%TO.C,C814*%
X104020000Y-171850000D03*
X104980000Y-171850000D03*
%TD*%
D32*
%TO.C,C601*%
X40900000Y-120420000D03*
X40900000Y-121380000D03*
%TD*%
D69*
%TO.C,R903*%
X43437500Y-94700000D03*
X46362500Y-94700000D03*
%TD*%
D17*
%TO.C,U201*%
X74940000Y-123592500D03*
X74940000Y-121052500D03*
X74940000Y-118512500D03*
X74940000Y-113432500D03*
X74940000Y-110892500D03*
X74940000Y-108352500D03*
X74940000Y-105812500D03*
%TD*%
D56*
%TO.C,C202*%
X104740000Y-119540000D03*
X104740000Y-124940000D03*
%TD*%
D18*
%TO.C,C1005*%
X53000000Y-29000000D03*
D19*
X53000000Y-39000000D03*
%TD*%
D17*
%TO.C,U402*%
X207160000Y-123592500D03*
X207160000Y-121052500D03*
X207160000Y-118512500D03*
X207160000Y-113432500D03*
X207160000Y-110892500D03*
X207160000Y-108352500D03*
X207160000Y-105812500D03*
%TD*%
D26*
%TO.C,SW802*%
X102400000Y-166050000D03*
X102400000Y-161950000D03*
X104000000Y-166050000D03*
X104000000Y-161950000D03*
%TD*%
%TO.C,SW805*%
X120400000Y-166050000D03*
X120400000Y-161950000D03*
X122000000Y-166050000D03*
X122000000Y-161950000D03*
%TD*%
D70*
%TO.C,U1201*%
X132675000Y-142305000D03*
X132675000Y-141035000D03*
X132675000Y-139765000D03*
X132675000Y-138495000D03*
X127725000Y-138495000D03*
X127725000Y-139765000D03*
X127725000Y-141035000D03*
X127725000Y-142305000D03*
%TD*%
D15*
%TO.C,C303*%
X133900000Y-111200000D03*
X133900000Y-106800000D03*
%TD*%
D32*
%TO.C,C805*%
X162600000Y-178820000D03*
X162600000Y-179780000D03*
%TD*%
D63*
%TO.C,Q201*%
X91095000Y-120991100D03*
X92365000Y-120991100D03*
X93635000Y-120991100D03*
X97445000Y-120991100D03*
X98715000Y-120991100D03*
X99985000Y-120991100D03*
X99985000Y-111008900D03*
X98715000Y-111008900D03*
X97445000Y-111008900D03*
X93635000Y-111008900D03*
X92365000Y-111008900D03*
X91095000Y-111008900D03*
%TD*%
D41*
%TO.C,R502*%
X112200000Y-137510000D03*
X112200000Y-136490000D03*
%TD*%
D71*
%TO.C,U503*%
X84800000Y-128700000D03*
X82500000Y-128700000D03*
D72*
X82500000Y-135000000D03*
D71*
X80200000Y-128700000D03*
%TD*%
D11*
%TO.C,D802*%
X109200000Y-149377500D03*
X109200000Y-150952500D03*
%TD*%
D29*
%TO.C,R303*%
X142840000Y-127100000D03*
X141820000Y-127100000D03*
%TD*%
D12*
%TO.C,H105*%
X34600000Y-18000000D03*
X35302944Y-16302944D03*
X35302944Y-19697056D03*
X37000000Y-15600000D03*
D13*
X37000000Y-18000000D03*
D12*
X37000000Y-20400000D03*
X38697056Y-16302944D03*
X38697056Y-19697056D03*
X39400000Y-18000000D03*
%TD*%
D49*
%TO.C,U1301*%
X110864999Y-191275000D03*
X112134999Y-191275000D03*
X113404999Y-191275000D03*
X114674999Y-191275000D03*
X115944999Y-191275000D03*
X117214999Y-191275000D03*
X118484999Y-191275000D03*
X119754999Y-191275000D03*
X119754999Y-186325000D03*
X118484999Y-186325000D03*
X117214999Y-186325000D03*
X115944999Y-186325000D03*
X114674999Y-186325000D03*
X113404999Y-186325000D03*
X112134999Y-186325000D03*
X110864999Y-186325000D03*
%TD*%
D32*
%TO.C,C807*%
X164600000Y-178820000D03*
X164600000Y-179780000D03*
%TD*%
D14*
%TO.C,C817*%
X114720000Y-160700000D03*
X115680000Y-160700000D03*
%TD*%
D32*
%TO.C,C802*%
X149800000Y-170120000D03*
X149800000Y-171080000D03*
%TD*%
D29*
%TO.C,R803*%
X208012500Y-191900000D03*
X206992500Y-191900000D03*
%TD*%
D17*
%TO.C,U401*%
X170060000Y-123592500D03*
X170060000Y-121052500D03*
X170060000Y-118512500D03*
X170060000Y-113432500D03*
X170060000Y-110892500D03*
X170060000Y-108352500D03*
X170060000Y-105812500D03*
%TD*%
D32*
%TO.C,C810*%
X163600000Y-178820000D03*
X163600000Y-179780000D03*
%TD*%
D52*
%TO.C,D201*%
X95657500Y-128400000D03*
X94082500Y-128400000D03*
%TD*%
D12*
%TO.C,H110*%
X93180000Y-94470000D03*
X93882944Y-92772944D03*
X93882944Y-96167056D03*
X95580000Y-92070000D03*
D13*
X95580000Y-94470000D03*
D12*
X95580000Y-96870000D03*
X97277056Y-92772944D03*
X97277056Y-96167056D03*
X97980000Y-94470000D03*
%TD*%
D28*
%TO.C,R1101*%
X125940000Y-135562500D03*
X126960000Y-135562500D03*
%TD*%
D11*
%TO.C,D501*%
X106200000Y-139212500D03*
X106200000Y-140787500D03*
%TD*%
D65*
%TO.C,C801*%
X149800000Y-168912500D03*
X149800000Y-167952500D03*
%TD*%
D28*
%TO.C,R901*%
X58850000Y-120300000D03*
X59870000Y-120300000D03*
%TD*%
D32*
%TO.C,C804*%
X169075000Y-166420000D03*
X169075000Y-167380000D03*
%TD*%
D64*
%TO.C,C803*%
X153075000Y-166700000D03*
X153075000Y-168250000D03*
%TD*%
D28*
%TO.C,R1403*%
X44812500Y-106000000D03*
X45832500Y-106000000D03*
%TD*%
D27*
%TO.C,R301*%
X139925000Y-122630000D03*
X139925000Y-123650000D03*
%TD*%
D28*
%TO.C,R902*%
X57187500Y-110600000D03*
X58207500Y-110600000D03*
%TD*%
D41*
%TO.C,R503*%
X118200000Y-137510000D03*
X118200000Y-136490000D03*
%TD*%
D14*
%TO.C,C1201*%
X124895000Y-141105000D03*
X125855000Y-141105000D03*
%TD*%
D56*
%TO.C,C401*%
X181460000Y-119540000D03*
X181460000Y-124940000D03*
%TD*%
D27*
%TO.C,R202*%
X97445000Y-122630000D03*
X97445000Y-123650000D03*
%TD*%
D16*
%TO.C,R406*%
X187485000Y-108902500D03*
X187485000Y-105977500D03*
%TD*%
D12*
%TO.C,H106*%
X210600000Y-18000000D03*
X211302944Y-16302944D03*
X211302944Y-19697056D03*
X213000000Y-15600000D03*
D13*
X213000000Y-18000000D03*
D12*
X213000000Y-20400000D03*
X214697056Y-16302944D03*
X214697056Y-19697056D03*
X215400000Y-18000000D03*
%TD*%
D10*
%TO.C,D202*%
X91612500Y-125200000D03*
X93187500Y-125200000D03*
%TD*%
D24*
%TO.C,J901*%
X42525000Y-89625000D03*
X42525000Y-84545000D03*
%TD*%
D53*
%TO.C,D1401*%
X41000000Y-101297500D03*
X41000000Y-99722500D03*
%TD*%
D73*
%TO.C,U901*%
X57495000Y-118575000D03*
X58765000Y-118575000D03*
X60035000Y-118575000D03*
X61305000Y-118575000D03*
X61305000Y-113425000D03*
X60035000Y-113425000D03*
X58765000Y-113425000D03*
X57495000Y-113425000D03*
%TD*%
D41*
%TO.C,R805*%
X109200000Y-147812500D03*
X109200000Y-146792500D03*
%TD*%
D52*
%TO.C,D301*%
X143287500Y-128400000D03*
X141712500Y-128400000D03*
%TD*%
D41*
%TO.C,R806*%
X115200000Y-147810000D03*
X115200000Y-146790000D03*
%TD*%
M02*
