%TF.GenerationSoftware,KiCad,Pcbnew,9.0.0*%
%TF.CreationDate,2025-03-28T09:56:41+01:00*%
%TF.ProjectId,Inverter_KiCAD,496e7665-7274-4657-925f-4b694341442e,rev?*%
%TF.SameCoordinates,Original*%
%TF.FileFunction,Copper,L2,Inr*%
%TF.FilePolarity,Positive*%
%FSLAX46Y46*%
G04 Gerber Fmt 4.6, Leading zero omitted, Abs format (unit mm)*
G04 Created by KiCad (PCBNEW 9.0.0) date 2025-03-28 09:56:41*
%MOMM*%
%LPD*%
G01*
G04 APERTURE LIST*
G04 Aperture macros list*
%AMRoundRect*
0 Rectangle with rounded corners*
0 $1 Rounding radius*
0 $2 $3 $4 $5 $6 $7 $8 $9 X,Y pos of 4 corners*
0 Add a 4 corners polygon primitive as box body*
4,1,4,$2,$3,$4,$5,$6,$7,$8,$9,$2,$3,0*
0 Add four circle primitives for the rounded corners*
1,1,$1+$1,$2,$3*
1,1,$1+$1,$4,$5*
1,1,$1+$1,$6,$7*
1,1,$1+$1,$8,$9*
0 Add four rect primitives between the rounded corners*
20,1,$1+$1,$2,$3,$4,$5,0*
20,1,$1+$1,$4,$5,$6,$7,0*
20,1,$1+$1,$6,$7,$8,$9,0*
20,1,$1+$1,$8,$9,$2,$3,0*%
G04 Aperture macros list end*
%TA.AperFunction,ComponentPad*%
%ADD10C,0.800000*%
%TD*%
%TA.AperFunction,ComponentPad*%
%ADD11C,6.400000*%
%TD*%
%TA.AperFunction,ComponentPad*%
%ADD12RoundRect,0.750000X-0.750000X-0.750000X0.750000X-0.750000X0.750000X0.750000X-0.750000X0.750000X0*%
%TD*%
%TA.AperFunction,ComponentPad*%
%ADD13C,3.000000*%
%TD*%
%TA.AperFunction,ComponentPad*%
%ADD14RoundRect,0.250000X0.600000X0.750000X-0.600000X0.750000X-0.600000X-0.750000X0.600000X-0.750000X0*%
%TD*%
%TA.AperFunction,ComponentPad*%
%ADD15O,1.700000X2.000000*%
%TD*%
%TA.AperFunction,ComponentPad*%
%ADD16RoundRect,0.250000X0.725000X-0.600000X0.725000X0.600000X-0.725000X0.600000X-0.725000X-0.600000X0*%
%TD*%
%TA.AperFunction,ComponentPad*%
%ADD17O,1.950000X1.700000*%
%TD*%
%TA.AperFunction,ComponentPad*%
%ADD18RoundRect,1.500000X1.500000X-1.500000X1.500000X1.500000X-1.500000X1.500000X-1.500000X-1.500000X0*%
%TD*%
%TA.AperFunction,ComponentPad*%
%ADD19C,6.000000*%
%TD*%
%TA.AperFunction,ViaPad*%
%ADD20C,0.450000*%
%TD*%
%TA.AperFunction,ViaPad*%
%ADD21C,0.800000*%
%TD*%
G04 APERTURE END LIST*
D10*
%TO.N,GND*%
%TO.C,H113*%
X142600000Y-85000000D03*
X143302944Y-83302944D03*
X143302944Y-86697056D03*
X145000000Y-82600000D03*
D11*
X145000000Y-85000000D03*
D10*
X145000000Y-87400000D03*
X146697056Y-83302944D03*
X146697056Y-86697056D03*
X147400000Y-85000000D03*
%TD*%
D12*
%TO.N,/ARM_B*%
%TO.C,J1*%
X170900000Y-135300000D03*
D13*
%TO.N,/ARM_OUT_A*%
X175900000Y-135300000D03*
%TD*%
D14*
%TO.N,+9V*%
%TO.C,J4*%
X203097056Y-130322056D03*
D15*
%TO.N,Net-(J4-Pin_2)*%
X200597056Y-130322056D03*
%TD*%
D10*
%TO.N,GND*%
%TO.C,H109*%
X202600000Y-85000000D03*
X203302944Y-83302944D03*
X203302944Y-86697056D03*
X205000000Y-82600000D03*
D11*
X205000000Y-85000000D03*
D10*
X205000000Y-87400000D03*
X206697056Y-83302944D03*
X206697056Y-86697056D03*
X207400000Y-85000000D03*
%TD*%
D16*
%TO.N,unconnected-(J7-Pin_1-Pad1)*%
%TO.C,J7*%
X203672056Y-122547056D03*
D17*
%TO.N,/MCU_STM32G474/USART1_RX*%
X203672056Y-120047056D03*
%TO.N,/MCU_STM32G474/USART1_TX*%
X203672056Y-117547056D03*
%TO.N,GND*%
X203672056Y-115047056D03*
%TD*%
D10*
%TO.N,GND*%
%TO.C,H111*%
X202600000Y-145000000D03*
X203302944Y-143302944D03*
X203302944Y-146697056D03*
X205000000Y-142600000D03*
D11*
X205000000Y-145000000D03*
D10*
X205000000Y-147400000D03*
X206697056Y-143302944D03*
X206697056Y-146697056D03*
X207400000Y-145000000D03*
%TD*%
D18*
%TO.N,GND*%
%TO.C,BT1*%
X144900000Y-136300000D03*
D19*
%TO.N,Net-(BT1-+)*%
X144900000Y-129100000D03*
%TD*%
D14*
%TO.N,+9V*%
%TO.C,J5*%
X203097056Y-137822056D03*
D15*
%TO.N,Net-(J4-Pin_2)*%
X200597056Y-137822056D03*
%TD*%
D10*
%TO.N,GND*%
%TO.C,H114*%
X142600000Y-145000000D03*
X143302944Y-143302944D03*
X143302944Y-146697056D03*
X145000000Y-142600000D03*
D11*
X145000000Y-145000000D03*
D10*
X145000000Y-147400000D03*
X146697056Y-143302944D03*
X146697056Y-146697056D03*
X147400000Y-145000000D03*
%TD*%
D20*
%TO.N,+3.3V*%
X189097056Y-85397056D03*
D21*
X192800000Y-122100000D03*
D20*
X158728768Y-135528768D03*
X191697056Y-95997056D03*
X177627056Y-85977056D03*
X177697056Y-103797056D03*
X156963215Y-145701173D03*
X189797056Y-105697056D03*
X180797056Y-92797056D03*
D21*
X165400000Y-104074000D03*
X193000000Y-108200000D03*
D20*
X177497056Y-95697056D03*
D21*
X190300000Y-107700000D03*
D20*
X166400000Y-105300000D03*
X197000000Y-121000000D03*
X165700000Y-85600000D03*
D21*
X194200000Y-122400000D03*
X192700000Y-115500000D03*
X205900000Y-102900000D03*
D20*
%TO.N,GND*%
X193000000Y-149300000D03*
X168600000Y-111900000D03*
X175000000Y-149300000D03*
X140700000Y-121000000D03*
X183600000Y-119400000D03*
X172400000Y-100000000D03*
X143097056Y-100297056D03*
X140700000Y-124000000D03*
X205000000Y-80800000D03*
X140700000Y-130000000D03*
X172000000Y-149300000D03*
X193097056Y-106297056D03*
X164900000Y-89900000D03*
D21*
X167900000Y-117200000D03*
D20*
X165400000Y-81000000D03*
X145900000Y-80800000D03*
X209200000Y-131500000D03*
X183200000Y-140500000D03*
X205000000Y-149500000D03*
X178097056Y-109297056D03*
X185897056Y-134497056D03*
X145100000Y-114300000D03*
D21*
X195200000Y-128200000D03*
D20*
X180397056Y-102997056D03*
X209200000Y-107500000D03*
X151000000Y-149300000D03*
X181197056Y-95597056D03*
X164800000Y-100300000D03*
X163000000Y-149300000D03*
X150700000Y-140800000D03*
X148000000Y-149300000D03*
X189400000Y-81000000D03*
X168197056Y-128297056D03*
X153097056Y-90297056D03*
X140700000Y-139000000D03*
X141400000Y-82500000D03*
D21*
X189900000Y-130200000D03*
D20*
X169197056Y-127297056D03*
X159400000Y-81000000D03*
X185797056Y-103897056D03*
X140700000Y-112000000D03*
D21*
X149100000Y-110800000D03*
D20*
X146300000Y-114300000D03*
X175100000Y-127400000D03*
X170197056Y-127297056D03*
X178000000Y-149300000D03*
D21*
X193500000Y-103600000D03*
D20*
X140700000Y-97000000D03*
X180700000Y-127300000D03*
X142000000Y-148200000D03*
X154200000Y-133200000D03*
X170197056Y-128297056D03*
X143100000Y-109500000D03*
X145700000Y-114300000D03*
X140700000Y-100000000D03*
X185900000Y-129200000D03*
X140700000Y-136000000D03*
X187000000Y-149300000D03*
X209200000Y-101500000D03*
X179697056Y-82097056D03*
X167097056Y-118297056D03*
X140700000Y-88000000D03*
X160000000Y-149300000D03*
X196000000Y-149300000D03*
X153400000Y-100600000D03*
X173097056Y-105297056D03*
X169197056Y-128297056D03*
X202400000Y-81100000D03*
D21*
X183500000Y-115100000D03*
D20*
X178700000Y-127300000D03*
X140700000Y-91000000D03*
X209200000Y-119500000D03*
X162400000Y-81000000D03*
X148600000Y-80900000D03*
X140700000Y-85000000D03*
X183097056Y-90297056D03*
X140700000Y-118000000D03*
D21*
X158800000Y-116300000D03*
D20*
X203097056Y-95297056D03*
X140700000Y-133000000D03*
X140700000Y-109000000D03*
X169000000Y-149300000D03*
X168400000Y-81000000D03*
X198097056Y-95297056D03*
X209200000Y-95500000D03*
X209200000Y-89500000D03*
D21*
X205100000Y-100400000D03*
D20*
X198300000Y-81100000D03*
X140700000Y-103000000D03*
D21*
X156100000Y-114100000D03*
D20*
X177400000Y-81000000D03*
X191847056Y-100547056D03*
D21*
X184600000Y-89500000D03*
D20*
X145000000Y-149300000D03*
X178900000Y-107800000D03*
X140700000Y-142000000D03*
D21*
X205000000Y-97700000D03*
D20*
X189397056Y-106797056D03*
X186000000Y-107900000D03*
X209200000Y-145000000D03*
X209200000Y-104500000D03*
X180400000Y-81000000D03*
D21*
X189500000Y-127200000D03*
D20*
X140600000Y-145400000D03*
X187097056Y-110297056D03*
X172797056Y-85897056D03*
X142900000Y-81000000D03*
X209200000Y-125500000D03*
X178700000Y-126300000D03*
X168197056Y-127297056D03*
X140700000Y-127000000D03*
X153400000Y-81000000D03*
X199000000Y-149300000D03*
X193000000Y-141000000D03*
X187797056Y-96497056D03*
X184900000Y-102100000D03*
X191600000Y-110800000D03*
X140700000Y-106000000D03*
X143097056Y-90297056D03*
X209200000Y-98500000D03*
X182097056Y-109297056D03*
X166000000Y-149300000D03*
X209200000Y-110500000D03*
X181000000Y-149300000D03*
X183400000Y-81000000D03*
X209200000Y-113500000D03*
X207600000Y-81600000D03*
D21*
X149750000Y-111450000D03*
D20*
X209200000Y-86500000D03*
X209200000Y-128500000D03*
X179700000Y-126300000D03*
X154000000Y-149300000D03*
X209200000Y-122500000D03*
X195400000Y-81000000D03*
X209200000Y-143500000D03*
X209200000Y-92500000D03*
X203097056Y-106297056D03*
X183097056Y-100297056D03*
X171400000Y-81000000D03*
X192400000Y-81000000D03*
D21*
X199500000Y-125500000D03*
X158400000Y-122800000D03*
D20*
X140700000Y-94000000D03*
X180700000Y-126300000D03*
X176297056Y-89697056D03*
X202000000Y-149300000D03*
D21*
X189300000Y-125400000D03*
D20*
X198097056Y-106297056D03*
X186400000Y-81000000D03*
X174400000Y-81000000D03*
X197097056Y-103047056D03*
X157000000Y-149300000D03*
X175400000Y-115100000D03*
X209200000Y-134500000D03*
X209200000Y-116500000D03*
X190000000Y-149300000D03*
X209200000Y-140500000D03*
X184000000Y-149300000D03*
X156400000Y-81000000D03*
X208100000Y-148200000D03*
D21*
X176500000Y-121100000D03*
D20*
X179700000Y-127300000D03*
X171700000Y-140600000D03*
X151200000Y-81000000D03*
X209200000Y-137500000D03*
D21*
%TO.N,/Imes_mot*%
X184700000Y-112100000D03*
X184400000Y-103800000D03*
D20*
%TO.N,VBUS*%
X170097056Y-123500000D03*
X148000000Y-123750000D03*
X147000000Y-122800000D03*
X181400000Y-123200000D03*
X147000000Y-123750000D03*
X148000000Y-121750000D03*
X148000000Y-122800000D03*
X172000000Y-123500000D03*
X180400000Y-123200000D03*
X147000000Y-124800000D03*
X147000000Y-121750000D03*
X181400000Y-121200000D03*
X185674263Y-112822793D03*
X167900000Y-121900000D03*
X171097056Y-123500000D03*
X180400000Y-121200000D03*
X181400000Y-122200000D03*
X180400000Y-122200000D03*
X169200000Y-123500000D03*
X148000000Y-124800000D03*
X167900000Y-122600000D03*
D21*
%TO.N,/VBus_Sense*%
X191500000Y-103100000D03*
X188487056Y-114000000D03*
%TO.N,+9V*%
X165300000Y-126300000D03*
X164100000Y-126300000D03*
X163000000Y-126300000D03*
X196100000Y-127600000D03*
D20*
X176300000Y-117800000D03*
D21*
X194200000Y-127600000D03*
X164800000Y-122000000D03*
%TO.N,/In_A_H*%
X180162712Y-100214922D03*
X176822056Y-108600000D03*
D20*
%TO.N,/In_B_H*%
X174872056Y-109400000D03*
D21*
%TO.N,/MCU_STM32G474/NRST*%
X177000000Y-99500000D03*
X197200000Y-97900000D03*
%TO.N,/ARM_B*%
X174400000Y-123800000D03*
%TO.N,/MCU_STM32G474/SWO*%
X197500000Y-99900000D03*
X185200000Y-95500000D03*
%TO.N,Net-(U6-PB8)*%
X182222056Y-92100000D03*
D20*
%TO.N,/{slash}A*%
X158600000Y-136800000D03*
X163900000Y-142100000D03*
%TO.N,/{slash}B*%
X160278768Y-136878768D03*
X164000000Y-140600000D03*
D21*
%TO.N,/MCU_STM32G474/VCP_TX*%
X200200000Y-95300000D03*
X195500000Y-105500000D03*
%TO.N,/Pwr_EN*%
X177200000Y-100999000D03*
%TO.N,/MCU_STM32G474/VCP_RX*%
X196400000Y-104300000D03*
X205100000Y-95900000D03*
D20*
%TO.N,/I2C_SCL*%
X193300000Y-100000000D03*
%TO.N,/I2C_SDA*%
X191997056Y-99497056D03*
D21*
%TO.N,/ARM_IN_A*%
X183300000Y-129600000D03*
D20*
%TO.N,/Cmd_L_A*%
X177200000Y-120200000D03*
%TO.N,/Cmd_H_A*%
X178422056Y-119300129D03*
%TO.N,/Cmd_H_B*%
X173000000Y-119600000D03*
%TO.N,/Cmd_L_B*%
X174965046Y-118350000D03*
%TD*%
%TA.AperFunction,Conductor*%
%TO.N,GND*%
G36*
X205002544Y-80000604D02*
G01*
X205370311Y-80015778D01*
X205375938Y-80016141D01*
X205460071Y-80023493D01*
X205464478Y-80023960D01*
X205787068Y-80064138D01*
X205793246Y-80065066D01*
X205871876Y-80078923D01*
X205875770Y-80079674D01*
X206199126Y-80147441D01*
X206205732Y-80149016D01*
X206274718Y-80167493D01*
X206277943Y-80168405D01*
X206603336Y-80265243D01*
X206610349Y-80267560D01*
X206664256Y-80287175D01*
X206666874Y-80288161D01*
X206996673Y-80416812D01*
X207003994Y-80419943D01*
X207015734Y-80425416D01*
X207034986Y-80434391D01*
X207036942Y-80435325D01*
X207326298Y-80576746D01*
X207375189Y-80600641D01*
X207384203Y-80605518D01*
X207730421Y-80811772D01*
X207738982Y-80817364D01*
X208067007Y-81051519D01*
X208075076Y-81057798D01*
X208361100Y-81300000D01*
X208382628Y-81318229D01*
X208390164Y-81325165D01*
X208675158Y-81610102D01*
X208682085Y-81617625D01*
X208807285Y-81765418D01*
X208942579Y-81925128D01*
X208948874Y-81933214D01*
X209183079Y-82261168D01*
X209188685Y-82269748D01*
X209395006Y-82615920D01*
X209399885Y-82624933D01*
X209565221Y-82963049D01*
X209566202Y-82965103D01*
X209580658Y-82996095D01*
X209583795Y-83003426D01*
X209712491Y-83333150D01*
X209713495Y-83335812D01*
X209733117Y-83389703D01*
X209735441Y-83396733D01*
X209832316Y-83722012D01*
X209833247Y-83725302D01*
X209851737Y-83794283D01*
X209853323Y-83800928D01*
X209921146Y-84124228D01*
X209921902Y-84128143D01*
X209935773Y-84206765D01*
X209936705Y-84212959D01*
X209976938Y-84535466D01*
X209977419Y-84539996D01*
X209984779Y-84624025D01*
X209985146Y-84629708D01*
X209999894Y-84985406D01*
X210000000Y-84990543D01*
X210000000Y-114939619D01*
X209999500Y-144997438D01*
X209999394Y-145002561D01*
X209984185Y-145370249D01*
X209983819Y-145375930D01*
X209983819Y-145375931D01*
X209976470Y-145459929D01*
X209975990Y-145464460D01*
X209935786Y-145786997D01*
X209934854Y-145793191D01*
X209921005Y-145871733D01*
X209920250Y-145875648D01*
X209852453Y-146198988D01*
X209850867Y-146205634D01*
X209832405Y-146274536D01*
X209831475Y-146277825D01*
X209734622Y-146603147D01*
X209732299Y-146610176D01*
X209712696Y-146664034D01*
X209711691Y-146666698D01*
X209583036Y-146996414D01*
X209579903Y-147003741D01*
X209579902Y-147003743D01*
X209565471Y-147034691D01*
X209564489Y-147036747D01*
X209399182Y-147374889D01*
X209394304Y-147383903D01*
X209188037Y-147730064D01*
X209182431Y-147738644D01*
X208948284Y-148066587D01*
X208941989Y-148074674D01*
X208681566Y-148382155D01*
X208674625Y-148389695D01*
X208389695Y-148674625D01*
X208382155Y-148681566D01*
X208074674Y-148941989D01*
X208066587Y-148948284D01*
X207738644Y-149182431D01*
X207730064Y-149188037D01*
X207383903Y-149394304D01*
X207374889Y-149399182D01*
X207036747Y-149564489D01*
X207034691Y-149565471D01*
X207003743Y-149579902D01*
X206996414Y-149583036D01*
X206666698Y-149711691D01*
X206664034Y-149712696D01*
X206610176Y-149732299D01*
X206603147Y-149734622D01*
X206277825Y-149831475D01*
X206274536Y-149832405D01*
X206205634Y-149850867D01*
X206198988Y-149852453D01*
X205875648Y-149920250D01*
X205871733Y-149921005D01*
X205793191Y-149934854D01*
X205786997Y-149935786D01*
X205464460Y-149975990D01*
X205459929Y-149976470D01*
X205375931Y-149983819D01*
X205370249Y-149984185D01*
X205002563Y-149999394D01*
X204997438Y-149999500D01*
X145002562Y-149999500D01*
X144997437Y-149999394D01*
X144629749Y-149984185D01*
X144624067Y-149983819D01*
X144540069Y-149976470D01*
X144535538Y-149975990D01*
X144213001Y-149935786D01*
X144206807Y-149934854D01*
X144128265Y-149921005D01*
X144124350Y-149920250D01*
X143801010Y-149852453D01*
X143794364Y-149850867D01*
X143725462Y-149832405D01*
X143722173Y-149831475D01*
X143396851Y-149734622D01*
X143389822Y-149732299D01*
X143335964Y-149712696D01*
X143333300Y-149711691D01*
X143003584Y-149583036D01*
X142996255Y-149579902D01*
X142965262Y-149565450D01*
X142963206Y-149564467D01*
X142625119Y-149399186D01*
X142616105Y-149394309D01*
X142269935Y-149188037D01*
X142261355Y-149182431D01*
X141933412Y-148948284D01*
X141925325Y-148941989D01*
X141617844Y-148681566D01*
X141610304Y-148674625D01*
X141325374Y-148389695D01*
X141318433Y-148382155D01*
X141058010Y-148074674D01*
X141051715Y-148066587D01*
X140853036Y-147788319D01*
X140817568Y-147738643D01*
X140811962Y-147730064D01*
X140605683Y-147383883D01*
X140600817Y-147374889D01*
X140435458Y-147036641D01*
X140434595Y-147034837D01*
X140420089Y-147003729D01*
X140416962Y-146996414D01*
X140381089Y-146904480D01*
X140288299Y-146666679D01*
X140287302Y-146664034D01*
X140267692Y-146610157D01*
X140265383Y-146603169D01*
X140168512Y-146277787D01*
X140167604Y-146274576D01*
X140149128Y-146205622D01*
X140147549Y-146199008D01*
X140079737Y-145875594D01*
X140078999Y-145871766D01*
X140065140Y-145793169D01*
X140064216Y-145787028D01*
X140024004Y-145464429D01*
X140023530Y-145459956D01*
X140016177Y-145375906D01*
X140015814Y-145370277D01*
X140000606Y-145002561D01*
X140000500Y-144997438D01*
X140000500Y-144818234D01*
X141300000Y-144818234D01*
X141300000Y-145181765D01*
X141335632Y-145543556D01*
X141406550Y-145900090D01*
X141406553Y-145900101D01*
X141512086Y-146247997D01*
X141651207Y-146583864D01*
X141651209Y-146583869D01*
X141822570Y-146904462D01*
X141822581Y-146904480D01*
X142024551Y-147206750D01*
X142211678Y-147434765D01*
X142211679Y-147434766D01*
X143705747Y-145940697D01*
X143779588Y-146042330D01*
X143957670Y-146220412D01*
X144059301Y-146294251D01*
X142565232Y-147788319D01*
X142565233Y-147788320D01*
X142793249Y-147975448D01*
X143095519Y-148177418D01*
X143095537Y-148177429D01*
X143416130Y-148348790D01*
X143416135Y-148348792D01*
X143752002Y-148487913D01*
X144099898Y-148593446D01*
X144099909Y-148593449D01*
X144456443Y-148664367D01*
X144818234Y-148700000D01*
X145181766Y-148700000D01*
X145543556Y-148664367D01*
X145900090Y-148593449D01*
X145900101Y-148593446D01*
X146247997Y-148487913D01*
X146583864Y-148348792D01*
X146583869Y-148348790D01*
X146904462Y-148177429D01*
X146904480Y-148177418D01*
X147206736Y-147975457D01*
X147206750Y-147975447D01*
X147434765Y-147788320D01*
X147434766Y-147788319D01*
X145940698Y-146294251D01*
X146042330Y-146220412D01*
X146220412Y-146042330D01*
X146294251Y-145940698D01*
X147788319Y-147434766D01*
X147788320Y-147434765D01*
X147975447Y-147206750D01*
X147975457Y-147206736D01*
X148177418Y-146904480D01*
X148177429Y-146904462D01*
X148348790Y-146583869D01*
X148348792Y-146583864D01*
X148487913Y-146247997D01*
X148593446Y-145900101D01*
X148593449Y-145900090D01*
X148644158Y-145645155D01*
X156537715Y-145645155D01*
X156537715Y-145757191D01*
X156545702Y-145786997D01*
X156566712Y-145865409D01*
X156566713Y-145865412D01*
X156570382Y-145871766D01*
X156622730Y-145962436D01*
X156701952Y-146041658D01*
X156798978Y-146097676D01*
X156907197Y-146126673D01*
X156907199Y-146126673D01*
X157019231Y-146126673D01*
X157019233Y-146126673D01*
X157127452Y-146097676D01*
X157224478Y-146041658D01*
X157303700Y-145962436D01*
X157359718Y-145865410D01*
X157388715Y-145757191D01*
X157388715Y-145645155D01*
X157359718Y-145536936D01*
X157303700Y-145439910D01*
X157224478Y-145360688D01*
X157127452Y-145304670D01*
X157019233Y-145275673D01*
X156907197Y-145275673D01*
X156798978Y-145304670D01*
X156798975Y-145304671D01*
X156701955Y-145360686D01*
X156701949Y-145360690D01*
X156622732Y-145439907D01*
X156622728Y-145439913D01*
X156566713Y-145536933D01*
X156566712Y-145536936D01*
X156537715Y-145645155D01*
X148644158Y-145645155D01*
X148650579Y-145612873D01*
X148650586Y-145612837D01*
X148664368Y-145543546D01*
X148700000Y-145181765D01*
X148700000Y-144818234D01*
X201300000Y-144818234D01*
X201300000Y-145181765D01*
X201335632Y-145543556D01*
X201406550Y-145900090D01*
X201406553Y-145900101D01*
X201512086Y-146247997D01*
X201651207Y-146583864D01*
X201651209Y-146583869D01*
X201822570Y-146904462D01*
X201822581Y-146904480D01*
X202024551Y-147206750D01*
X202211678Y-147434765D01*
X202211679Y-147434766D01*
X203705747Y-145940697D01*
X203779588Y-146042330D01*
X203957670Y-146220412D01*
X204059301Y-146294251D01*
X202565232Y-147788319D01*
X202565233Y-147788320D01*
X202793249Y-147975448D01*
X203095519Y-148177418D01*
X203095537Y-148177429D01*
X203416130Y-148348790D01*
X203416135Y-148348792D01*
X203752002Y-148487913D01*
X204099898Y-148593446D01*
X204099909Y-148593449D01*
X204456443Y-148664367D01*
X204818234Y-148700000D01*
X205181766Y-148700000D01*
X205543556Y-148664367D01*
X205900090Y-148593449D01*
X205900101Y-148593446D01*
X206247997Y-148487913D01*
X206583864Y-148348792D01*
X206583869Y-148348790D01*
X206904462Y-148177429D01*
X206904480Y-148177418D01*
X207206736Y-147975457D01*
X207206750Y-147975447D01*
X207434765Y-147788320D01*
X207434766Y-147788319D01*
X205940698Y-146294251D01*
X206042330Y-146220412D01*
X206220412Y-146042330D01*
X206294251Y-145940698D01*
X207788319Y-147434766D01*
X207788320Y-147434765D01*
X207975447Y-147206750D01*
X207975457Y-147206736D01*
X208177418Y-146904480D01*
X208177429Y-146904462D01*
X208348790Y-146583869D01*
X208348792Y-146583864D01*
X208487913Y-146247997D01*
X208593446Y-145900101D01*
X208593449Y-145900090D01*
X208664367Y-145543556D01*
X208700000Y-145181765D01*
X208700000Y-144818234D01*
X208664367Y-144456443D01*
X208593449Y-144099909D01*
X208593446Y-144099898D01*
X208487913Y-143752002D01*
X208348792Y-143416135D01*
X208348790Y-143416130D01*
X208177429Y-143095537D01*
X208177418Y-143095519D01*
X207975448Y-142793249D01*
X207788320Y-142565233D01*
X207788319Y-142565232D01*
X206294251Y-144059300D01*
X206220412Y-143957670D01*
X206042330Y-143779588D01*
X205940698Y-143705748D01*
X207434766Y-142211679D01*
X207434765Y-142211678D01*
X207206750Y-142024551D01*
X206904480Y-141822581D01*
X206904462Y-141822570D01*
X206583869Y-141651209D01*
X206583864Y-141651207D01*
X206247997Y-141512086D01*
X205900101Y-141406553D01*
X205900090Y-141406550D01*
X205543556Y-141335632D01*
X205181766Y-141300000D01*
X204818234Y-141300000D01*
X204456443Y-141335632D01*
X204099909Y-141406550D01*
X204099898Y-141406553D01*
X203752002Y-141512086D01*
X203416135Y-141651207D01*
X203416130Y-141651209D01*
X203095537Y-141822570D01*
X203095519Y-141822581D01*
X202793258Y-142024545D01*
X202793254Y-142024548D01*
X202565233Y-142211679D01*
X202565233Y-142211680D01*
X204059301Y-143705748D01*
X203957670Y-143779588D01*
X203779588Y-143957670D01*
X203705748Y-144059301D01*
X202211680Y-142565233D01*
X202211679Y-142565233D01*
X202024548Y-142793254D01*
X202024545Y-142793258D01*
X201822581Y-143095519D01*
X201822570Y-143095537D01*
X201651209Y-143416130D01*
X201651207Y-143416135D01*
X201512086Y-143752002D01*
X201406553Y-144099898D01*
X201406550Y-144099909D01*
X201335632Y-144456443D01*
X201300000Y-144818234D01*
X148700000Y-144818234D01*
X148664367Y-144456443D01*
X148593449Y-144099909D01*
X148593446Y-144099898D01*
X148487913Y-143752002D01*
X148348792Y-143416135D01*
X148348790Y-143416130D01*
X148177429Y-143095537D01*
X148177418Y-143095519D01*
X147975448Y-142793249D01*
X147788320Y-142565233D01*
X147788319Y-142565232D01*
X146294251Y-144059300D01*
X146220412Y-143957670D01*
X146042330Y-143779588D01*
X145940698Y-143705748D01*
X147434766Y-142211679D01*
X147434765Y-142211678D01*
X147337322Y-142131708D01*
X147230427Y-142043982D01*
X163474500Y-142043982D01*
X163474500Y-142156018D01*
X163503497Y-142264237D01*
X163559515Y-142361263D01*
X163638737Y-142440485D01*
X163735763Y-142496503D01*
X163843982Y-142525500D01*
X163843984Y-142525500D01*
X163956016Y-142525500D01*
X163956018Y-142525500D01*
X164064237Y-142496503D01*
X164161263Y-142440485D01*
X164240485Y-142361263D01*
X164296503Y-142264237D01*
X164325500Y-142156018D01*
X164325500Y-142043982D01*
X164296503Y-141935763D01*
X164240485Y-141838737D01*
X164161263Y-141759515D01*
X164064237Y-141703497D01*
X163956018Y-141674500D01*
X163843982Y-141674500D01*
X163735763Y-141703497D01*
X163735760Y-141703498D01*
X163638740Y-141759513D01*
X163638734Y-141759517D01*
X163559517Y-141838734D01*
X163559513Y-141838740D01*
X163503498Y-141935760D01*
X163503497Y-141935763D01*
X163474500Y-142043982D01*
X147230427Y-142043982D01*
X147206749Y-142024550D01*
X146904480Y-141822581D01*
X146904462Y-141822570D01*
X146583869Y-141651209D01*
X146583864Y-141651207D01*
X146247997Y-141512086D01*
X145900101Y-141406553D01*
X145900090Y-141406550D01*
X145543556Y-141335632D01*
X145181766Y-141300000D01*
X144818234Y-141300000D01*
X144456443Y-141335632D01*
X144099909Y-141406550D01*
X144099898Y-141406553D01*
X143752002Y-141512086D01*
X143416135Y-141651207D01*
X143416130Y-141651209D01*
X143095537Y-141822570D01*
X143095519Y-141822581D01*
X142793258Y-142024545D01*
X142793254Y-142024548D01*
X142565233Y-142211679D01*
X142565233Y-142211680D01*
X144059301Y-143705748D01*
X143957670Y-143779588D01*
X143779588Y-143957670D01*
X143705748Y-144059301D01*
X142211680Y-142565233D01*
X142211679Y-142565233D01*
X142024548Y-142793254D01*
X142024545Y-142793258D01*
X141822581Y-143095519D01*
X141822570Y-143095537D01*
X141651209Y-143416130D01*
X141651207Y-143416135D01*
X141512086Y-143752002D01*
X141406553Y-144099898D01*
X141406550Y-144099909D01*
X141335632Y-144456443D01*
X141300000Y-144818234D01*
X140000500Y-144818234D01*
X140000500Y-140543982D01*
X163574500Y-140543982D01*
X163574500Y-140656018D01*
X163603497Y-140764237D01*
X163659515Y-140861263D01*
X163738737Y-140940485D01*
X163835763Y-140996503D01*
X163943982Y-141025500D01*
X163943984Y-141025500D01*
X164056016Y-141025500D01*
X164056018Y-141025500D01*
X164164237Y-140996503D01*
X164261263Y-140940485D01*
X164340485Y-140861263D01*
X164396503Y-140764237D01*
X164425500Y-140656018D01*
X164425500Y-140543982D01*
X164396503Y-140435763D01*
X164340485Y-140338737D01*
X164261263Y-140259515D01*
X164164237Y-140203497D01*
X164056018Y-140174500D01*
X163943982Y-140174500D01*
X163835763Y-140203497D01*
X163835760Y-140203498D01*
X163738740Y-140259513D01*
X163738734Y-140259517D01*
X163659517Y-140338734D01*
X163659513Y-140338740D01*
X163603498Y-140435760D01*
X163603497Y-140435763D01*
X163574500Y-140543982D01*
X140000500Y-140543982D01*
X140000500Y-134728563D01*
X141400000Y-134728563D01*
X141400000Y-136050000D01*
X142663498Y-136050000D01*
X142650000Y-136152527D01*
X142650000Y-136447473D01*
X142663498Y-136550000D01*
X141400000Y-136550000D01*
X141400000Y-137871436D01*
X141415300Y-138085362D01*
X141476109Y-138364895D01*
X141576091Y-138632958D01*
X141713191Y-138884038D01*
X141713192Y-138884039D01*
X141884639Y-139113065D01*
X141884649Y-139113077D01*
X142086922Y-139315350D01*
X142086934Y-139315360D01*
X142315960Y-139486807D01*
X142315961Y-139486808D01*
X142567042Y-139623908D01*
X142567041Y-139623908D01*
X142835104Y-139723890D01*
X143114637Y-139784699D01*
X143328563Y-139799999D01*
X143328566Y-139800000D01*
X144650000Y-139800000D01*
X144650000Y-138536502D01*
X144752527Y-138550000D01*
X145047473Y-138550000D01*
X145150000Y-138536502D01*
X145150000Y-139800000D01*
X146471434Y-139800000D01*
X146471436Y-139799999D01*
X146685362Y-139784699D01*
X146964895Y-139723890D01*
X147232958Y-139623908D01*
X147484038Y-139486808D01*
X147484039Y-139486807D01*
X147713065Y-139315360D01*
X147713077Y-139315350D01*
X147915350Y-139113077D01*
X147915360Y-139113065D01*
X148086807Y-138884039D01*
X148086808Y-138884038D01*
X148223908Y-138632958D01*
X148323890Y-138364895D01*
X148384699Y-138085362D01*
X148399999Y-137871436D01*
X148400000Y-137871434D01*
X148400000Y-137568586D01*
X199546556Y-137568586D01*
X199546556Y-138075525D01*
X199586924Y-138278468D01*
X199586926Y-138278476D01*
X199666114Y-138469652D01*
X199781080Y-138641713D01*
X199927398Y-138788031D01*
X199927401Y-138788033D01*
X200099458Y-138902997D01*
X200290636Y-138982186D01*
X200479243Y-139019702D01*
X200493586Y-139022555D01*
X200493590Y-139022556D01*
X200493591Y-139022556D01*
X200700522Y-139022556D01*
X200700523Y-139022555D01*
X200903476Y-138982186D01*
X201094654Y-138902997D01*
X201266711Y-138788033D01*
X201413033Y-138641711D01*
X201527997Y-138469654D01*
X201607186Y-138278476D01*
X201647556Y-138075521D01*
X201647556Y-137568591D01*
X201607186Y-137365636D01*
X201527997Y-137174458D01*
X201467409Y-137083781D01*
X201467408Y-137083778D01*
X201423313Y-137017786D01*
X202046556Y-137017786D01*
X202046556Y-138626325D01*
X202049409Y-138656755D01*
X202049409Y-138656757D01*
X202094262Y-138784936D01*
X202094263Y-138784938D01*
X202174906Y-138894206D01*
X202284174Y-138974849D01*
X202305145Y-138982187D01*
X202412355Y-139019702D01*
X202442786Y-139022556D01*
X202442790Y-139022556D01*
X203751326Y-139022556D01*
X203781755Y-139019702D01*
X203781757Y-139019702D01*
X203845846Y-138997275D01*
X203909938Y-138974849D01*
X204019206Y-138894206D01*
X204099849Y-138784938D01*
X204122275Y-138720846D01*
X204144702Y-138656757D01*
X204144702Y-138656755D01*
X204147556Y-138626325D01*
X204147556Y-137017786D01*
X204144702Y-136987356D01*
X204144702Y-136987354D01*
X204099849Y-136859175D01*
X204099848Y-136859173D01*
X204019206Y-136749906D01*
X203909938Y-136669263D01*
X203909936Y-136669262D01*
X203781756Y-136624409D01*
X203751326Y-136621556D01*
X203751322Y-136621556D01*
X202442790Y-136621556D01*
X202442786Y-136621556D01*
X202412356Y-136624409D01*
X202412354Y-136624409D01*
X202284175Y-136669262D01*
X202284173Y-136669263D01*
X202174906Y-136749906D01*
X202094263Y-136859173D01*
X202094262Y-136859175D01*
X202049409Y-136987354D01*
X202049409Y-136987356D01*
X202046556Y-137017786D01*
X201423313Y-137017786D01*
X201413036Y-137002405D01*
X201413030Y-137002397D01*
X201266713Y-136856080D01*
X201177409Y-136796410D01*
X201094654Y-136741115D01*
X200903476Y-136661926D01*
X200903468Y-136661924D01*
X200700525Y-136621556D01*
X200700521Y-136621556D01*
X200493591Y-136621556D01*
X200493586Y-136621556D01*
X200290643Y-136661924D01*
X200290635Y-136661926D01*
X200099459Y-136741114D01*
X199927398Y-136856080D01*
X199781080Y-137002398D01*
X199666114Y-137174459D01*
X199586926Y-137365635D01*
X199586924Y-137365643D01*
X199546556Y-137568586D01*
X148400000Y-137568586D01*
X148400000Y-136743982D01*
X158174500Y-136743982D01*
X158174500Y-136856018D01*
X158203497Y-136964237D01*
X158259515Y-137061263D01*
X158338737Y-137140485D01*
X158435763Y-137196503D01*
X158543982Y-137225500D01*
X158543984Y-137225500D01*
X158656016Y-137225500D01*
X158656018Y-137225500D01*
X158764237Y-137196503D01*
X158861263Y-137140485D01*
X158940485Y-137061263D01*
X158996503Y-136964237D01*
X159025500Y-136856018D01*
X159025500Y-136822750D01*
X159853268Y-136822750D01*
X159853268Y-136934786D01*
X159882265Y-137043005D01*
X159938283Y-137140031D01*
X160017505Y-137219253D01*
X160114531Y-137275271D01*
X160222750Y-137304268D01*
X160222752Y-137304268D01*
X160334784Y-137304268D01*
X160334786Y-137304268D01*
X160443005Y-137275271D01*
X160540031Y-137219253D01*
X160619253Y-137140031D01*
X160675271Y-137043005D01*
X160704268Y-136934786D01*
X160704268Y-136822750D01*
X160675271Y-136714531D01*
X160619253Y-136617505D01*
X160540031Y-136538283D01*
X160443005Y-136482265D01*
X160334786Y-136453268D01*
X160222750Y-136453268D01*
X160114531Y-136482265D01*
X160114528Y-136482266D01*
X160017508Y-136538281D01*
X160017502Y-136538285D01*
X159938285Y-136617502D01*
X159938281Y-136617508D01*
X159882266Y-136714528D01*
X159882265Y-136714531D01*
X159853268Y-136822750D01*
X159025500Y-136822750D01*
X159025500Y-136743982D01*
X158996503Y-136635763D01*
X158940485Y-136538737D01*
X158861263Y-136459515D01*
X158764237Y-136403497D01*
X158656018Y-136374500D01*
X158543982Y-136374500D01*
X158435763Y-136403497D01*
X158435760Y-136403498D01*
X158338740Y-136459513D01*
X158338734Y-136459517D01*
X158259517Y-136538734D01*
X158259513Y-136538740D01*
X158203498Y-136635760D01*
X158203497Y-136635763D01*
X158174500Y-136743982D01*
X148400000Y-136743982D01*
X148400000Y-136550000D01*
X147136502Y-136550000D01*
X147150000Y-136447473D01*
X147150000Y-136152527D01*
X147136502Y-136050000D01*
X148400000Y-136050000D01*
X148400000Y-135472750D01*
X158303268Y-135472750D01*
X158303268Y-135584786D01*
X158332265Y-135693005D01*
X158388283Y-135790031D01*
X158467505Y-135869253D01*
X158564531Y-135925271D01*
X158672750Y-135954268D01*
X158672752Y-135954268D01*
X158784784Y-135954268D01*
X158784786Y-135954268D01*
X158893005Y-135925271D01*
X158990031Y-135869253D01*
X159069253Y-135790031D01*
X159125271Y-135693005D01*
X159154268Y-135584786D01*
X159154268Y-135472750D01*
X159125271Y-135364531D01*
X159069253Y-135267505D01*
X158990031Y-135188283D01*
X158893005Y-135132265D01*
X158784786Y-135103268D01*
X158672750Y-135103268D01*
X158564531Y-135132265D01*
X158564528Y-135132266D01*
X158467508Y-135188281D01*
X158467502Y-135188285D01*
X158388285Y-135267502D01*
X158388281Y-135267508D01*
X158332266Y-135364528D01*
X158332265Y-135364531D01*
X158303268Y-135472750D01*
X148400000Y-135472750D01*
X148400000Y-134728566D01*
X148399999Y-134728563D01*
X148384700Y-134514647D01*
X148384697Y-134514627D01*
X148381166Y-134498395D01*
X169099500Y-134498395D01*
X169099500Y-136101604D01*
X169114699Y-136255932D01*
X169174769Y-136453956D01*
X169181502Y-136466554D01*
X169272315Y-136636450D01*
X169299243Y-136669262D01*
X169403589Y-136796410D01*
X169480070Y-136859175D01*
X169563550Y-136927685D01*
X169746046Y-137025232D01*
X169944066Y-137085300D01*
X169944065Y-137085300D01*
X169982647Y-137089100D01*
X170098392Y-137100500D01*
X170098395Y-137100500D01*
X171701605Y-137100500D01*
X171701608Y-137100500D01*
X171855934Y-137085300D01*
X172053954Y-137025232D01*
X172236450Y-136927685D01*
X172396410Y-136796410D01*
X172527685Y-136636450D01*
X172625232Y-136453954D01*
X172685300Y-136255934D01*
X172700500Y-136101608D01*
X172700500Y-135181995D01*
X174099500Y-135181995D01*
X174099500Y-135418004D01*
X174099501Y-135418020D01*
X174130306Y-135652010D01*
X174191394Y-135879993D01*
X174281714Y-136098045D01*
X174281719Y-136098056D01*
X174352677Y-136220957D01*
X174399727Y-136302450D01*
X174399729Y-136302453D01*
X174399730Y-136302454D01*
X174543406Y-136489697D01*
X174543412Y-136489704D01*
X174710295Y-136656587D01*
X174710301Y-136656592D01*
X174897550Y-136800273D01*
X175028918Y-136876118D01*
X175101943Y-136918280D01*
X175101948Y-136918282D01*
X175101951Y-136918284D01*
X175320007Y-137008606D01*
X175547986Y-137069693D01*
X175781989Y-137100500D01*
X175781996Y-137100500D01*
X176018004Y-137100500D01*
X176018011Y-137100500D01*
X176252014Y-137069693D01*
X176479993Y-137008606D01*
X176698049Y-136918284D01*
X176902450Y-136800273D01*
X177089699Y-136656592D01*
X177256592Y-136489699D01*
X177400273Y-136302450D01*
X177518284Y-136098049D01*
X177608606Y-135879993D01*
X177669693Y-135652014D01*
X177700500Y-135418011D01*
X177700500Y-135181989D01*
X177669693Y-134947986D01*
X177608606Y-134720007D01*
X177518284Y-134501951D01*
X177518282Y-134501948D01*
X177518280Y-134501943D01*
X177473960Y-134425179D01*
X177400273Y-134297550D01*
X177256592Y-134110301D01*
X177256587Y-134110295D01*
X177089704Y-133943412D01*
X177089697Y-133943406D01*
X176902454Y-133799730D01*
X176902453Y-133799729D01*
X176902450Y-133799727D01*
X176820957Y-133752677D01*
X176698056Y-133681719D01*
X176698045Y-133681714D01*
X176479993Y-133591394D01*
X176252010Y-133530306D01*
X176018020Y-133499501D01*
X176018017Y-133499500D01*
X176018011Y-133499500D01*
X175781989Y-133499500D01*
X175781983Y-133499500D01*
X175781979Y-133499501D01*
X175547989Y-133530306D01*
X175320006Y-133591394D01*
X175101954Y-133681714D01*
X175101943Y-133681719D01*
X174897545Y-133799730D01*
X174710302Y-133943406D01*
X174710295Y-133943412D01*
X174543412Y-134110295D01*
X174543406Y-134110302D01*
X174399730Y-134297545D01*
X174281719Y-134501943D01*
X174281714Y-134501954D01*
X174191394Y-134720006D01*
X174130306Y-134947989D01*
X174099501Y-135181979D01*
X174099500Y-135181995D01*
X172700500Y-135181995D01*
X172700500Y-134498392D01*
X172685300Y-134344066D01*
X172625232Y-134146046D01*
X172527685Y-133963550D01*
X172475702Y-133900209D01*
X172396410Y-133803589D01*
X172247905Y-133681716D01*
X172236450Y-133672315D01*
X172053954Y-133574768D01*
X171855934Y-133514700D01*
X171855932Y-133514699D01*
X171855934Y-133514699D01*
X171736805Y-133502966D01*
X171701608Y-133499500D01*
X170098392Y-133499500D01*
X170060298Y-133503251D01*
X169944067Y-133514699D01*
X169746043Y-133574769D01*
X169635898Y-133633643D01*
X169563550Y-133672315D01*
X169563548Y-133672316D01*
X169563547Y-133672317D01*
X169403589Y-133803589D01*
X169272317Y-133963547D01*
X169174769Y-134146043D01*
X169174768Y-134146045D01*
X169174768Y-134146046D01*
X169167898Y-134168692D01*
X169114699Y-134344067D01*
X169099500Y-134498395D01*
X148381166Y-134498395D01*
X148323890Y-134235104D01*
X148223908Y-133967041D01*
X148086808Y-133715961D01*
X148086807Y-133715960D01*
X147915360Y-133486934D01*
X147915350Y-133486922D01*
X147713077Y-133284649D01*
X147713065Y-133284639D01*
X147484039Y-133113192D01*
X147484038Y-133113191D01*
X147232957Y-132976091D01*
X147232958Y-132976091D01*
X146964895Y-132876109D01*
X146685362Y-132815300D01*
X146471436Y-132800000D01*
X145150000Y-132800000D01*
X145150000Y-134063497D01*
X145047473Y-134050000D01*
X144752527Y-134050000D01*
X144650000Y-134063497D01*
X144650000Y-132800000D01*
X143328563Y-132800000D01*
X143114637Y-132815300D01*
X142835104Y-132876109D01*
X142567041Y-132976091D01*
X142315961Y-133113191D01*
X142315960Y-133113192D01*
X142086934Y-133284639D01*
X142086922Y-133284649D01*
X141884649Y-133486922D01*
X141884639Y-133486934D01*
X141713192Y-133715960D01*
X141713191Y-133715961D01*
X141576091Y-133967041D01*
X141476109Y-134235104D01*
X141415300Y-134514637D01*
X141400000Y-134728563D01*
X140000500Y-134728563D01*
X140000500Y-128920259D01*
X141699500Y-128920259D01*
X141699500Y-129279740D01*
X141739746Y-129636935D01*
X141739748Y-129636951D01*
X141819737Y-129987407D01*
X141819741Y-129987419D01*
X141938465Y-130326711D01*
X142094432Y-130650579D01*
X142094434Y-130650582D01*
X142285685Y-130954956D01*
X142509812Y-131236003D01*
X142763997Y-131490188D01*
X143045044Y-131714315D01*
X143349418Y-131905566D01*
X143673292Y-132061536D01*
X143928119Y-132150703D01*
X144012580Y-132180258D01*
X144012592Y-132180262D01*
X144363052Y-132260252D01*
X144720260Y-132300499D01*
X144720261Y-132300500D01*
X144720264Y-132300500D01*
X145079739Y-132300500D01*
X145079739Y-132300499D01*
X145436948Y-132260252D01*
X145787408Y-132180262D01*
X146126708Y-132061536D01*
X146450582Y-131905566D01*
X146754956Y-131714315D01*
X147036003Y-131490188D01*
X147290188Y-131236003D01*
X147514315Y-130954956D01*
X147705566Y-130650582D01*
X147861536Y-130326708D01*
X147980262Y-129987408D01*
X148052938Y-129668995D01*
X182599499Y-129668995D01*
X182626418Y-129804322D01*
X182626421Y-129804332D01*
X182679221Y-129931804D01*
X182679228Y-129931817D01*
X182755885Y-130046541D01*
X182755888Y-130046545D01*
X182853454Y-130144111D01*
X182853458Y-130144114D01*
X182968182Y-130220771D01*
X182968195Y-130220778D01*
X183095667Y-130273578D01*
X183095672Y-130273580D01*
X183095676Y-130273580D01*
X183095677Y-130273581D01*
X183231004Y-130300500D01*
X183231007Y-130300500D01*
X183368995Y-130300500D01*
X183460041Y-130282389D01*
X183504328Y-130273580D01*
X183631811Y-130220775D01*
X183746542Y-130144114D01*
X183822070Y-130068586D01*
X199546556Y-130068586D01*
X199546556Y-130575525D01*
X199586924Y-130778468D01*
X199586926Y-130778476D01*
X199666114Y-130969652D01*
X199781080Y-131141713D01*
X199927398Y-131288031D01*
X199927401Y-131288033D01*
X200099458Y-131402997D01*
X200290636Y-131482186D01*
X200479243Y-131519702D01*
X200493586Y-131522555D01*
X200493590Y-131522556D01*
X200493591Y-131522556D01*
X200700522Y-131522556D01*
X200700523Y-131522555D01*
X200903476Y-131482186D01*
X201094654Y-131402997D01*
X201266711Y-131288033D01*
X201413033Y-131141711D01*
X201527997Y-130969654D01*
X201607186Y-130778476D01*
X201647556Y-130575521D01*
X201647556Y-130068591D01*
X201607186Y-129865636D01*
X201527997Y-129674458D01*
X201467409Y-129583781D01*
X201467408Y-129583778D01*
X201423313Y-129517786D01*
X202046556Y-129517786D01*
X202046556Y-131126325D01*
X202049409Y-131156755D01*
X202049409Y-131156757D01*
X202094262Y-131284936D01*
X202094263Y-131284938D01*
X202174906Y-131394206D01*
X202284174Y-131474849D01*
X202305145Y-131482187D01*
X202412355Y-131519702D01*
X202442786Y-131522556D01*
X202442790Y-131522556D01*
X203751326Y-131522556D01*
X203781755Y-131519702D01*
X203781757Y-131519702D01*
X203866101Y-131490188D01*
X203909938Y-131474849D01*
X204019206Y-131394206D01*
X204099849Y-131284938D01*
X204122275Y-131220846D01*
X204144702Y-131156757D01*
X204144702Y-131156755D01*
X204147556Y-131126325D01*
X204147556Y-129517786D01*
X204144702Y-129487356D01*
X204144702Y-129487354D01*
X204099849Y-129359175D01*
X204099848Y-129359173D01*
X204019206Y-129249906D01*
X203909938Y-129169263D01*
X203909936Y-129169262D01*
X203781756Y-129124409D01*
X203751326Y-129121556D01*
X203751322Y-129121556D01*
X202442790Y-129121556D01*
X202442786Y-129121556D01*
X202412356Y-129124409D01*
X202412354Y-129124409D01*
X202284175Y-129169262D01*
X202284173Y-129169263D01*
X202174906Y-129249906D01*
X202094263Y-129359173D01*
X202094262Y-129359175D01*
X202049409Y-129487354D01*
X202049409Y-129487356D01*
X202046556Y-129517786D01*
X201423313Y-129517786D01*
X201413036Y-129502405D01*
X201413030Y-129502397D01*
X201266713Y-129356080D01*
X201135163Y-129268182D01*
X201094654Y-129241115D01*
X200903476Y-129161926D01*
X200903468Y-129161924D01*
X200700525Y-129121556D01*
X200700521Y-129121556D01*
X200493591Y-129121556D01*
X200493586Y-129121556D01*
X200290643Y-129161924D01*
X200290635Y-129161926D01*
X200099459Y-129241114D01*
X199927398Y-129356080D01*
X199781080Y-129502398D01*
X199666114Y-129674459D01*
X199586926Y-129865635D01*
X199586924Y-129865643D01*
X199546556Y-130068586D01*
X183822070Y-130068586D01*
X183844114Y-130046542D01*
X183863655Y-130017296D01*
X183879484Y-129993608D01*
X183920771Y-129931817D01*
X183920771Y-129931816D01*
X183920775Y-129931811D01*
X183973580Y-129804328D01*
X184000500Y-129668993D01*
X184000500Y-129531007D01*
X184000500Y-129531004D01*
X183973581Y-129395677D01*
X183973580Y-129395676D01*
X183973580Y-129395672D01*
X183957180Y-129356079D01*
X183920778Y-129268195D01*
X183920771Y-129268182D01*
X183844114Y-129153458D01*
X183844111Y-129153454D01*
X183746545Y-129055888D01*
X183746541Y-129055885D01*
X183631817Y-128979228D01*
X183631804Y-128979221D01*
X183504332Y-128926421D01*
X183504322Y-128926418D01*
X183368995Y-128899500D01*
X183368993Y-128899500D01*
X183231007Y-128899500D01*
X183231005Y-128899500D01*
X183095677Y-128926418D01*
X183095667Y-128926421D01*
X182968195Y-128979221D01*
X182968182Y-128979228D01*
X182853458Y-129055885D01*
X182853454Y-129055888D01*
X182755888Y-129153454D01*
X182755885Y-129153458D01*
X182679228Y-129268182D01*
X182679221Y-129268195D01*
X182626421Y-129395667D01*
X182626418Y-129395677D01*
X182599500Y-129531004D01*
X182599500Y-129531007D01*
X182599500Y-129668993D01*
X182599500Y-129668995D01*
X182599499Y-129668995D01*
X148052938Y-129668995D01*
X148060252Y-129636948D01*
X148073678Y-129517790D01*
X148074440Y-129511031D01*
X148074440Y-129511030D01*
X148091549Y-129359175D01*
X148100500Y-129279736D01*
X148100500Y-128920264D01*
X148060252Y-128563052D01*
X147980262Y-128212592D01*
X147976030Y-128200499D01*
X147934047Y-128080518D01*
X147861536Y-127873292D01*
X147705567Y-127549420D01*
X147705567Y-127549419D01*
X147687674Y-127520943D01*
X193599500Y-127520943D01*
X193599500Y-127679056D01*
X193640423Y-127831783D01*
X193640426Y-127831790D01*
X193719475Y-127968709D01*
X193719479Y-127968714D01*
X193719480Y-127968716D01*
X193831284Y-128080520D01*
X193831286Y-128080521D01*
X193831290Y-128080524D01*
X193968209Y-128159573D01*
X193968216Y-128159577D01*
X194120943Y-128200500D01*
X194120945Y-128200500D01*
X194279055Y-128200500D01*
X194279057Y-128200500D01*
X194431784Y-128159577D01*
X194568716Y-128080520D01*
X194680520Y-127968716D01*
X194759577Y-127831784D01*
X194800500Y-127679057D01*
X194800500Y-127520943D01*
X195499500Y-127520943D01*
X195499500Y-127679056D01*
X195540423Y-127831783D01*
X195540426Y-127831790D01*
X195619475Y-127968709D01*
X195619479Y-127968714D01*
X195619480Y-127968716D01*
X195731284Y-128080520D01*
X195731286Y-128080521D01*
X195731290Y-128080524D01*
X195868209Y-128159573D01*
X195868216Y-128159577D01*
X196020943Y-128200500D01*
X196020945Y-128200500D01*
X196179055Y-128200500D01*
X196179057Y-128200500D01*
X196331784Y-128159577D01*
X196468716Y-128080520D01*
X196580520Y-127968716D01*
X196659577Y-127831784D01*
X196700500Y-127679057D01*
X196700500Y-127520943D01*
X196659577Y-127368216D01*
X196588465Y-127245045D01*
X196580524Y-127231290D01*
X196580518Y-127231282D01*
X196468717Y-127119481D01*
X196468709Y-127119475D01*
X196331790Y-127040426D01*
X196331786Y-127040424D01*
X196331784Y-127040423D01*
X196179057Y-126999500D01*
X196020943Y-126999500D01*
X195868216Y-127040423D01*
X195868209Y-127040426D01*
X195731290Y-127119475D01*
X195731282Y-127119481D01*
X195619481Y-127231282D01*
X195619475Y-127231290D01*
X195540426Y-127368209D01*
X195540423Y-127368216D01*
X195499500Y-127520943D01*
X194800500Y-127520943D01*
X194759577Y-127368216D01*
X194688465Y-127245045D01*
X194680524Y-127231290D01*
X194680518Y-127231282D01*
X194568717Y-127119481D01*
X194568709Y-127119475D01*
X194431790Y-127040426D01*
X194431786Y-127040424D01*
X194431784Y-127040423D01*
X194279057Y-126999500D01*
X194120943Y-126999500D01*
X193968216Y-127040423D01*
X193968209Y-127040426D01*
X193831290Y-127119475D01*
X193831282Y-127119481D01*
X193719481Y-127231282D01*
X193719475Y-127231290D01*
X193640426Y-127368209D01*
X193640423Y-127368216D01*
X193599500Y-127520943D01*
X147687674Y-127520943D01*
X147591705Y-127368209D01*
X147514315Y-127245044D01*
X147290188Y-126963997D01*
X147036003Y-126709812D01*
X146754956Y-126485685D01*
X146585257Y-126379056D01*
X146487785Y-126317810D01*
X146487783Y-126317808D01*
X146450584Y-126294435D01*
X146450583Y-126294434D01*
X146297978Y-126220943D01*
X162399500Y-126220943D01*
X162399500Y-126379056D01*
X162440423Y-126531783D01*
X162440426Y-126531790D01*
X162519475Y-126668709D01*
X162519479Y-126668714D01*
X162519480Y-126668716D01*
X162631284Y-126780520D01*
X162631286Y-126780521D01*
X162631290Y-126780524D01*
X162768209Y-126859573D01*
X162768216Y-126859577D01*
X162920943Y-126900500D01*
X162920945Y-126900500D01*
X163079055Y-126900500D01*
X163079057Y-126900500D01*
X163231784Y-126859577D01*
X163368716Y-126780520D01*
X163462319Y-126686917D01*
X163523642Y-126653432D01*
X163593334Y-126658416D01*
X163637681Y-126686917D01*
X163731284Y-126780520D01*
X163731286Y-126780521D01*
X163731290Y-126780524D01*
X163868209Y-126859573D01*
X163868216Y-126859577D01*
X164020943Y-126900500D01*
X164020945Y-126900500D01*
X164179055Y-126900500D01*
X164179057Y-126900500D01*
X164331784Y-126859577D01*
X164468716Y-126780520D01*
X164580520Y-126668716D01*
X164592612Y-126647772D01*
X164643178Y-126599555D01*
X164711785Y-126586331D01*
X164776650Y-126612298D01*
X164807388Y-126647772D01*
X164819477Y-126668712D01*
X164819479Y-126668715D01*
X164819480Y-126668716D01*
X164931284Y-126780520D01*
X164931286Y-126780521D01*
X164931290Y-126780524D01*
X165068209Y-126859573D01*
X165068216Y-126859577D01*
X165220943Y-126900500D01*
X165220945Y-126900500D01*
X165379055Y-126900500D01*
X165379057Y-126900500D01*
X165531784Y-126859577D01*
X165668716Y-126780520D01*
X165780520Y-126668716D01*
X165859577Y-126531784D01*
X165900500Y-126379057D01*
X165900500Y-126220943D01*
X165859577Y-126068216D01*
X165859573Y-126068209D01*
X165780524Y-125931290D01*
X165780518Y-125931282D01*
X165668717Y-125819481D01*
X165668709Y-125819475D01*
X165531790Y-125740426D01*
X165531786Y-125740424D01*
X165531784Y-125740423D01*
X165379057Y-125699500D01*
X165220943Y-125699500D01*
X165068216Y-125740423D01*
X165068209Y-125740426D01*
X164931290Y-125819475D01*
X164931282Y-125819481D01*
X164819481Y-125931282D01*
X164819477Y-125931287D01*
X164807387Y-125952229D01*
X164756820Y-126000445D01*
X164688213Y-126013668D01*
X164623348Y-125987700D01*
X164592613Y-125952229D01*
X164580522Y-125931287D01*
X164580518Y-125931282D01*
X164468717Y-125819481D01*
X164468709Y-125819475D01*
X164331790Y-125740426D01*
X164331786Y-125740424D01*
X164331784Y-125740423D01*
X164179057Y-125699500D01*
X164020943Y-125699500D01*
X163868216Y-125740423D01*
X163868209Y-125740426D01*
X163731290Y-125819475D01*
X163731282Y-125819481D01*
X163637681Y-125913083D01*
X163576358Y-125946568D01*
X163506666Y-125941584D01*
X163462319Y-125913083D01*
X163368717Y-125819481D01*
X163368709Y-125819475D01*
X163231790Y-125740426D01*
X163231786Y-125740424D01*
X163231784Y-125740423D01*
X163079057Y-125699500D01*
X162920943Y-125699500D01*
X162768216Y-125740423D01*
X162768209Y-125740426D01*
X162631290Y-125819475D01*
X162631282Y-125819481D01*
X162519481Y-125931282D01*
X162519475Y-125931290D01*
X162440426Y-126068209D01*
X162440423Y-126068216D01*
X162399500Y-126220943D01*
X146297978Y-126220943D01*
X146126711Y-126138465D01*
X145787419Y-126019741D01*
X145787407Y-126019737D01*
X145436951Y-125939748D01*
X145436935Y-125939746D01*
X145079740Y-125899500D01*
X145079736Y-125899500D01*
X144720264Y-125899500D01*
X144720259Y-125899500D01*
X144363064Y-125939746D01*
X144363048Y-125939748D01*
X144012592Y-126019737D01*
X144012580Y-126019741D01*
X143673288Y-126138465D01*
X143349420Y-126294432D01*
X143045045Y-126485684D01*
X142763997Y-126709811D01*
X142509811Y-126963997D01*
X142285684Y-127245045D01*
X142094432Y-127549420D01*
X141938465Y-127873288D01*
X141819741Y-128212580D01*
X141819737Y-128212592D01*
X141739748Y-128563048D01*
X141739746Y-128563064D01*
X141699500Y-128920259D01*
X140000500Y-128920259D01*
X140000500Y-121693982D01*
X146574500Y-121693982D01*
X146574500Y-121806018D01*
X146597751Y-121892790D01*
X146603497Y-121914236D01*
X146603498Y-121914239D01*
X146617640Y-121938734D01*
X146659515Y-122011263D01*
X146738737Y-122090485D01*
X146835763Y-122146503D01*
X146868317Y-122155225D01*
X146927976Y-122191590D01*
X146958505Y-122254437D01*
X146950210Y-122323813D01*
X146905725Y-122377691D01*
X146868318Y-122394773D01*
X146852736Y-122398948D01*
X146835761Y-122403497D01*
X146835760Y-122403498D01*
X146738740Y-122459513D01*
X146738734Y-122459517D01*
X146659517Y-122538734D01*
X146659513Y-122538740D01*
X146603498Y-122635760D01*
X146603497Y-122635763D01*
X146574500Y-122743982D01*
X146574500Y-122856018D01*
X146602643Y-122961047D01*
X146603497Y-122964236D01*
X146603498Y-122964239D01*
X146622125Y-122996501D01*
X146659515Y-123061263D01*
X146738737Y-123140485D01*
X146783480Y-123166317D01*
X146785724Y-123167613D01*
X146833940Y-123218180D01*
X146847163Y-123286787D01*
X146821195Y-123351652D01*
X146785724Y-123382387D01*
X146738740Y-123409513D01*
X146738734Y-123409517D01*
X146659517Y-123488734D01*
X146659513Y-123488740D01*
X146603498Y-123585760D01*
X146603497Y-123585763D01*
X146574500Y-123693982D01*
X146574500Y-123806018D01*
X146583736Y-123840485D01*
X146603497Y-123914236D01*
X146603498Y-123914239D01*
X146609999Y-123925499D01*
X146659515Y-124011263D01*
X146738737Y-124090485D01*
X146835763Y-124146503D01*
X146868317Y-124155225D01*
X146927976Y-124191590D01*
X146958505Y-124254437D01*
X146950210Y-124323813D01*
X146905725Y-124377691D01*
X146868318Y-124394773D01*
X146852736Y-124398948D01*
X146835761Y-124403497D01*
X146835760Y-124403498D01*
X146738740Y-124459513D01*
X146738734Y-124459517D01*
X146659517Y-124538734D01*
X146659513Y-124538740D01*
X146603498Y-124635760D01*
X146603497Y-124635763D01*
X146574500Y-124743982D01*
X146574500Y-124856017D01*
X146603497Y-124964236D01*
X146603498Y-124964239D01*
X146622169Y-124996579D01*
X146659515Y-125061263D01*
X146738737Y-125140485D01*
X146835763Y-125196503D01*
X146943982Y-125225500D01*
X146943984Y-125225500D01*
X147056016Y-125225500D01*
X147056018Y-125225500D01*
X147164237Y-125196503D01*
X147261263Y-125140485D01*
X147340485Y-125061263D01*
X147392613Y-124970973D01*
X147443180Y-124922759D01*
X147511787Y-124909535D01*
X147576651Y-124935503D01*
X147607385Y-124970972D01*
X147659515Y-125061263D01*
X147738737Y-125140485D01*
X147835763Y-125196503D01*
X147943982Y-125225500D01*
X147943984Y-125225500D01*
X148056016Y-125225500D01*
X148056018Y-125225500D01*
X148164237Y-125196503D01*
X148261263Y-125140485D01*
X148340485Y-125061263D01*
X148396503Y-124964237D01*
X148425500Y-124856018D01*
X148425500Y-124743982D01*
X148396503Y-124635763D01*
X148340485Y-124538737D01*
X148261263Y-124459515D01*
X148164237Y-124403497D01*
X148131682Y-124394774D01*
X148072023Y-124358410D01*
X148041494Y-124295564D01*
X148049788Y-124226188D01*
X148094274Y-124172310D01*
X148131681Y-124155226D01*
X148164237Y-124146503D01*
X148261263Y-124090485D01*
X148340485Y-124011263D01*
X148396503Y-123914237D01*
X148425500Y-123806018D01*
X148425500Y-123693982D01*
X148396503Y-123585763D01*
X148340485Y-123488737D01*
X148295730Y-123443982D01*
X168774500Y-123443982D01*
X168774500Y-123556018D01*
X168793118Y-123625499D01*
X168803497Y-123664236D01*
X168803498Y-123664239D01*
X168820443Y-123693588D01*
X168859515Y-123761263D01*
X168938737Y-123840485D01*
X169035763Y-123896503D01*
X169143982Y-123925500D01*
X169143984Y-123925500D01*
X169256016Y-123925500D01*
X169256018Y-123925500D01*
X169364237Y-123896503D01*
X169461263Y-123840485D01*
X169540485Y-123761263D01*
X169541140Y-123760127D01*
X169541942Y-123759363D01*
X169545433Y-123754814D01*
X169546142Y-123755358D01*
X169591704Y-123711913D01*
X169660310Y-123698687D01*
X169725176Y-123724652D01*
X169751435Y-123754957D01*
X169751623Y-123754814D01*
X169754032Y-123757954D01*
X169755914Y-123760126D01*
X169756571Y-123761263D01*
X169835793Y-123840485D01*
X169932819Y-123896503D01*
X170041038Y-123925500D01*
X170041040Y-123925500D01*
X170153072Y-123925500D01*
X170153074Y-123925500D01*
X170261293Y-123896503D01*
X170358319Y-123840485D01*
X170437541Y-123761263D01*
X170489669Y-123670973D01*
X170540236Y-123622759D01*
X170608843Y-123609535D01*
X170673707Y-123635503D01*
X170704441Y-123670972D01*
X170756571Y-123761263D01*
X170835793Y-123840485D01*
X170932819Y-123896503D01*
X171041038Y-123925500D01*
X171041040Y-123925500D01*
X171153072Y-123925500D01*
X171153074Y-123925500D01*
X171261293Y-123896503D01*
X171358319Y-123840485D01*
X171437541Y-123761263D01*
X171441140Y-123755028D01*
X171491706Y-123706812D01*
X171560313Y-123693588D01*
X171625178Y-123719555D01*
X171655915Y-123755028D01*
X171659515Y-123761263D01*
X171738737Y-123840485D01*
X171835763Y-123896503D01*
X171943982Y-123925500D01*
X171943984Y-123925500D01*
X172056016Y-123925500D01*
X172056018Y-123925500D01*
X172164237Y-123896503D01*
X172211882Y-123868995D01*
X173699499Y-123868995D01*
X173726418Y-124004322D01*
X173726421Y-124004332D01*
X173779221Y-124131804D01*
X173779228Y-124131817D01*
X173855885Y-124246541D01*
X173855888Y-124246545D01*
X173953454Y-124344111D01*
X173953458Y-124344114D01*
X174068182Y-124420771D01*
X174068195Y-124420778D01*
X174195667Y-124473578D01*
X174195672Y-124473580D01*
X174195676Y-124473580D01*
X174195677Y-124473581D01*
X174331004Y-124500500D01*
X174331007Y-124500500D01*
X174468995Y-124500500D01*
X174560041Y-124482389D01*
X174604328Y-124473580D01*
X174731811Y-124420775D01*
X174846542Y-124344114D01*
X174944114Y-124246542D01*
X175020775Y-124131811D01*
X175073580Y-124004328D01*
X175091500Y-123914239D01*
X175100500Y-123868995D01*
X175100500Y-123731004D01*
X175073581Y-123595677D01*
X175073580Y-123595676D01*
X175073580Y-123595672D01*
X175057155Y-123556018D01*
X175020778Y-123468195D01*
X175020771Y-123468182D01*
X174944114Y-123353458D01*
X174944111Y-123353454D01*
X174846545Y-123255888D01*
X174846541Y-123255885D01*
X174731817Y-123179228D01*
X174731804Y-123179221D01*
X174604332Y-123126421D01*
X174604322Y-123126418D01*
X174468995Y-123099500D01*
X174468993Y-123099500D01*
X174331007Y-123099500D01*
X174331005Y-123099500D01*
X174195677Y-123126418D01*
X174195667Y-123126421D01*
X174068195Y-123179221D01*
X174068182Y-123179228D01*
X173953458Y-123255885D01*
X173953454Y-123255888D01*
X173855888Y-123353454D01*
X173855885Y-123353458D01*
X173779228Y-123468182D01*
X173779221Y-123468195D01*
X173726421Y-123595667D01*
X173726418Y-123595677D01*
X173699500Y-123731004D01*
X173699500Y-123731007D01*
X173699500Y-123868993D01*
X173699500Y-123868995D01*
X173699499Y-123868995D01*
X172211882Y-123868995D01*
X172261263Y-123840485D01*
X172340485Y-123761263D01*
X172396503Y-123664237D01*
X172425500Y-123556018D01*
X172425500Y-123443982D01*
X172396503Y-123335763D01*
X172340485Y-123238737D01*
X172261263Y-123159515D01*
X172164237Y-123103497D01*
X172056018Y-123074500D01*
X171943982Y-123074500D01*
X171835763Y-123103497D01*
X171835760Y-123103498D01*
X171738740Y-123159513D01*
X171738734Y-123159517D01*
X171659517Y-123238734D01*
X171659513Y-123238740D01*
X171655914Y-123244974D01*
X171605347Y-123293188D01*
X171536739Y-123306410D01*
X171471875Y-123280441D01*
X171441142Y-123244974D01*
X171440846Y-123244461D01*
X171437541Y-123238737D01*
X171358319Y-123159515D01*
X171261293Y-123103497D01*
X171153074Y-123074500D01*
X171041038Y-123074500D01*
X170932819Y-123103497D01*
X170932816Y-123103498D01*
X170835796Y-123159513D01*
X170835790Y-123159517D01*
X170756573Y-123238734D01*
X170756569Y-123238740D01*
X170704443Y-123329025D01*
X170653876Y-123377241D01*
X170585269Y-123390463D01*
X170520404Y-123364495D01*
X170489669Y-123329025D01*
X170466034Y-123288089D01*
X170437541Y-123238737D01*
X170358319Y-123159515D01*
X170261293Y-123103497D01*
X170153074Y-123074500D01*
X170041038Y-123074500D01*
X169932819Y-123103497D01*
X169932816Y-123103498D01*
X169835796Y-123159513D01*
X169835790Y-123159517D01*
X169756573Y-123238734D01*
X169756569Y-123238740D01*
X169755914Y-123239875D01*
X169755110Y-123240640D01*
X169751623Y-123245186D01*
X169750914Y-123244642D01*
X169705346Y-123288089D01*
X169636739Y-123301311D01*
X169571875Y-123275342D01*
X169545619Y-123245042D01*
X169545433Y-123245186D01*
X169543025Y-123242048D01*
X169541142Y-123239875D01*
X169540485Y-123238737D01*
X169461263Y-123159515D01*
X169364237Y-123103497D01*
X169256018Y-123074500D01*
X169143982Y-123074500D01*
X169035763Y-123103497D01*
X169035760Y-123103498D01*
X168938740Y-123159513D01*
X168938734Y-123159517D01*
X168859517Y-123238734D01*
X168859513Y-123238740D01*
X168803498Y-123335760D01*
X168803497Y-123335763D01*
X168774500Y-123443982D01*
X148295730Y-123443982D01*
X148261263Y-123409515D01*
X148202714Y-123375711D01*
X148192843Y-123366734D01*
X148181329Y-123347835D01*
X148166060Y-123331821D01*
X148163508Y-123318581D01*
X148156492Y-123307065D01*
X148157024Y-123284942D01*
X148152836Y-123263214D01*
X148157847Y-123250695D01*
X148158172Y-123237215D01*
X148170580Y-123218891D01*
X148178804Y-123198349D01*
X148192565Y-123186424D01*
X148197348Y-123179362D01*
X148204002Y-123176514D01*
X148214272Y-123167614D01*
X148261263Y-123140485D01*
X148340485Y-123061263D01*
X148396503Y-122964237D01*
X148425500Y-122856018D01*
X148425500Y-122743982D01*
X148396503Y-122635763D01*
X148340485Y-122538737D01*
X148261263Y-122459515D01*
X148164237Y-122403497D01*
X148131682Y-122394774D01*
X148072023Y-122358410D01*
X148041494Y-122295564D01*
X148049788Y-122226188D01*
X148094274Y-122172310D01*
X148131681Y-122155226D01*
X148164237Y-122146503D01*
X148261263Y-122090485D01*
X148340485Y-122011263D01*
X148392631Y-121920943D01*
X164199500Y-121920943D01*
X164199500Y-122079057D01*
X164240131Y-122230692D01*
X164240423Y-122231783D01*
X164240426Y-122231790D01*
X164319475Y-122368709D01*
X164319479Y-122368714D01*
X164319480Y-122368716D01*
X164431284Y-122480520D01*
X164431286Y-122480521D01*
X164431290Y-122480524D01*
X164532125Y-122538740D01*
X164568216Y-122559577D01*
X164720943Y-122600500D01*
X164720945Y-122600500D01*
X164879055Y-122600500D01*
X164879057Y-122600500D01*
X165031784Y-122559577D01*
X165168716Y-122480520D01*
X165280520Y-122368716D01*
X165359577Y-122231784D01*
X165400500Y-122079057D01*
X165400500Y-121920943D01*
X165379878Y-121843982D01*
X167474500Y-121843982D01*
X167474500Y-121956018D01*
X167503497Y-122064237D01*
X167559515Y-122161263D01*
X167559517Y-122161265D01*
X167560577Y-122162325D01*
X167561184Y-122163437D01*
X167564462Y-122167709D01*
X167563795Y-122168220D01*
X167594057Y-122223651D01*
X167589068Y-122293342D01*
X167564177Y-122332072D01*
X167564462Y-122332291D01*
X167561847Y-122335698D01*
X167560577Y-122337675D01*
X167559517Y-122338734D01*
X167559513Y-122338740D01*
X167503498Y-122435760D01*
X167503497Y-122435763D01*
X167474500Y-122543982D01*
X167474500Y-122656018D01*
X167498071Y-122743984D01*
X167503497Y-122764236D01*
X167503498Y-122764239D01*
X167509422Y-122774500D01*
X167559515Y-122861263D01*
X167638737Y-122940485D01*
X167735763Y-122996503D01*
X167843982Y-123025500D01*
X167843984Y-123025500D01*
X167956016Y-123025500D01*
X167956018Y-123025500D01*
X168064237Y-122996503D01*
X168161263Y-122940485D01*
X168240485Y-122861263D01*
X168296503Y-122764237D01*
X168325500Y-122656018D01*
X168325500Y-122543982D01*
X168296503Y-122435763D01*
X168240485Y-122338737D01*
X168239429Y-122337681D01*
X168238824Y-122336573D01*
X168235538Y-122332291D01*
X168236205Y-122331778D01*
X168205944Y-122276358D01*
X168210928Y-122206666D01*
X168235823Y-122167928D01*
X168235538Y-122167709D01*
X168238165Y-122164284D01*
X168239429Y-122162319D01*
X168240485Y-122161263D01*
X168296503Y-122064237D01*
X168325500Y-121956018D01*
X168325500Y-121843982D01*
X168296503Y-121735763D01*
X168240485Y-121638737D01*
X168161263Y-121559515D01*
X168064237Y-121503497D01*
X167956018Y-121474500D01*
X167843982Y-121474500D01*
X167735763Y-121503497D01*
X167735760Y-121503498D01*
X167638740Y-121559513D01*
X167638734Y-121559517D01*
X167559517Y-121638734D01*
X167559513Y-121638740D01*
X167503498Y-121735760D01*
X167503497Y-121735763D01*
X167474500Y-121843982D01*
X165379878Y-121843982D01*
X165359577Y-121768216D01*
X165352998Y-121756820D01*
X165280524Y-121631290D01*
X165280518Y-121631282D01*
X165168717Y-121519481D01*
X165168709Y-121519475D01*
X165031790Y-121440426D01*
X165031786Y-121440424D01*
X165031784Y-121440423D01*
X164879057Y-121399500D01*
X164720943Y-121399500D01*
X164568216Y-121440423D01*
X164568209Y-121440426D01*
X164431290Y-121519475D01*
X164431282Y-121519481D01*
X164319481Y-121631282D01*
X164319475Y-121631290D01*
X164240426Y-121768209D01*
X164240424Y-121768214D01*
X164240423Y-121768216D01*
X164199500Y-121920943D01*
X148392631Y-121920943D01*
X148396503Y-121914237D01*
X148425500Y-121806018D01*
X148425500Y-121693982D01*
X148396503Y-121585763D01*
X148340485Y-121488737D01*
X148261263Y-121409515D01*
X148182839Y-121364237D01*
X148164239Y-121353498D01*
X148164238Y-121353497D01*
X148164237Y-121353497D01*
X148056018Y-121324500D01*
X147943982Y-121324500D01*
X147835763Y-121353497D01*
X147835760Y-121353498D01*
X147738740Y-121409513D01*
X147738734Y-121409517D01*
X147659517Y-121488734D01*
X147659513Y-121488740D01*
X147607387Y-121579025D01*
X147556820Y-121627241D01*
X147488213Y-121640463D01*
X147423348Y-121614495D01*
X147392613Y-121579025D01*
X147370360Y-121540482D01*
X147340485Y-121488737D01*
X147261263Y-121409515D01*
X147182839Y-121364237D01*
X147164239Y-121353498D01*
X147164238Y-121353497D01*
X147164237Y-121353497D01*
X147056018Y-121324500D01*
X146943982Y-121324500D01*
X146835763Y-121353497D01*
X146835760Y-121353498D01*
X146738740Y-121409513D01*
X146738734Y-121409517D01*
X146659517Y-121488734D01*
X146659513Y-121488740D01*
X146603498Y-121585760D01*
X146603497Y-121585763D01*
X146574500Y-121693982D01*
X140000500Y-121693982D01*
X140000500Y-121143982D01*
X179974500Y-121143982D01*
X179974500Y-121256018D01*
X180002643Y-121361047D01*
X180003497Y-121364236D01*
X180003498Y-121364239D01*
X180022125Y-121396501D01*
X180059515Y-121461263D01*
X180138737Y-121540485D01*
X180205490Y-121579025D01*
X180229025Y-121592613D01*
X180277241Y-121643180D01*
X180290463Y-121711787D01*
X180264495Y-121776652D01*
X180229025Y-121807387D01*
X180138740Y-121859513D01*
X180138734Y-121859517D01*
X180059517Y-121938734D01*
X180059513Y-121938740D01*
X180003498Y-122035760D01*
X180003497Y-122035763D01*
X179974500Y-122143982D01*
X179974500Y-122256018D01*
X179996665Y-122338737D01*
X180003497Y-122364236D01*
X180003498Y-122364239D01*
X180009422Y-122374500D01*
X180059515Y-122461263D01*
X180138737Y-122540485D01*
X180208076Y-122580518D01*
X180229025Y-122592613D01*
X180277241Y-122643180D01*
X180290463Y-122711787D01*
X180264495Y-122776652D01*
X180229025Y-122807387D01*
X180138740Y-122859513D01*
X180138734Y-122859517D01*
X180059517Y-122938734D01*
X180059513Y-122938740D01*
X180003498Y-123035760D01*
X180003497Y-123035763D01*
X179974500Y-123143982D01*
X179974500Y-123256018D01*
X180000620Y-123353497D01*
X180003497Y-123364236D01*
X180003498Y-123364239D01*
X180011005Y-123377241D01*
X180059515Y-123461263D01*
X180138737Y-123540485D01*
X180235763Y-123596503D01*
X180343982Y-123625500D01*
X180343984Y-123625500D01*
X180456016Y-123625500D01*
X180456018Y-123625500D01*
X180564237Y-123596503D01*
X180661263Y-123540485D01*
X180740485Y-123461263D01*
X180792613Y-123370973D01*
X180843180Y-123322759D01*
X180911787Y-123309535D01*
X180976651Y-123335503D01*
X181007385Y-123370972D01*
X181059515Y-123461263D01*
X181138737Y-123540485D01*
X181235763Y-123596503D01*
X181343982Y-123625500D01*
X181343984Y-123625500D01*
X181456016Y-123625500D01*
X181456018Y-123625500D01*
X181564237Y-123596503D01*
X181661263Y-123540485D01*
X181740485Y-123461263D01*
X181796503Y-123364237D01*
X181825500Y-123256018D01*
X181825500Y-123143982D01*
X181796503Y-123035763D01*
X181740485Y-122938737D01*
X181661263Y-122859515D01*
X181570973Y-122807386D01*
X181522759Y-122756820D01*
X181509535Y-122688213D01*
X181535503Y-122623349D01*
X181570972Y-122592614D01*
X181661263Y-122540485D01*
X181740485Y-122461263D01*
X181796503Y-122364237D01*
X181825500Y-122256018D01*
X181825500Y-122143982D01*
X181796503Y-122035763D01*
X181787947Y-122020943D01*
X192199500Y-122020943D01*
X192199500Y-122179057D01*
X192240422Y-122331778D01*
X192240423Y-122331783D01*
X192240426Y-122331790D01*
X192319475Y-122468709D01*
X192319479Y-122468714D01*
X192319480Y-122468716D01*
X192431284Y-122580520D01*
X192431286Y-122580521D01*
X192431290Y-122580524D01*
X192568209Y-122659573D01*
X192568216Y-122659577D01*
X192720943Y-122700500D01*
X192720945Y-122700500D01*
X192879055Y-122700500D01*
X192879057Y-122700500D01*
X193031784Y-122659577D01*
X193168716Y-122580520D01*
X193280520Y-122468716D01*
X193318174Y-122403497D01*
X193359575Y-122331788D01*
X193360938Y-122328498D01*
X193362831Y-122326148D01*
X193363641Y-122324746D01*
X193363859Y-122324872D01*
X193404778Y-122274093D01*
X193471072Y-122252027D01*
X193538771Y-122269305D01*
X193586383Y-122320441D01*
X193599500Y-122375948D01*
X193599500Y-122479057D01*
X193632041Y-122600500D01*
X193640423Y-122631783D01*
X193640426Y-122631790D01*
X193719475Y-122768709D01*
X193719479Y-122768714D01*
X193719480Y-122768716D01*
X193831284Y-122880520D01*
X193831286Y-122880521D01*
X193831290Y-122880524D01*
X193968209Y-122959573D01*
X193968216Y-122959577D01*
X194120943Y-123000500D01*
X194120945Y-123000500D01*
X194279055Y-123000500D01*
X194279057Y-123000500D01*
X194431784Y-122959577D01*
X194568716Y-122880520D01*
X194680520Y-122768716D01*
X194759577Y-122631784D01*
X194800500Y-122479057D01*
X194800500Y-122320943D01*
X194759577Y-122168216D01*
X194714700Y-122090486D01*
X194680524Y-122031290D01*
X194680518Y-122031282D01*
X194568717Y-121919481D01*
X194568709Y-121919475D01*
X194522482Y-121892786D01*
X202496556Y-121892786D01*
X202496556Y-123201325D01*
X202499409Y-123231755D01*
X202499409Y-123231757D01*
X202542009Y-123353497D01*
X202544263Y-123359938D01*
X202624906Y-123469206D01*
X202734174Y-123549849D01*
X202776901Y-123564800D01*
X202862355Y-123594702D01*
X202892786Y-123597556D01*
X202892790Y-123597556D01*
X204451326Y-123597556D01*
X204481755Y-123594702D01*
X204481757Y-123594702D01*
X204545846Y-123572275D01*
X204609938Y-123549849D01*
X204719206Y-123469206D01*
X204799849Y-123359938D01*
X204827666Y-123280441D01*
X204844702Y-123231757D01*
X204844702Y-123231755D01*
X204847556Y-123201325D01*
X204847556Y-121892786D01*
X204844702Y-121862356D01*
X204844702Y-121862354D01*
X204799849Y-121734175D01*
X204799848Y-121734173D01*
X204719206Y-121624906D01*
X204609938Y-121544263D01*
X204609936Y-121544262D01*
X204481756Y-121499409D01*
X204451326Y-121496556D01*
X204451322Y-121496556D01*
X202892790Y-121496556D01*
X202892786Y-121496556D01*
X202862356Y-121499409D01*
X202862354Y-121499409D01*
X202734175Y-121544262D01*
X202734173Y-121544263D01*
X202624906Y-121624906D01*
X202544263Y-121734173D01*
X202544262Y-121734175D01*
X202499409Y-121862354D01*
X202499409Y-121862356D01*
X202496556Y-121892786D01*
X194522482Y-121892786D01*
X194431790Y-121840426D01*
X194431786Y-121840424D01*
X194431784Y-121840423D01*
X194279057Y-121799500D01*
X194120943Y-121799500D01*
X193968216Y-121840423D01*
X193968209Y-121840426D01*
X193831290Y-121919475D01*
X193831282Y-121919481D01*
X193719481Y-122031282D01*
X193719475Y-122031290D01*
X193640422Y-122168215D01*
X193639060Y-122171505D01*
X193637167Y-122173852D01*
X193636359Y-122175254D01*
X193636140Y-122175127D01*
X193595219Y-122225908D01*
X193528924Y-122247972D01*
X193461225Y-122230692D01*
X193413615Y-122179554D01*
X193400500Y-122124051D01*
X193400500Y-122020945D01*
X193400500Y-122020943D01*
X193359577Y-121868216D01*
X193324458Y-121807387D01*
X193280524Y-121731290D01*
X193280518Y-121731282D01*
X193168717Y-121619481D01*
X193168709Y-121619475D01*
X193031790Y-121540426D01*
X193031786Y-121540424D01*
X193031784Y-121540423D01*
X192879057Y-121499500D01*
X192720943Y-121499500D01*
X192568216Y-121540423D01*
X192568209Y-121540426D01*
X192431290Y-121619475D01*
X192431282Y-121619481D01*
X192319481Y-121731282D01*
X192319475Y-121731290D01*
X192240426Y-121868209D01*
X192240423Y-121868216D01*
X192199500Y-122020943D01*
X181787947Y-122020943D01*
X181740485Y-121938737D01*
X181661263Y-121859515D01*
X181570973Y-121807386D01*
X181522759Y-121756820D01*
X181509535Y-121688213D01*
X181535503Y-121623349D01*
X181570972Y-121592614D01*
X181661263Y-121540485D01*
X181740485Y-121461263D01*
X181796503Y-121364237D01*
X181825500Y-121256018D01*
X181825500Y-121143982D01*
X181796503Y-121035763D01*
X181743513Y-120943982D01*
X196574500Y-120943982D01*
X196574500Y-121056018D01*
X196603497Y-121164237D01*
X196659515Y-121261263D01*
X196738737Y-121340485D01*
X196835763Y-121396503D01*
X196943982Y-121425500D01*
X196943984Y-121425500D01*
X197056016Y-121425500D01*
X197056018Y-121425500D01*
X197164237Y-121396503D01*
X197261263Y-121340485D01*
X197340485Y-121261263D01*
X197396503Y-121164237D01*
X197425500Y-121056018D01*
X197425500Y-120943982D01*
X197396503Y-120835763D01*
X197340485Y-120738737D01*
X197261263Y-120659515D01*
X197164237Y-120603497D01*
X197056018Y-120574500D01*
X196943982Y-120574500D01*
X196835763Y-120603497D01*
X196835760Y-120603498D01*
X196738740Y-120659513D01*
X196738734Y-120659517D01*
X196659517Y-120738734D01*
X196659513Y-120738740D01*
X196603498Y-120835760D01*
X196603497Y-120835763D01*
X196574500Y-120943982D01*
X181743513Y-120943982D01*
X181740485Y-120938737D01*
X181661263Y-120859515D01*
X181564237Y-120803497D01*
X181456018Y-120774500D01*
X181343982Y-120774500D01*
X181235763Y-120803497D01*
X181235760Y-120803498D01*
X181138740Y-120859513D01*
X181138734Y-120859517D01*
X181059517Y-120938734D01*
X181059513Y-120938740D01*
X181007387Y-121029025D01*
X180956820Y-121077241D01*
X180888213Y-121090463D01*
X180823348Y-121064495D01*
X180792613Y-121029025D01*
X180774617Y-120997855D01*
X180740485Y-120938737D01*
X180661263Y-120859515D01*
X180564237Y-120803497D01*
X180456018Y-120774500D01*
X180343982Y-120774500D01*
X180235763Y-120803497D01*
X180235760Y-120803498D01*
X180138740Y-120859513D01*
X180138734Y-120859517D01*
X180059517Y-120938734D01*
X180059513Y-120938740D01*
X180003498Y-121035760D01*
X180003497Y-121035763D01*
X179974500Y-121143982D01*
X140000500Y-121143982D01*
X140000500Y-120143982D01*
X176774500Y-120143982D01*
X176774500Y-120256018D01*
X176803497Y-120364237D01*
X176859515Y-120461263D01*
X176938737Y-120540485D01*
X177035763Y-120596503D01*
X177143982Y-120625500D01*
X177143984Y-120625500D01*
X177256016Y-120625500D01*
X177256018Y-120625500D01*
X177364237Y-120596503D01*
X177461263Y-120540485D01*
X177540485Y-120461263D01*
X177596503Y-120364237D01*
X177625500Y-120256018D01*
X177625500Y-120143982D01*
X177596503Y-120035763D01*
X177543285Y-119943586D01*
X202496556Y-119943586D01*
X202496556Y-120150525D01*
X202536924Y-120353468D01*
X202536926Y-120353476D01*
X202614388Y-120540486D01*
X202616115Y-120544654D01*
X202650759Y-120596503D01*
X202731080Y-120716713D01*
X202877398Y-120863031D01*
X202877401Y-120863033D01*
X203049458Y-120977997D01*
X203240636Y-121057186D01*
X203407932Y-121090463D01*
X203443586Y-121097555D01*
X203443590Y-121097556D01*
X203443591Y-121097556D01*
X203900522Y-121097556D01*
X203900523Y-121097555D01*
X204103476Y-121057186D01*
X204294654Y-120977997D01*
X204466711Y-120863033D01*
X204613033Y-120716711D01*
X204727997Y-120544654D01*
X204807186Y-120353476D01*
X204847556Y-120150521D01*
X204847556Y-119943591D01*
X204807186Y-119740636D01*
X204727997Y-119549458D01*
X204613033Y-119377401D01*
X204613031Y-119377398D01*
X204466713Y-119231080D01*
X204380682Y-119173597D01*
X204294654Y-119116115D01*
X204103476Y-119036926D01*
X204103468Y-119036924D01*
X203900525Y-118996556D01*
X203900521Y-118996556D01*
X203443591Y-118996556D01*
X203443586Y-118996556D01*
X203240643Y-119036924D01*
X203240635Y-119036926D01*
X203049459Y-119116114D01*
X202877398Y-119231080D01*
X202731080Y-119377398D01*
X202616114Y-119549459D01*
X202536926Y-119740635D01*
X202536924Y-119740643D01*
X202496556Y-119943586D01*
X177543285Y-119943586D01*
X177540485Y-119938737D01*
X177461263Y-119859515D01*
X177364237Y-119803497D01*
X177256018Y-119774500D01*
X177143982Y-119774500D01*
X177035763Y-119803497D01*
X177035760Y-119803498D01*
X176938740Y-119859513D01*
X176938734Y-119859517D01*
X176859517Y-119938734D01*
X176859513Y-119938740D01*
X176803498Y-120035760D01*
X176803497Y-120035763D01*
X176774500Y-120143982D01*
X140000500Y-120143982D01*
X140000500Y-119543982D01*
X172574500Y-119543982D01*
X172574500Y-119656018D01*
X172603497Y-119764237D01*
X172659515Y-119861263D01*
X172738737Y-119940485D01*
X172835763Y-119996503D01*
X172943982Y-120025500D01*
X172943984Y-120025500D01*
X173056016Y-120025500D01*
X173056018Y-120025500D01*
X173164237Y-119996503D01*
X173261263Y-119940485D01*
X173340485Y-119861263D01*
X173396503Y-119764237D01*
X173425500Y-119656018D01*
X173425500Y-119543982D01*
X173396503Y-119435763D01*
X173340485Y-119338737D01*
X173261263Y-119259515D01*
X173234582Y-119244111D01*
X177996556Y-119244111D01*
X177996556Y-119356147D01*
X178025553Y-119464366D01*
X178081571Y-119561392D01*
X178160793Y-119640614D01*
X178257819Y-119696632D01*
X178366038Y-119725629D01*
X178366040Y-119725629D01*
X178478072Y-119725629D01*
X178478074Y-119725629D01*
X178586293Y-119696632D01*
X178683319Y-119640614D01*
X178762541Y-119561392D01*
X178818559Y-119464366D01*
X178847556Y-119356147D01*
X178847556Y-119244111D01*
X178818559Y-119135892D01*
X178762541Y-119038866D01*
X178683319Y-118959644D01*
X178586293Y-118903626D01*
X178478074Y-118874629D01*
X178366038Y-118874629D01*
X178257819Y-118903626D01*
X178257816Y-118903627D01*
X178160796Y-118959642D01*
X178160790Y-118959646D01*
X178081573Y-119038863D01*
X178081569Y-119038869D01*
X178025554Y-119135889D01*
X178025553Y-119135892D01*
X177996556Y-119244111D01*
X173234582Y-119244111D01*
X173164237Y-119203497D01*
X173056018Y-119174500D01*
X172943982Y-119174500D01*
X172835763Y-119203497D01*
X172835760Y-119203498D01*
X172738740Y-119259513D01*
X172738734Y-119259517D01*
X172659517Y-119338734D01*
X172659513Y-119338740D01*
X172603498Y-119435760D01*
X172603497Y-119435763D01*
X172574500Y-119543982D01*
X140000500Y-119543982D01*
X140000500Y-118293982D01*
X174539546Y-118293982D01*
X174539546Y-118406018D01*
X174568543Y-118514237D01*
X174624561Y-118611263D01*
X174703783Y-118690485D01*
X174800809Y-118746503D01*
X174909028Y-118775500D01*
X174909030Y-118775500D01*
X175021062Y-118775500D01*
X175021064Y-118775500D01*
X175129283Y-118746503D01*
X175226309Y-118690485D01*
X175305531Y-118611263D01*
X175361549Y-118514237D01*
X175390546Y-118406018D01*
X175390546Y-118293982D01*
X175361549Y-118185763D01*
X175305531Y-118088737D01*
X175226309Y-118009515D01*
X175147885Y-117964237D01*
X175129285Y-117953498D01*
X175129284Y-117953497D01*
X175129283Y-117953497D01*
X175021064Y-117924500D01*
X174909028Y-117924500D01*
X174800809Y-117953497D01*
X174800806Y-117953498D01*
X174703786Y-118009513D01*
X174703780Y-118009517D01*
X174624563Y-118088734D01*
X174624559Y-118088740D01*
X174568544Y-118185760D01*
X174568543Y-118185763D01*
X174539546Y-118293982D01*
X140000500Y-118293982D01*
X140000500Y-117743982D01*
X175874500Y-117743982D01*
X175874500Y-117856018D01*
X175903497Y-117964237D01*
X175959515Y-118061263D01*
X176038737Y-118140485D01*
X176135763Y-118196503D01*
X176243982Y-118225500D01*
X176243984Y-118225500D01*
X176356016Y-118225500D01*
X176356018Y-118225500D01*
X176464237Y-118196503D01*
X176561263Y-118140485D01*
X176640485Y-118061263D01*
X176696503Y-117964237D01*
X176725500Y-117856018D01*
X176725500Y-117743982D01*
X176696503Y-117635763D01*
X176640485Y-117538737D01*
X176561263Y-117459515D01*
X176464237Y-117403497D01*
X176356018Y-117374500D01*
X176243982Y-117374500D01*
X176135763Y-117403497D01*
X176135760Y-117403498D01*
X176038740Y-117459513D01*
X176038734Y-117459517D01*
X175959517Y-117538734D01*
X175959513Y-117538740D01*
X175903498Y-117635760D01*
X175903497Y-117635763D01*
X175874500Y-117743982D01*
X140000500Y-117743982D01*
X140000500Y-115420943D01*
X192099500Y-115420943D01*
X192099500Y-115579056D01*
X192140423Y-115731783D01*
X192140426Y-115731790D01*
X192219475Y-115868709D01*
X192219479Y-115868714D01*
X192219480Y-115868716D01*
X192331284Y-115980520D01*
X192331286Y-115980521D01*
X192331290Y-115980524D01*
X192468209Y-116059573D01*
X192468216Y-116059577D01*
X192620943Y-116100500D01*
X192620945Y-116100500D01*
X192779055Y-116100500D01*
X192779057Y-116100500D01*
X192931784Y-116059577D01*
X193068716Y-115980520D01*
X193180520Y-115868716D01*
X193259577Y-115731784D01*
X193300500Y-115579057D01*
X193300500Y-115420943D01*
X193259577Y-115268216D01*
X193237744Y-115230399D01*
X193180524Y-115131290D01*
X193180518Y-115131282D01*
X193068717Y-115019481D01*
X193068712Y-115019477D01*
X192933662Y-114941507D01*
X192933661Y-114941506D01*
X192931788Y-114940425D01*
X192931786Y-114940424D01*
X192931784Y-114940423D01*
X192779057Y-114899500D01*
X192620943Y-114899500D01*
X192468216Y-114940423D01*
X192468209Y-114940426D01*
X192331290Y-115019475D01*
X192331282Y-115019481D01*
X192219481Y-115131282D01*
X192219475Y-115131290D01*
X192140426Y-115268209D01*
X192140423Y-115268216D01*
X192099500Y-115420943D01*
X140000500Y-115420943D01*
X140000500Y-114797056D01*
X202219825Y-114797056D01*
X203267910Y-114797056D01*
X203229426Y-114863713D01*
X203197056Y-114984521D01*
X203197056Y-115109591D01*
X203229426Y-115230399D01*
X203267910Y-115297056D01*
X202219825Y-115297056D01*
X202230298Y-115363182D01*
X202230298Y-115363185D01*
X202295960Y-115565273D01*
X202392435Y-115754613D01*
X202517328Y-115926515D01*
X202517332Y-115926520D01*
X202667591Y-116076779D01*
X202667596Y-116076783D01*
X202839498Y-116201676D01*
X203028838Y-116298151D01*
X203150911Y-116337815D01*
X203208586Y-116377252D01*
X203235785Y-116441611D01*
X203223871Y-116510457D01*
X203176626Y-116561933D01*
X203160046Y-116570307D01*
X203049460Y-116616113D01*
X202877398Y-116731080D01*
X202731080Y-116877398D01*
X202616114Y-117049459D01*
X202536926Y-117240635D01*
X202536924Y-117240643D01*
X202496556Y-117443586D01*
X202496556Y-117650525D01*
X202536924Y-117853468D01*
X202536926Y-117853476D01*
X202616114Y-118044652D01*
X202731080Y-118216713D01*
X202877398Y-118363031D01*
X202877401Y-118363033D01*
X203049458Y-118477997D01*
X203240636Y-118557186D01*
X203443586Y-118597555D01*
X203443590Y-118597556D01*
X203443591Y-118597556D01*
X203900522Y-118597556D01*
X203900523Y-118597555D01*
X204103476Y-118557186D01*
X204294654Y-118477997D01*
X204466711Y-118363033D01*
X204613033Y-118216711D01*
X204727997Y-118044654D01*
X204807186Y-117853476D01*
X204847556Y-117650521D01*
X204847556Y-117443591D01*
X204807186Y-117240636D01*
X204727997Y-117049458D01*
X204613033Y-116877401D01*
X204613031Y-116877398D01*
X204466713Y-116731080D01*
X204294652Y-116616113D01*
X204184065Y-116570307D01*
X204129662Y-116526466D01*
X204107597Y-116460172D01*
X204124876Y-116392472D01*
X204176014Y-116344862D01*
X204193200Y-116337815D01*
X204315273Y-116298151D01*
X204504613Y-116201676D01*
X204676515Y-116076783D01*
X204676520Y-116076779D01*
X204826779Y-115926520D01*
X204826783Y-115926515D01*
X204951676Y-115754613D01*
X205048151Y-115565273D01*
X205113813Y-115363185D01*
X205113813Y-115363182D01*
X205124287Y-115297056D01*
X204076202Y-115297056D01*
X204114686Y-115230399D01*
X204147056Y-115109591D01*
X204147056Y-114984521D01*
X204114686Y-114863713D01*
X204076202Y-114797056D01*
X205124287Y-114797056D01*
X205113813Y-114730929D01*
X205113813Y-114730926D01*
X205048151Y-114528838D01*
X204951676Y-114339498D01*
X204826783Y-114167596D01*
X204826779Y-114167591D01*
X204676520Y-114017332D01*
X204676515Y-114017328D01*
X204504613Y-113892435D01*
X204315273Y-113795960D01*
X204113184Y-113730298D01*
X203922056Y-113700025D01*
X203922056Y-114642910D01*
X203855399Y-114604426D01*
X203734591Y-114572056D01*
X203609521Y-114572056D01*
X203488713Y-114604426D01*
X203422056Y-114642910D01*
X203422056Y-113700025D01*
X203230928Y-113730298D01*
X203230925Y-113730298D01*
X203028838Y-113795960D01*
X202839498Y-113892435D01*
X202667596Y-114017328D01*
X202667591Y-114017332D01*
X202517332Y-114167591D01*
X202517328Y-114167596D01*
X202392435Y-114339498D01*
X202295960Y-114528838D01*
X202230298Y-114730926D01*
X202230298Y-114730929D01*
X202219825Y-114797056D01*
X140000500Y-114797056D01*
X140000500Y-113920943D01*
X187886556Y-113920943D01*
X187886556Y-114079056D01*
X187927479Y-114231783D01*
X187927482Y-114231790D01*
X188006531Y-114368709D01*
X188006535Y-114368714D01*
X188006536Y-114368716D01*
X188118340Y-114480520D01*
X188118342Y-114480521D01*
X188118346Y-114480524D01*
X188202030Y-114528838D01*
X188255272Y-114559577D01*
X188407999Y-114600500D01*
X188408001Y-114600500D01*
X188566111Y-114600500D01*
X188566113Y-114600500D01*
X188718840Y-114559577D01*
X188855772Y-114480520D01*
X188967576Y-114368716D01*
X189046633Y-114231784D01*
X189087556Y-114079057D01*
X189087556Y-113920943D01*
X189046633Y-113768216D01*
X189024741Y-113730298D01*
X188967580Y-113631290D01*
X188967574Y-113631282D01*
X188855773Y-113519481D01*
X188855765Y-113519475D01*
X188718846Y-113440426D01*
X188718842Y-113440424D01*
X188718840Y-113440423D01*
X188566113Y-113399500D01*
X188407999Y-113399500D01*
X188255272Y-113440423D01*
X188255265Y-113440426D01*
X188118346Y-113519475D01*
X188118338Y-113519481D01*
X188006537Y-113631282D01*
X188006531Y-113631290D01*
X187927482Y-113768209D01*
X187927479Y-113768216D01*
X187886556Y-113920943D01*
X140000500Y-113920943D01*
X140000500Y-112020943D01*
X184099500Y-112020943D01*
X184099500Y-112179056D01*
X184140423Y-112331783D01*
X184140426Y-112331790D01*
X184219475Y-112468709D01*
X184219479Y-112468714D01*
X184219480Y-112468716D01*
X184331284Y-112580520D01*
X184331286Y-112580521D01*
X184331290Y-112580524D01*
X184468209Y-112659573D01*
X184468216Y-112659577D01*
X184620943Y-112700500D01*
X184620945Y-112700500D01*
X184779055Y-112700500D01*
X184779057Y-112700500D01*
X184931784Y-112659577D01*
X184984380Y-112629210D01*
X185075755Y-112576457D01*
X185076449Y-112577660D01*
X185133533Y-112555583D01*
X185201980Y-112569612D01*
X185251976Y-112618419D01*
X185267649Y-112686509D01*
X185263642Y-112711244D01*
X185248763Y-112766773D01*
X185248763Y-112766775D01*
X185248763Y-112878811D01*
X185277760Y-112987030D01*
X185333778Y-113084056D01*
X185413000Y-113163278D01*
X185510026Y-113219296D01*
X185618245Y-113248293D01*
X185618247Y-113248293D01*
X185730279Y-113248293D01*
X185730281Y-113248293D01*
X185838500Y-113219296D01*
X185935526Y-113163278D01*
X186014748Y-113084056D01*
X186070766Y-112987030D01*
X186099763Y-112878811D01*
X186099763Y-112766775D01*
X186070766Y-112658556D01*
X186014748Y-112561530D01*
X185935526Y-112482308D01*
X185838500Y-112426290D01*
X185730281Y-112397293D01*
X185618245Y-112397293D01*
X185510026Y-112426290D01*
X185510025Y-112426290D01*
X185443038Y-112464965D01*
X185375138Y-112481436D01*
X185309111Y-112458584D01*
X185265921Y-112403662D01*
X185259280Y-112334109D01*
X185261255Y-112325518D01*
X185300500Y-112179057D01*
X185300500Y-112020943D01*
X185259577Y-111868216D01*
X185259573Y-111868209D01*
X185180524Y-111731290D01*
X185180518Y-111731282D01*
X185068717Y-111619481D01*
X185068709Y-111619475D01*
X184931790Y-111540426D01*
X184931786Y-111540424D01*
X184931784Y-111540423D01*
X184779057Y-111499500D01*
X184620943Y-111499500D01*
X184468216Y-111540423D01*
X184468209Y-111540426D01*
X184331290Y-111619475D01*
X184331282Y-111619481D01*
X184219481Y-111731282D01*
X184219475Y-111731290D01*
X184140426Y-111868209D01*
X184140423Y-111868216D01*
X184099500Y-112020943D01*
X140000500Y-112020943D01*
X140000500Y-109343982D01*
X174446556Y-109343982D01*
X174446556Y-109456018D01*
X174475553Y-109564237D01*
X174531571Y-109661263D01*
X174610793Y-109740485D01*
X174707819Y-109796503D01*
X174816038Y-109825500D01*
X174816040Y-109825500D01*
X174928072Y-109825500D01*
X174928074Y-109825500D01*
X175036293Y-109796503D01*
X175133319Y-109740485D01*
X175212541Y-109661263D01*
X175268559Y-109564237D01*
X175297556Y-109456018D01*
X175297556Y-109343982D01*
X175268559Y-109235763D01*
X175212541Y-109138737D01*
X175133319Y-109059515D01*
X175036293Y-109003497D01*
X174928074Y-108974500D01*
X174816038Y-108974500D01*
X174707819Y-109003497D01*
X174707816Y-109003498D01*
X174610796Y-109059513D01*
X174610790Y-109059517D01*
X174531573Y-109138734D01*
X174531569Y-109138740D01*
X174475554Y-109235760D01*
X174475553Y-109235763D01*
X174446556Y-109343982D01*
X140000500Y-109343982D01*
X140000500Y-108520943D01*
X176221556Y-108520943D01*
X176221556Y-108679057D01*
X176254097Y-108800500D01*
X176262479Y-108831783D01*
X176262482Y-108831790D01*
X176341531Y-108968709D01*
X176341535Y-108968714D01*
X176341536Y-108968716D01*
X176453340Y-109080520D01*
X176453342Y-109080521D01*
X176453346Y-109080524D01*
X176554181Y-109138740D01*
X176590272Y-109159577D01*
X176742999Y-109200500D01*
X176743001Y-109200500D01*
X176901111Y-109200500D01*
X176901113Y-109200500D01*
X177053840Y-109159577D01*
X177190772Y-109080520D01*
X177302576Y-108968716D01*
X177381633Y-108831784D01*
X177422556Y-108679057D01*
X177422556Y-108520943D01*
X177381633Y-108368216D01*
X177330157Y-108279056D01*
X177302580Y-108231290D01*
X177302574Y-108231282D01*
X177190773Y-108119481D01*
X177190765Y-108119475D01*
X177053846Y-108040426D01*
X177053842Y-108040424D01*
X177053840Y-108040423D01*
X176901113Y-107999500D01*
X176742999Y-107999500D01*
X176590272Y-108040423D01*
X176590265Y-108040426D01*
X176453346Y-108119475D01*
X176453338Y-108119481D01*
X176341537Y-108231282D01*
X176341531Y-108231290D01*
X176262482Y-108368209D01*
X176262479Y-108368216D01*
X176221556Y-108520943D01*
X140000500Y-108520943D01*
X140000500Y-107620943D01*
X189699500Y-107620943D01*
X189699500Y-107779056D01*
X189740423Y-107931783D01*
X189740426Y-107931790D01*
X189819475Y-108068709D01*
X189819479Y-108068714D01*
X189819480Y-108068716D01*
X189931284Y-108180520D01*
X189931286Y-108180521D01*
X189931290Y-108180524D01*
X190019221Y-108231290D01*
X190068216Y-108259577D01*
X190220943Y-108300500D01*
X190220945Y-108300500D01*
X190379055Y-108300500D01*
X190379057Y-108300500D01*
X190531784Y-108259577D01*
X190668716Y-108180520D01*
X190728293Y-108120943D01*
X192399500Y-108120943D01*
X192399500Y-108279057D01*
X192405246Y-108300499D01*
X192440423Y-108431783D01*
X192440426Y-108431790D01*
X192519475Y-108568709D01*
X192519479Y-108568714D01*
X192519480Y-108568716D01*
X192631284Y-108680520D01*
X192631286Y-108680521D01*
X192631290Y-108680524D01*
X192768209Y-108759573D01*
X192768216Y-108759577D01*
X192920943Y-108800500D01*
X192920945Y-108800500D01*
X193079055Y-108800500D01*
X193079057Y-108800500D01*
X193231784Y-108759577D01*
X193368716Y-108680520D01*
X193480520Y-108568716D01*
X193559577Y-108431784D01*
X193600500Y-108279057D01*
X193600500Y-108120943D01*
X193559577Y-107968216D01*
X193538543Y-107931783D01*
X193480524Y-107831290D01*
X193480518Y-107831282D01*
X193368717Y-107719481D01*
X193368709Y-107719475D01*
X193231790Y-107640426D01*
X193231786Y-107640424D01*
X193231784Y-107640423D01*
X193079057Y-107599500D01*
X192920943Y-107599500D01*
X192768216Y-107640423D01*
X192768209Y-107640426D01*
X192631290Y-107719475D01*
X192631282Y-107719481D01*
X192519481Y-107831282D01*
X192519475Y-107831290D01*
X192440426Y-107968209D01*
X192440423Y-107968216D01*
X192399500Y-108120943D01*
X190728293Y-108120943D01*
X190780520Y-108068716D01*
X190784352Y-108062078D01*
X190790855Y-108050816D01*
X190814519Y-108009826D01*
X190859577Y-107931784D01*
X190900500Y-107779057D01*
X190900500Y-107620943D01*
X190859577Y-107468216D01*
X190859573Y-107468209D01*
X190780524Y-107331290D01*
X190780518Y-107331282D01*
X190668717Y-107219481D01*
X190668709Y-107219475D01*
X190531790Y-107140426D01*
X190531786Y-107140424D01*
X190531784Y-107140423D01*
X190379057Y-107099500D01*
X190220943Y-107099500D01*
X190068216Y-107140423D01*
X190068209Y-107140426D01*
X189931290Y-107219475D01*
X189931282Y-107219481D01*
X189819481Y-107331282D01*
X189819475Y-107331290D01*
X189740426Y-107468209D01*
X189740423Y-107468216D01*
X189699500Y-107620943D01*
X140000500Y-107620943D01*
X140000500Y-105243982D01*
X165974500Y-105243982D01*
X165974500Y-105356018D01*
X166003497Y-105464237D01*
X166059515Y-105561263D01*
X166138737Y-105640485D01*
X166235763Y-105696503D01*
X166343982Y-105725500D01*
X166343984Y-105725500D01*
X166456016Y-105725500D01*
X166456018Y-105725500D01*
X166564237Y-105696503D01*
X166660305Y-105641038D01*
X189371556Y-105641038D01*
X189371556Y-105753074D01*
X189400553Y-105861293D01*
X189456571Y-105958319D01*
X189535793Y-106037541D01*
X189632819Y-106093559D01*
X189741038Y-106122556D01*
X189741040Y-106122556D01*
X189853072Y-106122556D01*
X189853074Y-106122556D01*
X189961293Y-106093559D01*
X190058319Y-106037541D01*
X190137541Y-105958319D01*
X190193559Y-105861293D01*
X190222556Y-105753074D01*
X190222556Y-105641038D01*
X190193559Y-105532819D01*
X190137541Y-105435793D01*
X190122691Y-105420943D01*
X194899500Y-105420943D01*
X194899500Y-105579057D01*
X194930970Y-105696502D01*
X194940423Y-105731783D01*
X194940426Y-105731790D01*
X195019475Y-105868709D01*
X195019479Y-105868714D01*
X195019480Y-105868716D01*
X195131284Y-105980520D01*
X195131286Y-105980521D01*
X195131290Y-105980524D01*
X195230043Y-106037538D01*
X195268216Y-106059577D01*
X195420943Y-106100500D01*
X195420945Y-106100500D01*
X195579055Y-106100500D01*
X195579057Y-106100500D01*
X195731784Y-106059577D01*
X195868716Y-105980520D01*
X195980520Y-105868716D01*
X196059577Y-105731784D01*
X196100500Y-105579057D01*
X196100500Y-105420943D01*
X196059577Y-105268216D01*
X195983106Y-105135763D01*
X195980524Y-105131290D01*
X195980518Y-105131282D01*
X195868717Y-105019481D01*
X195868709Y-105019475D01*
X195731790Y-104940426D01*
X195731786Y-104940424D01*
X195731784Y-104940423D01*
X195579057Y-104899500D01*
X195420943Y-104899500D01*
X195268216Y-104940423D01*
X195268209Y-104940426D01*
X195131290Y-105019475D01*
X195131282Y-105019481D01*
X195019481Y-105131282D01*
X195019475Y-105131290D01*
X194940426Y-105268209D01*
X194940423Y-105268216D01*
X194899500Y-105420943D01*
X190122691Y-105420943D01*
X190058319Y-105356571D01*
X189961293Y-105300553D01*
X189853074Y-105271556D01*
X189741038Y-105271556D01*
X189632819Y-105300553D01*
X189632816Y-105300554D01*
X189535796Y-105356569D01*
X189535790Y-105356573D01*
X189456573Y-105435790D01*
X189456569Y-105435796D01*
X189400554Y-105532816D01*
X189400553Y-105532819D01*
X189371556Y-105641038D01*
X166660305Y-105641038D01*
X166661263Y-105640485D01*
X166740485Y-105561263D01*
X166796503Y-105464237D01*
X166825500Y-105356018D01*
X166825500Y-105243982D01*
X166796503Y-105135763D01*
X166740485Y-105038737D01*
X166661263Y-104959515D01*
X166564237Y-104903497D01*
X166456018Y-104874500D01*
X166343982Y-104874500D01*
X166235763Y-104903497D01*
X166235760Y-104903498D01*
X166138740Y-104959513D01*
X166138734Y-104959517D01*
X166059517Y-105038734D01*
X166059513Y-105038740D01*
X166003498Y-105135760D01*
X166003497Y-105135763D01*
X165974500Y-105243982D01*
X140000500Y-105243982D01*
X140000500Y-103994943D01*
X164799500Y-103994943D01*
X164799500Y-104153057D01*
X164810353Y-104193559D01*
X164840423Y-104305783D01*
X164840426Y-104305790D01*
X164919475Y-104442709D01*
X164919479Y-104442714D01*
X164919480Y-104442716D01*
X165031284Y-104554520D01*
X165031286Y-104554521D01*
X165031290Y-104554524D01*
X165168209Y-104633573D01*
X165168216Y-104633577D01*
X165320943Y-104674500D01*
X165320945Y-104674500D01*
X165479055Y-104674500D01*
X165479057Y-104674500D01*
X165631784Y-104633577D01*
X165768716Y-104554520D01*
X165880520Y-104442716D01*
X165959577Y-104305784D01*
X166000500Y-104153057D01*
X166000500Y-103994943D01*
X165959577Y-103842216D01*
X165901164Y-103741040D01*
X165901163Y-103741038D01*
X177271556Y-103741038D01*
X177271556Y-103853074D01*
X177300553Y-103961293D01*
X177356571Y-104058319D01*
X177435793Y-104137541D01*
X177532819Y-104193559D01*
X177641038Y-104222556D01*
X177641040Y-104222556D01*
X177753072Y-104222556D01*
X177753074Y-104222556D01*
X177861293Y-104193559D01*
X177958319Y-104137541D01*
X178037541Y-104058319D01*
X178093559Y-103961293D01*
X178122556Y-103853074D01*
X178122556Y-103741038D01*
X178117172Y-103720943D01*
X183799500Y-103720943D01*
X183799500Y-103879056D01*
X183840423Y-104031783D01*
X183840426Y-104031790D01*
X183919475Y-104168709D01*
X183919479Y-104168714D01*
X183919480Y-104168716D01*
X184031284Y-104280520D01*
X184031286Y-104280521D01*
X184031290Y-104280524D01*
X184075053Y-104305790D01*
X184168216Y-104359577D01*
X184320943Y-104400500D01*
X184320945Y-104400500D01*
X184479055Y-104400500D01*
X184479057Y-104400500D01*
X184631784Y-104359577D01*
X184768716Y-104280520D01*
X184828293Y-104220943D01*
X195799500Y-104220943D01*
X195799500Y-104379057D01*
X195816558Y-104442716D01*
X195840423Y-104531783D01*
X195840426Y-104531790D01*
X195919475Y-104668709D01*
X195919479Y-104668714D01*
X195919480Y-104668716D01*
X196031284Y-104780520D01*
X196031286Y-104780521D01*
X196031290Y-104780524D01*
X196168209Y-104859573D01*
X196168216Y-104859577D01*
X196320943Y-104900500D01*
X196320945Y-104900500D01*
X196479055Y-104900500D01*
X196479057Y-104900500D01*
X196631784Y-104859577D01*
X196768716Y-104780520D01*
X196880520Y-104668716D01*
X196959577Y-104531784D01*
X197000500Y-104379057D01*
X197000500Y-104220943D01*
X196959577Y-104068216D01*
X196938543Y-104031783D01*
X196880524Y-103931290D01*
X196880518Y-103931282D01*
X196768717Y-103819481D01*
X196768709Y-103819475D01*
X196631790Y-103740426D01*
X196631786Y-103740424D01*
X196631784Y-103740423D01*
X196479057Y-103699500D01*
X196320943Y-103699500D01*
X196168216Y-103740423D01*
X196168209Y-103740426D01*
X196031290Y-103819475D01*
X196031282Y-103819481D01*
X195919481Y-103931282D01*
X195919475Y-103931290D01*
X195840426Y-104068209D01*
X195840423Y-104068216D01*
X195799500Y-104220943D01*
X184828293Y-104220943D01*
X184880520Y-104168716D01*
X184889561Y-104153057D01*
X184890855Y-104150816D01*
X184938547Y-104068209D01*
X184959577Y-104031784D01*
X185000500Y-103879057D01*
X185000500Y-103720943D01*
X184959577Y-103568216D01*
X184959573Y-103568209D01*
X184880524Y-103431290D01*
X184880518Y-103431282D01*
X184768717Y-103319481D01*
X184768709Y-103319475D01*
X184631790Y-103240426D01*
X184631786Y-103240424D01*
X184631784Y-103240423D01*
X184479057Y-103199500D01*
X184320943Y-103199500D01*
X184168216Y-103240423D01*
X184168209Y-103240426D01*
X184031290Y-103319475D01*
X184031282Y-103319481D01*
X183919481Y-103431282D01*
X183919475Y-103431290D01*
X183840426Y-103568209D01*
X183840423Y-103568216D01*
X183799500Y-103720943D01*
X178117172Y-103720943D01*
X178093559Y-103632819D01*
X178037541Y-103535793D01*
X177958319Y-103456571D01*
X177861293Y-103400553D01*
X177753074Y-103371556D01*
X177641038Y-103371556D01*
X177532819Y-103400553D01*
X177532816Y-103400554D01*
X177435796Y-103456569D01*
X177435790Y-103456573D01*
X177356573Y-103535790D01*
X177356569Y-103535796D01*
X177300554Y-103632816D01*
X177300553Y-103632819D01*
X177271556Y-103741038D01*
X165901163Y-103741038D01*
X165880522Y-103705287D01*
X165880518Y-103705282D01*
X165768717Y-103593481D01*
X165768709Y-103593475D01*
X165631790Y-103514426D01*
X165631786Y-103514424D01*
X165631784Y-103514423D01*
X165479057Y-103473500D01*
X165320943Y-103473500D01*
X165168216Y-103514423D01*
X165168209Y-103514426D01*
X165031290Y-103593475D01*
X165031282Y-103593481D01*
X164919481Y-103705282D01*
X164919475Y-103705290D01*
X164840426Y-103842209D01*
X164840423Y-103842216D01*
X164799500Y-103994943D01*
X140000500Y-103994943D01*
X140000500Y-103020943D01*
X190899500Y-103020943D01*
X190899500Y-103179057D01*
X190937127Y-103319481D01*
X190940423Y-103331783D01*
X190940426Y-103331790D01*
X191019475Y-103468709D01*
X191019479Y-103468714D01*
X191019480Y-103468716D01*
X191131284Y-103580520D01*
X191131286Y-103580521D01*
X191131290Y-103580524D01*
X191153733Y-103593481D01*
X191268216Y-103659577D01*
X191420943Y-103700500D01*
X191420945Y-103700500D01*
X191579055Y-103700500D01*
X191579057Y-103700500D01*
X191731784Y-103659577D01*
X191868716Y-103580520D01*
X191980520Y-103468716D01*
X192059577Y-103331784D01*
X192100500Y-103179057D01*
X192100500Y-103020943D01*
X192059577Y-102868216D01*
X192032285Y-102820945D01*
X192032284Y-102820943D01*
X205299500Y-102820943D01*
X205299500Y-102979057D01*
X205310724Y-103020943D01*
X205340423Y-103131783D01*
X205340426Y-103131790D01*
X205419475Y-103268709D01*
X205419479Y-103268714D01*
X205419480Y-103268716D01*
X205531284Y-103380520D01*
X205531286Y-103380521D01*
X205531290Y-103380524D01*
X205619221Y-103431290D01*
X205668216Y-103459577D01*
X205820943Y-103500500D01*
X205820945Y-103500500D01*
X205979055Y-103500500D01*
X205979057Y-103500500D01*
X206131784Y-103459577D01*
X206268716Y-103380520D01*
X206380520Y-103268716D01*
X206459577Y-103131784D01*
X206500500Y-102979057D01*
X206500500Y-102820943D01*
X206459577Y-102668216D01*
X206431437Y-102619475D01*
X206380524Y-102531290D01*
X206380518Y-102531282D01*
X206268717Y-102419481D01*
X206268709Y-102419475D01*
X206131790Y-102340426D01*
X206131786Y-102340424D01*
X206131784Y-102340423D01*
X205979057Y-102299500D01*
X205820943Y-102299500D01*
X205668216Y-102340423D01*
X205668209Y-102340426D01*
X205531290Y-102419475D01*
X205531282Y-102419481D01*
X205419481Y-102531282D01*
X205419475Y-102531290D01*
X205340426Y-102668209D01*
X205340423Y-102668216D01*
X205299500Y-102820943D01*
X192032284Y-102820943D01*
X191980522Y-102731287D01*
X191980518Y-102731282D01*
X191868717Y-102619481D01*
X191868709Y-102619475D01*
X191731790Y-102540426D01*
X191731786Y-102540424D01*
X191731784Y-102540423D01*
X191579057Y-102499500D01*
X191420943Y-102499500D01*
X191268216Y-102540423D01*
X191268209Y-102540426D01*
X191131290Y-102619475D01*
X191131282Y-102619481D01*
X191019481Y-102731282D01*
X191019475Y-102731290D01*
X190940426Y-102868209D01*
X190940426Y-102868210D01*
X190940423Y-102868216D01*
X190899500Y-103020943D01*
X140000500Y-103020943D01*
X140000500Y-100919943D01*
X176599500Y-100919943D01*
X176599500Y-101078056D01*
X176640423Y-101230783D01*
X176640426Y-101230790D01*
X176719475Y-101367709D01*
X176719479Y-101367714D01*
X176719480Y-101367716D01*
X176831284Y-101479520D01*
X176831286Y-101479521D01*
X176831290Y-101479524D01*
X176968209Y-101558573D01*
X176968216Y-101558577D01*
X177120943Y-101599500D01*
X177120945Y-101599500D01*
X177279055Y-101599500D01*
X177279057Y-101599500D01*
X177431784Y-101558577D01*
X177568716Y-101479520D01*
X177680520Y-101367716D01*
X177759577Y-101230784D01*
X177800500Y-101078057D01*
X177800500Y-100919943D01*
X177759577Y-100767216D01*
X177718139Y-100695442D01*
X177680524Y-100630290D01*
X177680518Y-100630282D01*
X177568717Y-100518481D01*
X177568709Y-100518475D01*
X177431790Y-100439426D01*
X177431786Y-100439424D01*
X177431784Y-100439423D01*
X177279057Y-100398500D01*
X177120943Y-100398500D01*
X176968216Y-100439423D01*
X176968209Y-100439426D01*
X176831290Y-100518475D01*
X176831282Y-100518481D01*
X176719481Y-100630282D01*
X176719475Y-100630290D01*
X176640426Y-100767209D01*
X176640423Y-100767216D01*
X176599500Y-100919943D01*
X140000500Y-100919943D01*
X140000500Y-100135865D01*
X179562212Y-100135865D01*
X179562212Y-100293979D01*
X179601185Y-100439426D01*
X179603135Y-100446705D01*
X179603138Y-100446712D01*
X179682187Y-100583631D01*
X179682191Y-100583636D01*
X179682192Y-100583638D01*
X179793996Y-100695442D01*
X179793998Y-100695443D01*
X179794002Y-100695446D01*
X179918301Y-100767209D01*
X179930928Y-100774499D01*
X180083655Y-100815422D01*
X180083657Y-100815422D01*
X180241767Y-100815422D01*
X180241769Y-100815422D01*
X180394496Y-100774499D01*
X180531428Y-100695442D01*
X180643232Y-100583638D01*
X180722289Y-100446706D01*
X180763212Y-100293979D01*
X180763212Y-100135865D01*
X180722289Y-99983138D01*
X180699684Y-99943984D01*
X180699683Y-99943982D01*
X192874500Y-99943982D01*
X192874500Y-100056018D01*
X192903497Y-100164237D01*
X192959515Y-100261263D01*
X193038737Y-100340485D01*
X193135763Y-100396503D01*
X193243982Y-100425500D01*
X193243984Y-100425500D01*
X193356016Y-100425500D01*
X193356018Y-100425500D01*
X193464237Y-100396503D01*
X193561263Y-100340485D01*
X193640485Y-100261263D01*
X193696503Y-100164237D01*
X193725500Y-100056018D01*
X193725500Y-99943982D01*
X193696503Y-99835763D01*
X193687947Y-99820943D01*
X196899500Y-99820943D01*
X196899500Y-99979057D01*
X196932041Y-100100500D01*
X196940423Y-100131783D01*
X196940426Y-100131790D01*
X197019475Y-100268709D01*
X197019479Y-100268714D01*
X197019480Y-100268716D01*
X197131284Y-100380520D01*
X197131286Y-100380521D01*
X197131290Y-100380524D01*
X197245933Y-100446712D01*
X197268216Y-100459577D01*
X197420943Y-100500500D01*
X197420945Y-100500500D01*
X197579055Y-100500500D01*
X197579057Y-100500500D01*
X197731784Y-100459577D01*
X197868716Y-100380520D01*
X197980520Y-100268716D01*
X198059577Y-100131784D01*
X198100500Y-99979057D01*
X198100500Y-99820943D01*
X198059577Y-99668216D01*
X198055580Y-99661293D01*
X197980524Y-99531290D01*
X197980518Y-99531282D01*
X197868717Y-99419481D01*
X197868709Y-99419475D01*
X197731790Y-99340426D01*
X197731786Y-99340424D01*
X197731784Y-99340423D01*
X197579057Y-99299500D01*
X197420943Y-99299500D01*
X197268216Y-99340423D01*
X197268209Y-99340426D01*
X197131290Y-99419475D01*
X197131282Y-99419481D01*
X197019481Y-99531282D01*
X197019475Y-99531290D01*
X196940426Y-99668209D01*
X196940423Y-99668216D01*
X196899500Y-99820943D01*
X193687947Y-99820943D01*
X193640485Y-99738737D01*
X193561263Y-99659515D01*
X193464237Y-99603497D01*
X193356018Y-99574500D01*
X193243982Y-99574500D01*
X193135763Y-99603497D01*
X193135760Y-99603498D01*
X193038740Y-99659513D01*
X193038734Y-99659517D01*
X192959517Y-99738734D01*
X192959513Y-99738740D01*
X192903498Y-99835760D01*
X192903497Y-99835763D01*
X192874500Y-99943982D01*
X180699683Y-99943982D01*
X180643236Y-99846212D01*
X180643230Y-99846204D01*
X180531429Y-99734403D01*
X180531421Y-99734397D01*
X180394502Y-99655348D01*
X180394498Y-99655346D01*
X180394496Y-99655345D01*
X180241769Y-99614422D01*
X180083655Y-99614422D01*
X179930928Y-99655345D01*
X179930921Y-99655348D01*
X179794002Y-99734397D01*
X179793994Y-99734403D01*
X179682193Y-99846204D01*
X179682187Y-99846212D01*
X179603138Y-99983131D01*
X179603135Y-99983138D01*
X179562212Y-100135865D01*
X140000500Y-100135865D01*
X140000500Y-99420943D01*
X176399500Y-99420943D01*
X176399500Y-99579057D01*
X176419942Y-99655345D01*
X176440423Y-99731783D01*
X176440426Y-99731790D01*
X176519475Y-99868709D01*
X176519479Y-99868714D01*
X176519480Y-99868716D01*
X176631284Y-99980520D01*
X176631286Y-99980521D01*
X176631290Y-99980524D01*
X176768209Y-100059573D01*
X176768216Y-100059577D01*
X176920943Y-100100500D01*
X176920945Y-100100500D01*
X177079055Y-100100500D01*
X177079057Y-100100500D01*
X177231784Y-100059577D01*
X177368716Y-99980520D01*
X177480520Y-99868716D01*
X177559577Y-99731784D01*
X177600500Y-99579057D01*
X177600500Y-99441038D01*
X191571556Y-99441038D01*
X191571556Y-99553074D01*
X191600553Y-99661293D01*
X191656571Y-99758319D01*
X191735793Y-99837541D01*
X191832819Y-99893559D01*
X191941038Y-99922556D01*
X191941040Y-99922556D01*
X192053072Y-99922556D01*
X192053074Y-99922556D01*
X192161293Y-99893559D01*
X192258319Y-99837541D01*
X192337541Y-99758319D01*
X192393559Y-99661293D01*
X192422556Y-99553074D01*
X192422556Y-99441038D01*
X192393559Y-99332819D01*
X192337541Y-99235793D01*
X192258319Y-99156571D01*
X192161293Y-99100553D01*
X192053074Y-99071556D01*
X191941038Y-99071556D01*
X191832819Y-99100553D01*
X191832816Y-99100554D01*
X191735796Y-99156569D01*
X191735790Y-99156573D01*
X191656573Y-99235790D01*
X191656569Y-99235796D01*
X191600554Y-99332816D01*
X191600553Y-99332819D01*
X191571556Y-99441038D01*
X177600500Y-99441038D01*
X177600500Y-99420943D01*
X177559577Y-99268216D01*
X177559573Y-99268209D01*
X177480524Y-99131290D01*
X177480518Y-99131282D01*
X177368717Y-99019481D01*
X177368709Y-99019475D01*
X177231790Y-98940426D01*
X177231786Y-98940424D01*
X177231784Y-98940423D01*
X177079057Y-98899500D01*
X176920943Y-98899500D01*
X176768216Y-98940423D01*
X176768209Y-98940426D01*
X176631290Y-99019475D01*
X176631282Y-99019481D01*
X176519481Y-99131282D01*
X176519475Y-99131290D01*
X176440426Y-99268209D01*
X176440423Y-99268216D01*
X176399500Y-99420943D01*
X140000500Y-99420943D01*
X140000500Y-97820943D01*
X196599500Y-97820943D01*
X196599500Y-97979056D01*
X196640423Y-98131783D01*
X196640426Y-98131790D01*
X196719475Y-98268709D01*
X196719479Y-98268714D01*
X196719480Y-98268716D01*
X196831284Y-98380520D01*
X196831286Y-98380521D01*
X196831290Y-98380524D01*
X196968209Y-98459573D01*
X196968216Y-98459577D01*
X197120943Y-98500500D01*
X197120945Y-98500500D01*
X197279055Y-98500500D01*
X197279057Y-98500500D01*
X197431784Y-98459577D01*
X197568716Y-98380520D01*
X197680520Y-98268716D01*
X197759577Y-98131784D01*
X197800500Y-97979057D01*
X197800500Y-97820943D01*
X197759577Y-97668216D01*
X197759573Y-97668209D01*
X197680524Y-97531290D01*
X197680518Y-97531282D01*
X197568717Y-97419481D01*
X197568709Y-97419475D01*
X197431790Y-97340426D01*
X197431786Y-97340424D01*
X197431784Y-97340423D01*
X197279057Y-97299500D01*
X197120943Y-97299500D01*
X196968216Y-97340423D01*
X196968209Y-97340426D01*
X196831290Y-97419475D01*
X196831282Y-97419481D01*
X196719481Y-97531282D01*
X196719475Y-97531290D01*
X196640426Y-97668209D01*
X196640423Y-97668216D01*
X196599500Y-97820943D01*
X140000500Y-97820943D01*
X140000500Y-95641038D01*
X177071556Y-95641038D01*
X177071556Y-95753074D01*
X177100553Y-95861293D01*
X177156571Y-95958319D01*
X177235793Y-96037541D01*
X177332819Y-96093559D01*
X177441038Y-96122556D01*
X177441040Y-96122556D01*
X177553072Y-96122556D01*
X177553074Y-96122556D01*
X177661293Y-96093559D01*
X177758319Y-96037541D01*
X177837541Y-95958319D01*
X177893559Y-95861293D01*
X177922556Y-95753074D01*
X177922556Y-95641038D01*
X177893559Y-95532819D01*
X177837541Y-95435793D01*
X177822691Y-95420943D01*
X184599500Y-95420943D01*
X184599500Y-95579057D01*
X184638642Y-95725135D01*
X184640423Y-95731783D01*
X184640426Y-95731790D01*
X184719475Y-95868709D01*
X184719479Y-95868714D01*
X184719480Y-95868716D01*
X184831284Y-95980520D01*
X184831286Y-95980521D01*
X184831290Y-95980524D01*
X184956952Y-96053074D01*
X184968216Y-96059577D01*
X185120943Y-96100500D01*
X185120945Y-96100500D01*
X185279055Y-96100500D01*
X185279057Y-96100500D01*
X185431784Y-96059577D01*
X185568716Y-95980520D01*
X185608198Y-95941038D01*
X191271556Y-95941038D01*
X191271556Y-96053074D01*
X191300553Y-96161293D01*
X191356571Y-96258319D01*
X191435793Y-96337541D01*
X191532819Y-96393559D01*
X191641038Y-96422556D01*
X191641040Y-96422556D01*
X191753072Y-96422556D01*
X191753074Y-96422556D01*
X191861293Y-96393559D01*
X191958319Y-96337541D01*
X192037541Y-96258319D01*
X192093559Y-96161293D01*
X192122556Y-96053074D01*
X192122556Y-95941038D01*
X192093559Y-95832819D01*
X192037541Y-95735793D01*
X191958319Y-95656571D01*
X191861293Y-95600553D01*
X191753074Y-95571556D01*
X191641038Y-95571556D01*
X191532819Y-95600553D01*
X191532816Y-95600554D01*
X191435796Y-95656569D01*
X191435790Y-95656573D01*
X191356573Y-95735790D01*
X191356569Y-95735796D01*
X191300554Y-95832816D01*
X191300553Y-95832819D01*
X191271556Y-95941038D01*
X185608198Y-95941038D01*
X185680520Y-95868716D01*
X185759577Y-95731784D01*
X185800500Y-95579057D01*
X185800500Y-95420943D01*
X185759577Y-95268216D01*
X185732285Y-95220945D01*
X185732284Y-95220943D01*
X199599500Y-95220943D01*
X199599500Y-95379057D01*
X199640289Y-95531282D01*
X199640423Y-95531783D01*
X199640426Y-95531790D01*
X199719475Y-95668709D01*
X199719479Y-95668714D01*
X199719480Y-95668716D01*
X199831284Y-95780520D01*
X199831286Y-95780521D01*
X199831290Y-95780524D01*
X199921864Y-95832816D01*
X199968216Y-95859577D01*
X200120943Y-95900500D01*
X200120945Y-95900500D01*
X200279055Y-95900500D01*
X200279057Y-95900500D01*
X200431784Y-95859577D01*
X200498701Y-95820943D01*
X204499500Y-95820943D01*
X204499500Y-95979057D01*
X204537951Y-96122556D01*
X204540423Y-96131783D01*
X204540426Y-96131790D01*
X204619475Y-96268709D01*
X204619479Y-96268714D01*
X204619480Y-96268716D01*
X204731284Y-96380520D01*
X204731286Y-96380521D01*
X204731290Y-96380524D01*
X204753868Y-96393559D01*
X204868216Y-96459577D01*
X205020943Y-96500500D01*
X205020945Y-96500500D01*
X205179055Y-96500500D01*
X205179057Y-96500500D01*
X205331784Y-96459577D01*
X205468716Y-96380520D01*
X205580520Y-96268716D01*
X205659577Y-96131784D01*
X205700500Y-95979057D01*
X205700500Y-95820943D01*
X205659577Y-95668216D01*
X205608101Y-95579056D01*
X205580524Y-95531290D01*
X205580518Y-95531282D01*
X205468717Y-95419481D01*
X205468709Y-95419475D01*
X205331790Y-95340426D01*
X205331786Y-95340424D01*
X205331784Y-95340423D01*
X205179057Y-95299500D01*
X205020943Y-95299500D01*
X204868216Y-95340423D01*
X204868209Y-95340426D01*
X204731290Y-95419475D01*
X204731282Y-95419481D01*
X204619481Y-95531282D01*
X204619475Y-95531290D01*
X204540426Y-95668209D01*
X204540423Y-95668216D01*
X204499500Y-95820943D01*
X200498701Y-95820943D01*
X200568716Y-95780520D01*
X200680520Y-95668716D01*
X200759577Y-95531784D01*
X200800500Y-95379057D01*
X200800500Y-95220943D01*
X200759577Y-95068216D01*
X200731437Y-95019475D01*
X200680524Y-94931290D01*
X200680518Y-94931282D01*
X200568717Y-94819481D01*
X200568709Y-94819475D01*
X200431790Y-94740426D01*
X200431786Y-94740424D01*
X200431784Y-94740423D01*
X200279057Y-94699500D01*
X200120943Y-94699500D01*
X199968216Y-94740423D01*
X199968209Y-94740426D01*
X199831290Y-94819475D01*
X199831282Y-94819481D01*
X199719481Y-94931282D01*
X199719475Y-94931290D01*
X199640426Y-95068209D01*
X199640423Y-95068216D01*
X199599500Y-95220943D01*
X185732284Y-95220943D01*
X185680522Y-95131287D01*
X185680518Y-95131282D01*
X185568717Y-95019481D01*
X185568709Y-95019475D01*
X185431790Y-94940426D01*
X185431786Y-94940424D01*
X185431784Y-94940423D01*
X185279057Y-94899500D01*
X185120943Y-94899500D01*
X184968216Y-94940423D01*
X184968209Y-94940426D01*
X184831290Y-95019475D01*
X184831282Y-95019481D01*
X184719481Y-95131282D01*
X184719475Y-95131290D01*
X184640426Y-95268209D01*
X184640426Y-95268210D01*
X184640423Y-95268216D01*
X184599500Y-95420943D01*
X177822691Y-95420943D01*
X177758319Y-95356571D01*
X177661293Y-95300553D01*
X177553074Y-95271556D01*
X177441038Y-95271556D01*
X177332819Y-95300553D01*
X177332816Y-95300554D01*
X177235796Y-95356569D01*
X177235790Y-95356573D01*
X177156573Y-95435790D01*
X177156569Y-95435796D01*
X177100554Y-95532816D01*
X177100553Y-95532819D01*
X177071556Y-95641038D01*
X140000500Y-95641038D01*
X140000500Y-92741038D01*
X180371556Y-92741038D01*
X180371556Y-92853074D01*
X180400553Y-92961293D01*
X180456571Y-93058319D01*
X180535793Y-93137541D01*
X180632819Y-93193559D01*
X180741038Y-93222556D01*
X180741040Y-93222556D01*
X180853072Y-93222556D01*
X180853074Y-93222556D01*
X180961293Y-93193559D01*
X181058319Y-93137541D01*
X181137541Y-93058319D01*
X181193559Y-92961293D01*
X181222556Y-92853074D01*
X181222556Y-92741038D01*
X181193559Y-92632819D01*
X181137541Y-92535793D01*
X181058319Y-92456571D01*
X180961293Y-92400553D01*
X180853074Y-92371556D01*
X180741038Y-92371556D01*
X180632819Y-92400553D01*
X180632816Y-92400554D01*
X180535796Y-92456569D01*
X180535790Y-92456573D01*
X180456573Y-92535790D01*
X180456569Y-92535796D01*
X180400554Y-92632816D01*
X180400553Y-92632819D01*
X180371556Y-92741038D01*
X140000500Y-92741038D01*
X140000500Y-92020943D01*
X181621556Y-92020943D01*
X181621556Y-92179056D01*
X181662479Y-92331783D01*
X181662482Y-92331790D01*
X181741531Y-92468709D01*
X181741535Y-92468714D01*
X181741536Y-92468716D01*
X181853340Y-92580520D01*
X181853342Y-92580521D01*
X181853346Y-92580524D01*
X181943920Y-92632816D01*
X181990272Y-92659577D01*
X182142999Y-92700500D01*
X182143001Y-92700500D01*
X182301111Y-92700500D01*
X182301113Y-92700500D01*
X182453840Y-92659577D01*
X182590772Y-92580520D01*
X182702576Y-92468716D01*
X182781633Y-92331784D01*
X182822556Y-92179057D01*
X182822556Y-92020943D01*
X182781633Y-91868216D01*
X182781629Y-91868209D01*
X182702580Y-91731290D01*
X182702574Y-91731282D01*
X182590773Y-91619481D01*
X182590765Y-91619475D01*
X182453846Y-91540426D01*
X182453842Y-91540424D01*
X182453840Y-91540423D01*
X182301113Y-91499500D01*
X182142999Y-91499500D01*
X181990272Y-91540423D01*
X181990265Y-91540426D01*
X181853346Y-91619475D01*
X181853338Y-91619481D01*
X181741537Y-91731282D01*
X181741531Y-91731290D01*
X181662482Y-91868209D01*
X181662479Y-91868216D01*
X181621556Y-92020943D01*
X140000500Y-92020943D01*
X140000500Y-85002561D01*
X140000606Y-84997437D01*
X140008018Y-84818234D01*
X141300000Y-84818234D01*
X141300000Y-85181765D01*
X141335632Y-85543556D01*
X141406550Y-85900090D01*
X141406553Y-85900101D01*
X141512086Y-86247997D01*
X141651207Y-86583864D01*
X141651209Y-86583869D01*
X141822570Y-86904462D01*
X141822581Y-86904480D01*
X142024551Y-87206750D01*
X142211678Y-87434765D01*
X142211679Y-87434766D01*
X143705747Y-85940697D01*
X143779588Y-86042330D01*
X143957670Y-86220412D01*
X144059301Y-86294251D01*
X142565232Y-87788319D01*
X142565233Y-87788320D01*
X142793249Y-87975448D01*
X143095519Y-88177418D01*
X143095537Y-88177429D01*
X143416130Y-88348790D01*
X143416135Y-88348792D01*
X143752002Y-88487913D01*
X144099898Y-88593446D01*
X144099909Y-88593449D01*
X144456443Y-88664367D01*
X144818234Y-88700000D01*
X145181766Y-88700000D01*
X145543556Y-88664367D01*
X145900090Y-88593449D01*
X145900101Y-88593446D01*
X146247997Y-88487913D01*
X146583864Y-88348792D01*
X146583869Y-88348790D01*
X146904462Y-88177429D01*
X146904480Y-88177418D01*
X147206736Y-87975457D01*
X147206750Y-87975447D01*
X147434765Y-87788320D01*
X147434766Y-87788319D01*
X145940698Y-86294251D01*
X146042330Y-86220412D01*
X146220412Y-86042330D01*
X146294251Y-85940698D01*
X147788319Y-87434766D01*
X147788320Y-87434765D01*
X147975447Y-87206750D01*
X147975457Y-87206736D01*
X148177418Y-86904480D01*
X148177429Y-86904462D01*
X148348790Y-86583869D01*
X148348792Y-86583864D01*
X148487913Y-86247997D01*
X148593446Y-85900101D01*
X148593449Y-85900090D01*
X148664282Y-85543982D01*
X165274500Y-85543982D01*
X165274500Y-85656018D01*
X165303497Y-85764237D01*
X165359515Y-85861263D01*
X165438737Y-85940485D01*
X165535763Y-85996503D01*
X165643982Y-86025500D01*
X165643984Y-86025500D01*
X165756016Y-86025500D01*
X165756018Y-86025500D01*
X165864237Y-85996503D01*
X165961263Y-85940485D01*
X165980710Y-85921038D01*
X177201556Y-85921038D01*
X177201556Y-86033074D01*
X177230553Y-86141293D01*
X177286571Y-86238319D01*
X177365793Y-86317541D01*
X177462819Y-86373559D01*
X177571038Y-86402556D01*
X177571040Y-86402556D01*
X177683072Y-86402556D01*
X177683074Y-86402556D01*
X177791293Y-86373559D01*
X177888319Y-86317541D01*
X177967541Y-86238319D01*
X178023559Y-86141293D01*
X178052556Y-86033074D01*
X178052556Y-85921038D01*
X178023559Y-85812819D01*
X177967541Y-85715793D01*
X177888319Y-85636571D01*
X177791293Y-85580553D01*
X177683074Y-85551556D01*
X177571038Y-85551556D01*
X177462819Y-85580553D01*
X177462816Y-85580554D01*
X177365796Y-85636569D01*
X177365790Y-85636573D01*
X177286573Y-85715790D01*
X177286569Y-85715796D01*
X177230554Y-85812816D01*
X177230553Y-85812819D01*
X177201556Y-85921038D01*
X165980710Y-85921038D01*
X166040485Y-85861263D01*
X166040826Y-85860670D01*
X166046463Y-85850910D01*
X166079574Y-85793559D01*
X166096503Y-85764237D01*
X166125500Y-85656018D01*
X166125500Y-85543982D01*
X166096503Y-85435763D01*
X166041813Y-85341038D01*
X188671556Y-85341038D01*
X188671556Y-85453074D01*
X188700553Y-85561293D01*
X188756571Y-85658319D01*
X188835793Y-85737541D01*
X188932819Y-85793559D01*
X189041038Y-85822556D01*
X189041040Y-85822556D01*
X189153072Y-85822556D01*
X189153074Y-85822556D01*
X189261293Y-85793559D01*
X189358319Y-85737541D01*
X189437541Y-85658319D01*
X189493559Y-85561293D01*
X189522556Y-85453074D01*
X189522556Y-85341038D01*
X189493559Y-85232819D01*
X189437541Y-85135793D01*
X189358319Y-85056571D01*
X189261293Y-85000553D01*
X189153074Y-84971556D01*
X189041038Y-84971556D01*
X188932819Y-85000553D01*
X188932816Y-85000554D01*
X188835796Y-85056569D01*
X188835790Y-85056573D01*
X188756573Y-85135790D01*
X188756569Y-85135796D01*
X188700554Y-85232816D01*
X188700553Y-85232819D01*
X188671556Y-85341038D01*
X166041813Y-85341038D01*
X166040485Y-85338737D01*
X165961263Y-85259515D01*
X165864237Y-85203497D01*
X165756018Y-85174500D01*
X165643982Y-85174500D01*
X165535763Y-85203497D01*
X165535760Y-85203498D01*
X165438740Y-85259513D01*
X165438734Y-85259517D01*
X165359517Y-85338734D01*
X165359513Y-85338740D01*
X165303498Y-85435760D01*
X165303497Y-85435763D01*
X165274500Y-85543982D01*
X148664282Y-85543982D01*
X148664367Y-85543556D01*
X148666323Y-85523701D01*
X148700000Y-85181765D01*
X148700000Y-84818234D01*
X201300000Y-84818234D01*
X201300000Y-85181765D01*
X201335632Y-85543556D01*
X201406550Y-85900090D01*
X201406553Y-85900101D01*
X201512086Y-86247997D01*
X201651207Y-86583864D01*
X201651209Y-86583869D01*
X201822570Y-86904462D01*
X201822581Y-86904480D01*
X202024551Y-87206750D01*
X202211678Y-87434765D01*
X202211679Y-87434766D01*
X203705747Y-85940697D01*
X203779588Y-86042330D01*
X203957670Y-86220412D01*
X204059301Y-86294251D01*
X202565232Y-87788319D01*
X202565233Y-87788320D01*
X202793249Y-87975448D01*
X203095519Y-88177418D01*
X203095537Y-88177429D01*
X203416130Y-88348790D01*
X203416135Y-88348792D01*
X203752002Y-88487913D01*
X204099898Y-88593446D01*
X204099909Y-88593449D01*
X204456443Y-88664367D01*
X204818234Y-88700000D01*
X205181766Y-88700000D01*
X205543556Y-88664367D01*
X205900090Y-88593449D01*
X205900101Y-88593446D01*
X206247997Y-88487913D01*
X206583864Y-88348792D01*
X206583869Y-88348790D01*
X206904462Y-88177429D01*
X206904480Y-88177418D01*
X207206736Y-87975457D01*
X207206750Y-87975447D01*
X207434765Y-87788320D01*
X207434766Y-87788319D01*
X205940698Y-86294251D01*
X206042330Y-86220412D01*
X206220412Y-86042330D01*
X206294251Y-85940698D01*
X207788319Y-87434766D01*
X207788320Y-87434765D01*
X207975447Y-87206750D01*
X207975457Y-87206736D01*
X208177418Y-86904480D01*
X208177429Y-86904462D01*
X208348790Y-86583869D01*
X208348792Y-86583864D01*
X208487913Y-86247997D01*
X208593446Y-85900101D01*
X208593449Y-85900090D01*
X208664367Y-85543556D01*
X208700000Y-85181765D01*
X208700000Y-84818234D01*
X208664367Y-84456443D01*
X208593449Y-84099909D01*
X208593446Y-84099898D01*
X208487913Y-83752002D01*
X208348792Y-83416135D01*
X208348790Y-83416130D01*
X208177429Y-83095537D01*
X208177418Y-83095519D01*
X207975448Y-82793249D01*
X207788320Y-82565233D01*
X207788319Y-82565232D01*
X206294251Y-84059300D01*
X206220412Y-83957670D01*
X206042330Y-83779588D01*
X205940698Y-83705748D01*
X207434766Y-82211679D01*
X207434765Y-82211678D01*
X207206750Y-82024551D01*
X206904480Y-81822581D01*
X206904462Y-81822570D01*
X206583869Y-81651209D01*
X206583864Y-81651207D01*
X206247997Y-81512086D01*
X205900101Y-81406553D01*
X205900090Y-81406550D01*
X205543556Y-81335632D01*
X205181766Y-81300000D01*
X204818234Y-81300000D01*
X204456443Y-81335632D01*
X204099909Y-81406550D01*
X204099898Y-81406553D01*
X203752002Y-81512086D01*
X203416135Y-81651207D01*
X203416130Y-81651209D01*
X203095537Y-81822570D01*
X203095519Y-81822581D01*
X202793258Y-82024545D01*
X202793254Y-82024548D01*
X202565233Y-82211679D01*
X202565233Y-82211680D01*
X204059301Y-83705748D01*
X203957670Y-83779588D01*
X203779588Y-83957670D01*
X203705748Y-84059301D01*
X202211680Y-82565233D01*
X202211679Y-82565233D01*
X202024548Y-82793254D01*
X202024545Y-82793258D01*
X201822581Y-83095519D01*
X201822570Y-83095537D01*
X201651209Y-83416130D01*
X201651207Y-83416135D01*
X201512086Y-83752002D01*
X201406553Y-84099898D01*
X201406550Y-84099909D01*
X201335632Y-84456443D01*
X201300000Y-84818234D01*
X148700000Y-84818234D01*
X148664367Y-84456443D01*
X148593449Y-84099909D01*
X148593446Y-84099898D01*
X148487913Y-83752002D01*
X148348792Y-83416135D01*
X148348790Y-83416130D01*
X148177429Y-83095537D01*
X148177418Y-83095519D01*
X147975448Y-82793249D01*
X147788320Y-82565233D01*
X147788319Y-82565232D01*
X146294251Y-84059300D01*
X146220412Y-83957670D01*
X146042330Y-83779588D01*
X145940698Y-83705748D01*
X147434766Y-82211679D01*
X147434765Y-82211678D01*
X147206750Y-82024551D01*
X146904480Y-81822581D01*
X146904462Y-81822570D01*
X146583869Y-81651209D01*
X146583864Y-81651207D01*
X146247997Y-81512086D01*
X145900101Y-81406553D01*
X145900090Y-81406550D01*
X145543556Y-81335632D01*
X145181766Y-81300000D01*
X144818234Y-81300000D01*
X144456443Y-81335632D01*
X144099909Y-81406550D01*
X144099898Y-81406553D01*
X143752002Y-81512086D01*
X143416135Y-81651207D01*
X143416130Y-81651209D01*
X143095537Y-81822570D01*
X143095519Y-81822581D01*
X142793258Y-82024545D01*
X142793254Y-82024548D01*
X142565233Y-82211679D01*
X142565233Y-82211680D01*
X144059301Y-83705748D01*
X143957670Y-83779588D01*
X143779588Y-83957670D01*
X143705748Y-84059301D01*
X142211680Y-82565233D01*
X142211679Y-82565233D01*
X142024548Y-82793254D01*
X142024545Y-82793258D01*
X141822581Y-83095519D01*
X141822570Y-83095537D01*
X141651209Y-83416130D01*
X141651207Y-83416135D01*
X141512086Y-83752002D01*
X141406553Y-84099898D01*
X141406550Y-84099909D01*
X141335632Y-84456443D01*
X141300000Y-84818234D01*
X140008018Y-84818234D01*
X140008356Y-84810063D01*
X140015123Y-84646446D01*
X140015816Y-84629708D01*
X140016177Y-84624098D01*
X140023531Y-84540031D01*
X140024003Y-84535582D01*
X140064218Y-84212959D01*
X140065138Y-84206842D01*
X140079003Y-84128210D01*
X140079732Y-84124428D01*
X140147553Y-83800974D01*
X140149123Y-83794394D01*
X140167614Y-83725385D01*
X140168500Y-83722251D01*
X140265389Y-83396810D01*
X140267685Y-83389862D01*
X140287331Y-83335886D01*
X140288276Y-83333380D01*
X140416976Y-83003551D01*
X140420079Y-82996292D01*
X140434634Y-82965080D01*
X140435415Y-82963445D01*
X140600823Y-82625097D01*
X140605683Y-82616116D01*
X140811973Y-82269918D01*
X140817568Y-82261356D01*
X141051728Y-81933394D01*
X141057996Y-81925342D01*
X141318443Y-81617832D01*
X141325362Y-81610316D01*
X141610316Y-81325362D01*
X141617832Y-81318443D01*
X141925342Y-81057996D01*
X141933394Y-81051728D01*
X142261372Y-80817556D01*
X142269918Y-80811973D01*
X142616116Y-80605683D01*
X142625097Y-80600823D01*
X142963445Y-80435415D01*
X142965080Y-80434634D01*
X142996292Y-80420079D01*
X143003551Y-80416976D01*
X143333380Y-80288276D01*
X143335886Y-80287331D01*
X143389862Y-80267685D01*
X143396810Y-80265389D01*
X143722251Y-80168500D01*
X143725385Y-80167614D01*
X143794394Y-80149123D01*
X143800974Y-80147553D01*
X144124428Y-80079732D01*
X144128210Y-80079003D01*
X144206842Y-80065138D01*
X144212959Y-80064218D01*
X144535582Y-80024003D01*
X144540031Y-80023531D01*
X144624098Y-80016177D01*
X144629716Y-80015815D01*
X144997437Y-80000605D01*
X145002561Y-80000500D01*
X204997433Y-80000500D01*
X205002544Y-80000604D01*
G37*
%TD.AperFunction*%
%TD*%
M02*
