%TF.GenerationSoftware,KiCad,Pcbnew,9.0.0*%
%TF.CreationDate,2025-03-28T09:56:41+01:00*%
%TF.ProjectId,Inverter_KiCAD,496e7665-7274-4657-925f-4b694341442e,rev?*%
%TF.SameCoordinates,Original*%
%TF.FileFunction,Soldermask,Bot*%
%TF.FilePolarity,Negative*%
%FSLAX46Y46*%
G04 Gerber Fmt 4.6, Leading zero omitted, Abs format (unit mm)*
G04 Created by KiCad (PCBNEW 9.0.0) date 2025-03-28 09:56:41*
%MOMM*%
%LPD*%
G01*
G04 APERTURE LIST*
G04 Aperture macros list*
%AMRoundRect*
0 Rectangle with rounded corners*
0 $1 Rounding radius*
0 $2 $3 $4 $5 $6 $7 $8 $9 X,Y pos of 4 corners*
0 Add a 4 corners polygon primitive as box body*
4,1,4,$2,$3,$4,$5,$6,$7,$8,$9,$2,$3,0*
0 Add four circle primitives for the rounded corners*
1,1,$1+$1,$2,$3*
1,1,$1+$1,$4,$5*
1,1,$1+$1,$6,$7*
1,1,$1+$1,$8,$9*
0 Add four rect primitives between the rounded corners*
20,1,$1+$1,$2,$3,$4,$5,0*
20,1,$1+$1,$4,$5,$6,$7,0*
20,1,$1+$1,$6,$7,$8,$9,0*
20,1,$1+$1,$8,$9,$2,$3,0*%
G04 Aperture macros list end*
%ADD10C,0.800000*%
%ADD11C,6.400000*%
%ADD12RoundRect,0.750000X-0.750000X-0.750000X0.750000X-0.750000X0.750000X0.750000X-0.750000X0.750000X0*%
%ADD13C,3.000000*%
%ADD14RoundRect,0.250000X0.600000X0.750000X-0.600000X0.750000X-0.600000X-0.750000X0.600000X-0.750000X0*%
%ADD15O,1.700000X2.000000*%
%ADD16RoundRect,0.250000X0.725000X-0.600000X0.725000X0.600000X-0.725000X0.600000X-0.725000X-0.600000X0*%
%ADD17O,1.950000X1.700000*%
%ADD18RoundRect,1.500000X1.500000X-1.500000X1.500000X1.500000X-1.500000X1.500000X-1.500000X-1.500000X0*%
%ADD19C,6.000000*%
%ADD20RoundRect,0.135000X-0.135000X-0.185000X0.135000X-0.185000X0.135000X0.185000X-0.135000X0.185000X0*%
%ADD21RoundRect,0.250000X-0.250000X-0.475000X0.250000X-0.475000X0.250000X0.475000X-0.250000X0.475000X0*%
%ADD22RoundRect,0.150000X0.825000X0.150000X-0.825000X0.150000X-0.825000X-0.150000X0.825000X-0.150000X0*%
%ADD23RoundRect,0.140000X0.140000X0.170000X-0.140000X0.170000X-0.140000X-0.170000X0.140000X-0.170000X0*%
%ADD24RoundRect,0.250000X1.075000X-0.312500X1.075000X0.312500X-1.075000X0.312500X-1.075000X-0.312500X0*%
%ADD25RoundRect,0.250000X0.475000X-0.250000X0.475000X0.250000X-0.475000X0.250000X-0.475000X-0.250000X0*%
%ADD26C,1.000000*%
%ADD27RoundRect,0.135000X0.185000X-0.135000X0.185000X0.135000X-0.185000X0.135000X-0.185000X-0.135000X0*%
%ADD28RoundRect,0.135000X-0.185000X0.135000X-0.185000X-0.135000X0.185000X-0.135000X0.185000X0.135000X0*%
%ADD29RoundRect,0.250000X2.450000X-0.650000X2.450000X0.650000X-2.450000X0.650000X-2.450000X-0.650000X0*%
%ADD30RoundRect,0.250000X-0.312500X-1.075000X0.312500X-1.075000X0.312500X1.075000X-0.312500X1.075000X0*%
%ADD31RoundRect,0.225000X-0.225000X-0.250000X0.225000X-0.250000X0.225000X0.250000X-0.225000X0.250000X0*%
%ADD32RoundRect,0.100000X-0.100000X0.637500X-0.100000X-0.637500X0.100000X-0.637500X0.100000X0.637500X0*%
%ADD33RoundRect,0.225000X-0.250000X0.225000X-0.250000X-0.225000X0.250000X-0.225000X0.250000X0.225000X0*%
%ADD34R,0.400000X0.500000*%
%ADD35R,1.500000X1.500000*%
%ADD36RoundRect,0.250000X-0.475000X0.250000X-0.475000X-0.250000X0.475000X-0.250000X0.475000X0.250000X0*%
G04 APERTURE END LIST*
D10*
%TO.C,H113*%
X142600000Y-85000000D03*
X143302944Y-83302944D03*
X143302944Y-86697056D03*
X145000000Y-82600000D03*
D11*
X145000000Y-85000000D03*
D10*
X145000000Y-87400000D03*
X146697056Y-83302944D03*
X146697056Y-86697056D03*
X147400000Y-85000000D03*
%TD*%
D12*
%TO.C,J1*%
X170900000Y-135300000D03*
D13*
X175900000Y-135300000D03*
%TD*%
D14*
%TO.C,J4*%
X203097056Y-130322056D03*
D15*
X200597056Y-130322056D03*
%TD*%
D10*
%TO.C,H109*%
X202600000Y-85000000D03*
X203302944Y-83302944D03*
X203302944Y-86697056D03*
X205000000Y-82600000D03*
D11*
X205000000Y-85000000D03*
D10*
X205000000Y-87400000D03*
X206697056Y-83302944D03*
X206697056Y-86697056D03*
X207400000Y-85000000D03*
%TD*%
D16*
%TO.C,J7*%
X203672056Y-122547056D03*
D17*
X203672056Y-120047056D03*
X203672056Y-117547056D03*
X203672056Y-115047056D03*
%TD*%
D10*
%TO.C,H111*%
X202600000Y-145000000D03*
X203302944Y-143302944D03*
X203302944Y-146697056D03*
X205000000Y-142600000D03*
D11*
X205000000Y-145000000D03*
D10*
X205000000Y-147400000D03*
X206697056Y-143302944D03*
X206697056Y-146697056D03*
X207400000Y-145000000D03*
%TD*%
D18*
%TO.C,BT1*%
X144900000Y-136300000D03*
D19*
X144900000Y-129100000D03*
%TD*%
D14*
%TO.C,J5*%
X203097056Y-137822056D03*
D15*
X200597056Y-137822056D03*
%TD*%
D10*
%TO.C,H114*%
X142600000Y-145000000D03*
X143302944Y-143302944D03*
X143302944Y-146697056D03*
X145000000Y-142600000D03*
D11*
X145000000Y-145000000D03*
D10*
X145000000Y-147400000D03*
X146697056Y-143302944D03*
X146697056Y-146697056D03*
X147400000Y-145000000D03*
%TD*%
D20*
%TO.C,R1201*%
X185587056Y-115997056D03*
X186607056Y-115997056D03*
%TD*%
D21*
%TO.C,C103*%
X164750000Y-116000000D03*
X166650000Y-116000000D03*
%TD*%
D22*
%TO.C,U1201*%
X190572056Y-117392056D03*
X190572056Y-118662056D03*
X190572056Y-119932056D03*
X190572056Y-121202056D03*
X185622056Y-121202056D03*
X185622056Y-119932056D03*
X185622056Y-118662056D03*
X185622056Y-117392056D03*
%TD*%
D23*
%TO.C,C1201*%
X186577056Y-114897056D03*
X185617056Y-114897056D03*
%TD*%
D24*
%TO.C,R403*%
X184100000Y-128300000D03*
X184100000Y-125375000D03*
%TD*%
D25*
%TO.C,C3*%
X179800000Y-112650000D03*
X179800000Y-110750000D03*
%TD*%
D26*
%TO.C,TP9V1*%
X164000000Y-118200000D03*
%TD*%
D27*
%TO.C,R103*%
X156300000Y-117910000D03*
X156300000Y-116890000D03*
%TD*%
D28*
%TO.C,R102*%
X157500000Y-115490000D03*
X157500000Y-116510000D03*
%TD*%
D29*
%TO.C,C9*%
X151400000Y-120250000D03*
X151400000Y-115150000D03*
%TD*%
D26*
%TO.C,TP3V3*%
X194200000Y-121000000D03*
%TD*%
D30*
%TO.C,R404*%
X171737500Y-120400000D03*
X174662500Y-120400000D03*
%TD*%
D31*
%TO.C,C102*%
X157725000Y-118000000D03*
X159275000Y-118000000D03*
%TD*%
D32*
%TO.C,U1*%
X173572056Y-110684556D03*
X174222056Y-110684556D03*
X174872056Y-110684556D03*
X175522056Y-110684556D03*
X176172056Y-110684556D03*
X176822056Y-110684556D03*
X177472056Y-110684556D03*
X178122056Y-110684556D03*
X178122056Y-116409556D03*
X177472056Y-116409556D03*
X176822056Y-116409556D03*
X176172056Y-116409556D03*
X175522056Y-116409556D03*
X174872056Y-116409556D03*
X174222056Y-116409556D03*
X173572056Y-116409556D03*
%TD*%
D26*
%TO.C,TPBOOT0-1*%
X182200000Y-92100000D03*
%TD*%
D33*
%TO.C,C404*%
X176300000Y-118625000D03*
X176300000Y-120175000D03*
%TD*%
D27*
%TO.C,R101*%
X155200000Y-117910000D03*
X155200000Y-116890000D03*
%TD*%
D34*
%TO.C,U101*%
X155300000Y-119700000D03*
X156300000Y-119700000D03*
X157300000Y-119700000D03*
X158300000Y-119700000D03*
X159300000Y-119700000D03*
D35*
X163900000Y-120200000D03*
X163900000Y-124400000D03*
D34*
X159300000Y-124900000D03*
X158300000Y-124900000D03*
X157300000Y-124900000D03*
X156300000Y-124900000D03*
X155300000Y-124900000D03*
D35*
X156750000Y-122300000D03*
%TD*%
D36*
%TO.C,C2*%
X171897056Y-110609556D03*
X171897056Y-112509556D03*
%TD*%
M02*
