M48
; DRILL file {KiCad 9.0.0} date 2025-03-28T09:56:36+0100
; FORMAT={-:-/ absolute / inch / decimal}
; #@! TF.CreationDate,2025-03-28T09:56:36+01:00
; #@! TF.GenerationSoftware,Kicad,Pcbnew,9.0.0
; #@! TF.FileFunction,Plated,1,4,PTH
FMAT,2
INCH
; #@! TA.AperFunction,Plated,PTH,ViaDrill
T1C0.0118
; #@! TA.AperFunction,Plated,PTH,ViaDrill
T2C0.0157
; #@! TA.AperFunction,Plated,PTH,ComponentDrill
T3C0.0197
; #@! TA.AperFunction,Plated,PTH,ComponentDrill
T4C0.0374
; #@! TA.AperFunction,Plated,PTH,ComponentDrill
T5C0.0394
; #@! TA.AperFunction,Plated,PTH,ComponentDrill
T6C0.0709
; #@! TA.AperFunction,Plated,PTH,ComponentDrill
T7C0.1260
; #@! TA.AperFunction,Plated,PTH,ComponentDrill
T8C0.1772
%
G90
G05
T1
X5.5354Y-5.7244
X5.5394Y-3.3465
X5.5394Y-3.4646
X5.5394Y-3.5827
X5.5394Y-3.7008
X5.5394Y-3.8189
X5.5394Y-3.937
X5.5394Y-4.0551
X5.5394Y-4.1732
X5.5394Y-4.2913
X5.5394Y-4.4094
X5.5394Y-4.6457
X5.5394Y-4.7638
X5.5394Y-4.8819
X5.5394Y-5.0
X5.5394Y-5.1181
X5.5394Y-5.2362
X5.5394Y-5.3543
X5.5394Y-5.4724
X5.5394Y-5.5906
X5.5669Y-3.248
X5.5906Y-5.8346
X5.626Y-3.189
X5.6337Y-3.555
X5.6337Y-3.9487
X5.6339Y-4.311
X5.7087Y-5.878
X5.7126Y-4.5
X5.7362Y-4.5
X5.7441Y-3.1811
X5.7598Y-4.5
X5.7874Y-4.7933
X5.7874Y-4.8346
X5.7874Y-4.872
X5.7874Y-4.9134
X5.8268Y-4.7933
X5.8268Y-4.8346
X5.8268Y-4.872
X5.8268Y-4.9134
X5.8268Y-5.878
X5.8504Y-3.185
X5.9331Y-5.5433
X5.9449Y-5.878
X5.9528Y-3.189
X6.0274Y-3.555
X6.0394Y-3.189
X6.0394Y-3.9606
X6.063Y-5.878
X6.0709Y-5.2441
X6.1575Y-3.189
X6.1797Y-5.7363
X6.1811Y-5.878
X6.2441Y-5.3858
X6.2492Y-5.3358
X6.2756Y-3.189
X6.2992Y-5.878
X6.3102Y-5.3889
X6.3937Y-3.189
X6.4173Y-5.878
X6.4528Y-5.5945
X6.4567Y-5.5354
X6.4882Y-3.9488
X6.4921Y-3.5394
X6.5118Y-3.189
X6.5236Y-3.3701
X6.5354Y-5.878
X6.5512Y-4.1457
X6.5786Y-4.6574
X6.6102Y-4.7992
X6.6102Y-4.8268
X6.6219Y-5.0117
X6.6219Y-5.0511
X6.6299Y-3.189
X6.6378Y-4.4055
X6.6535Y-5.878
X6.6613Y-5.0117
X6.6613Y-5.0511
X6.6614Y-4.8622
X6.6967Y-4.8622
X6.7007Y-5.0117
X6.7007Y-5.0511
X6.7361Y-4.8622
X6.748Y-3.189
X6.7598Y-5.5354
X6.7717Y-4.8622
X6.7717Y-5.878
X6.7874Y-3.937
X6.803Y-3.3818
X6.811Y-4.7087
X6.8148Y-4.1456
X6.8661Y-3.189
X6.8847Y-4.3071
X6.8884Y-4.6594
X6.8898Y-5.878
X6.8937Y-5.0157
X6.9055Y-4.5315
X6.9408Y-3.5314
X6.9409Y-4.6378
X6.9764Y-4.7323
X6.9843Y-3.189
X6.9881Y-3.7676
X6.9932Y-3.3849
X6.9959Y-4.0865
X7.0079Y-5.878
X7.0117Y-4.303
X7.0245Y-4.6969
X7.0354Y-4.9724
X7.0354Y-5.0118
X7.0433Y-4.2441
X7.0747Y-3.2322
X7.0748Y-4.9724
X7.0748Y-5.0118
X7.1022Y-4.055
X7.1024Y-3.189
X7.1024Y-4.7717
X7.1024Y-4.811
X7.1024Y-4.8504
X7.1142Y-4.9724
X7.1142Y-5.0118
X7.118Y-3.6534
X7.126Y-5.878
X7.1337Y-3.7637
X7.1417Y-4.7717
X7.1417Y-4.811
X7.1417Y-4.8504
X7.1692Y-4.303
X7.2085Y-3.555
X7.2085Y-3.9487
X7.2126Y-5.5315
X7.2205Y-3.189
X7.2283Y-4.7008
X7.2441Y-5.878
X7.2795Y-4.0197
X7.31Y-4.4418
X7.3148Y-4.0904
X7.3188Y-5.2952
X7.3189Y-5.0866
X7.3228Y-4.248
X7.3386Y-3.189
X7.3622Y-5.878
X7.366Y-4.3424
X7.3936Y-3.7991
X7.4448Y-3.3621
X7.4566Y-4.2046
X7.4567Y-3.189
X7.4723Y-4.1613
X7.4803Y-5.878
X7.5433Y-4.3622
X7.5471Y-3.7794
X7.553Y-3.9585
X7.5589Y-3.9172
X7.5748Y-3.189
X7.5984Y-5.5512
X7.5984Y-5.878
X7.6022Y-4.1849
X7.6102Y-3.937
X7.6929Y-3.189
X7.7165Y-5.878
X7.7559Y-4.7638
X7.7597Y-4.057
X7.7991Y-3.7519
X7.7991Y-4.1849
X7.8071Y-3.1929
X7.8346Y-5.878
X7.9528Y-5.878
X7.9685Y-3.1929
X7.9959Y-3.7519
X7.9959Y-4.1849
X8.0709Y-3.1811
X8.0709Y-5.8858
X8.1732Y-3.2126
X8.1929Y-5.8346
X8.2362Y-3.4055
X8.2362Y-3.5236
X8.2362Y-3.6417
X8.2362Y-3.7598
X8.2362Y-3.878
X8.2362Y-3.9961
X8.2362Y-4.1142
X8.2362Y-4.2323
X8.2362Y-4.3504
X8.2362Y-4.4685
X8.2362Y-4.5866
X8.2362Y-4.7047
X8.2362Y-4.8228
X8.2362Y-4.9409
X8.2362Y-5.0591
X8.2362Y-5.1772
X8.2362Y-5.2953
X8.2362Y-5.4134
X8.2362Y-5.5315
X8.2362Y-5.6496
X8.2362Y-5.7087
T2
X5.8701Y-4.3622
X5.8957Y-4.3878
X6.1457Y-4.4921
X6.2362Y-4.8346
X6.252Y-4.5787
X6.4173Y-4.9724
X6.4606Y-4.9724
X6.4882Y-4.8031
X6.5079Y-4.9724
X6.5118Y-4.0974
X6.6102Y-4.6142
X6.8661Y-4.874
X6.9488Y-4.7677
X6.9615Y-4.2756
X6.9685Y-3.9173
X6.9764Y-3.9763
X7.093Y-3.9455
X7.1741Y-3.626
X7.2165Y-5.1024
X7.2244Y-4.5315
X7.2598Y-4.0866
X7.2677Y-3.5236
X7.2717Y-4.4134
X7.2913Y-3.7598
X7.4208Y-4.4882
X7.4528Y-4.937
X7.4606Y-5.0079
X7.4764Y-5.126
X7.4921Y-4.2402
X7.5394Y-4.0591
X7.5866Y-4.5472
X7.5906Y-4.8071
X7.5984Y-4.2598
X7.6181Y-4.0787
X7.6457Y-4.8189
X7.6457Y-5.0236
X7.685Y-5.0472
X7.6969Y-4.1535
X7.7205Y-5.0236
X7.7323Y-4.1063
X7.7638Y-3.8543
X7.7756Y-3.9331
X7.8543Y-4.9409
X7.8819Y-3.752
X8.0709Y-3.8465
X8.0748Y-3.7756
X8.0748Y-3.9528
X8.1063Y-4.0512
T3
X5.6142Y-3.3465
X5.6142Y-5.7087
X5.6418Y-3.2796
X5.6418Y-3.4133
X5.6418Y-5.6418
X5.6418Y-5.7755
X5.7087Y-3.252
X5.7087Y-3.4409
X5.7087Y-5.6142
X5.7087Y-5.8031
X5.7755Y-3.2796
X5.7755Y-3.4133
X5.7755Y-5.6418
X5.7755Y-5.7755
X5.8031Y-3.3465
X5.8031Y-5.7087
X7.9764Y-3.3465
X7.9764Y-5.7087
X8.0041Y-3.2796
X8.0041Y-3.4133
X8.0041Y-5.6418
X8.0041Y-5.7755
X8.0709Y-3.252
X8.0709Y-3.4409
X8.0709Y-5.6142
X8.0709Y-5.8031
X8.1377Y-3.2796
X8.1377Y-3.4133
X8.1377Y-5.6418
X8.1377Y-5.7755
X8.1654Y-3.3465
X8.1654Y-5.7087
T4
X8.0186Y-4.5294
X8.0186Y-4.6278
X8.0186Y-4.7263
X8.0186Y-4.8247
T5
X7.8975Y-5.1308
X7.8975Y-5.4261
X7.9959Y-5.1308
X7.9959Y-5.4261
T6
X6.7283Y-5.3268
X6.9252Y-5.3268
T7
X5.7087Y-3.3465
X5.7087Y-5.7087
X8.0709Y-3.3465
X8.0709Y-5.7087
T8
X5.7047Y-5.0827
X5.7047Y-5.3661
M30
