%TF.GenerationSoftware,KiCad,Pcbnew,8.0.7*%
%TF.CreationDate,2025-01-22T21:35:01+01:00*%
%TF.ProjectId,Inverter_KiCAD,496e7665-7274-4657-925f-4b694341442e,rev?*%
%TF.SameCoordinates,Original*%
%TF.FileFunction,Copper,L4,Bot*%
%TF.FilePolarity,Positive*%
%FSLAX46Y46*%
G04 Gerber Fmt 4.6, Leading zero omitted, Abs format (unit mm)*
G04 Created by KiCad (PCBNEW 8.0.7) date 2025-01-22 21:35:01*
%MOMM*%
%LPD*%
G01*
G04 APERTURE LIST*
G04 Aperture macros list*
%AMRoundRect*
0 Rectangle with rounded corners*
0 $1 Rounding radius*
0 $2 $3 $4 $5 $6 $7 $8 $9 X,Y pos of 4 corners*
0 Add a 4 corners polygon primitive as box body*
4,1,4,$2,$3,$4,$5,$6,$7,$8,$9,$2,$3,0*
0 Add four circle primitives for the rounded corners*
1,1,$1+$1,$2,$3*
1,1,$1+$1,$4,$5*
1,1,$1+$1,$6,$7*
1,1,$1+$1,$8,$9*
0 Add four rect primitives between the rounded corners*
20,1,$1+$1,$2,$3,$4,$5,0*
20,1,$1+$1,$4,$5,$6,$7,0*
20,1,$1+$1,$6,$7,$8,$9,0*
20,1,$1+$1,$8,$9,$2,$3,0*%
G04 Aperture macros list end*
%TA.AperFunction,ComponentPad*%
%ADD10C,1.400000*%
%TD*%
%TA.AperFunction,ComponentPad*%
%ADD11RoundRect,0.770000X0.980000X0.980000X-0.980000X0.980000X-0.980000X-0.980000X0.980000X-0.980000X0*%
%TD*%
%TA.AperFunction,ComponentPad*%
%ADD12C,3.500000*%
%TD*%
%TA.AperFunction,SMDPad,CuDef*%
%ADD13R,1.505000X5.600000*%
%TD*%
%TA.AperFunction,SMDPad,CuDef*%
%ADD14RoundRect,0.250000X-2.450000X0.650000X-2.450000X-0.650000X2.450000X-0.650000X2.450000X0.650000X0*%
%TD*%
%TA.AperFunction,ComponentPad*%
%ADD15R,1.700000X1.700000*%
%TD*%
%TA.AperFunction,ComponentPad*%
%ADD16O,1.700000X1.700000*%
%TD*%
%TA.AperFunction,ComponentPad*%
%ADD17C,0.800000*%
%TD*%
%TA.AperFunction,ComponentPad*%
%ADD18C,6.400000*%
%TD*%
%TA.AperFunction,SMDPad,CuDef*%
%ADD19RoundRect,0.135000X0.135000X0.185000X-0.135000X0.185000X-0.135000X-0.185000X0.135000X-0.185000X0*%
%TD*%
%TA.AperFunction,ComponentPad*%
%ADD20RoundRect,0.250000X0.600000X0.750000X-0.600000X0.750000X-0.600000X-0.750000X0.600000X-0.750000X0*%
%TD*%
%TA.AperFunction,ComponentPad*%
%ADD21O,1.700000X2.000000*%
%TD*%
%TA.AperFunction,SMDPad,CuDef*%
%ADD22RoundRect,0.135000X0.185000X-0.135000X0.185000X0.135000X-0.185000X0.135000X-0.185000X-0.135000X0*%
%TD*%
%TA.AperFunction,SMDPad,CuDef*%
%ADD23RoundRect,0.150000X0.150000X-0.737500X0.150000X0.737500X-0.150000X0.737500X-0.150000X-0.737500X0*%
%TD*%
%TA.AperFunction,HeatsinkPad*%
%ADD24R,4.900000X2.950000*%
%TD*%
%TA.AperFunction,ComponentPad*%
%ADD25RoundRect,0.250000X0.725000X-0.600000X0.725000X0.600000X-0.725000X0.600000X-0.725000X-0.600000X0*%
%TD*%
%TA.AperFunction,ComponentPad*%
%ADD26O,1.950000X1.700000*%
%TD*%
%TA.AperFunction,ComponentPad*%
%ADD27RoundRect,1.500000X-1.500000X1.500000X-1.500000X-1.500000X1.500000X-1.500000X1.500000X1.500000X0*%
%TD*%
%TA.AperFunction,ComponentPad*%
%ADD28C,6.000000*%
%TD*%
%TA.AperFunction,SMDPad,CuDef*%
%ADD29RoundRect,0.140000X-0.140000X-0.170000X0.140000X-0.170000X0.140000X0.170000X-0.140000X0.170000X0*%
%TD*%
%TA.AperFunction,SMDPad,CuDef*%
%ADD30RoundRect,0.250000X-0.250000X-0.475000X0.250000X-0.475000X0.250000X0.475000X-0.250000X0.475000X0*%
%TD*%
%TA.AperFunction,SMDPad,CuDef*%
%ADD31RoundRect,0.140000X-0.170000X0.140000X-0.170000X-0.140000X0.170000X-0.140000X0.170000X0.140000X0*%
%TD*%
%TA.AperFunction,SMDPad,CuDef*%
%ADD32RoundRect,0.250000X0.250000X0.475000X-0.250000X0.475000X-0.250000X-0.475000X0.250000X-0.475000X0*%
%TD*%
%TA.AperFunction,SMDPad,CuDef*%
%ADD33RoundRect,0.250000X2.450000X-0.650000X2.450000X0.650000X-2.450000X0.650000X-2.450000X-0.650000X0*%
%TD*%
%TA.AperFunction,SMDPad,CuDef*%
%ADD34RoundRect,0.135000X-0.135000X-0.185000X0.135000X-0.185000X0.135000X0.185000X-0.135000X0.185000X0*%
%TD*%
%TA.AperFunction,SMDPad,CuDef*%
%ADD35RoundRect,0.150000X0.825000X0.150000X-0.825000X0.150000X-0.825000X-0.150000X0.825000X-0.150000X0*%
%TD*%
%TA.AperFunction,SMDPad,CuDef*%
%ADD36RoundRect,0.140000X0.140000X0.170000X-0.140000X0.170000X-0.140000X-0.170000X0.140000X-0.170000X0*%
%TD*%
%TA.AperFunction,SMDPad,CuDef*%
%ADD37RoundRect,0.250000X0.475000X-0.250000X0.475000X0.250000X-0.475000X0.250000X-0.475000X-0.250000X0*%
%TD*%
%TA.AperFunction,SMDPad,CuDef*%
%ADD38RoundRect,0.100000X-0.100000X0.675000X-0.100000X-0.675000X0.100000X-0.675000X0.100000X0.675000X0*%
%TD*%
%TA.AperFunction,HeatsinkPad*%
%ADD39R,3.000000X3.000000*%
%TD*%
%TA.AperFunction,SMDPad,CuDef*%
%ADD40RoundRect,0.250000X-0.475000X0.250000X-0.475000X-0.250000X0.475000X-0.250000X0.475000X0.250000X0*%
%TD*%
%TA.AperFunction,ViaPad*%
%ADD41C,0.450000*%
%TD*%
%TA.AperFunction,Conductor*%
%ADD42C,0.400000*%
%TD*%
%TA.AperFunction,Conductor*%
%ADD43C,0.200000*%
%TD*%
%TA.AperFunction,Conductor*%
%ADD44C,0.250000*%
%TD*%
G04 APERTURE END LIST*
D10*
%TO.P,J1,*%
%TO.N,*%
X178800000Y-145200000D03*
X167800000Y-145200000D03*
D11*
%TO.P,J1,1,Pin_1*%
%TO.N,/ARM_B*%
X170800000Y-135200000D03*
D12*
%TO.P,J1,2,Pin_2*%
%TO.N,/ARM_OUT_A*%
X175800000Y-135200000D03*
%TD*%
D13*
%TO.P,L2,1*%
%TO.N,Net-(U9-SW)*%
X160000000Y-112600000D03*
%TO.P,L2,2*%
%TO.N,+7.5V*%
X164005000Y-112600000D03*
%TD*%
D14*
%TO.P,C12,1*%
%TO.N,VBUS*%
X153200000Y-120950000D03*
%TO.P,C12,2*%
%TO.N,GND*%
X153200000Y-126050000D03*
%TD*%
D15*
%TO.P,J2,1,VIN*%
%TO.N,+7.5V*%
X164100000Y-123400000D03*
D16*
%TO.P,J2,2,GND*%
%TO.N,GND*%
X164100000Y-125940000D03*
%TO.P,J2,3,VOUT*%
%TO.N,+5V*%
X164100000Y-128480000D03*
%TD*%
D17*
%TO.P,H113,1,1*%
%TO.N,GND*%
X142600000Y-85000000D03*
X143302944Y-83302944D03*
X143302944Y-86697056D03*
X145000000Y-82600000D03*
D18*
X145000000Y-85000000D03*
D17*
X145000000Y-87400000D03*
X146697056Y-83302944D03*
X146697056Y-86697056D03*
X147400000Y-85000000D03*
%TD*%
D19*
%TO.P,R29,1*%
%TO.N,Net-(U9-COMP)*%
X154810000Y-110800000D03*
%TO.P,R29,2*%
%TO.N,Net-(C37-Pad1)*%
X153790000Y-110800000D03*
%TD*%
D20*
%TO.P,J4,1,Pin_1*%
%TO.N,+5V*%
X203097056Y-130322056D03*
D21*
%TO.P,J4,2,Pin_2*%
%TO.N,Net-(J4-Pin_2)*%
X200597056Y-130322056D03*
%TD*%
D22*
%TO.P,R2,1*%
%TO.N,Net-(U9-RT{slash}CLK)*%
X152000000Y-115910000D03*
%TO.P,R2,2*%
%TO.N,GND*%
X152000000Y-114890000D03*
%TD*%
D23*
%TO.P,U9,1,BST*%
%TO.N,Net-(U9-BST)*%
X157305000Y-117762500D03*
%TO.P,U9,2,VIN*%
%TO.N,VBUS*%
X156035000Y-117762500D03*
%TO.P,U9,3,EN*%
X154765000Y-117762500D03*
%TO.P,U9,4,RT/CLK*%
%TO.N,Net-(U9-RT{slash}CLK)*%
X153495000Y-117762500D03*
%TO.P,U9,5,FB*%
%TO.N,Net-(U9-FB)*%
X153495000Y-112637500D03*
%TO.P,U9,6,COMP*%
%TO.N,Net-(U9-COMP)*%
X154765000Y-112637500D03*
%TO.P,U9,7,GND*%
%TO.N,GND*%
X156035000Y-112637500D03*
%TO.P,U9,8,SW*%
%TO.N,Net-(U9-SW)*%
X157305000Y-112637500D03*
D24*
%TO.P,U9,9,EPad*%
%TO.N,GND*%
X155400000Y-115200000D03*
%TD*%
D17*
%TO.P,H109,1,1*%
%TO.N,GND*%
X202600000Y-85000000D03*
X203302944Y-83302944D03*
X203302944Y-86697056D03*
X205000000Y-82600000D03*
D18*
X205000000Y-85000000D03*
D17*
X205000000Y-87400000D03*
X206697056Y-83302944D03*
X206697056Y-86697056D03*
X207400000Y-85000000D03*
%TD*%
D25*
%TO.P,J7,1,Pin_1*%
%TO.N,unconnected-(J7-Pin_1-Pad1)*%
X203672056Y-122547056D03*
D26*
%TO.P,J7,2,Pin_2*%
%TO.N,/MCU_STM32G475/USART1_RX*%
X203672056Y-120047056D03*
%TO.P,J7,3,Pin_3*%
%TO.N,/MCU_STM32G475/USART1_TX*%
X203672056Y-117547056D03*
%TO.P,J7,4,Pin_4*%
%TO.N,GND*%
X203672056Y-115047056D03*
%TD*%
D17*
%TO.P,H111,1,1*%
%TO.N,GND*%
X202600000Y-145000000D03*
X203302944Y-143302944D03*
X203302944Y-146697056D03*
X205000000Y-142600000D03*
D18*
X205000000Y-145000000D03*
D17*
X205000000Y-147400000D03*
X206697056Y-143302944D03*
X206697056Y-146697056D03*
X207400000Y-145000000D03*
%TD*%
D19*
%TO.P,R30,1*%
%TO.N,Net-(U9-SW)*%
X157020000Y-110300000D03*
%TO.P,R30,2*%
%TO.N,Net-(U9-FB)*%
X156000000Y-110300000D03*
%TD*%
D27*
%TO.P,BT1,1,+*%
%TO.N,Net-(BT1-+)*%
X145000000Y-129150000D03*
D28*
%TO.P,BT1,2,-*%
%TO.N,GND*%
X145000000Y-136350000D03*
%TD*%
D29*
%TO.P,C40,1*%
%TO.N,Net-(U9-BST)*%
X159020000Y-116600000D03*
%TO.P,C40,2*%
%TO.N,Net-(U9-SW)*%
X159980000Y-116600000D03*
%TD*%
D20*
%TO.P,J5,1,Pin_1*%
%TO.N,+5V*%
X203097056Y-137822056D03*
D21*
%TO.P,J5,2,Pin_2*%
%TO.N,Net-(J4-Pin_2)*%
X200597056Y-137822056D03*
%TD*%
D30*
%TO.P,C43,1*%
%TO.N,+7.5V*%
X164750000Y-107800000D03*
%TO.P,C43,2*%
%TO.N,GND*%
X166650000Y-107800000D03*
%TD*%
D17*
%TO.P,H114,1,1*%
%TO.N,GND*%
X142600000Y-145000000D03*
X143302944Y-143302944D03*
X143302944Y-146697056D03*
X145000000Y-142600000D03*
D18*
X145000000Y-145000000D03*
D17*
X145000000Y-147400000D03*
X146697056Y-143302944D03*
X146697056Y-146697056D03*
X147400000Y-145000000D03*
%TD*%
D22*
%TO.P,R31,1*%
%TO.N,Net-(U9-FB)*%
X156000000Y-109310000D03*
%TO.P,R31,2*%
%TO.N,GND*%
X156000000Y-108290000D03*
%TD*%
D31*
%TO.P,C37,1*%
%TO.N,Net-(C37-Pad1)*%
X152000000Y-110920000D03*
%TO.P,C37,2*%
%TO.N,GND*%
X152000000Y-111880000D03*
%TD*%
D32*
%TO.P,C42,1*%
%TO.N,+7.5V*%
X162850000Y-105800000D03*
%TO.P,C42,2*%
%TO.N,GND*%
X160950000Y-105800000D03*
%TD*%
%TO.P,C41,1*%
%TO.N,+7.5V*%
X162850000Y-107800000D03*
%TO.P,C41,2*%
%TO.N,GND*%
X160950000Y-107800000D03*
%TD*%
D33*
%TO.P,C11,1*%
%TO.N,GND*%
X159200000Y-125950000D03*
%TO.P,C11,2*%
%TO.N,VBUS*%
X159200000Y-120850000D03*
%TD*%
D34*
%TO.P,R1201,1*%
%TO.N,Net-(U1201-VDD)*%
X185587056Y-115997056D03*
%TO.P,R1201,2*%
%TO.N,+3.3V*%
X186607056Y-115997056D03*
%TD*%
D35*
%TO.P,U1201,1,SDA*%
%TO.N,/I2C_SDA*%
X190572056Y-117392056D03*
%TO.P,U1201,2,SCL*%
%TO.N,/I2C_SCL*%
X190572056Y-118662056D03*
%TO.P,U1201,3,ALERT*%
%TO.N,unconnected-(U1201-ALERT-Pad3)*%
X190572056Y-119932056D03*
%TO.P,U1201,4,GND*%
%TO.N,GND*%
X190572056Y-121202056D03*
%TO.P,U1201,5,A2*%
X185622056Y-121202056D03*
%TO.P,U1201,6,A1*%
X185622056Y-119932056D03*
%TO.P,U1201,7,A0*%
X185622056Y-118662056D03*
%TO.P,U1201,8,VDD*%
%TO.N,Net-(U1201-VDD)*%
X185622056Y-117392056D03*
%TD*%
D36*
%TO.P,C1201,1*%
%TO.N,+3.3V*%
X186577056Y-114897056D03*
%TO.P,C1201,2*%
%TO.N,GND*%
X185617056Y-114897056D03*
%TD*%
D37*
%TO.P,C3,1*%
%TO.N,/ARM_IN_A*%
X180097056Y-112447056D03*
%TO.P,C3,2*%
%TO.N,Net-(U1-AHB)*%
X180097056Y-110547056D03*
%TD*%
D38*
%TO.P,U1,1,BHB*%
%TO.N,Net-(U1-BHB)*%
X173572056Y-110672056D03*
%TO.P,U1,2,EN*%
%TO.N,/Pwr_EN*%
X174222056Y-110672056D03*
%TO.P,U1,3,BHI*%
%TO.N,/In_B_H*%
X174872056Y-110672056D03*
%TO.P,U1,4,BLI*%
%TO.N,/In_B_L*%
X175522056Y-110672056D03*
%TO.P,U1,5,ALI*%
%TO.N,/In_A_L*%
X176172056Y-110672056D03*
%TO.P,U1,6,AHI*%
%TO.N,/In_A_H*%
X176822056Y-110672056D03*
%TO.P,U1,7*%
%TO.N,N/C*%
X177472056Y-110672056D03*
%TO.P,U1,8,AHB*%
%TO.N,Net-(U1-AHB)*%
X178122056Y-110672056D03*
%TO.P,U1,9,AHO*%
%TO.N,/Cmd_H_A*%
X178122056Y-116422056D03*
%TO.P,U1,10,AHS*%
%TO.N,/ARM_IN_A*%
X177472056Y-116422056D03*
%TO.P,U1,11,ALO*%
%TO.N,/Cmd_L_A*%
X176822056Y-116422056D03*
%TO.P,U1,12,VDD*%
%TO.N,+7.5V*%
X176172056Y-116422056D03*
%TO.P,U1,13,VSS*%
%TO.N,GND*%
X175522056Y-116422056D03*
%TO.P,U1,14,BLO*%
%TO.N,/Cmd_L_B*%
X174872056Y-116422056D03*
%TO.P,U1,15,BHS*%
%TO.N,/ARM_B*%
X174222056Y-116422056D03*
%TO.P,U1,16,BHO*%
%TO.N,/Cmd_H_B*%
X173572056Y-116422056D03*
D39*
%TO.P,U1,17*%
%TO.N,N/C*%
X175847056Y-113547056D03*
%TD*%
D40*
%TO.P,C2,1*%
%TO.N,Net-(U1-BHB)*%
X171897056Y-110609556D03*
%TO.P,C2,2*%
%TO.N,/ARM_B*%
X171897056Y-112509556D03*
%TD*%
D41*
%TO.N,GND*%
X140700000Y-142000000D03*
X140700000Y-139000000D03*
X140700000Y-136000000D03*
X140700000Y-133000000D03*
X140700000Y-130000000D03*
X140700000Y-127000000D03*
X140700000Y-124000000D03*
X140700000Y-121000000D03*
X140700000Y-118000000D03*
X140700000Y-112000000D03*
X140700000Y-109000000D03*
X140700000Y-106000000D03*
X140700000Y-103000000D03*
X140700000Y-100000000D03*
X140700000Y-97000000D03*
X140700000Y-94000000D03*
X140700000Y-91000000D03*
X140700000Y-88000000D03*
X140700000Y-85000000D03*
X141400000Y-82500000D03*
X142900000Y-81000000D03*
X145900000Y-80800000D03*
X148600000Y-80900000D03*
X151200000Y-81000000D03*
X140600000Y-145400000D03*
X142000000Y-148200000D03*
X202000000Y-149300000D03*
X199000000Y-149300000D03*
X196000000Y-149300000D03*
X193000000Y-149300000D03*
X190000000Y-149300000D03*
X187000000Y-149300000D03*
X184000000Y-149300000D03*
X181000000Y-149300000D03*
X178000000Y-149300000D03*
X175000000Y-149300000D03*
X172000000Y-149300000D03*
X169000000Y-149300000D03*
X166000000Y-149300000D03*
X163000000Y-149300000D03*
X160000000Y-149300000D03*
X157000000Y-149300000D03*
X154000000Y-149300000D03*
X151000000Y-149300000D03*
X148000000Y-149300000D03*
X145000000Y-149300000D03*
X205000000Y-149500000D03*
X208100000Y-148200000D03*
X209200000Y-146500000D03*
X209200000Y-143500000D03*
X209200000Y-140500000D03*
X209200000Y-137500000D03*
X209200000Y-134500000D03*
X209200000Y-131500000D03*
X209200000Y-128500000D03*
X209200000Y-125500000D03*
X209200000Y-122500000D03*
X209200000Y-119500000D03*
X209200000Y-116500000D03*
X209200000Y-113500000D03*
X209200000Y-110500000D03*
X209200000Y-107500000D03*
X209200000Y-104500000D03*
X209200000Y-101500000D03*
X209200000Y-98500000D03*
X209200000Y-95500000D03*
X209200000Y-92500000D03*
X209200000Y-89500000D03*
X209200000Y-86500000D03*
X207600000Y-81600000D03*
X202400000Y-81100000D03*
X198300000Y-81100000D03*
X195400000Y-81000000D03*
X192400000Y-81000000D03*
X189400000Y-81000000D03*
X186400000Y-81000000D03*
X183400000Y-81000000D03*
X180400000Y-81000000D03*
X177400000Y-81000000D03*
X174400000Y-81000000D03*
X171400000Y-81000000D03*
X168400000Y-81000000D03*
X165400000Y-81000000D03*
X162400000Y-81000000D03*
X159400000Y-81000000D03*
X156400000Y-81000000D03*
X153400000Y-81000000D03*
X171700000Y-140600000D03*
X164800000Y-100300000D03*
X157400000Y-137400000D03*
%TO.N,/{slash}B*%
X159800000Y-135700000D03*
X164000000Y-140600000D03*
%TO.N,/{slash}A*%
X163900000Y-142100000D03*
X158400000Y-136500000D03*
%TO.N,+3.3V*%
X156963215Y-145701173D03*
X157600000Y-134800000D03*
%TO.N,GND*%
X152300000Y-112100000D03*
X157300000Y-115200000D03*
X156700000Y-115200000D03*
X156100000Y-115200000D03*
X155500000Y-115200000D03*
X154800000Y-115200000D03*
X154100000Y-115200000D03*
X153400000Y-115200000D03*
X175100000Y-127400000D03*
%TO.N,+3.3V*%
X166400000Y-105300000D03*
%TO.N,/Imes_vbus*%
X173200000Y-104200000D03*
X155000000Y-109400000D03*
%TO.N,GND*%
X184900000Y-102100000D03*
%TO.N,+3.3V*%
X192159556Y-109172056D03*
X189097056Y-85397056D03*
X191697056Y-95997056D03*
X177627056Y-85977056D03*
X177697056Y-103797056D03*
X192797056Y-121947056D03*
X192797056Y-120147056D03*
X192797056Y-121047056D03*
X192797056Y-122847056D03*
X198657425Y-123469801D03*
X189797056Y-105697056D03*
X180797056Y-92797056D03*
X177497056Y-95697056D03*
X192797056Y-119247056D03*
X197000000Y-121000000D03*
X187600000Y-115500000D03*
X165700000Y-85600000D03*
X196397056Y-97697056D03*
%TO.N,GND*%
X167500000Y-112000000D03*
X183600000Y-119400000D03*
X172400000Y-100000000D03*
X143097056Y-100297056D03*
X193097056Y-106297056D03*
X164900000Y-89900000D03*
X193097056Y-110297056D03*
X183200000Y-140500000D03*
X178097056Y-109297056D03*
X185897056Y-134497056D03*
X145100000Y-114300000D03*
X180397056Y-102997056D03*
X181197056Y-95597056D03*
X150700000Y-140800000D03*
X168197056Y-128297056D03*
X153097056Y-90297056D03*
X169197056Y-127297056D03*
X185797056Y-103897056D03*
X146300000Y-114300000D03*
X170197056Y-127297056D03*
X180700000Y-127300000D03*
X154200000Y-133200000D03*
X170197056Y-128297056D03*
X143100000Y-109500000D03*
X145700000Y-114300000D03*
X185500000Y-128400000D03*
X179697056Y-82097056D03*
X167097056Y-118297056D03*
X185097056Y-107297056D03*
X153400000Y-100600000D03*
X173097056Y-105297056D03*
X169197056Y-128297056D03*
X178700000Y-127300000D03*
X183097056Y-90297056D03*
X203097056Y-95297056D03*
X198097056Y-95297056D03*
X191847056Y-100547056D03*
X180097056Y-107297056D03*
X189397056Y-106797056D03*
X187097056Y-110297056D03*
X172797056Y-85897056D03*
X178700000Y-126300000D03*
X168197056Y-127297056D03*
X193000000Y-141000000D03*
X187797056Y-96497056D03*
X191600000Y-110800000D03*
X143097056Y-90297056D03*
X182097056Y-109297056D03*
X179700000Y-126300000D03*
X203097056Y-106297056D03*
X183097056Y-100297056D03*
X180700000Y-126300000D03*
X176297056Y-89697056D03*
X198097056Y-106297056D03*
X197097056Y-103047056D03*
X176167032Y-118827080D03*
X179700000Y-127300000D03*
%TO.N,/Imes_mot*%
X189700000Y-133800000D03*
X183400000Y-103500000D03*
%TO.N,VBUS*%
X170097056Y-123500000D03*
X148000000Y-123750000D03*
X147000000Y-122800000D03*
X181400000Y-123200000D03*
X147000000Y-123750000D03*
X148000000Y-121750000D03*
X148000000Y-122800000D03*
X172000000Y-123500000D03*
X180400000Y-123200000D03*
X147000000Y-124800000D03*
X147000000Y-121750000D03*
X181400000Y-121200000D03*
X185674263Y-112822793D03*
X174000000Y-123500000D03*
X171097056Y-123500000D03*
X180400000Y-121200000D03*
X181400000Y-122200000D03*
X180400000Y-122200000D03*
X169200000Y-123500000D03*
X148000000Y-124800000D03*
X173000000Y-123500000D03*
%TO.N,/VBus_Sense*%
X191597056Y-103027056D03*
X188497056Y-113797056D03*
%TO.N,+5V*%
X207800000Y-126900000D03*
X195097056Y-126397056D03*
X189200000Y-127500000D03*
X195097056Y-125597056D03*
%TO.N,/MCU_STM32G475/USR_BTN_2*%
X181297056Y-106997056D03*
X186997056Y-86147056D03*
%TO.N,/MCU_STM32G475/NRST*%
X205597056Y-103697056D03*
X187097056Y-98397056D03*
%TO.N,/In_A_H*%
X177397056Y-102897056D03*
X176822056Y-108572056D03*
%TO.N,/In_A_L*%
X176172056Y-107397056D03*
%TO.N,/In_B_H*%
X180797056Y-101097056D03*
X174872056Y-107697056D03*
%TO.N,/In_B_L*%
X175497056Y-109197056D03*
X184397056Y-100694646D03*
%TO.N,/ARM_B*%
X175700000Y-120800000D03*
X173600000Y-112400000D03*
%TO.N,/MCU_STM32G475/SWO*%
X206397056Y-100997056D03*
X186397056Y-96897056D03*
%TO.N,/PWM_FAN*%
X193897056Y-129697056D03*
X184397056Y-95897056D03*
%TO.N,/Pwr_EN*%
X176897056Y-96597056D03*
%TO.N,/I2C_SCL*%
X193397056Y-99597056D03*
%TO.N,/I2C_SDA*%
X191997056Y-99497056D03*
%TO.N,/ARM_IN_A*%
X180000000Y-131500000D03*
%TO.N,/Cmd_L_A*%
X177897056Y-119497056D03*
%TO.N,/Cmd_H_A*%
X179397056Y-118497056D03*
%TO.N,/Cmd_H_B*%
X173000000Y-119600000D03*
%TO.N,/Cmd_L_B*%
X174922056Y-119297056D03*
%TD*%
D42*
%TO.N,+7.5V*%
X165000000Y-122500000D02*
X164100000Y-123400000D01*
X177000000Y-118500000D02*
X177000000Y-121600000D01*
X176100000Y-122500000D02*
X165000000Y-122500000D01*
X176172056Y-117672056D02*
X177000000Y-118500000D01*
X176172056Y-116422056D02*
X176172056Y-117672056D01*
X177000000Y-121600000D02*
X176100000Y-122500000D01*
D43*
%TO.N,/MCU_STM32G475/SWO*%
X186697056Y-97197056D02*
X186397056Y-96897056D01*
X198997056Y-102497056D02*
X193697056Y-97197056D01*
X205902944Y-102497056D02*
X198997056Y-102497056D01*
X193697056Y-97197056D02*
X186697056Y-97197056D01*
X206397056Y-102002944D02*
X205902944Y-102497056D01*
X206397056Y-100997056D02*
X206397056Y-102002944D01*
D44*
%TO.N,/{slash}B*%
X163200000Y-140600000D02*
X164000000Y-140600000D01*
X159800000Y-137200000D02*
X163200000Y-140600000D01*
X159800000Y-135700000D02*
X159800000Y-137200000D01*
D43*
%TO.N,+3.3V*%
X158200000Y-144500000D02*
X157000000Y-145700000D01*
X158200000Y-137042463D02*
X158200000Y-144500000D01*
X157600000Y-136442463D02*
X158200000Y-137042463D01*
X157600000Y-134800000D02*
X157600000Y-136442463D01*
D44*
%TO.N,/{slash}A*%
X158400000Y-136600000D02*
X163900000Y-142100000D01*
X158400000Y-136500000D02*
X158400000Y-136600000D01*
D43*
%TO.N,Net-(U9-FB)*%
X156000000Y-109310000D02*
X156000000Y-110300000D01*
X153332500Y-112800000D02*
X153495000Y-112637500D01*
X150900000Y-110800000D02*
X150900000Y-112300000D01*
X151700000Y-110000000D02*
X150900000Y-110800000D01*
X150900000Y-112300000D02*
X151400000Y-112800000D01*
X156000000Y-110300000D02*
X155700000Y-110000000D01*
X151400000Y-112800000D02*
X153332500Y-112800000D01*
X155700000Y-110000000D02*
X151700000Y-110000000D01*
%TO.N,/Imes_vbus*%
X155000000Y-107800000D02*
X155000000Y-109400000D01*
X159500000Y-103300000D02*
X155000000Y-107800000D01*
X172300000Y-103300000D02*
X159500000Y-103300000D01*
X173200000Y-104200000D02*
X172300000Y-103300000D01*
%TO.N,GND*%
X152080000Y-111880000D02*
X152300000Y-112100000D01*
X152000000Y-111880000D02*
X152080000Y-111880000D01*
%TO.N,Net-(C37-Pad1)*%
X152120000Y-110800000D02*
X152000000Y-110920000D01*
X153790000Y-110800000D02*
X152120000Y-110800000D01*
%TO.N,Net-(U9-COMP)*%
X154765000Y-110845000D02*
X154810000Y-110800000D01*
X154765000Y-112637500D02*
X154765000Y-110845000D01*
%TO.N,/ARM_B*%
X174222056Y-119922056D02*
X174222056Y-116422056D01*
X175700000Y-120800000D02*
X175100000Y-120800000D01*
X175100000Y-120800000D02*
X174222056Y-119922056D01*
%TO.N,/Cmd_H_B*%
X173572056Y-119027944D02*
X173572056Y-116422056D01*
X173000000Y-119600000D02*
X173572056Y-119027944D01*
D44*
%TO.N,Net-(U9-RT{slash}CLK)*%
X152000000Y-116350000D02*
X152000000Y-115910000D01*
X153495000Y-117762500D02*
X153412500Y-117762500D01*
X153412500Y-117762500D02*
X152000000Y-116350000D01*
D43*
%TO.N,Net-(U9-BST)*%
X157857500Y-117762500D02*
X157305000Y-117762500D01*
X159020000Y-116600000D02*
X157857500Y-117762500D01*
%TO.N,/MCU_STM32G475/USR_BTN_2*%
X181297056Y-103302944D02*
X181297056Y-106997056D01*
X182502944Y-102097056D02*
X181297056Y-103302944D01*
X184362742Y-101294646D02*
X183560332Y-102097056D01*
X185897056Y-98397056D02*
X185897056Y-100002944D01*
X185897056Y-100002944D02*
X184605354Y-101294646D01*
X183697056Y-96197056D02*
X185897056Y-98397056D01*
X183560332Y-102097056D02*
X182502944Y-102097056D01*
X184605354Y-101294646D02*
X184362742Y-101294646D01*
X183697056Y-89897056D02*
X183697056Y-96197056D01*
D44*
%TO.N,/Imes_mot*%
X187500000Y-126400000D02*
X187500000Y-131600000D01*
X188700000Y-125200000D02*
X187500000Y-126400000D01*
X187500000Y-131600000D02*
X189700000Y-133800000D01*
X183400000Y-109770712D02*
X188700000Y-115070712D01*
X188700000Y-115070712D02*
X188700000Y-125200000D01*
X183400000Y-103500000D02*
X183400000Y-109770712D01*
D43*
%TO.N,/PWM_FAN*%
X186297056Y-97797056D02*
X184397056Y-95897056D01*
X193497056Y-97797056D02*
X186297056Y-97797056D01*
X198797056Y-103097056D02*
X193497056Y-97797056D01*
X206097056Y-103097056D02*
X198797056Y-103097056D01*
X206997056Y-103997056D02*
X206097056Y-103097056D01*
X206997056Y-105997056D02*
X206997056Y-103997056D01*
X196102944Y-129697056D02*
X201300000Y-124500000D01*
X193897056Y-129697056D02*
X196102944Y-129697056D01*
X201300000Y-124500000D02*
X201300000Y-111694112D01*
X201300000Y-111694112D02*
X206997056Y-105997056D01*
%TO.N,+3.3V*%
X186607056Y-115500000D02*
X187600000Y-115500000D01*
X186607056Y-115997056D02*
X186607056Y-115500000D01*
X186607056Y-114927056D02*
X186577056Y-114897056D01*
X186607056Y-115500000D02*
X186607056Y-114927056D01*
%TO.N,GND*%
X176167032Y-118827080D02*
X175522056Y-118182104D01*
X175522056Y-118182104D02*
X175522056Y-116422056D01*
%TO.N,/VBus_Sense*%
X184222056Y-104588172D02*
X184222056Y-108097056D01*
X185783172Y-103027056D02*
X184222056Y-104588172D01*
X188497056Y-113797056D02*
X188497056Y-113707106D01*
X184222056Y-109432106D02*
X184222056Y-108097056D01*
X191597056Y-103027056D02*
X185783172Y-103027056D01*
X188497056Y-113707106D02*
X184222056Y-109432106D01*
%TO.N,/MCU_STM32G475/USR_BTN_2*%
X186997056Y-86147056D02*
X187047056Y-86197056D01*
X183697056Y-89447056D02*
X183697056Y-89997056D01*
X186997056Y-86147056D02*
X183697056Y-89447056D01*
%TO.N,/MCU_STM32G475/NRST*%
X187222056Y-98272056D02*
X187097056Y-98397056D01*
X205597056Y-103697056D02*
X198797056Y-103697056D01*
X193372056Y-98272056D02*
X187222056Y-98272056D01*
X198797056Y-103697056D02*
X193372056Y-98272056D01*
%TO.N,/In_A_H*%
X176822056Y-108572056D02*
X176822056Y-103472056D01*
X176822056Y-103472056D02*
X177397056Y-102897056D01*
X176822056Y-108572056D02*
X176822056Y-110672056D01*
%TO.N,/In_A_L*%
X176172056Y-107397056D02*
X176172056Y-110672056D01*
%TO.N,/In_B_H*%
X180797056Y-101097056D02*
X177597056Y-101097056D01*
X177597056Y-101097056D02*
X174872056Y-103822056D01*
X174872056Y-103822056D02*
X174872056Y-110672056D01*
%TO.N,/In_B_L*%
X184397056Y-100694646D02*
X183394646Y-101697056D01*
X183394646Y-101697056D02*
X177748527Y-101697056D01*
X177748527Y-101697056D02*
X175522056Y-103923527D01*
X175522056Y-103923527D02*
X175522056Y-110672056D01*
%TO.N,/ARM_B*%
X173577944Y-112422056D02*
X171897056Y-112422056D01*
X173600000Y-112400000D02*
X173577944Y-112422056D01*
%TO.N,/MCU_STM32G475/SWO*%
X206397056Y-100997056D02*
X206497056Y-100897056D01*
%TO.N,Net-(U1201-VDD)*%
X185587056Y-117357056D02*
X185587056Y-115997056D01*
X185622056Y-117392056D02*
X185587056Y-117357056D01*
%TO.N,/Pwr_EN*%
X174222056Y-98072056D02*
X174222056Y-110672056D01*
X175697056Y-96597056D02*
X174222056Y-98072056D01*
X176897056Y-96597056D02*
X175697056Y-96597056D01*
%TO.N,/I2C_SCL*%
X190572056Y-118662056D02*
X191547055Y-118662056D01*
X194097056Y-116097056D02*
X194097056Y-100297056D01*
X191547055Y-118662056D02*
X192497056Y-117712055D01*
X192497056Y-117697056D02*
X194097056Y-116097056D01*
X192497056Y-117712055D02*
X192497056Y-117697056D01*
X194097056Y-100297056D02*
X193397056Y-99597056D01*
%TO.N,/I2C_SDA*%
X192202056Y-117392056D02*
X193697056Y-115897056D01*
X193697056Y-115897056D02*
X193697056Y-101197056D01*
X193697056Y-101197056D02*
X191997056Y-99497056D01*
X190572056Y-117392056D02*
X192202056Y-117392056D01*
%TO.N,Net-(U1-BHB)*%
X171897056Y-110697056D02*
X173547056Y-110697056D01*
X173547056Y-110697056D02*
X173572056Y-110672056D01*
%TO.N,/ARM_IN_A*%
X180000000Y-130100000D02*
X180000000Y-131500000D01*
X177472056Y-117264950D02*
X178697056Y-118489950D01*
X178075000Y-128175000D02*
X180000000Y-130100000D01*
X177472056Y-116422056D02*
X177472056Y-115522056D01*
X180097056Y-112897056D02*
X180097056Y-112359556D01*
X178075000Y-126041116D02*
X178075000Y-128175000D01*
X178697056Y-118489950D02*
X178697056Y-125419060D01*
X177472056Y-116422056D02*
X177472056Y-117264950D01*
X178697056Y-125419060D02*
X178075000Y-126041116D01*
X177472056Y-115522056D02*
X180097056Y-112897056D01*
%TO.N,Net-(U1-AHB)*%
X180097056Y-110634556D02*
X178159556Y-110634556D01*
X178159556Y-110634556D02*
X178122056Y-110672056D01*
%TO.N,/Cmd_L_A*%
X177897056Y-118397056D02*
X176822056Y-117322056D01*
X176822056Y-117322056D02*
X176822056Y-116422056D01*
X177897056Y-119497056D02*
X177897056Y-118397056D01*
%TO.N,/Cmd_H_A*%
X178122056Y-116622056D02*
X178122056Y-116422056D01*
X179397056Y-118497056D02*
X179397056Y-117897056D01*
X179397056Y-117897056D02*
X178122056Y-116622056D01*
%TO.N,/Cmd_L_B*%
X174922056Y-119297056D02*
X174922056Y-118622056D01*
X174872056Y-118572056D02*
X174872056Y-116422056D01*
X174922056Y-118622056D02*
X174872056Y-118572056D01*
%TD*%
%TA.AperFunction,Conductor*%
%TO.N,GND*%
G36*
X205000647Y-80000006D02*
G01*
X205213514Y-80002308D01*
X205222925Y-80002769D01*
X205647637Y-80039884D01*
X205658326Y-80041290D01*
X206077506Y-80115160D01*
X206088052Y-80117497D01*
X206499198Y-80227619D01*
X206509493Y-80230863D01*
X206909485Y-80376403D01*
X206919460Y-80380534D01*
X207305230Y-80560374D01*
X207314809Y-80565360D01*
X207683443Y-80778142D01*
X207692535Y-80783932D01*
X208041231Y-81028040D01*
X208049807Y-81034619D01*
X208375880Y-81308170D01*
X208383857Y-81315478D01*
X208684851Y-81616413D01*
X208692159Y-81624388D01*
X208965760Y-81950386D01*
X208972347Y-81958968D01*
X209216513Y-82307600D01*
X209222326Y-82316722D01*
X209435171Y-82685295D01*
X209440167Y-82694890D01*
X209620078Y-83080609D01*
X209624219Y-83090603D01*
X209769829Y-83490541D01*
X209773083Y-83500858D01*
X209883282Y-83911963D01*
X209885624Y-83922523D01*
X209959574Y-84341666D01*
X209960987Y-84352391D01*
X209998185Y-84777065D01*
X209998650Y-84786521D01*
X209999992Y-84908474D01*
X210000000Y-84909838D01*
X210000000Y-144999289D01*
X209999993Y-145000642D01*
X209997671Y-145213472D01*
X209997206Y-145222926D01*
X209960056Y-145647549D01*
X209958644Y-145658274D01*
X209884746Y-146077376D01*
X209882405Y-146087938D01*
X209772256Y-146499019D01*
X209769003Y-146509335D01*
X209623450Y-146909240D01*
X209619310Y-146919235D01*
X209439454Y-147304937D01*
X209434459Y-147314532D01*
X209221676Y-147683083D01*
X209215864Y-147692207D01*
X208971762Y-148040820D01*
X208965177Y-148049402D01*
X208691616Y-148375420D01*
X208684307Y-148383395D01*
X208383395Y-148684307D01*
X208375420Y-148691616D01*
X208049402Y-148965177D01*
X208040820Y-148971762D01*
X207692207Y-149215864D01*
X207683083Y-149221676D01*
X207314532Y-149434459D01*
X207304937Y-149439454D01*
X206919235Y-149619310D01*
X206909240Y-149623450D01*
X206509335Y-149769003D01*
X206499019Y-149772256D01*
X206087938Y-149882405D01*
X206077376Y-149884746D01*
X205658274Y-149958644D01*
X205647549Y-149960056D01*
X205222926Y-149997206D01*
X205213472Y-149997671D01*
X205005455Y-149999940D01*
X205000640Y-149999993D01*
X204999290Y-150000000D01*
X145000710Y-150000000D01*
X144999359Y-149999993D01*
X144994454Y-149999939D01*
X144786527Y-149997671D01*
X144777073Y-149997206D01*
X144352450Y-149960056D01*
X144341725Y-149958644D01*
X143922623Y-149884746D01*
X143912061Y-149882405D01*
X143500980Y-149772256D01*
X143490664Y-149769003D01*
X143090759Y-149623450D01*
X143080764Y-149619310D01*
X142695062Y-149439454D01*
X142685467Y-149434459D01*
X142316916Y-149221676D01*
X142307792Y-149215864D01*
X141959179Y-148971762D01*
X141950597Y-148965177D01*
X141624579Y-148691616D01*
X141616604Y-148684307D01*
X141315692Y-148383395D01*
X141308383Y-148375420D01*
X141034822Y-148049402D01*
X141028237Y-148040820D01*
X140997887Y-147997476D01*
X140784132Y-147692203D01*
X140778323Y-147683083D01*
X140565540Y-147314532D01*
X140560545Y-147304937D01*
X140501252Y-147177783D01*
X140380683Y-146919221D01*
X140376555Y-146909255D01*
X140230992Y-146509322D01*
X140227747Y-146499033D01*
X140117590Y-146087921D01*
X140115256Y-146077393D01*
X140041354Y-145658270D01*
X140039943Y-145647549D01*
X140032988Y-145568051D01*
X140002792Y-145222915D01*
X140002328Y-145213471D01*
X140000007Y-145000641D01*
X140000004Y-144999999D01*
X141294922Y-144999999D01*
X141294922Y-145000000D01*
X141315219Y-145387287D01*
X141375886Y-145770323D01*
X141375887Y-145770330D01*
X141476262Y-146144936D01*
X141615244Y-146506994D01*
X141791310Y-146852543D01*
X142002523Y-147177783D01*
X142002525Y-147177785D01*
X142211096Y-147435348D01*
X143705747Y-145940697D01*
X143779588Y-146042330D01*
X143957670Y-146220412D01*
X144059301Y-146294251D01*
X142564650Y-147788902D01*
X142822214Y-147997475D01*
X142822216Y-147997476D01*
X143147456Y-148208689D01*
X143493005Y-148384755D01*
X143855063Y-148523737D01*
X144229669Y-148624112D01*
X144229676Y-148624113D01*
X144612712Y-148684780D01*
X144999999Y-148705078D01*
X145000001Y-148705078D01*
X145387287Y-148684780D01*
X145770323Y-148624113D01*
X145770330Y-148624112D01*
X146144936Y-148523737D01*
X146506994Y-148384755D01*
X146852543Y-148208689D01*
X147177771Y-147997484D01*
X147177784Y-147997474D01*
X147435348Y-147788902D01*
X145940698Y-146294252D01*
X146042330Y-146220412D01*
X146220412Y-146042330D01*
X146294252Y-145940698D01*
X147788902Y-147435348D01*
X147997474Y-147177784D01*
X147997484Y-147177771D01*
X148208689Y-146852543D01*
X148384755Y-146506994D01*
X148523737Y-146144936D01*
X148624112Y-145770330D01*
X148624113Y-145770323D01*
X148635066Y-145701170D01*
X156532411Y-145701170D01*
X156532411Y-145701175D01*
X156553494Y-145834294D01*
X156553495Y-145834297D01*
X156553496Y-145834299D01*
X156614687Y-145954393D01*
X156614688Y-145954394D01*
X156614691Y-145954398D01*
X156709989Y-146049696D01*
X156709993Y-146049699D01*
X156709995Y-146049701D01*
X156830089Y-146110892D01*
X156830091Y-146110892D01*
X156830093Y-146110893D01*
X156963213Y-146131977D01*
X156963215Y-146131977D01*
X156963217Y-146131977D01*
X157096336Y-146110893D01*
X157096336Y-146110892D01*
X157096341Y-146110892D01*
X157216435Y-146049701D01*
X157311743Y-145954393D01*
X157372934Y-145834299D01*
X157382111Y-145776347D01*
X157412040Y-145713215D01*
X157416886Y-145708083D01*
X157924970Y-145200000D01*
X166894540Y-145200000D01*
X166914326Y-145388256D01*
X166914327Y-145388259D01*
X166972818Y-145568277D01*
X166972821Y-145568284D01*
X167067467Y-145732216D01*
X167159383Y-145834299D01*
X167194129Y-145872888D01*
X167347265Y-145984148D01*
X167347270Y-145984151D01*
X167520192Y-146061142D01*
X167520197Y-146061144D01*
X167705354Y-146100500D01*
X167705355Y-146100500D01*
X167894644Y-146100500D01*
X167894646Y-146100500D01*
X168079803Y-146061144D01*
X168252730Y-145984151D01*
X168405871Y-145872888D01*
X168532533Y-145732216D01*
X168627179Y-145568284D01*
X168685674Y-145388256D01*
X168705460Y-145200000D01*
X177894540Y-145200000D01*
X177914326Y-145388256D01*
X177914327Y-145388259D01*
X177972818Y-145568277D01*
X177972821Y-145568284D01*
X178067467Y-145732216D01*
X178159383Y-145834299D01*
X178194129Y-145872888D01*
X178347265Y-145984148D01*
X178347270Y-145984151D01*
X178520192Y-146061142D01*
X178520197Y-146061144D01*
X178705354Y-146100500D01*
X178705355Y-146100500D01*
X178894644Y-146100500D01*
X178894646Y-146100500D01*
X179079803Y-146061144D01*
X179252730Y-145984151D01*
X179405871Y-145872888D01*
X179532533Y-145732216D01*
X179627179Y-145568284D01*
X179685674Y-145388256D01*
X179705460Y-145200000D01*
X179685674Y-145011744D01*
X179681858Y-144999999D01*
X201294922Y-144999999D01*
X201294922Y-145000000D01*
X201315219Y-145387287D01*
X201375886Y-145770323D01*
X201375887Y-145770330D01*
X201476262Y-146144936D01*
X201615244Y-146506994D01*
X201791310Y-146852543D01*
X202002523Y-147177783D01*
X202002525Y-147177785D01*
X202211096Y-147435348D01*
X203705747Y-145940697D01*
X203779588Y-146042330D01*
X203957670Y-146220412D01*
X204059301Y-146294251D01*
X202564650Y-147788902D01*
X202822214Y-147997475D01*
X202822216Y-147997476D01*
X203147456Y-148208689D01*
X203493005Y-148384755D01*
X203855063Y-148523737D01*
X204229669Y-148624112D01*
X204229676Y-148624113D01*
X204612712Y-148684780D01*
X204999999Y-148705078D01*
X205000001Y-148705078D01*
X205387287Y-148684780D01*
X205770323Y-148624113D01*
X205770330Y-148624112D01*
X206144936Y-148523737D01*
X206506994Y-148384755D01*
X206852543Y-148208689D01*
X207177771Y-147997484D01*
X207177784Y-147997474D01*
X207435348Y-147788902D01*
X205940698Y-146294252D01*
X206042330Y-146220412D01*
X206220412Y-146042330D01*
X206294252Y-145940698D01*
X207788902Y-147435348D01*
X207997474Y-147177784D01*
X207997484Y-147177771D01*
X208208689Y-146852543D01*
X208384755Y-146506994D01*
X208523737Y-146144936D01*
X208624112Y-145770330D01*
X208624113Y-145770323D01*
X208684780Y-145387287D01*
X208705078Y-145000000D01*
X208705078Y-144999999D01*
X208684780Y-144612712D01*
X208624113Y-144229676D01*
X208624112Y-144229669D01*
X208523737Y-143855063D01*
X208384755Y-143493005D01*
X208208689Y-143147456D01*
X207997476Y-142822216D01*
X207997475Y-142822214D01*
X207788902Y-142564650D01*
X206294251Y-144059301D01*
X206220412Y-143957670D01*
X206042330Y-143779588D01*
X205940698Y-143705748D01*
X207435349Y-142211096D01*
X207177785Y-142002525D01*
X207177783Y-142002523D01*
X206852543Y-141791310D01*
X206506994Y-141615244D01*
X206144936Y-141476262D01*
X205770330Y-141375887D01*
X205770323Y-141375886D01*
X205387287Y-141315219D01*
X205000001Y-141294922D01*
X204999999Y-141294922D01*
X204612712Y-141315219D01*
X204229676Y-141375886D01*
X204229669Y-141375887D01*
X203855063Y-141476262D01*
X203493005Y-141615244D01*
X203147456Y-141791310D01*
X202822206Y-142002531D01*
X202564649Y-142211095D01*
X202564649Y-142211096D01*
X204059301Y-143705748D01*
X203957670Y-143779588D01*
X203779588Y-143957670D01*
X203705748Y-144059301D01*
X202211096Y-142564649D01*
X202211095Y-142564649D01*
X202002531Y-142822206D01*
X201791310Y-143147456D01*
X201615244Y-143493005D01*
X201476262Y-143855063D01*
X201375887Y-144229669D01*
X201375886Y-144229676D01*
X201315219Y-144612712D01*
X201294922Y-144999999D01*
X179681858Y-144999999D01*
X179627179Y-144831716D01*
X179532533Y-144667784D01*
X179405871Y-144527112D01*
X179405870Y-144527111D01*
X179252734Y-144415851D01*
X179252729Y-144415848D01*
X179079807Y-144338857D01*
X179079802Y-144338855D01*
X178934001Y-144307865D01*
X178894646Y-144299500D01*
X178705354Y-144299500D01*
X178672897Y-144306398D01*
X178520197Y-144338855D01*
X178520192Y-144338857D01*
X178347270Y-144415848D01*
X178347265Y-144415851D01*
X178194129Y-144527111D01*
X178067468Y-144667783D01*
X178067466Y-144667784D01*
X177972821Y-144831715D01*
X177972818Y-144831722D01*
X177917933Y-145000642D01*
X177914326Y-145011744D01*
X177894540Y-145200000D01*
X168705460Y-145200000D01*
X168685674Y-145011744D01*
X168627179Y-144831716D01*
X168532533Y-144667784D01*
X168405871Y-144527112D01*
X168405870Y-144527111D01*
X168252734Y-144415851D01*
X168252729Y-144415848D01*
X168079807Y-144338857D01*
X168079802Y-144338855D01*
X167934001Y-144307865D01*
X167894646Y-144299500D01*
X167705354Y-144299500D01*
X167672897Y-144306398D01*
X167520197Y-144338855D01*
X167520192Y-144338857D01*
X167347270Y-144415848D01*
X167347265Y-144415851D01*
X167194129Y-144527111D01*
X167067468Y-144667783D01*
X167067466Y-144667784D01*
X166972821Y-144831715D01*
X166972818Y-144831722D01*
X166917933Y-145000642D01*
X166914326Y-145011744D01*
X166894540Y-145200000D01*
X157924970Y-145200000D01*
X158440460Y-144684511D01*
X158444764Y-144677055D01*
X158450117Y-144667785D01*
X158450117Y-144667784D01*
X158480021Y-144615989D01*
X158500500Y-144539562D01*
X158500500Y-137460188D01*
X158520185Y-137393149D01*
X158572989Y-137347394D01*
X158642147Y-137337450D01*
X158705703Y-137366475D01*
X158712181Y-137372507D01*
X163446261Y-142106587D01*
X163479746Y-142167910D01*
X163481053Y-142174869D01*
X163490280Y-142233123D01*
X163490279Y-142233123D01*
X163490281Y-142233126D01*
X163551472Y-142353220D01*
X163551474Y-142353222D01*
X163551476Y-142353225D01*
X163646774Y-142448523D01*
X163646778Y-142448526D01*
X163646780Y-142448528D01*
X163766874Y-142509719D01*
X163766876Y-142509719D01*
X163766878Y-142509720D01*
X163899998Y-142530804D01*
X163900000Y-142530804D01*
X163900002Y-142530804D01*
X164033121Y-142509720D01*
X164033121Y-142509719D01*
X164033126Y-142509719D01*
X164153220Y-142448528D01*
X164248528Y-142353220D01*
X164309719Y-142233126D01*
X164313208Y-142211096D01*
X164330804Y-142100002D01*
X164330804Y-142099997D01*
X164309720Y-141966878D01*
X164309719Y-141966876D01*
X164309719Y-141966874D01*
X164248528Y-141846780D01*
X164248526Y-141846778D01*
X164248523Y-141846774D01*
X164153225Y-141751476D01*
X164153222Y-141751474D01*
X164153220Y-141751472D01*
X164033126Y-141690281D01*
X164033124Y-141690280D01*
X164033123Y-141690280D01*
X163974869Y-141681053D01*
X163911735Y-141651123D01*
X163906587Y-141646261D01*
X163397507Y-141137181D01*
X163364022Y-141075858D01*
X163369006Y-141006166D01*
X163410878Y-140950233D01*
X163476342Y-140925816D01*
X163485188Y-140925500D01*
X163674795Y-140925500D01*
X163741834Y-140945185D01*
X163746555Y-140948412D01*
X163746777Y-140948525D01*
X163746780Y-140948528D01*
X163866874Y-141009719D01*
X163866876Y-141009719D01*
X163866878Y-141009720D01*
X163999998Y-141030804D01*
X164000000Y-141030804D01*
X164000002Y-141030804D01*
X164133121Y-141009720D01*
X164133121Y-141009719D01*
X164133126Y-141009719D01*
X164253220Y-140948528D01*
X164348528Y-140853220D01*
X164409719Y-140733126D01*
X164430804Y-140600000D01*
X164409719Y-140466874D01*
X164348528Y-140346780D01*
X164348526Y-140346778D01*
X164348523Y-140346774D01*
X164253225Y-140251476D01*
X164253221Y-140251473D01*
X164253220Y-140251472D01*
X164133126Y-140190281D01*
X164133124Y-140190280D01*
X164133121Y-140190279D01*
X164000002Y-140169196D01*
X163999998Y-140169196D01*
X163866878Y-140190279D01*
X163866874Y-140190280D01*
X163866874Y-140190281D01*
X163746780Y-140251472D01*
X163746778Y-140251473D01*
X163738085Y-140255903D01*
X163737368Y-140254497D01*
X163681872Y-140274298D01*
X163674795Y-140274500D01*
X163386189Y-140274500D01*
X163319150Y-140254815D01*
X163298508Y-140238181D01*
X160628913Y-137568586D01*
X199546556Y-137568586D01*
X199546556Y-138075525D01*
X199586924Y-138278468D01*
X199586926Y-138278476D01*
X199666114Y-138469652D01*
X199781080Y-138641713D01*
X199927398Y-138788031D01*
X199927401Y-138788033D01*
X200099458Y-138902997D01*
X200290636Y-138982186D01*
X200479243Y-139019702D01*
X200493586Y-139022555D01*
X200493590Y-139022556D01*
X200493591Y-139022556D01*
X200700522Y-139022556D01*
X200700523Y-139022555D01*
X200903476Y-138982186D01*
X201094654Y-138902997D01*
X201266711Y-138788033D01*
X201413033Y-138641711D01*
X201527997Y-138469654D01*
X201607186Y-138278476D01*
X201647556Y-138075521D01*
X201647556Y-137568591D01*
X201607186Y-137365636D01*
X201527997Y-137174458D01*
X201423313Y-137017786D01*
X202046556Y-137017786D01*
X202046556Y-138626325D01*
X202049409Y-138656755D01*
X202049409Y-138656757D01*
X202094262Y-138784936D01*
X202094263Y-138784938D01*
X202174906Y-138894206D01*
X202284174Y-138974849D01*
X202305145Y-138982187D01*
X202412355Y-139019702D01*
X202442786Y-139022556D01*
X202442790Y-139022556D01*
X203751326Y-139022556D01*
X203781755Y-139019702D01*
X203781757Y-139019702D01*
X203847488Y-138996701D01*
X203909938Y-138974849D01*
X204019206Y-138894206D01*
X204099849Y-138784938D01*
X204122275Y-138720846D01*
X204144702Y-138656757D01*
X204144702Y-138656755D01*
X204147556Y-138626325D01*
X204147556Y-137017786D01*
X204144702Y-136987356D01*
X204144702Y-136987354D01*
X204099849Y-136859175D01*
X204099848Y-136859173D01*
X204019206Y-136749906D01*
X203909938Y-136669263D01*
X203909936Y-136669262D01*
X203781756Y-136624409D01*
X203751326Y-136621556D01*
X203751322Y-136621556D01*
X202442790Y-136621556D01*
X202442786Y-136621556D01*
X202412356Y-136624409D01*
X202412354Y-136624409D01*
X202284175Y-136669262D01*
X202284173Y-136669263D01*
X202174906Y-136749906D01*
X202094263Y-136859173D01*
X202094262Y-136859175D01*
X202049409Y-136987354D01*
X202049409Y-136987356D01*
X202046556Y-137017786D01*
X201423313Y-137017786D01*
X201413033Y-137002401D01*
X201413031Y-137002398D01*
X201266713Y-136856080D01*
X201149273Y-136777610D01*
X201094654Y-136741115D01*
X200903476Y-136661926D01*
X200903468Y-136661924D01*
X200700525Y-136621556D01*
X200700521Y-136621556D01*
X200493591Y-136621556D01*
X200493586Y-136621556D01*
X200290643Y-136661924D01*
X200290635Y-136661926D01*
X200099459Y-136741114D01*
X199927398Y-136856080D01*
X199781080Y-137002398D01*
X199666114Y-137174459D01*
X199586926Y-137365635D01*
X199586924Y-137365643D01*
X199546556Y-137568586D01*
X160628913Y-137568586D01*
X160161819Y-137101492D01*
X160128334Y-137040169D01*
X160125500Y-137013811D01*
X160125500Y-136025205D01*
X160145185Y-135958166D01*
X160148412Y-135953444D01*
X160148524Y-135953223D01*
X160148528Y-135953220D01*
X160209719Y-135833126D01*
X160222170Y-135754516D01*
X160230804Y-135700002D01*
X160230804Y-135699997D01*
X160209720Y-135566878D01*
X160209719Y-135566876D01*
X160209719Y-135566874D01*
X160148528Y-135446780D01*
X160148526Y-135446778D01*
X160148523Y-135446774D01*
X160053225Y-135351476D01*
X160053221Y-135351473D01*
X160053220Y-135351472D01*
X159933126Y-135290281D01*
X159933124Y-135290280D01*
X159933121Y-135290279D01*
X159800002Y-135269196D01*
X159799998Y-135269196D01*
X159666878Y-135290279D01*
X159546778Y-135351473D01*
X159546774Y-135351476D01*
X159451476Y-135446774D01*
X159451473Y-135446778D01*
X159390279Y-135566878D01*
X159369196Y-135699997D01*
X159369196Y-135700002D01*
X159390279Y-135833121D01*
X159390280Y-135833124D01*
X159390281Y-135833126D01*
X159451472Y-135953220D01*
X159451473Y-135953221D01*
X159455903Y-135961915D01*
X159454497Y-135962631D01*
X159474298Y-136018128D01*
X159474500Y-136025205D01*
X159474500Y-136914811D01*
X159454815Y-136981850D01*
X159402011Y-137027605D01*
X159332853Y-137037549D01*
X159269297Y-137008524D01*
X159262819Y-137002492D01*
X158865843Y-136605516D01*
X158832358Y-136544193D01*
X158831376Y-136509760D01*
X158830804Y-136509760D01*
X158830804Y-136499997D01*
X158809720Y-136366878D01*
X158809719Y-136366876D01*
X158809719Y-136366874D01*
X158748528Y-136246780D01*
X158748526Y-136246778D01*
X158748523Y-136246774D01*
X158653225Y-136151476D01*
X158653221Y-136151473D01*
X158653220Y-136151472D01*
X158533126Y-136090281D01*
X158533124Y-136090280D01*
X158533121Y-136090279D01*
X158400002Y-136069196D01*
X158399998Y-136069196D01*
X158266878Y-136090279D01*
X158146778Y-136151473D01*
X158146774Y-136151476D01*
X158112181Y-136186070D01*
X158050858Y-136219555D01*
X157981166Y-136214571D01*
X157925233Y-136172699D01*
X157900816Y-136107235D01*
X157900500Y-136098389D01*
X157900500Y-135152610D01*
X157920185Y-135085571D01*
X157936816Y-135064931D01*
X157948528Y-135053220D01*
X158009719Y-134933126D01*
X158030804Y-134800000D01*
X158009719Y-134666874D01*
X157948528Y-134546780D01*
X157948526Y-134546778D01*
X157948523Y-134546774D01*
X157853225Y-134451476D01*
X157853221Y-134451473D01*
X157853220Y-134451472D01*
X157733126Y-134390281D01*
X157733124Y-134390280D01*
X157733121Y-134390279D01*
X157600002Y-134369196D01*
X157599998Y-134369196D01*
X157466878Y-134390279D01*
X157346778Y-134451473D01*
X157346774Y-134451476D01*
X157251476Y-134546774D01*
X157251473Y-134546778D01*
X157190279Y-134666878D01*
X157169196Y-134799997D01*
X157169196Y-134800002D01*
X157190279Y-134933121D01*
X157190280Y-134933124D01*
X157190281Y-134933126D01*
X157251472Y-135053220D01*
X157263180Y-135064928D01*
X157296666Y-135126249D01*
X157299500Y-135152610D01*
X157299500Y-136482025D01*
X157306932Y-136509760D01*
X157319979Y-136558453D01*
X157336042Y-136586275D01*
X157356411Y-136621554D01*
X157356411Y-136621556D01*
X157359537Y-136626970D01*
X157359541Y-136626975D01*
X157863181Y-137130615D01*
X157896666Y-137191938D01*
X157899500Y-137218296D01*
X157899500Y-144324166D01*
X157879815Y-144391205D01*
X157863181Y-144411847D01*
X157040948Y-145234079D01*
X156979625Y-145267564D01*
X156972665Y-145268871D01*
X156830093Y-145291452D01*
X156709993Y-145352646D01*
X156709989Y-145352649D01*
X156614691Y-145447947D01*
X156614688Y-145447951D01*
X156553494Y-145568051D01*
X156532411Y-145701170D01*
X148635066Y-145701170D01*
X148684780Y-145387287D01*
X148705078Y-145000000D01*
X148705078Y-144999999D01*
X148684780Y-144612712D01*
X148624113Y-144229676D01*
X148624112Y-144229669D01*
X148523737Y-143855063D01*
X148384755Y-143493005D01*
X148208689Y-143147456D01*
X147997476Y-142822216D01*
X147997475Y-142822214D01*
X147788902Y-142564650D01*
X146294251Y-144059301D01*
X146220412Y-143957670D01*
X146042330Y-143779588D01*
X145940698Y-143705748D01*
X147435349Y-142211096D01*
X147177785Y-142002525D01*
X147177783Y-142002523D01*
X146852543Y-141791310D01*
X146506994Y-141615244D01*
X146144936Y-141476262D01*
X145770330Y-141375887D01*
X145770323Y-141375886D01*
X145387287Y-141315219D01*
X145000001Y-141294922D01*
X144999999Y-141294922D01*
X144612712Y-141315219D01*
X144229676Y-141375886D01*
X144229669Y-141375887D01*
X143855063Y-141476262D01*
X143493005Y-141615244D01*
X143147456Y-141791310D01*
X142822206Y-142002531D01*
X142564649Y-142211095D01*
X142564649Y-142211096D01*
X144059301Y-143705748D01*
X143957670Y-143779588D01*
X143779588Y-143957670D01*
X143705748Y-144059301D01*
X142211096Y-142564649D01*
X142211095Y-142564649D01*
X142002531Y-142822206D01*
X141791310Y-143147456D01*
X141615244Y-143493005D01*
X141476262Y-143855063D01*
X141375887Y-144229669D01*
X141375886Y-144229676D01*
X141315219Y-144612712D01*
X141294922Y-144999999D01*
X140000004Y-144999999D01*
X140000000Y-144999289D01*
X140000000Y-136349999D01*
X141495197Y-136349999D01*
X141495197Y-136350000D01*
X141514397Y-136716353D01*
X141571784Y-137078684D01*
X141571784Y-137078686D01*
X141666736Y-137433051D01*
X141798204Y-137775535D01*
X141964754Y-138102406D01*
X142164553Y-138410070D01*
X142353297Y-138643148D01*
X143241777Y-137754668D01*
X143304731Y-137836711D01*
X143513289Y-138045269D01*
X143595330Y-138108221D01*
X142706850Y-138996701D01*
X142939929Y-139185446D01*
X143247593Y-139385245D01*
X143574464Y-139551795D01*
X143916948Y-139683263D01*
X144271314Y-139778215D01*
X144633646Y-139835602D01*
X144999999Y-139854803D01*
X145000001Y-139854803D01*
X145366353Y-139835602D01*
X145728684Y-139778215D01*
X145728686Y-139778215D01*
X146083051Y-139683263D01*
X146425535Y-139551795D01*
X146752406Y-139385245D01*
X147060064Y-139185450D01*
X147293148Y-138996701D01*
X146404669Y-138108222D01*
X146486711Y-138045269D01*
X146695269Y-137836711D01*
X146758222Y-137754669D01*
X147646701Y-138643148D01*
X147835450Y-138410064D01*
X148035245Y-138102406D01*
X148201795Y-137775535D01*
X148333263Y-137433051D01*
X148428215Y-137078686D01*
X148428215Y-137078684D01*
X148485602Y-136716353D01*
X148504803Y-136350000D01*
X148504803Y-136349999D01*
X148485602Y-135983646D01*
X148428215Y-135621315D01*
X148428215Y-135621313D01*
X148333263Y-135266948D01*
X148201795Y-134924464D01*
X148035245Y-134597594D01*
X147835446Y-134289929D01*
X147736231Y-134167410D01*
X168749500Y-134167410D01*
X168749500Y-136232588D01*
X168764988Y-136389853D01*
X168826202Y-136591649D01*
X168925600Y-136777610D01*
X168925605Y-136777616D01*
X169059378Y-136940621D01*
X169222383Y-137074394D01*
X169222389Y-137074399D01*
X169408350Y-137173797D01*
X169408352Y-137173797D01*
X169408355Y-137173799D01*
X169610145Y-137235011D01*
X169610144Y-137235011D01*
X169621255Y-137236105D01*
X169767407Y-137250500D01*
X171832592Y-137250499D01*
X171989855Y-137235011D01*
X172191645Y-137173799D01*
X172191649Y-137173797D01*
X172377610Y-137074399D01*
X172377612Y-137074396D01*
X172377616Y-137074395D01*
X172540621Y-136940621D01*
X172674395Y-136777616D01*
X172674396Y-136777612D01*
X172674399Y-136777610D01*
X172773797Y-136591649D01*
X172773797Y-136591648D01*
X172773799Y-136591645D01*
X172835011Y-136389855D01*
X172850500Y-136232593D01*
X172850499Y-135200000D01*
X173744709Y-135200000D01*
X173763851Y-135479862D01*
X173763852Y-135479864D01*
X173820921Y-135754499D01*
X173820926Y-135754516D01*
X173914863Y-136018828D01*
X173914864Y-136018830D01*
X174043919Y-136267896D01*
X174205688Y-136497069D01*
X174205692Y-136497073D01*
X174205692Y-136497074D01*
X174327010Y-136626974D01*
X174397155Y-136702081D01*
X174614754Y-136879111D01*
X174614756Y-136879112D01*
X174614757Y-136879113D01*
X174854433Y-137024863D01*
X174978347Y-137078686D01*
X175111725Y-137136620D01*
X175381839Y-137212303D01*
X175626159Y-137245884D01*
X175659741Y-137250500D01*
X175659742Y-137250500D01*
X175940259Y-137250500D01*
X175970219Y-137246381D01*
X176218161Y-137212303D01*
X176488275Y-137136620D01*
X176745568Y-137024862D01*
X176985246Y-136879111D01*
X177202845Y-136702081D01*
X177394312Y-136497069D01*
X177556081Y-136267896D01*
X177685136Y-136018830D01*
X177779075Y-135754511D01*
X177779076Y-135754504D01*
X177779078Y-135754499D01*
X177818066Y-135566878D01*
X177836148Y-135479862D01*
X177855291Y-135200000D01*
X177836148Y-134920138D01*
X177783520Y-134666878D01*
X177779078Y-134645500D01*
X177779073Y-134645483D01*
X177710123Y-134451476D01*
X177685136Y-134381170D01*
X177556081Y-134132104D01*
X177394312Y-133902931D01*
X177394307Y-133902925D01*
X177202845Y-133697919D01*
X176985246Y-133520889D01*
X176985244Y-133520888D01*
X176985242Y-133520886D01*
X176745566Y-133375136D01*
X176488276Y-133263380D01*
X176218166Y-133187698D01*
X176218162Y-133187697D01*
X176218161Y-133187697D01*
X176052941Y-133164988D01*
X175940259Y-133149500D01*
X175940258Y-133149500D01*
X175659742Y-133149500D01*
X175659741Y-133149500D01*
X175381839Y-133187697D01*
X175381833Y-133187698D01*
X175111723Y-133263380D01*
X174854433Y-133375136D01*
X174614757Y-133520886D01*
X174397154Y-133697919D01*
X174205692Y-133902925D01*
X174205692Y-133902926D01*
X174205689Y-133902928D01*
X174205688Y-133902931D01*
X174184376Y-133933123D01*
X174043919Y-134132103D01*
X173914863Y-134381171D01*
X173820926Y-134645483D01*
X173820921Y-134645500D01*
X173763852Y-134920135D01*
X173763851Y-134920137D01*
X173744709Y-135200000D01*
X172850499Y-135200000D01*
X172850499Y-134167408D01*
X172835011Y-134010145D01*
X172773799Y-133808355D01*
X172773797Y-133808352D01*
X172773797Y-133808350D01*
X172674399Y-133622389D01*
X172674394Y-133622383D01*
X172540621Y-133459378D01*
X172377616Y-133325605D01*
X172377610Y-133325600D01*
X172191649Y-133226202D01*
X172064717Y-133187698D01*
X171989855Y-133164989D01*
X171989853Y-133164988D01*
X171989855Y-133164988D01*
X171877035Y-133153877D01*
X171832593Y-133149500D01*
X171832589Y-133149500D01*
X169767411Y-133149500D01*
X169610146Y-133164988D01*
X169408350Y-133226202D01*
X169222389Y-133325600D01*
X169222383Y-133325605D01*
X169059378Y-133459378D01*
X168925605Y-133622383D01*
X168925600Y-133622389D01*
X168826202Y-133808350D01*
X168764988Y-134010146D01*
X168756139Y-134100000D01*
X168751360Y-134148528D01*
X168749500Y-134167410D01*
X147736231Y-134167410D01*
X147646701Y-134056850D01*
X146758221Y-134945329D01*
X146695269Y-134863289D01*
X146486711Y-134654731D01*
X146404668Y-134591776D01*
X147293148Y-133703297D01*
X147060070Y-133514553D01*
X146752406Y-133314754D01*
X146425535Y-133148204D01*
X146083051Y-133016736D01*
X145728685Y-132921784D01*
X145366353Y-132864397D01*
X145000001Y-132845197D01*
X144999999Y-132845197D01*
X144633646Y-132864397D01*
X144271315Y-132921784D01*
X144271313Y-132921784D01*
X143916948Y-133016736D01*
X143574464Y-133148204D01*
X143247594Y-133314754D01*
X142939924Y-133514557D01*
X142706850Y-133703295D01*
X142706849Y-133703296D01*
X143595330Y-134591777D01*
X143513289Y-134654731D01*
X143304731Y-134863289D01*
X143241777Y-134945330D01*
X142353296Y-134056849D01*
X142353295Y-134056850D01*
X142164557Y-134289924D01*
X141964754Y-134597594D01*
X141798204Y-134924464D01*
X141666736Y-135266948D01*
X141571784Y-135621313D01*
X141571784Y-135621315D01*
X141514397Y-135983646D01*
X141495197Y-136349999D01*
X140000000Y-136349999D01*
X140000000Y-127545576D01*
X141799500Y-127545576D01*
X141799500Y-130754423D01*
X141800653Y-130778468D01*
X141802313Y-130813104D01*
X141829573Y-130969652D01*
X141847107Y-131070343D01*
X141847107Y-131070344D01*
X141866217Y-131126937D01*
X141930643Y-131317730D01*
X142026055Y-131501492D01*
X142050966Y-131549470D01*
X142205244Y-131760113D01*
X142205248Y-131760118D01*
X142389881Y-131944751D01*
X142389886Y-131944755D01*
X142600529Y-132099033D01*
X142600532Y-132099034D01*
X142600534Y-132099036D01*
X142832270Y-132219357D01*
X143079657Y-132302893D01*
X143336896Y-132347687D01*
X143395590Y-132350500D01*
X143395607Y-132350500D01*
X146604393Y-132350500D01*
X146604410Y-132350500D01*
X146663104Y-132347687D01*
X146920343Y-132302893D01*
X147167730Y-132219357D01*
X147399466Y-132099036D01*
X147610119Y-131944751D01*
X147794751Y-131760119D01*
X147949036Y-131549466D01*
X148069357Y-131317730D01*
X148152893Y-131070343D01*
X148197687Y-130813104D01*
X148200500Y-130754410D01*
X148200500Y-127545590D01*
X148197687Y-127486896D01*
X148152893Y-127229657D01*
X148069357Y-126982270D01*
X147949036Y-126750534D01*
X147949034Y-126750532D01*
X147949033Y-126750529D01*
X147948635Y-126749986D01*
X150000001Y-126749986D01*
X150010494Y-126852697D01*
X150065641Y-127019119D01*
X150065643Y-127019124D01*
X150157684Y-127168345D01*
X150281654Y-127292315D01*
X150430875Y-127384356D01*
X150430880Y-127384358D01*
X150597302Y-127439505D01*
X150597309Y-127439506D01*
X150700019Y-127449999D01*
X152949999Y-127449999D01*
X152950000Y-127449998D01*
X152950000Y-126300000D01*
X153450000Y-126300000D01*
X153450000Y-127449999D01*
X155699972Y-127449999D01*
X155699986Y-127449998D01*
X155802697Y-127439505D01*
X155969119Y-127384358D01*
X155969124Y-127384356D01*
X156118342Y-127292317D01*
X156173167Y-127237492D01*
X156234490Y-127204007D01*
X156304182Y-127208991D01*
X156325946Y-127219635D01*
X156430869Y-127284353D01*
X156430880Y-127284358D01*
X156597302Y-127339505D01*
X156597309Y-127339506D01*
X156700019Y-127349999D01*
X158949999Y-127349999D01*
X159450000Y-127349999D01*
X161699972Y-127349999D01*
X161699986Y-127349998D01*
X161802697Y-127339505D01*
X161969119Y-127284358D01*
X161969124Y-127284356D01*
X162118345Y-127192315D01*
X162242315Y-127068345D01*
X162334356Y-126919124D01*
X162334358Y-126919119D01*
X162389505Y-126752697D01*
X162389506Y-126752690D01*
X162399999Y-126649986D01*
X162400000Y-126649973D01*
X162400000Y-126200000D01*
X159450000Y-126200000D01*
X159450000Y-127349999D01*
X158949999Y-127349999D01*
X158950000Y-127349998D01*
X158950000Y-126200000D01*
X156530000Y-126200000D01*
X156520023Y-126209976D01*
X156510315Y-126243039D01*
X156457511Y-126288794D01*
X156406000Y-126300000D01*
X153450000Y-126300000D01*
X152950000Y-126300000D01*
X150000001Y-126300000D01*
X150000001Y-126749986D01*
X147948635Y-126749986D01*
X147794755Y-126539886D01*
X147794751Y-126539881D01*
X147610118Y-126355248D01*
X147610113Y-126355244D01*
X147399470Y-126200966D01*
X147341159Y-126170690D01*
X147167730Y-126080643D01*
X146920343Y-125997107D01*
X146663104Y-125952313D01*
X146652098Y-125951785D01*
X146604423Y-125949500D01*
X146604410Y-125949500D01*
X143395590Y-125949500D01*
X143395576Y-125949500D01*
X143344232Y-125951961D01*
X143336896Y-125952313D01*
X143165403Y-125982175D01*
X143079656Y-125997107D01*
X143079655Y-125997107D01*
X142832270Y-126080643D01*
X142600529Y-126200966D01*
X142389886Y-126355244D01*
X142389881Y-126355248D01*
X142205248Y-126539881D01*
X142205244Y-126539886D01*
X142050966Y-126750529D01*
X141930643Y-126982270D01*
X141847107Y-127229655D01*
X141847107Y-127229656D01*
X141833165Y-127309720D01*
X141810566Y-127439505D01*
X141802313Y-127486898D01*
X141799500Y-127545576D01*
X140000000Y-127545576D01*
X140000000Y-116724728D01*
X146394500Y-116724728D01*
X146394500Y-125376007D01*
X146399197Y-125419686D01*
X146410397Y-125471174D01*
X146412890Y-125481372D01*
X146412891Y-125481375D01*
X146455899Y-125562083D01*
X146455901Y-125562086D01*
X146501660Y-125614895D01*
X146519242Y-125632839D01*
X146519246Y-125632843D01*
X146519247Y-125632844D01*
X146519249Y-125632845D01*
X146576689Y-125664975D01*
X146599063Y-125677490D01*
X146666102Y-125697175D01*
X146724000Y-125705500D01*
X146724004Y-125705500D01*
X148675991Y-125705500D01*
X148676000Y-125705500D01*
X148719684Y-125700803D01*
X148748875Y-125694452D01*
X148771174Y-125689602D01*
X148771190Y-125689598D01*
X148771195Y-125689597D01*
X148781373Y-125687110D01*
X148862085Y-125644100D01*
X148914889Y-125598345D01*
X148932843Y-125580754D01*
X148977490Y-125500937D01*
X148997175Y-125433898D01*
X149005500Y-125376000D01*
X149005500Y-125350013D01*
X150000000Y-125350013D01*
X150000000Y-125800000D01*
X152950000Y-125800000D01*
X152950000Y-124650000D01*
X153450000Y-124650000D01*
X153450000Y-125800000D01*
X155870000Y-125800000D01*
X155879976Y-125790023D01*
X155889685Y-125756961D01*
X155942489Y-125711206D01*
X155994000Y-125700000D01*
X158950000Y-125700000D01*
X159450000Y-125700000D01*
X162399999Y-125700000D01*
X162399999Y-125250028D01*
X162399998Y-125250013D01*
X162389505Y-125147302D01*
X162334358Y-124980880D01*
X162334356Y-124980875D01*
X162242315Y-124831654D01*
X162118345Y-124707684D01*
X161969124Y-124615643D01*
X161969119Y-124615641D01*
X161802697Y-124560494D01*
X161802690Y-124560493D01*
X161699986Y-124550000D01*
X159450000Y-124550000D01*
X159450000Y-125700000D01*
X158950000Y-125700000D01*
X158950000Y-124550000D01*
X156700028Y-124550000D01*
X156700012Y-124550001D01*
X156597302Y-124560494D01*
X156430880Y-124615641D01*
X156430875Y-124615643D01*
X156281656Y-124707682D01*
X156226830Y-124762508D01*
X156165506Y-124795992D01*
X156095815Y-124791006D01*
X156074054Y-124780364D01*
X155969128Y-124715645D01*
X155969119Y-124715641D01*
X155802697Y-124660494D01*
X155802690Y-124660493D01*
X155699986Y-124650000D01*
X153450000Y-124650000D01*
X152950000Y-124650000D01*
X150700028Y-124650000D01*
X150700012Y-124650001D01*
X150597302Y-124660494D01*
X150430880Y-124715641D01*
X150430875Y-124715643D01*
X150281654Y-124807684D01*
X150157684Y-124931654D01*
X150065643Y-125080875D01*
X150065641Y-125080880D01*
X150010494Y-125247302D01*
X150010493Y-125247309D01*
X150000000Y-125350013D01*
X149005500Y-125350013D01*
X149005500Y-124031968D01*
X149025185Y-123964929D01*
X149077989Y-123919174D01*
X149130423Y-123907971D01*
X162073541Y-124004561D01*
X162118011Y-124000031D01*
X162136793Y-123996018D01*
X162206464Y-124001260D01*
X162262242Y-124043338D01*
X162286417Y-124108893D01*
X162286676Y-124114776D01*
X162291953Y-124375996D01*
X162292088Y-124382652D01*
X162292088Y-124382658D01*
X162297194Y-124424206D01*
X162297198Y-124424234D01*
X162308368Y-124473189D01*
X162310411Y-124481373D01*
X162353420Y-124562083D01*
X162353422Y-124562086D01*
X162399181Y-124614895D01*
X162416763Y-124632839D01*
X162416767Y-124632843D01*
X162416768Y-124632844D01*
X162416770Y-124632845D01*
X162496580Y-124677488D01*
X162496584Y-124677490D01*
X162563623Y-124697175D01*
X162621521Y-124705500D01*
X162621525Y-124705500D01*
X163125950Y-124705500D01*
X163192989Y-124725185D01*
X163238744Y-124777989D01*
X163248688Y-124847147D01*
X163219663Y-124910703D01*
X163213631Y-124917181D01*
X163061891Y-125068920D01*
X163061886Y-125068926D01*
X162926400Y-125262420D01*
X162926399Y-125262422D01*
X162826570Y-125476507D01*
X162826567Y-125476513D01*
X162769364Y-125689999D01*
X162769364Y-125690000D01*
X163666988Y-125690000D01*
X163634075Y-125747007D01*
X163600000Y-125874174D01*
X163600000Y-126005826D01*
X163634075Y-126132993D01*
X163666988Y-126190000D01*
X162769364Y-126190000D01*
X162826567Y-126403486D01*
X162826570Y-126403492D01*
X162926399Y-126617578D01*
X163061894Y-126811082D01*
X163228917Y-126978105D01*
X163422421Y-127113600D01*
X163636507Y-127213429D01*
X163636516Y-127213433D01*
X163758649Y-127246158D01*
X163818310Y-127282523D01*
X163848839Y-127345369D01*
X163840545Y-127414745D01*
X163796059Y-127468623D01*
X163762552Y-127484593D01*
X163696046Y-127504767D01*
X163565358Y-127574622D01*
X163513550Y-127602315D01*
X163513548Y-127602316D01*
X163513547Y-127602317D01*
X163353589Y-127733589D01*
X163259263Y-127848528D01*
X163222315Y-127893550D01*
X163213672Y-127909720D01*
X163124769Y-128076043D01*
X163064699Y-128274067D01*
X163044417Y-128480000D01*
X163064699Y-128685932D01*
X163064700Y-128685934D01*
X163124768Y-128883954D01*
X163222315Y-129066450D01*
X163222317Y-129066452D01*
X163353589Y-129226410D01*
X163427828Y-129287335D01*
X163513550Y-129357685D01*
X163696046Y-129455232D01*
X163894066Y-129515300D01*
X163894065Y-129515300D01*
X163912529Y-129517118D01*
X164100000Y-129535583D01*
X164305934Y-129515300D01*
X164503954Y-129455232D01*
X164686450Y-129357685D01*
X164846410Y-129226410D01*
X164977685Y-129066450D01*
X165075232Y-128883954D01*
X165135300Y-128685934D01*
X165155583Y-128480000D01*
X165135300Y-128274066D01*
X165075232Y-128076046D01*
X164977685Y-127893550D01*
X164925702Y-127830209D01*
X164846410Y-127733589D01*
X164728677Y-127636969D01*
X164686450Y-127602315D01*
X164503954Y-127504768D01*
X164437447Y-127484593D01*
X164379009Y-127446296D01*
X164350553Y-127382484D01*
X164361113Y-127313417D01*
X164407337Y-127261023D01*
X164441350Y-127246158D01*
X164563483Y-127213433D01*
X164563492Y-127213429D01*
X164777578Y-127113600D01*
X164971082Y-126978105D01*
X165138105Y-126811082D01*
X165273600Y-126617578D01*
X165373429Y-126403492D01*
X165373432Y-126403486D01*
X165430636Y-126190000D01*
X164533012Y-126190000D01*
X164565925Y-126132993D01*
X164600000Y-126005826D01*
X164600000Y-125874174D01*
X164565925Y-125747007D01*
X164533012Y-125690000D01*
X165430636Y-125690000D01*
X165430635Y-125689999D01*
X165373432Y-125476513D01*
X165373429Y-125476507D01*
X165273600Y-125262422D01*
X165273599Y-125262420D01*
X165138113Y-125068926D01*
X165138108Y-125068920D01*
X164986369Y-124917181D01*
X164952884Y-124855858D01*
X164957868Y-124786166D01*
X164999740Y-124730233D01*
X165065204Y-124705816D01*
X165074050Y-124705500D01*
X165475991Y-124705500D01*
X165476000Y-124705500D01*
X165519684Y-124700803D01*
X165548875Y-124694452D01*
X165571174Y-124689602D01*
X165571190Y-124689598D01*
X165571195Y-124689597D01*
X165581373Y-124687110D01*
X165662085Y-124644100D01*
X165714889Y-124598345D01*
X165732843Y-124580754D01*
X165777490Y-124500937D01*
X165797175Y-124433898D01*
X165805500Y-124376000D01*
X165805500Y-123024500D01*
X165825185Y-122957461D01*
X165877989Y-122911706D01*
X165929500Y-122900500D01*
X168922844Y-122900500D01*
X168989883Y-122920185D01*
X169035638Y-122972989D01*
X169045582Y-123042147D01*
X169016557Y-123105703D01*
X168979141Y-123134982D01*
X168947582Y-123151063D01*
X168946778Y-123151473D01*
X168946774Y-123151476D01*
X168851476Y-123246774D01*
X168851473Y-123246778D01*
X168851472Y-123246780D01*
X168807477Y-123333126D01*
X168790279Y-123366878D01*
X168769196Y-123499997D01*
X168769196Y-123500002D01*
X168790279Y-123633121D01*
X168790280Y-123633124D01*
X168790281Y-123633126D01*
X168848466Y-123747320D01*
X168851473Y-123753221D01*
X168851476Y-123753225D01*
X168946774Y-123848523D01*
X168946778Y-123848526D01*
X168946780Y-123848528D01*
X169066874Y-123909719D01*
X169066876Y-123909719D01*
X169066878Y-123909720D01*
X169199998Y-123930804D01*
X169200000Y-123930804D01*
X169200002Y-123930804D01*
X169333121Y-123909720D01*
X169333121Y-123909719D01*
X169333126Y-123909719D01*
X169453220Y-123848528D01*
X169483424Y-123818324D01*
X169555429Y-123746320D01*
X169556429Y-123747320D01*
X169603534Y-123710994D01*
X169673147Y-123705012D01*
X169734944Y-123737614D01*
X169748071Y-123752764D01*
X169843830Y-123848523D01*
X169843834Y-123848526D01*
X169843836Y-123848528D01*
X169963930Y-123909719D01*
X169963932Y-123909719D01*
X169963934Y-123909720D01*
X170097054Y-123930804D01*
X170097056Y-123930804D01*
X170097058Y-123930804D01*
X170230177Y-123909720D01*
X170230177Y-123909719D01*
X170230182Y-123909719D01*
X170350276Y-123848528D01*
X170445584Y-123753220D01*
X170486572Y-123672775D01*
X170534545Y-123621981D01*
X170602366Y-123605186D01*
X170668501Y-123627723D01*
X170707539Y-123672774D01*
X170745522Y-123747320D01*
X170748529Y-123753221D01*
X170748532Y-123753225D01*
X170843830Y-123848523D01*
X170843834Y-123848526D01*
X170843836Y-123848528D01*
X170963930Y-123909719D01*
X170963932Y-123909719D01*
X170963934Y-123909720D01*
X171097054Y-123930804D01*
X171097056Y-123930804D01*
X171097058Y-123930804D01*
X171230177Y-123909720D01*
X171230177Y-123909719D01*
X171230182Y-123909719D01*
X171350276Y-123848528D01*
X171445584Y-123753220D01*
X171445585Y-123753216D01*
X171448205Y-123749612D01*
X171503532Y-123706942D01*
X171573145Y-123700958D01*
X171634942Y-123733560D01*
X171648851Y-123749612D01*
X171651474Y-123753223D01*
X171746774Y-123848523D01*
X171746778Y-123848526D01*
X171746780Y-123848528D01*
X171866874Y-123909719D01*
X171866876Y-123909719D01*
X171866878Y-123909720D01*
X171999998Y-123930804D01*
X172000000Y-123930804D01*
X172000002Y-123930804D01*
X172133121Y-123909720D01*
X172133121Y-123909719D01*
X172133126Y-123909719D01*
X172253220Y-123848528D01*
X172348528Y-123753220D01*
X172389516Y-123672775D01*
X172437489Y-123621981D01*
X172505310Y-123605186D01*
X172571445Y-123627723D01*
X172610483Y-123672774D01*
X172648466Y-123747320D01*
X172651473Y-123753221D01*
X172651476Y-123753225D01*
X172746774Y-123848523D01*
X172746778Y-123848526D01*
X172746780Y-123848528D01*
X172866874Y-123909719D01*
X172866876Y-123909719D01*
X172866878Y-123909720D01*
X172999998Y-123930804D01*
X173000000Y-123930804D01*
X173000002Y-123930804D01*
X173133121Y-123909720D01*
X173133121Y-123909719D01*
X173133126Y-123909719D01*
X173253220Y-123848528D01*
X173348528Y-123753220D01*
X173389516Y-123672775D01*
X173437489Y-123621981D01*
X173505310Y-123605186D01*
X173571445Y-123627723D01*
X173610483Y-123672774D01*
X173648466Y-123747320D01*
X173651473Y-123753221D01*
X173651476Y-123753225D01*
X173746774Y-123848523D01*
X173746778Y-123848526D01*
X173746780Y-123848528D01*
X173866874Y-123909719D01*
X173866876Y-123909719D01*
X173866878Y-123909720D01*
X173999998Y-123930804D01*
X174000000Y-123930804D01*
X174000002Y-123930804D01*
X174133121Y-123909720D01*
X174133121Y-123909719D01*
X174133126Y-123909719D01*
X174253220Y-123848528D01*
X174348528Y-123753220D01*
X174409719Y-123633126D01*
X174413426Y-123609720D01*
X174430804Y-123500002D01*
X174430804Y-123499997D01*
X174409720Y-123366878D01*
X174409719Y-123366876D01*
X174409719Y-123366874D01*
X174348528Y-123246780D01*
X174348526Y-123246778D01*
X174348523Y-123246774D01*
X174253225Y-123151476D01*
X174253221Y-123151473D01*
X174253220Y-123151472D01*
X174220859Y-123134983D01*
X174170065Y-123087011D01*
X174153270Y-123019190D01*
X174175807Y-122953055D01*
X174230522Y-122909603D01*
X174277156Y-122900500D01*
X176152725Y-122900500D01*
X176152727Y-122900500D01*
X176254588Y-122873207D01*
X176345913Y-122820480D01*
X177320480Y-121845913D01*
X177373207Y-121754588D01*
X177400500Y-121652727D01*
X177400500Y-121547273D01*
X177400500Y-119901611D01*
X177420185Y-119834572D01*
X177472989Y-119788817D01*
X177542147Y-119778873D01*
X177605703Y-119807898D01*
X177612181Y-119813930D01*
X177643830Y-119845579D01*
X177643834Y-119845582D01*
X177643836Y-119845584D01*
X177763930Y-119906775D01*
X177763932Y-119906775D01*
X177763934Y-119906776D01*
X177897054Y-119927860D01*
X177897056Y-119927860D01*
X177897058Y-119927860D01*
X177963619Y-119917317D01*
X178030182Y-119906775D01*
X178116262Y-119862914D01*
X178184930Y-119850018D01*
X178249670Y-119876294D01*
X178289928Y-119933400D01*
X178296556Y-119973399D01*
X178296556Y-125201805D01*
X178276871Y-125268844D01*
X178260237Y-125289486D01*
X177754522Y-125795200D01*
X177754520Y-125795203D01*
X177701793Y-125886526D01*
X177674782Y-125987337D01*
X177674777Y-125987355D01*
X177674500Y-125988386D01*
X177674500Y-128227726D01*
X177701793Y-128329589D01*
X177728156Y-128375250D01*
X177754520Y-128420913D01*
X177754522Y-128420915D01*
X179563181Y-130229574D01*
X179596666Y-130290897D01*
X179599500Y-130317255D01*
X179599500Y-131116620D01*
X179579815Y-131183659D01*
X179573876Y-131192106D01*
X179540975Y-131234982D01*
X179488027Y-131362813D01*
X179488026Y-131362816D01*
X179488026Y-131362817D01*
X179482736Y-131402997D01*
X179469965Y-131499999D01*
X179469965Y-131500000D01*
X179488026Y-131637181D01*
X179488027Y-131637186D01*
X179540974Y-131765015D01*
X179540975Y-131765017D01*
X179540976Y-131765018D01*
X179625209Y-131874791D01*
X179734982Y-131959024D01*
X179862817Y-132011974D01*
X179985702Y-132028152D01*
X179999999Y-132030035D01*
X180000000Y-132030035D01*
X180000001Y-132030035D01*
X180012947Y-132028330D01*
X180137183Y-132011974D01*
X180265018Y-131959024D01*
X180374791Y-131874791D01*
X180459024Y-131765018D01*
X180511974Y-131637183D01*
X180530035Y-131500000D01*
X180511974Y-131362817D01*
X180459024Y-131234983D01*
X180459024Y-131234982D01*
X180426124Y-131192106D01*
X180400930Y-131126937D01*
X180400500Y-131116620D01*
X180400500Y-130047275D01*
X180400500Y-130047273D01*
X180373207Y-129945413D01*
X180373207Y-129945412D01*
X180320480Y-129854087D01*
X178511819Y-128045426D01*
X178478334Y-127984103D01*
X178475500Y-127957745D01*
X178475500Y-126258371D01*
X178495185Y-126191332D01*
X178511819Y-126170690D01*
X178736925Y-125945584D01*
X179017536Y-125664973D01*
X179070263Y-125573648D01*
X179097556Y-125471787D01*
X179097556Y-125366333D01*
X179097556Y-121199997D01*
X179969196Y-121199997D01*
X179969196Y-121200002D01*
X179990279Y-121333121D01*
X179990280Y-121333124D01*
X179990281Y-121333126D01*
X180050886Y-121452069D01*
X180051473Y-121453221D01*
X180051476Y-121453225D01*
X180146774Y-121548523D01*
X180146776Y-121548524D01*
X180146780Y-121548528D01*
X180227222Y-121589515D01*
X180278018Y-121637490D01*
X180294813Y-121705311D01*
X180272275Y-121771446D01*
X180227222Y-121810484D01*
X180146780Y-121851472D01*
X180146779Y-121851473D01*
X180146774Y-121851476D01*
X180051476Y-121946774D01*
X180051473Y-121946778D01*
X179990279Y-122066878D01*
X179969196Y-122199997D01*
X179969196Y-122200002D01*
X179990279Y-122333121D01*
X179990280Y-122333124D01*
X179990281Y-122333126D01*
X180045780Y-122442048D01*
X180051473Y-122453221D01*
X180051476Y-122453225D01*
X180146774Y-122548523D01*
X180146776Y-122548524D01*
X180146780Y-122548528D01*
X180227222Y-122589515D01*
X180278018Y-122637490D01*
X180294813Y-122705311D01*
X180272275Y-122771446D01*
X180227222Y-122810484D01*
X180146780Y-122851472D01*
X180146779Y-122851473D01*
X180146774Y-122851476D01*
X180051476Y-122946774D01*
X180051473Y-122946778D01*
X179990279Y-123066878D01*
X179969196Y-123199997D01*
X179969196Y-123200002D01*
X179990279Y-123333121D01*
X179990280Y-123333124D01*
X179990281Y-123333126D01*
X180051472Y-123453220D01*
X180051473Y-123453221D01*
X180051476Y-123453225D01*
X180146774Y-123548523D01*
X180146778Y-123548526D01*
X180146780Y-123548528D01*
X180266874Y-123609719D01*
X180266876Y-123609719D01*
X180266878Y-123609720D01*
X180399998Y-123630804D01*
X180400000Y-123630804D01*
X180400002Y-123630804D01*
X180533121Y-123609720D01*
X180533121Y-123609719D01*
X180533126Y-123609719D01*
X180653220Y-123548528D01*
X180748528Y-123453220D01*
X180789516Y-123372775D01*
X180837489Y-123321981D01*
X180905310Y-123305186D01*
X180971445Y-123327723D01*
X181010483Y-123372774D01*
X181051472Y-123453220D01*
X181051473Y-123453221D01*
X181051476Y-123453225D01*
X181146774Y-123548523D01*
X181146778Y-123548526D01*
X181146780Y-123548528D01*
X181266874Y-123609719D01*
X181266876Y-123609719D01*
X181266878Y-123609720D01*
X181399998Y-123630804D01*
X181400000Y-123630804D01*
X181400002Y-123630804D01*
X181533121Y-123609720D01*
X181533121Y-123609719D01*
X181533126Y-123609719D01*
X181653220Y-123548528D01*
X181748528Y-123453220D01*
X181809719Y-123333126D01*
X181830804Y-123200000D01*
X181830104Y-123195582D01*
X181809720Y-123066878D01*
X181809719Y-123066876D01*
X181809719Y-123066874D01*
X181748528Y-122946780D01*
X181748526Y-122946778D01*
X181748523Y-122946774D01*
X181653225Y-122851476D01*
X181653221Y-122851473D01*
X181653220Y-122851472D01*
X181572775Y-122810483D01*
X181521981Y-122762511D01*
X181505186Y-122694690D01*
X181527723Y-122628555D01*
X181572774Y-122589516D01*
X181653220Y-122548528D01*
X181748528Y-122453220D01*
X181809719Y-122333126D01*
X181814144Y-122305186D01*
X181830804Y-122200002D01*
X181830804Y-122199997D01*
X181809720Y-122066878D01*
X181809719Y-122066876D01*
X181809719Y-122066874D01*
X181748528Y-121946780D01*
X181748526Y-121946778D01*
X181748523Y-121946774D01*
X181653225Y-121851476D01*
X181653221Y-121851473D01*
X181653220Y-121851472D01*
X181572775Y-121810483D01*
X181521981Y-121762511D01*
X181505186Y-121694690D01*
X181527723Y-121628555D01*
X181572774Y-121589516D01*
X181653220Y-121548528D01*
X181748528Y-121453220D01*
X181749121Y-121452057D01*
X184149760Y-121452057D01*
X184149955Y-121454542D01*
X184195774Y-121612254D01*
X184279370Y-121753608D01*
X184279377Y-121753617D01*
X184395494Y-121869734D01*
X184395503Y-121869741D01*
X184536859Y-121953338D01*
X184536862Y-121953339D01*
X184694560Y-121999155D01*
X184694566Y-121999156D01*
X184731406Y-122002055D01*
X184731422Y-122002056D01*
X185372056Y-122002056D01*
X185872056Y-122002056D01*
X186512690Y-122002056D01*
X186512705Y-122002055D01*
X186549545Y-121999156D01*
X186549551Y-121999155D01*
X186707249Y-121953339D01*
X186707252Y-121953338D01*
X186848608Y-121869741D01*
X186848617Y-121869734D01*
X186964734Y-121753617D01*
X186964741Y-121753608D01*
X187048337Y-121612254D01*
X187094156Y-121454542D01*
X187094351Y-121452057D01*
X187094351Y-121452056D01*
X185872056Y-121452056D01*
X185872056Y-122002056D01*
X185372056Y-122002056D01*
X185372056Y-121452056D01*
X184149761Y-121452056D01*
X184149760Y-121452057D01*
X181749121Y-121452057D01*
X181809719Y-121333126D01*
X181813069Y-121311974D01*
X181830804Y-121200002D01*
X181830804Y-121199997D01*
X181809720Y-121066878D01*
X181809719Y-121066876D01*
X181809719Y-121066874D01*
X181748528Y-120946780D01*
X181748526Y-120946778D01*
X181748523Y-120946774D01*
X181653225Y-120851476D01*
X181653221Y-120851473D01*
X181653220Y-120851472D01*
X181533126Y-120790281D01*
X181533124Y-120790280D01*
X181533121Y-120790279D01*
X181400002Y-120769196D01*
X181399998Y-120769196D01*
X181266878Y-120790279D01*
X181146778Y-120851473D01*
X181146774Y-120851476D01*
X181051476Y-120946774D01*
X181051474Y-120946778D01*
X181051472Y-120946780D01*
X181024357Y-120999997D01*
X181010485Y-121027222D01*
X180962510Y-121078018D01*
X180894689Y-121094813D01*
X180828554Y-121072275D01*
X180789515Y-121027222D01*
X180780239Y-121009017D01*
X180748528Y-120946780D01*
X180748524Y-120946776D01*
X180748523Y-120946774D01*
X180653225Y-120851476D01*
X180653221Y-120851473D01*
X180653220Y-120851472D01*
X180533126Y-120790281D01*
X180533124Y-120790280D01*
X180533121Y-120790279D01*
X180400002Y-120769196D01*
X180399998Y-120769196D01*
X180266878Y-120790279D01*
X180146778Y-120851473D01*
X180146774Y-120851476D01*
X180051476Y-120946774D01*
X180051473Y-120946778D01*
X179990279Y-121066878D01*
X179969196Y-121199997D01*
X179097556Y-121199997D01*
X179097556Y-120182057D01*
X184149760Y-120182057D01*
X184149955Y-120184542D01*
X184195774Y-120342254D01*
X184279370Y-120483608D01*
X184284156Y-120489778D01*
X184281809Y-120491598D01*
X184308620Y-120540698D01*
X184303636Y-120610390D01*
X184282597Y-120643125D01*
X184284156Y-120644334D01*
X184279370Y-120650503D01*
X184195774Y-120791857D01*
X184149955Y-120949569D01*
X184149760Y-120952054D01*
X184149761Y-120952056D01*
X185372056Y-120952056D01*
X185872056Y-120952056D01*
X187094351Y-120952056D01*
X187094351Y-120952054D01*
X187094156Y-120949569D01*
X187048337Y-120791857D01*
X186964741Y-120650503D01*
X186959956Y-120644334D01*
X186962308Y-120642509D01*
X186935501Y-120593461D01*
X186940458Y-120523768D01*
X186961521Y-120490992D01*
X186959956Y-120489778D01*
X186964741Y-120483608D01*
X187048337Y-120342254D01*
X187094156Y-120184542D01*
X187094351Y-120182057D01*
X187094351Y-120182056D01*
X185872056Y-120182056D01*
X185872056Y-120952056D01*
X185372056Y-120952056D01*
X185372056Y-120182056D01*
X184149761Y-120182056D01*
X184149760Y-120182057D01*
X179097556Y-120182057D01*
X179097556Y-119023387D01*
X179117241Y-118956348D01*
X179170045Y-118910593D01*
X179239203Y-118900649D01*
X179259886Y-118905460D01*
X179263923Y-118906771D01*
X179263930Y-118906775D01*
X179288036Y-118910593D01*
X179397054Y-118927860D01*
X179397056Y-118927860D01*
X179397058Y-118927860D01*
X179496834Y-118912057D01*
X184149760Y-118912057D01*
X184149955Y-118914542D01*
X184195774Y-119072254D01*
X184279370Y-119213608D01*
X184284156Y-119219778D01*
X184281809Y-119221598D01*
X184308620Y-119270698D01*
X184303636Y-119340390D01*
X184282597Y-119373125D01*
X184284156Y-119374334D01*
X184279370Y-119380503D01*
X184195774Y-119521857D01*
X184149955Y-119679569D01*
X184149760Y-119682054D01*
X184149761Y-119682056D01*
X185372056Y-119682056D01*
X185872056Y-119682056D01*
X187094351Y-119682056D01*
X187094351Y-119682054D01*
X187094156Y-119679569D01*
X187048337Y-119521857D01*
X186964741Y-119380503D01*
X186959956Y-119374334D01*
X186962308Y-119372509D01*
X186935501Y-119323461D01*
X186940458Y-119253768D01*
X186961521Y-119220992D01*
X186959956Y-119219778D01*
X186964741Y-119213608D01*
X187048337Y-119072254D01*
X187094156Y-118914542D01*
X187094351Y-118912057D01*
X187094351Y-118912056D01*
X185872056Y-118912056D01*
X185872056Y-119682056D01*
X185372056Y-119682056D01*
X185372056Y-118912056D01*
X184149761Y-118912056D01*
X184149760Y-118912057D01*
X179496834Y-118912057D01*
X179530177Y-118906776D01*
X179530177Y-118906775D01*
X179530182Y-118906775D01*
X179650276Y-118845584D01*
X179745584Y-118750276D01*
X179806775Y-118630182D01*
X179806776Y-118630177D01*
X179827860Y-118497058D01*
X179827860Y-118497053D01*
X179814397Y-118412054D01*
X184149760Y-118412054D01*
X184149761Y-118412056D01*
X187094351Y-118412056D01*
X187094351Y-118412054D01*
X187094156Y-118409569D01*
X187048337Y-118251857D01*
X186964741Y-118110503D01*
X186964734Y-118110494D01*
X186848617Y-117994377D01*
X186848608Y-117994370D01*
X186761130Y-117942636D01*
X186713446Y-117891567D01*
X186700943Y-117822825D01*
X186727588Y-117758236D01*
X186736130Y-117748712D01*
X186736251Y-117748542D01*
X186736254Y-117748539D01*
X186787629Y-117643449D01*
X186797556Y-117575316D01*
X186797556Y-117208796D01*
X186796032Y-117198339D01*
X186787629Y-117140664D01*
X186774268Y-117113333D01*
X186736254Y-117035573D01*
X186736252Y-117035571D01*
X186736252Y-117035570D01*
X186653541Y-116952859D01*
X186548447Y-116901482D01*
X186480317Y-116891556D01*
X186480316Y-116891556D01*
X186011556Y-116891556D01*
X185944517Y-116871871D01*
X185898762Y-116819067D01*
X185887556Y-116767556D01*
X185887556Y-116542387D01*
X185907241Y-116475348D01*
X185923875Y-116454706D01*
X186008792Y-116369789D01*
X186011620Y-116372617D01*
X186050033Y-116341899D01*
X186119530Y-116334691D01*
X186181891Y-116366199D01*
X186185149Y-116369959D01*
X186185320Y-116369789D01*
X186192991Y-116377460D01*
X186276652Y-116461121D01*
X186383883Y-116511124D01*
X186432739Y-116517556D01*
X186432740Y-116517556D01*
X186781373Y-116517556D01*
X186797657Y-116515412D01*
X186830229Y-116511124D01*
X186937460Y-116461121D01*
X187021121Y-116377460D01*
X187071124Y-116270229D01*
X187077556Y-116221372D01*
X187077556Y-115924500D01*
X187097241Y-115857461D01*
X187150045Y-115811706D01*
X187201556Y-115800500D01*
X187247389Y-115800500D01*
X187314428Y-115820185D01*
X187335070Y-115836819D01*
X187346774Y-115848523D01*
X187346778Y-115848526D01*
X187346780Y-115848528D01*
X187466874Y-115909719D01*
X187466876Y-115909719D01*
X187466878Y-115909720D01*
X187599998Y-115930804D01*
X187600000Y-115930804D01*
X187600002Y-115930804D01*
X187733121Y-115909720D01*
X187733121Y-115909719D01*
X187733126Y-115909719D01*
X187853220Y-115848528D01*
X187948528Y-115753220D01*
X188009719Y-115633126D01*
X188016924Y-115587637D01*
X188030804Y-115500002D01*
X188030804Y-115499997D01*
X188009720Y-115366878D01*
X188009719Y-115366876D01*
X188009719Y-115366874D01*
X187948528Y-115246780D01*
X187948526Y-115246778D01*
X187948523Y-115246774D01*
X187853225Y-115151476D01*
X187853221Y-115151473D01*
X187853220Y-115151472D01*
X187733126Y-115090281D01*
X187733124Y-115090280D01*
X187733121Y-115090279D01*
X187600002Y-115069196D01*
X187599998Y-115069196D01*
X187466878Y-115090279D01*
X187466874Y-115090280D01*
X187466874Y-115090281D01*
X187434146Y-115106957D01*
X187346778Y-115151473D01*
X187346774Y-115151476D01*
X187335070Y-115163181D01*
X187273747Y-115196666D01*
X187247389Y-115199500D01*
X187181556Y-115199500D01*
X187114517Y-115179815D01*
X187068762Y-115127011D01*
X187057556Y-115075500D01*
X187057555Y-114687161D01*
X187057555Y-114687156D01*
X187051028Y-114637569D01*
X187000280Y-114528740D01*
X186915372Y-114443832D01*
X186806543Y-114393084D01*
X186806541Y-114393083D01*
X186806542Y-114393083D01*
X186756958Y-114386556D01*
X186397158Y-114386556D01*
X186388802Y-114387656D01*
X186387515Y-114387825D01*
X186318481Y-114377057D01*
X186273020Y-114336704D01*
X186271555Y-114337841D01*
X186266770Y-114331672D01*
X186152439Y-114217341D01*
X186152430Y-114217334D01*
X186013249Y-114135023D01*
X186013246Y-114135021D01*
X185867057Y-114092549D01*
X185867056Y-114092550D01*
X185867056Y-114773056D01*
X185847371Y-114840095D01*
X185794567Y-114885850D01*
X185743056Y-114897056D01*
X185617056Y-114897056D01*
X185617056Y-115023056D01*
X185597371Y-115090095D01*
X185544567Y-115135850D01*
X185493056Y-115147056D01*
X184838266Y-115147056D01*
X184839910Y-115167966D01*
X184885024Y-115323251D01*
X184967334Y-115462430D01*
X184967341Y-115462439D01*
X185081676Y-115576774D01*
X185084173Y-115578711D01*
X185085628Y-115580726D01*
X185087194Y-115582292D01*
X185086941Y-115582544D01*
X185125081Y-115635353D01*
X185128871Y-115705120D01*
X185125535Y-115714741D01*
X185125643Y-115714773D01*
X185122987Y-115723883D01*
X185116556Y-115772739D01*
X185116556Y-116221372D01*
X185122987Y-116270227D01*
X185172991Y-116377460D01*
X185250237Y-116454706D01*
X185283722Y-116516029D01*
X185286556Y-116542387D01*
X185286556Y-116767556D01*
X185266871Y-116834595D01*
X185214067Y-116880350D01*
X185162556Y-116891556D01*
X184763795Y-116891556D01*
X184695664Y-116901482D01*
X184590570Y-116952859D01*
X184507859Y-117035570D01*
X184456482Y-117140664D01*
X184446556Y-117208795D01*
X184446556Y-117575316D01*
X184456482Y-117643447D01*
X184456483Y-117643449D01*
X184507858Y-117748539D01*
X184507859Y-117748540D01*
X184507860Y-117748542D01*
X184513829Y-117756903D01*
X184512714Y-117757698D01*
X184541026Y-117809546D01*
X184536042Y-117879238D01*
X184494170Y-117935171D01*
X184482982Y-117942636D01*
X184395500Y-117994373D01*
X184395494Y-117994377D01*
X184279377Y-118110494D01*
X184279370Y-118110503D01*
X184195774Y-118251857D01*
X184149955Y-118409569D01*
X184149760Y-118412054D01*
X179814397Y-118412054D01*
X179806776Y-118363934D01*
X179806775Y-118363932D01*
X179806775Y-118363930D01*
X179745584Y-118243836D01*
X179745582Y-118243834D01*
X179745579Y-118243830D01*
X179733875Y-118232126D01*
X179700390Y-118170803D01*
X179697556Y-118144445D01*
X179697556Y-117857495D01*
X179696477Y-117853468D01*
X179677077Y-117781067D01*
X179644582Y-117724783D01*
X179637520Y-117712551D01*
X179637514Y-117712543D01*
X178558874Y-116633903D01*
X178525389Y-116572580D01*
X178522555Y-116546222D01*
X178522555Y-115702199D01*
X178522555Y-115702192D01*
X178522553Y-115702173D01*
X178519642Y-115677068D01*
X178519641Y-115677066D01*
X178519641Y-115677065D01*
X178474262Y-115574291D01*
X178394821Y-115494850D01*
X178353389Y-115476556D01*
X178332069Y-115467142D01*
X178278694Y-115422055D01*
X178258167Y-115355269D01*
X178277006Y-115287987D01*
X178294472Y-115266031D01*
X178913448Y-114647055D01*
X184838265Y-114647055D01*
X184838266Y-114647056D01*
X185367056Y-114647056D01*
X185367056Y-114092550D01*
X185367054Y-114092549D01*
X185220865Y-114135021D01*
X185220862Y-114135023D01*
X185081681Y-114217334D01*
X185081672Y-114217341D01*
X184967341Y-114331672D01*
X184967334Y-114331681D01*
X184885024Y-114470860D01*
X184885022Y-114470865D01*
X184839911Y-114626137D01*
X184839910Y-114626143D01*
X184838265Y-114647055D01*
X178913448Y-114647055D01*
X180276629Y-113283875D01*
X180337952Y-113250390D01*
X180364310Y-113247556D01*
X180615153Y-113247556D01*
X180615158Y-113247556D01*
X180703620Y-113236933D01*
X180844398Y-113181417D01*
X180964978Y-113089978D01*
X181056417Y-112969398D01*
X181111933Y-112828620D01*
X181122556Y-112740158D01*
X181122556Y-112153954D01*
X181111933Y-112065492D01*
X181056417Y-111924714D01*
X181056416Y-111924713D01*
X181056416Y-111924712D01*
X180964978Y-111804133D01*
X180844399Y-111712695D01*
X180729130Y-111667239D01*
X180703620Y-111657179D01*
X180703619Y-111657178D01*
X180703617Y-111657178D01*
X180657982Y-111651698D01*
X180615158Y-111646556D01*
X179578954Y-111646556D01*
X179539909Y-111651244D01*
X179490494Y-111657178D01*
X179349712Y-111712695D01*
X179229133Y-111804133D01*
X179137695Y-111924712D01*
X179082178Y-112065494D01*
X179076244Y-112114909D01*
X179071556Y-112153954D01*
X179071556Y-112740158D01*
X179075244Y-112770868D01*
X179082178Y-112828617D01*
X179082178Y-112828619D01*
X179082179Y-112828620D01*
X179094169Y-112859024D01*
X179137695Y-112969399D01*
X179210642Y-113065593D01*
X179235465Y-113130904D01*
X179221037Y-113199268D01*
X179199519Y-113228199D01*
X177759237Y-114668482D01*
X177697914Y-114701967D01*
X177628222Y-114696983D01*
X177572289Y-114655111D01*
X177547872Y-114589647D01*
X177547556Y-114580801D01*
X177547556Y-112027305D01*
X177547555Y-112027303D01*
X177535924Y-111968826D01*
X177535923Y-111968825D01*
X177491608Y-111902503D01*
X177449933Y-111874657D01*
X177405128Y-111821045D01*
X177396421Y-111751720D01*
X177426576Y-111688692D01*
X177486019Y-111651973D01*
X177518821Y-111647555D01*
X177616920Y-111647555D01*
X177616935Y-111647553D01*
X177616938Y-111647553D01*
X177642043Y-111644642D01*
X177642043Y-111644641D01*
X177642047Y-111644641D01*
X177744821Y-111599262D01*
X177744822Y-111599260D01*
X177746968Y-111598313D01*
X177816246Y-111589241D01*
X177847141Y-111598313D01*
X177952060Y-111644639D01*
X177952065Y-111644641D01*
X177977191Y-111647556D01*
X178266920Y-111647555D01*
X178266935Y-111647553D01*
X178266938Y-111647553D01*
X178292043Y-111644642D01*
X178292044Y-111644641D01*
X178292047Y-111644641D01*
X178394821Y-111599262D01*
X178474262Y-111519821D01*
X178519641Y-111417047D01*
X178522556Y-111391921D01*
X178522556Y-111059056D01*
X178542241Y-110992017D01*
X178595045Y-110946262D01*
X178646556Y-110935056D01*
X179105078Y-110935056D01*
X179172117Y-110954741D01*
X179213481Y-111002478D01*
X179214919Y-111001719D01*
X179219262Y-111009937D01*
X179219263Y-111009938D01*
X179299906Y-111119206D01*
X179409174Y-111199849D01*
X179445757Y-111212650D01*
X179537355Y-111244702D01*
X179567786Y-111247556D01*
X179567790Y-111247556D01*
X180626326Y-111247556D01*
X180656755Y-111244702D01*
X180656757Y-111244702D01*
X180741847Y-111214927D01*
X180784938Y-111199849D01*
X180894206Y-111119206D01*
X180974849Y-111009938D01*
X181004755Y-110924471D01*
X181019702Y-110881757D01*
X181019702Y-110881755D01*
X181022556Y-110851325D01*
X181022556Y-110242786D01*
X181019702Y-110212356D01*
X181019702Y-110212354D01*
X180974849Y-110084175D01*
X180974848Y-110084173D01*
X180968583Y-110075684D01*
X180894206Y-109974906D01*
X180784938Y-109894263D01*
X180784936Y-109894262D01*
X180656756Y-109849409D01*
X180626326Y-109846556D01*
X180626322Y-109846556D01*
X179567790Y-109846556D01*
X179567786Y-109846556D01*
X179537356Y-109849409D01*
X179537354Y-109849409D01*
X179409175Y-109894262D01*
X179409173Y-109894263D01*
X179299906Y-109974906D01*
X179219263Y-110084173D01*
X179219262Y-110084175D01*
X179174410Y-110212352D01*
X179174410Y-110212356D01*
X179174410Y-110212357D01*
X179173540Y-110221632D01*
X179147684Y-110286540D01*
X179090840Y-110327166D01*
X179050082Y-110334056D01*
X178646555Y-110334056D01*
X178579516Y-110314371D01*
X178533761Y-110261567D01*
X178522555Y-110210056D01*
X178522555Y-109952199D01*
X178522555Y-109952192D01*
X178522553Y-109952173D01*
X178519642Y-109927068D01*
X178519641Y-109927066D01*
X178519641Y-109927065D01*
X178474262Y-109824291D01*
X178394821Y-109744850D01*
X178358528Y-109728825D01*
X178292048Y-109699471D01*
X178266921Y-109696556D01*
X177977199Y-109696556D01*
X177977173Y-109696558D01*
X177952069Y-109699469D01*
X177905612Y-109719982D01*
X177849294Y-109744849D01*
X177847142Y-109745799D01*
X177777863Y-109754870D01*
X177746970Y-109745799D01*
X177744821Y-109744850D01*
X177642047Y-109699471D01*
X177616921Y-109696556D01*
X177327199Y-109696556D01*
X177327173Y-109696558D01*
X177302068Y-109699469D01*
X177302066Y-109699470D01*
X177296641Y-109701866D01*
X177227363Y-109710937D01*
X177164178Y-109681113D01*
X177127148Y-109621863D01*
X177122556Y-109588431D01*
X177122556Y-108924666D01*
X177142241Y-108857627D01*
X177158872Y-108836987D01*
X177170584Y-108825276D01*
X177231775Y-108705182D01*
X177252860Y-108572056D01*
X177231775Y-108438930D01*
X177170584Y-108318836D01*
X177170582Y-108318834D01*
X177170579Y-108318830D01*
X177158875Y-108307126D01*
X177125390Y-108245803D01*
X177122556Y-108219445D01*
X177122556Y-104120884D01*
X177142241Y-104053845D01*
X177195045Y-104008090D01*
X177264203Y-103998146D01*
X177327759Y-104027171D01*
X177346879Y-104048006D01*
X177348530Y-104050279D01*
X177443830Y-104145579D01*
X177443834Y-104145582D01*
X177443836Y-104145584D01*
X177563930Y-104206775D01*
X177563932Y-104206775D01*
X177563934Y-104206776D01*
X177697054Y-104227860D01*
X177697056Y-104227860D01*
X177697058Y-104227860D01*
X177830177Y-104206776D01*
X177830177Y-104206775D01*
X177830182Y-104206775D01*
X177950276Y-104145584D01*
X178045584Y-104050276D01*
X178106775Y-103930182D01*
X178114554Y-103881067D01*
X178127860Y-103797058D01*
X178127860Y-103797053D01*
X178106776Y-103663934D01*
X178106775Y-103663932D01*
X178106775Y-103663930D01*
X178045584Y-103543836D01*
X178045582Y-103543834D01*
X178045579Y-103543830D01*
X177950281Y-103448532D01*
X177950277Y-103448529D01*
X177950276Y-103448528D01*
X177830182Y-103387337D01*
X177830181Y-103387336D01*
X177830178Y-103387335D01*
X177792869Y-103381426D01*
X177729735Y-103351495D01*
X177692805Y-103292183D01*
X177693804Y-103222321D01*
X177724587Y-103171272D01*
X177745584Y-103150276D01*
X177806775Y-103030182D01*
X177827860Y-102897056D01*
X177821451Y-102856593D01*
X177806776Y-102763934D01*
X177806775Y-102763932D01*
X177806775Y-102763930D01*
X177745584Y-102643836D01*
X177745582Y-102643834D01*
X177745579Y-102643830D01*
X177650281Y-102548532D01*
X177650278Y-102548530D01*
X177650276Y-102548528D01*
X177584890Y-102515212D01*
X177534095Y-102467238D01*
X177517300Y-102399417D01*
X177539838Y-102333282D01*
X177553492Y-102317060D01*
X177836681Y-102033872D01*
X177898002Y-102000390D01*
X177924360Y-101997556D01*
X181878111Y-101997556D01*
X181945150Y-102017241D01*
X181990905Y-102070045D01*
X182000849Y-102139203D01*
X181971824Y-102202759D01*
X181965792Y-102209237D01*
X181056597Y-103118431D01*
X181056591Y-103118439D01*
X181017038Y-103186948D01*
X181017035Y-103186953D01*
X180996556Y-103263383D01*
X180996556Y-106644445D01*
X180976871Y-106711484D01*
X180960237Y-106732126D01*
X180948532Y-106743830D01*
X180948529Y-106743834D01*
X180887335Y-106863934D01*
X180866252Y-106997053D01*
X180866252Y-106997058D01*
X180887335Y-107130177D01*
X180887336Y-107130180D01*
X180887337Y-107130182D01*
X180908802Y-107172309D01*
X180948529Y-107250277D01*
X180948532Y-107250281D01*
X181043830Y-107345579D01*
X181043834Y-107345582D01*
X181043836Y-107345584D01*
X181163930Y-107406775D01*
X181163932Y-107406775D01*
X181163934Y-107406776D01*
X181297054Y-107427860D01*
X181297056Y-107427860D01*
X181297058Y-107427860D01*
X181430177Y-107406776D01*
X181430177Y-107406775D01*
X181430182Y-107406775D01*
X181550276Y-107345584D01*
X181645584Y-107250276D01*
X181706775Y-107130182D01*
X181719708Y-107048528D01*
X181727860Y-106997058D01*
X181727860Y-106997053D01*
X181706776Y-106863934D01*
X181706775Y-106863932D01*
X181706775Y-106863930D01*
X181645584Y-106743836D01*
X181645582Y-106743834D01*
X181645579Y-106743830D01*
X181633875Y-106732126D01*
X181600390Y-106670803D01*
X181597556Y-106644445D01*
X181597556Y-103499997D01*
X182969196Y-103499997D01*
X182969196Y-103500002D01*
X182990279Y-103633121D01*
X182990280Y-103633124D01*
X182990281Y-103633126D01*
X183051472Y-103753220D01*
X183051473Y-103753221D01*
X183055903Y-103761915D01*
X183054497Y-103762631D01*
X183074298Y-103818128D01*
X183074500Y-103825205D01*
X183074500Y-109727859D01*
X183074500Y-109813565D01*
X183077294Y-109823992D01*
X183096682Y-109896352D01*
X183114413Y-109927062D01*
X183139535Y-109970574D01*
X183139537Y-109970576D01*
X185447547Y-112278586D01*
X185481032Y-112339909D01*
X185476048Y-112409601D01*
X185434176Y-112465534D01*
X185426364Y-112470399D01*
X185421037Y-112474269D01*
X185325739Y-112569567D01*
X185325736Y-112569571D01*
X185264542Y-112689671D01*
X185243459Y-112822790D01*
X185243459Y-112822795D01*
X185264542Y-112955914D01*
X185264543Y-112955917D01*
X185264544Y-112955919D01*
X185320426Y-113065593D01*
X185325736Y-113076014D01*
X185325739Y-113076018D01*
X185421037Y-113171316D01*
X185421041Y-113171319D01*
X185421043Y-113171321D01*
X185541137Y-113232512D01*
X185541139Y-113232512D01*
X185541141Y-113232513D01*
X185674261Y-113253597D01*
X185674263Y-113253597D01*
X185674265Y-113253597D01*
X185807384Y-113232513D01*
X185807384Y-113232512D01*
X185807389Y-113232512D01*
X185927483Y-113171321D01*
X186022791Y-113076013D01*
X186022794Y-113076006D01*
X186028524Y-113068121D01*
X186030804Y-113069777D01*
X186068270Y-113030102D01*
X186136090Y-113013302D01*
X186202226Y-113035835D01*
X186218469Y-113049508D01*
X188338181Y-115169220D01*
X188371666Y-115230543D01*
X188374500Y-115256901D01*
X188374500Y-125013811D01*
X188354815Y-125080850D01*
X188338181Y-125101492D01*
X187239537Y-126200135D01*
X187239533Y-126200141D01*
X187196681Y-126274361D01*
X187196682Y-126274362D01*
X187174500Y-126357147D01*
X187174500Y-131642852D01*
X187196682Y-131725640D01*
X187216586Y-131760113D01*
X187239535Y-131799862D01*
X187239536Y-131799863D01*
X187239537Y-131799864D01*
X189246261Y-133806587D01*
X189279746Y-133867910D01*
X189281053Y-133874869D01*
X189290280Y-133933123D01*
X189290279Y-133933123D01*
X189290281Y-133933126D01*
X189351472Y-134053220D01*
X189351474Y-134053222D01*
X189351476Y-134053225D01*
X189446774Y-134148523D01*
X189446778Y-134148526D01*
X189446780Y-134148528D01*
X189566874Y-134209719D01*
X189566876Y-134209719D01*
X189566878Y-134209720D01*
X189699998Y-134230804D01*
X189700000Y-134230804D01*
X189700002Y-134230804D01*
X189833121Y-134209720D01*
X189833121Y-134209719D01*
X189833126Y-134209719D01*
X189953220Y-134148528D01*
X190048528Y-134053220D01*
X190109719Y-133933126D01*
X190109720Y-133933121D01*
X190130804Y-133800002D01*
X190130804Y-133799997D01*
X190109720Y-133666878D01*
X190109719Y-133666876D01*
X190109719Y-133666874D01*
X190048528Y-133546780D01*
X190048526Y-133546778D01*
X190048523Y-133546774D01*
X189953225Y-133451476D01*
X189953222Y-133451474D01*
X189953220Y-133451472D01*
X189833126Y-133390281D01*
X189833124Y-133390280D01*
X189833123Y-133390280D01*
X189774869Y-133381053D01*
X189711735Y-133351123D01*
X189706587Y-133346261D01*
X187861819Y-131501492D01*
X187828334Y-131440169D01*
X187825500Y-131413811D01*
X187825500Y-127499997D01*
X188769196Y-127499997D01*
X188769196Y-127500002D01*
X188790279Y-127633121D01*
X188790280Y-127633124D01*
X188790281Y-127633126D01*
X188851472Y-127753220D01*
X188851473Y-127753221D01*
X188851476Y-127753225D01*
X188946774Y-127848523D01*
X188946778Y-127848526D01*
X188946780Y-127848528D01*
X189066874Y-127909719D01*
X189066876Y-127909719D01*
X189066878Y-127909720D01*
X189199998Y-127930804D01*
X189200000Y-127930804D01*
X189200002Y-127930804D01*
X189333121Y-127909720D01*
X189333121Y-127909719D01*
X189333126Y-127909719D01*
X189453220Y-127848528D01*
X189548528Y-127753220D01*
X189609719Y-127633126D01*
X189623581Y-127545606D01*
X189630804Y-127500002D01*
X189630804Y-127499997D01*
X189609720Y-127366878D01*
X189609719Y-127366876D01*
X189609719Y-127366874D01*
X189548528Y-127246780D01*
X189548526Y-127246778D01*
X189548523Y-127246774D01*
X189453225Y-127151476D01*
X189453221Y-127151473D01*
X189453220Y-127151472D01*
X189333126Y-127090281D01*
X189333124Y-127090280D01*
X189333121Y-127090279D01*
X189200002Y-127069196D01*
X189199998Y-127069196D01*
X189066878Y-127090279D01*
X188946778Y-127151473D01*
X188946774Y-127151476D01*
X188851476Y-127246774D01*
X188851473Y-127246778D01*
X188790279Y-127366878D01*
X188769196Y-127499997D01*
X187825500Y-127499997D01*
X187825500Y-126586189D01*
X187845185Y-126519150D01*
X187861819Y-126498508D01*
X188410827Y-125949500D01*
X188763274Y-125597053D01*
X194666252Y-125597053D01*
X194666252Y-125597058D01*
X194687335Y-125730177D01*
X194687336Y-125730180D01*
X194687337Y-125730182D01*
X194748528Y-125850276D01*
X194748529Y-125850277D01*
X194748532Y-125850281D01*
X194807626Y-125909375D01*
X194841111Y-125970698D01*
X194836127Y-126040390D01*
X194807626Y-126084737D01*
X194748532Y-126143830D01*
X194748529Y-126143834D01*
X194687335Y-126263934D01*
X194666252Y-126397053D01*
X194666252Y-126397058D01*
X194687335Y-126530177D01*
X194687336Y-126530180D01*
X194687337Y-126530182D01*
X194748528Y-126650276D01*
X194748529Y-126650277D01*
X194748532Y-126650281D01*
X194843830Y-126745579D01*
X194843834Y-126745582D01*
X194843836Y-126745584D01*
X194963930Y-126806775D01*
X194963932Y-126806775D01*
X194963934Y-126806776D01*
X195097054Y-126827860D01*
X195097056Y-126827860D01*
X195097058Y-126827860D01*
X195230177Y-126806776D01*
X195230177Y-126806775D01*
X195230182Y-126806775D01*
X195350276Y-126745584D01*
X195445584Y-126650276D01*
X195506775Y-126530182D01*
X195506776Y-126530177D01*
X195527860Y-126397058D01*
X195527860Y-126397053D01*
X195506776Y-126263934D01*
X195506775Y-126263932D01*
X195506775Y-126263930D01*
X195445584Y-126143836D01*
X195445582Y-126143834D01*
X195445579Y-126143830D01*
X195386486Y-126084737D01*
X195353001Y-126023414D01*
X195357985Y-125953722D01*
X195386486Y-125909375D01*
X195445579Y-125850281D01*
X195445584Y-125850276D01*
X195506775Y-125730182D01*
X195506776Y-125730177D01*
X195527860Y-125597058D01*
X195527860Y-125597053D01*
X195506776Y-125463934D01*
X195506775Y-125463932D01*
X195506775Y-125463930D01*
X195445584Y-125343836D01*
X195445582Y-125343834D01*
X195445579Y-125343830D01*
X195350281Y-125248532D01*
X195350277Y-125248529D01*
X195350276Y-125248528D01*
X195230182Y-125187337D01*
X195230180Y-125187336D01*
X195230177Y-125187335D01*
X195097058Y-125166252D01*
X195097054Y-125166252D01*
X194963934Y-125187335D01*
X194843834Y-125248529D01*
X194843830Y-125248532D01*
X194748532Y-125343830D01*
X194748529Y-125343834D01*
X194687335Y-125463934D01*
X194666252Y-125597053D01*
X188763274Y-125597053D01*
X188960465Y-125399862D01*
X189003318Y-125325639D01*
X189025500Y-125242853D01*
X189025500Y-125157147D01*
X189025500Y-123469798D01*
X198226621Y-123469798D01*
X198226621Y-123469803D01*
X198247704Y-123602922D01*
X198247705Y-123602925D01*
X198247706Y-123602927D01*
X198302769Y-123710994D01*
X198308898Y-123723022D01*
X198308901Y-123723026D01*
X198404199Y-123818324D01*
X198404203Y-123818327D01*
X198404205Y-123818329D01*
X198524299Y-123879520D01*
X198524301Y-123879520D01*
X198524303Y-123879521D01*
X198657423Y-123900605D01*
X198657425Y-123900605D01*
X198657427Y-123900605D01*
X198790546Y-123879521D01*
X198790546Y-123879520D01*
X198790551Y-123879520D01*
X198910645Y-123818329D01*
X199005953Y-123723021D01*
X199067144Y-123602927D01*
X199083446Y-123500000D01*
X199088229Y-123469803D01*
X199088229Y-123469798D01*
X199067145Y-123336679D01*
X199067144Y-123336677D01*
X199067144Y-123336675D01*
X199005953Y-123216581D01*
X199005951Y-123216579D01*
X199005948Y-123216575D01*
X198910650Y-123121277D01*
X198910646Y-123121274D01*
X198910645Y-123121273D01*
X198790551Y-123060082D01*
X198790549Y-123060081D01*
X198790546Y-123060080D01*
X198657427Y-123038997D01*
X198657423Y-123038997D01*
X198524303Y-123060080D01*
X198404203Y-123121274D01*
X198404199Y-123121277D01*
X198308901Y-123216575D01*
X198308898Y-123216579D01*
X198247704Y-123336679D01*
X198226621Y-123469798D01*
X189025500Y-123469798D01*
X189025500Y-121849102D01*
X189045185Y-121782063D01*
X189097989Y-121736308D01*
X189167147Y-121726364D01*
X189230703Y-121755389D01*
X189237181Y-121761421D01*
X189345494Y-121869734D01*
X189345503Y-121869741D01*
X189486859Y-121953338D01*
X189486862Y-121953339D01*
X189644560Y-121999155D01*
X189644566Y-121999156D01*
X189681406Y-122002055D01*
X189681422Y-122002056D01*
X190322056Y-122002056D01*
X190822056Y-122002056D01*
X191462690Y-122002056D01*
X191462705Y-122002055D01*
X191499545Y-121999156D01*
X191499551Y-121999155D01*
X191657249Y-121953339D01*
X191657252Y-121953338D01*
X191798608Y-121869741D01*
X191798617Y-121869734D01*
X191914734Y-121753617D01*
X191914741Y-121753608D01*
X191998337Y-121612254D01*
X192044156Y-121454542D01*
X192044351Y-121452057D01*
X192044351Y-121452056D01*
X190822056Y-121452056D01*
X190822056Y-122002056D01*
X190322056Y-122002056D01*
X190322056Y-121326056D01*
X190341741Y-121259017D01*
X190394545Y-121213262D01*
X190446056Y-121202056D01*
X190572056Y-121202056D01*
X190572056Y-121076056D01*
X190591741Y-121009017D01*
X190644545Y-120963262D01*
X190696056Y-120952056D01*
X192044351Y-120952056D01*
X192044351Y-120952054D01*
X192044156Y-120949569D01*
X191998337Y-120791857D01*
X191914741Y-120650503D01*
X191914734Y-120650494D01*
X191798617Y-120534377D01*
X191798608Y-120534370D01*
X191711130Y-120482636D01*
X191663446Y-120431567D01*
X191650943Y-120362825D01*
X191677588Y-120298236D01*
X191686130Y-120288712D01*
X191686251Y-120288542D01*
X191686254Y-120288539D01*
X191737629Y-120183449D01*
X191747556Y-120115316D01*
X191747556Y-119748796D01*
X191745886Y-119737337D01*
X191741434Y-119706776D01*
X191737629Y-119680663D01*
X191686254Y-119575573D01*
X191686252Y-119575571D01*
X191686252Y-119575570D01*
X191603541Y-119492859D01*
X191498447Y-119441482D01*
X191430317Y-119431556D01*
X191430316Y-119431556D01*
X189713796Y-119431556D01*
X189713795Y-119431556D01*
X189645664Y-119441482D01*
X189540570Y-119492859D01*
X189457859Y-119575570D01*
X189406482Y-119680664D01*
X189396556Y-119748795D01*
X189396556Y-120115316D01*
X189406482Y-120183447D01*
X189406483Y-120183449D01*
X189457858Y-120288539D01*
X189457859Y-120288540D01*
X189457860Y-120288542D01*
X189463829Y-120296903D01*
X189462714Y-120297698D01*
X189491026Y-120349546D01*
X189486042Y-120419238D01*
X189444170Y-120475171D01*
X189432982Y-120482636D01*
X189345500Y-120534373D01*
X189345494Y-120534377D01*
X189237181Y-120642691D01*
X189175858Y-120676176D01*
X189106166Y-120671192D01*
X189050233Y-120629320D01*
X189025816Y-120563856D01*
X189025500Y-120555010D01*
X189025500Y-119247053D01*
X192366252Y-119247053D01*
X192366252Y-119247058D01*
X192387335Y-119380177D01*
X192387336Y-119380180D01*
X192387337Y-119380182D01*
X192448528Y-119500276D01*
X192448529Y-119500277D01*
X192448532Y-119500281D01*
X192543834Y-119595583D01*
X192545425Y-119596739D01*
X192546890Y-119598639D01*
X192550736Y-119602485D01*
X192550238Y-119602982D01*
X192588090Y-119652069D01*
X192594068Y-119721683D01*
X192561461Y-119783477D01*
X192545425Y-119797373D01*
X192543834Y-119798528D01*
X192448532Y-119893830D01*
X192448529Y-119893834D01*
X192387335Y-120013934D01*
X192366252Y-120147053D01*
X192366252Y-120147058D01*
X192387335Y-120280177D01*
X192387336Y-120280180D01*
X192387337Y-120280182D01*
X192440620Y-120384755D01*
X192448529Y-120400277D01*
X192448532Y-120400281D01*
X192543834Y-120495583D01*
X192545425Y-120496739D01*
X192546890Y-120498639D01*
X192550736Y-120502485D01*
X192550238Y-120502982D01*
X192588090Y-120552069D01*
X192594068Y-120621683D01*
X192561461Y-120683477D01*
X192545425Y-120697373D01*
X192543834Y-120698528D01*
X192448532Y-120793830D01*
X192448529Y-120793834D01*
X192387335Y-120913934D01*
X192366252Y-121047053D01*
X192366252Y-121047058D01*
X192387335Y-121180177D01*
X192387336Y-121180180D01*
X192387337Y-121180182D01*
X192427510Y-121259025D01*
X192448529Y-121300277D01*
X192448532Y-121300281D01*
X192543834Y-121395583D01*
X192545425Y-121396739D01*
X192546890Y-121398639D01*
X192550736Y-121402485D01*
X192550238Y-121402982D01*
X192588090Y-121452069D01*
X192594068Y-121521683D01*
X192561461Y-121583477D01*
X192545425Y-121597373D01*
X192543834Y-121598528D01*
X192448532Y-121693830D01*
X192448529Y-121693834D01*
X192387335Y-121813934D01*
X192366252Y-121947053D01*
X192366252Y-121947058D01*
X192387335Y-122080177D01*
X192387336Y-122080180D01*
X192387337Y-122080182D01*
X192448528Y-122200276D01*
X192448529Y-122200277D01*
X192448532Y-122200281D01*
X192543834Y-122295583D01*
X192545425Y-122296739D01*
X192546890Y-122298639D01*
X192550736Y-122302485D01*
X192550238Y-122302982D01*
X192588090Y-122352069D01*
X192594068Y-122421683D01*
X192561461Y-122483477D01*
X192545425Y-122497373D01*
X192543834Y-122498528D01*
X192448532Y-122593830D01*
X192448529Y-122593834D01*
X192387335Y-122713934D01*
X192366252Y-122847053D01*
X192366252Y-122847058D01*
X192387335Y-122980177D01*
X192387336Y-122980180D01*
X192387337Y-122980182D01*
X192448528Y-123100276D01*
X192448529Y-123100277D01*
X192448532Y-123100281D01*
X192543830Y-123195579D01*
X192543834Y-123195582D01*
X192543836Y-123195584D01*
X192663930Y-123256775D01*
X192663932Y-123256775D01*
X192663934Y-123256776D01*
X192797054Y-123277860D01*
X192797056Y-123277860D01*
X192797058Y-123277860D01*
X192930177Y-123256776D01*
X192930177Y-123256775D01*
X192930182Y-123256775D01*
X193050276Y-123195584D01*
X193145584Y-123100276D01*
X193206775Y-122980182D01*
X193210374Y-122957461D01*
X193227860Y-122847058D01*
X193227860Y-122847053D01*
X193206776Y-122713934D01*
X193206775Y-122713932D01*
X193206775Y-122713930D01*
X193145584Y-122593836D01*
X193145582Y-122593834D01*
X193145579Y-122593830D01*
X193050281Y-122498532D01*
X193050277Y-122498529D01*
X193050276Y-122498528D01*
X193050274Y-122498527D01*
X193048691Y-122497377D01*
X193047225Y-122495476D01*
X193043376Y-122491627D01*
X193043873Y-122491129D01*
X193006024Y-122442048D01*
X193000042Y-122372435D01*
X193032645Y-122310639D01*
X193048691Y-122296735D01*
X193050269Y-122295587D01*
X193050276Y-122295584D01*
X193145584Y-122200276D01*
X193206775Y-122080182D01*
X193207118Y-122078018D01*
X193227860Y-121947058D01*
X193227860Y-121947053D01*
X193206776Y-121813934D01*
X193206775Y-121813932D01*
X193206775Y-121813930D01*
X193145584Y-121693836D01*
X193145582Y-121693834D01*
X193145579Y-121693830D01*
X193050281Y-121598532D01*
X193050277Y-121598529D01*
X193050276Y-121598528D01*
X193050274Y-121598527D01*
X193048691Y-121597377D01*
X193047225Y-121595476D01*
X193043376Y-121591627D01*
X193043873Y-121591129D01*
X193006024Y-121542048D01*
X193000042Y-121472435D01*
X193032645Y-121410639D01*
X193048691Y-121396735D01*
X193050269Y-121395587D01*
X193050276Y-121395584D01*
X193145584Y-121300276D01*
X193206775Y-121180182D01*
X193225016Y-121065015D01*
X193227860Y-121047058D01*
X193227860Y-121047053D01*
X193220407Y-120999997D01*
X196569196Y-120999997D01*
X196569196Y-121000002D01*
X196590279Y-121133121D01*
X196590280Y-121133124D01*
X196590281Y-121133126D01*
X196651472Y-121253220D01*
X196651473Y-121253221D01*
X196651476Y-121253225D01*
X196746774Y-121348523D01*
X196746778Y-121348526D01*
X196746780Y-121348528D01*
X196866874Y-121409719D01*
X196866876Y-121409719D01*
X196866878Y-121409720D01*
X196999998Y-121430804D01*
X197000000Y-121430804D01*
X197000002Y-121430804D01*
X197133121Y-121409720D01*
X197133121Y-121409719D01*
X197133126Y-121409719D01*
X197253220Y-121348528D01*
X197348528Y-121253220D01*
X197409719Y-121133126D01*
X197420212Y-121066878D01*
X197430804Y-121000002D01*
X197430804Y-120999997D01*
X197409720Y-120866878D01*
X197409719Y-120866876D01*
X197409719Y-120866874D01*
X197348528Y-120746780D01*
X197348526Y-120746778D01*
X197348523Y-120746774D01*
X197253225Y-120651476D01*
X197253221Y-120651473D01*
X197253220Y-120651472D01*
X197133126Y-120590281D01*
X197133124Y-120590280D01*
X197133121Y-120590279D01*
X197000002Y-120569196D01*
X196999998Y-120569196D01*
X196866878Y-120590279D01*
X196746778Y-120651473D01*
X196746774Y-120651476D01*
X196651476Y-120746774D01*
X196651473Y-120746778D01*
X196590279Y-120866878D01*
X196569196Y-120999997D01*
X193220407Y-120999997D01*
X193206776Y-120913934D01*
X193206775Y-120913932D01*
X193206775Y-120913930D01*
X193145584Y-120793836D01*
X193145582Y-120793834D01*
X193145579Y-120793830D01*
X193050281Y-120698532D01*
X193050277Y-120698529D01*
X193050276Y-120698528D01*
X193050274Y-120698527D01*
X193048691Y-120697377D01*
X193047225Y-120695476D01*
X193043376Y-120691627D01*
X193043873Y-120691129D01*
X193006024Y-120642048D01*
X193000042Y-120572435D01*
X193032645Y-120510639D01*
X193048691Y-120496735D01*
X193050269Y-120495587D01*
X193050276Y-120495584D01*
X193145584Y-120400276D01*
X193206775Y-120280182D01*
X193222096Y-120183449D01*
X193227860Y-120147058D01*
X193227860Y-120147053D01*
X193206776Y-120013934D01*
X193206775Y-120013932D01*
X193206775Y-120013930D01*
X193145584Y-119893836D01*
X193145582Y-119893834D01*
X193145579Y-119893830D01*
X193050281Y-119798532D01*
X193050277Y-119798529D01*
X193050276Y-119798528D01*
X193050274Y-119798527D01*
X193048691Y-119797377D01*
X193047225Y-119795476D01*
X193043376Y-119791627D01*
X193043873Y-119791129D01*
X193006024Y-119742048D01*
X193000042Y-119672435D01*
X193032645Y-119610639D01*
X193048691Y-119596735D01*
X193050269Y-119595587D01*
X193050276Y-119595584D01*
X193145584Y-119500276D01*
X193206775Y-119380182D01*
X193206776Y-119380177D01*
X193227860Y-119247058D01*
X193227860Y-119247053D01*
X193206776Y-119113934D01*
X193206775Y-119113932D01*
X193206775Y-119113930D01*
X193145584Y-118993836D01*
X193145582Y-118993834D01*
X193145579Y-118993830D01*
X193050281Y-118898532D01*
X193050277Y-118898529D01*
X193050276Y-118898528D01*
X192930182Y-118837337D01*
X192930180Y-118837336D01*
X192930177Y-118837335D01*
X192797058Y-118816252D01*
X192797054Y-118816252D01*
X192663934Y-118837335D01*
X192543834Y-118898529D01*
X192543830Y-118898532D01*
X192448532Y-118993830D01*
X192448529Y-118993834D01*
X192387335Y-119113934D01*
X192366252Y-119247053D01*
X189025500Y-119247053D01*
X189025500Y-115027861D01*
X189025500Y-115027859D01*
X189003318Y-114945074D01*
X189003318Y-114945073D01*
X188960465Y-114870850D01*
X188514113Y-114424498D01*
X188480628Y-114363175D01*
X188485612Y-114293483D01*
X188527484Y-114237550D01*
X188582397Y-114214344D01*
X188630177Y-114206776D01*
X188630177Y-114206775D01*
X188630182Y-114206775D01*
X188750276Y-114145584D01*
X188845584Y-114050276D01*
X188906775Y-113930182D01*
X188927860Y-113797056D01*
X188927686Y-113795960D01*
X188906776Y-113663934D01*
X188906775Y-113663932D01*
X188906775Y-113663930D01*
X188845584Y-113543836D01*
X188845582Y-113543834D01*
X188845579Y-113543830D01*
X188750281Y-113448532D01*
X188750278Y-113448530D01*
X188750276Y-113448528D01*
X188630182Y-113387337D01*
X188630180Y-113387336D01*
X188620902Y-113384322D01*
X188621878Y-113381316D01*
X188573644Y-113358440D01*
X188568513Y-113353592D01*
X184558875Y-109343954D01*
X184525390Y-109282631D01*
X184522556Y-109256273D01*
X184522556Y-109172053D01*
X191728752Y-109172053D01*
X191728752Y-109172058D01*
X191749835Y-109305177D01*
X191749836Y-109305180D01*
X191749837Y-109305182D01*
X191811028Y-109425276D01*
X191811029Y-109425277D01*
X191811032Y-109425281D01*
X191906330Y-109520579D01*
X191906334Y-109520582D01*
X191906336Y-109520584D01*
X192026430Y-109581775D01*
X192026432Y-109581775D01*
X192026434Y-109581776D01*
X192159554Y-109602860D01*
X192159556Y-109602860D01*
X192159558Y-109602860D01*
X192292677Y-109581776D01*
X192292677Y-109581775D01*
X192292682Y-109581775D01*
X192412776Y-109520584D01*
X192508084Y-109425276D01*
X192569275Y-109305182D01*
X192575342Y-109266878D01*
X192590360Y-109172058D01*
X192590360Y-109172053D01*
X192569276Y-109038934D01*
X192569275Y-109038932D01*
X192569275Y-109038930D01*
X192508084Y-108918836D01*
X192508082Y-108918834D01*
X192508079Y-108918830D01*
X192412781Y-108823532D01*
X192412777Y-108823529D01*
X192412776Y-108823528D01*
X192292682Y-108762337D01*
X192292680Y-108762336D01*
X192292677Y-108762335D01*
X192159558Y-108741252D01*
X192159554Y-108741252D01*
X192026434Y-108762335D01*
X191906334Y-108823529D01*
X191906330Y-108823532D01*
X191811032Y-108918830D01*
X191811029Y-108918834D01*
X191749835Y-109038934D01*
X191728752Y-109172053D01*
X184522556Y-109172053D01*
X184522556Y-105697053D01*
X189366252Y-105697053D01*
X189366252Y-105697058D01*
X189387335Y-105830177D01*
X189387336Y-105830180D01*
X189387337Y-105830182D01*
X189427448Y-105908904D01*
X189448529Y-105950277D01*
X189448532Y-105950281D01*
X189543830Y-106045579D01*
X189543834Y-106045582D01*
X189543836Y-106045584D01*
X189663930Y-106106775D01*
X189663932Y-106106775D01*
X189663934Y-106106776D01*
X189797054Y-106127860D01*
X189797056Y-106127860D01*
X189797058Y-106127860D01*
X189930177Y-106106776D01*
X189930177Y-106106775D01*
X189930182Y-106106775D01*
X190050276Y-106045584D01*
X190145584Y-105950276D01*
X190206775Y-105830182D01*
X190222515Y-105730804D01*
X190227860Y-105697058D01*
X190227860Y-105697053D01*
X190206776Y-105563934D01*
X190206775Y-105563932D01*
X190206775Y-105563930D01*
X190145584Y-105443836D01*
X190145582Y-105443834D01*
X190145579Y-105443830D01*
X190050281Y-105348532D01*
X190050277Y-105348529D01*
X190050276Y-105348528D01*
X189930182Y-105287337D01*
X189930180Y-105287336D01*
X189930177Y-105287335D01*
X189797058Y-105266252D01*
X189797054Y-105266252D01*
X189663934Y-105287335D01*
X189663930Y-105287336D01*
X189663930Y-105287337D01*
X189639074Y-105300002D01*
X189543834Y-105348529D01*
X189543830Y-105348532D01*
X189448532Y-105443830D01*
X189448529Y-105443834D01*
X189448528Y-105443836D01*
X189392792Y-105553225D01*
X189387335Y-105563934D01*
X189366252Y-105697053D01*
X184522556Y-105697053D01*
X184522556Y-104764005D01*
X184542241Y-104696966D01*
X184558875Y-104676324D01*
X185871324Y-103363875D01*
X185932647Y-103330390D01*
X185959005Y-103327556D01*
X191244445Y-103327556D01*
X191311484Y-103347241D01*
X191332126Y-103363875D01*
X191343830Y-103375579D01*
X191343834Y-103375582D01*
X191343836Y-103375584D01*
X191463930Y-103436775D01*
X191463932Y-103436775D01*
X191463934Y-103436776D01*
X191597054Y-103457860D01*
X191597056Y-103457860D01*
X191597058Y-103457860D01*
X191730177Y-103436776D01*
X191730177Y-103436775D01*
X191730182Y-103436775D01*
X191850276Y-103375584D01*
X191945584Y-103280276D01*
X192006775Y-103160182D01*
X192008154Y-103151476D01*
X192027860Y-103027058D01*
X192027860Y-103027053D01*
X192006776Y-102893934D01*
X192006775Y-102893932D01*
X192006775Y-102893930D01*
X191945584Y-102773836D01*
X191945582Y-102773834D01*
X191945579Y-102773830D01*
X191850281Y-102678532D01*
X191850277Y-102678529D01*
X191850276Y-102678528D01*
X191730182Y-102617337D01*
X191730180Y-102617336D01*
X191730177Y-102617335D01*
X191597058Y-102596252D01*
X191597054Y-102596252D01*
X191463934Y-102617335D01*
X191343834Y-102678529D01*
X191343830Y-102678532D01*
X191332126Y-102690237D01*
X191270803Y-102723722D01*
X191244445Y-102726556D01*
X185743610Y-102726556D01*
X185702708Y-102737516D01*
X185667179Y-102747036D01*
X185608237Y-102781067D01*
X185598664Y-102786593D01*
X185598659Y-102786597D01*
X183981597Y-104403659D01*
X183981593Y-104403664D01*
X183956887Y-104446458D01*
X183906321Y-104494673D01*
X183837714Y-104507897D01*
X183772849Y-104481929D01*
X183732320Y-104425015D01*
X183725500Y-104384458D01*
X183725500Y-103825205D01*
X183745185Y-103758166D01*
X183748412Y-103753444D01*
X183748524Y-103753223D01*
X183748528Y-103753220D01*
X183809719Y-103633126D01*
X183814438Y-103603334D01*
X183830804Y-103500002D01*
X183830804Y-103499997D01*
X183809720Y-103366878D01*
X183809719Y-103366876D01*
X183809719Y-103366874D01*
X183748528Y-103246780D01*
X183748526Y-103246778D01*
X183748523Y-103246774D01*
X183653225Y-103151476D01*
X183653221Y-103151473D01*
X183653220Y-103151472D01*
X183533126Y-103090281D01*
X183533124Y-103090280D01*
X183533121Y-103090279D01*
X183400002Y-103069196D01*
X183399998Y-103069196D01*
X183266878Y-103090279D01*
X183146778Y-103151473D01*
X183146774Y-103151476D01*
X183051476Y-103246774D01*
X183051473Y-103246778D01*
X182990279Y-103366878D01*
X182969196Y-103499997D01*
X181597556Y-103499997D01*
X181597556Y-103478777D01*
X181617241Y-103411738D01*
X181633875Y-103391096D01*
X182591096Y-102433875D01*
X182652419Y-102400390D01*
X182678777Y-102397556D01*
X183599892Y-102397556D01*
X183599894Y-102397556D01*
X183676321Y-102377077D01*
X183744843Y-102337516D01*
X183800792Y-102281567D01*
X184450894Y-101631465D01*
X184512217Y-101597980D01*
X184538575Y-101595146D01*
X184644914Y-101595146D01*
X184644916Y-101595146D01*
X184721343Y-101574667D01*
X184789865Y-101535106D01*
X184845814Y-101479157D01*
X186137516Y-100187455D01*
X186177077Y-100118933D01*
X186197556Y-100042506D01*
X186197556Y-98357494D01*
X186177077Y-98281067D01*
X186177076Y-98281065D01*
X186173966Y-98273557D01*
X186175894Y-98272758D01*
X186162041Y-98215657D01*
X186184893Y-98149630D01*
X186239814Y-98106439D01*
X186285901Y-98097556D01*
X186570724Y-98097556D01*
X186637763Y-98117241D01*
X186683518Y-98170045D01*
X186693462Y-98239203D01*
X186688654Y-98259878D01*
X186687335Y-98263935D01*
X186666252Y-98397053D01*
X186666252Y-98397058D01*
X186687335Y-98530177D01*
X186687336Y-98530180D01*
X186687337Y-98530182D01*
X186748528Y-98650276D01*
X186748529Y-98650277D01*
X186748532Y-98650281D01*
X186843830Y-98745579D01*
X186843834Y-98745582D01*
X186843836Y-98745584D01*
X186963930Y-98806775D01*
X186963932Y-98806775D01*
X186963934Y-98806776D01*
X187097054Y-98827860D01*
X187097056Y-98827860D01*
X187097058Y-98827860D01*
X187230177Y-98806776D01*
X187230177Y-98806775D01*
X187230182Y-98806775D01*
X187350276Y-98745584D01*
X187445584Y-98650276D01*
X187450686Y-98640261D01*
X187498660Y-98589466D01*
X187561171Y-98572556D01*
X193196223Y-98572556D01*
X193263262Y-98592241D01*
X193283904Y-98608875D01*
X193657029Y-98982000D01*
X193690514Y-99043323D01*
X193685530Y-99113015D01*
X193643658Y-99168948D01*
X193578194Y-99193365D01*
X193539848Y-99188687D01*
X193539821Y-99188863D01*
X193534909Y-99188085D01*
X193531031Y-99187612D01*
X193530183Y-99187336D01*
X193397058Y-99166252D01*
X193397054Y-99166252D01*
X193263934Y-99187335D01*
X193263930Y-99187336D01*
X193263930Y-99187337D01*
X193260935Y-99188863D01*
X193143834Y-99248529D01*
X193143830Y-99248532D01*
X193048532Y-99343830D01*
X193048529Y-99343834D01*
X192987335Y-99463934D01*
X192966252Y-99597053D01*
X192966252Y-99597058D01*
X192987336Y-99730183D01*
X192987612Y-99731031D01*
X192987643Y-99732118D01*
X192988863Y-99739821D01*
X192987867Y-99739978D01*
X192989607Y-99800872D01*
X192953526Y-99860705D01*
X192890825Y-99891532D01*
X192821410Y-99883567D01*
X192782000Y-99857029D01*
X192457447Y-99532476D01*
X192423962Y-99471153D01*
X192422655Y-99464192D01*
X192406776Y-99363934D01*
X192406775Y-99363932D01*
X192406775Y-99363930D01*
X192345584Y-99243836D01*
X192345582Y-99243834D01*
X192345579Y-99243830D01*
X192250281Y-99148532D01*
X192250277Y-99148529D01*
X192250276Y-99148528D01*
X192130182Y-99087337D01*
X192130180Y-99087336D01*
X192130177Y-99087335D01*
X191997058Y-99066252D01*
X191997054Y-99066252D01*
X191863934Y-99087335D01*
X191743834Y-99148529D01*
X191743830Y-99148532D01*
X191648532Y-99243830D01*
X191648529Y-99243834D01*
X191587335Y-99363934D01*
X191566252Y-99497053D01*
X191566252Y-99497058D01*
X191587335Y-99630177D01*
X191587336Y-99630180D01*
X191587337Y-99630182D01*
X191643201Y-99739821D01*
X191648529Y-99750277D01*
X191648532Y-99750281D01*
X191743830Y-99845579D01*
X191743834Y-99845582D01*
X191743836Y-99845584D01*
X191863930Y-99906775D01*
X191863932Y-99906775D01*
X191863934Y-99906776D01*
X191964192Y-99922655D01*
X192027327Y-99952584D01*
X192032476Y-99957447D01*
X193360237Y-101285208D01*
X193393722Y-101346531D01*
X193396556Y-101372889D01*
X193396556Y-115721223D01*
X193376871Y-115788262D01*
X193360237Y-115808904D01*
X192113904Y-117055237D01*
X192052581Y-117088722D01*
X192026223Y-117091556D01*
X191790053Y-117091556D01*
X191723014Y-117071871D01*
X191689133Y-117039606D01*
X191686250Y-117035568D01*
X191603541Y-116952859D01*
X191498447Y-116901482D01*
X191430317Y-116891556D01*
X191430316Y-116891556D01*
X189713796Y-116891556D01*
X189713795Y-116891556D01*
X189645664Y-116901482D01*
X189540570Y-116952859D01*
X189457859Y-117035570D01*
X189406482Y-117140664D01*
X189396556Y-117208795D01*
X189396556Y-117575316D01*
X189406482Y-117643447D01*
X189457859Y-117748541D01*
X189540570Y-117831252D01*
X189540571Y-117831252D01*
X189540573Y-117831254D01*
X189645663Y-117882629D01*
X189679729Y-117887592D01*
X189713795Y-117892556D01*
X189713796Y-117892556D01*
X191430317Y-117892556D01*
X191453027Y-117889247D01*
X191498449Y-117882629D01*
X191603539Y-117831254D01*
X191603541Y-117831251D01*
X191603543Y-117831251D01*
X191607082Y-117828725D01*
X191612717Y-117826766D01*
X191612770Y-117826741D01*
X191612773Y-117826747D01*
X191673080Y-117805790D01*
X191741000Y-117822177D01*
X191789279Y-117872684D01*
X191802588Y-117941274D01*
X191776701Y-118006172D01*
X191766820Y-118017318D01*
X191673645Y-118110494D01*
X191637759Y-118146380D01*
X191576436Y-118179864D01*
X191506744Y-118174880D01*
X191499838Y-118171912D01*
X191498444Y-118171481D01*
X191430317Y-118161556D01*
X191430316Y-118161556D01*
X189713796Y-118161556D01*
X189713795Y-118161556D01*
X189645664Y-118171482D01*
X189540570Y-118222859D01*
X189457859Y-118305570D01*
X189406482Y-118410664D01*
X189396556Y-118478795D01*
X189396556Y-118845316D01*
X189406482Y-118913447D01*
X189457859Y-119018541D01*
X189540570Y-119101252D01*
X189540571Y-119101252D01*
X189540573Y-119101254D01*
X189645663Y-119152629D01*
X189679729Y-119157592D01*
X189713795Y-119162556D01*
X189713796Y-119162556D01*
X191430317Y-119162556D01*
X191453027Y-119159247D01*
X191498449Y-119152629D01*
X191603539Y-119101254D01*
X191686254Y-119018539D01*
X191686255Y-119018538D01*
X191741860Y-118904797D01*
X191743704Y-118905698D01*
X191766953Y-118867127D01*
X191787515Y-118846567D01*
X192737516Y-117896566D01*
X192749840Y-117875218D01*
X192769545Y-117849536D01*
X194337516Y-116281567D01*
X194377078Y-116213044D01*
X194397556Y-116136618D01*
X194397556Y-116057494D01*
X194397556Y-100257494D01*
X194377077Y-100181067D01*
X194377073Y-100181060D01*
X194337520Y-100112551D01*
X194337514Y-100112543D01*
X193857447Y-99632476D01*
X193823962Y-99571153D01*
X193822655Y-99564192D01*
X193806776Y-99463934D01*
X193806501Y-99463087D01*
X193806469Y-99461998D01*
X193805249Y-99454290D01*
X193806244Y-99454132D01*
X193804502Y-99393246D01*
X193840580Y-99333411D01*
X193903279Y-99302580D01*
X193972694Y-99310541D01*
X194012111Y-99337082D01*
X198612545Y-103937516D01*
X198681068Y-103977078D01*
X198757494Y-103997556D01*
X198836618Y-103997556D01*
X205244445Y-103997556D01*
X205311484Y-104017241D01*
X205332126Y-104033875D01*
X205343830Y-104045579D01*
X205343834Y-104045582D01*
X205343836Y-104045584D01*
X205463930Y-104106775D01*
X205463932Y-104106775D01*
X205463934Y-104106776D01*
X205597054Y-104127860D01*
X205597056Y-104127860D01*
X205597058Y-104127860D01*
X205730177Y-104106776D01*
X205730177Y-104106775D01*
X205730182Y-104106775D01*
X205850276Y-104045584D01*
X205945584Y-103950276D01*
X206006775Y-103830182D01*
X206023182Y-103726587D01*
X206053110Y-103663456D01*
X206112422Y-103626524D01*
X206182284Y-103627522D01*
X206233336Y-103658307D01*
X206660237Y-104085208D01*
X206693722Y-104146531D01*
X206696556Y-104172889D01*
X206696556Y-105821223D01*
X206676871Y-105888262D01*
X206660237Y-105908904D01*
X201059541Y-111509599D01*
X201059535Y-111509607D01*
X201019982Y-111578116D01*
X201019979Y-111578121D01*
X201011995Y-111607918D01*
X201001264Y-111647969D01*
X200999500Y-111654551D01*
X200999500Y-124324167D01*
X200979815Y-124391206D01*
X200963181Y-124411848D01*
X196014792Y-129360237D01*
X195953469Y-129393722D01*
X195927111Y-129396556D01*
X194249667Y-129396556D01*
X194182628Y-129376871D01*
X194161986Y-129360237D01*
X194150281Y-129348532D01*
X194150277Y-129348529D01*
X194150276Y-129348528D01*
X194030182Y-129287337D01*
X194030180Y-129287336D01*
X194030177Y-129287335D01*
X193897058Y-129266252D01*
X193897054Y-129266252D01*
X193763934Y-129287335D01*
X193643834Y-129348529D01*
X193643830Y-129348532D01*
X193548532Y-129443830D01*
X193548529Y-129443834D01*
X193487335Y-129563934D01*
X193466252Y-129697053D01*
X193466252Y-129697058D01*
X193487335Y-129830177D01*
X193487336Y-129830180D01*
X193487337Y-129830182D01*
X193548528Y-129950276D01*
X193548529Y-129950277D01*
X193548532Y-129950281D01*
X193643830Y-130045579D01*
X193643834Y-130045582D01*
X193643836Y-130045584D01*
X193763930Y-130106775D01*
X193763932Y-130106775D01*
X193763934Y-130106776D01*
X193897054Y-130127860D01*
X193897056Y-130127860D01*
X193897058Y-130127860D01*
X194030177Y-130106776D01*
X194030177Y-130106775D01*
X194030182Y-130106775D01*
X194105132Y-130068586D01*
X199546556Y-130068586D01*
X199546556Y-130575525D01*
X199586924Y-130778468D01*
X199586926Y-130778476D01*
X199666114Y-130969652D01*
X199781080Y-131141713D01*
X199927398Y-131288031D01*
X199927401Y-131288033D01*
X200099458Y-131402997D01*
X200290636Y-131482186D01*
X200479243Y-131519702D01*
X200493586Y-131522555D01*
X200493590Y-131522556D01*
X200493591Y-131522556D01*
X200700522Y-131522556D01*
X200700523Y-131522555D01*
X200903476Y-131482186D01*
X201094654Y-131402997D01*
X201266711Y-131288033D01*
X201413033Y-131141711D01*
X201527997Y-130969654D01*
X201607186Y-130778476D01*
X201647556Y-130575521D01*
X201647556Y-130068591D01*
X201607186Y-129865636D01*
X201527997Y-129674458D01*
X201423313Y-129517786D01*
X202046556Y-129517786D01*
X202046556Y-131126325D01*
X202049409Y-131156755D01*
X202049409Y-131156757D01*
X202094262Y-131284936D01*
X202094263Y-131284938D01*
X202174906Y-131394206D01*
X202284174Y-131474849D01*
X202305145Y-131482187D01*
X202412355Y-131519702D01*
X202442786Y-131522556D01*
X202442790Y-131522556D01*
X203751326Y-131522556D01*
X203781755Y-131519702D01*
X203781757Y-131519702D01*
X203845846Y-131497275D01*
X203909938Y-131474849D01*
X204019206Y-131394206D01*
X204099849Y-131284938D01*
X204122275Y-131220846D01*
X204144702Y-131156757D01*
X204144702Y-131156755D01*
X204147556Y-131126325D01*
X204147556Y-129517786D01*
X204144702Y-129487356D01*
X204144702Y-129487354D01*
X204099849Y-129359175D01*
X204099848Y-129359173D01*
X204098748Y-129357682D01*
X204019206Y-129249906D01*
X203909938Y-129169263D01*
X203909936Y-129169262D01*
X203781756Y-129124409D01*
X203751326Y-129121556D01*
X203751322Y-129121556D01*
X202442790Y-129121556D01*
X202442786Y-129121556D01*
X202412356Y-129124409D01*
X202412354Y-129124409D01*
X202284175Y-129169262D01*
X202284173Y-129169263D01*
X202174906Y-129249906D01*
X202094263Y-129359173D01*
X202094262Y-129359175D01*
X202049409Y-129487354D01*
X202049409Y-129487356D01*
X202046556Y-129517786D01*
X201423313Y-129517786D01*
X201413033Y-129502401D01*
X201413031Y-129502398D01*
X201266713Y-129356080D01*
X201132274Y-129266252D01*
X201094654Y-129241115D01*
X201059153Y-129226410D01*
X200903476Y-129161926D01*
X200903468Y-129161924D01*
X200700525Y-129121556D01*
X200700521Y-129121556D01*
X200493591Y-129121556D01*
X200493586Y-129121556D01*
X200290643Y-129161924D01*
X200290635Y-129161926D01*
X200099459Y-129241114D01*
X199927398Y-129356080D01*
X199781080Y-129502398D01*
X199666114Y-129674459D01*
X199586926Y-129865635D01*
X199586924Y-129865643D01*
X199546556Y-130068586D01*
X194105132Y-130068586D01*
X194150276Y-130045584D01*
X194150281Y-130045579D01*
X194161986Y-130033875D01*
X194223309Y-130000390D01*
X194249667Y-129997556D01*
X196142504Y-129997556D01*
X196142506Y-129997556D01*
X196218933Y-129977077D01*
X196287455Y-129937516D01*
X196343404Y-129881567D01*
X199324974Y-126899997D01*
X207369196Y-126899997D01*
X207369196Y-126900002D01*
X207390279Y-127033121D01*
X207390280Y-127033124D01*
X207390281Y-127033126D01*
X207451472Y-127153220D01*
X207451473Y-127153221D01*
X207451476Y-127153225D01*
X207546774Y-127248523D01*
X207546778Y-127248526D01*
X207546780Y-127248528D01*
X207666874Y-127309719D01*
X207666876Y-127309719D01*
X207666878Y-127309720D01*
X207799998Y-127330804D01*
X207800000Y-127330804D01*
X207800002Y-127330804D01*
X207933121Y-127309720D01*
X207933121Y-127309719D01*
X207933126Y-127309719D01*
X208053220Y-127248528D01*
X208148528Y-127153220D01*
X208209719Y-127033126D01*
X208211937Y-127019124D01*
X208230804Y-126900002D01*
X208230804Y-126899997D01*
X208209720Y-126766878D01*
X208209719Y-126766876D01*
X208209719Y-126766874D01*
X208148528Y-126646780D01*
X208148526Y-126646778D01*
X208148523Y-126646774D01*
X208053225Y-126551476D01*
X208053221Y-126551473D01*
X208053220Y-126551472D01*
X207933126Y-126490281D01*
X207933124Y-126490280D01*
X207933121Y-126490279D01*
X207800002Y-126469196D01*
X207799998Y-126469196D01*
X207666878Y-126490279D01*
X207546778Y-126551473D01*
X207546774Y-126551476D01*
X207451476Y-126646774D01*
X207451473Y-126646778D01*
X207390279Y-126766878D01*
X207369196Y-126899997D01*
X199324974Y-126899997D01*
X201540460Y-124684511D01*
X201580021Y-124615989D01*
X201600500Y-124539562D01*
X201600500Y-121892786D01*
X202496556Y-121892786D01*
X202496556Y-123201325D01*
X202499409Y-123231755D01*
X202499409Y-123231757D01*
X202536124Y-123336679D01*
X202544263Y-123359938D01*
X202624906Y-123469206D01*
X202734174Y-123549849D01*
X202776901Y-123564800D01*
X202862355Y-123594702D01*
X202892786Y-123597556D01*
X202892790Y-123597556D01*
X204451326Y-123597556D01*
X204481755Y-123594702D01*
X204481757Y-123594702D01*
X204545846Y-123572275D01*
X204609938Y-123549849D01*
X204719206Y-123469206D01*
X204799849Y-123359938D01*
X204832567Y-123266436D01*
X204844702Y-123231757D01*
X204844702Y-123231755D01*
X204847556Y-123201325D01*
X204847556Y-121892786D01*
X204844702Y-121862356D01*
X204844702Y-121862354D01*
X204811062Y-121766219D01*
X204799849Y-121734174D01*
X204719206Y-121624906D01*
X204609938Y-121544263D01*
X204609936Y-121544262D01*
X204481756Y-121499409D01*
X204451326Y-121496556D01*
X204451322Y-121496556D01*
X202892790Y-121496556D01*
X202892786Y-121496556D01*
X202862356Y-121499409D01*
X202862354Y-121499409D01*
X202734175Y-121544262D01*
X202734173Y-121544263D01*
X202624906Y-121624906D01*
X202544263Y-121734173D01*
X202544262Y-121734175D01*
X202499409Y-121862354D01*
X202499409Y-121862356D01*
X202496556Y-121892786D01*
X201600500Y-121892786D01*
X201600500Y-119943586D01*
X202496556Y-119943586D01*
X202496556Y-120150525D01*
X202536924Y-120353468D01*
X202536926Y-120353476D01*
X202569272Y-120431567D01*
X202616115Y-120544654D01*
X202646602Y-120590281D01*
X202731080Y-120716713D01*
X202877398Y-120863031D01*
X202877401Y-120863033D01*
X203049458Y-120977997D01*
X203240636Y-121057186D01*
X203429801Y-121094813D01*
X203443586Y-121097555D01*
X203443590Y-121097556D01*
X203443591Y-121097556D01*
X203900522Y-121097556D01*
X203900523Y-121097555D01*
X204103476Y-121057186D01*
X204294654Y-120977997D01*
X204466711Y-120863033D01*
X204613033Y-120716711D01*
X204727997Y-120544654D01*
X204807186Y-120353476D01*
X204847556Y-120150521D01*
X204847556Y-119943591D01*
X204807186Y-119740636D01*
X204727997Y-119549458D01*
X204613033Y-119377401D01*
X204613031Y-119377398D01*
X204466713Y-119231080D01*
X204329814Y-119139608D01*
X204294654Y-119116115D01*
X204103476Y-119036926D01*
X204103468Y-119036924D01*
X203900525Y-118996556D01*
X203900521Y-118996556D01*
X203443591Y-118996556D01*
X203443586Y-118996556D01*
X203240643Y-119036924D01*
X203240635Y-119036926D01*
X203049459Y-119116114D01*
X202877398Y-119231080D01*
X202731080Y-119377398D01*
X202616114Y-119549459D01*
X202536926Y-119740635D01*
X202536924Y-119740643D01*
X202496556Y-119943586D01*
X201600500Y-119943586D01*
X201600500Y-114797056D01*
X202219825Y-114797056D01*
X203267910Y-114797056D01*
X203229426Y-114863713D01*
X203197056Y-114984521D01*
X203197056Y-115109591D01*
X203229426Y-115230399D01*
X203267910Y-115297056D01*
X202219825Y-115297056D01*
X202230298Y-115363182D01*
X202230298Y-115363185D01*
X202295960Y-115565273D01*
X202392435Y-115754613D01*
X202517328Y-115926515D01*
X202517332Y-115926520D01*
X202667591Y-116076779D01*
X202667596Y-116076783D01*
X202839498Y-116201676D01*
X203028838Y-116298151D01*
X203150911Y-116337815D01*
X203208586Y-116377252D01*
X203235785Y-116441611D01*
X203223871Y-116510457D01*
X203176626Y-116561933D01*
X203160046Y-116570307D01*
X203049460Y-116616113D01*
X202877398Y-116731080D01*
X202731080Y-116877398D01*
X202616114Y-117049459D01*
X202536926Y-117240635D01*
X202536924Y-117240643D01*
X202496556Y-117443586D01*
X202496556Y-117650525D01*
X202536924Y-117853468D01*
X202536926Y-117853476D01*
X202595286Y-117994370D01*
X202616115Y-118044654D01*
X202632976Y-118069888D01*
X202731080Y-118216713D01*
X202877398Y-118363031D01*
X202877401Y-118363033D01*
X203049458Y-118477997D01*
X203240636Y-118557186D01*
X203443586Y-118597555D01*
X203443590Y-118597556D01*
X203443591Y-118597556D01*
X203900522Y-118597556D01*
X203900523Y-118597555D01*
X204103476Y-118557186D01*
X204294654Y-118477997D01*
X204466711Y-118363033D01*
X204613033Y-118216711D01*
X204727997Y-118044654D01*
X204807186Y-117853476D01*
X204847556Y-117650521D01*
X204847556Y-117443591D01*
X204807186Y-117240636D01*
X204727997Y-117049458D01*
X204613033Y-116877401D01*
X204613031Y-116877398D01*
X204466713Y-116731080D01*
X204294652Y-116616113D01*
X204184065Y-116570307D01*
X204129662Y-116526466D01*
X204107597Y-116460172D01*
X204124876Y-116392472D01*
X204176014Y-116344862D01*
X204193200Y-116337815D01*
X204315273Y-116298151D01*
X204504613Y-116201676D01*
X204676515Y-116076783D01*
X204676520Y-116076779D01*
X204826779Y-115926520D01*
X204826783Y-115926515D01*
X204951676Y-115754613D01*
X205048151Y-115565273D01*
X205113813Y-115363185D01*
X205113813Y-115363182D01*
X205124287Y-115297056D01*
X204076202Y-115297056D01*
X204114686Y-115230399D01*
X204147056Y-115109591D01*
X204147056Y-114984521D01*
X204114686Y-114863713D01*
X204076202Y-114797056D01*
X205124287Y-114797056D01*
X205113813Y-114730929D01*
X205113813Y-114730926D01*
X205048151Y-114528838D01*
X204951676Y-114339498D01*
X204826783Y-114167596D01*
X204826779Y-114167591D01*
X204676520Y-114017332D01*
X204676515Y-114017328D01*
X204504613Y-113892435D01*
X204315273Y-113795960D01*
X204113184Y-113730298D01*
X203922056Y-113700025D01*
X203922056Y-114642910D01*
X203855399Y-114604426D01*
X203734591Y-114572056D01*
X203609521Y-114572056D01*
X203488713Y-114604426D01*
X203422056Y-114642910D01*
X203422056Y-113700025D01*
X203230928Y-113730298D01*
X203230925Y-113730298D01*
X203028838Y-113795960D01*
X202839498Y-113892435D01*
X202667596Y-114017328D01*
X202667591Y-114017332D01*
X202517332Y-114167591D01*
X202517328Y-114167596D01*
X202392435Y-114339498D01*
X202295960Y-114528838D01*
X202230298Y-114730926D01*
X202230298Y-114730929D01*
X202219825Y-114797056D01*
X201600500Y-114797056D01*
X201600500Y-111869945D01*
X201620185Y-111802906D01*
X201636819Y-111782264D01*
X204424275Y-108994808D01*
X207237516Y-106181567D01*
X207277077Y-106113045D01*
X207297556Y-106036618D01*
X207297556Y-103957494D01*
X207277077Y-103881067D01*
X207259991Y-103851473D01*
X207237520Y-103812551D01*
X207237514Y-103812543D01*
X206281568Y-102856597D01*
X206281563Y-102856593D01*
X206222960Y-102822759D01*
X206174745Y-102772192D01*
X206161521Y-102703585D01*
X206187489Y-102638720D01*
X206197271Y-102627699D01*
X206637516Y-102187455D01*
X206677077Y-102118933D01*
X206697556Y-102042506D01*
X206697556Y-101349666D01*
X206717241Y-101282627D01*
X206733872Y-101261987D01*
X206745584Y-101250276D01*
X206806775Y-101130182D01*
X206806776Y-101130177D01*
X206827860Y-100997058D01*
X206827860Y-100997053D01*
X206806776Y-100863932D01*
X206796883Y-100844516D01*
X206787595Y-100820322D01*
X206777077Y-100781068D01*
X206737516Y-100712545D01*
X206681567Y-100656596D01*
X206681566Y-100656595D01*
X206613044Y-100617035D01*
X206613037Y-100617032D01*
X206573794Y-100606517D01*
X206549595Y-100597228D01*
X206530180Y-100587336D01*
X206530182Y-100587336D01*
X206397058Y-100566252D01*
X206397054Y-100566252D01*
X206263934Y-100587335D01*
X206143834Y-100648529D01*
X206143830Y-100648532D01*
X206048532Y-100743830D01*
X206048529Y-100743834D01*
X205987335Y-100863934D01*
X205966252Y-100997053D01*
X205966252Y-100997058D01*
X205987335Y-101130177D01*
X205987336Y-101130180D01*
X205987337Y-101130182D01*
X206048528Y-101250276D01*
X206060236Y-101261984D01*
X206093722Y-101323305D01*
X206096556Y-101349666D01*
X206096556Y-101827111D01*
X206076871Y-101894150D01*
X206060237Y-101914792D01*
X205814792Y-102160237D01*
X205753469Y-102193722D01*
X205727111Y-102196556D01*
X199172889Y-102196556D01*
X199105850Y-102176871D01*
X199085208Y-102160237D01*
X194622024Y-97697053D01*
X195966252Y-97697053D01*
X195966252Y-97697058D01*
X195987335Y-97830177D01*
X195987336Y-97830180D01*
X195987337Y-97830182D01*
X196048528Y-97950276D01*
X196048529Y-97950277D01*
X196048532Y-97950281D01*
X196143830Y-98045579D01*
X196143834Y-98045582D01*
X196143836Y-98045584D01*
X196263930Y-98106775D01*
X196263932Y-98106775D01*
X196263934Y-98106776D01*
X196397054Y-98127860D01*
X196397056Y-98127860D01*
X196397058Y-98127860D01*
X196530177Y-98106776D01*
X196530177Y-98106775D01*
X196530182Y-98106775D01*
X196650276Y-98045584D01*
X196745584Y-97950276D01*
X196806775Y-97830182D01*
X196827860Y-97697056D01*
X196806775Y-97563930D01*
X196745584Y-97443836D01*
X196745582Y-97443834D01*
X196745579Y-97443830D01*
X196650281Y-97348532D01*
X196650277Y-97348529D01*
X196650276Y-97348528D01*
X196530182Y-97287337D01*
X196530180Y-97287336D01*
X196530177Y-97287335D01*
X196397058Y-97266252D01*
X196397054Y-97266252D01*
X196263934Y-97287335D01*
X196143834Y-97348529D01*
X196143830Y-97348532D01*
X196048532Y-97443830D01*
X196048529Y-97443834D01*
X195987335Y-97563934D01*
X195966252Y-97697053D01*
X194622024Y-97697053D01*
X193881568Y-96956597D01*
X193881560Y-96956591D01*
X193813051Y-96917038D01*
X193813046Y-96917035D01*
X193787569Y-96910208D01*
X193736618Y-96896556D01*
X193736616Y-96896556D01*
X186933687Y-96896556D01*
X186866648Y-96876871D01*
X186820893Y-96824067D01*
X186811214Y-96791953D01*
X186806776Y-96763933D01*
X186806776Y-96763932D01*
X186806775Y-96763930D01*
X186745584Y-96643836D01*
X186745580Y-96643832D01*
X186745579Y-96643830D01*
X186650281Y-96548532D01*
X186650277Y-96548529D01*
X186650276Y-96548528D01*
X186530182Y-96487337D01*
X186530180Y-96487336D01*
X186530177Y-96487335D01*
X186397058Y-96466252D01*
X186397054Y-96466252D01*
X186263934Y-96487335D01*
X186143834Y-96548529D01*
X186143830Y-96548532D01*
X186048532Y-96643830D01*
X186048529Y-96643834D01*
X186048528Y-96643836D01*
X186004533Y-96730182D01*
X185987335Y-96763934D01*
X185984602Y-96781194D01*
X185954673Y-96844329D01*
X185895361Y-96881260D01*
X185825499Y-96880262D01*
X185774448Y-96849477D01*
X184922024Y-95997053D01*
X191266252Y-95997053D01*
X191266252Y-95997058D01*
X191287335Y-96130177D01*
X191287336Y-96130180D01*
X191287337Y-96130182D01*
X191348528Y-96250276D01*
X191348529Y-96250277D01*
X191348532Y-96250281D01*
X191443830Y-96345579D01*
X191443834Y-96345582D01*
X191443836Y-96345584D01*
X191563930Y-96406775D01*
X191563932Y-96406775D01*
X191563934Y-96406776D01*
X191697054Y-96427860D01*
X191697056Y-96427860D01*
X191697058Y-96427860D01*
X191830177Y-96406776D01*
X191830177Y-96406775D01*
X191830182Y-96406775D01*
X191950276Y-96345584D01*
X192045584Y-96250276D01*
X192106775Y-96130182D01*
X192110482Y-96106776D01*
X192127860Y-95997058D01*
X192127860Y-95997053D01*
X192106776Y-95863934D01*
X192106775Y-95863932D01*
X192106775Y-95863930D01*
X192045584Y-95743836D01*
X192045582Y-95743834D01*
X192045579Y-95743830D01*
X191950281Y-95648532D01*
X191950277Y-95648529D01*
X191950276Y-95648528D01*
X191830182Y-95587337D01*
X191830180Y-95587336D01*
X191830177Y-95587335D01*
X191697058Y-95566252D01*
X191697054Y-95566252D01*
X191563934Y-95587335D01*
X191443834Y-95648529D01*
X191443830Y-95648532D01*
X191348532Y-95743830D01*
X191348529Y-95743834D01*
X191348528Y-95743836D01*
X191304533Y-95830182D01*
X191287335Y-95863934D01*
X191266252Y-95997053D01*
X184922024Y-95997053D01*
X184857447Y-95932476D01*
X184823962Y-95871153D01*
X184822655Y-95864192D01*
X184806776Y-95763934D01*
X184806775Y-95763932D01*
X184806775Y-95763930D01*
X184745584Y-95643836D01*
X184745582Y-95643834D01*
X184745579Y-95643830D01*
X184650281Y-95548532D01*
X184650277Y-95548529D01*
X184650276Y-95548528D01*
X184530182Y-95487337D01*
X184530180Y-95487336D01*
X184530177Y-95487335D01*
X184397058Y-95466252D01*
X184397054Y-95466252D01*
X184263934Y-95487335D01*
X184263930Y-95487336D01*
X184263930Y-95487337D01*
X184177849Y-95531197D01*
X184109181Y-95544093D01*
X184044441Y-95517816D01*
X184004184Y-95460710D01*
X183997556Y-95420712D01*
X183997556Y-89622888D01*
X184017241Y-89555849D01*
X184033870Y-89535212D01*
X186961636Y-86607445D01*
X187022957Y-86573962D01*
X187029877Y-86572661D01*
X187130182Y-86556775D01*
X187250276Y-86495584D01*
X187345584Y-86400276D01*
X187406775Y-86280182D01*
X187414679Y-86230277D01*
X187427860Y-86147058D01*
X187427860Y-86147053D01*
X187406776Y-86013934D01*
X187406775Y-86013932D01*
X187406775Y-86013930D01*
X187345584Y-85893836D01*
X187345582Y-85893834D01*
X187345579Y-85893830D01*
X187250281Y-85798532D01*
X187250277Y-85798529D01*
X187250276Y-85798528D01*
X187130182Y-85737337D01*
X187130180Y-85737336D01*
X187130177Y-85737335D01*
X186997058Y-85716252D01*
X186997054Y-85716252D01*
X186863934Y-85737335D01*
X186743834Y-85798529D01*
X186743830Y-85798532D01*
X186648532Y-85893830D01*
X186648529Y-85893834D01*
X186587335Y-86013934D01*
X186571456Y-86114192D01*
X186541527Y-86177327D01*
X186536664Y-86182475D01*
X183512545Y-89206596D01*
X183456597Y-89262543D01*
X183456591Y-89262551D01*
X183417038Y-89331060D01*
X183417035Y-89331065D01*
X183403382Y-89382018D01*
X183396556Y-89407494D01*
X183396556Y-89857494D01*
X183396556Y-96236618D01*
X183400216Y-96250276D01*
X183417035Y-96313046D01*
X183417036Y-96313047D01*
X183442178Y-96356595D01*
X183456596Y-96381567D01*
X185560237Y-98485208D01*
X185593722Y-98546531D01*
X185596556Y-98572889D01*
X185596556Y-99827110D01*
X185576871Y-99894149D01*
X185560237Y-99914791D01*
X184963484Y-100511543D01*
X184902161Y-100545028D01*
X184832469Y-100540044D01*
X184776536Y-100498172D01*
X184765318Y-100480157D01*
X184761615Y-100472889D01*
X184745584Y-100441426D01*
X184745580Y-100441422D01*
X184745579Y-100441420D01*
X184650281Y-100346122D01*
X184650277Y-100346119D01*
X184650276Y-100346118D01*
X184530182Y-100284927D01*
X184530180Y-100284926D01*
X184530177Y-100284925D01*
X184397058Y-100263842D01*
X184397054Y-100263842D01*
X184263934Y-100284925D01*
X184143834Y-100346119D01*
X184143830Y-100346122D01*
X184048532Y-100441420D01*
X184048529Y-100441424D01*
X183987335Y-100561524D01*
X183971456Y-100661782D01*
X183941527Y-100724917D01*
X183936664Y-100730065D01*
X183306494Y-101360237D01*
X183245171Y-101393722D01*
X183218813Y-101396556D01*
X181323388Y-101396556D01*
X181256349Y-101376871D01*
X181210594Y-101324067D01*
X181200650Y-101254909D01*
X181205458Y-101234234D01*
X181206772Y-101230187D01*
X181206775Y-101230182D01*
X181206776Y-101230176D01*
X181227860Y-101097058D01*
X181227860Y-101097053D01*
X181206776Y-100963934D01*
X181206775Y-100963932D01*
X181206775Y-100963930D01*
X181145584Y-100843836D01*
X181145582Y-100843834D01*
X181145579Y-100843830D01*
X181050281Y-100748532D01*
X181050277Y-100748529D01*
X181050276Y-100748528D01*
X180930182Y-100687337D01*
X180930180Y-100687336D01*
X180930177Y-100687335D01*
X180797058Y-100666252D01*
X180797054Y-100666252D01*
X180663934Y-100687335D01*
X180543834Y-100748529D01*
X180543830Y-100748532D01*
X180532126Y-100760237D01*
X180470803Y-100793722D01*
X180444445Y-100796556D01*
X177557494Y-100796556D01*
X177519280Y-100806795D01*
X177481065Y-100817035D01*
X177481064Y-100817036D01*
X177434647Y-100843834D01*
X177434648Y-100843835D01*
X177412543Y-100856597D01*
X174734237Y-103534904D01*
X174672914Y-103568389D01*
X174603222Y-103563405D01*
X174547289Y-103521533D01*
X174522872Y-103456069D01*
X174522556Y-103447223D01*
X174522556Y-98247889D01*
X174542241Y-98180850D01*
X174558875Y-98160208D01*
X175785208Y-96933875D01*
X175846531Y-96900390D01*
X175872889Y-96897556D01*
X176544445Y-96897556D01*
X176611484Y-96917241D01*
X176632126Y-96933875D01*
X176643830Y-96945579D01*
X176643834Y-96945582D01*
X176643836Y-96945584D01*
X176763930Y-97006775D01*
X176763932Y-97006775D01*
X176763934Y-97006776D01*
X176897054Y-97027860D01*
X176897056Y-97027860D01*
X176897058Y-97027860D01*
X177030177Y-97006776D01*
X177030177Y-97006775D01*
X177030182Y-97006775D01*
X177150276Y-96945584D01*
X177245584Y-96850276D01*
X177306775Y-96730182D01*
X177327860Y-96597056D01*
X177320174Y-96548529D01*
X177306776Y-96463934D01*
X177306775Y-96463932D01*
X177306775Y-96463930D01*
X177245584Y-96343836D01*
X177245582Y-96343834D01*
X177245579Y-96343830D01*
X177192909Y-96291160D01*
X177159424Y-96229837D01*
X177161579Y-96199690D01*
X177122367Y-96214316D01*
X177057227Y-96201117D01*
X177030179Y-96187335D01*
X176897058Y-96166252D01*
X176897054Y-96166252D01*
X176763934Y-96187335D01*
X176643834Y-96248529D01*
X176643830Y-96248532D01*
X176632126Y-96260237D01*
X176570803Y-96293722D01*
X176544445Y-96296556D01*
X175657494Y-96296556D01*
X175619357Y-96306775D01*
X175581065Y-96317035D01*
X175581060Y-96317038D01*
X175512551Y-96356591D01*
X175512545Y-96356596D01*
X173981597Y-97887543D01*
X173981591Y-97887551D01*
X173942038Y-97956060D01*
X173942035Y-97956065D01*
X173921556Y-98032495D01*
X173921556Y-109588430D01*
X173901871Y-109655469D01*
X173849067Y-109701224D01*
X173779909Y-109711168D01*
X173747475Y-109701867D01*
X173742048Y-109699471D01*
X173716921Y-109696556D01*
X173427199Y-109696556D01*
X173427173Y-109696558D01*
X173402068Y-109699469D01*
X173402064Y-109699471D01*
X173299291Y-109744849D01*
X173219850Y-109824290D01*
X173174471Y-109927062D01*
X173174471Y-109927064D01*
X173171556Y-109952187D01*
X173171556Y-110272556D01*
X173151871Y-110339595D01*
X173099067Y-110385350D01*
X173047556Y-110396556D01*
X172944030Y-110396556D01*
X172876991Y-110376871D01*
X172831236Y-110324067D01*
X172820571Y-110284133D01*
X172819702Y-110274857D01*
X172819701Y-110274854D01*
X172819701Y-110274852D01*
X172774849Y-110146675D01*
X172774848Y-110146673D01*
X172694206Y-110037406D01*
X172584938Y-109956763D01*
X172584936Y-109956762D01*
X172456756Y-109911909D01*
X172426326Y-109909056D01*
X172426322Y-109909056D01*
X171367790Y-109909056D01*
X171367786Y-109909056D01*
X171337356Y-109911909D01*
X171337354Y-109911909D01*
X171209175Y-109956762D01*
X171209173Y-109956763D01*
X171099906Y-110037406D01*
X171019263Y-110146673D01*
X171019262Y-110146675D01*
X170974409Y-110274854D01*
X170974409Y-110274856D01*
X170971556Y-110305286D01*
X170971556Y-110913825D01*
X170974409Y-110944255D01*
X170974409Y-110944257D01*
X171019262Y-111072436D01*
X171019263Y-111072438D01*
X171099906Y-111181706D01*
X171209174Y-111262349D01*
X171242394Y-111273973D01*
X171337355Y-111307202D01*
X171367786Y-111310056D01*
X171367790Y-111310056D01*
X172426326Y-111310056D01*
X172456755Y-111307202D01*
X172456757Y-111307202D01*
X172520846Y-111284775D01*
X172584938Y-111262349D01*
X172694206Y-111181706D01*
X172774849Y-111072438D01*
X172774850Y-111072435D01*
X172779193Y-111064219D01*
X172782501Y-111065967D01*
X172812657Y-111023870D01*
X172877595Y-110998085D01*
X172889034Y-110997556D01*
X173047557Y-110997556D01*
X173114596Y-111017241D01*
X173160351Y-111070045D01*
X173171557Y-111121556D01*
X173171557Y-111391912D01*
X173171558Y-111391938D01*
X173174469Y-111417043D01*
X173174471Y-111417047D01*
X173219849Y-111519820D01*
X173219850Y-111519821D01*
X173299291Y-111599262D01*
X173402065Y-111644641D01*
X173427191Y-111647556D01*
X173427214Y-111647555D01*
X173427547Y-111647576D01*
X173427635Y-111647607D01*
X173430750Y-111647969D01*
X173430666Y-111648690D01*
X173493344Y-111671083D01*
X173535987Y-111726430D01*
X173541938Y-111796046D01*
X173509307Y-111857827D01*
X173467871Y-111885932D01*
X173334982Y-111940976D01*
X173263363Y-111995932D01*
X173198194Y-112021126D01*
X173187877Y-112021556D01*
X172944049Y-112021556D01*
X172877010Y-112001871D01*
X172845245Y-111972481D01*
X172764978Y-111866633D01*
X172644399Y-111775195D01*
X172503617Y-111719678D01*
X172457982Y-111714198D01*
X172415158Y-111709056D01*
X171378954Y-111709056D01*
X171339909Y-111713744D01*
X171290494Y-111719678D01*
X171149712Y-111775195D01*
X171029133Y-111866633D01*
X170937695Y-111987212D01*
X170882178Y-112127994D01*
X170876470Y-112175529D01*
X170871556Y-112216454D01*
X170871556Y-112802658D01*
X170874674Y-112828620D01*
X170882178Y-112891117D01*
X170882178Y-112891119D01*
X170882179Y-112891120D01*
X170890403Y-112911974D01*
X170937695Y-113031899D01*
X171029133Y-113152478D01*
X171149712Y-113243916D01*
X171149713Y-113243916D01*
X171149714Y-113243917D01*
X171290492Y-113299433D01*
X171378954Y-113310056D01*
X171378959Y-113310056D01*
X172415153Y-113310056D01*
X172415158Y-113310056D01*
X172503620Y-113299433D01*
X172644398Y-113243917D01*
X172764978Y-113152478D01*
X172856417Y-113031898D01*
X172908011Y-112901063D01*
X172950916Y-112845922D01*
X173016824Y-112822729D01*
X173023365Y-112822556D01*
X173245364Y-112822556D01*
X173312403Y-112842241D01*
X173320851Y-112848181D01*
X173334980Y-112859023D01*
X173334981Y-112859023D01*
X173334982Y-112859024D01*
X173462817Y-112911974D01*
X173585702Y-112928152D01*
X173599999Y-112930035D01*
X173600000Y-112930035D01*
X173600001Y-112930035D01*
X173612947Y-112928330D01*
X173737183Y-112911974D01*
X173865018Y-112859024D01*
X173947069Y-112796062D01*
X174012238Y-112770868D01*
X174080683Y-112784906D01*
X174130673Y-112833719D01*
X174146556Y-112894438D01*
X174146556Y-115066808D01*
X174158187Y-115125285D01*
X174158188Y-115125287D01*
X174177794Y-115154628D01*
X174198673Y-115221305D01*
X174180189Y-115288686D01*
X174128211Y-115335376D01*
X174094090Y-115345993D01*
X173996756Y-115361408D01*
X173996755Y-115361408D01*
X173883712Y-115419007D01*
X173879243Y-115423476D01*
X173817916Y-115456956D01*
X173748225Y-115451965D01*
X173742196Y-115449511D01*
X173742048Y-115449471D01*
X173742047Y-115449471D01*
X173716921Y-115446556D01*
X173427199Y-115446556D01*
X173427173Y-115446558D01*
X173402068Y-115449469D01*
X173402064Y-115449471D01*
X173299291Y-115494849D01*
X173219850Y-115574290D01*
X173174471Y-115677062D01*
X173174471Y-115677064D01*
X173171556Y-115702187D01*
X173171556Y-117141912D01*
X173171558Y-117141938D01*
X173174469Y-117167043D01*
X173174471Y-117167047D01*
X173219849Y-117269820D01*
X173235237Y-117285208D01*
X173268722Y-117346531D01*
X173271556Y-117372889D01*
X173271556Y-118852110D01*
X173251871Y-118919149D01*
X173235237Y-118939791D01*
X173035419Y-119139608D01*
X172974096Y-119173093D01*
X172967136Y-119174400D01*
X172866878Y-119190279D01*
X172746778Y-119251473D01*
X172746774Y-119251476D01*
X172651476Y-119346774D01*
X172651473Y-119346778D01*
X172590279Y-119466878D01*
X172569196Y-119599997D01*
X172569196Y-119600002D01*
X172590279Y-119733121D01*
X172590280Y-119733124D01*
X172590281Y-119733126D01*
X172651472Y-119853220D01*
X172651473Y-119853221D01*
X172651476Y-119853225D01*
X172746774Y-119948523D01*
X172746778Y-119948526D01*
X172746780Y-119948528D01*
X172866874Y-120009719D01*
X172866876Y-120009719D01*
X172866878Y-120009720D01*
X172999998Y-120030804D01*
X173000000Y-120030804D01*
X173000002Y-120030804D01*
X173133121Y-120009720D01*
X173133121Y-120009719D01*
X173133126Y-120009719D01*
X173253220Y-119948528D01*
X173348528Y-119853220D01*
X173409719Y-119733126D01*
X173425599Y-119632858D01*
X173455527Y-119569727D01*
X173460355Y-119564614D01*
X173609878Y-119415092D01*
X173671198Y-119381610D01*
X173740890Y-119386594D01*
X173796823Y-119428466D01*
X173821240Y-119493930D01*
X173821556Y-119502776D01*
X173821556Y-119974782D01*
X173848849Y-120076645D01*
X173871176Y-120115316D01*
X173901576Y-120167969D01*
X174779519Y-121045912D01*
X174779520Y-121045913D01*
X174854087Y-121120480D01*
X174945413Y-121173207D01*
X175047273Y-121200500D01*
X175152727Y-121200500D01*
X175316621Y-121200500D01*
X175383660Y-121220185D01*
X175392093Y-121226114D01*
X175434982Y-121259024D01*
X175562817Y-121311974D01*
X175682439Y-121327723D01*
X175699999Y-121330035D01*
X175700000Y-121330035D01*
X175700001Y-121330035D01*
X175717561Y-121327723D01*
X175837183Y-121311974D01*
X175965018Y-121259024D01*
X176074791Y-121174791D01*
X176159024Y-121065018D01*
X176211974Y-120937183D01*
X176230035Y-120800000D01*
X176229223Y-120793836D01*
X176223027Y-120746774D01*
X176211974Y-120662817D01*
X176173195Y-120569196D01*
X176159025Y-120534985D01*
X176159024Y-120534984D01*
X176159024Y-120534983D01*
X176074791Y-120425209D01*
X176074789Y-120425208D01*
X176074789Y-120425207D01*
X175981308Y-120353476D01*
X175965018Y-120340976D01*
X175965017Y-120340975D01*
X175965015Y-120340974D01*
X175837186Y-120288027D01*
X175837184Y-120288026D01*
X175837183Y-120288026D01*
X175745727Y-120275985D01*
X175700001Y-120269965D01*
X175699999Y-120269965D01*
X175631408Y-120278995D01*
X175562817Y-120288026D01*
X175562816Y-120288026D01*
X175562813Y-120288027D01*
X175434983Y-120340975D01*
X175392464Y-120373601D01*
X175327295Y-120398794D01*
X175258850Y-120384755D01*
X175229298Y-120362905D01*
X174802418Y-119936025D01*
X174768933Y-119874702D01*
X174773917Y-119805010D01*
X174815789Y-119749077D01*
X174881253Y-119724660D01*
X174909498Y-119725871D01*
X174922055Y-119727860D01*
X174922056Y-119727860D01*
X174922058Y-119727860D01*
X175055177Y-119706776D01*
X175055177Y-119706775D01*
X175055182Y-119706775D01*
X175175276Y-119645584D01*
X175270584Y-119550276D01*
X175331775Y-119430182D01*
X175339468Y-119381610D01*
X175352860Y-119297058D01*
X175352860Y-119297053D01*
X175331776Y-119163934D01*
X175331775Y-119163932D01*
X175331775Y-119163930D01*
X175270584Y-119043836D01*
X175270582Y-119043834D01*
X175270579Y-119043830D01*
X175258875Y-119032126D01*
X175225390Y-118970803D01*
X175222556Y-118944445D01*
X175222556Y-118582496D01*
X175222555Y-118582492D01*
X175222485Y-118582231D01*
X175214580Y-118552727D01*
X175202078Y-118506068D01*
X175189168Y-118483707D01*
X175172556Y-118421708D01*
X175172556Y-117810780D01*
X175192241Y-117743741D01*
X175245045Y-117697986D01*
X175312740Y-117687841D01*
X175322054Y-117689067D01*
X175322056Y-117689066D01*
X175322056Y-116546056D01*
X175341741Y-116479017D01*
X175394545Y-116433262D01*
X175446056Y-116422056D01*
X175598056Y-116422056D01*
X175665095Y-116441741D01*
X175710850Y-116494545D01*
X175722056Y-116546056D01*
X175722056Y-117689067D01*
X175745970Y-117710039D01*
X175783394Y-117769040D01*
X175783983Y-117771162D01*
X175798849Y-117826644D01*
X175851576Y-117917969D01*
X176214675Y-118281068D01*
X176563181Y-118629573D01*
X176596666Y-118690896D01*
X176599500Y-118717254D01*
X176599500Y-121382745D01*
X176579815Y-121449784D01*
X176563181Y-121470426D01*
X175970426Y-122063181D01*
X175909103Y-122096666D01*
X175882745Y-122099500D01*
X165929500Y-122099500D01*
X165862461Y-122079815D01*
X165816706Y-122027011D01*
X165805500Y-121975500D01*
X165805500Y-109011677D01*
X165825185Y-108944638D01*
X165877989Y-108898883D01*
X165947147Y-108888939D01*
X165994598Y-108906139D01*
X166080873Y-108959355D01*
X166080880Y-108959358D01*
X166247302Y-109014505D01*
X166247309Y-109014506D01*
X166350019Y-109024999D01*
X166900000Y-109024999D01*
X166949972Y-109024999D01*
X166949986Y-109024998D01*
X167052697Y-109014505D01*
X167219119Y-108959358D01*
X167219124Y-108959356D01*
X167368345Y-108867315D01*
X167492315Y-108743345D01*
X167584356Y-108594124D01*
X167584358Y-108594119D01*
X167639505Y-108427697D01*
X167639506Y-108427690D01*
X167649999Y-108324986D01*
X167650000Y-108324973D01*
X167650000Y-108050000D01*
X166900000Y-108050000D01*
X166900000Y-109024999D01*
X166350019Y-109024999D01*
X166399999Y-109024998D01*
X166400000Y-109024998D01*
X166400000Y-107550000D01*
X166900000Y-107550000D01*
X167649999Y-107550000D01*
X167649999Y-107275028D01*
X167649998Y-107275013D01*
X167639505Y-107172302D01*
X167584358Y-107005880D01*
X167584356Y-107005875D01*
X167492315Y-106856654D01*
X167368345Y-106732684D01*
X167219124Y-106640643D01*
X167219119Y-106640641D01*
X167052697Y-106585494D01*
X167052690Y-106585493D01*
X166949986Y-106575000D01*
X166900000Y-106575000D01*
X166900000Y-107550000D01*
X166400000Y-107550000D01*
X166400000Y-106575000D01*
X166399999Y-106574999D01*
X166350029Y-106575000D01*
X166350011Y-106575001D01*
X166247302Y-106585494D01*
X166080880Y-106640641D01*
X166080875Y-106640643D01*
X165994597Y-106693861D01*
X165927204Y-106712301D01*
X165860541Y-106691378D01*
X165815771Y-106637736D01*
X165805500Y-106588322D01*
X165805500Y-105586969D01*
X165825185Y-105519930D01*
X165877989Y-105474175D01*
X165947147Y-105464231D01*
X166010703Y-105493256D01*
X166039982Y-105530671D01*
X166051472Y-105553220D01*
X166051473Y-105553221D01*
X166051476Y-105553225D01*
X166146774Y-105648523D01*
X166146778Y-105648526D01*
X166146780Y-105648528D01*
X166266874Y-105709719D01*
X166266876Y-105709719D01*
X166266878Y-105709720D01*
X166399998Y-105730804D01*
X166400000Y-105730804D01*
X166400002Y-105730804D01*
X166533121Y-105709720D01*
X166533121Y-105709719D01*
X166533126Y-105709719D01*
X166653220Y-105648528D01*
X166748528Y-105553220D01*
X166809719Y-105433126D01*
X166809720Y-105433121D01*
X166830804Y-105300002D01*
X166830804Y-105299997D01*
X166809720Y-105166878D01*
X166809719Y-105166876D01*
X166809719Y-105166874D01*
X166748528Y-105046780D01*
X166748526Y-105046778D01*
X166748523Y-105046774D01*
X166653225Y-104951476D01*
X166653221Y-104951473D01*
X166653220Y-104951472D01*
X166533126Y-104890281D01*
X166533124Y-104890280D01*
X166533121Y-104890279D01*
X166400002Y-104869196D01*
X166399998Y-104869196D01*
X166266878Y-104890279D01*
X166146778Y-104951473D01*
X166146774Y-104951476D01*
X166051476Y-105046774D01*
X166051471Y-105046781D01*
X166039984Y-105069326D01*
X165992009Y-105120121D01*
X165924188Y-105136916D01*
X165858053Y-105114378D01*
X165814603Y-105059662D01*
X165805500Y-105013030D01*
X165805500Y-104824008D01*
X165805499Y-104823992D01*
X165800803Y-104780316D01*
X165790441Y-104732684D01*
X165789602Y-104728825D01*
X165789348Y-104727789D01*
X165787110Y-104718627D01*
X165744100Y-104637915D01*
X165698345Y-104585111D01*
X165698339Y-104585104D01*
X165680757Y-104567160D01*
X165680756Y-104567159D01*
X165680754Y-104567157D01*
X165680752Y-104567156D01*
X165680750Y-104567154D01*
X165600940Y-104522511D01*
X165600935Y-104522509D01*
X165533903Y-104502826D01*
X165533899Y-104502825D01*
X165533898Y-104502825D01*
X165476000Y-104494500D01*
X162226531Y-104494500D01*
X162226529Y-104494500D01*
X162180835Y-104499646D01*
X162180823Y-104499648D01*
X162127032Y-104511919D01*
X162114897Y-104515081D01*
X162114893Y-104515083D01*
X162035067Y-104559711D01*
X161983209Y-104606515D01*
X161983183Y-104606539D01*
X161965605Y-104624471D01*
X161922577Y-104705179D01*
X161922575Y-104705183D01*
X161918463Y-104720312D01*
X161881881Y-104779840D01*
X161818924Y-104810140D01*
X161749579Y-104801593D01*
X161711125Y-104775464D01*
X161668345Y-104732684D01*
X161519124Y-104640643D01*
X161519119Y-104640641D01*
X161352697Y-104585494D01*
X161352690Y-104585493D01*
X161249986Y-104575000D01*
X161200000Y-104575000D01*
X161200000Y-109024999D01*
X161249972Y-109024999D01*
X161249986Y-109024998D01*
X161352697Y-109014505D01*
X161519119Y-108959358D01*
X161519124Y-108959356D01*
X161668342Y-108867317D01*
X161766722Y-108768937D01*
X161828045Y-108735452D01*
X161897737Y-108740436D01*
X161953671Y-108782307D01*
X161978088Y-108847771D01*
X161978379Y-108854113D01*
X162159736Y-117831254D01*
X162170478Y-118363031D01*
X162172599Y-118467995D01*
X162154272Y-118535419D01*
X162102403Y-118582231D01*
X162048624Y-118594500D01*
X157929500Y-118594500D01*
X157862461Y-118574815D01*
X157816706Y-118522011D01*
X157805500Y-118470500D01*
X157805500Y-118182682D01*
X157825185Y-118115643D01*
X157877989Y-118069888D01*
X157897397Y-118062910D01*
X157973489Y-118042521D01*
X158042011Y-118002960D01*
X158097960Y-117947011D01*
X158898152Y-117146817D01*
X158959475Y-117113333D01*
X158985833Y-117110499D01*
X159199895Y-117110499D01*
X159199900Y-117110499D01*
X159249487Y-117103972D01*
X159283465Y-117088127D01*
X159352541Y-117077636D01*
X159416325Y-117106155D01*
X159445299Y-117142191D01*
X159455900Y-117162085D01*
X159455901Y-117162086D01*
X159501660Y-117214895D01*
X159519242Y-117232839D01*
X159519246Y-117232843D01*
X159519247Y-117232844D01*
X159519249Y-117232845D01*
X159599059Y-117277488D01*
X159599063Y-117277490D01*
X159666102Y-117297175D01*
X159724000Y-117305500D01*
X159724004Y-117305500D01*
X160975991Y-117305500D01*
X160976000Y-117305500D01*
X161019684Y-117300803D01*
X161048875Y-117294452D01*
X161071174Y-117289602D01*
X161071190Y-117289598D01*
X161071195Y-117289597D01*
X161081373Y-117287110D01*
X161162085Y-117244100D01*
X161214889Y-117198345D01*
X161232843Y-117180754D01*
X161277490Y-117100937D01*
X161297175Y-117033898D01*
X161305500Y-116976000D01*
X161305500Y-109824000D01*
X161300803Y-109780316D01*
X161296672Y-109761325D01*
X161289602Y-109728825D01*
X161289348Y-109727789D01*
X161287110Y-109718627D01*
X161244100Y-109637915D01*
X161198345Y-109585111D01*
X161198339Y-109585104D01*
X161180757Y-109567160D01*
X161180756Y-109567159D01*
X161180754Y-109567157D01*
X161180752Y-109567156D01*
X161180750Y-109567154D01*
X161100940Y-109522511D01*
X161100935Y-109522509D01*
X161033903Y-109502826D01*
X161033899Y-109502825D01*
X161033898Y-109502825D01*
X160976000Y-109494500D01*
X156824000Y-109494500D01*
X156823992Y-109494500D01*
X156780313Y-109499197D01*
X156728825Y-109510397D01*
X156718627Y-109512890D01*
X156718620Y-109512892D01*
X156702814Y-109521316D01*
X156634393Y-109535471D01*
X156569181Y-109510388D01*
X156527882Y-109454031D01*
X156520500Y-109411884D01*
X156520500Y-109135683D01*
X156514068Y-109086827D01*
X156511496Y-109078002D01*
X156511634Y-109008132D01*
X156549525Y-108949429D01*
X156567426Y-108936568D01*
X156577288Y-108930735D01*
X156577294Y-108930731D01*
X156690731Y-108817294D01*
X156690738Y-108817285D01*
X156772404Y-108679194D01*
X156812844Y-108540000D01*
X156124000Y-108540000D01*
X156056961Y-108520315D01*
X156011206Y-108467511D01*
X156000000Y-108416000D01*
X156000000Y-108324986D01*
X159950001Y-108324986D01*
X159960494Y-108427697D01*
X160015641Y-108594119D01*
X160015643Y-108594124D01*
X160107684Y-108743345D01*
X160231654Y-108867315D01*
X160380875Y-108959356D01*
X160380880Y-108959358D01*
X160547302Y-109014505D01*
X160547309Y-109014506D01*
X160650019Y-109024999D01*
X160699999Y-109024998D01*
X160700000Y-109024998D01*
X160700000Y-108050000D01*
X159950001Y-108050000D01*
X159950001Y-108324986D01*
X156000000Y-108324986D01*
X156000000Y-108290000D01*
X155874000Y-108290000D01*
X155806961Y-108270315D01*
X155761206Y-108217511D01*
X155750000Y-108166000D01*
X155750000Y-108040000D01*
X156250000Y-108040000D01*
X156812844Y-108040000D01*
X156772404Y-107900805D01*
X156690738Y-107762714D01*
X156690731Y-107762705D01*
X156577294Y-107649268D01*
X156577285Y-107649261D01*
X156439191Y-107567593D01*
X156439188Y-107567592D01*
X156285130Y-107522834D01*
X156250000Y-107520068D01*
X156250000Y-108040000D01*
X155750000Y-108040000D01*
X155750000Y-107526332D01*
X155769685Y-107459293D01*
X155786314Y-107438656D01*
X155949957Y-107275013D01*
X159950000Y-107275013D01*
X159950000Y-107550000D01*
X160700000Y-107550000D01*
X160700000Y-106050000D01*
X159950001Y-106050000D01*
X159950001Y-106324986D01*
X159960494Y-106427697D01*
X160015641Y-106594119D01*
X160015643Y-106594124D01*
X160102477Y-106734903D01*
X160120917Y-106802296D01*
X160102477Y-106865097D01*
X160015643Y-107005875D01*
X160015641Y-107005880D01*
X159960494Y-107172302D01*
X159960493Y-107172309D01*
X159950000Y-107275013D01*
X155949957Y-107275013D01*
X157949958Y-105275013D01*
X159950000Y-105275013D01*
X159950000Y-105550000D01*
X160700000Y-105550000D01*
X160700000Y-104575000D01*
X160699999Y-104574999D01*
X160650029Y-104575000D01*
X160650011Y-104575001D01*
X160547302Y-104585494D01*
X160380880Y-104640641D01*
X160380875Y-104640643D01*
X160231654Y-104732684D01*
X160107684Y-104856654D01*
X160015643Y-105005875D01*
X160015641Y-105005880D01*
X159960494Y-105172302D01*
X159960493Y-105172309D01*
X159950000Y-105275013D01*
X157949958Y-105275013D01*
X159588152Y-103636819D01*
X159649475Y-103603334D01*
X159675833Y-103600500D01*
X172124167Y-103600500D01*
X172191206Y-103620185D01*
X172211848Y-103636819D01*
X172739608Y-104164579D01*
X172773093Y-104225902D01*
X172774400Y-104232862D01*
X172790279Y-104333121D01*
X172790280Y-104333124D01*
X172790281Y-104333126D01*
X172826222Y-104403664D01*
X172851473Y-104453221D01*
X172851476Y-104453225D01*
X172946774Y-104548523D01*
X172946778Y-104548526D01*
X172946780Y-104548528D01*
X173066874Y-104609719D01*
X173066876Y-104609719D01*
X173066878Y-104609720D01*
X173199998Y-104630804D01*
X173200000Y-104630804D01*
X173200002Y-104630804D01*
X173333121Y-104609720D01*
X173333121Y-104609719D01*
X173333126Y-104609719D01*
X173453220Y-104548528D01*
X173548528Y-104453220D01*
X173609719Y-104333126D01*
X173625599Y-104232862D01*
X173630804Y-104200002D01*
X173630804Y-104199997D01*
X173609720Y-104066878D01*
X173609719Y-104066876D01*
X173609719Y-104066874D01*
X173548528Y-103946780D01*
X173548526Y-103946778D01*
X173548523Y-103946774D01*
X173453225Y-103851476D01*
X173453221Y-103851473D01*
X173453220Y-103851472D01*
X173333126Y-103790281D01*
X173333124Y-103790280D01*
X173333121Y-103790279D01*
X173232862Y-103774400D01*
X173169727Y-103744471D01*
X173164579Y-103739608D01*
X172484513Y-103059541D01*
X172480965Y-103057493D01*
X172480964Y-103057492D01*
X172415992Y-103019980D01*
X172415993Y-103019980D01*
X172406960Y-103017559D01*
X172339562Y-102999500D01*
X159460438Y-102999500D01*
X159393039Y-103017559D01*
X159384007Y-103019980D01*
X159319036Y-103057492D01*
X159319035Y-103057493D01*
X159315486Y-103059541D01*
X154815489Y-107559540D01*
X154759541Y-107615487D01*
X154759535Y-107615495D01*
X154719982Y-107684004D01*
X154719979Y-107684009D01*
X154699500Y-107760439D01*
X154699500Y-109047389D01*
X154679815Y-109114428D01*
X154663181Y-109135070D01*
X154651476Y-109146774D01*
X154651473Y-109146778D01*
X154651472Y-109146780D01*
X154595683Y-109256273D01*
X154590279Y-109266878D01*
X154569196Y-109399997D01*
X154569196Y-109400002D01*
X154590279Y-109533120D01*
X154591598Y-109537178D01*
X154591746Y-109542385D01*
X154591807Y-109542765D01*
X154591757Y-109542772D01*
X154593595Y-109607019D01*
X154557517Y-109666853D01*
X154494817Y-109697683D01*
X154473668Y-109699500D01*
X151660438Y-109699500D01*
X151622224Y-109709739D01*
X151584009Y-109719979D01*
X151584004Y-109719982D01*
X151515495Y-109759535D01*
X151515487Y-109759541D01*
X150659541Y-110615487D01*
X150659535Y-110615495D01*
X150619982Y-110684004D01*
X150619979Y-110684009D01*
X150606326Y-110734962D01*
X150599500Y-110760438D01*
X150599500Y-112339562D01*
X150619979Y-112415989D01*
X150653924Y-112474783D01*
X150653926Y-112474786D01*
X150659542Y-112484514D01*
X150945897Y-112770868D01*
X151215489Y-113040460D01*
X151284012Y-113080022D01*
X151360438Y-113100500D01*
X152870500Y-113100500D01*
X152937539Y-113120185D01*
X152983294Y-113172989D01*
X152994500Y-113224500D01*
X152994500Y-113408260D01*
X153004426Y-113476391D01*
X153055803Y-113581485D01*
X153138514Y-113664196D01*
X153138515Y-113664196D01*
X153138517Y-113664198D01*
X153243607Y-113715573D01*
X153277673Y-113720536D01*
X153311739Y-113725500D01*
X153311740Y-113725500D01*
X153678261Y-113725500D01*
X153700971Y-113722191D01*
X153746393Y-113715573D01*
X153851483Y-113664198D01*
X153934198Y-113581483D01*
X153985573Y-113476393D01*
X153995500Y-113408260D01*
X153995500Y-111866740D01*
X153995484Y-111866633D01*
X153988842Y-111821045D01*
X153985573Y-111798607D01*
X153934198Y-111693517D01*
X153934196Y-111693515D01*
X153934196Y-111693514D01*
X153851485Y-111610803D01*
X153795498Y-111583433D01*
X153746393Y-111559427D01*
X153746392Y-111559426D01*
X153739180Y-111555901D01*
X153687598Y-111508773D01*
X153669683Y-111441239D01*
X153691124Y-111374740D01*
X153745113Y-111330390D01*
X153793640Y-111320500D01*
X153964317Y-111320500D01*
X153980601Y-111318356D01*
X154013173Y-111314068D01*
X154120404Y-111264065D01*
X154204065Y-111180404D01*
X154204065Y-111180403D01*
X154211736Y-111172733D01*
X154214564Y-111175561D01*
X154252977Y-111144843D01*
X154322474Y-111137635D01*
X154384835Y-111169143D01*
X154388093Y-111172903D01*
X154388264Y-111172733D01*
X154428181Y-111212650D01*
X154461666Y-111273973D01*
X154464500Y-111300331D01*
X154464500Y-111507002D01*
X154444815Y-111574041D01*
X154412555Y-111607918D01*
X154408516Y-111610801D01*
X154325803Y-111693514D01*
X154274426Y-111798608D01*
X154264500Y-111866739D01*
X154264500Y-113408260D01*
X154274426Y-113476391D01*
X154325803Y-113581485D01*
X154408514Y-113664196D01*
X154408515Y-113664196D01*
X154408517Y-113664198D01*
X154513607Y-113715573D01*
X154547673Y-113720536D01*
X154581739Y-113725500D01*
X154581740Y-113725500D01*
X154948261Y-113725500D01*
X154970971Y-113722191D01*
X155016393Y-113715573D01*
X155121483Y-113664198D01*
X155121486Y-113664195D01*
X155129847Y-113658227D01*
X155130642Y-113659341D01*
X155182481Y-113631031D01*
X155252173Y-113636010D01*
X155308110Y-113677877D01*
X155315580Y-113689074D01*
X155367314Y-113776552D01*
X155367321Y-113776561D01*
X155483438Y-113892678D01*
X155483447Y-113892685D01*
X155624801Y-113976281D01*
X155782514Y-114022100D01*
X155782511Y-114022100D01*
X155784998Y-114022295D01*
X155785000Y-114022295D01*
X155785000Y-111252703D01*
X155782503Y-111252900D01*
X155624806Y-111298716D01*
X155624803Y-111298717D01*
X155483447Y-111382314D01*
X155483438Y-111382321D01*
X155367321Y-111498438D01*
X155367317Y-111498444D01*
X155315580Y-111585926D01*
X155264510Y-111633609D01*
X155195768Y-111646112D01*
X155131179Y-111619466D01*
X155121661Y-111610928D01*
X155117445Y-111607918D01*
X155074324Y-111552942D01*
X155065500Y-111507002D01*
X155065500Y-111377990D01*
X155085185Y-111310951D01*
X155131597Y-111270411D01*
X155131513Y-111270291D01*
X155132638Y-111269503D01*
X155137101Y-111265605D01*
X155140404Y-111264065D01*
X155224065Y-111180404D01*
X155274068Y-111073173D01*
X155280500Y-111024316D01*
X155280500Y-110575684D01*
X155280169Y-110573173D01*
X155274068Y-110526827D01*
X155274068Y-110526826D01*
X155250789Y-110476904D01*
X155240297Y-110407827D01*
X155268817Y-110344043D01*
X155327294Y-110305804D01*
X155363171Y-110300500D01*
X155405500Y-110300500D01*
X155472539Y-110320185D01*
X155518294Y-110372989D01*
X155529500Y-110424500D01*
X155529500Y-110524316D01*
X155535931Y-110573171D01*
X155535932Y-110573173D01*
X155585935Y-110680404D01*
X155669596Y-110764065D01*
X155776827Y-110814068D01*
X155825683Y-110820500D01*
X155825684Y-110820500D01*
X156174317Y-110820500D01*
X156190601Y-110818356D01*
X156223173Y-110814068D01*
X156318097Y-110769803D01*
X156387172Y-110759312D01*
X156450956Y-110787831D01*
X156489196Y-110846308D01*
X156494500Y-110882186D01*
X156494500Y-111147888D01*
X156474815Y-111214927D01*
X156422011Y-111260682D01*
X156352853Y-111270626D01*
X156335907Y-111266965D01*
X156287494Y-111252900D01*
X156285000Y-111252703D01*
X156285000Y-114022295D01*
X156285001Y-114022295D01*
X156287486Y-114022100D01*
X156445198Y-113976281D01*
X156586552Y-113892685D01*
X156586561Y-113892678D01*
X156702673Y-113776566D01*
X156703116Y-113775996D01*
X156703577Y-113775662D01*
X156708200Y-113771040D01*
X156708945Y-113771785D01*
X156759753Y-113735082D01*
X156818756Y-113729246D01*
X156824000Y-113730000D01*
X157721000Y-113730000D01*
X157788039Y-113749685D01*
X157833794Y-113802489D01*
X157845000Y-113854000D01*
X157845000Y-114711165D01*
X157846494Y-114729290D01*
X157847776Y-114744833D01*
X157849531Y-114755399D01*
X157854430Y-114784900D01*
X157854474Y-114785168D01*
X157889268Y-114869747D01*
X157929561Y-114926828D01*
X157969750Y-114969328D01*
X159078307Y-115848528D01*
X159103295Y-115868346D01*
X159143588Y-115925427D01*
X159146625Y-115995231D01*
X159111441Y-116055595D01*
X159049207Y-116087355D01*
X159026243Y-116089500D01*
X158840105Y-116089500D01*
X158824386Y-116091569D01*
X158790513Y-116096028D01*
X158790511Y-116096029D01*
X158790509Y-116096029D01*
X158681683Y-116146776D01*
X158596776Y-116231683D01*
X158546027Y-116340514D01*
X158539500Y-116390098D01*
X158539500Y-116604166D01*
X158519815Y-116671205D01*
X158503181Y-116691847D01*
X158017181Y-117177847D01*
X157955858Y-117211332D01*
X157886166Y-117206348D01*
X157830233Y-117164476D01*
X157805816Y-117099012D01*
X157805500Y-117090166D01*
X157805500Y-116991739D01*
X157795573Y-116923608D01*
X157784757Y-116901483D01*
X157744198Y-116818517D01*
X157744196Y-116818515D01*
X157744196Y-116818514D01*
X157661485Y-116735803D01*
X157652478Y-116731400D01*
X157556393Y-116684427D01*
X157556391Y-116684426D01*
X157488261Y-116674500D01*
X157488260Y-116674500D01*
X157121740Y-116674500D01*
X157121739Y-116674500D01*
X157053608Y-116684426D01*
X156948513Y-116735804D01*
X156940153Y-116741773D01*
X156939388Y-116740702D01*
X156887378Y-116769102D01*
X156817686Y-116764118D01*
X156785699Y-116746439D01*
X156780750Y-116742654D01*
X156700940Y-116698011D01*
X156700935Y-116698009D01*
X156633903Y-116678326D01*
X156633899Y-116678325D01*
X156633898Y-116678325D01*
X156576000Y-116670000D01*
X154119500Y-116670000D01*
X154119492Y-116670000D01*
X154075813Y-116674697D01*
X154024325Y-116685897D01*
X154014127Y-116688390D01*
X153945789Y-116724806D01*
X153877368Y-116738960D01*
X153833016Y-116726774D01*
X153746393Y-116684427D01*
X153746391Y-116684426D01*
X153678261Y-116674500D01*
X153678260Y-116674500D01*
X153311740Y-116674500D01*
X153311739Y-116674500D01*
X153243608Y-116684426D01*
X153138516Y-116735802D01*
X153080003Y-116794315D01*
X153018679Y-116827799D01*
X152948988Y-116822814D01*
X152904641Y-116794314D01*
X152489417Y-116379091D01*
X152455932Y-116317768D01*
X152460916Y-116248077D01*
X152464699Y-116239042D01*
X152514068Y-116133173D01*
X152520500Y-116084316D01*
X152520500Y-115735684D01*
X152518946Y-115723883D01*
X152514068Y-115686827D01*
X152511496Y-115678002D01*
X152511634Y-115608132D01*
X152549525Y-115549429D01*
X152567426Y-115536568D01*
X152577288Y-115530735D01*
X152577294Y-115530731D01*
X152690731Y-115417294D01*
X152690738Y-115417285D01*
X152772404Y-115279194D01*
X152812844Y-115140000D01*
X151187156Y-115140000D01*
X151227595Y-115279194D01*
X151309261Y-115417285D01*
X151309268Y-115417294D01*
X151422705Y-115530731D01*
X151422711Y-115530736D01*
X151432575Y-115536569D01*
X151480260Y-115587637D01*
X151492766Y-115656379D01*
X151488505Y-115677994D01*
X151485932Y-115686822D01*
X151479500Y-115735683D01*
X151479500Y-116084316D01*
X151485931Y-116133172D01*
X151485931Y-116133173D01*
X151538655Y-116246239D01*
X151549147Y-116315316D01*
X151520627Y-116379100D01*
X151462150Y-116417339D01*
X151425550Y-116422641D01*
X146725928Y-116395229D01*
X146725917Y-116395230D01*
X146681630Y-116399796D01*
X146681614Y-116399798D01*
X146629377Y-116411004D01*
X146618631Y-116413613D01*
X146618624Y-116413616D01*
X146537916Y-116456624D01*
X146537913Y-116456626D01*
X146485104Y-116502385D01*
X146467160Y-116519967D01*
X146467154Y-116519974D01*
X146422511Y-116599784D01*
X146422509Y-116599789D01*
X146402826Y-116666821D01*
X146402825Y-116666826D01*
X146402825Y-116666827D01*
X146398342Y-116698010D01*
X146394500Y-116724728D01*
X140000000Y-116724728D01*
X140000000Y-114640000D01*
X151187156Y-114640000D01*
X151750000Y-114640000D01*
X152250000Y-114640000D01*
X152812844Y-114640000D01*
X152772404Y-114500805D01*
X152690738Y-114362714D01*
X152690731Y-114362705D01*
X152577294Y-114249268D01*
X152577285Y-114249261D01*
X152439191Y-114167593D01*
X152439188Y-114167592D01*
X152285130Y-114122834D01*
X152250000Y-114120068D01*
X152250000Y-114640000D01*
X151750000Y-114640000D01*
X151750000Y-114120068D01*
X151749999Y-114120068D01*
X151714869Y-114122834D01*
X151714868Y-114122834D01*
X151560811Y-114167592D01*
X151560808Y-114167593D01*
X151422714Y-114249261D01*
X151422705Y-114249268D01*
X151309268Y-114362705D01*
X151309261Y-114362714D01*
X151227595Y-114500805D01*
X151187156Y-114640000D01*
X140000000Y-114640000D01*
X140000000Y-95697053D01*
X177066252Y-95697053D01*
X177066252Y-95697058D01*
X177087335Y-95830177D01*
X177087336Y-95830180D01*
X177087337Y-95830182D01*
X177148528Y-95950276D01*
X177148529Y-95950277D01*
X177148532Y-95950281D01*
X177201202Y-96002951D01*
X177234687Y-96064274D01*
X177232531Y-96094420D01*
X177271744Y-96079795D01*
X177336882Y-96092993D01*
X177363930Y-96106775D01*
X177363932Y-96106775D01*
X177363934Y-96106776D01*
X177497054Y-96127860D01*
X177497056Y-96127860D01*
X177497058Y-96127860D01*
X177630177Y-96106776D01*
X177630177Y-96106775D01*
X177630182Y-96106775D01*
X177750276Y-96045584D01*
X177845584Y-95950276D01*
X177906775Y-95830182D01*
X177917268Y-95763934D01*
X177927860Y-95697058D01*
X177927860Y-95697053D01*
X177906776Y-95563934D01*
X177906775Y-95563932D01*
X177906775Y-95563930D01*
X177845584Y-95443836D01*
X177845582Y-95443834D01*
X177845579Y-95443830D01*
X177750281Y-95348532D01*
X177750277Y-95348529D01*
X177750276Y-95348528D01*
X177630182Y-95287337D01*
X177630180Y-95287336D01*
X177630177Y-95287335D01*
X177497058Y-95266252D01*
X177497054Y-95266252D01*
X177363934Y-95287335D01*
X177243834Y-95348529D01*
X177243830Y-95348532D01*
X177148532Y-95443830D01*
X177148529Y-95443834D01*
X177087335Y-95563934D01*
X177066252Y-95697053D01*
X140000000Y-95697053D01*
X140000000Y-92797053D01*
X180366252Y-92797053D01*
X180366252Y-92797058D01*
X180387335Y-92930177D01*
X180387336Y-92930180D01*
X180387337Y-92930182D01*
X180448528Y-93050276D01*
X180448529Y-93050277D01*
X180448532Y-93050281D01*
X180543830Y-93145579D01*
X180543834Y-93145582D01*
X180543836Y-93145584D01*
X180663930Y-93206775D01*
X180663932Y-93206775D01*
X180663934Y-93206776D01*
X180797054Y-93227860D01*
X180797056Y-93227860D01*
X180797058Y-93227860D01*
X180930177Y-93206776D01*
X180930177Y-93206775D01*
X180930182Y-93206775D01*
X181050276Y-93145584D01*
X181145584Y-93050276D01*
X181206775Y-92930182D01*
X181227860Y-92797056D01*
X181206775Y-92663930D01*
X181145584Y-92543836D01*
X181145582Y-92543834D01*
X181145579Y-92543830D01*
X181050281Y-92448532D01*
X181050277Y-92448529D01*
X181050276Y-92448528D01*
X180930182Y-92387337D01*
X180930180Y-92387336D01*
X180930177Y-92387335D01*
X180797058Y-92366252D01*
X180797054Y-92366252D01*
X180663934Y-92387335D01*
X180543834Y-92448529D01*
X180543830Y-92448532D01*
X180448532Y-92543830D01*
X180448529Y-92543834D01*
X180387335Y-92663934D01*
X180366252Y-92797053D01*
X140000000Y-92797053D01*
X140000000Y-85000710D01*
X140000004Y-84999999D01*
X141294922Y-84999999D01*
X141294922Y-85000000D01*
X141315219Y-85387287D01*
X141375886Y-85770323D01*
X141375887Y-85770330D01*
X141476262Y-86144936D01*
X141615244Y-86506994D01*
X141791310Y-86852543D01*
X142002523Y-87177783D01*
X142002525Y-87177785D01*
X142211096Y-87435348D01*
X143705747Y-85940697D01*
X143779588Y-86042330D01*
X143957670Y-86220412D01*
X144059301Y-86294251D01*
X142564650Y-87788902D01*
X142822214Y-87997475D01*
X142822216Y-87997476D01*
X143147456Y-88208689D01*
X143493005Y-88384755D01*
X143855063Y-88523737D01*
X144229669Y-88624112D01*
X144229676Y-88624113D01*
X144612712Y-88684780D01*
X144999999Y-88705078D01*
X145000001Y-88705078D01*
X145387287Y-88684780D01*
X145770323Y-88624113D01*
X145770330Y-88624112D01*
X146144936Y-88523737D01*
X146506994Y-88384755D01*
X146852543Y-88208689D01*
X147177771Y-87997484D01*
X147177784Y-87997474D01*
X147435348Y-87788902D01*
X145940698Y-86294252D01*
X146042330Y-86220412D01*
X146220412Y-86042330D01*
X146294252Y-85940698D01*
X147788902Y-87435348D01*
X147997474Y-87177784D01*
X147997484Y-87177771D01*
X148208689Y-86852543D01*
X148384755Y-86506994D01*
X148523737Y-86144936D01*
X148624112Y-85770330D01*
X148624113Y-85770323D01*
X148651090Y-85599997D01*
X165269196Y-85599997D01*
X165269196Y-85600002D01*
X165290279Y-85733121D01*
X165290280Y-85733124D01*
X165290281Y-85733126D01*
X165346739Y-85843930D01*
X165351473Y-85853221D01*
X165351476Y-85853225D01*
X165446774Y-85948523D01*
X165446778Y-85948526D01*
X165446780Y-85948528D01*
X165566874Y-86009719D01*
X165566876Y-86009719D01*
X165566878Y-86009720D01*
X165699998Y-86030804D01*
X165700000Y-86030804D01*
X165700002Y-86030804D01*
X165833121Y-86009720D01*
X165833121Y-86009719D01*
X165833126Y-86009719D01*
X165897237Y-85977053D01*
X177196252Y-85977053D01*
X177196252Y-85977058D01*
X177217335Y-86110177D01*
X177217336Y-86110180D01*
X177217337Y-86110182D01*
X177278528Y-86230276D01*
X177278529Y-86230277D01*
X177278532Y-86230281D01*
X177373830Y-86325579D01*
X177373834Y-86325582D01*
X177373836Y-86325584D01*
X177493930Y-86386775D01*
X177493932Y-86386775D01*
X177493934Y-86386776D01*
X177627054Y-86407860D01*
X177627056Y-86407860D01*
X177627058Y-86407860D01*
X177760177Y-86386776D01*
X177760177Y-86386775D01*
X177760182Y-86386775D01*
X177880276Y-86325584D01*
X177975584Y-86230276D01*
X178036775Y-86110182D01*
X178057860Y-85977056D01*
X178053341Y-85948526D01*
X178036776Y-85843934D01*
X178036775Y-85843932D01*
X178036775Y-85843930D01*
X177975584Y-85723836D01*
X177975582Y-85723834D01*
X177975579Y-85723830D01*
X177880281Y-85628532D01*
X177880277Y-85628529D01*
X177880276Y-85628528D01*
X177760182Y-85567337D01*
X177760180Y-85567336D01*
X177760177Y-85567335D01*
X177627058Y-85546252D01*
X177627054Y-85546252D01*
X177493934Y-85567335D01*
X177373834Y-85628529D01*
X177373830Y-85628532D01*
X177278532Y-85723830D01*
X177278529Y-85723834D01*
X177271650Y-85737335D01*
X177240471Y-85798528D01*
X177217335Y-85843934D01*
X177196252Y-85977053D01*
X165897237Y-85977053D01*
X165953220Y-85948528D01*
X166048528Y-85853220D01*
X166109719Y-85733126D01*
X166109720Y-85733121D01*
X166130804Y-85600002D01*
X166130804Y-85599997D01*
X166109720Y-85466878D01*
X166109719Y-85466876D01*
X166109719Y-85466874D01*
X166074143Y-85397053D01*
X188666252Y-85397053D01*
X188666252Y-85397058D01*
X188687335Y-85530177D01*
X188687336Y-85530180D01*
X188687337Y-85530182D01*
X188737449Y-85628532D01*
X188748529Y-85650277D01*
X188748532Y-85650281D01*
X188843830Y-85745579D01*
X188843834Y-85745582D01*
X188843836Y-85745584D01*
X188963930Y-85806775D01*
X188963932Y-85806775D01*
X188963934Y-85806776D01*
X189097054Y-85827860D01*
X189097056Y-85827860D01*
X189097058Y-85827860D01*
X189230177Y-85806776D01*
X189230177Y-85806775D01*
X189230182Y-85806775D01*
X189350276Y-85745584D01*
X189445584Y-85650276D01*
X189506775Y-85530182D01*
X189506776Y-85530177D01*
X189527860Y-85397058D01*
X189527860Y-85397053D01*
X189506776Y-85263934D01*
X189506775Y-85263932D01*
X189506775Y-85263930D01*
X189445584Y-85143836D01*
X189445582Y-85143834D01*
X189445579Y-85143830D01*
X189350281Y-85048532D01*
X189350277Y-85048529D01*
X189350276Y-85048528D01*
X189255033Y-84999999D01*
X201294922Y-84999999D01*
X201294922Y-85000000D01*
X201315219Y-85387287D01*
X201375886Y-85770323D01*
X201375887Y-85770330D01*
X201476262Y-86144936D01*
X201615244Y-86506994D01*
X201791310Y-86852543D01*
X202002523Y-87177783D01*
X202002525Y-87177785D01*
X202211096Y-87435348D01*
X203705747Y-85940697D01*
X203779588Y-86042330D01*
X203957670Y-86220412D01*
X204059301Y-86294251D01*
X202564650Y-87788902D01*
X202822214Y-87997475D01*
X202822216Y-87997476D01*
X203147456Y-88208689D01*
X203493005Y-88384755D01*
X203855063Y-88523737D01*
X204229669Y-88624112D01*
X204229676Y-88624113D01*
X204612712Y-88684780D01*
X204999999Y-88705078D01*
X205000001Y-88705078D01*
X205387287Y-88684780D01*
X205770323Y-88624113D01*
X205770330Y-88624112D01*
X206144936Y-88523737D01*
X206506994Y-88384755D01*
X206852543Y-88208689D01*
X207177771Y-87997484D01*
X207177784Y-87997474D01*
X207435348Y-87788902D01*
X205940698Y-86294252D01*
X206042330Y-86220412D01*
X206220412Y-86042330D01*
X206294252Y-85940698D01*
X207788902Y-87435348D01*
X207997474Y-87177784D01*
X207997484Y-87177771D01*
X208208689Y-86852543D01*
X208384755Y-86506994D01*
X208523737Y-86144936D01*
X208624112Y-85770330D01*
X208624113Y-85770323D01*
X208684780Y-85387287D01*
X208705078Y-85000000D01*
X208705078Y-84999999D01*
X208684780Y-84612712D01*
X208624113Y-84229676D01*
X208624112Y-84229669D01*
X208523737Y-83855063D01*
X208384755Y-83493005D01*
X208208689Y-83147456D01*
X207997476Y-82822216D01*
X207997475Y-82822214D01*
X207788902Y-82564650D01*
X206294251Y-84059301D01*
X206220412Y-83957670D01*
X206042330Y-83779588D01*
X205940698Y-83705748D01*
X207435349Y-82211096D01*
X207177785Y-82002525D01*
X207177783Y-82002523D01*
X206852543Y-81791310D01*
X206506994Y-81615244D01*
X206144936Y-81476262D01*
X205770330Y-81375887D01*
X205770323Y-81375886D01*
X205387287Y-81315219D01*
X205000001Y-81294922D01*
X204999999Y-81294922D01*
X204612712Y-81315219D01*
X204229676Y-81375886D01*
X204229669Y-81375887D01*
X203855063Y-81476262D01*
X203493005Y-81615244D01*
X203147456Y-81791310D01*
X202822206Y-82002531D01*
X202564649Y-82211095D01*
X202564649Y-82211096D01*
X204059301Y-83705748D01*
X203957670Y-83779588D01*
X203779588Y-83957670D01*
X203705748Y-84059301D01*
X202211096Y-82564649D01*
X202211095Y-82564649D01*
X202002531Y-82822206D01*
X201791310Y-83147456D01*
X201615244Y-83493005D01*
X201476262Y-83855063D01*
X201375887Y-84229669D01*
X201375886Y-84229676D01*
X201315219Y-84612712D01*
X201294922Y-84999999D01*
X189255033Y-84999999D01*
X189230182Y-84987337D01*
X189230180Y-84987336D01*
X189230177Y-84987335D01*
X189097058Y-84966252D01*
X189097054Y-84966252D01*
X188963934Y-84987335D01*
X188963930Y-84987336D01*
X188963930Y-84987337D01*
X188937684Y-85000710D01*
X188843834Y-85048529D01*
X188843830Y-85048532D01*
X188748532Y-85143830D01*
X188748529Y-85143834D01*
X188687335Y-85263934D01*
X188666252Y-85397053D01*
X166074143Y-85397053D01*
X166048528Y-85346780D01*
X166048526Y-85346778D01*
X166048523Y-85346774D01*
X165953225Y-85251476D01*
X165953221Y-85251473D01*
X165953220Y-85251472D01*
X165833126Y-85190281D01*
X165833124Y-85190280D01*
X165833121Y-85190279D01*
X165700002Y-85169196D01*
X165699998Y-85169196D01*
X165566878Y-85190279D01*
X165446778Y-85251473D01*
X165446774Y-85251476D01*
X165351476Y-85346774D01*
X165351473Y-85346778D01*
X165290279Y-85466878D01*
X165269196Y-85599997D01*
X148651090Y-85599997D01*
X148684780Y-85387287D01*
X148705078Y-85000000D01*
X148705078Y-84999999D01*
X148684780Y-84612712D01*
X148624113Y-84229676D01*
X148624112Y-84229669D01*
X148523737Y-83855063D01*
X148384755Y-83493005D01*
X148208689Y-83147456D01*
X147997476Y-82822216D01*
X147997475Y-82822214D01*
X147788902Y-82564650D01*
X146294251Y-84059301D01*
X146220412Y-83957670D01*
X146042330Y-83779588D01*
X145940698Y-83705748D01*
X147435349Y-82211096D01*
X147177785Y-82002525D01*
X147177783Y-82002523D01*
X146852543Y-81791310D01*
X146506994Y-81615244D01*
X146144936Y-81476262D01*
X145770330Y-81375887D01*
X145770323Y-81375886D01*
X145387287Y-81315219D01*
X145000001Y-81294922D01*
X144999999Y-81294922D01*
X144612712Y-81315219D01*
X144229676Y-81375886D01*
X144229669Y-81375887D01*
X143855063Y-81476262D01*
X143493005Y-81615244D01*
X143147456Y-81791310D01*
X142822206Y-82002531D01*
X142564649Y-82211095D01*
X142564649Y-82211096D01*
X144059301Y-83705748D01*
X143957670Y-83779588D01*
X143779588Y-83957670D01*
X143705748Y-84059301D01*
X142211096Y-82564649D01*
X142211095Y-82564649D01*
X142002531Y-82822206D01*
X141791310Y-83147456D01*
X141615244Y-83493005D01*
X141476262Y-83855063D01*
X141375887Y-84229669D01*
X141375886Y-84229676D01*
X141315219Y-84612712D01*
X141294922Y-84999999D01*
X140000004Y-84999999D01*
X140000007Y-84999358D01*
X140002328Y-84786528D01*
X140002793Y-84777073D01*
X140014222Y-84646446D01*
X140039943Y-84352444D01*
X140041355Y-84341725D01*
X140115257Y-83922602D01*
X140117589Y-83912083D01*
X140227749Y-83500959D01*
X140230989Y-83490683D01*
X140376558Y-83090736D01*
X140380679Y-83080786D01*
X140560552Y-82695047D01*
X140565532Y-82685480D01*
X140778332Y-82316900D01*
X140784125Y-82307806D01*
X141028246Y-81959165D01*
X141034812Y-81950609D01*
X141308394Y-81624566D01*
X141315681Y-81616615D01*
X141616615Y-81315681D01*
X141624566Y-81308394D01*
X141950609Y-81034812D01*
X141959165Y-81028246D01*
X142307806Y-80784125D01*
X142316900Y-80778332D01*
X142685480Y-80565532D01*
X142695047Y-80560552D01*
X143080786Y-80380679D01*
X143090736Y-80376558D01*
X143490683Y-80230989D01*
X143500959Y-80227749D01*
X143912083Y-80117589D01*
X143922602Y-80115257D01*
X144341732Y-80041353D01*
X144352444Y-80039943D01*
X144777085Y-80002792D01*
X144786517Y-80002328D01*
X144999358Y-80000006D01*
X145000710Y-80000000D01*
X204999308Y-80000000D01*
X205000647Y-80000006D01*
G37*
%TD.AperFunction*%
%TD*%
%TA.AperFunction,Conductor*%
%TO.N,Net-(U9-SW)*%
G36*
X161043039Y-109719685D02*
G01*
X161088794Y-109772489D01*
X161100000Y-109824000D01*
X161100000Y-116976000D01*
X161080315Y-117043039D01*
X161027511Y-117088794D01*
X160976000Y-117100000D01*
X159724000Y-117100000D01*
X159656961Y-117080315D01*
X159611206Y-117027511D01*
X159600000Y-116976000D01*
X159600000Y-115999999D01*
X158097447Y-114808319D01*
X158057154Y-114751238D01*
X158050500Y-114711165D01*
X158050500Y-113705249D01*
X158050499Y-113705247D01*
X158038868Y-113646770D01*
X158038867Y-113646769D01*
X157994552Y-113580447D01*
X157928230Y-113536132D01*
X157928229Y-113536131D01*
X157869752Y-113524500D01*
X157869748Y-113524500D01*
X156824000Y-113524500D01*
X156756961Y-113504815D01*
X156711206Y-113452011D01*
X156700000Y-113400500D01*
X156700000Y-109824000D01*
X156719685Y-109756961D01*
X156772489Y-109711206D01*
X156824000Y-109700000D01*
X160976000Y-109700000D01*
X161043039Y-109719685D01*
G37*
%TD.AperFunction*%
%TD*%
%TA.AperFunction,Conductor*%
%TO.N,+7.5V*%
G36*
X165543039Y-104719685D02*
G01*
X165588794Y-104772489D01*
X165600000Y-104824000D01*
X165600000Y-124376000D01*
X165580315Y-124443039D01*
X165527511Y-124488794D01*
X165476000Y-124500000D01*
X162621521Y-124500000D01*
X162554482Y-124480315D01*
X162508727Y-124427511D01*
X162497546Y-124378505D01*
X162405525Y-119823487D01*
X162405500Y-119820982D01*
X162405500Y-118924008D01*
X162405499Y-118923992D01*
X162400803Y-118880316D01*
X162396535Y-118860701D01*
X162389598Y-118828807D01*
X162388299Y-118823492D01*
X162384779Y-118796564D01*
X162102556Y-104826505D01*
X162120883Y-104759081D01*
X162172752Y-104712269D01*
X162226531Y-104700000D01*
X165476000Y-104700000D01*
X165543039Y-104719685D01*
G37*
%TD.AperFunction*%
%TD*%
%TA.AperFunction,Conductor*%
%TO.N,VBUS*%
G36*
X151769186Y-116630150D02*
G01*
X151836105Y-116650224D01*
X151856139Y-116666466D01*
X152958181Y-117768507D01*
X152991666Y-117829830D01*
X152994500Y-117856188D01*
X152994500Y-118533260D01*
X153004426Y-118601391D01*
X153055803Y-118706485D01*
X153138514Y-118789196D01*
X153138515Y-118789196D01*
X153138517Y-118789198D01*
X153243607Y-118840573D01*
X153277673Y-118845536D01*
X153311739Y-118850500D01*
X153311740Y-118850500D01*
X153678261Y-118850500D01*
X153700971Y-118847191D01*
X153746393Y-118840573D01*
X153851483Y-118789198D01*
X153934198Y-118706483D01*
X153985573Y-118601393D01*
X153995500Y-118533260D01*
X153995500Y-116999500D01*
X154015185Y-116932461D01*
X154067989Y-116886706D01*
X154119500Y-116875500D01*
X156576000Y-116875500D01*
X156643039Y-116895185D01*
X156688794Y-116947989D01*
X156700000Y-116999500D01*
X156700000Y-118800000D01*
X156941925Y-118800000D01*
X156996384Y-118812598D01*
X157053607Y-118840573D01*
X157087673Y-118845536D01*
X157121739Y-118850500D01*
X157121740Y-118850500D01*
X157488261Y-118850500D01*
X157510971Y-118847191D01*
X157556393Y-118840573D01*
X157613615Y-118812598D01*
X157668075Y-118800000D01*
X162076000Y-118800000D01*
X162143039Y-118819685D01*
X162188794Y-118872489D01*
X162200000Y-118924000D01*
X162200000Y-123675070D01*
X162180315Y-123742109D01*
X162127511Y-123787864D01*
X162075075Y-123799067D01*
X148800000Y-123700000D01*
X148800000Y-125376000D01*
X148780315Y-125443039D01*
X148727511Y-125488794D01*
X148676000Y-125500000D01*
X146724000Y-125500000D01*
X146656961Y-125480315D01*
X146611206Y-125427511D01*
X146600000Y-125376000D01*
X146600000Y-116724725D01*
X146619685Y-116657686D01*
X146672489Y-116611931D01*
X146724720Y-116600727D01*
X151769186Y-116630150D01*
G37*
%TD.AperFunction*%
%TD*%
M02*
