%TF.GenerationSoftware,KiCad,Pcbnew,8.0.7*%
%TF.CreationDate,2025-01-22T21:35:01+01:00*%
%TF.ProjectId,Inverter_KiCAD,496e7665-7274-4657-925f-4b694341442e,rev?*%
%TF.SameCoordinates,Original*%
%TF.FileFunction,Copper,L2,Inr*%
%TF.FilePolarity,Positive*%
%FSLAX46Y46*%
G04 Gerber Fmt 4.6, Leading zero omitted, Abs format (unit mm)*
G04 Created by KiCad (PCBNEW 8.0.7) date 2025-01-22 21:35:01*
%MOMM*%
%LPD*%
G01*
G04 APERTURE LIST*
G04 Aperture macros list*
%AMRoundRect*
0 Rectangle with rounded corners*
0 $1 Rounding radius*
0 $2 $3 $4 $5 $6 $7 $8 $9 X,Y pos of 4 corners*
0 Add a 4 corners polygon primitive as box body*
4,1,4,$2,$3,$4,$5,$6,$7,$8,$9,$2,$3,0*
0 Add four circle primitives for the rounded corners*
1,1,$1+$1,$2,$3*
1,1,$1+$1,$4,$5*
1,1,$1+$1,$6,$7*
1,1,$1+$1,$8,$9*
0 Add four rect primitives between the rounded corners*
20,1,$1+$1,$2,$3,$4,$5,0*
20,1,$1+$1,$4,$5,$6,$7,0*
20,1,$1+$1,$6,$7,$8,$9,0*
20,1,$1+$1,$8,$9,$2,$3,0*%
G04 Aperture macros list end*
%TA.AperFunction,ComponentPad*%
%ADD10C,1.400000*%
%TD*%
%TA.AperFunction,ComponentPad*%
%ADD11RoundRect,0.770000X0.980000X0.980000X-0.980000X0.980000X-0.980000X-0.980000X0.980000X-0.980000X0*%
%TD*%
%TA.AperFunction,ComponentPad*%
%ADD12C,3.500000*%
%TD*%
%TA.AperFunction,ComponentPad*%
%ADD13R,1.700000X1.700000*%
%TD*%
%TA.AperFunction,ComponentPad*%
%ADD14O,1.700000X1.700000*%
%TD*%
%TA.AperFunction,ComponentPad*%
%ADD15C,0.800000*%
%TD*%
%TA.AperFunction,ComponentPad*%
%ADD16C,6.400000*%
%TD*%
%TA.AperFunction,ComponentPad*%
%ADD17RoundRect,0.250000X0.600000X0.750000X-0.600000X0.750000X-0.600000X-0.750000X0.600000X-0.750000X0*%
%TD*%
%TA.AperFunction,ComponentPad*%
%ADD18O,1.700000X2.000000*%
%TD*%
%TA.AperFunction,ComponentPad*%
%ADD19RoundRect,0.250000X0.725000X-0.600000X0.725000X0.600000X-0.725000X0.600000X-0.725000X-0.600000X0*%
%TD*%
%TA.AperFunction,ComponentPad*%
%ADD20O,1.950000X1.700000*%
%TD*%
%TA.AperFunction,ComponentPad*%
%ADD21RoundRect,1.500000X-1.500000X1.500000X-1.500000X-1.500000X1.500000X-1.500000X1.500000X1.500000X0*%
%TD*%
%TA.AperFunction,ComponentPad*%
%ADD22C,6.000000*%
%TD*%
%TA.AperFunction,ViaPad*%
%ADD23C,0.450000*%
%TD*%
G04 APERTURE END LIST*
D10*
%TO.N,*%
%TO.C,J1*%
X178800000Y-145200000D03*
X167800000Y-145200000D03*
D11*
%TO.N,/ARM_B*%
X170800000Y-135200000D03*
D12*
%TO.N,/ARM_OUT_A*%
X175800000Y-135200000D03*
%TD*%
D13*
%TO.N,+7.5V*%
%TO.C,J2*%
X164100000Y-123400000D03*
D14*
%TO.N,GND*%
X164100000Y-125940000D03*
%TO.N,+5V*%
X164100000Y-128480000D03*
%TD*%
D15*
%TO.N,GND*%
%TO.C,H113*%
X142600000Y-85000000D03*
X143302944Y-83302944D03*
X143302944Y-86697056D03*
X145000000Y-82600000D03*
D16*
X145000000Y-85000000D03*
D15*
X145000000Y-87400000D03*
X146697056Y-83302944D03*
X146697056Y-86697056D03*
X147400000Y-85000000D03*
%TD*%
D17*
%TO.N,+5V*%
%TO.C,J4*%
X203097056Y-130322056D03*
D18*
%TO.N,Net-(J4-Pin_2)*%
X200597056Y-130322056D03*
%TD*%
D15*
%TO.N,GND*%
%TO.C,H109*%
X202600000Y-85000000D03*
X203302944Y-83302944D03*
X203302944Y-86697056D03*
X205000000Y-82600000D03*
D16*
X205000000Y-85000000D03*
D15*
X205000000Y-87400000D03*
X206697056Y-83302944D03*
X206697056Y-86697056D03*
X207400000Y-85000000D03*
%TD*%
D19*
%TO.N,unconnected-(J7-Pin_1-Pad1)*%
%TO.C,J7*%
X203672056Y-122547056D03*
D20*
%TO.N,/MCU_STM32G475/USART1_RX*%
X203672056Y-120047056D03*
%TO.N,/MCU_STM32G475/USART1_TX*%
X203672056Y-117547056D03*
%TO.N,GND*%
X203672056Y-115047056D03*
%TD*%
D15*
%TO.N,GND*%
%TO.C,H111*%
X202600000Y-145000000D03*
X203302944Y-143302944D03*
X203302944Y-146697056D03*
X205000000Y-142600000D03*
D16*
X205000000Y-145000000D03*
D15*
X205000000Y-147400000D03*
X206697056Y-143302944D03*
X206697056Y-146697056D03*
X207400000Y-145000000D03*
%TD*%
D21*
%TO.N,Net-(BT1-+)*%
%TO.C,BT1*%
X145000000Y-129150000D03*
D22*
%TO.N,GND*%
X145000000Y-136350000D03*
%TD*%
D17*
%TO.N,+5V*%
%TO.C,J5*%
X203097056Y-137822056D03*
D18*
%TO.N,Net-(J4-Pin_2)*%
X200597056Y-137822056D03*
%TD*%
D15*
%TO.N,GND*%
%TO.C,H114*%
X142600000Y-145000000D03*
X143302944Y-143302944D03*
X143302944Y-146697056D03*
X145000000Y-142600000D03*
D16*
X145000000Y-145000000D03*
D15*
X145000000Y-147400000D03*
X146697056Y-143302944D03*
X146697056Y-146697056D03*
X147400000Y-145000000D03*
%TD*%
D23*
%TO.N,GND*%
X140700000Y-142000000D03*
X140700000Y-139000000D03*
X140700000Y-136000000D03*
X140700000Y-133000000D03*
X140700000Y-130000000D03*
X140700000Y-127000000D03*
X140700000Y-124000000D03*
X140700000Y-121000000D03*
X140700000Y-118000000D03*
X140700000Y-112000000D03*
X140700000Y-109000000D03*
X140700000Y-106000000D03*
X140700000Y-103000000D03*
X140700000Y-100000000D03*
X140700000Y-97000000D03*
X140700000Y-94000000D03*
X140700000Y-91000000D03*
X140700000Y-88000000D03*
X140700000Y-85000000D03*
X141400000Y-82500000D03*
X142900000Y-81000000D03*
X145900000Y-80800000D03*
X148600000Y-80900000D03*
X151200000Y-81000000D03*
X140600000Y-145400000D03*
X142000000Y-148200000D03*
X202000000Y-149300000D03*
X199000000Y-149300000D03*
X196000000Y-149300000D03*
X193000000Y-149300000D03*
X190000000Y-149300000D03*
X187000000Y-149300000D03*
X184000000Y-149300000D03*
X181000000Y-149300000D03*
X178000000Y-149300000D03*
X175000000Y-149300000D03*
X172000000Y-149300000D03*
X169000000Y-149300000D03*
X166000000Y-149300000D03*
X163000000Y-149300000D03*
X160000000Y-149300000D03*
X157000000Y-149300000D03*
X154000000Y-149300000D03*
X151000000Y-149300000D03*
X148000000Y-149300000D03*
X145000000Y-149300000D03*
X205000000Y-149500000D03*
X208100000Y-148200000D03*
X209200000Y-146500000D03*
X209200000Y-143500000D03*
X209200000Y-140500000D03*
X209200000Y-137500000D03*
X209200000Y-134500000D03*
X209200000Y-131500000D03*
X209200000Y-128500000D03*
X209200000Y-125500000D03*
X209200000Y-122500000D03*
X209200000Y-119500000D03*
X209200000Y-116500000D03*
X209200000Y-113500000D03*
X209200000Y-110500000D03*
X209200000Y-107500000D03*
X209200000Y-104500000D03*
X209200000Y-101500000D03*
X209200000Y-98500000D03*
X209200000Y-95500000D03*
X209200000Y-92500000D03*
X209200000Y-89500000D03*
X209200000Y-86500000D03*
X207600000Y-81600000D03*
X202400000Y-81100000D03*
X198300000Y-81100000D03*
X195400000Y-81000000D03*
X192400000Y-81000000D03*
X189400000Y-81000000D03*
X186400000Y-81000000D03*
X183400000Y-81000000D03*
X180400000Y-81000000D03*
X177400000Y-81000000D03*
X174400000Y-81000000D03*
X171400000Y-81000000D03*
X168400000Y-81000000D03*
X165400000Y-81000000D03*
X162400000Y-81000000D03*
X159400000Y-81000000D03*
X156400000Y-81000000D03*
X153400000Y-81000000D03*
X171700000Y-140600000D03*
X164800000Y-100300000D03*
X157400000Y-137400000D03*
%TO.N,/{slash}B*%
X159800000Y-135700000D03*
X164000000Y-140600000D03*
%TO.N,/{slash}A*%
X163900000Y-142100000D03*
X158400000Y-136500000D03*
%TO.N,+3.3V*%
X156963215Y-145701173D03*
X157600000Y-134800000D03*
%TO.N,GND*%
X152300000Y-112100000D03*
X157300000Y-115200000D03*
X156700000Y-115200000D03*
X156100000Y-115200000D03*
X155500000Y-115200000D03*
X154800000Y-115200000D03*
X154100000Y-115200000D03*
X153400000Y-115200000D03*
X175100000Y-127400000D03*
%TO.N,+3.3V*%
X166400000Y-105300000D03*
%TO.N,/Imes_vbus*%
X173200000Y-104200000D03*
X155000000Y-109400000D03*
%TO.N,GND*%
X184900000Y-102100000D03*
%TO.N,+3.3V*%
X192159556Y-109172056D03*
X189097056Y-85397056D03*
X191697056Y-95997056D03*
X177627056Y-85977056D03*
X177697056Y-103797056D03*
X192797056Y-121947056D03*
X192797056Y-120147056D03*
X192797056Y-121047056D03*
X192797056Y-122847056D03*
X198657425Y-123469801D03*
X189797056Y-105697056D03*
X180797056Y-92797056D03*
X177497056Y-95697056D03*
X192797056Y-119247056D03*
X197000000Y-121000000D03*
X187600000Y-115500000D03*
X165700000Y-85600000D03*
X196397056Y-97697056D03*
%TO.N,GND*%
X167500000Y-112000000D03*
X183600000Y-119400000D03*
X172400000Y-100000000D03*
X143097056Y-100297056D03*
X193097056Y-106297056D03*
X164900000Y-89900000D03*
X193097056Y-110297056D03*
X183200000Y-140500000D03*
X178097056Y-109297056D03*
X185897056Y-134497056D03*
X145100000Y-114300000D03*
X180397056Y-102997056D03*
X181197056Y-95597056D03*
X150700000Y-140800000D03*
X168197056Y-128297056D03*
X153097056Y-90297056D03*
X169197056Y-127297056D03*
X185797056Y-103897056D03*
X146300000Y-114300000D03*
X170197056Y-127297056D03*
X180700000Y-127300000D03*
X154200000Y-133200000D03*
X170197056Y-128297056D03*
X143100000Y-109500000D03*
X145700000Y-114300000D03*
X185500000Y-128400000D03*
X179697056Y-82097056D03*
X167097056Y-118297056D03*
X185097056Y-107297056D03*
X153400000Y-100600000D03*
X173097056Y-105297056D03*
X169197056Y-128297056D03*
X178700000Y-127300000D03*
X183097056Y-90297056D03*
X203097056Y-95297056D03*
X198097056Y-95297056D03*
X191847056Y-100547056D03*
X180097056Y-107297056D03*
X189397056Y-106797056D03*
X187097056Y-110297056D03*
X172797056Y-85897056D03*
X178700000Y-126300000D03*
X168197056Y-127297056D03*
X193000000Y-141000000D03*
X187797056Y-96497056D03*
X191600000Y-110800000D03*
X143097056Y-90297056D03*
X182097056Y-109297056D03*
X179700000Y-126300000D03*
X203097056Y-106297056D03*
X183097056Y-100297056D03*
X180700000Y-126300000D03*
X176297056Y-89697056D03*
X198097056Y-106297056D03*
X197097056Y-103047056D03*
X176167032Y-118827080D03*
X179700000Y-127300000D03*
%TO.N,/Imes_mot*%
X189700000Y-133800000D03*
X183400000Y-103500000D03*
%TO.N,VBUS*%
X170097056Y-123500000D03*
X148000000Y-123750000D03*
X147000000Y-122800000D03*
X181400000Y-123200000D03*
X147000000Y-123750000D03*
X148000000Y-121750000D03*
X148000000Y-122800000D03*
X172000000Y-123500000D03*
X180400000Y-123200000D03*
X147000000Y-124800000D03*
X147000000Y-121750000D03*
X181400000Y-121200000D03*
X185674263Y-112822793D03*
X174000000Y-123500000D03*
X171097056Y-123500000D03*
X180400000Y-121200000D03*
X181400000Y-122200000D03*
X180400000Y-122200000D03*
X169200000Y-123500000D03*
X148000000Y-124800000D03*
X173000000Y-123500000D03*
%TO.N,/VBus_Sense*%
X191597056Y-103027056D03*
X188497056Y-113797056D03*
%TO.N,+5V*%
X207800000Y-126900000D03*
X195097056Y-126397056D03*
X189200000Y-127500000D03*
X195097056Y-125597056D03*
%TO.N,/MCU_STM32G475/USR_BTN_2*%
X181297056Y-106997056D03*
X186997056Y-86147056D03*
%TO.N,/MCU_STM32G475/NRST*%
X205597056Y-103697056D03*
X187097056Y-98397056D03*
%TO.N,/In_A_H*%
X177397056Y-102897056D03*
X176822056Y-108572056D03*
%TO.N,/In_A_L*%
X176172056Y-107397056D03*
%TO.N,/In_B_H*%
X180797056Y-101097056D03*
X174872056Y-107697056D03*
%TO.N,/In_B_L*%
X175497056Y-109197056D03*
X184397056Y-100694646D03*
%TO.N,/ARM_B*%
X175700000Y-120800000D03*
X173600000Y-112400000D03*
%TO.N,/MCU_STM32G475/SWO*%
X206397056Y-100997056D03*
X186397056Y-96897056D03*
%TO.N,/PWM_FAN*%
X193897056Y-129697056D03*
X184397056Y-95897056D03*
%TO.N,/Pwr_EN*%
X176897056Y-96597056D03*
%TO.N,/I2C_SCL*%
X193397056Y-99597056D03*
%TO.N,/I2C_SDA*%
X191997056Y-99497056D03*
%TO.N,/ARM_IN_A*%
X180000000Y-131500000D03*
%TO.N,/Cmd_L_A*%
X177897056Y-119497056D03*
%TO.N,/Cmd_H_A*%
X179397056Y-118497056D03*
%TO.N,/Cmd_H_B*%
X173000000Y-119600000D03*
%TO.N,/Cmd_L_B*%
X174922056Y-119297056D03*
%TD*%
%TA.AperFunction,Conductor*%
%TO.N,GND*%
G36*
X205000647Y-80000006D02*
G01*
X205213514Y-80002308D01*
X205222925Y-80002769D01*
X205647637Y-80039884D01*
X205658326Y-80041290D01*
X206077506Y-80115160D01*
X206088052Y-80117497D01*
X206499198Y-80227619D01*
X206509493Y-80230863D01*
X206909485Y-80376403D01*
X206919460Y-80380534D01*
X207305230Y-80560374D01*
X207314809Y-80565360D01*
X207683443Y-80778142D01*
X207692535Y-80783932D01*
X208041231Y-81028040D01*
X208049807Y-81034619D01*
X208375880Y-81308170D01*
X208383857Y-81315478D01*
X208684851Y-81616413D01*
X208692159Y-81624388D01*
X208965760Y-81950386D01*
X208972347Y-81958968D01*
X209216513Y-82307600D01*
X209222326Y-82316722D01*
X209435171Y-82685295D01*
X209440167Y-82694890D01*
X209620078Y-83080609D01*
X209624219Y-83090603D01*
X209769829Y-83490541D01*
X209773083Y-83500858D01*
X209883282Y-83911963D01*
X209885624Y-83922523D01*
X209959574Y-84341666D01*
X209960987Y-84352391D01*
X209998185Y-84777065D01*
X209998650Y-84786521D01*
X209999992Y-84908474D01*
X210000000Y-84909838D01*
X210000000Y-144999289D01*
X209999993Y-145000642D01*
X209997671Y-145213472D01*
X209997206Y-145222926D01*
X209960056Y-145647549D01*
X209958644Y-145658274D01*
X209884746Y-146077376D01*
X209882405Y-146087938D01*
X209772256Y-146499019D01*
X209769003Y-146509335D01*
X209623450Y-146909240D01*
X209619310Y-146919235D01*
X209439454Y-147304937D01*
X209434459Y-147314532D01*
X209221676Y-147683083D01*
X209215864Y-147692207D01*
X208971762Y-148040820D01*
X208965177Y-148049402D01*
X208691616Y-148375420D01*
X208684307Y-148383395D01*
X208383395Y-148684307D01*
X208375420Y-148691616D01*
X208049402Y-148965177D01*
X208040820Y-148971762D01*
X207692207Y-149215864D01*
X207683083Y-149221676D01*
X207314532Y-149434459D01*
X207304937Y-149439454D01*
X206919235Y-149619310D01*
X206909240Y-149623450D01*
X206509335Y-149769003D01*
X206499019Y-149772256D01*
X206087938Y-149882405D01*
X206077376Y-149884746D01*
X205658274Y-149958644D01*
X205647549Y-149960056D01*
X205222926Y-149997206D01*
X205213472Y-149997671D01*
X205005455Y-149999940D01*
X205000640Y-149999993D01*
X204999290Y-150000000D01*
X145000710Y-150000000D01*
X144999359Y-149999993D01*
X144994454Y-149999939D01*
X144786527Y-149997671D01*
X144777073Y-149997206D01*
X144352450Y-149960056D01*
X144341725Y-149958644D01*
X143922623Y-149884746D01*
X143912061Y-149882405D01*
X143500980Y-149772256D01*
X143490664Y-149769003D01*
X143090759Y-149623450D01*
X143080764Y-149619310D01*
X142695062Y-149439454D01*
X142685467Y-149434459D01*
X142316916Y-149221676D01*
X142307792Y-149215864D01*
X141959179Y-148971762D01*
X141950597Y-148965177D01*
X141624579Y-148691616D01*
X141616604Y-148684307D01*
X141315692Y-148383395D01*
X141308383Y-148375420D01*
X141034822Y-148049402D01*
X141028237Y-148040820D01*
X140997887Y-147997476D01*
X140784132Y-147692203D01*
X140778323Y-147683083D01*
X140565540Y-147314532D01*
X140560545Y-147304937D01*
X140501252Y-147177783D01*
X140380683Y-146919221D01*
X140376555Y-146909255D01*
X140230992Y-146509322D01*
X140227747Y-146499033D01*
X140117590Y-146087921D01*
X140115256Y-146077393D01*
X140041354Y-145658270D01*
X140039943Y-145647549D01*
X140032988Y-145568051D01*
X140002792Y-145222915D01*
X140002328Y-145213471D01*
X140000007Y-145000641D01*
X140000004Y-144999999D01*
X141294922Y-144999999D01*
X141294922Y-145000000D01*
X141315219Y-145387287D01*
X141375886Y-145770323D01*
X141375887Y-145770330D01*
X141476262Y-146144936D01*
X141615244Y-146506994D01*
X141791310Y-146852543D01*
X142002523Y-147177783D01*
X142002525Y-147177785D01*
X142211096Y-147435348D01*
X143705747Y-145940697D01*
X143779588Y-146042330D01*
X143957670Y-146220412D01*
X144059301Y-146294251D01*
X142564650Y-147788902D01*
X142822214Y-147997475D01*
X142822216Y-147997476D01*
X143147456Y-148208689D01*
X143493005Y-148384755D01*
X143855063Y-148523737D01*
X144229669Y-148624112D01*
X144229676Y-148624113D01*
X144612712Y-148684780D01*
X144999999Y-148705078D01*
X145000001Y-148705078D01*
X145387287Y-148684780D01*
X145770323Y-148624113D01*
X145770330Y-148624112D01*
X146144936Y-148523737D01*
X146506994Y-148384755D01*
X146852543Y-148208689D01*
X147177771Y-147997484D01*
X147177784Y-147997474D01*
X147435348Y-147788902D01*
X145940698Y-146294252D01*
X146042330Y-146220412D01*
X146220412Y-146042330D01*
X146294252Y-145940698D01*
X147788902Y-147435348D01*
X147997474Y-147177784D01*
X147997484Y-147177771D01*
X148208689Y-146852543D01*
X148384755Y-146506994D01*
X148523737Y-146144936D01*
X148624112Y-145770330D01*
X148624113Y-145770323D01*
X148635066Y-145701170D01*
X156532411Y-145701170D01*
X156532411Y-145701175D01*
X156553494Y-145834294D01*
X156553495Y-145834297D01*
X156553496Y-145834299D01*
X156614687Y-145954393D01*
X156614688Y-145954394D01*
X156614691Y-145954398D01*
X156709989Y-146049696D01*
X156709993Y-146049699D01*
X156709995Y-146049701D01*
X156830089Y-146110892D01*
X156830091Y-146110892D01*
X156830093Y-146110893D01*
X156963213Y-146131977D01*
X156963215Y-146131977D01*
X156963217Y-146131977D01*
X157096336Y-146110893D01*
X157096336Y-146110892D01*
X157096341Y-146110892D01*
X157216435Y-146049701D01*
X157311743Y-145954393D01*
X157372934Y-145834299D01*
X157383067Y-145770323D01*
X157394019Y-145701175D01*
X157394019Y-145701170D01*
X157372935Y-145568051D01*
X157372934Y-145568049D01*
X157372934Y-145568047D01*
X157311743Y-145447953D01*
X157311741Y-145447951D01*
X157311738Y-145447947D01*
X157216440Y-145352649D01*
X157216436Y-145352646D01*
X157216435Y-145352645D01*
X157096341Y-145291454D01*
X157096339Y-145291453D01*
X157096336Y-145291452D01*
X156963217Y-145270369D01*
X156963213Y-145270369D01*
X156830093Y-145291452D01*
X156709993Y-145352646D01*
X156709989Y-145352649D01*
X156614691Y-145447947D01*
X156614688Y-145447951D01*
X156553494Y-145568051D01*
X156532411Y-145701170D01*
X148635066Y-145701170D01*
X148684780Y-145387287D01*
X148694596Y-145200000D01*
X166894540Y-145200000D01*
X166914326Y-145388256D01*
X166914327Y-145388259D01*
X166972818Y-145568277D01*
X166972821Y-145568284D01*
X167067467Y-145732216D01*
X167159379Y-145834294D01*
X167194129Y-145872888D01*
X167347265Y-145984148D01*
X167347270Y-145984151D01*
X167520192Y-146061142D01*
X167520197Y-146061144D01*
X167705354Y-146100500D01*
X167705355Y-146100500D01*
X167894644Y-146100500D01*
X167894646Y-146100500D01*
X168079803Y-146061144D01*
X168252730Y-145984151D01*
X168405871Y-145872888D01*
X168532533Y-145732216D01*
X168627179Y-145568284D01*
X168685674Y-145388256D01*
X168705460Y-145200000D01*
X177894540Y-145200000D01*
X177914326Y-145388256D01*
X177914327Y-145388259D01*
X177972818Y-145568277D01*
X177972821Y-145568284D01*
X178067467Y-145732216D01*
X178159379Y-145834294D01*
X178194129Y-145872888D01*
X178347265Y-145984148D01*
X178347270Y-145984151D01*
X178520192Y-146061142D01*
X178520197Y-146061144D01*
X178705354Y-146100500D01*
X178705355Y-146100500D01*
X178894644Y-146100500D01*
X178894646Y-146100500D01*
X179079803Y-146061144D01*
X179252730Y-145984151D01*
X179405871Y-145872888D01*
X179532533Y-145732216D01*
X179627179Y-145568284D01*
X179685674Y-145388256D01*
X179705460Y-145200000D01*
X179685674Y-145011744D01*
X179681858Y-144999999D01*
X201294922Y-144999999D01*
X201294922Y-145000000D01*
X201315219Y-145387287D01*
X201375886Y-145770323D01*
X201375887Y-145770330D01*
X201476262Y-146144936D01*
X201615244Y-146506994D01*
X201791310Y-146852543D01*
X202002523Y-147177783D01*
X202002525Y-147177785D01*
X202211096Y-147435348D01*
X203705747Y-145940697D01*
X203779588Y-146042330D01*
X203957670Y-146220412D01*
X204059301Y-146294251D01*
X202564650Y-147788902D01*
X202822214Y-147997475D01*
X202822216Y-147997476D01*
X203147456Y-148208689D01*
X203493005Y-148384755D01*
X203855063Y-148523737D01*
X204229669Y-148624112D01*
X204229676Y-148624113D01*
X204612712Y-148684780D01*
X204999999Y-148705078D01*
X205000001Y-148705078D01*
X205387287Y-148684780D01*
X205770323Y-148624113D01*
X205770330Y-148624112D01*
X206144936Y-148523737D01*
X206506994Y-148384755D01*
X206852543Y-148208689D01*
X207177771Y-147997484D01*
X207177784Y-147997474D01*
X207435348Y-147788902D01*
X205940698Y-146294252D01*
X206042330Y-146220412D01*
X206220412Y-146042330D01*
X206294252Y-145940698D01*
X207788902Y-147435348D01*
X207997474Y-147177784D01*
X207997484Y-147177771D01*
X208208689Y-146852543D01*
X208384755Y-146506994D01*
X208523737Y-146144936D01*
X208624112Y-145770330D01*
X208624113Y-145770323D01*
X208684780Y-145387287D01*
X208705078Y-145000000D01*
X208705078Y-144999999D01*
X208684780Y-144612712D01*
X208624113Y-144229676D01*
X208624112Y-144229669D01*
X208523737Y-143855063D01*
X208384755Y-143493005D01*
X208208689Y-143147456D01*
X207997476Y-142822216D01*
X207997475Y-142822214D01*
X207788902Y-142564650D01*
X206294251Y-144059301D01*
X206220412Y-143957670D01*
X206042330Y-143779588D01*
X205940698Y-143705748D01*
X207435349Y-142211096D01*
X207177785Y-142002525D01*
X207177783Y-142002523D01*
X206852543Y-141791310D01*
X206506994Y-141615244D01*
X206144936Y-141476262D01*
X205770330Y-141375887D01*
X205770323Y-141375886D01*
X205387287Y-141315219D01*
X205000001Y-141294922D01*
X204999999Y-141294922D01*
X204612712Y-141315219D01*
X204229676Y-141375886D01*
X204229669Y-141375887D01*
X203855063Y-141476262D01*
X203493005Y-141615244D01*
X203147456Y-141791310D01*
X202822206Y-142002531D01*
X202564649Y-142211095D01*
X202564649Y-142211096D01*
X204059301Y-143705748D01*
X203957670Y-143779588D01*
X203779588Y-143957670D01*
X203705748Y-144059301D01*
X202211096Y-142564649D01*
X202211095Y-142564649D01*
X202002531Y-142822206D01*
X201791310Y-143147456D01*
X201615244Y-143493005D01*
X201476262Y-143855063D01*
X201375887Y-144229669D01*
X201375886Y-144229676D01*
X201315219Y-144612712D01*
X201294922Y-144999999D01*
X179681858Y-144999999D01*
X179627179Y-144831716D01*
X179532533Y-144667784D01*
X179405871Y-144527112D01*
X179405870Y-144527111D01*
X179252734Y-144415851D01*
X179252729Y-144415848D01*
X179079807Y-144338857D01*
X179079802Y-144338855D01*
X178934001Y-144307865D01*
X178894646Y-144299500D01*
X178705354Y-144299500D01*
X178672897Y-144306398D01*
X178520197Y-144338855D01*
X178520192Y-144338857D01*
X178347270Y-144415848D01*
X178347265Y-144415851D01*
X178194129Y-144527111D01*
X178067466Y-144667785D01*
X177972821Y-144831715D01*
X177972818Y-144831722D01*
X177917933Y-145000642D01*
X177914326Y-145011744D01*
X177894540Y-145200000D01*
X168705460Y-145200000D01*
X168685674Y-145011744D01*
X168627179Y-144831716D01*
X168532533Y-144667784D01*
X168405871Y-144527112D01*
X168405870Y-144527111D01*
X168252734Y-144415851D01*
X168252729Y-144415848D01*
X168079807Y-144338857D01*
X168079802Y-144338855D01*
X167934001Y-144307865D01*
X167894646Y-144299500D01*
X167705354Y-144299500D01*
X167672897Y-144306398D01*
X167520197Y-144338855D01*
X167520192Y-144338857D01*
X167347270Y-144415848D01*
X167347265Y-144415851D01*
X167194129Y-144527111D01*
X167067466Y-144667785D01*
X166972821Y-144831715D01*
X166972818Y-144831722D01*
X166917933Y-145000642D01*
X166914326Y-145011744D01*
X166894540Y-145200000D01*
X148694596Y-145200000D01*
X148705078Y-145000000D01*
X148705078Y-144999999D01*
X148684780Y-144612712D01*
X148624113Y-144229676D01*
X148624112Y-144229669D01*
X148523737Y-143855063D01*
X148384755Y-143493005D01*
X148208689Y-143147456D01*
X147997476Y-142822216D01*
X147997475Y-142822214D01*
X147788902Y-142564650D01*
X146294251Y-144059301D01*
X146220412Y-143957670D01*
X146042330Y-143779588D01*
X145940698Y-143705748D01*
X147435349Y-142211096D01*
X147298153Y-142099997D01*
X163469196Y-142099997D01*
X163469196Y-142100002D01*
X163490279Y-142233121D01*
X163490280Y-142233124D01*
X163490281Y-142233126D01*
X163551472Y-142353220D01*
X163551473Y-142353221D01*
X163551476Y-142353225D01*
X163646774Y-142448523D01*
X163646778Y-142448526D01*
X163646780Y-142448528D01*
X163766874Y-142509719D01*
X163766876Y-142509719D01*
X163766878Y-142509720D01*
X163899998Y-142530804D01*
X163900000Y-142530804D01*
X163900002Y-142530804D01*
X164033121Y-142509720D01*
X164033121Y-142509719D01*
X164033126Y-142509719D01*
X164153220Y-142448528D01*
X164248528Y-142353220D01*
X164309719Y-142233126D01*
X164313208Y-142211096D01*
X164330804Y-142100002D01*
X164330804Y-142099997D01*
X164309720Y-141966878D01*
X164309719Y-141966876D01*
X164309719Y-141966874D01*
X164248528Y-141846780D01*
X164248526Y-141846778D01*
X164248523Y-141846774D01*
X164153225Y-141751476D01*
X164153221Y-141751473D01*
X164153220Y-141751472D01*
X164033126Y-141690281D01*
X164033124Y-141690280D01*
X164033121Y-141690279D01*
X163900002Y-141669196D01*
X163899998Y-141669196D01*
X163766878Y-141690279D01*
X163646778Y-141751473D01*
X163646774Y-141751476D01*
X163551476Y-141846774D01*
X163551473Y-141846778D01*
X163490279Y-141966878D01*
X163469196Y-142099997D01*
X147298153Y-142099997D01*
X147177785Y-142002525D01*
X147177783Y-142002523D01*
X146852543Y-141791310D01*
X146506994Y-141615244D01*
X146144936Y-141476262D01*
X145770330Y-141375887D01*
X145770323Y-141375886D01*
X145387287Y-141315219D01*
X145000001Y-141294922D01*
X144999999Y-141294922D01*
X144612712Y-141315219D01*
X144229676Y-141375886D01*
X144229669Y-141375887D01*
X143855063Y-141476262D01*
X143493005Y-141615244D01*
X143147456Y-141791310D01*
X142822206Y-142002531D01*
X142564649Y-142211095D01*
X142564649Y-142211096D01*
X144059301Y-143705748D01*
X143957670Y-143779588D01*
X143779588Y-143957670D01*
X143705748Y-144059301D01*
X142211096Y-142564649D01*
X142211095Y-142564649D01*
X142002531Y-142822206D01*
X141791310Y-143147456D01*
X141615244Y-143493005D01*
X141476262Y-143855063D01*
X141375887Y-144229669D01*
X141375886Y-144229676D01*
X141315219Y-144612712D01*
X141294922Y-144999999D01*
X140000004Y-144999999D01*
X140000000Y-144999289D01*
X140000000Y-140599997D01*
X163569196Y-140599997D01*
X163569196Y-140600002D01*
X163590279Y-140733121D01*
X163590280Y-140733124D01*
X163590281Y-140733126D01*
X163651472Y-140853220D01*
X163651473Y-140853221D01*
X163651476Y-140853225D01*
X163746774Y-140948523D01*
X163746778Y-140948526D01*
X163746780Y-140948528D01*
X163866874Y-141009719D01*
X163866876Y-141009719D01*
X163866878Y-141009720D01*
X163999998Y-141030804D01*
X164000000Y-141030804D01*
X164000002Y-141030804D01*
X164133121Y-141009720D01*
X164133121Y-141009719D01*
X164133126Y-141009719D01*
X164253220Y-140948528D01*
X164348528Y-140853220D01*
X164409719Y-140733126D01*
X164430804Y-140600000D01*
X164409719Y-140466874D01*
X164348528Y-140346780D01*
X164348526Y-140346778D01*
X164348523Y-140346774D01*
X164253225Y-140251476D01*
X164253221Y-140251473D01*
X164253220Y-140251472D01*
X164133126Y-140190281D01*
X164133124Y-140190280D01*
X164133121Y-140190279D01*
X164000002Y-140169196D01*
X163999998Y-140169196D01*
X163866878Y-140190279D01*
X163746778Y-140251473D01*
X163746774Y-140251476D01*
X163651476Y-140346774D01*
X163651473Y-140346778D01*
X163590279Y-140466878D01*
X163569196Y-140599997D01*
X140000000Y-140599997D01*
X140000000Y-136349999D01*
X141495197Y-136349999D01*
X141495197Y-136350000D01*
X141514397Y-136716353D01*
X141571784Y-137078684D01*
X141571784Y-137078686D01*
X141666736Y-137433051D01*
X141798204Y-137775535D01*
X141964754Y-138102406D01*
X142164553Y-138410070D01*
X142353297Y-138643148D01*
X143241777Y-137754668D01*
X143304731Y-137836711D01*
X143513289Y-138045269D01*
X143595330Y-138108221D01*
X142706850Y-138996701D01*
X142939929Y-139185446D01*
X143247593Y-139385245D01*
X143574464Y-139551795D01*
X143916948Y-139683263D01*
X144271314Y-139778215D01*
X144633646Y-139835602D01*
X144999999Y-139854803D01*
X145000001Y-139854803D01*
X145366353Y-139835602D01*
X145728684Y-139778215D01*
X145728686Y-139778215D01*
X146083051Y-139683263D01*
X146425535Y-139551795D01*
X146752406Y-139385245D01*
X147060064Y-139185450D01*
X147293148Y-138996701D01*
X146404669Y-138108222D01*
X146486711Y-138045269D01*
X146695269Y-137836711D01*
X146758222Y-137754669D01*
X147646701Y-138643148D01*
X147835450Y-138410064D01*
X148035245Y-138102406D01*
X148201795Y-137775535D01*
X148281236Y-137568586D01*
X199546556Y-137568586D01*
X199546556Y-138075525D01*
X199586924Y-138278468D01*
X199586926Y-138278476D01*
X199666114Y-138469652D01*
X199781080Y-138641713D01*
X199927398Y-138788031D01*
X199927401Y-138788033D01*
X200099458Y-138902997D01*
X200290636Y-138982186D01*
X200479243Y-139019702D01*
X200493586Y-139022555D01*
X200493590Y-139022556D01*
X200493591Y-139022556D01*
X200700522Y-139022556D01*
X200700523Y-139022555D01*
X200903476Y-138982186D01*
X201094654Y-138902997D01*
X201266711Y-138788033D01*
X201413033Y-138641711D01*
X201527997Y-138469654D01*
X201607186Y-138278476D01*
X201647556Y-138075521D01*
X201647556Y-137568591D01*
X201607186Y-137365636D01*
X201527997Y-137174458D01*
X201423313Y-137017786D01*
X202046556Y-137017786D01*
X202046556Y-138626325D01*
X202049409Y-138656755D01*
X202049409Y-138656757D01*
X202094262Y-138784936D01*
X202094263Y-138784938D01*
X202174906Y-138894206D01*
X202284174Y-138974849D01*
X202305145Y-138982187D01*
X202412355Y-139019702D01*
X202442786Y-139022556D01*
X202442790Y-139022556D01*
X203751326Y-139022556D01*
X203781755Y-139019702D01*
X203781757Y-139019702D01*
X203847488Y-138996701D01*
X203909938Y-138974849D01*
X204019206Y-138894206D01*
X204099849Y-138784938D01*
X204122275Y-138720846D01*
X204144702Y-138656757D01*
X204144702Y-138656755D01*
X204147556Y-138626325D01*
X204147556Y-137017786D01*
X204144702Y-136987356D01*
X204144702Y-136987354D01*
X204099849Y-136859175D01*
X204099848Y-136859173D01*
X204019206Y-136749906D01*
X203909938Y-136669263D01*
X203909936Y-136669262D01*
X203781756Y-136624409D01*
X203751326Y-136621556D01*
X203751322Y-136621556D01*
X202442790Y-136621556D01*
X202442786Y-136621556D01*
X202412356Y-136624409D01*
X202412354Y-136624409D01*
X202284175Y-136669262D01*
X202284173Y-136669263D01*
X202174906Y-136749906D01*
X202094263Y-136859173D01*
X202094262Y-136859175D01*
X202049409Y-136987354D01*
X202049409Y-136987356D01*
X202046556Y-137017786D01*
X201423313Y-137017786D01*
X201413033Y-137002401D01*
X201413031Y-137002398D01*
X201266713Y-136856080D01*
X201112772Y-136753221D01*
X201094654Y-136741115D01*
X200903476Y-136661926D01*
X200903468Y-136661924D01*
X200700525Y-136621556D01*
X200700521Y-136621556D01*
X200493591Y-136621556D01*
X200493586Y-136621556D01*
X200290643Y-136661924D01*
X200290635Y-136661926D01*
X200099459Y-136741114D01*
X199927398Y-136856080D01*
X199781080Y-137002398D01*
X199666114Y-137174459D01*
X199586926Y-137365635D01*
X199586924Y-137365643D01*
X199546556Y-137568586D01*
X148281236Y-137568586D01*
X148333263Y-137433051D01*
X148428215Y-137078686D01*
X148428215Y-137078684D01*
X148485602Y-136716353D01*
X148496941Y-136499997D01*
X157969196Y-136499997D01*
X157969196Y-136500002D01*
X157990279Y-136633121D01*
X157990280Y-136633124D01*
X157990281Y-136633126D01*
X158051472Y-136753220D01*
X158051473Y-136753221D01*
X158051476Y-136753225D01*
X158146774Y-136848523D01*
X158146778Y-136848526D01*
X158146780Y-136848528D01*
X158266874Y-136909719D01*
X158266876Y-136909719D01*
X158266878Y-136909720D01*
X158399998Y-136930804D01*
X158400000Y-136930804D01*
X158400002Y-136930804D01*
X158533121Y-136909720D01*
X158533121Y-136909719D01*
X158533126Y-136909719D01*
X158653220Y-136848528D01*
X158748528Y-136753220D01*
X158809719Y-136633126D01*
X158809720Y-136633121D01*
X158830804Y-136500002D01*
X158830804Y-136499997D01*
X158809720Y-136366878D01*
X158809719Y-136366876D01*
X158809719Y-136366874D01*
X158748528Y-136246780D01*
X158748526Y-136246778D01*
X158748523Y-136246774D01*
X158653225Y-136151476D01*
X158653221Y-136151473D01*
X158653220Y-136151472D01*
X158533126Y-136090281D01*
X158533124Y-136090280D01*
X158533121Y-136090279D01*
X158400002Y-136069196D01*
X158399998Y-136069196D01*
X158266878Y-136090279D01*
X158146778Y-136151473D01*
X158146774Y-136151476D01*
X158051476Y-136246774D01*
X158051473Y-136246778D01*
X157990279Y-136366878D01*
X157969196Y-136499997D01*
X148496941Y-136499997D01*
X148504803Y-136350000D01*
X148504803Y-136349999D01*
X148485602Y-135983646D01*
X148440677Y-135699997D01*
X159369196Y-135699997D01*
X159369196Y-135700002D01*
X159390279Y-135833121D01*
X159390280Y-135833124D01*
X159390281Y-135833126D01*
X159429504Y-135910105D01*
X159451473Y-135953221D01*
X159451476Y-135953225D01*
X159546774Y-136048523D01*
X159546778Y-136048526D01*
X159546780Y-136048528D01*
X159666874Y-136109719D01*
X159666876Y-136109719D01*
X159666878Y-136109720D01*
X159799998Y-136130804D01*
X159800000Y-136130804D01*
X159800002Y-136130804D01*
X159933121Y-136109720D01*
X159933121Y-136109719D01*
X159933126Y-136109719D01*
X160053220Y-136048528D01*
X160148528Y-135953220D01*
X160209719Y-135833126D01*
X160222170Y-135754516D01*
X160230804Y-135700002D01*
X160230804Y-135699997D01*
X160209720Y-135566878D01*
X160209719Y-135566876D01*
X160209719Y-135566874D01*
X160148528Y-135446780D01*
X160148526Y-135446778D01*
X160148523Y-135446774D01*
X160053225Y-135351476D01*
X160053221Y-135351473D01*
X160053220Y-135351472D01*
X159933126Y-135290281D01*
X159933124Y-135290280D01*
X159933121Y-135290279D01*
X159800002Y-135269196D01*
X159799998Y-135269196D01*
X159666878Y-135290279D01*
X159546778Y-135351473D01*
X159546774Y-135351476D01*
X159451476Y-135446774D01*
X159451473Y-135446778D01*
X159390279Y-135566878D01*
X159369196Y-135699997D01*
X148440677Y-135699997D01*
X148428215Y-135621315D01*
X148428215Y-135621313D01*
X148333263Y-135266948D01*
X148201795Y-134924464D01*
X148138375Y-134799997D01*
X157169196Y-134799997D01*
X157169196Y-134800002D01*
X157190279Y-134933121D01*
X157190280Y-134933124D01*
X157190281Y-134933126D01*
X157251472Y-135053220D01*
X157251473Y-135053221D01*
X157251476Y-135053225D01*
X157346774Y-135148523D01*
X157346778Y-135148526D01*
X157346780Y-135148528D01*
X157466874Y-135209719D01*
X157466876Y-135209719D01*
X157466878Y-135209720D01*
X157599998Y-135230804D01*
X157600000Y-135230804D01*
X157600002Y-135230804D01*
X157733121Y-135209720D01*
X157733121Y-135209719D01*
X157733126Y-135209719D01*
X157853220Y-135148528D01*
X157948528Y-135053220D01*
X158009719Y-134933126D01*
X158030804Y-134800000D01*
X158009719Y-134666874D01*
X157948528Y-134546780D01*
X157948526Y-134546778D01*
X157948523Y-134546774D01*
X157853225Y-134451476D01*
X157853221Y-134451473D01*
X157853220Y-134451472D01*
X157733126Y-134390281D01*
X157733124Y-134390280D01*
X157733121Y-134390279D01*
X157600002Y-134369196D01*
X157599998Y-134369196D01*
X157466878Y-134390279D01*
X157346778Y-134451473D01*
X157346774Y-134451476D01*
X157251476Y-134546774D01*
X157251473Y-134546778D01*
X157190279Y-134666878D01*
X157169196Y-134799997D01*
X148138375Y-134799997D01*
X148035245Y-134597594D01*
X147835446Y-134289929D01*
X147736231Y-134167410D01*
X168749500Y-134167410D01*
X168749500Y-136232588D01*
X168764988Y-136389853D01*
X168826202Y-136591649D01*
X168925600Y-136777610D01*
X168925605Y-136777616D01*
X169059378Y-136940621D01*
X169222383Y-137074394D01*
X169222389Y-137074399D01*
X169408350Y-137173797D01*
X169408352Y-137173797D01*
X169408355Y-137173799D01*
X169610145Y-137235011D01*
X169610144Y-137235011D01*
X169621255Y-137236105D01*
X169767407Y-137250500D01*
X171832592Y-137250499D01*
X171989855Y-137235011D01*
X172191645Y-137173799D01*
X172261204Y-137136619D01*
X172377610Y-137074399D01*
X172377612Y-137074396D01*
X172377616Y-137074395D01*
X172540621Y-136940621D01*
X172674395Y-136777616D01*
X172674396Y-136777612D01*
X172674399Y-136777610D01*
X172773797Y-136591649D01*
X172773797Y-136591648D01*
X172773799Y-136591645D01*
X172835011Y-136389855D01*
X172850500Y-136232593D01*
X172850499Y-135200000D01*
X173744709Y-135200000D01*
X173763851Y-135479862D01*
X173763852Y-135479864D01*
X173820921Y-135754499D01*
X173820926Y-135754516D01*
X173914863Y-136018828D01*
X173914864Y-136018830D01*
X174043919Y-136267896D01*
X174205688Y-136497069D01*
X174205692Y-136497073D01*
X174205692Y-136497074D01*
X174332751Y-136633121D01*
X174397155Y-136702081D01*
X174614754Y-136879111D01*
X174614756Y-136879112D01*
X174614757Y-136879113D01*
X174854433Y-137024863D01*
X174978347Y-137078686D01*
X175111725Y-137136620D01*
X175381839Y-137212303D01*
X175626159Y-137245884D01*
X175659741Y-137250500D01*
X175659742Y-137250500D01*
X175940259Y-137250500D01*
X175970219Y-137246381D01*
X176218161Y-137212303D01*
X176488275Y-137136620D01*
X176745568Y-137024862D01*
X176985246Y-136879111D01*
X177202845Y-136702081D01*
X177394312Y-136497069D01*
X177556081Y-136267896D01*
X177685136Y-136018830D01*
X177779075Y-135754511D01*
X177779076Y-135754504D01*
X177779078Y-135754499D01*
X177818066Y-135566878D01*
X177836148Y-135479862D01*
X177855291Y-135200000D01*
X177836148Y-134920138D01*
X177783520Y-134666878D01*
X177779078Y-134645500D01*
X177779073Y-134645483D01*
X177710123Y-134451476D01*
X177685136Y-134381170D01*
X177556081Y-134132104D01*
X177394312Y-133902931D01*
X177394307Y-133902925D01*
X177298179Y-133799997D01*
X189269196Y-133799997D01*
X189269196Y-133800002D01*
X189290279Y-133933121D01*
X189290280Y-133933124D01*
X189290281Y-133933126D01*
X189329525Y-134010146D01*
X189351473Y-134053221D01*
X189351476Y-134053225D01*
X189446774Y-134148523D01*
X189446778Y-134148526D01*
X189446780Y-134148528D01*
X189566874Y-134209719D01*
X189566876Y-134209719D01*
X189566878Y-134209720D01*
X189699998Y-134230804D01*
X189700000Y-134230804D01*
X189700002Y-134230804D01*
X189833121Y-134209720D01*
X189833121Y-134209719D01*
X189833126Y-134209719D01*
X189953220Y-134148528D01*
X190048528Y-134053220D01*
X190109719Y-133933126D01*
X190109720Y-133933121D01*
X190130804Y-133800002D01*
X190130804Y-133799997D01*
X190109720Y-133666878D01*
X190109719Y-133666876D01*
X190109719Y-133666874D01*
X190048528Y-133546780D01*
X190048526Y-133546778D01*
X190048523Y-133546774D01*
X189953225Y-133451476D01*
X189953221Y-133451473D01*
X189953220Y-133451472D01*
X189833126Y-133390281D01*
X189833124Y-133390280D01*
X189833121Y-133390279D01*
X189700002Y-133369196D01*
X189699998Y-133369196D01*
X189566878Y-133390279D01*
X189446778Y-133451473D01*
X189446774Y-133451476D01*
X189351476Y-133546774D01*
X189351473Y-133546778D01*
X189290279Y-133666878D01*
X189269196Y-133799997D01*
X177298179Y-133799997D01*
X177202845Y-133697919D01*
X176985246Y-133520889D01*
X176985244Y-133520888D01*
X176985242Y-133520886D01*
X176745566Y-133375136D01*
X176488276Y-133263380D01*
X176218166Y-133187698D01*
X176218162Y-133187697D01*
X176218161Y-133187697D01*
X176052941Y-133164988D01*
X175940259Y-133149500D01*
X175940258Y-133149500D01*
X175659742Y-133149500D01*
X175659741Y-133149500D01*
X175381839Y-133187697D01*
X175381833Y-133187698D01*
X175111723Y-133263380D01*
X174854433Y-133375136D01*
X174614757Y-133520886D01*
X174397154Y-133697919D01*
X174205692Y-133902925D01*
X174205692Y-133902926D01*
X174205689Y-133902928D01*
X174205688Y-133902931D01*
X174184374Y-133933126D01*
X174043919Y-134132103D01*
X173914863Y-134381171D01*
X173820926Y-134645483D01*
X173820921Y-134645500D01*
X173763852Y-134920135D01*
X173763851Y-134920137D01*
X173744709Y-135200000D01*
X172850499Y-135200000D01*
X172850499Y-134167408D01*
X172835011Y-134010145D01*
X172773799Y-133808355D01*
X172773797Y-133808352D01*
X172773797Y-133808350D01*
X172674399Y-133622389D01*
X172674394Y-133622383D01*
X172540621Y-133459378D01*
X172377616Y-133325605D01*
X172377610Y-133325600D01*
X172191649Y-133226202D01*
X172064717Y-133187698D01*
X171989855Y-133164989D01*
X171989853Y-133164988D01*
X171989855Y-133164988D01*
X171877035Y-133153877D01*
X171832593Y-133149500D01*
X171832589Y-133149500D01*
X169767411Y-133149500D01*
X169610146Y-133164988D01*
X169408350Y-133226202D01*
X169222389Y-133325600D01*
X169222383Y-133325605D01*
X169059378Y-133459378D01*
X168925605Y-133622383D01*
X168925600Y-133622389D01*
X168826202Y-133808350D01*
X168764988Y-134010146D01*
X168756139Y-134100000D01*
X168751360Y-134148528D01*
X168749500Y-134167410D01*
X147736231Y-134167410D01*
X147646701Y-134056850D01*
X146758221Y-134945329D01*
X146695269Y-134863289D01*
X146486711Y-134654731D01*
X146404668Y-134591776D01*
X147293148Y-133703297D01*
X147060070Y-133514553D01*
X146752406Y-133314754D01*
X146425535Y-133148204D01*
X146083051Y-133016736D01*
X145728685Y-132921784D01*
X145366353Y-132864397D01*
X145000001Y-132845197D01*
X144999999Y-132845197D01*
X144633646Y-132864397D01*
X144271315Y-132921784D01*
X144271313Y-132921784D01*
X143916948Y-133016736D01*
X143574464Y-133148204D01*
X143247594Y-133314754D01*
X142939924Y-133514557D01*
X142706850Y-133703295D01*
X142706849Y-133703296D01*
X143595330Y-134591777D01*
X143513289Y-134654731D01*
X143304731Y-134863289D01*
X143241777Y-134945330D01*
X142353296Y-134056849D01*
X142353295Y-134056850D01*
X142164557Y-134289924D01*
X141964754Y-134597594D01*
X141798204Y-134924464D01*
X141666736Y-135266948D01*
X141571784Y-135621313D01*
X141571784Y-135621315D01*
X141514397Y-135983646D01*
X141495197Y-136349999D01*
X140000000Y-136349999D01*
X140000000Y-127545576D01*
X141799500Y-127545576D01*
X141799500Y-130754423D01*
X141800653Y-130778468D01*
X141802313Y-130813104D01*
X141829573Y-130969652D01*
X141847107Y-131070343D01*
X141847107Y-131070344D01*
X141871206Y-131141711D01*
X141930643Y-131317730D01*
X142035450Y-131519587D01*
X142050966Y-131549470D01*
X142205244Y-131760113D01*
X142205248Y-131760118D01*
X142389881Y-131944751D01*
X142389886Y-131944755D01*
X142600529Y-132099033D01*
X142600532Y-132099034D01*
X142600534Y-132099036D01*
X142832270Y-132219357D01*
X143079657Y-132302893D01*
X143336896Y-132347687D01*
X143395590Y-132350500D01*
X143395607Y-132350500D01*
X146604393Y-132350500D01*
X146604410Y-132350500D01*
X146663104Y-132347687D01*
X146920343Y-132302893D01*
X147167730Y-132219357D01*
X147399466Y-132099036D01*
X147610119Y-131944751D01*
X147794751Y-131760119D01*
X147949036Y-131549466D01*
X147974720Y-131499999D01*
X179469965Y-131499999D01*
X179469965Y-131500000D01*
X179488026Y-131637181D01*
X179488027Y-131637186D01*
X179540974Y-131765015D01*
X179540975Y-131765017D01*
X179540976Y-131765018D01*
X179625209Y-131874791D01*
X179734982Y-131959024D01*
X179862817Y-132011974D01*
X179985702Y-132028152D01*
X179999999Y-132030035D01*
X180000000Y-132030035D01*
X180000001Y-132030035D01*
X180012947Y-132028330D01*
X180137183Y-132011974D01*
X180265018Y-131959024D01*
X180374791Y-131874791D01*
X180459024Y-131765018D01*
X180511974Y-131637183D01*
X180530035Y-131500000D01*
X180511974Y-131362817D01*
X180459024Y-131234983D01*
X180374791Y-131125209D01*
X180374789Y-131125208D01*
X180374789Y-131125207D01*
X180265015Y-131040974D01*
X180137186Y-130988027D01*
X180137184Y-130988026D01*
X180137183Y-130988026D01*
X180045727Y-130975985D01*
X180000001Y-130969965D01*
X179999999Y-130969965D01*
X179931408Y-130978995D01*
X179862817Y-130988026D01*
X179862816Y-130988026D01*
X179862813Y-130988027D01*
X179734985Y-131040974D01*
X179625209Y-131125209D01*
X179540974Y-131234985D01*
X179488027Y-131362813D01*
X179488026Y-131362816D01*
X179488026Y-131362817D01*
X179482736Y-131402997D01*
X179469965Y-131499999D01*
X147974720Y-131499999D01*
X148069357Y-131317730D01*
X148152893Y-131070343D01*
X148197687Y-130813104D01*
X148200500Y-130754410D01*
X148200500Y-129697053D01*
X193466252Y-129697053D01*
X193466252Y-129697058D01*
X193487335Y-129830177D01*
X193487336Y-129830180D01*
X193487337Y-129830182D01*
X193548528Y-129950276D01*
X193548529Y-129950277D01*
X193548532Y-129950281D01*
X193643830Y-130045579D01*
X193643834Y-130045582D01*
X193643836Y-130045584D01*
X193763930Y-130106775D01*
X193763932Y-130106775D01*
X193763934Y-130106776D01*
X193897054Y-130127860D01*
X193897056Y-130127860D01*
X193897058Y-130127860D01*
X194030177Y-130106776D01*
X194030177Y-130106775D01*
X194030182Y-130106775D01*
X194105132Y-130068586D01*
X199546556Y-130068586D01*
X199546556Y-130575525D01*
X199586924Y-130778468D01*
X199586926Y-130778476D01*
X199666115Y-130969654D01*
X199713769Y-131040974D01*
X199781080Y-131141713D01*
X199927398Y-131288031D01*
X199927401Y-131288033D01*
X200099458Y-131402997D01*
X200290636Y-131482186D01*
X200479243Y-131519702D01*
X200493586Y-131522555D01*
X200493590Y-131522556D01*
X200493591Y-131522556D01*
X200700522Y-131522556D01*
X200700523Y-131522555D01*
X200903476Y-131482186D01*
X201094654Y-131402997D01*
X201266711Y-131288033D01*
X201413033Y-131141711D01*
X201527997Y-130969654D01*
X201607186Y-130778476D01*
X201647556Y-130575521D01*
X201647556Y-130068591D01*
X201607186Y-129865636D01*
X201527997Y-129674458D01*
X201423313Y-129517786D01*
X202046556Y-129517786D01*
X202046556Y-131126325D01*
X202049409Y-131156755D01*
X202049409Y-131156757D01*
X202094262Y-131284936D01*
X202094263Y-131284938D01*
X202174906Y-131394206D01*
X202284174Y-131474849D01*
X202305145Y-131482187D01*
X202412355Y-131519702D01*
X202442786Y-131522556D01*
X202442790Y-131522556D01*
X203751326Y-131522556D01*
X203781755Y-131519702D01*
X203781757Y-131519702D01*
X203845846Y-131497275D01*
X203909938Y-131474849D01*
X204019206Y-131394206D01*
X204099849Y-131284938D01*
X204122275Y-131220846D01*
X204144702Y-131156757D01*
X204144702Y-131156755D01*
X204147556Y-131126325D01*
X204147556Y-129517786D01*
X204144702Y-129487356D01*
X204144702Y-129487354D01*
X204099849Y-129359175D01*
X204099848Y-129359173D01*
X204098748Y-129357682D01*
X204019206Y-129249906D01*
X203909938Y-129169263D01*
X203909936Y-129169262D01*
X203781756Y-129124409D01*
X203751326Y-129121556D01*
X203751322Y-129121556D01*
X202442790Y-129121556D01*
X202442786Y-129121556D01*
X202412356Y-129124409D01*
X202412354Y-129124409D01*
X202284175Y-129169262D01*
X202284173Y-129169263D01*
X202174906Y-129249906D01*
X202094263Y-129359173D01*
X202094262Y-129359175D01*
X202049409Y-129487354D01*
X202049409Y-129487356D01*
X202046556Y-129517786D01*
X201423313Y-129517786D01*
X201413033Y-129502401D01*
X201413031Y-129502398D01*
X201266713Y-129356080D01*
X201132274Y-129266252D01*
X201094654Y-129241115D01*
X201059153Y-129226410D01*
X200903476Y-129161926D01*
X200903468Y-129161924D01*
X200700525Y-129121556D01*
X200700521Y-129121556D01*
X200493591Y-129121556D01*
X200493586Y-129121556D01*
X200290643Y-129161924D01*
X200290635Y-129161926D01*
X200099459Y-129241114D01*
X199927398Y-129356080D01*
X199781080Y-129502398D01*
X199666114Y-129674459D01*
X199586926Y-129865635D01*
X199586924Y-129865643D01*
X199546556Y-130068586D01*
X194105132Y-130068586D01*
X194150276Y-130045584D01*
X194245584Y-129950276D01*
X194306775Y-129830182D01*
X194327860Y-129697056D01*
X194306775Y-129563930D01*
X194245584Y-129443836D01*
X194245582Y-129443834D01*
X194245579Y-129443830D01*
X194150281Y-129348532D01*
X194150277Y-129348529D01*
X194150276Y-129348528D01*
X194030182Y-129287337D01*
X194030180Y-129287336D01*
X194030177Y-129287335D01*
X193897058Y-129266252D01*
X193897054Y-129266252D01*
X193763934Y-129287335D01*
X193643834Y-129348529D01*
X193643830Y-129348532D01*
X193548532Y-129443830D01*
X193548529Y-129443834D01*
X193487335Y-129563934D01*
X193466252Y-129697053D01*
X148200500Y-129697053D01*
X148200500Y-127545590D01*
X148197687Y-127486896D01*
X148152893Y-127229657D01*
X148069357Y-126982270D01*
X147949036Y-126750534D01*
X147949034Y-126750532D01*
X147949033Y-126750529D01*
X147794755Y-126539886D01*
X147794751Y-126539881D01*
X147610118Y-126355248D01*
X147610113Y-126355244D01*
X147399470Y-126200966D01*
X147369587Y-126185450D01*
X147167730Y-126080643D01*
X146920343Y-125997107D01*
X146663104Y-125952313D01*
X146652098Y-125951785D01*
X146604423Y-125949500D01*
X146604410Y-125949500D01*
X143395590Y-125949500D01*
X143395576Y-125949500D01*
X143344232Y-125951961D01*
X143336896Y-125952313D01*
X143165403Y-125982175D01*
X143079656Y-125997107D01*
X143079655Y-125997107D01*
X142832270Y-126080643D01*
X142600529Y-126200966D01*
X142389886Y-126355244D01*
X142389881Y-126355248D01*
X142205248Y-126539881D01*
X142205244Y-126539886D01*
X142050966Y-126750529D01*
X141930643Y-126982270D01*
X141847107Y-127229655D01*
X141847107Y-127229656D01*
X141802313Y-127486898D01*
X141799500Y-127545576D01*
X140000000Y-127545576D01*
X140000000Y-125689999D01*
X162769364Y-125689999D01*
X162769364Y-125690000D01*
X163666988Y-125690000D01*
X163634075Y-125747007D01*
X163600000Y-125874174D01*
X163600000Y-126005826D01*
X163634075Y-126132993D01*
X163666988Y-126190000D01*
X162769364Y-126190000D01*
X162826567Y-126403486D01*
X162826570Y-126403492D01*
X162926399Y-126617578D01*
X163061894Y-126811082D01*
X163228917Y-126978105D01*
X163422421Y-127113600D01*
X163636507Y-127213429D01*
X163636516Y-127213433D01*
X163758649Y-127246158D01*
X163818310Y-127282523D01*
X163848839Y-127345369D01*
X163840545Y-127414745D01*
X163796059Y-127468623D01*
X163762552Y-127484593D01*
X163696046Y-127504767D01*
X163565358Y-127574622D01*
X163513550Y-127602315D01*
X163513548Y-127602316D01*
X163513547Y-127602317D01*
X163353589Y-127733589D01*
X163259263Y-127848528D01*
X163222315Y-127893550D01*
X163213672Y-127909720D01*
X163124769Y-128076043D01*
X163064699Y-128274067D01*
X163044417Y-128480000D01*
X163064699Y-128685932D01*
X163064700Y-128685934D01*
X163124768Y-128883954D01*
X163222315Y-129066450D01*
X163222317Y-129066452D01*
X163353589Y-129226410D01*
X163427828Y-129287335D01*
X163513550Y-129357685D01*
X163696046Y-129455232D01*
X163894066Y-129515300D01*
X163894065Y-129515300D01*
X163912529Y-129517118D01*
X164100000Y-129535583D01*
X164305934Y-129515300D01*
X164503954Y-129455232D01*
X164686450Y-129357685D01*
X164846410Y-129226410D01*
X164977685Y-129066450D01*
X165075232Y-128883954D01*
X165135300Y-128685934D01*
X165155583Y-128480000D01*
X165135300Y-128274066D01*
X165075232Y-128076046D01*
X164977685Y-127893550D01*
X164925702Y-127830209D01*
X164846410Y-127733589D01*
X164728677Y-127636969D01*
X164686450Y-127602315D01*
X164503954Y-127504768D01*
X164488226Y-127499997D01*
X188769196Y-127499997D01*
X188769196Y-127500002D01*
X188790279Y-127633121D01*
X188790280Y-127633124D01*
X188790281Y-127633126D01*
X188851472Y-127753220D01*
X188851473Y-127753221D01*
X188851476Y-127753225D01*
X188946774Y-127848523D01*
X188946778Y-127848526D01*
X188946780Y-127848528D01*
X189066874Y-127909719D01*
X189066876Y-127909719D01*
X189066878Y-127909720D01*
X189199998Y-127930804D01*
X189200000Y-127930804D01*
X189200002Y-127930804D01*
X189333121Y-127909720D01*
X189333121Y-127909719D01*
X189333126Y-127909719D01*
X189453220Y-127848528D01*
X189548528Y-127753220D01*
X189609719Y-127633126D01*
X189623581Y-127545606D01*
X189630804Y-127500002D01*
X189630804Y-127499997D01*
X189609720Y-127366878D01*
X189609719Y-127366876D01*
X189609719Y-127366874D01*
X189548528Y-127246780D01*
X189548526Y-127246778D01*
X189548523Y-127246774D01*
X189453225Y-127151476D01*
X189453221Y-127151473D01*
X189453220Y-127151472D01*
X189333126Y-127090281D01*
X189333124Y-127090280D01*
X189333121Y-127090279D01*
X189200002Y-127069196D01*
X189199998Y-127069196D01*
X189066878Y-127090279D01*
X188946778Y-127151473D01*
X188946774Y-127151476D01*
X188851476Y-127246774D01*
X188851473Y-127246778D01*
X188790279Y-127366878D01*
X188769196Y-127499997D01*
X164488226Y-127499997D01*
X164437447Y-127484593D01*
X164379009Y-127446296D01*
X164350553Y-127382484D01*
X164361113Y-127313417D01*
X164407337Y-127261023D01*
X164441350Y-127246158D01*
X164563483Y-127213433D01*
X164563492Y-127213429D01*
X164777578Y-127113600D01*
X164971082Y-126978105D01*
X165049190Y-126899997D01*
X207369196Y-126899997D01*
X207369196Y-126900002D01*
X207390279Y-127033121D01*
X207390280Y-127033124D01*
X207390281Y-127033126D01*
X207451472Y-127153220D01*
X207451473Y-127153221D01*
X207451476Y-127153225D01*
X207546774Y-127248523D01*
X207546778Y-127248526D01*
X207546780Y-127248528D01*
X207666874Y-127309719D01*
X207666876Y-127309719D01*
X207666878Y-127309720D01*
X207799998Y-127330804D01*
X207800000Y-127330804D01*
X207800002Y-127330804D01*
X207933121Y-127309720D01*
X207933121Y-127309719D01*
X207933126Y-127309719D01*
X208053220Y-127248528D01*
X208148528Y-127153220D01*
X208209719Y-127033126D01*
X208217774Y-126982270D01*
X208230804Y-126900002D01*
X208230804Y-126899997D01*
X208209720Y-126766878D01*
X208209719Y-126766876D01*
X208209719Y-126766874D01*
X208148528Y-126646780D01*
X208148526Y-126646778D01*
X208148523Y-126646774D01*
X208053225Y-126551476D01*
X208053221Y-126551473D01*
X208053220Y-126551472D01*
X207933126Y-126490281D01*
X207933124Y-126490280D01*
X207933121Y-126490279D01*
X207800002Y-126469196D01*
X207799998Y-126469196D01*
X207666878Y-126490279D01*
X207546778Y-126551473D01*
X207546774Y-126551476D01*
X207451476Y-126646774D01*
X207451473Y-126646778D01*
X207390279Y-126766878D01*
X207369196Y-126899997D01*
X165049190Y-126899997D01*
X165138105Y-126811082D01*
X165273600Y-126617578D01*
X165373429Y-126403492D01*
X165373432Y-126403486D01*
X165430636Y-126190000D01*
X164533012Y-126190000D01*
X164565925Y-126132993D01*
X164600000Y-126005826D01*
X164600000Y-125874174D01*
X164565925Y-125747007D01*
X164533012Y-125690000D01*
X165430636Y-125690000D01*
X165430635Y-125689999D01*
X165405730Y-125597053D01*
X194666252Y-125597053D01*
X194666252Y-125597058D01*
X194687335Y-125730177D01*
X194687336Y-125730180D01*
X194687337Y-125730182D01*
X194695910Y-125747007D01*
X194748529Y-125850277D01*
X194748532Y-125850281D01*
X194807626Y-125909375D01*
X194841111Y-125970698D01*
X194836127Y-126040390D01*
X194807626Y-126084737D01*
X194748532Y-126143830D01*
X194748529Y-126143834D01*
X194687335Y-126263934D01*
X194666252Y-126397053D01*
X194666252Y-126397058D01*
X194687335Y-126530177D01*
X194687336Y-126530180D01*
X194687337Y-126530182D01*
X194698187Y-126551476D01*
X194748529Y-126650277D01*
X194748532Y-126650281D01*
X194843830Y-126745579D01*
X194843834Y-126745582D01*
X194843836Y-126745584D01*
X194963930Y-126806775D01*
X194963932Y-126806775D01*
X194963934Y-126806776D01*
X195097054Y-126827860D01*
X195097056Y-126827860D01*
X195097058Y-126827860D01*
X195230177Y-126806776D01*
X195230177Y-126806775D01*
X195230182Y-126806775D01*
X195350276Y-126745584D01*
X195445584Y-126650276D01*
X195506775Y-126530182D01*
X195516434Y-126469196D01*
X195527860Y-126397058D01*
X195527860Y-126397053D01*
X195506776Y-126263934D01*
X195506775Y-126263932D01*
X195506775Y-126263930D01*
X195445584Y-126143836D01*
X195445582Y-126143834D01*
X195445579Y-126143830D01*
X195386486Y-126084737D01*
X195353001Y-126023414D01*
X195357985Y-125953722D01*
X195386486Y-125909375D01*
X195445579Y-125850281D01*
X195445584Y-125850276D01*
X195506775Y-125730182D01*
X195513139Y-125690000D01*
X195527860Y-125597058D01*
X195527860Y-125597053D01*
X195506776Y-125463934D01*
X195506775Y-125463932D01*
X195506775Y-125463930D01*
X195445584Y-125343836D01*
X195445582Y-125343834D01*
X195445579Y-125343830D01*
X195350281Y-125248532D01*
X195350277Y-125248529D01*
X195350276Y-125248528D01*
X195230182Y-125187337D01*
X195230180Y-125187336D01*
X195230177Y-125187335D01*
X195097058Y-125166252D01*
X195097054Y-125166252D01*
X194963934Y-125187335D01*
X194843834Y-125248529D01*
X194843830Y-125248532D01*
X194748532Y-125343830D01*
X194748529Y-125343834D01*
X194687335Y-125463934D01*
X194666252Y-125597053D01*
X165405730Y-125597053D01*
X165373432Y-125476513D01*
X165373429Y-125476507D01*
X165273600Y-125262422D01*
X165273599Y-125262420D01*
X165138113Y-125068926D01*
X165138108Y-125068920D01*
X164971082Y-124901894D01*
X164777578Y-124766399D01*
X164607052Y-124686882D01*
X164554613Y-124640710D01*
X164535461Y-124573516D01*
X164555677Y-124506635D01*
X164608842Y-124461300D01*
X164659457Y-124450500D01*
X164969750Y-124450500D01*
X164969751Y-124450499D01*
X164984568Y-124447552D01*
X165028229Y-124438868D01*
X165028229Y-124438867D01*
X165028231Y-124438867D01*
X165094552Y-124394552D01*
X165138867Y-124328231D01*
X165138867Y-124328229D01*
X165138868Y-124328229D01*
X165150499Y-124269752D01*
X165150500Y-124269750D01*
X165150500Y-123499997D01*
X168769196Y-123499997D01*
X168769196Y-123500002D01*
X168790279Y-123633121D01*
X168790280Y-123633124D01*
X168790281Y-123633126D01*
X168851240Y-123752764D01*
X168851473Y-123753221D01*
X168851476Y-123753225D01*
X168946774Y-123848523D01*
X168946778Y-123848526D01*
X168946780Y-123848528D01*
X169066874Y-123909719D01*
X169066876Y-123909719D01*
X169066878Y-123909720D01*
X169199998Y-123930804D01*
X169200000Y-123930804D01*
X169200002Y-123930804D01*
X169333121Y-123909720D01*
X169333121Y-123909719D01*
X169333126Y-123909719D01*
X169453220Y-123848528D01*
X169483424Y-123818324D01*
X169555429Y-123746320D01*
X169556429Y-123747320D01*
X169603534Y-123710994D01*
X169673147Y-123705012D01*
X169734944Y-123737614D01*
X169748071Y-123752764D01*
X169843830Y-123848523D01*
X169843834Y-123848526D01*
X169843836Y-123848528D01*
X169963930Y-123909719D01*
X169963932Y-123909719D01*
X169963934Y-123909720D01*
X170097054Y-123930804D01*
X170097056Y-123930804D01*
X170097058Y-123930804D01*
X170230177Y-123909720D01*
X170230177Y-123909719D01*
X170230182Y-123909719D01*
X170350276Y-123848528D01*
X170445584Y-123753220D01*
X170486572Y-123672775D01*
X170534545Y-123621981D01*
X170602366Y-123605186D01*
X170668501Y-123627723D01*
X170707539Y-123672774D01*
X170748296Y-123752764D01*
X170748529Y-123753221D01*
X170748532Y-123753225D01*
X170843830Y-123848523D01*
X170843834Y-123848526D01*
X170843836Y-123848528D01*
X170963930Y-123909719D01*
X170963932Y-123909719D01*
X170963934Y-123909720D01*
X171097054Y-123930804D01*
X171097056Y-123930804D01*
X171097058Y-123930804D01*
X171230177Y-123909720D01*
X171230177Y-123909719D01*
X171230182Y-123909719D01*
X171350276Y-123848528D01*
X171445584Y-123753220D01*
X171445585Y-123753216D01*
X171448205Y-123749612D01*
X171503532Y-123706942D01*
X171573145Y-123700958D01*
X171634942Y-123733560D01*
X171648851Y-123749612D01*
X171651474Y-123753223D01*
X171746774Y-123848523D01*
X171746778Y-123848526D01*
X171746780Y-123848528D01*
X171866874Y-123909719D01*
X171866876Y-123909719D01*
X171866878Y-123909720D01*
X171999998Y-123930804D01*
X172000000Y-123930804D01*
X172000002Y-123930804D01*
X172133121Y-123909720D01*
X172133121Y-123909719D01*
X172133126Y-123909719D01*
X172253220Y-123848528D01*
X172348528Y-123753220D01*
X172389516Y-123672775D01*
X172437489Y-123621981D01*
X172505310Y-123605186D01*
X172571445Y-123627723D01*
X172610483Y-123672774D01*
X172651240Y-123752764D01*
X172651473Y-123753221D01*
X172651476Y-123753225D01*
X172746774Y-123848523D01*
X172746778Y-123848526D01*
X172746780Y-123848528D01*
X172866874Y-123909719D01*
X172866876Y-123909719D01*
X172866878Y-123909720D01*
X172999998Y-123930804D01*
X173000000Y-123930804D01*
X173000002Y-123930804D01*
X173133121Y-123909720D01*
X173133121Y-123909719D01*
X173133126Y-123909719D01*
X173253220Y-123848528D01*
X173348528Y-123753220D01*
X173389516Y-123672775D01*
X173437489Y-123621981D01*
X173505310Y-123605186D01*
X173571445Y-123627723D01*
X173610483Y-123672774D01*
X173651240Y-123752764D01*
X173651473Y-123753221D01*
X173651476Y-123753225D01*
X173746774Y-123848523D01*
X173746778Y-123848526D01*
X173746780Y-123848528D01*
X173866874Y-123909719D01*
X173866876Y-123909719D01*
X173866878Y-123909720D01*
X173999998Y-123930804D01*
X174000000Y-123930804D01*
X174000002Y-123930804D01*
X174133121Y-123909720D01*
X174133121Y-123909719D01*
X174133126Y-123909719D01*
X174253220Y-123848528D01*
X174348528Y-123753220D01*
X174409719Y-123633126D01*
X174411484Y-123621981D01*
X174430804Y-123500002D01*
X174430804Y-123499997D01*
X174409720Y-123366878D01*
X174409719Y-123366876D01*
X174409719Y-123366874D01*
X174348528Y-123246780D01*
X174348526Y-123246778D01*
X174348523Y-123246774D01*
X174253225Y-123151476D01*
X174253221Y-123151473D01*
X174253220Y-123151472D01*
X174133126Y-123090281D01*
X174133124Y-123090280D01*
X174133121Y-123090279D01*
X174000002Y-123069196D01*
X173999998Y-123069196D01*
X173866878Y-123090279D01*
X173866874Y-123090280D01*
X173866874Y-123090281D01*
X173847258Y-123100276D01*
X173746778Y-123151473D01*
X173746774Y-123151476D01*
X173651476Y-123246774D01*
X173651474Y-123246778D01*
X173651472Y-123246780D01*
X173621713Y-123305186D01*
X173610485Y-123327222D01*
X173562510Y-123378018D01*
X173494689Y-123394813D01*
X173428554Y-123372275D01*
X173389515Y-123327222D01*
X173348528Y-123246780D01*
X173348524Y-123246776D01*
X173348523Y-123246774D01*
X173253225Y-123151476D01*
X173253221Y-123151473D01*
X173253220Y-123151472D01*
X173133126Y-123090281D01*
X173133124Y-123090280D01*
X173133121Y-123090279D01*
X173000002Y-123069196D01*
X172999998Y-123069196D01*
X172866878Y-123090279D01*
X172866874Y-123090280D01*
X172866874Y-123090281D01*
X172847258Y-123100276D01*
X172746778Y-123151473D01*
X172746774Y-123151476D01*
X172651476Y-123246774D01*
X172651474Y-123246778D01*
X172651472Y-123246780D01*
X172621713Y-123305186D01*
X172610485Y-123327222D01*
X172562510Y-123378018D01*
X172494689Y-123394813D01*
X172428554Y-123372275D01*
X172389515Y-123327222D01*
X172348528Y-123246780D01*
X172348524Y-123246776D01*
X172348523Y-123246774D01*
X172253225Y-123151476D01*
X172253221Y-123151473D01*
X172253220Y-123151472D01*
X172133126Y-123090281D01*
X172133124Y-123090280D01*
X172133121Y-123090279D01*
X172000002Y-123069196D01*
X171999998Y-123069196D01*
X171866878Y-123090279D01*
X171866874Y-123090280D01*
X171866874Y-123090281D01*
X171847258Y-123100276D01*
X171746778Y-123151473D01*
X171746774Y-123151476D01*
X171651472Y-123246778D01*
X171648848Y-123250391D01*
X171593519Y-123293059D01*
X171523906Y-123299040D01*
X171462110Y-123266436D01*
X171448208Y-123250391D01*
X171445583Y-123246778D01*
X171350281Y-123151476D01*
X171350277Y-123151473D01*
X171350276Y-123151472D01*
X171230182Y-123090281D01*
X171230180Y-123090280D01*
X171230177Y-123090279D01*
X171097058Y-123069196D01*
X171097054Y-123069196D01*
X170963934Y-123090279D01*
X170963930Y-123090280D01*
X170963930Y-123090281D01*
X170944314Y-123100276D01*
X170843834Y-123151473D01*
X170843830Y-123151476D01*
X170748532Y-123246774D01*
X170748530Y-123246778D01*
X170748528Y-123246780D01*
X170718769Y-123305186D01*
X170707541Y-123327222D01*
X170659566Y-123378018D01*
X170591745Y-123394813D01*
X170525610Y-123372275D01*
X170486571Y-123327222D01*
X170445584Y-123246780D01*
X170445580Y-123246776D01*
X170445579Y-123246774D01*
X170350281Y-123151476D01*
X170350277Y-123151473D01*
X170350276Y-123151472D01*
X170230182Y-123090281D01*
X170230180Y-123090280D01*
X170230177Y-123090279D01*
X170097058Y-123069196D01*
X170097054Y-123069196D01*
X169963934Y-123090279D01*
X169963930Y-123090280D01*
X169963930Y-123090281D01*
X169944314Y-123100276D01*
X169843834Y-123151473D01*
X169843830Y-123151476D01*
X169741627Y-123253680D01*
X169740626Y-123252679D01*
X169693514Y-123289008D01*
X169623901Y-123294986D01*
X169562106Y-123262379D01*
X169548983Y-123247234D01*
X169453225Y-123151476D01*
X169453221Y-123151473D01*
X169453220Y-123151472D01*
X169333126Y-123090281D01*
X169333124Y-123090280D01*
X169333121Y-123090279D01*
X169200002Y-123069196D01*
X169199998Y-123069196D01*
X169066878Y-123090279D01*
X169066874Y-123090280D01*
X169066874Y-123090281D01*
X169047258Y-123100276D01*
X168946778Y-123151473D01*
X168946774Y-123151476D01*
X168851476Y-123246774D01*
X168851473Y-123246778D01*
X168851472Y-123246780D01*
X168807477Y-123333126D01*
X168790279Y-123366878D01*
X168769196Y-123499997D01*
X165150500Y-123499997D01*
X165150500Y-122530249D01*
X165150499Y-122530247D01*
X165138868Y-122471770D01*
X165138867Y-122471769D01*
X165094552Y-122405447D01*
X165028230Y-122361132D01*
X165028229Y-122361131D01*
X164969752Y-122349500D01*
X164969748Y-122349500D01*
X163230252Y-122349500D01*
X163230247Y-122349500D01*
X163171770Y-122361131D01*
X163171769Y-122361132D01*
X163105447Y-122405447D01*
X163061132Y-122471769D01*
X163061131Y-122471770D01*
X163049500Y-122530247D01*
X163049500Y-124269752D01*
X163061131Y-124328229D01*
X163061132Y-124328230D01*
X163105447Y-124394552D01*
X163171769Y-124438867D01*
X163171770Y-124438868D01*
X163230247Y-124450499D01*
X163230250Y-124450500D01*
X163540543Y-124450500D01*
X163607582Y-124470185D01*
X163653337Y-124522989D01*
X163663281Y-124592147D01*
X163634256Y-124655703D01*
X163592948Y-124686882D01*
X163422422Y-124766399D01*
X163422420Y-124766400D01*
X163228926Y-124901886D01*
X163228920Y-124901891D01*
X163061891Y-125068920D01*
X163061886Y-125068926D01*
X162926400Y-125262420D01*
X162926399Y-125262422D01*
X162826570Y-125476507D01*
X162826567Y-125476513D01*
X162769364Y-125689999D01*
X140000000Y-125689999D01*
X140000000Y-121749997D01*
X146569196Y-121749997D01*
X146569196Y-121750002D01*
X146590279Y-121883121D01*
X146590280Y-121883124D01*
X146590281Y-121883126D01*
X146651472Y-122003220D01*
X146651473Y-122003221D01*
X146651476Y-122003225D01*
X146746774Y-122098523D01*
X146746778Y-122098526D01*
X146746780Y-122098528D01*
X146866874Y-122159719D01*
X146866876Y-122159719D01*
X146875570Y-122164149D01*
X146873892Y-122167441D01*
X146916403Y-122196517D01*
X146943594Y-122260879D01*
X146931672Y-122329724D01*
X146884422Y-122381195D01*
X146875316Y-122385353D01*
X146875570Y-122385851D01*
X146866876Y-122390280D01*
X146866874Y-122390281D01*
X146765276Y-122442048D01*
X146746778Y-122451473D01*
X146746774Y-122451476D01*
X146651476Y-122546774D01*
X146651473Y-122546778D01*
X146590279Y-122666878D01*
X146569196Y-122799997D01*
X146569196Y-122800002D01*
X146590279Y-122933121D01*
X146590280Y-122933124D01*
X146590281Y-122933126D01*
X146651472Y-123053220D01*
X146651473Y-123053221D01*
X146651476Y-123053225D01*
X146746774Y-123148523D01*
X146746783Y-123148530D01*
X146778157Y-123164516D01*
X146828953Y-123212490D01*
X146845748Y-123280311D01*
X146823210Y-123346446D01*
X146778157Y-123385484D01*
X146746783Y-123401469D01*
X146746774Y-123401476D01*
X146651476Y-123496774D01*
X146651473Y-123496778D01*
X146590279Y-123616878D01*
X146569196Y-123749997D01*
X146569196Y-123750002D01*
X146590279Y-123883121D01*
X146590280Y-123883124D01*
X146590281Y-123883126D01*
X146651472Y-124003220D01*
X146651473Y-124003221D01*
X146651476Y-124003225D01*
X146746774Y-124098523D01*
X146746778Y-124098526D01*
X146746780Y-124098528D01*
X146866874Y-124159719D01*
X146866876Y-124159719D01*
X146875570Y-124164149D01*
X146873892Y-124167441D01*
X146916403Y-124196517D01*
X146943594Y-124260879D01*
X146931672Y-124329724D01*
X146884422Y-124381195D01*
X146875316Y-124385353D01*
X146875570Y-124385851D01*
X146866876Y-124390280D01*
X146866874Y-124390281D01*
X146771519Y-124438867D01*
X146746778Y-124451473D01*
X146746774Y-124451476D01*
X146651476Y-124546774D01*
X146651473Y-124546778D01*
X146590279Y-124666878D01*
X146569196Y-124799997D01*
X146569196Y-124800002D01*
X146590279Y-124933121D01*
X146590280Y-124933124D01*
X146590281Y-124933126D01*
X146651472Y-125053220D01*
X146651473Y-125053221D01*
X146651476Y-125053225D01*
X146746774Y-125148523D01*
X146746778Y-125148526D01*
X146746780Y-125148528D01*
X146866874Y-125209719D01*
X146866876Y-125209719D01*
X146866878Y-125209720D01*
X146999998Y-125230804D01*
X147000000Y-125230804D01*
X147000002Y-125230804D01*
X147133121Y-125209720D01*
X147133121Y-125209719D01*
X147133126Y-125209719D01*
X147253220Y-125148528D01*
X147348528Y-125053220D01*
X147389516Y-124972775D01*
X147437489Y-124921981D01*
X147505310Y-124905186D01*
X147571445Y-124927723D01*
X147610483Y-124972774D01*
X147651472Y-125053220D01*
X147651473Y-125053221D01*
X147651476Y-125053225D01*
X147746774Y-125148523D01*
X147746778Y-125148526D01*
X147746780Y-125148528D01*
X147866874Y-125209719D01*
X147866876Y-125209719D01*
X147866878Y-125209720D01*
X147999998Y-125230804D01*
X148000000Y-125230804D01*
X148000002Y-125230804D01*
X148133121Y-125209720D01*
X148133121Y-125209719D01*
X148133126Y-125209719D01*
X148253220Y-125148528D01*
X148348528Y-125053220D01*
X148409719Y-124933126D01*
X148430804Y-124800000D01*
X148425482Y-124766400D01*
X148409720Y-124666878D01*
X148409719Y-124666876D01*
X148409719Y-124666874D01*
X148348528Y-124546780D01*
X148348526Y-124546778D01*
X148348523Y-124546774D01*
X148253225Y-124451476D01*
X148253221Y-124451473D01*
X148253220Y-124451472D01*
X148133126Y-124390281D01*
X148133123Y-124390280D01*
X148124430Y-124385851D01*
X148126109Y-124382555D01*
X148083616Y-124353508D01*
X148056408Y-124289153D01*
X148068312Y-124220305D01*
X148115549Y-124168822D01*
X148124685Y-124164649D01*
X148124430Y-124164149D01*
X148133123Y-124159719D01*
X148133126Y-124159719D01*
X148253220Y-124098528D01*
X148348528Y-124003220D01*
X148409719Y-123883126D01*
X148419983Y-123818324D01*
X148430804Y-123750002D01*
X148430804Y-123749997D01*
X148409720Y-123616878D01*
X148409719Y-123616876D01*
X148409719Y-123616874D01*
X148348528Y-123496780D01*
X148348526Y-123496778D01*
X148348523Y-123496774D01*
X148253225Y-123401476D01*
X148253221Y-123401473D01*
X148253220Y-123401472D01*
X148221842Y-123385484D01*
X148171046Y-123337511D01*
X148154251Y-123269690D01*
X148176788Y-123203555D01*
X148221841Y-123164515D01*
X148253220Y-123148528D01*
X148348528Y-123053220D01*
X148409719Y-122933126D01*
X148423352Y-122847053D01*
X148430804Y-122800002D01*
X148430804Y-122799997D01*
X148409720Y-122666878D01*
X148409719Y-122666876D01*
X148409719Y-122666874D01*
X148348528Y-122546780D01*
X148348526Y-122546778D01*
X148348523Y-122546774D01*
X148253225Y-122451476D01*
X148253221Y-122451473D01*
X148253220Y-122451472D01*
X148133126Y-122390281D01*
X148133123Y-122390280D01*
X148124430Y-122385851D01*
X148126109Y-122382555D01*
X148083616Y-122353508D01*
X148056408Y-122289153D01*
X148068312Y-122220305D01*
X148115549Y-122168822D01*
X148124685Y-122164649D01*
X148124430Y-122164149D01*
X148133123Y-122159719D01*
X148133126Y-122159719D01*
X148253220Y-122098528D01*
X148348528Y-122003220D01*
X148409719Y-121883126D01*
X148411484Y-121871981D01*
X148430804Y-121750002D01*
X148430804Y-121749997D01*
X148409720Y-121616878D01*
X148409719Y-121616876D01*
X148409719Y-121616874D01*
X148348528Y-121496780D01*
X148348526Y-121496778D01*
X148348523Y-121496774D01*
X148253225Y-121401476D01*
X148253221Y-121401473D01*
X148253220Y-121401472D01*
X148133126Y-121340281D01*
X148133124Y-121340280D01*
X148133121Y-121340279D01*
X148000002Y-121319196D01*
X147999998Y-121319196D01*
X147866878Y-121340279D01*
X147746778Y-121401473D01*
X147746774Y-121401476D01*
X147651476Y-121496774D01*
X147651474Y-121496778D01*
X147651472Y-121496780D01*
X147625108Y-121548523D01*
X147610485Y-121577222D01*
X147562510Y-121628018D01*
X147494689Y-121644813D01*
X147428554Y-121622275D01*
X147389515Y-121577222D01*
X147348528Y-121496780D01*
X147348524Y-121496776D01*
X147348523Y-121496774D01*
X147253225Y-121401476D01*
X147253221Y-121401473D01*
X147253220Y-121401472D01*
X147133126Y-121340281D01*
X147133124Y-121340280D01*
X147133121Y-121340279D01*
X147000002Y-121319196D01*
X146999998Y-121319196D01*
X146866878Y-121340279D01*
X146746778Y-121401473D01*
X146746774Y-121401476D01*
X146651476Y-121496774D01*
X146651473Y-121496778D01*
X146590279Y-121616878D01*
X146569196Y-121749997D01*
X140000000Y-121749997D01*
X140000000Y-120800000D01*
X175169965Y-120800000D01*
X175178769Y-120866874D01*
X175188026Y-120937181D01*
X175188027Y-120937186D01*
X175240974Y-121065015D01*
X175240975Y-121065017D01*
X175240976Y-121065018D01*
X175325209Y-121174791D01*
X175434982Y-121259024D01*
X175562817Y-121311974D01*
X175682439Y-121327723D01*
X175699999Y-121330035D01*
X175700000Y-121330035D01*
X175700001Y-121330035D01*
X175717561Y-121327723D01*
X175837183Y-121311974D01*
X175965018Y-121259024D01*
X176041942Y-121199997D01*
X179969196Y-121199997D01*
X179969196Y-121200002D01*
X179990279Y-121333121D01*
X179990280Y-121333124D01*
X179990281Y-121333126D01*
X180050886Y-121452069D01*
X180051473Y-121453221D01*
X180051476Y-121453225D01*
X180146774Y-121548523D01*
X180146776Y-121548524D01*
X180146780Y-121548528D01*
X180227222Y-121589515D01*
X180278018Y-121637490D01*
X180294813Y-121705311D01*
X180272275Y-121771446D01*
X180227222Y-121810484D01*
X180146780Y-121851472D01*
X180146779Y-121851473D01*
X180146774Y-121851476D01*
X180051476Y-121946774D01*
X180051473Y-121946778D01*
X179990279Y-122066878D01*
X179969196Y-122199997D01*
X179969196Y-122200002D01*
X179990279Y-122333121D01*
X179990280Y-122333124D01*
X179990281Y-122333126D01*
X180051472Y-122453220D01*
X180051473Y-122453221D01*
X180051476Y-122453225D01*
X180146774Y-122548523D01*
X180146776Y-122548524D01*
X180146780Y-122548528D01*
X180227222Y-122589515D01*
X180278018Y-122637490D01*
X180294813Y-122705311D01*
X180272275Y-122771446D01*
X180227222Y-122810484D01*
X180146780Y-122851472D01*
X180146779Y-122851473D01*
X180146774Y-122851476D01*
X180051476Y-122946774D01*
X180051473Y-122946778D01*
X179990279Y-123066878D01*
X179969196Y-123199997D01*
X179969196Y-123200002D01*
X179990279Y-123333121D01*
X179990280Y-123333124D01*
X179990281Y-123333126D01*
X180051472Y-123453220D01*
X180051473Y-123453221D01*
X180051476Y-123453225D01*
X180146774Y-123548523D01*
X180146778Y-123548526D01*
X180146780Y-123548528D01*
X180266874Y-123609719D01*
X180266876Y-123609719D01*
X180266878Y-123609720D01*
X180399998Y-123630804D01*
X180400000Y-123630804D01*
X180400002Y-123630804D01*
X180533121Y-123609720D01*
X180533121Y-123609719D01*
X180533126Y-123609719D01*
X180653220Y-123548528D01*
X180748528Y-123453220D01*
X180789516Y-123372775D01*
X180837489Y-123321981D01*
X180905310Y-123305186D01*
X180971445Y-123327723D01*
X181010483Y-123372774D01*
X181051472Y-123453220D01*
X181051473Y-123453221D01*
X181051476Y-123453225D01*
X181146774Y-123548523D01*
X181146778Y-123548526D01*
X181146780Y-123548528D01*
X181266874Y-123609719D01*
X181266876Y-123609719D01*
X181266878Y-123609720D01*
X181399998Y-123630804D01*
X181400000Y-123630804D01*
X181400002Y-123630804D01*
X181533121Y-123609720D01*
X181533121Y-123609719D01*
X181533126Y-123609719D01*
X181653220Y-123548528D01*
X181731950Y-123469798D01*
X198226621Y-123469798D01*
X198226621Y-123469803D01*
X198247704Y-123602922D01*
X198247705Y-123602925D01*
X198247706Y-123602927D01*
X198302769Y-123710994D01*
X198308898Y-123723022D01*
X198308901Y-123723026D01*
X198404199Y-123818324D01*
X198404203Y-123818327D01*
X198404205Y-123818329D01*
X198524299Y-123879520D01*
X198524301Y-123879520D01*
X198524303Y-123879521D01*
X198657423Y-123900605D01*
X198657425Y-123900605D01*
X198657427Y-123900605D01*
X198790546Y-123879521D01*
X198790546Y-123879520D01*
X198790551Y-123879520D01*
X198910645Y-123818329D01*
X199005953Y-123723021D01*
X199067144Y-123602927D01*
X199083446Y-123500000D01*
X199088229Y-123469803D01*
X199088229Y-123469798D01*
X199067145Y-123336679D01*
X199067144Y-123336677D01*
X199067144Y-123336675D01*
X199005953Y-123216581D01*
X199005951Y-123216579D01*
X199005948Y-123216575D01*
X198910650Y-123121277D01*
X198910646Y-123121274D01*
X198910645Y-123121273D01*
X198790551Y-123060082D01*
X198790549Y-123060081D01*
X198790546Y-123060080D01*
X198657427Y-123038997D01*
X198657423Y-123038997D01*
X198524303Y-123060080D01*
X198404203Y-123121274D01*
X198404199Y-123121277D01*
X198308901Y-123216575D01*
X198308898Y-123216579D01*
X198247704Y-123336679D01*
X198226621Y-123469798D01*
X181731950Y-123469798D01*
X181748528Y-123453220D01*
X181809719Y-123333126D01*
X181811484Y-123321981D01*
X181830804Y-123200002D01*
X181830804Y-123199997D01*
X181809720Y-123066878D01*
X181809719Y-123066876D01*
X181809719Y-123066874D01*
X181748528Y-122946780D01*
X181748526Y-122946778D01*
X181748523Y-122946774D01*
X181653225Y-122851476D01*
X181653221Y-122851473D01*
X181653220Y-122851472D01*
X181572775Y-122810483D01*
X181521981Y-122762511D01*
X181505186Y-122694690D01*
X181527723Y-122628555D01*
X181572774Y-122589516D01*
X181653220Y-122548528D01*
X181748528Y-122453220D01*
X181809719Y-122333126D01*
X181814144Y-122305186D01*
X181830804Y-122200002D01*
X181830804Y-122199997D01*
X181809720Y-122066878D01*
X181809719Y-122066876D01*
X181809719Y-122066874D01*
X181748528Y-121946780D01*
X181748526Y-121946778D01*
X181748523Y-121946774D01*
X181653225Y-121851476D01*
X181653221Y-121851473D01*
X181653220Y-121851472D01*
X181572775Y-121810483D01*
X181521981Y-121762511D01*
X181505186Y-121694690D01*
X181527723Y-121628555D01*
X181572774Y-121589516D01*
X181653220Y-121548528D01*
X181748528Y-121453220D01*
X181809719Y-121333126D01*
X181811484Y-121321981D01*
X181830804Y-121200002D01*
X181830804Y-121199997D01*
X181809720Y-121066878D01*
X181809719Y-121066876D01*
X181809719Y-121066874D01*
X181748528Y-120946780D01*
X181748526Y-120946778D01*
X181748523Y-120946774D01*
X181653225Y-120851476D01*
X181653221Y-120851473D01*
X181653220Y-120851472D01*
X181533126Y-120790281D01*
X181533124Y-120790280D01*
X181533121Y-120790279D01*
X181400002Y-120769196D01*
X181399998Y-120769196D01*
X181266878Y-120790279D01*
X181146778Y-120851473D01*
X181146774Y-120851476D01*
X181051476Y-120946774D01*
X181051474Y-120946778D01*
X181051472Y-120946780D01*
X181024357Y-120999997D01*
X181010485Y-121027222D01*
X180962510Y-121078018D01*
X180894689Y-121094813D01*
X180828554Y-121072275D01*
X180789515Y-121027222D01*
X180748528Y-120946780D01*
X180748524Y-120946776D01*
X180748523Y-120946774D01*
X180653225Y-120851476D01*
X180653221Y-120851473D01*
X180653220Y-120851472D01*
X180533126Y-120790281D01*
X180533124Y-120790280D01*
X180533121Y-120790279D01*
X180400002Y-120769196D01*
X180399998Y-120769196D01*
X180266878Y-120790279D01*
X180146778Y-120851473D01*
X180146774Y-120851476D01*
X180051476Y-120946774D01*
X180051473Y-120946778D01*
X179990279Y-121066878D01*
X179969196Y-121199997D01*
X176041942Y-121199997D01*
X176074791Y-121174791D01*
X176159024Y-121065018D01*
X176211974Y-120937183D01*
X176230035Y-120800000D01*
X176229223Y-120793836D01*
X176223027Y-120746774D01*
X176211974Y-120662817D01*
X176173195Y-120569196D01*
X176159025Y-120534985D01*
X176159024Y-120534984D01*
X176159024Y-120534983D01*
X176074791Y-120425209D01*
X176074789Y-120425208D01*
X176074789Y-120425207D01*
X175981308Y-120353476D01*
X175965018Y-120340976D01*
X175965017Y-120340975D01*
X175965015Y-120340974D01*
X175837186Y-120288027D01*
X175837184Y-120288026D01*
X175837183Y-120288026D01*
X175745727Y-120275985D01*
X175700001Y-120269965D01*
X175699999Y-120269965D01*
X175631408Y-120278995D01*
X175562817Y-120288026D01*
X175562816Y-120288026D01*
X175562813Y-120288027D01*
X175434985Y-120340974D01*
X175325209Y-120425209D01*
X175240974Y-120534985D01*
X175188027Y-120662813D01*
X175188026Y-120662816D01*
X175188026Y-120662817D01*
X175183476Y-120697377D01*
X175170777Y-120793836D01*
X175169965Y-120800000D01*
X140000000Y-120800000D01*
X140000000Y-119599997D01*
X172569196Y-119599997D01*
X172569196Y-119600002D01*
X172590279Y-119733121D01*
X172590280Y-119733124D01*
X172590281Y-119733126D01*
X172651472Y-119853220D01*
X172651473Y-119853221D01*
X172651476Y-119853225D01*
X172746774Y-119948523D01*
X172746778Y-119948526D01*
X172746780Y-119948528D01*
X172866874Y-120009719D01*
X172866876Y-120009719D01*
X172866878Y-120009720D01*
X172999998Y-120030804D01*
X173000000Y-120030804D01*
X173000002Y-120030804D01*
X173133121Y-120009720D01*
X173133121Y-120009719D01*
X173133126Y-120009719D01*
X173253220Y-119948528D01*
X173348528Y-119853220D01*
X173409719Y-119733126D01*
X173410553Y-119727860D01*
X173430804Y-119600002D01*
X173430804Y-119599997D01*
X173409720Y-119466878D01*
X173409719Y-119466876D01*
X173409719Y-119466874D01*
X173348528Y-119346780D01*
X173348526Y-119346778D01*
X173348523Y-119346774D01*
X173298802Y-119297053D01*
X174491252Y-119297053D01*
X174491252Y-119297058D01*
X174512335Y-119430177D01*
X174512336Y-119430180D01*
X174512337Y-119430182D01*
X174573112Y-119549459D01*
X174573529Y-119550277D01*
X174573532Y-119550281D01*
X174668830Y-119645579D01*
X174668834Y-119645582D01*
X174668836Y-119645584D01*
X174788930Y-119706775D01*
X174788932Y-119706775D01*
X174788934Y-119706776D01*
X174922054Y-119727860D01*
X174922056Y-119727860D01*
X174922058Y-119727860D01*
X175055177Y-119706776D01*
X175055177Y-119706775D01*
X175055182Y-119706775D01*
X175175276Y-119645584D01*
X175270584Y-119550276D01*
X175297702Y-119497053D01*
X177466252Y-119497053D01*
X177466252Y-119497058D01*
X177487335Y-119630177D01*
X177487336Y-119630180D01*
X177487337Y-119630182D01*
X177543620Y-119740643D01*
X177548529Y-119750277D01*
X177548532Y-119750281D01*
X177643830Y-119845579D01*
X177643834Y-119845582D01*
X177643836Y-119845584D01*
X177763930Y-119906775D01*
X177763932Y-119906775D01*
X177763934Y-119906776D01*
X177897054Y-119927860D01*
X177897056Y-119927860D01*
X177897058Y-119927860D01*
X178030177Y-119906776D01*
X178030177Y-119906775D01*
X178030182Y-119906775D01*
X178150276Y-119845584D01*
X178245584Y-119750276D01*
X178306775Y-119630182D01*
X178306776Y-119630177D01*
X178327860Y-119497058D01*
X178327860Y-119497053D01*
X178306776Y-119363934D01*
X178306775Y-119363932D01*
X178306775Y-119363930D01*
X178247223Y-119247053D01*
X192366252Y-119247053D01*
X192366252Y-119247058D01*
X192387335Y-119380177D01*
X192387336Y-119380180D01*
X192387337Y-119380182D01*
X192448528Y-119500276D01*
X192448529Y-119500277D01*
X192448532Y-119500281D01*
X192543834Y-119595583D01*
X192545425Y-119596739D01*
X192546890Y-119598639D01*
X192550736Y-119602485D01*
X192550238Y-119602982D01*
X192588090Y-119652069D01*
X192594068Y-119721683D01*
X192561461Y-119783477D01*
X192545425Y-119797373D01*
X192543834Y-119798528D01*
X192448532Y-119893830D01*
X192448529Y-119893834D01*
X192387335Y-120013934D01*
X192366252Y-120147053D01*
X192366252Y-120147058D01*
X192387335Y-120280177D01*
X192387336Y-120280180D01*
X192387337Y-120280182D01*
X192448528Y-120400276D01*
X192448529Y-120400277D01*
X192448532Y-120400281D01*
X192543834Y-120495583D01*
X192545425Y-120496739D01*
X192546890Y-120498639D01*
X192550736Y-120502485D01*
X192550238Y-120502982D01*
X192588090Y-120552069D01*
X192594068Y-120621683D01*
X192561461Y-120683477D01*
X192545425Y-120697373D01*
X192543834Y-120698528D01*
X192448532Y-120793830D01*
X192448529Y-120793834D01*
X192387335Y-120913934D01*
X192366252Y-121047053D01*
X192366252Y-121047058D01*
X192387335Y-121180177D01*
X192387336Y-121180180D01*
X192387337Y-121180182D01*
X192427510Y-121259025D01*
X192448529Y-121300277D01*
X192448532Y-121300281D01*
X192543834Y-121395583D01*
X192545425Y-121396739D01*
X192546890Y-121398639D01*
X192550736Y-121402485D01*
X192550238Y-121402982D01*
X192588090Y-121452069D01*
X192594068Y-121521683D01*
X192561461Y-121583477D01*
X192545425Y-121597373D01*
X192543834Y-121598528D01*
X192448532Y-121693830D01*
X192448529Y-121693834D01*
X192387335Y-121813934D01*
X192366252Y-121947053D01*
X192366252Y-121947058D01*
X192387335Y-122080177D01*
X192387336Y-122080180D01*
X192387337Y-122080182D01*
X192448528Y-122200276D01*
X192448529Y-122200277D01*
X192448532Y-122200281D01*
X192543834Y-122295583D01*
X192545425Y-122296739D01*
X192546890Y-122298639D01*
X192550736Y-122302485D01*
X192550238Y-122302982D01*
X192588090Y-122352069D01*
X192594068Y-122421683D01*
X192561461Y-122483477D01*
X192545425Y-122497373D01*
X192543834Y-122498528D01*
X192448532Y-122593830D01*
X192448529Y-122593834D01*
X192387335Y-122713934D01*
X192366252Y-122847053D01*
X192366252Y-122847058D01*
X192387335Y-122980177D01*
X192387336Y-122980180D01*
X192387337Y-122980182D01*
X192448528Y-123100276D01*
X192448529Y-123100277D01*
X192448532Y-123100281D01*
X192543830Y-123195579D01*
X192543834Y-123195582D01*
X192543836Y-123195584D01*
X192663930Y-123256775D01*
X192663932Y-123256775D01*
X192663934Y-123256776D01*
X192797054Y-123277860D01*
X192797056Y-123277860D01*
X192797058Y-123277860D01*
X192930177Y-123256776D01*
X192930177Y-123256775D01*
X192930182Y-123256775D01*
X193050276Y-123195584D01*
X193145584Y-123100276D01*
X193206775Y-122980182D01*
X193207948Y-122972777D01*
X193227860Y-122847058D01*
X193227860Y-122847053D01*
X193206776Y-122713934D01*
X193206775Y-122713932D01*
X193206775Y-122713930D01*
X193145584Y-122593836D01*
X193145582Y-122593834D01*
X193145579Y-122593830D01*
X193050281Y-122498532D01*
X193050277Y-122498529D01*
X193050276Y-122498528D01*
X193050274Y-122498527D01*
X193048691Y-122497377D01*
X193047225Y-122495476D01*
X193043376Y-122491627D01*
X193043873Y-122491129D01*
X193006024Y-122442048D01*
X193000042Y-122372435D01*
X193032645Y-122310639D01*
X193048691Y-122296735D01*
X193050269Y-122295587D01*
X193050276Y-122295584D01*
X193145584Y-122200276D01*
X193206775Y-122080182D01*
X193207118Y-122078018D01*
X193227860Y-121947058D01*
X193227860Y-121947053D01*
X193219265Y-121892786D01*
X202496556Y-121892786D01*
X202496556Y-123201325D01*
X202499409Y-123231755D01*
X202499409Y-123231757D01*
X202539542Y-123346446D01*
X202544263Y-123359938D01*
X202624906Y-123469206D01*
X202734174Y-123549849D01*
X202776901Y-123564800D01*
X202862355Y-123594702D01*
X202892786Y-123597556D01*
X202892790Y-123597556D01*
X204451326Y-123597556D01*
X204481755Y-123594702D01*
X204481757Y-123594702D01*
X204545846Y-123572275D01*
X204609938Y-123549849D01*
X204719206Y-123469206D01*
X204799849Y-123359938D01*
X204832567Y-123266436D01*
X204844702Y-123231757D01*
X204844702Y-123231755D01*
X204847556Y-123201325D01*
X204847556Y-121892786D01*
X204844702Y-121862356D01*
X204844702Y-121862354D01*
X204811062Y-121766219D01*
X204799849Y-121734174D01*
X204719206Y-121624906D01*
X204609938Y-121544263D01*
X204609936Y-121544262D01*
X204481756Y-121499409D01*
X204451326Y-121496556D01*
X204451322Y-121496556D01*
X202892790Y-121496556D01*
X202892786Y-121496556D01*
X202862356Y-121499409D01*
X202862354Y-121499409D01*
X202734175Y-121544262D01*
X202734173Y-121544263D01*
X202624906Y-121624906D01*
X202544263Y-121734173D01*
X202544262Y-121734175D01*
X202499409Y-121862354D01*
X202499409Y-121862356D01*
X202496556Y-121892786D01*
X193219265Y-121892786D01*
X193206776Y-121813934D01*
X193206775Y-121813932D01*
X193206775Y-121813930D01*
X193145584Y-121693836D01*
X193145582Y-121693834D01*
X193145579Y-121693830D01*
X193050281Y-121598532D01*
X193050277Y-121598529D01*
X193050276Y-121598528D01*
X193050274Y-121598527D01*
X193048691Y-121597377D01*
X193047225Y-121595476D01*
X193043376Y-121591627D01*
X193043873Y-121591129D01*
X193006024Y-121542048D01*
X193000042Y-121472435D01*
X193032645Y-121410639D01*
X193048691Y-121396735D01*
X193050269Y-121395587D01*
X193050276Y-121395584D01*
X193145584Y-121300276D01*
X193206775Y-121180182D01*
X193225016Y-121065015D01*
X193227860Y-121047058D01*
X193227860Y-121047053D01*
X193220407Y-120999997D01*
X196569196Y-120999997D01*
X196569196Y-121000002D01*
X196590279Y-121133121D01*
X196590280Y-121133124D01*
X196590281Y-121133126D01*
X196651472Y-121253220D01*
X196651473Y-121253221D01*
X196651476Y-121253225D01*
X196746774Y-121348523D01*
X196746778Y-121348526D01*
X196746780Y-121348528D01*
X196866874Y-121409719D01*
X196866876Y-121409719D01*
X196866878Y-121409720D01*
X196999998Y-121430804D01*
X197000000Y-121430804D01*
X197000002Y-121430804D01*
X197133121Y-121409720D01*
X197133121Y-121409719D01*
X197133126Y-121409719D01*
X197253220Y-121348528D01*
X197348528Y-121253220D01*
X197409719Y-121133126D01*
X197420212Y-121066878D01*
X197430804Y-121000002D01*
X197430804Y-120999997D01*
X197409720Y-120866878D01*
X197409719Y-120866876D01*
X197409719Y-120866874D01*
X197348528Y-120746780D01*
X197348526Y-120746778D01*
X197348523Y-120746774D01*
X197253225Y-120651476D01*
X197253221Y-120651473D01*
X197253220Y-120651472D01*
X197133126Y-120590281D01*
X197133124Y-120590280D01*
X197133121Y-120590279D01*
X197000002Y-120569196D01*
X196999998Y-120569196D01*
X196866878Y-120590279D01*
X196746778Y-120651473D01*
X196746774Y-120651476D01*
X196651476Y-120746774D01*
X196651473Y-120746778D01*
X196590279Y-120866878D01*
X196569196Y-120999997D01*
X193220407Y-120999997D01*
X193206776Y-120913934D01*
X193206775Y-120913932D01*
X193206775Y-120913930D01*
X193145584Y-120793836D01*
X193145582Y-120793834D01*
X193145579Y-120793830D01*
X193050281Y-120698532D01*
X193050277Y-120698529D01*
X193050276Y-120698528D01*
X193050274Y-120698527D01*
X193048691Y-120697377D01*
X193047225Y-120695476D01*
X193043376Y-120691627D01*
X193043873Y-120691129D01*
X193006024Y-120642048D01*
X193000042Y-120572435D01*
X193032645Y-120510639D01*
X193048691Y-120496735D01*
X193050269Y-120495587D01*
X193050276Y-120495584D01*
X193145584Y-120400276D01*
X193206775Y-120280182D01*
X193227311Y-120150522D01*
X193227860Y-120147058D01*
X193227860Y-120147053D01*
X193206776Y-120013934D01*
X193206775Y-120013932D01*
X193206775Y-120013930D01*
X193170933Y-119943586D01*
X202496556Y-119943586D01*
X202496556Y-120150525D01*
X202536924Y-120353468D01*
X202536926Y-120353476D01*
X202616115Y-120544654D01*
X202646602Y-120590281D01*
X202731080Y-120716713D01*
X202877398Y-120863031D01*
X202877401Y-120863033D01*
X203049458Y-120977997D01*
X203240636Y-121057186D01*
X203429801Y-121094813D01*
X203443586Y-121097555D01*
X203443590Y-121097556D01*
X203443591Y-121097556D01*
X203900522Y-121097556D01*
X203900523Y-121097555D01*
X204103476Y-121057186D01*
X204294654Y-120977997D01*
X204466711Y-120863033D01*
X204613033Y-120716711D01*
X204727997Y-120544654D01*
X204807186Y-120353476D01*
X204847556Y-120150521D01*
X204847556Y-119943591D01*
X204807186Y-119740636D01*
X204727997Y-119549458D01*
X204613033Y-119377401D01*
X204613031Y-119377398D01*
X204466713Y-119231080D01*
X204343164Y-119148528D01*
X204294654Y-119116115D01*
X204225173Y-119087335D01*
X204103476Y-119036926D01*
X204103468Y-119036924D01*
X203900525Y-118996556D01*
X203900521Y-118996556D01*
X203443591Y-118996556D01*
X203443586Y-118996556D01*
X203240643Y-119036924D01*
X203240635Y-119036926D01*
X203049459Y-119116114D01*
X202877398Y-119231080D01*
X202731080Y-119377398D01*
X202616114Y-119549459D01*
X202536926Y-119740635D01*
X202536924Y-119740643D01*
X202496556Y-119943586D01*
X193170933Y-119943586D01*
X193145584Y-119893836D01*
X193145582Y-119893834D01*
X193145579Y-119893830D01*
X193050281Y-119798532D01*
X193050277Y-119798529D01*
X193050276Y-119798528D01*
X193050274Y-119798527D01*
X193048691Y-119797377D01*
X193047225Y-119795476D01*
X193043376Y-119791627D01*
X193043873Y-119791129D01*
X193006024Y-119742048D01*
X193000042Y-119672435D01*
X193032645Y-119610639D01*
X193048691Y-119596735D01*
X193050269Y-119595587D01*
X193050276Y-119595584D01*
X193145584Y-119500276D01*
X193206775Y-119380182D01*
X193206776Y-119380177D01*
X193227860Y-119247058D01*
X193227860Y-119247053D01*
X193206776Y-119113934D01*
X193206775Y-119113932D01*
X193206775Y-119113930D01*
X193145584Y-118993836D01*
X193145582Y-118993834D01*
X193145579Y-118993830D01*
X193050281Y-118898532D01*
X193050277Y-118898529D01*
X193050276Y-118898528D01*
X192930182Y-118837337D01*
X192930180Y-118837336D01*
X192930177Y-118837335D01*
X192797058Y-118816252D01*
X192797054Y-118816252D01*
X192663934Y-118837335D01*
X192543834Y-118898529D01*
X192543830Y-118898532D01*
X192448532Y-118993830D01*
X192448529Y-118993834D01*
X192387335Y-119113934D01*
X192366252Y-119247053D01*
X178247223Y-119247053D01*
X178245584Y-119243836D01*
X178245582Y-119243834D01*
X178245579Y-119243830D01*
X178150281Y-119148532D01*
X178150277Y-119148529D01*
X178150276Y-119148528D01*
X178030182Y-119087337D01*
X178030180Y-119087336D01*
X178030177Y-119087335D01*
X177897058Y-119066252D01*
X177897054Y-119066252D01*
X177763934Y-119087335D01*
X177763930Y-119087336D01*
X177763930Y-119087337D01*
X177707452Y-119116114D01*
X177643834Y-119148529D01*
X177643830Y-119148532D01*
X177548532Y-119243830D01*
X177548529Y-119243834D01*
X177487335Y-119363934D01*
X177466252Y-119497053D01*
X175297702Y-119497053D01*
X175331775Y-119430182D01*
X175342268Y-119363934D01*
X175352860Y-119297058D01*
X175352860Y-119297053D01*
X175331776Y-119163934D01*
X175331775Y-119163932D01*
X175331775Y-119163930D01*
X175270584Y-119043836D01*
X175270582Y-119043834D01*
X175270579Y-119043830D01*
X175175281Y-118948532D01*
X175175277Y-118948529D01*
X175175276Y-118948528D01*
X175055182Y-118887337D01*
X175055180Y-118887336D01*
X175055177Y-118887335D01*
X174922058Y-118866252D01*
X174922054Y-118866252D01*
X174788934Y-118887335D01*
X174788930Y-118887336D01*
X174788930Y-118887337D01*
X174766959Y-118898532D01*
X174668834Y-118948529D01*
X174668830Y-118948532D01*
X174573532Y-119043830D01*
X174573529Y-119043834D01*
X174573528Y-119043836D01*
X174536701Y-119116114D01*
X174512335Y-119163934D01*
X174491252Y-119297053D01*
X173298802Y-119297053D01*
X173253225Y-119251476D01*
X173253221Y-119251473D01*
X173253220Y-119251472D01*
X173133126Y-119190281D01*
X173133124Y-119190280D01*
X173133121Y-119190279D01*
X173000002Y-119169196D01*
X172999998Y-119169196D01*
X172866878Y-119190279D01*
X172746778Y-119251473D01*
X172746774Y-119251476D01*
X172651476Y-119346774D01*
X172651473Y-119346778D01*
X172590279Y-119466878D01*
X172569196Y-119599997D01*
X140000000Y-119599997D01*
X140000000Y-118497053D01*
X178966252Y-118497053D01*
X178966252Y-118497058D01*
X178987335Y-118630177D01*
X178987336Y-118630180D01*
X178987337Y-118630182D01*
X179048528Y-118750276D01*
X179048529Y-118750277D01*
X179048532Y-118750281D01*
X179143830Y-118845579D01*
X179143834Y-118845582D01*
X179143836Y-118845584D01*
X179263930Y-118906775D01*
X179263932Y-118906775D01*
X179263934Y-118906776D01*
X179397054Y-118927860D01*
X179397056Y-118927860D01*
X179397058Y-118927860D01*
X179530177Y-118906776D01*
X179530177Y-118906775D01*
X179530182Y-118906775D01*
X179650276Y-118845584D01*
X179745584Y-118750276D01*
X179806775Y-118630182D01*
X179806776Y-118630177D01*
X179827860Y-118497058D01*
X179827860Y-118497053D01*
X179806776Y-118363934D01*
X179806775Y-118363932D01*
X179806775Y-118363930D01*
X179745584Y-118243836D01*
X179745582Y-118243834D01*
X179745579Y-118243830D01*
X179650281Y-118148532D01*
X179650277Y-118148529D01*
X179650276Y-118148528D01*
X179530182Y-118087337D01*
X179530180Y-118087336D01*
X179530177Y-118087335D01*
X179397058Y-118066252D01*
X179397054Y-118066252D01*
X179263934Y-118087335D01*
X179143834Y-118148529D01*
X179143830Y-118148532D01*
X179048532Y-118243830D01*
X179048529Y-118243834D01*
X178987335Y-118363934D01*
X178966252Y-118497053D01*
X140000000Y-118497053D01*
X140000000Y-115499997D01*
X187169196Y-115499997D01*
X187169196Y-115500002D01*
X187190279Y-115633121D01*
X187190280Y-115633124D01*
X187190281Y-115633126D01*
X187251472Y-115753220D01*
X187251473Y-115753221D01*
X187251476Y-115753225D01*
X187346774Y-115848523D01*
X187346778Y-115848526D01*
X187346780Y-115848528D01*
X187466874Y-115909719D01*
X187466876Y-115909719D01*
X187466878Y-115909720D01*
X187599998Y-115930804D01*
X187600000Y-115930804D01*
X187600002Y-115930804D01*
X187733121Y-115909720D01*
X187733121Y-115909719D01*
X187733126Y-115909719D01*
X187853220Y-115848528D01*
X187948528Y-115753220D01*
X188009719Y-115633126D01*
X188030804Y-115500000D01*
X188029170Y-115489686D01*
X188009720Y-115366878D01*
X188009719Y-115366876D01*
X188009719Y-115366874D01*
X187948528Y-115246780D01*
X187948526Y-115246778D01*
X187948523Y-115246774D01*
X187853225Y-115151476D01*
X187853221Y-115151473D01*
X187853220Y-115151472D01*
X187733126Y-115090281D01*
X187733124Y-115090280D01*
X187733121Y-115090279D01*
X187600002Y-115069196D01*
X187599998Y-115069196D01*
X187466878Y-115090279D01*
X187346778Y-115151473D01*
X187346774Y-115151476D01*
X187251476Y-115246774D01*
X187251473Y-115246778D01*
X187190279Y-115366878D01*
X187169196Y-115499997D01*
X140000000Y-115499997D01*
X140000000Y-114797056D01*
X202219825Y-114797056D01*
X203267910Y-114797056D01*
X203229426Y-114863713D01*
X203197056Y-114984521D01*
X203197056Y-115109591D01*
X203229426Y-115230399D01*
X203267910Y-115297056D01*
X202219825Y-115297056D01*
X202230298Y-115363182D01*
X202230298Y-115363185D01*
X202295960Y-115565273D01*
X202392435Y-115754613D01*
X202517328Y-115926515D01*
X202517332Y-115926520D01*
X202667591Y-116076779D01*
X202667596Y-116076783D01*
X202839498Y-116201676D01*
X203028838Y-116298151D01*
X203150911Y-116337815D01*
X203208586Y-116377252D01*
X203235785Y-116441611D01*
X203223871Y-116510457D01*
X203176626Y-116561933D01*
X203160046Y-116570307D01*
X203049460Y-116616113D01*
X202877398Y-116731080D01*
X202731080Y-116877398D01*
X202616114Y-117049459D01*
X202536926Y-117240635D01*
X202536924Y-117240643D01*
X202496556Y-117443586D01*
X202496556Y-117650525D01*
X202536924Y-117853468D01*
X202536926Y-117853476D01*
X202616115Y-118044654D01*
X202644635Y-118087337D01*
X202731080Y-118216713D01*
X202877398Y-118363031D01*
X202877401Y-118363033D01*
X203049458Y-118477997D01*
X203240636Y-118557186D01*
X203443586Y-118597555D01*
X203443590Y-118597556D01*
X203443591Y-118597556D01*
X203900522Y-118597556D01*
X203900523Y-118597555D01*
X204103476Y-118557186D01*
X204294654Y-118477997D01*
X204466711Y-118363033D01*
X204613033Y-118216711D01*
X204727997Y-118044654D01*
X204807186Y-117853476D01*
X204847556Y-117650521D01*
X204847556Y-117443591D01*
X204807186Y-117240636D01*
X204727997Y-117049458D01*
X204613033Y-116877401D01*
X204613031Y-116877398D01*
X204466713Y-116731080D01*
X204294652Y-116616113D01*
X204184065Y-116570307D01*
X204129662Y-116526466D01*
X204107597Y-116460172D01*
X204124876Y-116392472D01*
X204176014Y-116344862D01*
X204193200Y-116337815D01*
X204315273Y-116298151D01*
X204504613Y-116201676D01*
X204676515Y-116076783D01*
X204676520Y-116076779D01*
X204826779Y-115926520D01*
X204826783Y-115926515D01*
X204951676Y-115754613D01*
X205048151Y-115565273D01*
X205113813Y-115363185D01*
X205113813Y-115363182D01*
X205124287Y-115297056D01*
X204076202Y-115297056D01*
X204114686Y-115230399D01*
X204147056Y-115109591D01*
X204147056Y-114984521D01*
X204114686Y-114863713D01*
X204076202Y-114797056D01*
X205124287Y-114797056D01*
X205113813Y-114730929D01*
X205113813Y-114730926D01*
X205048151Y-114528838D01*
X204951676Y-114339498D01*
X204826783Y-114167596D01*
X204826779Y-114167591D01*
X204676520Y-114017332D01*
X204676515Y-114017328D01*
X204504613Y-113892435D01*
X204315273Y-113795960D01*
X204113184Y-113730298D01*
X203922056Y-113700025D01*
X203922056Y-114642910D01*
X203855399Y-114604426D01*
X203734591Y-114572056D01*
X203609521Y-114572056D01*
X203488713Y-114604426D01*
X203422056Y-114642910D01*
X203422056Y-113700025D01*
X203230928Y-113730298D01*
X203230925Y-113730298D01*
X203028838Y-113795960D01*
X202839498Y-113892435D01*
X202667596Y-114017328D01*
X202667591Y-114017332D01*
X202517332Y-114167591D01*
X202517328Y-114167596D01*
X202392435Y-114339498D01*
X202295960Y-114528838D01*
X202230298Y-114730926D01*
X202230298Y-114730929D01*
X202219825Y-114797056D01*
X140000000Y-114797056D01*
X140000000Y-113797053D01*
X188066252Y-113797053D01*
X188066252Y-113797058D01*
X188087335Y-113930177D01*
X188087336Y-113930180D01*
X188087337Y-113930182D01*
X188148528Y-114050276D01*
X188148529Y-114050277D01*
X188148532Y-114050281D01*
X188243830Y-114145579D01*
X188243834Y-114145582D01*
X188243836Y-114145584D01*
X188363930Y-114206775D01*
X188363932Y-114206775D01*
X188363934Y-114206776D01*
X188497054Y-114227860D01*
X188497056Y-114227860D01*
X188497058Y-114227860D01*
X188630177Y-114206776D01*
X188630177Y-114206775D01*
X188630182Y-114206775D01*
X188750276Y-114145584D01*
X188845584Y-114050276D01*
X188906775Y-113930182D01*
X188927860Y-113797056D01*
X188927686Y-113795960D01*
X188906776Y-113663934D01*
X188906775Y-113663932D01*
X188906775Y-113663930D01*
X188845584Y-113543836D01*
X188845582Y-113543834D01*
X188845579Y-113543830D01*
X188750281Y-113448532D01*
X188750277Y-113448529D01*
X188750276Y-113448528D01*
X188630182Y-113387337D01*
X188630180Y-113387336D01*
X188630177Y-113387335D01*
X188497058Y-113366252D01*
X188497054Y-113366252D01*
X188363934Y-113387335D01*
X188243834Y-113448529D01*
X188243830Y-113448532D01*
X188148532Y-113543830D01*
X188148529Y-113543834D01*
X188087335Y-113663934D01*
X188066252Y-113797053D01*
X140000000Y-113797053D01*
X140000000Y-112400000D01*
X173069965Y-112400000D01*
X173079742Y-112474265D01*
X173088026Y-112537181D01*
X173088027Y-112537186D01*
X173140974Y-112665015D01*
X173140975Y-112665017D01*
X173140976Y-112665018D01*
X173225209Y-112774791D01*
X173334982Y-112859024D01*
X173462817Y-112911974D01*
X173585702Y-112928152D01*
X173599999Y-112930035D01*
X173600000Y-112930035D01*
X173600001Y-112930035D01*
X173612947Y-112928330D01*
X173737183Y-112911974D01*
X173865018Y-112859024D01*
X173912238Y-112822790D01*
X185243459Y-112822790D01*
X185243459Y-112822795D01*
X185264542Y-112955914D01*
X185264543Y-112955917D01*
X185264544Y-112955919D01*
X185325735Y-113076013D01*
X185325736Y-113076014D01*
X185325739Y-113076018D01*
X185421037Y-113171316D01*
X185421041Y-113171319D01*
X185421043Y-113171321D01*
X185541137Y-113232512D01*
X185541139Y-113232512D01*
X185541141Y-113232513D01*
X185674261Y-113253597D01*
X185674263Y-113253597D01*
X185674265Y-113253597D01*
X185807384Y-113232513D01*
X185807384Y-113232512D01*
X185807389Y-113232512D01*
X185927483Y-113171321D01*
X186022791Y-113076013D01*
X186083982Y-112955919D01*
X186090942Y-112911974D01*
X186105067Y-112822795D01*
X186105067Y-112822790D01*
X186083983Y-112689671D01*
X186083982Y-112689669D01*
X186083982Y-112689667D01*
X186022791Y-112569573D01*
X186022789Y-112569571D01*
X186022786Y-112569567D01*
X185927488Y-112474269D01*
X185927484Y-112474266D01*
X185927483Y-112474265D01*
X185807389Y-112413074D01*
X185807387Y-112413073D01*
X185807384Y-112413072D01*
X185674265Y-112391989D01*
X185674261Y-112391989D01*
X185541141Y-112413072D01*
X185421041Y-112474266D01*
X185421037Y-112474269D01*
X185325739Y-112569567D01*
X185325736Y-112569571D01*
X185264542Y-112689671D01*
X185243459Y-112822790D01*
X173912238Y-112822790D01*
X173974791Y-112774791D01*
X174059024Y-112665018D01*
X174111974Y-112537183D01*
X174130035Y-112400000D01*
X174111974Y-112262817D01*
X174059024Y-112134983D01*
X173974791Y-112025209D01*
X173974789Y-112025208D01*
X173974789Y-112025207D01*
X173865015Y-111940974D01*
X173737186Y-111888027D01*
X173737184Y-111888026D01*
X173737183Y-111888026D01*
X173645727Y-111875985D01*
X173600001Y-111869965D01*
X173599999Y-111869965D01*
X173531408Y-111878995D01*
X173462817Y-111888026D01*
X173462816Y-111888026D01*
X173462813Y-111888027D01*
X173334985Y-111940974D01*
X173225209Y-112025209D01*
X173140974Y-112134985D01*
X173088027Y-112262813D01*
X173088026Y-112262816D01*
X173088026Y-112262817D01*
X173069965Y-112400000D01*
X140000000Y-112400000D01*
X140000000Y-109399997D01*
X154569196Y-109399997D01*
X154569196Y-109400002D01*
X154590279Y-109533121D01*
X154590280Y-109533124D01*
X154590281Y-109533126D01*
X154651472Y-109653220D01*
X154651473Y-109653221D01*
X154651476Y-109653225D01*
X154746774Y-109748523D01*
X154746778Y-109748526D01*
X154746780Y-109748528D01*
X154866874Y-109809719D01*
X154866876Y-109809719D01*
X154866878Y-109809720D01*
X154999998Y-109830804D01*
X155000000Y-109830804D01*
X155000002Y-109830804D01*
X155133121Y-109809720D01*
X155133121Y-109809719D01*
X155133126Y-109809719D01*
X155253220Y-109748528D01*
X155348528Y-109653220D01*
X155409719Y-109533126D01*
X155409720Y-109533121D01*
X155430804Y-109400002D01*
X155430804Y-109399997D01*
X155409720Y-109266878D01*
X155409719Y-109266876D01*
X155409719Y-109266874D01*
X155374143Y-109197053D01*
X175066252Y-109197053D01*
X175066252Y-109197058D01*
X175087335Y-109330177D01*
X175087336Y-109330180D01*
X175087337Y-109330182D01*
X175148528Y-109450276D01*
X175148529Y-109450277D01*
X175148532Y-109450281D01*
X175243830Y-109545579D01*
X175243834Y-109545582D01*
X175243836Y-109545584D01*
X175363930Y-109606775D01*
X175363932Y-109606775D01*
X175363934Y-109606776D01*
X175497054Y-109627860D01*
X175497056Y-109627860D01*
X175497058Y-109627860D01*
X175630177Y-109606776D01*
X175630177Y-109606775D01*
X175630182Y-109606775D01*
X175750276Y-109545584D01*
X175845584Y-109450276D01*
X175906775Y-109330182D01*
X175910735Y-109305182D01*
X175927860Y-109197058D01*
X175927860Y-109197053D01*
X175923900Y-109172053D01*
X191728752Y-109172053D01*
X191728752Y-109172058D01*
X191749835Y-109305177D01*
X191749836Y-109305180D01*
X191749837Y-109305182D01*
X191811028Y-109425276D01*
X191811029Y-109425277D01*
X191811032Y-109425281D01*
X191906330Y-109520579D01*
X191906334Y-109520582D01*
X191906336Y-109520584D01*
X192026430Y-109581775D01*
X192026432Y-109581775D01*
X192026434Y-109581776D01*
X192159554Y-109602860D01*
X192159556Y-109602860D01*
X192159558Y-109602860D01*
X192292677Y-109581776D01*
X192292677Y-109581775D01*
X192292682Y-109581775D01*
X192412776Y-109520584D01*
X192508084Y-109425276D01*
X192569275Y-109305182D01*
X192575342Y-109266878D01*
X192590360Y-109172058D01*
X192590360Y-109172053D01*
X192569276Y-109038934D01*
X192569275Y-109038932D01*
X192569275Y-109038930D01*
X192508084Y-108918836D01*
X192508082Y-108918834D01*
X192508079Y-108918830D01*
X192412781Y-108823532D01*
X192412777Y-108823529D01*
X192412776Y-108823528D01*
X192292682Y-108762337D01*
X192292680Y-108762336D01*
X192292677Y-108762335D01*
X192159558Y-108741252D01*
X192159554Y-108741252D01*
X192026434Y-108762335D01*
X191906334Y-108823529D01*
X191906330Y-108823532D01*
X191811032Y-108918830D01*
X191811029Y-108918834D01*
X191749835Y-109038934D01*
X191728752Y-109172053D01*
X175923900Y-109172053D01*
X175906776Y-109063934D01*
X175906775Y-109063932D01*
X175906775Y-109063930D01*
X175845584Y-108943836D01*
X175845582Y-108943834D01*
X175845579Y-108943830D01*
X175750281Y-108848532D01*
X175750277Y-108848529D01*
X175750276Y-108848528D01*
X175630182Y-108787337D01*
X175630180Y-108787336D01*
X175630177Y-108787335D01*
X175497058Y-108766252D01*
X175497054Y-108766252D01*
X175363934Y-108787335D01*
X175243834Y-108848529D01*
X175243830Y-108848532D01*
X175148532Y-108943830D01*
X175148529Y-108943834D01*
X175087335Y-109063934D01*
X175066252Y-109197053D01*
X155374143Y-109197053D01*
X155348528Y-109146780D01*
X155348526Y-109146778D01*
X155348523Y-109146774D01*
X155253225Y-109051476D01*
X155253221Y-109051473D01*
X155253220Y-109051472D01*
X155133126Y-108990281D01*
X155133124Y-108990280D01*
X155133121Y-108990279D01*
X155000002Y-108969196D01*
X154999998Y-108969196D01*
X154866878Y-108990279D01*
X154746778Y-109051473D01*
X154746774Y-109051476D01*
X154651476Y-109146774D01*
X154651473Y-109146778D01*
X154590279Y-109266878D01*
X154569196Y-109399997D01*
X140000000Y-109399997D01*
X140000000Y-108572053D01*
X176391252Y-108572053D01*
X176391252Y-108572058D01*
X176412335Y-108705177D01*
X176412336Y-108705180D01*
X176412337Y-108705182D01*
X176473528Y-108825276D01*
X176473529Y-108825277D01*
X176473532Y-108825281D01*
X176568830Y-108920579D01*
X176568834Y-108920582D01*
X176568836Y-108920584D01*
X176688930Y-108981775D01*
X176688932Y-108981775D01*
X176688934Y-108981776D01*
X176822054Y-109002860D01*
X176822056Y-109002860D01*
X176822058Y-109002860D01*
X176955177Y-108981776D01*
X176955177Y-108981775D01*
X176955182Y-108981775D01*
X177075276Y-108920584D01*
X177170584Y-108825276D01*
X177231775Y-108705182D01*
X177252860Y-108572056D01*
X177231775Y-108438930D01*
X177170584Y-108318836D01*
X177170582Y-108318834D01*
X177170579Y-108318830D01*
X177075281Y-108223532D01*
X177075277Y-108223529D01*
X177075276Y-108223528D01*
X176955182Y-108162337D01*
X176955180Y-108162336D01*
X176955177Y-108162335D01*
X176822058Y-108141252D01*
X176822054Y-108141252D01*
X176688934Y-108162335D01*
X176568834Y-108223529D01*
X176568830Y-108223532D01*
X176473532Y-108318830D01*
X176473529Y-108318834D01*
X176412335Y-108438934D01*
X176391252Y-108572053D01*
X140000000Y-108572053D01*
X140000000Y-107697053D01*
X174441252Y-107697053D01*
X174441252Y-107697058D01*
X174462335Y-107830177D01*
X174462336Y-107830180D01*
X174462337Y-107830182D01*
X174523528Y-107950276D01*
X174523529Y-107950277D01*
X174523532Y-107950281D01*
X174618830Y-108045579D01*
X174618834Y-108045582D01*
X174618836Y-108045584D01*
X174738930Y-108106775D01*
X174738932Y-108106775D01*
X174738934Y-108106776D01*
X174872054Y-108127860D01*
X174872056Y-108127860D01*
X174872058Y-108127860D01*
X175005177Y-108106776D01*
X175005177Y-108106775D01*
X175005182Y-108106775D01*
X175125276Y-108045584D01*
X175220584Y-107950276D01*
X175281775Y-107830182D01*
X175285482Y-107806776D01*
X175302860Y-107697058D01*
X175302860Y-107697053D01*
X175281776Y-107563934D01*
X175281775Y-107563932D01*
X175281775Y-107563930D01*
X175220584Y-107443836D01*
X175220582Y-107443834D01*
X175220579Y-107443830D01*
X175173802Y-107397053D01*
X175741252Y-107397053D01*
X175741252Y-107397058D01*
X175762335Y-107530177D01*
X175762336Y-107530180D01*
X175762337Y-107530182D01*
X175779535Y-107563934D01*
X175823529Y-107650277D01*
X175823532Y-107650281D01*
X175918830Y-107745579D01*
X175918834Y-107745582D01*
X175918836Y-107745584D01*
X176038930Y-107806775D01*
X176038932Y-107806775D01*
X176038934Y-107806776D01*
X176172054Y-107827860D01*
X176172056Y-107827860D01*
X176172058Y-107827860D01*
X176305177Y-107806776D01*
X176305177Y-107806775D01*
X176305182Y-107806775D01*
X176425276Y-107745584D01*
X176520584Y-107650276D01*
X176581775Y-107530182D01*
X176602860Y-107397056D01*
X176595174Y-107348529D01*
X176581776Y-107263934D01*
X176581775Y-107263932D01*
X176581775Y-107263930D01*
X176520584Y-107143836D01*
X176520582Y-107143834D01*
X176520579Y-107143830D01*
X176425281Y-107048532D01*
X176425277Y-107048529D01*
X176425276Y-107048528D01*
X176324251Y-106997053D01*
X180866252Y-106997053D01*
X180866252Y-106997058D01*
X180887335Y-107130177D01*
X180887336Y-107130180D01*
X180887337Y-107130182D01*
X180948528Y-107250276D01*
X180948529Y-107250277D01*
X180948532Y-107250281D01*
X181043830Y-107345579D01*
X181043834Y-107345582D01*
X181043836Y-107345584D01*
X181163930Y-107406775D01*
X181163932Y-107406775D01*
X181163934Y-107406776D01*
X181297054Y-107427860D01*
X181297056Y-107427860D01*
X181297058Y-107427860D01*
X181430177Y-107406776D01*
X181430177Y-107406775D01*
X181430182Y-107406775D01*
X181550276Y-107345584D01*
X181645584Y-107250276D01*
X181706775Y-107130182D01*
X181727860Y-106997056D01*
X181726320Y-106987335D01*
X181706776Y-106863934D01*
X181706775Y-106863932D01*
X181706775Y-106863930D01*
X181645584Y-106743836D01*
X181645582Y-106743834D01*
X181645579Y-106743830D01*
X181550281Y-106648532D01*
X181550277Y-106648529D01*
X181550276Y-106648528D01*
X181430182Y-106587337D01*
X181430180Y-106587336D01*
X181430177Y-106587335D01*
X181297058Y-106566252D01*
X181297054Y-106566252D01*
X181163934Y-106587335D01*
X181043834Y-106648529D01*
X181043830Y-106648532D01*
X180948532Y-106743830D01*
X180948529Y-106743834D01*
X180887335Y-106863934D01*
X180866252Y-106997053D01*
X176324251Y-106997053D01*
X176305182Y-106987337D01*
X176305180Y-106987336D01*
X176305177Y-106987335D01*
X176172058Y-106966252D01*
X176172054Y-106966252D01*
X176038934Y-106987335D01*
X176038930Y-106987336D01*
X176038930Y-106987337D01*
X175958867Y-107028131D01*
X175918834Y-107048529D01*
X175918830Y-107048532D01*
X175823532Y-107143830D01*
X175823529Y-107143834D01*
X175762335Y-107263934D01*
X175741252Y-107397053D01*
X175173802Y-107397053D01*
X175125281Y-107348532D01*
X175125277Y-107348529D01*
X175125276Y-107348528D01*
X175005182Y-107287337D01*
X175005180Y-107287336D01*
X175005177Y-107287335D01*
X174872058Y-107266252D01*
X174872054Y-107266252D01*
X174738934Y-107287335D01*
X174618834Y-107348529D01*
X174618830Y-107348532D01*
X174523532Y-107443830D01*
X174523529Y-107443834D01*
X174523528Y-107443836D01*
X174479533Y-107530182D01*
X174462335Y-107563934D01*
X174441252Y-107697053D01*
X140000000Y-107697053D01*
X140000000Y-105299997D01*
X165969196Y-105299997D01*
X165969196Y-105300002D01*
X165990279Y-105433121D01*
X165990280Y-105433124D01*
X165990281Y-105433126D01*
X166051472Y-105553220D01*
X166051473Y-105553221D01*
X166051476Y-105553225D01*
X166146774Y-105648523D01*
X166146778Y-105648526D01*
X166146780Y-105648528D01*
X166266874Y-105709719D01*
X166266876Y-105709719D01*
X166266878Y-105709720D01*
X166399998Y-105730804D01*
X166400000Y-105730804D01*
X166400002Y-105730804D01*
X166533121Y-105709720D01*
X166533121Y-105709719D01*
X166533126Y-105709719D01*
X166557984Y-105697053D01*
X189366252Y-105697053D01*
X189366252Y-105697058D01*
X189387335Y-105830177D01*
X189387336Y-105830180D01*
X189387337Y-105830182D01*
X189448528Y-105950276D01*
X189448529Y-105950277D01*
X189448532Y-105950281D01*
X189543830Y-106045579D01*
X189543834Y-106045582D01*
X189543836Y-106045584D01*
X189663930Y-106106775D01*
X189663932Y-106106775D01*
X189663934Y-106106776D01*
X189797054Y-106127860D01*
X189797056Y-106127860D01*
X189797058Y-106127860D01*
X189930177Y-106106776D01*
X189930177Y-106106775D01*
X189930182Y-106106775D01*
X190050276Y-106045584D01*
X190145584Y-105950276D01*
X190206775Y-105830182D01*
X190222515Y-105730804D01*
X190227860Y-105697058D01*
X190227860Y-105697053D01*
X190206776Y-105563934D01*
X190206775Y-105563932D01*
X190206775Y-105563930D01*
X190145584Y-105443836D01*
X190145582Y-105443834D01*
X190145579Y-105443830D01*
X190050281Y-105348532D01*
X190050277Y-105348529D01*
X190050276Y-105348528D01*
X189930182Y-105287337D01*
X189930180Y-105287336D01*
X189930177Y-105287335D01*
X189797058Y-105266252D01*
X189797054Y-105266252D01*
X189663934Y-105287335D01*
X189663930Y-105287336D01*
X189663930Y-105287337D01*
X189639074Y-105300002D01*
X189543834Y-105348529D01*
X189543830Y-105348532D01*
X189448532Y-105443830D01*
X189448529Y-105443834D01*
X189448528Y-105443836D01*
X189392792Y-105553225D01*
X189387335Y-105563934D01*
X189366252Y-105697053D01*
X166557984Y-105697053D01*
X166653220Y-105648528D01*
X166748528Y-105553220D01*
X166809719Y-105433126D01*
X166809720Y-105433121D01*
X166830804Y-105300002D01*
X166830804Y-105299997D01*
X166809720Y-105166878D01*
X166809719Y-105166876D01*
X166809719Y-105166874D01*
X166748528Y-105046780D01*
X166748526Y-105046778D01*
X166748523Y-105046774D01*
X166653225Y-104951476D01*
X166653221Y-104951473D01*
X166653220Y-104951472D01*
X166533126Y-104890281D01*
X166533124Y-104890280D01*
X166533121Y-104890279D01*
X166400002Y-104869196D01*
X166399998Y-104869196D01*
X166266878Y-104890279D01*
X166146778Y-104951473D01*
X166146774Y-104951476D01*
X166051476Y-105046774D01*
X166051473Y-105046778D01*
X165990279Y-105166878D01*
X165969196Y-105299997D01*
X140000000Y-105299997D01*
X140000000Y-104199997D01*
X172769196Y-104199997D01*
X172769196Y-104200002D01*
X172790279Y-104333121D01*
X172790280Y-104333124D01*
X172790281Y-104333126D01*
X172851472Y-104453220D01*
X172851473Y-104453221D01*
X172851476Y-104453225D01*
X172946774Y-104548523D01*
X172946778Y-104548526D01*
X172946780Y-104548528D01*
X173066874Y-104609719D01*
X173066876Y-104609719D01*
X173066878Y-104609720D01*
X173199998Y-104630804D01*
X173200000Y-104630804D01*
X173200002Y-104630804D01*
X173333121Y-104609720D01*
X173333121Y-104609719D01*
X173333126Y-104609719D01*
X173453220Y-104548528D01*
X173548528Y-104453220D01*
X173609719Y-104333126D01*
X173609720Y-104333121D01*
X173630804Y-104200002D01*
X173630804Y-104199997D01*
X173609720Y-104066878D01*
X173609719Y-104066876D01*
X173609719Y-104066874D01*
X173548528Y-103946780D01*
X173548526Y-103946778D01*
X173548523Y-103946774D01*
X173453225Y-103851476D01*
X173453221Y-103851473D01*
X173453220Y-103851472D01*
X173333126Y-103790281D01*
X173333124Y-103790280D01*
X173333121Y-103790279D01*
X173200002Y-103769196D01*
X173199998Y-103769196D01*
X173066878Y-103790279D01*
X172946778Y-103851473D01*
X172946774Y-103851476D01*
X172851476Y-103946774D01*
X172851473Y-103946778D01*
X172790279Y-104066878D01*
X172769196Y-104199997D01*
X140000000Y-104199997D01*
X140000000Y-102897053D01*
X176966252Y-102897053D01*
X176966252Y-102897058D01*
X176987335Y-103030177D01*
X176987336Y-103030180D01*
X176987337Y-103030182D01*
X177048528Y-103150276D01*
X177048529Y-103150277D01*
X177048532Y-103150281D01*
X177143830Y-103245579D01*
X177143834Y-103245582D01*
X177143836Y-103245584D01*
X177263930Y-103306775D01*
X177263932Y-103306775D01*
X177263934Y-103306776D01*
X177301240Y-103312685D01*
X177364375Y-103342614D01*
X177401306Y-103401926D01*
X177400308Y-103471788D01*
X177369525Y-103522838D01*
X177348529Y-103543834D01*
X177287335Y-103663934D01*
X177266252Y-103797053D01*
X177266252Y-103797058D01*
X177287335Y-103930177D01*
X177287336Y-103930180D01*
X177287337Y-103930182D01*
X177348528Y-104050276D01*
X177348529Y-104050277D01*
X177348532Y-104050281D01*
X177443830Y-104145579D01*
X177443834Y-104145582D01*
X177443836Y-104145584D01*
X177563930Y-104206775D01*
X177563932Y-104206775D01*
X177563934Y-104206776D01*
X177697054Y-104227860D01*
X177697056Y-104227860D01*
X177697058Y-104227860D01*
X177830177Y-104206776D01*
X177830177Y-104206775D01*
X177830182Y-104206775D01*
X177950276Y-104145584D01*
X178045584Y-104050276D01*
X178106775Y-103930182D01*
X178119241Y-103851476D01*
X178127860Y-103797058D01*
X178127860Y-103797053D01*
X178106776Y-103663934D01*
X178106775Y-103663932D01*
X178106775Y-103663930D01*
X178045584Y-103543836D01*
X178045582Y-103543834D01*
X178045579Y-103543830D01*
X178001746Y-103499997D01*
X182969196Y-103499997D01*
X182969196Y-103500002D01*
X182990279Y-103633121D01*
X182990280Y-103633124D01*
X182990281Y-103633126D01*
X183051472Y-103753220D01*
X183051473Y-103753221D01*
X183051476Y-103753225D01*
X183146774Y-103848523D01*
X183146778Y-103848526D01*
X183146780Y-103848528D01*
X183266874Y-103909719D01*
X183266876Y-103909719D01*
X183266878Y-103909720D01*
X183399998Y-103930804D01*
X183400000Y-103930804D01*
X183400002Y-103930804D01*
X183533121Y-103909720D01*
X183533121Y-103909719D01*
X183533126Y-103909719D01*
X183653220Y-103848528D01*
X183748528Y-103753220D01*
X183777147Y-103697053D01*
X205166252Y-103697053D01*
X205166252Y-103697058D01*
X205187335Y-103830177D01*
X205187336Y-103830180D01*
X205187337Y-103830182D01*
X205238290Y-103930182D01*
X205248529Y-103950277D01*
X205248532Y-103950281D01*
X205343830Y-104045579D01*
X205343834Y-104045582D01*
X205343836Y-104045584D01*
X205463930Y-104106775D01*
X205463932Y-104106775D01*
X205463934Y-104106776D01*
X205597054Y-104127860D01*
X205597056Y-104127860D01*
X205597058Y-104127860D01*
X205730177Y-104106776D01*
X205730177Y-104106775D01*
X205730182Y-104106775D01*
X205850276Y-104045584D01*
X205945584Y-103950276D01*
X206006775Y-103830182D01*
X206006776Y-103830177D01*
X206027860Y-103697058D01*
X206027860Y-103697053D01*
X206006776Y-103563934D01*
X206006775Y-103563932D01*
X206006775Y-103563930D01*
X205945584Y-103443836D01*
X205945582Y-103443834D01*
X205945579Y-103443830D01*
X205850281Y-103348532D01*
X205850277Y-103348529D01*
X205850276Y-103348528D01*
X205730182Y-103287337D01*
X205730180Y-103287336D01*
X205730177Y-103287335D01*
X205597058Y-103266252D01*
X205597054Y-103266252D01*
X205463934Y-103287335D01*
X205343834Y-103348529D01*
X205343830Y-103348532D01*
X205248532Y-103443830D01*
X205248529Y-103443834D01*
X205187335Y-103563934D01*
X205166252Y-103697053D01*
X183777147Y-103697053D01*
X183809719Y-103633126D01*
X183823861Y-103543836D01*
X183830804Y-103500002D01*
X183830804Y-103499997D01*
X183809720Y-103366878D01*
X183809719Y-103366876D01*
X183809719Y-103366874D01*
X183748528Y-103246780D01*
X183748526Y-103246778D01*
X183748523Y-103246774D01*
X183653225Y-103151476D01*
X183653221Y-103151473D01*
X183653220Y-103151472D01*
X183533126Y-103090281D01*
X183533124Y-103090280D01*
X183533121Y-103090279D01*
X183400002Y-103069196D01*
X183399998Y-103069196D01*
X183266878Y-103090279D01*
X183146778Y-103151473D01*
X183146774Y-103151476D01*
X183051476Y-103246774D01*
X183051473Y-103246778D01*
X182990279Y-103366878D01*
X182969196Y-103499997D01*
X178001746Y-103499997D01*
X177950281Y-103448532D01*
X177950277Y-103448529D01*
X177950276Y-103448528D01*
X177830182Y-103387337D01*
X177830181Y-103387336D01*
X177830178Y-103387335D01*
X177792869Y-103381426D01*
X177729735Y-103351495D01*
X177692805Y-103292183D01*
X177693804Y-103222321D01*
X177724587Y-103171272D01*
X177745584Y-103150276D01*
X177806775Y-103030182D01*
X177807271Y-103027053D01*
X191166252Y-103027053D01*
X191166252Y-103027058D01*
X191187335Y-103160177D01*
X191187336Y-103160180D01*
X191187337Y-103160182D01*
X191248528Y-103280276D01*
X191248529Y-103280277D01*
X191248532Y-103280281D01*
X191343830Y-103375579D01*
X191343834Y-103375582D01*
X191343836Y-103375584D01*
X191463930Y-103436775D01*
X191463932Y-103436775D01*
X191463934Y-103436776D01*
X191597054Y-103457860D01*
X191597056Y-103457860D01*
X191597058Y-103457860D01*
X191730177Y-103436776D01*
X191730177Y-103436775D01*
X191730182Y-103436775D01*
X191850276Y-103375584D01*
X191945584Y-103280276D01*
X192006775Y-103160182D01*
X192008154Y-103151476D01*
X192027860Y-103027058D01*
X192027860Y-103027053D01*
X192006776Y-102893934D01*
X192006775Y-102893932D01*
X192006775Y-102893930D01*
X191945584Y-102773836D01*
X191945582Y-102773834D01*
X191945579Y-102773830D01*
X191850281Y-102678532D01*
X191850277Y-102678529D01*
X191850276Y-102678528D01*
X191730182Y-102617337D01*
X191730180Y-102617336D01*
X191730177Y-102617335D01*
X191597058Y-102596252D01*
X191597054Y-102596252D01*
X191463934Y-102617335D01*
X191343834Y-102678529D01*
X191343830Y-102678532D01*
X191248532Y-102773830D01*
X191248529Y-102773834D01*
X191187335Y-102893934D01*
X191166252Y-103027053D01*
X177807271Y-103027053D01*
X177827860Y-102897056D01*
X177806775Y-102763930D01*
X177745584Y-102643836D01*
X177745582Y-102643834D01*
X177745579Y-102643830D01*
X177650281Y-102548532D01*
X177650277Y-102548529D01*
X177650276Y-102548528D01*
X177530182Y-102487337D01*
X177530180Y-102487336D01*
X177530177Y-102487335D01*
X177397058Y-102466252D01*
X177397054Y-102466252D01*
X177263934Y-102487335D01*
X177143834Y-102548529D01*
X177143830Y-102548532D01*
X177048532Y-102643830D01*
X177048529Y-102643834D01*
X176987335Y-102763934D01*
X176966252Y-102897053D01*
X140000000Y-102897053D01*
X140000000Y-101097053D01*
X180366252Y-101097053D01*
X180366252Y-101097058D01*
X180387335Y-101230177D01*
X180387336Y-101230180D01*
X180387337Y-101230182D01*
X180448528Y-101350276D01*
X180448529Y-101350277D01*
X180448532Y-101350281D01*
X180543830Y-101445579D01*
X180543834Y-101445582D01*
X180543836Y-101445584D01*
X180663930Y-101506775D01*
X180663932Y-101506775D01*
X180663934Y-101506776D01*
X180797054Y-101527860D01*
X180797056Y-101527860D01*
X180797058Y-101527860D01*
X180930177Y-101506776D01*
X180930177Y-101506775D01*
X180930182Y-101506775D01*
X181050276Y-101445584D01*
X181145584Y-101350276D01*
X181206775Y-101230182D01*
X181206776Y-101230177D01*
X181227860Y-101097058D01*
X181227860Y-101097053D01*
X181206776Y-100963934D01*
X181206775Y-100963932D01*
X181206775Y-100963930D01*
X181145584Y-100843836D01*
X181145582Y-100843834D01*
X181145579Y-100843830D01*
X181050281Y-100748532D01*
X181050277Y-100748529D01*
X181050276Y-100748528D01*
X180944521Y-100694643D01*
X183966252Y-100694643D01*
X183966252Y-100694648D01*
X183987335Y-100827767D01*
X183987336Y-100827770D01*
X183987337Y-100827772D01*
X184048528Y-100947866D01*
X184048529Y-100947867D01*
X184048532Y-100947871D01*
X184143830Y-101043169D01*
X184143834Y-101043172D01*
X184143836Y-101043174D01*
X184263930Y-101104365D01*
X184263932Y-101104365D01*
X184263934Y-101104366D01*
X184397054Y-101125450D01*
X184397056Y-101125450D01*
X184397058Y-101125450D01*
X184530177Y-101104366D01*
X184530177Y-101104365D01*
X184530182Y-101104365D01*
X184650276Y-101043174D01*
X184696397Y-100997053D01*
X205966252Y-100997053D01*
X205966252Y-100997058D01*
X205987335Y-101130177D01*
X205987336Y-101130180D01*
X205987337Y-101130182D01*
X206038290Y-101230182D01*
X206048529Y-101250277D01*
X206048532Y-101250281D01*
X206143830Y-101345579D01*
X206143834Y-101345582D01*
X206143836Y-101345584D01*
X206263930Y-101406775D01*
X206263932Y-101406775D01*
X206263934Y-101406776D01*
X206397054Y-101427860D01*
X206397056Y-101427860D01*
X206397058Y-101427860D01*
X206530177Y-101406776D01*
X206530177Y-101406775D01*
X206530182Y-101406775D01*
X206650276Y-101345584D01*
X206745584Y-101250276D01*
X206806775Y-101130182D01*
X206806776Y-101130177D01*
X206827860Y-100997058D01*
X206827860Y-100997053D01*
X206806776Y-100863934D01*
X206806775Y-100863932D01*
X206806775Y-100863930D01*
X206745584Y-100743836D01*
X206745582Y-100743834D01*
X206745579Y-100743830D01*
X206650281Y-100648532D01*
X206650277Y-100648529D01*
X206650276Y-100648528D01*
X206530182Y-100587337D01*
X206530180Y-100587336D01*
X206530177Y-100587335D01*
X206397058Y-100566252D01*
X206397054Y-100566252D01*
X206263934Y-100587335D01*
X206143834Y-100648529D01*
X206143830Y-100648532D01*
X206048532Y-100743830D01*
X206048529Y-100743834D01*
X205987335Y-100863934D01*
X205966252Y-100997053D01*
X184696397Y-100997053D01*
X184745584Y-100947866D01*
X184806775Y-100827772D01*
X184806776Y-100827767D01*
X184827860Y-100694648D01*
X184827860Y-100694643D01*
X184806776Y-100561524D01*
X184806775Y-100561522D01*
X184806775Y-100561520D01*
X184745584Y-100441426D01*
X184745582Y-100441424D01*
X184745579Y-100441420D01*
X184650281Y-100346122D01*
X184650277Y-100346119D01*
X184650276Y-100346118D01*
X184530182Y-100284927D01*
X184530180Y-100284926D01*
X184530177Y-100284925D01*
X184397058Y-100263842D01*
X184397054Y-100263842D01*
X184263934Y-100284925D01*
X184143834Y-100346119D01*
X184143830Y-100346122D01*
X184048532Y-100441420D01*
X184048529Y-100441424D01*
X183987335Y-100561524D01*
X183966252Y-100694643D01*
X180944521Y-100694643D01*
X180930182Y-100687337D01*
X180930180Y-100687336D01*
X180930177Y-100687335D01*
X180797058Y-100666252D01*
X180797054Y-100666252D01*
X180663934Y-100687335D01*
X180543834Y-100748529D01*
X180543830Y-100748532D01*
X180448532Y-100843830D01*
X180448529Y-100843834D01*
X180448528Y-100843836D01*
X180395520Y-100947871D01*
X180387335Y-100963934D01*
X180366252Y-101097053D01*
X140000000Y-101097053D01*
X140000000Y-99497053D01*
X191566252Y-99497053D01*
X191566252Y-99497058D01*
X191587335Y-99630177D01*
X191587336Y-99630180D01*
X191587337Y-99630182D01*
X191638290Y-99730182D01*
X191648529Y-99750277D01*
X191648532Y-99750281D01*
X191743830Y-99845579D01*
X191743834Y-99845582D01*
X191743836Y-99845584D01*
X191863930Y-99906775D01*
X191863932Y-99906775D01*
X191863934Y-99906776D01*
X191997054Y-99927860D01*
X191997056Y-99927860D01*
X191997058Y-99927860D01*
X192130177Y-99906776D01*
X192130177Y-99906775D01*
X192130182Y-99906775D01*
X192250276Y-99845584D01*
X192345584Y-99750276D01*
X192406775Y-99630182D01*
X192406776Y-99630177D01*
X192412022Y-99597053D01*
X192966252Y-99597053D01*
X192966252Y-99597058D01*
X192987335Y-99730177D01*
X192987336Y-99730180D01*
X192987337Y-99730182D01*
X193048528Y-99850276D01*
X193048529Y-99850277D01*
X193048532Y-99850281D01*
X193143830Y-99945579D01*
X193143834Y-99945582D01*
X193143836Y-99945584D01*
X193263930Y-100006775D01*
X193263932Y-100006775D01*
X193263934Y-100006776D01*
X193397054Y-100027860D01*
X193397056Y-100027860D01*
X193397058Y-100027860D01*
X193530177Y-100006776D01*
X193530177Y-100006775D01*
X193530182Y-100006775D01*
X193650276Y-99945584D01*
X193745584Y-99850276D01*
X193806775Y-99730182D01*
X193806776Y-99730177D01*
X193827860Y-99597058D01*
X193827860Y-99597053D01*
X193806776Y-99463934D01*
X193806775Y-99463932D01*
X193806775Y-99463930D01*
X193745584Y-99343836D01*
X193745582Y-99343834D01*
X193745579Y-99343830D01*
X193650281Y-99248532D01*
X193650277Y-99248529D01*
X193650276Y-99248528D01*
X193530182Y-99187337D01*
X193530180Y-99187336D01*
X193530177Y-99187335D01*
X193397058Y-99166252D01*
X193397054Y-99166252D01*
X193263934Y-99187335D01*
X193143834Y-99248529D01*
X193143830Y-99248532D01*
X193048532Y-99343830D01*
X193048529Y-99343834D01*
X192987335Y-99463934D01*
X192966252Y-99597053D01*
X192412022Y-99597053D01*
X192427860Y-99497058D01*
X192427860Y-99497053D01*
X192406776Y-99363934D01*
X192406775Y-99363932D01*
X192406775Y-99363930D01*
X192345584Y-99243836D01*
X192345582Y-99243834D01*
X192345579Y-99243830D01*
X192250281Y-99148532D01*
X192250277Y-99148529D01*
X192250276Y-99148528D01*
X192130182Y-99087337D01*
X192130180Y-99087336D01*
X192130177Y-99087335D01*
X191997058Y-99066252D01*
X191997054Y-99066252D01*
X191863934Y-99087335D01*
X191743834Y-99148529D01*
X191743830Y-99148532D01*
X191648532Y-99243830D01*
X191648529Y-99243834D01*
X191587335Y-99363934D01*
X191566252Y-99497053D01*
X140000000Y-99497053D01*
X140000000Y-98397053D01*
X186666252Y-98397053D01*
X186666252Y-98397058D01*
X186687335Y-98530177D01*
X186687336Y-98530180D01*
X186687337Y-98530182D01*
X186748528Y-98650276D01*
X186748529Y-98650277D01*
X186748532Y-98650281D01*
X186843830Y-98745579D01*
X186843834Y-98745582D01*
X186843836Y-98745584D01*
X186963930Y-98806775D01*
X186963932Y-98806775D01*
X186963934Y-98806776D01*
X187097054Y-98827860D01*
X187097056Y-98827860D01*
X187097058Y-98827860D01*
X187230177Y-98806776D01*
X187230177Y-98806775D01*
X187230182Y-98806775D01*
X187350276Y-98745584D01*
X187445584Y-98650276D01*
X187506775Y-98530182D01*
X187527860Y-98397056D01*
X187506775Y-98263930D01*
X187445584Y-98143836D01*
X187445582Y-98143834D01*
X187445579Y-98143830D01*
X187350281Y-98048532D01*
X187350277Y-98048529D01*
X187350276Y-98048528D01*
X187230182Y-97987337D01*
X187230180Y-97987336D01*
X187230177Y-97987335D01*
X187097058Y-97966252D01*
X187097054Y-97966252D01*
X186963934Y-97987335D01*
X186843834Y-98048529D01*
X186843830Y-98048532D01*
X186748532Y-98143830D01*
X186748529Y-98143834D01*
X186687335Y-98263934D01*
X186666252Y-98397053D01*
X140000000Y-98397053D01*
X140000000Y-97697053D01*
X195966252Y-97697053D01*
X195966252Y-97697058D01*
X195987335Y-97830177D01*
X195987336Y-97830180D01*
X195987337Y-97830182D01*
X196048528Y-97950276D01*
X196048529Y-97950277D01*
X196048532Y-97950281D01*
X196143830Y-98045579D01*
X196143834Y-98045582D01*
X196143836Y-98045584D01*
X196263930Y-98106775D01*
X196263932Y-98106775D01*
X196263934Y-98106776D01*
X196397054Y-98127860D01*
X196397056Y-98127860D01*
X196397058Y-98127860D01*
X196530177Y-98106776D01*
X196530177Y-98106775D01*
X196530182Y-98106775D01*
X196650276Y-98045584D01*
X196745584Y-97950276D01*
X196806775Y-97830182D01*
X196827860Y-97697056D01*
X196806775Y-97563930D01*
X196745584Y-97443836D01*
X196745582Y-97443834D01*
X196745579Y-97443830D01*
X196650281Y-97348532D01*
X196650277Y-97348529D01*
X196650276Y-97348528D01*
X196530182Y-97287337D01*
X196530180Y-97287336D01*
X196530177Y-97287335D01*
X196397058Y-97266252D01*
X196397054Y-97266252D01*
X196263934Y-97287335D01*
X196143834Y-97348529D01*
X196143830Y-97348532D01*
X196048532Y-97443830D01*
X196048529Y-97443834D01*
X195987335Y-97563934D01*
X195966252Y-97697053D01*
X140000000Y-97697053D01*
X140000000Y-96597053D01*
X176466252Y-96597053D01*
X176466252Y-96597058D01*
X176487335Y-96730177D01*
X176487336Y-96730180D01*
X176487337Y-96730182D01*
X176504535Y-96763934D01*
X176548529Y-96850277D01*
X176548532Y-96850281D01*
X176643830Y-96945579D01*
X176643834Y-96945582D01*
X176643836Y-96945584D01*
X176763930Y-97006775D01*
X176763932Y-97006775D01*
X176763934Y-97006776D01*
X176897054Y-97027860D01*
X176897056Y-97027860D01*
X176897058Y-97027860D01*
X177030177Y-97006776D01*
X177030177Y-97006775D01*
X177030182Y-97006775D01*
X177150276Y-96945584D01*
X177198807Y-96897053D01*
X185966252Y-96897053D01*
X185966252Y-96897058D01*
X185987335Y-97030177D01*
X185987336Y-97030180D01*
X185987337Y-97030182D01*
X186048528Y-97150276D01*
X186048529Y-97150277D01*
X186048532Y-97150281D01*
X186143830Y-97245579D01*
X186143834Y-97245582D01*
X186143836Y-97245584D01*
X186263930Y-97306775D01*
X186263932Y-97306775D01*
X186263934Y-97306776D01*
X186397054Y-97327860D01*
X186397056Y-97327860D01*
X186397058Y-97327860D01*
X186530177Y-97306776D01*
X186530177Y-97306775D01*
X186530182Y-97306775D01*
X186650276Y-97245584D01*
X186745584Y-97150276D01*
X186806775Y-97030182D01*
X186810482Y-97006776D01*
X186827860Y-96897058D01*
X186827860Y-96897053D01*
X186806776Y-96763934D01*
X186806775Y-96763932D01*
X186806775Y-96763930D01*
X186745584Y-96643836D01*
X186745582Y-96643834D01*
X186745579Y-96643830D01*
X186650281Y-96548532D01*
X186650277Y-96548529D01*
X186650276Y-96548528D01*
X186530182Y-96487337D01*
X186530180Y-96487336D01*
X186530177Y-96487335D01*
X186397058Y-96466252D01*
X186397054Y-96466252D01*
X186263934Y-96487335D01*
X186143834Y-96548529D01*
X186143830Y-96548532D01*
X186048532Y-96643830D01*
X186048529Y-96643834D01*
X186048528Y-96643836D01*
X186004533Y-96730182D01*
X185987335Y-96763934D01*
X185966252Y-96897053D01*
X177198807Y-96897053D01*
X177245584Y-96850276D01*
X177306775Y-96730182D01*
X177327860Y-96597056D01*
X177320174Y-96548529D01*
X177306776Y-96463934D01*
X177306775Y-96463932D01*
X177306775Y-96463930D01*
X177245584Y-96343836D01*
X177245582Y-96343834D01*
X177245579Y-96343830D01*
X177192909Y-96291160D01*
X177159424Y-96229837D01*
X177161579Y-96199690D01*
X177122367Y-96214316D01*
X177057227Y-96201117D01*
X177030179Y-96187335D01*
X176897058Y-96166252D01*
X176897054Y-96166252D01*
X176763934Y-96187335D01*
X176643834Y-96248529D01*
X176643830Y-96248532D01*
X176548532Y-96343830D01*
X176548529Y-96343834D01*
X176487335Y-96463934D01*
X176466252Y-96597053D01*
X140000000Y-96597053D01*
X140000000Y-95697053D01*
X177066252Y-95697053D01*
X177066252Y-95697058D01*
X177087335Y-95830177D01*
X177087336Y-95830180D01*
X177087337Y-95830182D01*
X177148528Y-95950276D01*
X177148529Y-95950277D01*
X177148532Y-95950281D01*
X177201202Y-96002951D01*
X177234687Y-96064274D01*
X177232531Y-96094420D01*
X177271744Y-96079795D01*
X177336882Y-96092993D01*
X177363930Y-96106775D01*
X177363932Y-96106775D01*
X177363934Y-96106776D01*
X177497054Y-96127860D01*
X177497056Y-96127860D01*
X177497058Y-96127860D01*
X177630177Y-96106776D01*
X177630177Y-96106775D01*
X177630182Y-96106775D01*
X177750276Y-96045584D01*
X177845584Y-95950276D01*
X177872702Y-95897053D01*
X183966252Y-95897053D01*
X183966252Y-95897058D01*
X183987335Y-96030177D01*
X183987336Y-96030180D01*
X183987337Y-96030182D01*
X184038290Y-96130182D01*
X184048529Y-96150277D01*
X184048532Y-96150281D01*
X184143830Y-96245579D01*
X184143834Y-96245582D01*
X184143836Y-96245584D01*
X184263930Y-96306775D01*
X184263932Y-96306775D01*
X184263934Y-96306776D01*
X184397054Y-96327860D01*
X184397056Y-96327860D01*
X184397058Y-96327860D01*
X184530177Y-96306776D01*
X184530177Y-96306775D01*
X184530182Y-96306775D01*
X184650276Y-96245584D01*
X184745584Y-96150276D01*
X184806775Y-96030182D01*
X184811088Y-96002951D01*
X184812022Y-95997053D01*
X191266252Y-95997053D01*
X191266252Y-95997058D01*
X191287335Y-96130177D01*
X191287336Y-96130180D01*
X191287337Y-96130182D01*
X191348528Y-96250276D01*
X191348529Y-96250277D01*
X191348532Y-96250281D01*
X191443830Y-96345579D01*
X191443834Y-96345582D01*
X191443836Y-96345584D01*
X191563930Y-96406775D01*
X191563932Y-96406775D01*
X191563934Y-96406776D01*
X191697054Y-96427860D01*
X191697056Y-96427860D01*
X191697058Y-96427860D01*
X191830177Y-96406776D01*
X191830177Y-96406775D01*
X191830182Y-96406775D01*
X191950276Y-96345584D01*
X192045584Y-96250276D01*
X192106775Y-96130182D01*
X192110482Y-96106776D01*
X192127860Y-95997058D01*
X192127860Y-95997053D01*
X192106776Y-95863934D01*
X192106775Y-95863932D01*
X192106775Y-95863930D01*
X192045584Y-95743836D01*
X192045582Y-95743834D01*
X192045579Y-95743830D01*
X191950281Y-95648532D01*
X191950277Y-95648529D01*
X191950276Y-95648528D01*
X191830182Y-95587337D01*
X191830180Y-95587336D01*
X191830177Y-95587335D01*
X191697058Y-95566252D01*
X191697054Y-95566252D01*
X191563934Y-95587335D01*
X191443834Y-95648529D01*
X191443830Y-95648532D01*
X191348532Y-95743830D01*
X191348529Y-95743834D01*
X191348528Y-95743836D01*
X191304533Y-95830182D01*
X191287335Y-95863934D01*
X191266252Y-95997053D01*
X184812022Y-95997053D01*
X184827860Y-95897058D01*
X184827860Y-95897053D01*
X184806776Y-95763934D01*
X184806775Y-95763932D01*
X184806775Y-95763930D01*
X184745584Y-95643836D01*
X184745582Y-95643834D01*
X184745579Y-95643830D01*
X184650281Y-95548532D01*
X184650277Y-95548529D01*
X184650276Y-95548528D01*
X184530182Y-95487337D01*
X184530180Y-95487336D01*
X184530177Y-95487335D01*
X184397058Y-95466252D01*
X184397054Y-95466252D01*
X184263934Y-95487335D01*
X184143834Y-95548529D01*
X184143830Y-95548532D01*
X184048532Y-95643830D01*
X184048529Y-95643834D01*
X183987335Y-95763934D01*
X183966252Y-95897053D01*
X177872702Y-95897053D01*
X177906775Y-95830182D01*
X177917268Y-95763934D01*
X177927860Y-95697058D01*
X177927860Y-95697053D01*
X177906776Y-95563934D01*
X177906775Y-95563932D01*
X177906775Y-95563930D01*
X177845584Y-95443836D01*
X177845582Y-95443834D01*
X177845579Y-95443830D01*
X177750281Y-95348532D01*
X177750277Y-95348529D01*
X177750276Y-95348528D01*
X177630182Y-95287337D01*
X177630180Y-95287336D01*
X177630177Y-95287335D01*
X177497058Y-95266252D01*
X177497054Y-95266252D01*
X177363934Y-95287335D01*
X177243834Y-95348529D01*
X177243830Y-95348532D01*
X177148532Y-95443830D01*
X177148529Y-95443834D01*
X177087335Y-95563934D01*
X177066252Y-95697053D01*
X140000000Y-95697053D01*
X140000000Y-92797053D01*
X180366252Y-92797053D01*
X180366252Y-92797058D01*
X180387335Y-92930177D01*
X180387336Y-92930180D01*
X180387337Y-92930182D01*
X180448528Y-93050276D01*
X180448529Y-93050277D01*
X180448532Y-93050281D01*
X180543830Y-93145579D01*
X180543834Y-93145582D01*
X180543836Y-93145584D01*
X180663930Y-93206775D01*
X180663932Y-93206775D01*
X180663934Y-93206776D01*
X180797054Y-93227860D01*
X180797056Y-93227860D01*
X180797058Y-93227860D01*
X180930177Y-93206776D01*
X180930177Y-93206775D01*
X180930182Y-93206775D01*
X181050276Y-93145584D01*
X181145584Y-93050276D01*
X181206775Y-92930182D01*
X181227860Y-92797056D01*
X181206775Y-92663930D01*
X181145584Y-92543836D01*
X181145582Y-92543834D01*
X181145579Y-92543830D01*
X181050281Y-92448532D01*
X181050277Y-92448529D01*
X181050276Y-92448528D01*
X180930182Y-92387337D01*
X180930180Y-92387336D01*
X180930177Y-92387335D01*
X180797058Y-92366252D01*
X180797054Y-92366252D01*
X180663934Y-92387335D01*
X180543834Y-92448529D01*
X180543830Y-92448532D01*
X180448532Y-92543830D01*
X180448529Y-92543834D01*
X180387335Y-92663934D01*
X180366252Y-92797053D01*
X140000000Y-92797053D01*
X140000000Y-85000710D01*
X140000004Y-84999999D01*
X141294922Y-84999999D01*
X141294922Y-85000000D01*
X141315219Y-85387287D01*
X141375886Y-85770323D01*
X141375887Y-85770330D01*
X141476262Y-86144936D01*
X141615244Y-86506994D01*
X141791310Y-86852543D01*
X142002523Y-87177783D01*
X142002525Y-87177785D01*
X142211096Y-87435348D01*
X143705747Y-85940697D01*
X143779588Y-86042330D01*
X143957670Y-86220412D01*
X144059301Y-86294251D01*
X142564650Y-87788902D01*
X142822214Y-87997475D01*
X142822216Y-87997476D01*
X143147456Y-88208689D01*
X143493005Y-88384755D01*
X143855063Y-88523737D01*
X144229669Y-88624112D01*
X144229676Y-88624113D01*
X144612712Y-88684780D01*
X144999999Y-88705078D01*
X145000001Y-88705078D01*
X145387287Y-88684780D01*
X145770323Y-88624113D01*
X145770330Y-88624112D01*
X146144936Y-88523737D01*
X146506994Y-88384755D01*
X146852543Y-88208689D01*
X147177771Y-87997484D01*
X147177784Y-87997474D01*
X147435348Y-87788902D01*
X145940698Y-86294252D01*
X146042330Y-86220412D01*
X146220412Y-86042330D01*
X146294252Y-85940698D01*
X147788902Y-87435348D01*
X147997474Y-87177784D01*
X147997484Y-87177771D01*
X148208689Y-86852543D01*
X148384755Y-86506994D01*
X148523737Y-86144936D01*
X148624112Y-85770330D01*
X148624113Y-85770323D01*
X148651090Y-85599997D01*
X165269196Y-85599997D01*
X165269196Y-85600002D01*
X165290279Y-85733121D01*
X165290280Y-85733124D01*
X165290281Y-85733126D01*
X165346739Y-85843930D01*
X165351473Y-85853221D01*
X165351476Y-85853225D01*
X165446774Y-85948523D01*
X165446778Y-85948526D01*
X165446780Y-85948528D01*
X165566874Y-86009719D01*
X165566876Y-86009719D01*
X165566878Y-86009720D01*
X165699998Y-86030804D01*
X165700000Y-86030804D01*
X165700002Y-86030804D01*
X165833121Y-86009720D01*
X165833121Y-86009719D01*
X165833126Y-86009719D01*
X165897237Y-85977053D01*
X177196252Y-85977053D01*
X177196252Y-85977058D01*
X177217335Y-86110177D01*
X177217336Y-86110180D01*
X177217337Y-86110182D01*
X177278528Y-86230276D01*
X177278529Y-86230277D01*
X177278532Y-86230281D01*
X177373830Y-86325579D01*
X177373834Y-86325582D01*
X177373836Y-86325584D01*
X177493930Y-86386775D01*
X177493932Y-86386775D01*
X177493934Y-86386776D01*
X177627054Y-86407860D01*
X177627056Y-86407860D01*
X177627058Y-86407860D01*
X177760177Y-86386776D01*
X177760177Y-86386775D01*
X177760182Y-86386775D01*
X177880276Y-86325584D01*
X177975584Y-86230276D01*
X178017988Y-86147053D01*
X186566252Y-86147053D01*
X186566252Y-86147058D01*
X186587335Y-86280177D01*
X186587336Y-86280180D01*
X186587337Y-86280182D01*
X186648528Y-86400276D01*
X186648529Y-86400277D01*
X186648532Y-86400281D01*
X186743830Y-86495579D01*
X186743834Y-86495582D01*
X186743836Y-86495584D01*
X186863930Y-86556775D01*
X186863932Y-86556775D01*
X186863934Y-86556776D01*
X186997054Y-86577860D01*
X186997056Y-86577860D01*
X186997058Y-86577860D01*
X187130177Y-86556776D01*
X187130177Y-86556775D01*
X187130182Y-86556775D01*
X187250276Y-86495584D01*
X187345584Y-86400276D01*
X187406775Y-86280182D01*
X187414679Y-86230277D01*
X187427860Y-86147058D01*
X187427860Y-86147053D01*
X187406776Y-86013934D01*
X187406775Y-86013932D01*
X187406775Y-86013930D01*
X187345584Y-85893836D01*
X187345582Y-85893834D01*
X187345579Y-85893830D01*
X187250281Y-85798532D01*
X187250277Y-85798529D01*
X187250276Y-85798528D01*
X187130182Y-85737337D01*
X187130180Y-85737336D01*
X187130177Y-85737335D01*
X186997058Y-85716252D01*
X186997054Y-85716252D01*
X186863934Y-85737335D01*
X186743834Y-85798529D01*
X186743830Y-85798532D01*
X186648532Y-85893830D01*
X186648529Y-85893834D01*
X186587335Y-86013934D01*
X186566252Y-86147053D01*
X178017988Y-86147053D01*
X178036775Y-86110182D01*
X178057860Y-85977056D01*
X178053341Y-85948526D01*
X178036776Y-85843934D01*
X178036775Y-85843932D01*
X178036775Y-85843930D01*
X177975584Y-85723836D01*
X177975582Y-85723834D01*
X177975579Y-85723830D01*
X177880281Y-85628532D01*
X177880277Y-85628529D01*
X177880276Y-85628528D01*
X177760182Y-85567337D01*
X177760180Y-85567336D01*
X177760177Y-85567335D01*
X177627058Y-85546252D01*
X177627054Y-85546252D01*
X177493934Y-85567335D01*
X177373834Y-85628529D01*
X177373830Y-85628532D01*
X177278532Y-85723830D01*
X177278529Y-85723834D01*
X177271650Y-85737335D01*
X177240471Y-85798528D01*
X177217335Y-85843934D01*
X177196252Y-85977053D01*
X165897237Y-85977053D01*
X165953220Y-85948528D01*
X166048528Y-85853220D01*
X166109719Y-85733126D01*
X166109720Y-85733121D01*
X166130804Y-85600002D01*
X166130804Y-85599997D01*
X166109720Y-85466878D01*
X166109719Y-85466876D01*
X166109719Y-85466874D01*
X166074143Y-85397053D01*
X188666252Y-85397053D01*
X188666252Y-85397058D01*
X188687335Y-85530177D01*
X188687336Y-85530180D01*
X188687337Y-85530182D01*
X188737449Y-85628532D01*
X188748529Y-85650277D01*
X188748532Y-85650281D01*
X188843830Y-85745579D01*
X188843834Y-85745582D01*
X188843836Y-85745584D01*
X188963930Y-85806775D01*
X188963932Y-85806775D01*
X188963934Y-85806776D01*
X189097054Y-85827860D01*
X189097056Y-85827860D01*
X189097058Y-85827860D01*
X189230177Y-85806776D01*
X189230177Y-85806775D01*
X189230182Y-85806775D01*
X189350276Y-85745584D01*
X189445584Y-85650276D01*
X189506775Y-85530182D01*
X189506776Y-85530177D01*
X189527860Y-85397058D01*
X189527860Y-85397053D01*
X189506776Y-85263934D01*
X189506775Y-85263932D01*
X189506775Y-85263930D01*
X189445584Y-85143836D01*
X189445582Y-85143834D01*
X189445579Y-85143830D01*
X189350281Y-85048532D01*
X189350277Y-85048529D01*
X189350276Y-85048528D01*
X189255033Y-84999999D01*
X201294922Y-84999999D01*
X201294922Y-85000000D01*
X201315219Y-85387287D01*
X201375886Y-85770323D01*
X201375887Y-85770330D01*
X201476262Y-86144936D01*
X201615244Y-86506994D01*
X201791310Y-86852543D01*
X202002523Y-87177783D01*
X202002525Y-87177785D01*
X202211096Y-87435348D01*
X203705747Y-85940697D01*
X203779588Y-86042330D01*
X203957670Y-86220412D01*
X204059301Y-86294251D01*
X202564650Y-87788902D01*
X202822214Y-87997475D01*
X202822216Y-87997476D01*
X203147456Y-88208689D01*
X203493005Y-88384755D01*
X203855063Y-88523737D01*
X204229669Y-88624112D01*
X204229676Y-88624113D01*
X204612712Y-88684780D01*
X204999999Y-88705078D01*
X205000001Y-88705078D01*
X205387287Y-88684780D01*
X205770323Y-88624113D01*
X205770330Y-88624112D01*
X206144936Y-88523737D01*
X206506994Y-88384755D01*
X206852543Y-88208689D01*
X207177771Y-87997484D01*
X207177784Y-87997474D01*
X207435348Y-87788902D01*
X205940698Y-86294252D01*
X206042330Y-86220412D01*
X206220412Y-86042330D01*
X206294252Y-85940698D01*
X207788902Y-87435348D01*
X207997474Y-87177784D01*
X207997484Y-87177771D01*
X208208689Y-86852543D01*
X208384755Y-86506994D01*
X208523737Y-86144936D01*
X208624112Y-85770330D01*
X208624113Y-85770323D01*
X208684780Y-85387287D01*
X208705078Y-85000000D01*
X208705078Y-84999999D01*
X208684780Y-84612712D01*
X208624113Y-84229676D01*
X208624112Y-84229669D01*
X208523737Y-83855063D01*
X208384755Y-83493005D01*
X208208689Y-83147456D01*
X207997476Y-82822216D01*
X207997475Y-82822214D01*
X207788902Y-82564650D01*
X206294251Y-84059301D01*
X206220412Y-83957670D01*
X206042330Y-83779588D01*
X205940698Y-83705748D01*
X207435349Y-82211096D01*
X207177785Y-82002525D01*
X207177783Y-82002523D01*
X206852543Y-81791310D01*
X206506994Y-81615244D01*
X206144936Y-81476262D01*
X205770330Y-81375887D01*
X205770323Y-81375886D01*
X205387287Y-81315219D01*
X205000001Y-81294922D01*
X204999999Y-81294922D01*
X204612712Y-81315219D01*
X204229676Y-81375886D01*
X204229669Y-81375887D01*
X203855063Y-81476262D01*
X203493005Y-81615244D01*
X203147456Y-81791310D01*
X202822206Y-82002531D01*
X202564649Y-82211095D01*
X202564649Y-82211096D01*
X204059301Y-83705748D01*
X203957670Y-83779588D01*
X203779588Y-83957670D01*
X203705748Y-84059301D01*
X202211096Y-82564649D01*
X202211095Y-82564649D01*
X202002531Y-82822206D01*
X201791310Y-83147456D01*
X201615244Y-83493005D01*
X201476262Y-83855063D01*
X201375887Y-84229669D01*
X201375886Y-84229676D01*
X201315219Y-84612712D01*
X201294922Y-84999999D01*
X189255033Y-84999999D01*
X189230182Y-84987337D01*
X189230180Y-84987336D01*
X189230177Y-84987335D01*
X189097058Y-84966252D01*
X189097054Y-84966252D01*
X188963934Y-84987335D01*
X188963930Y-84987336D01*
X188963930Y-84987337D01*
X188937684Y-85000710D01*
X188843834Y-85048529D01*
X188843830Y-85048532D01*
X188748532Y-85143830D01*
X188748529Y-85143834D01*
X188687335Y-85263934D01*
X188666252Y-85397053D01*
X166074143Y-85397053D01*
X166048528Y-85346780D01*
X166048526Y-85346778D01*
X166048523Y-85346774D01*
X165953225Y-85251476D01*
X165953221Y-85251473D01*
X165953220Y-85251472D01*
X165833126Y-85190281D01*
X165833124Y-85190280D01*
X165833121Y-85190279D01*
X165700002Y-85169196D01*
X165699998Y-85169196D01*
X165566878Y-85190279D01*
X165446778Y-85251473D01*
X165446774Y-85251476D01*
X165351476Y-85346774D01*
X165351473Y-85346778D01*
X165290279Y-85466878D01*
X165269196Y-85599997D01*
X148651090Y-85599997D01*
X148684780Y-85387287D01*
X148705078Y-85000000D01*
X148705078Y-84999999D01*
X148684780Y-84612712D01*
X148624113Y-84229676D01*
X148624112Y-84229669D01*
X148523737Y-83855063D01*
X148384755Y-83493005D01*
X148208689Y-83147456D01*
X147997476Y-82822216D01*
X147997475Y-82822214D01*
X147788902Y-82564650D01*
X146294251Y-84059301D01*
X146220412Y-83957670D01*
X146042330Y-83779588D01*
X145940698Y-83705748D01*
X147435349Y-82211096D01*
X147177785Y-82002525D01*
X147177783Y-82002523D01*
X146852543Y-81791310D01*
X146506994Y-81615244D01*
X146144936Y-81476262D01*
X145770330Y-81375887D01*
X145770323Y-81375886D01*
X145387287Y-81315219D01*
X145000001Y-81294922D01*
X144999999Y-81294922D01*
X144612712Y-81315219D01*
X144229676Y-81375886D01*
X144229669Y-81375887D01*
X143855063Y-81476262D01*
X143493005Y-81615244D01*
X143147456Y-81791310D01*
X142822206Y-82002531D01*
X142564649Y-82211095D01*
X142564649Y-82211096D01*
X144059301Y-83705748D01*
X143957670Y-83779588D01*
X143779588Y-83957670D01*
X143705748Y-84059301D01*
X142211096Y-82564649D01*
X142211095Y-82564649D01*
X142002531Y-82822206D01*
X141791310Y-83147456D01*
X141615244Y-83493005D01*
X141476262Y-83855063D01*
X141375887Y-84229669D01*
X141375886Y-84229676D01*
X141315219Y-84612712D01*
X141294922Y-84999999D01*
X140000004Y-84999999D01*
X140000007Y-84999358D01*
X140002328Y-84786528D01*
X140002793Y-84777073D01*
X140014222Y-84646446D01*
X140039943Y-84352444D01*
X140041355Y-84341725D01*
X140115257Y-83922602D01*
X140117589Y-83912083D01*
X140227749Y-83500959D01*
X140230989Y-83490683D01*
X140376558Y-83090736D01*
X140380679Y-83080786D01*
X140560552Y-82695047D01*
X140565532Y-82685480D01*
X140778332Y-82316900D01*
X140784125Y-82307806D01*
X141028246Y-81959165D01*
X141034812Y-81950609D01*
X141308394Y-81624566D01*
X141315681Y-81616615D01*
X141616615Y-81315681D01*
X141624566Y-81308394D01*
X141950609Y-81034812D01*
X141959165Y-81028246D01*
X142307806Y-80784125D01*
X142316900Y-80778332D01*
X142685480Y-80565532D01*
X142695047Y-80560552D01*
X143080786Y-80380679D01*
X143090736Y-80376558D01*
X143490683Y-80230989D01*
X143500959Y-80227749D01*
X143912083Y-80117589D01*
X143922602Y-80115257D01*
X144341732Y-80041353D01*
X144352444Y-80039943D01*
X144777085Y-80002792D01*
X144786517Y-80002328D01*
X144999358Y-80000006D01*
X145000710Y-80000000D01*
X204999308Y-80000000D01*
X205000647Y-80000006D01*
G37*
%TD.AperFunction*%
%TD*%
M02*
