M48
; DRILL file {KiCad 7.0.7-7.0.7~ubuntu22.04.1} date jeu. 07 sept. 2023 14:28:57
; FORMAT={-:-/ absolute / inch / decimal}
; #@! TF.CreationDate,2023-09-07T14:28:57+02:00
; #@! TF.GenerationSoftware,Kicad,Pcbnew,7.0.7-7.0.7~ubuntu22.04.1
; #@! TF.FileFunction,Plated,1,4,PTH
FMAT,2
INCH
; #@! TA.AperFunction,Plated,PTH,ViaDrill
T1C0.0157
; #@! TA.AperFunction,Plated,PTH,ComponentDrill
T2C0.0197
; #@! TA.AperFunction,Plated,PTH,ComponentDrill
T3C0.0236
; #@! TA.AperFunction,Plated,PTH,ComponentDrill
T4C0.0300
; #@! TA.AperFunction,Plated,PTH,ComponentDrill
T5C0.0354
; #@! TA.AperFunction,Plated,PTH,ComponentDrill
T6C0.0374
; #@! TA.AperFunction,Plated,PTH,ComponentDrill
T7C0.0390
; #@! TA.AperFunction,Plated,PTH,ComponentDrill
T8C0.0394
; #@! TA.AperFunction,Plated,PTH,ComponentDrill
T9C0.0430
; #@! TA.AperFunction,Plated,PTH,ComponentDrill
T10C0.0433
; #@! TA.AperFunction,Plated,PTH,ComponentDrill
T11C0.0551
; #@! TA.AperFunction,Plated,PTH,ComponentDrill
T12C0.0590
; #@! TA.AperFunction,Plated,PTH,ComponentDrill
T13C0.0630
; #@! TA.AperFunction,Plated,PTH,ComponentDrill
T14C0.0787
; #@! TA.AperFunction,Plated,PTH,ComponentDrill
T15C0.1260
; #@! TA.AperFunction,Plated,PTH,ComponentDrill
T16C0.1260
%
G90
G05
T1
X1.3386Y-4.311
X1.3386Y-4.3504
X1.3386Y-4.3898
X1.3386Y-4.4291
X1.3386Y-4.4685
X1.3386Y-4.6654
X1.3386Y-4.7343
X1.3386Y-4.813
X1.3386Y-4.8917
X1.3386Y-4.9705
X1.3484Y-0.8661
X1.3484Y-0.9449
X1.3484Y-1.0236
X1.3484Y-1.1024
X1.3484Y-1.1811
X1.3484Y-1.2598
X1.3484Y-1.3386
X1.3484Y-1.4173
X1.3484Y-1.4961
X1.3484Y-1.5748
X1.3484Y-1.6535
X1.3484Y-1.7323
X1.3484Y-1.811
X1.3484Y-1.8898
X1.3484Y-1.9783
X1.3484Y-2.0472
X1.3484Y-2.126
X1.3484Y-2.2047
X1.3484Y-2.2835
X1.3484Y-2.3622
X1.3484Y-2.4409
X1.3484Y-2.5197
X1.3484Y-2.5984
X1.3484Y-2.6772
X1.3484Y-2.7657
X1.3484Y-2.8346
X1.3484Y-2.9134
X1.3484Y-2.9921
X1.3484Y-3.0709
X1.3484Y-3.1496
X1.3484Y-3.2283
X1.3484Y-3.3071
X1.3484Y-3.3858
X1.3484Y-3.4646
X1.3484Y-3.5433
X1.3484Y-3.622
X1.3484Y-3.7008
X1.3484Y-3.7402
X1.3484Y-3.7795
X1.3484Y-3.8189
X1.3484Y-3.8583
X1.378Y-4.311
X1.378Y-4.3504
X1.378Y-4.3898
X1.378Y-4.4291
X1.378Y-4.4685
X1.3878Y-3.7008
X1.3878Y-3.7402
X1.3878Y-3.7795
X1.3878Y-3.8189
X1.3878Y-3.8583
X1.3976Y-4.6654
X1.4173Y-4.311
X1.4173Y-4.3504
X1.4173Y-4.3898
X1.4173Y-4.4291
X1.4173Y-4.4685
X1.4272Y-3.7008
X1.4272Y-3.7402
X1.4272Y-3.7795
X1.4272Y-3.8189
X1.4272Y-3.8583
X1.4567Y-4.311
X1.4567Y-4.3504
X1.4567Y-4.3898
X1.4606Y-4.7323
X1.4665Y-3.7008
X1.4665Y-3.7402
X1.4665Y-3.7795
X1.4665Y-3.8189
X1.4665Y-3.8583
X1.4961Y-4.3504
X1.4961Y-4.3898
X1.5059Y-3.7008
X1.5059Y-3.7402
X1.5059Y-3.7795
X1.5059Y-3.8189
X1.5059Y-3.8583
X1.5335Y-4.8189
X1.5453Y-3.7008
X1.5453Y-3.7402
X1.5453Y-3.7795
X1.5453Y-3.8189
X1.5453Y-3.8583
X1.5846Y-3.7008
X1.5846Y-3.7402
X1.5846Y-3.7795
X1.5846Y-3.8189
X1.5846Y-3.8583
X1.6142Y-0.5906
X1.6142Y-5.2362
X1.6697Y-4.7555
X1.6929Y-0.5906
X1.6929Y-3.622
X1.6929Y-4.4858
X1.6929Y-4.8563
X1.6929Y-5.2362
X1.7047Y-3.7953
X1.7398Y-4.6657
X1.752Y-3.1299
X1.752Y-3.2283
X1.7717Y-0.5906
X1.7717Y-2.7362
X1.7717Y-2.874
X1.7717Y-5.2362
X1.7756Y-2.6535
X1.7913Y-3.7992
X1.811Y-3.5236
X1.8307Y-3.7992
X1.8307Y-3.8386
X1.8402Y-4.6657
X1.8504Y-0.5906
X1.8504Y-3.6024
X1.8504Y-5.2362
X1.8662Y-4.2028
X1.8701Y-3.7992
X1.8701Y-3.8386
X1.9094Y-1.3091
X1.9094Y-3.5236
X1.9094Y-3.7598
X1.9094Y-3.7992
X1.9094Y-3.8386
X1.9291Y-0.5906
X1.9291Y-4.6654
X1.9291Y-5.2362
X1.937Y-4.8583
X1.9488Y-3.7598
X1.9488Y-3.7992
X1.9488Y-3.8386
X1.9685Y-2.8839
X1.9685Y-3.0709
X1.9685Y-3.1496
X1.9882Y-1.3091
X1.9882Y-1.3976
X1.9882Y-2.5984
X1.9882Y-3.6024
X1.9882Y-3.7598
X1.9882Y-3.7992
X1.9882Y-3.8386
X2.0079Y-0.5906
X2.0079Y-4.6654
X2.0079Y-5.2362
X2.0276Y-3.7598
X2.0276Y-3.7992
X2.0276Y-3.8386
X2.0669Y-1.3091
X2.0669Y-1.3976
X2.0669Y-2.5984
X2.0669Y-3.7598
X2.0669Y-3.7992
X2.0669Y-3.8386
X2.0866Y-0.5906
X2.0866Y-4.6654
X2.0866Y-5.2362
X2.1114Y-4.485
X2.1457Y-1.3091
X2.1457Y-1.3976
X2.1457Y-2.5984
X2.1535Y-4.8524
X2.1654Y-0.5906
X2.1654Y-4.6654
X2.1654Y-5.2362
X2.1756Y-4.7713
X2.2047Y-4.4815
X2.2146Y-4.6693
X2.2244Y-1.3091
X2.2244Y-1.3976
X2.2244Y-2.5984
X2.2441Y-0.5906
X2.2441Y-5.2362
X2.248Y-4.0315
X2.2994Y-4.7923
X2.3031Y-1.3091
X2.3031Y-1.3976
X2.3031Y-2.5984
X2.3228Y-0.5906
X2.3228Y-5.2362
X2.3268Y-4.8839
X2.3516Y-4.3594
X2.3819Y-1.3091
X2.3819Y-1.3976
X2.3819Y-2.5984
X2.4016Y-0.5906
X2.4016Y-5.2756
X2.4409Y-5.3543
X2.4449Y-5.063
X2.4489Y-4.7836
X2.4547Y-4.8602
X2.4606Y-1.3091
X2.4606Y-1.3976
X2.4606Y-2.5984
X2.4803Y-0.5906
X2.4803Y-5.4331
X2.4803Y-5.5118
X2.4803Y-5.748
X2.4803Y-5.8268
X2.4803Y-5.9055
X2.4886Y-4.3618
X2.4886Y-4.4756
X2.5197Y-5.9843
X2.5394Y-1.3091
X2.5394Y-1.3976
X2.5394Y-2.5984
X2.55Y-5.0807
X2.5591Y-0.5906
X2.5924Y-5.0237
X2.5984Y-2.6575
X2.5984Y-2.7362
X2.5984Y-2.815
X2.5984Y-2.8937
X2.5984Y-2.9724
X2.5984Y-3.0512
X2.5984Y-3.1299
X2.5984Y-3.2087
X2.5984Y-3.2874
X2.5984Y-3.3661
X2.5984Y-3.4449
X2.5984Y-3.5236
X2.5984Y-3.6024
X2.5984Y-3.6811
X2.5984Y-5.0807
X2.5984Y-6.063
X2.6181Y-1.3091
X2.6181Y-1.3976
X2.6378Y-0.5906
X2.6378Y-3.7205
X2.6772Y-6.1417
X2.6831Y-5.0
X2.685Y-4.8622
X2.6969Y-1.3091
X2.6969Y-1.3976
X2.6988Y-5.1654
X2.7165Y-0.5906
X2.7165Y-3.7205
X2.7559Y-6.2205
X2.7697Y-5.002
X2.7756Y-1.3091
X2.7756Y-1.3976
X2.7756Y-4.8622
X2.7953Y-0.5906
X2.7953Y-3.7205
X2.8346Y-6.2992
X2.8543Y-1.3091
X2.8543Y-1.3976
X2.874Y-0.5906
X2.874Y-3.7205
X2.9134Y-6.378
X2.9331Y-1.3091
X2.9331Y-1.3976
X2.937Y-5.0669
X2.937Y-5.6024
X2.937Y-5.6811
X2.9528Y-0.5906
X2.9528Y-3.7205
X2.9921Y-6.4567
X3.0118Y-1.3091
X3.0118Y-1.3976
X3.0315Y-0.5906
X3.0315Y-3.7205
X3.0709Y-6.5354
X3.0709Y-6.6142
X3.0709Y-6.6929
X3.0709Y-6.7717
X3.0709Y-6.8504
X3.0709Y-6.9291
X3.0709Y-7.0079
X3.0709Y-7.0866
X3.0709Y-7.1654
X3.0709Y-7.2441
X3.0709Y-7.3228
X3.0709Y-7.4016
X3.0709Y-7.4803
X3.0709Y-7.5591
X3.0709Y-7.6378
X3.0709Y-7.7165
X3.0709Y-7.7953
X3.0709Y-7.874
X3.0709Y-7.9528
X3.0709Y-8.0315
X3.0709Y-8.1102
X3.0709Y-8.189
X3.0827Y-3.9665
X3.0906Y-1.3091
X3.0906Y-1.3976
X3.0945Y-5.6732
X3.1102Y-0.5906
X3.1102Y-3.7205
X3.1102Y-8.2283
X3.1299Y-5.6024
X3.1299Y-5.6969
X3.1693Y-1.3091
X3.1693Y-1.3976
X3.189Y-0.5906
X3.189Y-3.7205
X3.189Y-8.2283
X3.2087Y-4.9961
X3.2087Y-5.3837
X3.248Y-1.3091
X3.248Y-1.3976
X3.248Y-4.9961
X3.248Y-5.3837
X3.2677Y-0.5906
X3.2677Y-3.7205
X3.2677Y-8.2283
X3.2874Y-4.9961
X3.2874Y-5.3837
X3.3189Y-5.6024
X3.3189Y-5.6969
X3.3268Y-1.3091
X3.3268Y-1.3976
X3.3346Y-4.9173
X3.3465Y-0.5906
X3.3465Y-3.7205
X3.3465Y-8.2283
X3.3504Y-3.9665
X3.4039Y-5.3128
X3.4055Y-1.3091
X3.4055Y-1.3976
X3.4252Y-0.5906
X3.4252Y-3.7205
X3.4252Y-8.2283
X3.4582Y-4.7362
X3.4843Y-1.3091
X3.4843Y-1.3976
X3.4843Y-4.815
X3.4921Y-4.9882
X3.5039Y-0.5906
X3.5039Y-3.7205
X3.5039Y-8.2283
X3.5069Y-3.961
X3.5463Y-3.961
X3.5472Y-4.9882
X3.5512Y-4.9014
X3.5512Y-5.6024
X3.5512Y-5.6969
X3.563Y-1.3091
X3.563Y-1.3976
X3.5728Y-4.8209
X3.5827Y-0.5906
X3.5827Y-3.7205
X3.5827Y-8.2283
X3.5856Y-3.961
X3.6417Y-1.3091
X3.6417Y-1.3976
X3.658Y-5.1688
X3.661Y-5.0689
X3.6614Y-0.5906
X3.6614Y-8.2283
X3.6732Y-4.7126
X3.6732Y-4.8189
X3.6998Y-5.0974
X3.7205Y-1.3091
X3.7205Y-1.3976
X3.7256Y-4.4461
X3.7306Y-5.1218
X3.7313Y-5.1614
X3.7362Y-4.9606
X3.7402Y-0.5906
X3.7402Y-8.2283
X3.7638Y-4.8386
X3.7992Y-1.3091
X3.7992Y-1.3976
X3.8189Y-0.5906
X3.8189Y-8.2283
X3.8622Y-5.6024
X3.8622Y-5.6969
X3.8684Y-4.8485
X3.878Y-1.3091
X3.878Y-1.3976
X3.8898Y-5.1378
X3.8976Y-0.5906
X3.8976Y-8.2283
X3.9094Y-4.8229
X3.9173Y-4.9764
X3.9567Y-1.3091
X3.9567Y-1.3976
X3.9677Y-4.2898
X3.9764Y-0.5906
X3.9764Y-4.7658
X3.9764Y-8.2283
X4.0354Y-1.3091
X4.0354Y-1.3976
X4.0472Y-6.0236
X4.0551Y-0.5906
X4.0551Y-8.2283
X4.063Y-5.7411
X4.065Y-4.1535
X4.0945Y-6.4537
X4.0984Y-5.5984
X4.1102Y-6.5906
X4.1142Y-1.3091
X4.1142Y-1.3976
X4.1181Y-5.9803
X4.1339Y-0.5906
X4.1339Y-8.2283
X4.1811Y-4.1526
X4.1811Y-5.3307
X4.1811Y-5.6969
X4.185Y-4.9173
X4.189Y-5.626
X4.1929Y-1.3091
X4.1929Y-1.3976
X4.1929Y-5.1417
X4.1969Y-6.7795
X4.2008Y-4.9646
X4.2008Y-6.9764
X4.2126Y-0.5906
X4.2126Y-3.7205
X4.2126Y-8.2283
X4.248Y-5.9803
X4.2638Y-6.6102
X4.2717Y-1.3091
X4.2717Y-1.3976
X4.2913Y-0.5906
X4.2913Y-3.7205
X4.2913Y-8.2283
X4.2992Y-5.742
X4.315Y-7.0394
X4.3307Y-6.4537
X4.3366Y-4.7886
X4.3386Y-6.5906
X4.3504Y-1.3091
X4.3504Y-1.3976
X4.3622Y-6.6732
X4.3648Y-7.2703
X4.3661Y-7.0394
X4.3701Y-0.5906
X4.3701Y-3.7205
X4.3701Y-8.2283
X4.3819Y-5.6772
X4.3819Y-5.9646
X4.3819Y-6.0472
X4.3976Y-4.9685
X4.4173Y-5.3307
X4.4173Y-5.5906
X4.4213Y-7.0394
X4.4291Y-1.3091
X4.4291Y-1.3976
X4.4409Y-7.626
X4.4488Y-0.5906
X4.4488Y-3.7205
X4.4488Y-8.2283
X4.4528Y-5.6457
X4.4528Y-5.9646
X4.4528Y-6.0472
X4.4646Y-4.9252
X4.4646Y-7.2717
X4.4764Y-6.5945
X4.4882Y-5.1378
X4.5079Y-1.3091
X4.5079Y-1.3976
X4.5157Y-4.8583
X4.5197Y-7.2634
X4.5276Y-0.5906
X4.5276Y-3.7205
X4.5276Y-8.2283
X4.5354Y-5.741
X4.5354Y-7.1772
X4.5433Y-7.626
X4.5648Y-7.2695
X4.5669Y-6.4537
X4.5787Y-4.9646
X4.5866Y-1.3091
X4.5866Y-1.3976
X4.6063Y-0.5906
X4.6063Y-3.7205
X4.6063Y-8.2283
X4.622Y-6.5748
X4.622Y-7.2283
X4.6299Y-6.7874
X4.6299Y-6.8858
X4.6299Y-6.9843
X4.6378Y-4.9528
X4.6496Y-5.9449
X4.6535Y-5.3307
X4.6535Y-5.5945
X4.6535Y-7.626
X4.6654Y-1.3091
X4.6654Y-1.3976
X4.6654Y-7.2717
X4.6654Y-7.4567
X4.685Y-0.5906
X4.685Y-3.7205
X4.685Y-8.2283
X4.7047Y-6.5748
X4.7087Y-7.2441
X4.7283Y-4.8622
X4.7441Y-1.3091
X4.7441Y-1.3976
X4.7441Y-6.0512
X4.7638Y-0.5906
X4.7638Y-3.7205
X4.7638Y-8.2283
X4.7717Y-5.742
X4.7835Y-5.1417
X4.8031Y-6.4537
X4.8228Y-1.3091
X4.8228Y-1.3976
X4.8425Y-0.5906
X4.8425Y-3.7205
X4.8425Y-8.2283
X4.8465Y-4.9721
X4.8504Y-5.9764
X4.8622Y-6.5551
X4.9016Y-1.3091
X4.9016Y-1.3976
X4.9016Y-4.937
X4.9055Y-6.2126
X4.9213Y-0.5906
X4.9213Y-3.7205
X4.9213Y-8.2283
X4.9252Y-4.8583
X4.9331Y-5.5197
X4.9567Y-3.9665
X4.9803Y-1.3091
X4.9803Y-1.3976
X5.0Y-0.5906
X5.0Y-3.7205
X5.0Y-8.2283
X5.0236Y-6.2717
X5.0276Y-5.1417
X5.0276Y-6.1496
X5.0391Y-5.3434
X5.0413Y-5.3041
X5.0591Y-1.3091
X5.0591Y-1.3976
X5.0787Y-0.5906
X5.0787Y-3.7205
X5.0787Y-5.378
X5.0787Y-8.2283
X5.0984Y-5.4919
X5.122Y-6.6693
X5.1299Y-4.9409
X5.1378Y-1.3091
X5.1378Y-1.3976
X5.1575Y-0.5906
X5.1575Y-3.7205
X5.1575Y-8.2283
X5.185Y-4.8583
X5.2047Y-5.1417
X5.2165Y-1.3091
X5.2165Y-1.3976
X5.2244Y-3.9665
X5.2362Y-0.5906
X5.2362Y-3.7205
X5.2362Y-8.2283
X5.2638Y-5.4016
X5.2638Y-6.0433
X5.2717Y-5.1654
X5.274Y-5.1177
X5.2874Y-6.122
X5.2953Y-1.3091
X5.2953Y-1.3976
X5.315Y-0.5906
X5.315Y-3.7205
X5.315Y-8.2283
X5.3307Y-4.7382
X5.3317Y-5.4665
X5.3317Y-5.5232
X5.3445Y-4.8681
X5.3465Y-5.7638
X5.3504Y-4.9213
X5.3543Y-5.937
X5.3543Y-6.2992
X5.3543Y-6.4606
X5.3543Y-6.5118
X5.3583Y-6.622
X5.3657Y-6.5635
X5.374Y-1.3091
X5.374Y-1.3976
X5.3799Y-3.961
X5.3898Y-6.0197
X5.3937Y-0.5906
X5.3937Y-3.7205
X5.3937Y-8.2283
X5.4011Y-5.0359
X5.4193Y-3.961
X5.4252Y-5.8661
X5.429Y-5.7539
X5.4291Y-4.8858
X5.4291Y-4.9843
X5.437Y-6.7136
X5.4419Y-5.0587
X5.4449Y-6.5472
X5.4528Y-1.3091
X5.4528Y-1.3976
X5.4587Y-3.961
X5.4616Y-4.8465
X5.4724Y-0.5906
X5.4724Y-3.7205
X5.4724Y-8.2283
X5.4843Y-5.1496
X5.4843Y-5.3661
X5.4849Y-6.7136
X5.4854Y-5.0658
X5.4887Y-5.7885
X5.4921Y-6.6339
X5.4958Y-5.8458
X5.4961Y-6.2795
X5.5Y-5.9094
X5.5Y-6.1496
X5.5248Y-6.7141
X5.5315Y-1.3091
X5.5315Y-1.3976
X5.5315Y-5.0372
X5.5413Y-4.7297
X5.5495Y-4.8172
X5.5512Y-0.5906
X5.5512Y-8.2283
X5.5649Y-6.7143
X5.5807Y-4.9606
X5.5976Y-4.4469
X5.6051Y-6.7144
X5.6063Y-5.1535
X5.6063Y-5.4449
X5.6102Y-1.3091
X5.6102Y-1.3976
X5.6102Y-5.2992
X5.6142Y-6.0354
X5.628Y-5.7205
X5.6299Y-0.5906
X5.6299Y-8.2283
X5.6378Y-4.843
X5.644Y-6.7204
X5.6594Y-6.7618
X5.6745Y-5.7684
X5.6772Y-6.8031
X5.689Y-1.3091
X5.689Y-1.3976
X5.6929Y-5.2559
X5.6969Y-5.4134
X5.7087Y-0.5906
X5.7087Y-7.8622
X5.7087Y-8.2283
X5.712Y-5.7808
X5.7126Y-6.1417
X5.7165Y-6.5472
X5.7323Y-5.1496
X5.7323Y-5.8189
X5.7479Y-4.8702
X5.7559Y-5.4646
X5.7559Y-7.185
X5.7598Y-6.1535
X5.7677Y-1.3091
X5.7677Y-1.3976
X5.7717Y-6.7214
X5.7776Y-4.9803
X5.7874Y-0.5906
X5.7874Y-8.2283
X5.7959Y-5.0823
X5.7989Y-6.1488
X5.8071Y-7.8701
X5.811Y-6.0472
X5.815Y-6.2756
X5.8189Y-5.8661
X5.8268Y-4.8228
X5.8268Y-4.9213
X5.8386Y-5.1063
X5.8423Y-6.1469
X5.8465Y-1.3091
X5.8465Y-1.3976
X5.8652Y-5.8688
X5.8661Y-0.5906
X5.8661Y-8.2283
X5.8701Y-6.0472
X5.8858Y-4.9016
X5.8858Y-6.1516
X5.8976Y-6.5472
X5.9252Y-1.3091
X5.9252Y-1.3976
X5.9291Y-6.6772
X5.936Y-4.1535
X5.941Y-6.8553
X5.9449Y-0.5906
X5.9449Y-8.2283
X5.9479Y-6.5354
X5.9488Y-6.7519
X5.9667Y-5.9703
X5.9803Y-6.6349
X5.9843Y-5.1063
X5.9843Y-6.8583
X5.9952Y-6.0118
X6.0039Y-1.3091
X6.0039Y-1.3976
X6.0066Y-5.9741
X6.0118Y-6.7628
X6.0118Y-7.7992
X6.0236Y-0.5906
X6.0236Y-8.2283
X6.0307Y-6.1024
X6.0315Y-6.8592
X6.0316Y-6.063
X6.0354Y-6.9055
X6.0523Y-6.0024
X6.0571Y-4.1555
X6.0591Y-6.7559
X6.0636Y-6.0401
X6.0748Y-4.7559
X6.0748Y-4.9646
X6.0796Y-6.2647
X6.0827Y-1.3091
X6.0827Y-1.3976
X6.0827Y-7.7126
X6.0996Y-7.1978
X6.1024Y-0.5906
X6.1024Y-3.7205
X6.1024Y-7.8031
X6.1024Y-8.2283
X6.1102Y-4.8622
X6.1142Y-6.2835
X6.1328Y-7.1682
X6.1496Y-5.7247
X6.1516Y-6.3051
X6.1614Y-1.3091
X6.1614Y-1.3976
X6.1649Y-5.7642
X6.1693Y-7.1112
X6.1772Y-6.4016
X6.1811Y-0.5906
X6.1811Y-3.7205
X6.1811Y-6.4843
X6.1811Y-8.2283
X6.185Y-6.9055
X6.1869Y-7.2448
X6.1929Y-7.7756
X6.1969Y-6.3002
X6.1969Y-6.7913
X6.2039Y-7.2841
X6.2107Y-7.0935
X6.2176Y-6.7579
X6.2224Y-4.7886
X6.2283Y-7.6772
X6.2362Y-6.4055
X6.2402Y-1.3091
X6.2402Y-1.3976
X6.2441Y-6.315
X6.2559Y-5.1063
X6.2598Y-0.5906
X6.2598Y-3.7205
X6.2598Y-7.1065
X6.2598Y-8.2283
X6.2628Y-6.9016
X6.2663Y-6.5719
X6.2717Y-7.0472
X6.2812Y-6.8668
X6.2934Y-6.7686
X6.2962Y-7.078
X6.2992Y-6.1417
X6.311Y-6.5689
X6.3189Y-1.3091
X6.3189Y-1.3976
X6.3268Y-6.6142
X6.3346Y-4.9606
X6.3346Y-6.7096
X6.3386Y-0.5906
X6.3386Y-3.7205
X6.3386Y-6.1122
X6.3386Y-6.1713
X6.3386Y-7.7874
X6.3386Y-8.2283
X6.3395Y-6.7734
X6.3416Y-6.8127
X6.377Y-6.7854
X6.3809Y-6.8875
X6.3937Y-4.8622
X6.3976Y-1.3091
X6.3976Y-1.3976
X6.4016Y-6.6024
X6.4016Y-7.1181
X6.4167Y-6.9042
X6.4173Y-0.5906
X6.4173Y-3.7205
X6.4173Y-8.2283
X6.4214Y-6.8651
X6.439Y-5.0645
X6.4408Y-6.8061
X6.4409Y-7.1181
X6.4449Y-7.874
X6.4469Y-6.1122
X6.4685Y-6.8976
X6.4764Y-1.3091
X6.4764Y-1.3976
X6.4803Y-7.1181
X6.4808Y-6.6383
X6.4874Y-6.8039
X6.4882Y-6.6939
X6.4961Y-0.5906
X6.4961Y-3.7205
X6.4961Y-8.2283
X6.5039Y-6.4449
X6.5079Y-6.5709
X6.5096Y-7.0098
X6.5118Y-7.7913
X6.5157Y-5.0906
X6.5197Y-7.6063
X6.5236Y-6.7864
X6.5433Y-6.9134
X6.5433Y-7.874
X6.5551Y-1.3091
X6.5551Y-1.3976
X6.5748Y-0.5906
X6.5748Y-3.7205
X6.5748Y-8.2283
X6.5787Y-6.9606
X6.5787Y-7.1339
X6.5906Y-4.9646
X6.5906Y-6.5472
X6.5984Y-4.8661
X6.626Y-6.1457
X6.626Y-6.2205
X6.6339Y-1.3091
X6.6339Y-1.3976
X6.6457Y-6.815
X6.6496Y-6.6811
X6.6535Y-0.5906
X6.6535Y-3.7205
X6.6535Y-8.2283
X6.6614Y-7.4567
X6.6693Y-7.8583
X6.689Y-7.6181
X6.6949Y-6.5492
X6.6949Y-6.5925
X6.7126Y-1.3091
X6.7126Y-1.3976
X6.7131Y-6.7721
X6.7165Y-4.9646
X6.7323Y-0.5906
X6.7323Y-3.7205
X6.7323Y-8.2283
X6.7571Y-6.7532
X6.7598Y-6.5787
X6.7613Y-6.7977
X6.7756Y-5.0866
X6.7795Y-4.7717
X6.7913Y-1.3091
X6.7913Y-1.3976
X6.7985Y-6.7368
X6.8031Y-4.8819
X6.8031Y-6.874
X6.8031Y-7.1024
X6.8071Y-7.3189
X6.811Y-0.5906
X6.811Y-3.7205
X6.811Y-8.2283
X6.8258Y-6.7719
X6.8268Y-3.9665
X6.8357Y-6.5524
X6.857Y-6.7034
X6.8583Y-6.4803
X6.8661Y-6.1496
X6.8661Y-6.2205
X6.8701Y-1.3091
X6.8701Y-1.3976
X6.874Y-6.5433
X6.8819Y-7.4252
X6.8898Y-0.5906
X6.8898Y-3.7205
X6.8898Y-6.7874
X6.8898Y-8.2283
X6.9055Y-6.7087
X6.9252Y-6.9803
X6.9252Y-7.2402
X6.9275Y-6.5955
X6.9352Y-6.5475
X6.9488Y-1.3091
X6.9488Y-1.3976
X6.9685Y-0.5906
X6.9685Y-3.7205
X6.9685Y-8.2283
X6.9724Y-6.6969
X6.9846Y-6.5891
X6.9992Y-6.5337
X7.0079Y-6.3543
X7.0276Y-1.3091
X7.0276Y-1.3976
X7.0314Y-6.5826
X7.0315Y-6.6339
X7.0354Y-7.8583
X7.0472Y-0.5906
X7.0472Y-3.7205
X7.0472Y-8.2283
X7.0551Y-4.874
X7.0591Y-4.9606
X7.0709Y-4.7677
X7.0866Y-5.0906
X7.0945Y-3.9665
X7.1063Y-1.3091
X7.1063Y-1.3976
X7.1181Y-6.5039
X7.126Y-0.5906
X7.126Y-3.7205
X7.126Y-8.2283
X7.1417Y-6.2205
X7.1496Y-7.8583
X7.185Y-1.3091
X7.185Y-1.3976
X7.189Y-6.1496
X7.1981Y-4.7842
X7.2008Y-4.9173
X7.2047Y-0.5906
X7.2047Y-3.7205
X7.2047Y-8.2283
X7.252Y-3.9606
X7.2618Y-5.0468
X7.2638Y-1.3091
X7.2638Y-1.3976
X7.2756Y-6.3465
X7.2835Y-0.5906
X7.2835Y-3.7205
X7.2835Y-8.2283
X7.2874Y-4.874
X7.2913Y-3.9606
X7.2984Y-5.0834
X7.3307Y-3.9606
X7.3346Y-4.8386
X7.3425Y-1.3091
X7.3425Y-1.3976
X7.3583Y-5.9803
X7.3622Y-0.5906
X7.3622Y-8.2283
X7.3804Y-5.7096
X7.3829Y-5.7618
X7.3976Y-5.0551
X7.4094Y-4.7126
X7.4213Y-1.3091
X7.4213Y-1.3976
X7.4257Y-4.8785
X7.4331Y-6.185
X7.439Y-5.4807
X7.4409Y-0.5906
X7.4409Y-8.2283
X7.4508Y-4.9606
X7.4701Y-4.4457
X7.5Y-1.3091
X7.5Y-1.3976
X7.5197Y-0.5906
X7.5197Y-8.2283
X7.5497Y-5.1531
X7.5551Y-6.0394
X7.5787Y-1.3091
X7.5787Y-1.3976
X7.5984Y-0.5906
X7.5984Y-5.0197
X7.5984Y-8.2283
X7.6171Y-4.8588
X7.6575Y-1.3091
X7.6575Y-1.3976
X7.6614Y-4.815
X7.6772Y-0.5906
X7.6772Y-8.2283
X7.7205Y-4.7795
X7.7362Y-1.3091
X7.7362Y-1.3976
X7.7559Y-0.5906
X7.7559Y-8.2283
X7.8071Y-4.1535
X7.815Y-1.3091
X7.815Y-1.3976
X7.8346Y-0.5906
X7.8346Y-8.2283
X7.8937Y-1.3091
X7.8937Y-1.3976
X7.9134Y-0.5906
X7.9134Y-8.2283
X7.9291Y-4.9173
X7.9301Y-4.1555
X7.9685Y-7.5669
X7.9724Y-1.3091
X7.9724Y-1.3976
X7.9823Y-0.5906
X7.9921Y-8.2283
X8.0079Y-7.7126
X8.0118Y-7.6417
X8.0512Y-1.3091
X8.0512Y-1.3976
X8.0709Y-0.5906
X8.0709Y-8.2283
X8.1063Y-7.5551
X8.1063Y-7.7283
X8.1299Y-1.3091
X8.1299Y-1.3976
X8.1496Y-0.5906
X8.1496Y-8.2283
X8.1999Y-7.6417
X8.2087Y-1.3091
X8.2087Y-1.3976
X8.2087Y-7.5039
X8.2165Y-7.7677
X8.2283Y-0.5906
X8.2283Y-8.2283
X8.2677Y-4.6654
X8.2874Y-1.3091
X8.2874Y-1.3976
X8.3212Y-7.5945
X8.3465Y-4.6654
X8.3661Y-1.3091
X8.3661Y-1.3976
X8.4252Y-4.6654
X8.4449Y-1.3091
X8.4449Y-1.3976
X8.5039Y-0.8169
X8.5039Y-0.8957
X8.5039Y-0.9744
X8.5039Y-1.0531
X8.5039Y-1.1319
X8.5039Y-1.2106
X8.5039Y-1.2894
X8.5039Y-1.437
X8.5039Y-1.5157
X8.5039Y-1.5945
X8.5039Y-1.6732
X8.5039Y-1.752
X8.5039Y-1.8307
X8.5039Y-1.9094
X8.5039Y-1.9882
X8.5039Y-2.0669
X8.5039Y-2.1457
X8.5039Y-2.2244
X8.5039Y-2.3031
X8.5039Y-2.3819
X8.5039Y-2.4606
X8.5039Y-2.5394
X8.5039Y-2.6181
X8.5039Y-2.6969
X8.5039Y-2.9724
X8.5039Y-3.0512
X8.5039Y-3.1299
X8.5039Y-3.2087
X8.5039Y-3.2874
X8.5039Y-3.3661
X8.5039Y-3.4449
X8.5039Y-3.5236
X8.5039Y-3.6024
X8.5039Y-3.6811
X8.5039Y-3.7598
X8.5039Y-3.8386
X8.5039Y-3.9173
X8.5039Y-3.9961
X8.5039Y-4.0748
X8.5039Y-4.1535
X8.5039Y-4.2323
X8.5039Y-4.311
X8.5039Y-4.3898
X8.5039Y-4.4685
X8.5039Y-4.6654
X8.5039Y-4.7244
X8.5039Y-4.8031
X8.5039Y-4.8819
X8.5039Y-4.9606
X8.5039Y-5.2756
X8.5039Y-5.3543
X8.5039Y-5.4331
X8.5039Y-5.5118
X8.5039Y-5.5906
X8.5039Y-5.6693
X8.5039Y-5.748
X8.5039Y-5.8268
X8.5039Y-5.9055
X8.5039Y-5.9843
X8.5039Y-6.063
X8.5039Y-6.1417
X8.5039Y-6.2205
X8.5039Y-6.2992
X8.5039Y-6.378
X8.5039Y-6.4567
X8.5039Y-6.5354
X8.5039Y-6.6142
X8.5039Y-6.6929
X8.5039Y-6.7717
X8.5039Y-6.8504
X8.5039Y-6.9291
X8.5039Y-7.0079
X8.5039Y-7.0866
X8.5039Y-7.1654
X8.5039Y-7.2441
X8.5039Y-7.3228
X8.5039Y-7.4016
X8.5039Y-7.5591
X8.5039Y-7.6378
X8.5039Y-7.7165
X8.5039Y-7.874
X8.5039Y-7.9528
T2
X1.3622Y-0.7087
X1.3622Y-5.1181
X1.3622Y-8.1102
X1.3899Y-0.6418
X1.3899Y-0.7755
X1.3899Y-5.0513
X1.3899Y-5.1849
X1.3899Y-8.0434
X1.3899Y-8.177
X1.4567Y-0.6142
X1.4567Y-0.8031
X1.4567Y-5.0236
X1.4567Y-5.2126
X1.4567Y-8.0157
X1.4567Y-8.2047
X1.5235Y-0.6418
X1.5235Y-0.7755
X1.5235Y-5.0513
X1.5235Y-5.1849
X1.5235Y-8.0434
X1.5235Y-8.177
X1.5512Y-0.7087
X1.5512Y-5.1181
X1.5512Y-8.1102
X1.7559Y-2.2835
X1.7836Y-2.2167
X1.7836Y-2.3503
X1.8504Y-2.189
X1.8504Y-2.378
X1.9172Y-2.2167
X1.9172Y-2.3503
X1.9449Y-2.2835
X3.6248Y-2.3177
X3.6525Y-2.2509
X3.6525Y-2.3845
X3.6685Y-3.7193
X3.6962Y-3.6525
X3.6962Y-3.7861
X3.7193Y-2.2232
X3.7193Y-2.4122
X3.763Y-3.6248
X3.763Y-3.8138
X3.7861Y-2.2509
X3.7861Y-2.3845
X3.8138Y-2.3177
X3.8298Y-3.6525
X3.8298Y-3.7861
X3.8575Y-3.7193
X5.5409Y-2.3177
X5.5409Y-3.7193
X5.5686Y-2.2509
X5.5686Y-2.3845
X5.5686Y-3.6525
X5.5686Y-3.7861
X5.6354Y-2.2232
X5.6354Y-2.4122
X5.6354Y-3.6248
X5.6354Y-3.8138
X5.7022Y-2.2509
X5.7022Y-2.3845
X5.7022Y-3.6525
X5.7022Y-3.7861
X5.7299Y-2.3177
X5.7299Y-3.7193
X7.4134Y-2.3177
X7.4134Y-3.7193
X7.4411Y-2.2509
X7.4411Y-2.3845
X7.4411Y-3.6525
X7.4411Y-3.7861
X7.5079Y-2.2232
X7.5079Y-2.4122
X7.5079Y-3.6248
X7.5079Y-3.8138
X7.5747Y-2.2509
X7.5747Y-2.3845
X7.5747Y-3.6525
X7.5747Y-3.7861
X7.6024Y-2.3177
X7.6024Y-3.7193
X8.2913Y-0.7087
X8.2913Y-2.8346
X8.2913Y-5.1181
X8.2913Y-8.1102
X8.319Y-0.6418
X8.319Y-0.7755
X8.319Y-2.7678
X8.319Y-2.9015
X8.319Y-5.0513
X8.319Y-5.1849
X8.319Y-8.0434
X8.319Y-8.177
X8.3858Y-0.6142
X8.3858Y-0.8031
X8.3858Y-2.7402
X8.3858Y-2.9291
X8.3858Y-5.0236
X8.3858Y-5.2126
X8.3858Y-8.0157
X8.3858Y-8.2047
X8.4526Y-0.6418
X8.4526Y-0.7755
X8.4526Y-2.7678
X8.4526Y-2.9015
X8.4526Y-5.0513
X8.4526Y-5.1849
X8.4526Y-8.0434
X8.4526Y-8.177
X8.4803Y-0.7087
X8.4803Y-2.8346
X8.4803Y-5.1181
X8.4803Y-8.1102
T4
X2.9504Y-4.1658
X2.9504Y-4.2658
X2.9504Y-4.3658
X2.9504Y-4.4658
X2.9504Y-4.6658
X2.9504Y-4.7658
X2.9504Y-4.8658
X4.411Y-4.1658
X4.411Y-4.2658
X4.411Y-4.3658
X4.411Y-4.4658
X4.411Y-4.6658
X4.411Y-4.7658
X4.411Y-4.8658
X4.8228Y-4.1658
X4.8228Y-4.2658
X4.8228Y-4.3658
X4.8228Y-4.4658
X4.8228Y-4.6658
X4.8228Y-4.7658
X4.8228Y-4.8658
X6.2835Y-4.1658
X6.2835Y-4.2658
X6.2835Y-4.3658
X6.2835Y-4.4658
X6.2835Y-4.6658
X6.2835Y-4.7658
X6.2835Y-4.8658
X6.6953Y-4.1658
X6.6953Y-4.2658
X6.6953Y-4.3658
X6.6953Y-4.4658
X6.6953Y-4.6658
X6.6953Y-4.7658
X6.6953Y-4.8658
X8.1559Y-4.1658
X8.1559Y-4.2658
X8.1559Y-4.3658
X8.1559Y-4.4658
X8.1559Y-4.6658
X8.1559Y-4.7658
X8.1559Y-4.8658
T5
X2.5787Y-4.1658
X2.5787Y-4.2658
X2.5787Y-4.3658
X2.5787Y-4.4658
X2.5787Y-4.6658
X2.5787Y-4.7658
X2.5787Y-4.8658
T6
X5.2126Y-5.8056
X5.2126Y-5.904
X5.2126Y-6.0025
X5.2126Y-6.1009
X5.2126Y-6.3386
X5.2126Y-6.437
X5.2126Y-6.5354
X5.2126Y-6.6339
X5.2126Y-6.7323
T7
X2.5323Y-5.2913
X2.6323Y-5.2913
X2.7323Y-5.2913
T8
X2.1339Y-5.1102
X2.2323Y-5.1102
X5.4937Y-5.5343
X5.4937Y-5.6343
X5.4937Y-7.9343
X5.4937Y-8.0343
X5.5937Y-5.5343
X5.5937Y-5.6343
X5.5937Y-7.9343
X5.5937Y-8.0343
X5.6937Y-5.5343
X5.6937Y-5.6343
X5.6937Y-7.9343
X5.6937Y-8.0343
X5.7937Y-5.5343
X5.7937Y-5.6343
X5.7937Y-7.9343
X5.7937Y-8.0343
X5.8937Y-5.5343
X5.8937Y-5.6343
X5.8937Y-7.9343
X5.8937Y-8.0343
X5.9937Y-5.5343
X5.9937Y-5.6343
X5.9937Y-7.9343
X5.9937Y-8.0343
X6.0937Y-5.5343
X6.0937Y-5.6343
X6.0937Y-7.9343
X6.0937Y-8.0343
X6.1937Y-5.5343
X6.1937Y-5.6343
X6.1937Y-7.9343
X6.1937Y-8.0343
X6.2937Y-5.5343
X6.2937Y-5.6343
X6.2937Y-7.9343
X6.2937Y-8.0343
X6.3937Y-5.5343
X6.3937Y-5.6343
X6.3937Y-7.9343
X6.3937Y-8.0343
X6.4937Y-5.5343
X6.4937Y-5.6343
X6.4937Y-7.9343
X6.4937Y-8.0343
X6.5937Y-5.5343
X6.5937Y-5.6343
X6.5937Y-7.9343
X6.5937Y-8.0343
X6.6937Y-5.5343
X6.6937Y-5.6343
X6.6937Y-7.9343
X6.6937Y-8.0343
X6.7937Y-5.5343
X6.7937Y-5.6343
X6.7937Y-7.9343
X6.7937Y-8.0343
X6.8937Y-5.5343
X6.8937Y-5.6343
X6.8937Y-7.9343
X6.8937Y-8.0343
X6.9937Y-5.5343
X6.9937Y-5.6343
X6.9937Y-7.9343
X6.9937Y-8.0343
X7.0937Y-5.5343
X7.0937Y-5.6343
X7.0937Y-7.9343
X7.0937Y-8.0343
X7.1937Y-5.5343
X7.1937Y-5.6343
X7.1937Y-7.9343
X7.1937Y-8.0343
X7.2937Y-5.5343
X7.2937Y-5.6343
X7.2937Y-7.9343
X7.2937Y-8.0343
X7.9469Y-5.1742
X8.0453Y-5.1742
T9
X4.3274Y-7.7189
X4.3819Y-7.8189
X4.4364Y-7.7189
X4.4909Y-7.8189
X4.5455Y-7.7189
X4.6Y-7.8189
X4.6545Y-7.7189
X4.7091Y-7.8189
X4.7636Y-7.7189
T10
X3.4465Y-4.0528
X3.5465Y-4.0528
X3.6465Y-4.0528
X3.8795Y-4.0528
X3.9795Y-4.0528
X4.0795Y-4.0528
X5.3189Y-4.0528
X5.4189Y-4.0528
X5.5189Y-4.0528
X5.752Y-4.0528
X5.852Y-4.0528
X5.952Y-4.0528
X7.1913Y-4.0528
X7.2913Y-4.0528
X7.3913Y-4.0528
X7.6244Y-4.0528
X7.7244Y-4.0528
X7.8244Y-4.0528
T11
X1.3937Y-5.4961
X2.2795Y-5.4961
T12
X2.5199Y-5.6398
X2.5199Y-8.061
X2.7364Y-8.061
X2.8742Y-5.6398
T13
X1.6742Y-2.8246
X1.6742Y-3.0246
X1.6742Y-3.3285
X1.6742Y-3.5285
X2.0404Y-6.4906
X2.0404Y-6.8504
X2.0404Y-7.2102
X8.3465Y-3.422
X8.3465Y-3.622
X8.3465Y-3.822
T14
X2.0866Y-1.1417
X2.0866Y-1.5354
X3.5039Y-1.1417
X3.5039Y-1.5354
X4.9213Y-1.1417
X4.9213Y-1.5354
X6.3386Y-1.1417
X6.3386Y-1.5354
X7.7559Y-1.1417
X7.7559Y-1.5354
T15
X1.4567Y-0.7087
X1.4567Y-5.1181
X1.4567Y-8.1102
X1.8504Y-2.2835
X3.7193Y-2.3177
X3.763Y-3.7193
X5.6354Y-2.3177
X5.6354Y-3.7193
X7.5079Y-2.3177
X7.5079Y-3.7193
X8.3858Y-0.7087
X8.3858Y-2.8346
X8.3858Y-5.1181
X8.3858Y-8.1102
T16
X4.0535Y-7.7689
X5.0374Y-7.7689
T3
G00X8.2803Y-7.4677
M15
G01X8.3236Y-7.4677
M16
G05
G00X8.2803Y-7.8079
M15
G01X8.3236Y-7.8079
M16
G05
G00X8.4547Y-7.4677
M15
G01X8.4783Y-7.4677
M16
G05
G00X8.4547Y-7.8079
M15
G01X8.4783Y-7.8079
M16
G05
T0
M30
