%TF.GenerationSoftware,KiCad,Pcbnew,7.0.7-7.0.7~ubuntu22.04.1*%
%TF.CreationDate,2023-09-07T14:29:00+02:00*%
%TF.ProjectId,Inverter_KiCAD,496e7665-7274-4657-925f-4b694341442e,rev?*%
%TF.SameCoordinates,Original*%
%TF.FileFunction,Soldermask,Bot*%
%TF.FilePolarity,Negative*%
%FSLAX46Y46*%
G04 Gerber Fmt 4.6, Leading zero omitted, Abs format (unit mm)*
G04 Created by KiCad (PCBNEW 7.0.7-7.0.7~ubuntu22.04.1) date 2023-09-07 14:29:00*
%MOMM*%
%LPD*%
G01*
G04 APERTURE LIST*
G04 Aperture macros list*
%AMRoundRect*
0 Rectangle with rounded corners*
0 $1 Rounding radius*
0 $2 $3 $4 $5 $6 $7 $8 $9 X,Y pos of 4 corners*
0 Add a 4 corners polygon primitive as box body*
4,1,4,$2,$3,$4,$5,$6,$7,$8,$9,$2,$3,0*
0 Add four circle primitives for the rounded corners*
1,1,$1+$1,$2,$3*
1,1,$1+$1,$4,$5*
1,1,$1+$1,$6,$7*
1,1,$1+$1,$8,$9*
0 Add four rect primitives between the rounded corners*
20,1,$1+$1,$2,$3,$4,$5,0*
20,1,$1+$1,$4,$5,$6,$7,0*
20,1,$1+$1,$6,$7,$8,$9,0*
20,1,$1+$1,$8,$9,$2,$3,0*%
G04 Aperture macros list end*
%ADD10C,0.800000*%
%ADD11C,6.400000*%
%ADD12C,1.524000*%
%ADD13R,4.000000X4.000000*%
%ADD14C,4.000000*%
%ADD15C,1.600000*%
%ADD16R,1.905000X2.000000*%
%ADD17O,1.905000X2.000000*%
%ADD18C,2.400000*%
%ADD19C,1.498600*%
%ADD20C,0.650000*%
%ADD21O,2.100000X1.000000*%
%ADD22O,1.600000X1.000000*%
%ADD23RoundRect,0.250000X-0.725000X0.600000X-0.725000X-0.600000X0.725000X-0.600000X0.725000X0.600000X0*%
%ADD24O,1.950000X1.700000*%
%ADD25R,1.700000X1.700000*%
%ADD26O,1.700000X1.700000*%
%ADD27C,2.006600*%
%ADD28C,1.600200*%
%ADD29C,3.708400*%
%ADD30RoundRect,0.250000X0.600000X0.750000X-0.600000X0.750000X-0.600000X-0.750000X0.600000X-0.750000X0*%
%ADD31O,1.700000X2.000000*%
%ADD32C,2.800000*%
%ADD33C,3.200000*%
%ADD34RoundRect,0.140000X-0.170000X0.140000X-0.170000X-0.140000X0.170000X-0.140000X0.170000X0.140000X0*%
%ADD35RoundRect,0.135000X-0.185000X0.135000X-0.185000X-0.135000X0.185000X-0.135000X0.185000X0.135000X0*%
%ADD36R,0.508000X1.460500*%
%ADD37RoundRect,0.250000X-2.450000X0.650000X-2.450000X-0.650000X2.450000X-0.650000X2.450000X0.650000X0*%
%ADD38RoundRect,0.135000X0.185000X-0.135000X0.185000X0.135000X-0.185000X0.135000X-0.185000X-0.135000X0*%
%ADD39RoundRect,0.140000X0.170000X-0.140000X0.170000X0.140000X-0.170000X0.140000X-0.170000X-0.140000X0*%
%ADD40RoundRect,0.254000X-0.254000X-0.746000X0.254000X-0.746000X0.254000X0.746000X-0.254000X0.746000X0*%
%ADD41RoundRect,0.317500X-0.317500X-0.682500X0.317500X-0.682500X0.317500X0.682500X-0.317500X0.682500X0*%
%ADD42RoundRect,0.265000X-0.265000X-0.735000X0.265000X-0.735000X0.265000X0.735000X-0.265000X0.735000X0*%
G04 APERTURE END LIST*
D10*
%TO.C,H109*%
X92070000Y-58870000D03*
X92772944Y-57172944D03*
X92772944Y-60567056D03*
X94470000Y-56470000D03*
D11*
X94470000Y-58870000D03*
D10*
X94470000Y-61270000D03*
X96167056Y-57172944D03*
X96167056Y-60567056D03*
X96870000Y-58870000D03*
%TD*%
D12*
%TO.C,U301*%
X122500000Y-123592500D03*
X122500000Y-121052500D03*
X122500000Y-118512500D03*
X122500000Y-113432500D03*
X122500000Y-110892500D03*
X122500000Y-108352500D03*
X122500000Y-105812500D03*
%TD*%
D13*
%TO.C,C1004*%
X89000000Y-29000000D03*
D14*
X89000000Y-39000000D03*
%TD*%
D15*
%TO.C,U701*%
X65500000Y-123592500D03*
X65500000Y-121052500D03*
X65500000Y-118512500D03*
X65500000Y-113432500D03*
X65500000Y-110892500D03*
X65500000Y-108352500D03*
X65500000Y-105812500D03*
%TD*%
D16*
%TO.C,Q202*%
X87540000Y-102940000D03*
D17*
X90080000Y-102940000D03*
X92620000Y-102940000D03*
%TD*%
D18*
%TO.C,J104*%
X212000000Y-86920000D03*
X212000000Y-92000000D03*
X212000000Y-97080000D03*
%TD*%
D19*
%TO.C,U502*%
X64320000Y-134400000D03*
X66860000Y-134400000D03*
X69400000Y-134400000D03*
%TD*%
D16*
%TO.C,Q403*%
X193660000Y-102940000D03*
D17*
X196200000Y-102940000D03*
X198740000Y-102940000D03*
%TD*%
D10*
%TO.C,H103*%
X210600000Y-206000000D03*
X211302944Y-204302944D03*
X211302944Y-207697056D03*
X213000000Y-203600000D03*
D11*
X213000000Y-206000000D03*
D10*
X213000000Y-208400000D03*
X214697056Y-204302944D03*
X214697056Y-207697056D03*
X215400000Y-206000000D03*
%TD*%
%TO.C,H108*%
X44600000Y-58000000D03*
X45302944Y-56302944D03*
X45302944Y-59697056D03*
X47000000Y-55600000D03*
D11*
X47000000Y-58000000D03*
D10*
X47000000Y-60400000D03*
X48697056Y-56302944D03*
X48697056Y-59697056D03*
X49400000Y-58000000D03*
%TD*%
%TO.C,H107*%
X210600000Y-72000000D03*
X211302944Y-70302944D03*
X211302944Y-73697056D03*
X213000000Y-69600000D03*
D11*
X213000000Y-72000000D03*
D10*
X213000000Y-74400000D03*
X214697056Y-70302944D03*
X214697056Y-73697056D03*
X215400000Y-72000000D03*
%TD*%
D20*
%TO.C,J801*%
X211400000Y-196890000D03*
X211400000Y-191110000D03*
D21*
X210870000Y-198320000D03*
D22*
X215050000Y-198320000D03*
D21*
X210870000Y-189680000D03*
D22*
X215050000Y-189680000D03*
%TD*%
D23*
%TO.C,J802*%
X132400000Y-161000000D03*
D24*
X132400000Y-163500000D03*
X132400000Y-166000000D03*
X132400000Y-168500000D03*
X132400000Y-171000000D03*
%TD*%
D16*
%TO.C,Q303*%
X146100000Y-102940000D03*
D17*
X148640000Y-102940000D03*
X151180000Y-102940000D03*
%TD*%
D13*
%TO.C,C1003*%
X125000000Y-29000000D03*
D14*
X125000000Y-39000000D03*
%TD*%
D25*
%TO.C,J101*%
X185260000Y-140570000D03*
D26*
X185260000Y-143110000D03*
X182720000Y-140570000D03*
X182720000Y-143110000D03*
X180180000Y-140570000D03*
X180180000Y-143110000D03*
X177640000Y-140570000D03*
X177640000Y-143110000D03*
X175100000Y-140570000D03*
X175100000Y-143110000D03*
X172560000Y-140570000D03*
X172560000Y-143110000D03*
X170020000Y-140570000D03*
X170020000Y-143110000D03*
X167480000Y-140570000D03*
X167480000Y-143110000D03*
X164940000Y-140570000D03*
X164940000Y-143110000D03*
X162400000Y-140570000D03*
X162400000Y-143110000D03*
X159860000Y-140570000D03*
X159860000Y-143110000D03*
X157320000Y-140570000D03*
X157320000Y-143110000D03*
X154780000Y-140570000D03*
X154780000Y-143110000D03*
X152240000Y-140570000D03*
X152240000Y-143110000D03*
X149700000Y-140570000D03*
X149700000Y-143110000D03*
X147160000Y-140570000D03*
X147160000Y-143110000D03*
X144620000Y-140570000D03*
X144620000Y-143110000D03*
X142080000Y-140570000D03*
X142080000Y-143110000D03*
X139540000Y-140570000D03*
X139540000Y-143110000D03*
%TD*%
D10*
%TO.C,H102*%
X34600000Y-130000000D03*
X35302944Y-128302944D03*
X35302944Y-131697056D03*
X37000000Y-127600000D03*
D11*
X37000000Y-130000000D03*
D10*
X37000000Y-132400000D03*
X38697056Y-128302944D03*
X38697056Y-131697056D03*
X39400000Y-130000000D03*
%TD*%
D27*
%TO.C,U501*%
X64005501Y-204750000D03*
X69505500Y-204750000D03*
X73005501Y-143249996D03*
X64005501Y-143249996D03*
%TD*%
D16*
%TO.C,Q203*%
X98540000Y-102940000D03*
D17*
X101080000Y-102940000D03*
X103620000Y-102940000D03*
%TD*%
D16*
%TO.C,Q402*%
X182660000Y-102940000D03*
D17*
X185200000Y-102940000D03*
X187740000Y-102940000D03*
%TD*%
D10*
%TO.C,H104*%
X210600000Y-130000000D03*
X211302944Y-128302944D03*
X211302944Y-131697056D03*
X213000000Y-127600000D03*
D11*
X213000000Y-130000000D03*
D10*
X213000000Y-132400000D03*
X214697056Y-128302944D03*
X214697056Y-131697056D03*
X215400000Y-130000000D03*
%TD*%
%TO.C,H114*%
X188300000Y-94470000D03*
X189002944Y-92772944D03*
X189002944Y-96167056D03*
X190700000Y-92070000D03*
D11*
X190700000Y-94470000D03*
D10*
X190700000Y-96870000D03*
X192397056Y-92772944D03*
X192397056Y-96167056D03*
X193100000Y-94470000D03*
%TD*%
D18*
%TO.C,J102*%
X42525000Y-76825000D03*
X42525000Y-71745000D03*
%TD*%
D28*
%TO.C,J1301*%
X120994999Y-196060000D03*
X118224999Y-196060000D03*
X115455000Y-196060000D03*
X112685000Y-196060000D03*
X109915001Y-196060000D03*
X119609999Y-198600000D03*
X116839999Y-198600000D03*
X114070000Y-198600000D03*
X111300000Y-198600000D03*
D29*
X102960001Y-197330000D03*
X127949999Y-197330000D03*
%TD*%
D10*
%TO.C,H112*%
X140740000Y-94470000D03*
X141442944Y-92772944D03*
X141442944Y-96167056D03*
X143140000Y-92070000D03*
D11*
X143140000Y-94470000D03*
D10*
X143140000Y-96870000D03*
X144837056Y-92772944D03*
X144837056Y-96167056D03*
X145540000Y-94470000D03*
%TD*%
D13*
%TO.C,C1002*%
X161000000Y-29000000D03*
D14*
X161000000Y-39000000D03*
%TD*%
D10*
%TO.C,H113*%
X188300000Y-58870000D03*
X189002944Y-57172944D03*
X189002944Y-60567056D03*
X190700000Y-56470000D03*
D11*
X190700000Y-58870000D03*
D10*
X190700000Y-61270000D03*
X192397056Y-57172944D03*
X192397056Y-60567056D03*
X193100000Y-58870000D03*
%TD*%
%TO.C,H111*%
X140740000Y-58870000D03*
X141442944Y-57172944D03*
X141442944Y-60567056D03*
X143140000Y-56470000D03*
D11*
X143140000Y-58870000D03*
D10*
X143140000Y-61270000D03*
X144837056Y-57172944D03*
X144837056Y-60567056D03*
X145540000Y-58870000D03*
%TD*%
D30*
%TO.C,J1102*%
X56700000Y-129800000D03*
D31*
X54200000Y-129800000D03*
%TD*%
D23*
%TO.C,J804*%
X132400000Y-147462500D03*
D24*
X132400000Y-149962500D03*
X132400000Y-152462500D03*
X132400000Y-154962500D03*
%TD*%
D32*
%TO.C,F501*%
X35400000Y-139600000D03*
X57900000Y-139600000D03*
%TD*%
D33*
%TO.C,J501*%
X51825000Y-183140000D03*
X51825000Y-174000000D03*
X51825000Y-164860000D03*
%TD*%
D16*
%TO.C,Q302*%
X135100000Y-102940000D03*
D17*
X137640000Y-102940000D03*
X140180000Y-102940000D03*
%TD*%
D30*
%TO.C,J1101*%
X204350000Y-131425000D03*
D31*
X201850000Y-131425000D03*
%TD*%
D10*
%TO.C,H101*%
X34600000Y-206000000D03*
X35302944Y-204302944D03*
X35302944Y-207697056D03*
X37000000Y-203600000D03*
D11*
X37000000Y-206000000D03*
D10*
X37000000Y-208400000D03*
X38697056Y-204302944D03*
X38697056Y-207697056D03*
X39400000Y-206000000D03*
%TD*%
D25*
%TO.C,J103*%
X185260000Y-201530000D03*
D26*
X185260000Y-204070000D03*
X182720000Y-201530000D03*
X182720000Y-204070000D03*
X180180000Y-201530000D03*
X180180000Y-204070000D03*
X177640000Y-201530000D03*
X177640000Y-204070000D03*
X175100000Y-201530000D03*
X175100000Y-204070000D03*
X172560000Y-201530000D03*
X172560000Y-204070000D03*
X170020000Y-201530000D03*
X170020000Y-204070000D03*
X167480000Y-201530000D03*
X167480000Y-204070000D03*
X164940000Y-201530000D03*
X164940000Y-204070000D03*
X162400000Y-201530000D03*
X162400000Y-204070000D03*
X159860000Y-201530000D03*
X159860000Y-204070000D03*
X157320000Y-201530000D03*
X157320000Y-204070000D03*
X154780000Y-201530000D03*
X154780000Y-204070000D03*
X152240000Y-201530000D03*
X152240000Y-204070000D03*
X149700000Y-201530000D03*
X149700000Y-204070000D03*
X147160000Y-201530000D03*
X147160000Y-204070000D03*
X144620000Y-201530000D03*
X144620000Y-204070000D03*
X142080000Y-201530000D03*
X142080000Y-204070000D03*
X139540000Y-201530000D03*
X139540000Y-204070000D03*
%TD*%
D12*
%TO.C,U302*%
X159600000Y-123592500D03*
X159600000Y-121052500D03*
X159600000Y-118512500D03*
X159600000Y-113432500D03*
X159600000Y-110892500D03*
X159600000Y-108352500D03*
X159600000Y-105812500D03*
%TD*%
%TO.C,U202*%
X112040000Y-123592500D03*
X112040000Y-121052500D03*
X112040000Y-118512500D03*
X112040000Y-113432500D03*
X112040000Y-110892500D03*
X112040000Y-108352500D03*
X112040000Y-105812500D03*
%TD*%
D13*
%TO.C,C1001*%
X197000000Y-29000000D03*
D14*
X197000000Y-39000000D03*
%TD*%
D12*
%TO.C,U201*%
X74940000Y-123592500D03*
X74940000Y-121052500D03*
X74940000Y-118512500D03*
X74940000Y-113432500D03*
X74940000Y-110892500D03*
X74940000Y-108352500D03*
X74940000Y-105812500D03*
%TD*%
D13*
%TO.C,C1005*%
X53000000Y-29000000D03*
D14*
X53000000Y-39000000D03*
%TD*%
D12*
%TO.C,U402*%
X207160000Y-123592500D03*
X207160000Y-121052500D03*
X207160000Y-118512500D03*
X207160000Y-113432500D03*
X207160000Y-110892500D03*
X207160000Y-108352500D03*
X207160000Y-105812500D03*
%TD*%
D10*
%TO.C,H105*%
X34600000Y-18000000D03*
X35302944Y-16302944D03*
X35302944Y-19697056D03*
X37000000Y-15600000D03*
D11*
X37000000Y-18000000D03*
D10*
X37000000Y-20400000D03*
X38697056Y-16302944D03*
X38697056Y-19697056D03*
X39400000Y-18000000D03*
%TD*%
D12*
%TO.C,U401*%
X170060000Y-123592500D03*
X170060000Y-121052500D03*
X170060000Y-118512500D03*
X170060000Y-113432500D03*
X170060000Y-110892500D03*
X170060000Y-108352500D03*
X170060000Y-105812500D03*
%TD*%
D10*
%TO.C,H110*%
X93180000Y-94470000D03*
X93882944Y-92772944D03*
X93882944Y-96167056D03*
X95580000Y-92070000D03*
D11*
X95580000Y-94470000D03*
D10*
X95580000Y-96870000D03*
X97277056Y-92772944D03*
X97277056Y-96167056D03*
X97980000Y-94470000D03*
%TD*%
%TO.C,H106*%
X210600000Y-18000000D03*
X211302944Y-16302944D03*
X211302944Y-19697056D03*
X213000000Y-15600000D03*
D11*
X213000000Y-18000000D03*
D10*
X213000000Y-20400000D03*
X214697056Y-16302944D03*
X214697056Y-19697056D03*
X215400000Y-18000000D03*
%TD*%
D18*
%TO.C,J901*%
X42525000Y-89625000D03*
X42525000Y-84545000D03*
%TD*%
D34*
%TO.C,C410*%
X185060000Y-120440000D03*
X185060000Y-121400000D03*
%TD*%
D35*
%TO.C,R210*%
X96170000Y-108730000D03*
X96170000Y-109750000D03*
%TD*%
D36*
%TO.C,U204*%
X88540000Y-113275850D03*
X89810000Y-113275850D03*
X91080000Y-113275850D03*
X92350000Y-113275850D03*
X92350000Y-118724150D03*
X91080000Y-118724150D03*
X89810000Y-118724150D03*
X88540000Y-118724150D03*
%TD*%
D34*
%TO.C,C211*%
X90940000Y-120440000D03*
X90940000Y-121400000D03*
%TD*%
D36*
%TO.C,U404*%
X183660000Y-113275850D03*
X184930000Y-113275850D03*
X186200000Y-113275850D03*
X187470000Y-113275850D03*
X187470000Y-118724150D03*
X186200000Y-118724150D03*
X184930000Y-118724150D03*
X183660000Y-118724150D03*
%TD*%
D34*
%TO.C,C311*%
X138500000Y-120440000D03*
X138500000Y-121400000D03*
%TD*%
D37*
%TO.C,C306*%
X129300000Y-100750000D03*
X129300000Y-105850000D03*
%TD*%
D34*
%TO.C,C210*%
X89940000Y-120440000D03*
X89940000Y-121400000D03*
%TD*%
D38*
%TO.C,R211*%
X98170000Y-109750000D03*
X98170000Y-108730000D03*
%TD*%
D39*
%TO.C,C205*%
X97170000Y-109720000D03*
X97170000Y-108760000D03*
%TD*%
D34*
%TO.C,C308*%
X142190000Y-122360000D03*
X142190000Y-123320000D03*
%TD*%
%TO.C,C408*%
X189750000Y-122360000D03*
X189750000Y-123320000D03*
%TD*%
D40*
%TO.C,U403*%
X189750000Y-111550000D03*
D41*
X192290000Y-111550000D03*
X194830000Y-111550000D03*
D40*
X197370000Y-111550000D03*
X197370000Y-120450000D03*
D41*
X194830000Y-120450000D03*
X192290000Y-120450000D03*
D42*
X189750000Y-120450000D03*
%TD*%
D35*
%TO.C,R310*%
X143730000Y-108730000D03*
X143730000Y-109750000D03*
%TD*%
D34*
%TO.C,C209*%
X88545000Y-120440000D03*
X88545000Y-121400000D03*
%TD*%
D38*
%TO.C,R311*%
X145730000Y-109750000D03*
X145730000Y-108730000D03*
%TD*%
D39*
%TO.C,C307*%
X142190000Y-109720000D03*
X142190000Y-108760000D03*
%TD*%
%TO.C,C305*%
X144730000Y-109720000D03*
X144730000Y-108760000D03*
%TD*%
%TO.C,C407*%
X189750000Y-109720000D03*
X189750000Y-108760000D03*
%TD*%
D35*
%TO.C,R410*%
X191290000Y-108730000D03*
X191290000Y-109750000D03*
%TD*%
D39*
%TO.C,C405*%
X192290000Y-109720000D03*
X192290000Y-108760000D03*
%TD*%
D36*
%TO.C,U304*%
X136100000Y-113275850D03*
X137370000Y-113275850D03*
X138640000Y-113275850D03*
X139910000Y-113275850D03*
X139910000Y-118724150D03*
X138640000Y-118724150D03*
X137370000Y-118724150D03*
X136100000Y-118724150D03*
%TD*%
D40*
%TO.C,U203*%
X94630000Y-111550000D03*
D41*
X97170000Y-111550000D03*
X99710000Y-111550000D03*
D40*
X102250000Y-111550000D03*
X102250000Y-120450000D03*
D41*
X99710000Y-120450000D03*
X97170000Y-120450000D03*
D42*
X94630000Y-120450000D03*
%TD*%
D34*
%TO.C,C310*%
X137500000Y-120440000D03*
X137500000Y-121400000D03*
%TD*%
D38*
%TO.C,R411*%
X193290000Y-109750000D03*
X193290000Y-108730000D03*
%TD*%
D34*
%TO.C,C309*%
X136105000Y-120440000D03*
X136105000Y-121400000D03*
%TD*%
D40*
%TO.C,U303*%
X142190000Y-111550000D03*
D41*
X144730000Y-111550000D03*
X147270000Y-111550000D03*
D40*
X149810000Y-111550000D03*
X149810000Y-120450000D03*
D41*
X147270000Y-120450000D03*
X144730000Y-120450000D03*
D42*
X142190000Y-120450000D03*
%TD*%
D34*
%TO.C,C409*%
X183665000Y-120440000D03*
X183665000Y-121400000D03*
%TD*%
D37*
%TO.C,C206*%
X81700000Y-100750000D03*
X81700000Y-105850000D03*
%TD*%
D34*
%TO.C,C208*%
X94630000Y-122360000D03*
X94630000Y-123320000D03*
%TD*%
%TO.C,C411*%
X186060000Y-120440000D03*
X186060000Y-121400000D03*
%TD*%
D37*
%TO.C,C406*%
X176800000Y-100750000D03*
X176800000Y-105850000D03*
%TD*%
D39*
%TO.C,C207*%
X94630000Y-109720000D03*
X94630000Y-108760000D03*
%TD*%
M02*
