%TF.GenerationSoftware,KiCad,Pcbnew,9.0.0*%
%TF.CreationDate,2025-03-28T09:56:41+01:00*%
%TF.ProjectId,Inverter_KiCAD,496e7665-7274-4657-925f-4b694341442e,rev?*%
%TF.SameCoordinates,Original*%
%TF.FileFunction,Copper,L4,Bot*%
%TF.FilePolarity,Positive*%
%FSLAX46Y46*%
G04 Gerber Fmt 4.6, Leading zero omitted, Abs format (unit mm)*
G04 Created by KiCad (PCBNEW 9.0.0) date 2025-03-28 09:56:41*
%MOMM*%
%LPD*%
G01*
G04 APERTURE LIST*
G04 Aperture macros list*
%AMRoundRect*
0 Rectangle with rounded corners*
0 $1 Rounding radius*
0 $2 $3 $4 $5 $6 $7 $8 $9 X,Y pos of 4 corners*
0 Add a 4 corners polygon primitive as box body*
4,1,4,$2,$3,$4,$5,$6,$7,$8,$9,$2,$3,0*
0 Add four circle primitives for the rounded corners*
1,1,$1+$1,$2,$3*
1,1,$1+$1,$4,$5*
1,1,$1+$1,$6,$7*
1,1,$1+$1,$8,$9*
0 Add four rect primitives between the rounded corners*
20,1,$1+$1,$2,$3,$4,$5,0*
20,1,$1+$1,$4,$5,$6,$7,0*
20,1,$1+$1,$6,$7,$8,$9,0*
20,1,$1+$1,$8,$9,$2,$3,0*%
G04 Aperture macros list end*
%TA.AperFunction,ComponentPad*%
%ADD10C,0.800000*%
%TD*%
%TA.AperFunction,ComponentPad*%
%ADD11C,6.400000*%
%TD*%
%TA.AperFunction,ComponentPad*%
%ADD12RoundRect,0.750000X-0.750000X-0.750000X0.750000X-0.750000X0.750000X0.750000X-0.750000X0.750000X0*%
%TD*%
%TA.AperFunction,ComponentPad*%
%ADD13C,3.000000*%
%TD*%
%TA.AperFunction,ComponentPad*%
%ADD14RoundRect,0.250000X0.600000X0.750000X-0.600000X0.750000X-0.600000X-0.750000X0.600000X-0.750000X0*%
%TD*%
%TA.AperFunction,ComponentPad*%
%ADD15O,1.700000X2.000000*%
%TD*%
%TA.AperFunction,ComponentPad*%
%ADD16RoundRect,0.250000X0.725000X-0.600000X0.725000X0.600000X-0.725000X0.600000X-0.725000X-0.600000X0*%
%TD*%
%TA.AperFunction,ComponentPad*%
%ADD17O,1.950000X1.700000*%
%TD*%
%TA.AperFunction,ComponentPad*%
%ADD18RoundRect,1.500000X1.500000X-1.500000X1.500000X1.500000X-1.500000X1.500000X-1.500000X-1.500000X0*%
%TD*%
%TA.AperFunction,ComponentPad*%
%ADD19C,6.000000*%
%TD*%
%TA.AperFunction,SMDPad,CuDef*%
%ADD20RoundRect,0.135000X-0.135000X-0.185000X0.135000X-0.185000X0.135000X0.185000X-0.135000X0.185000X0*%
%TD*%
%TA.AperFunction,SMDPad,CuDef*%
%ADD21RoundRect,0.250000X-0.250000X-0.475000X0.250000X-0.475000X0.250000X0.475000X-0.250000X0.475000X0*%
%TD*%
%TA.AperFunction,SMDPad,CuDef*%
%ADD22RoundRect,0.150000X0.825000X0.150000X-0.825000X0.150000X-0.825000X-0.150000X0.825000X-0.150000X0*%
%TD*%
%TA.AperFunction,SMDPad,CuDef*%
%ADD23RoundRect,0.140000X0.140000X0.170000X-0.140000X0.170000X-0.140000X-0.170000X0.140000X-0.170000X0*%
%TD*%
%TA.AperFunction,SMDPad,CuDef*%
%ADD24RoundRect,0.250000X1.075000X-0.312500X1.075000X0.312500X-1.075000X0.312500X-1.075000X-0.312500X0*%
%TD*%
%TA.AperFunction,SMDPad,CuDef*%
%ADD25RoundRect,0.250000X0.475000X-0.250000X0.475000X0.250000X-0.475000X0.250000X-0.475000X-0.250000X0*%
%TD*%
%TA.AperFunction,SMDPad,CuDef*%
%ADD26C,1.000000*%
%TD*%
%TA.AperFunction,SMDPad,CuDef*%
%ADD27RoundRect,0.135000X0.185000X-0.135000X0.185000X0.135000X-0.185000X0.135000X-0.185000X-0.135000X0*%
%TD*%
%TA.AperFunction,SMDPad,CuDef*%
%ADD28RoundRect,0.135000X-0.185000X0.135000X-0.185000X-0.135000X0.185000X-0.135000X0.185000X0.135000X0*%
%TD*%
%TA.AperFunction,SMDPad,CuDef*%
%ADD29RoundRect,0.250000X2.450000X-0.650000X2.450000X0.650000X-2.450000X0.650000X-2.450000X-0.650000X0*%
%TD*%
%TA.AperFunction,SMDPad,CuDef*%
%ADD30RoundRect,0.250000X-0.312500X-1.075000X0.312500X-1.075000X0.312500X1.075000X-0.312500X1.075000X0*%
%TD*%
%TA.AperFunction,SMDPad,CuDef*%
%ADD31RoundRect,0.225000X-0.225000X-0.250000X0.225000X-0.250000X0.225000X0.250000X-0.225000X0.250000X0*%
%TD*%
%TA.AperFunction,SMDPad,CuDef*%
%ADD32RoundRect,0.100000X-0.100000X0.637500X-0.100000X-0.637500X0.100000X-0.637500X0.100000X0.637500X0*%
%TD*%
%TA.AperFunction,SMDPad,CuDef*%
%ADD33RoundRect,0.225000X-0.250000X0.225000X-0.250000X-0.225000X0.250000X-0.225000X0.250000X0.225000X0*%
%TD*%
%TA.AperFunction,SMDPad,CuDef*%
%ADD34R,0.400000X0.500000*%
%TD*%
%TA.AperFunction,SMDPad,CuDef*%
%ADD35R,1.500000X1.500000*%
%TD*%
%TA.AperFunction,SMDPad,CuDef*%
%ADD36RoundRect,0.250000X-0.475000X0.250000X-0.475000X-0.250000X0.475000X-0.250000X0.475000X0.250000X0*%
%TD*%
%TA.AperFunction,ViaPad*%
%ADD37C,0.450000*%
%TD*%
%TA.AperFunction,ViaPad*%
%ADD38C,0.800000*%
%TD*%
%TA.AperFunction,Conductor*%
%ADD39C,0.200000*%
%TD*%
%TA.AperFunction,Conductor*%
%ADD40C,0.250000*%
%TD*%
%TA.AperFunction,Conductor*%
%ADD41C,0.500000*%
%TD*%
G04 APERTURE END LIST*
D10*
%TO.P,H113,1,1*%
%TO.N,GND*%
X142600000Y-85000000D03*
X143302944Y-83302944D03*
X143302944Y-86697056D03*
X145000000Y-82600000D03*
D11*
X145000000Y-85000000D03*
D10*
X145000000Y-87400000D03*
X146697056Y-83302944D03*
X146697056Y-86697056D03*
X147400000Y-85000000D03*
%TD*%
D12*
%TO.P,J1,1,Pin_1*%
%TO.N,/ARM_B*%
X170900000Y-135300000D03*
D13*
%TO.P,J1,2,Pin_2*%
%TO.N,/ARM_OUT_A*%
X175900000Y-135300000D03*
%TD*%
D14*
%TO.P,J4,1,Pin_1*%
%TO.N,+9V*%
X203097056Y-130322056D03*
D15*
%TO.P,J4,2,Pin_2*%
%TO.N,Net-(J4-Pin_2)*%
X200597056Y-130322056D03*
%TD*%
D10*
%TO.P,H109,1,1*%
%TO.N,GND*%
X202600000Y-85000000D03*
X203302944Y-83302944D03*
X203302944Y-86697056D03*
X205000000Y-82600000D03*
D11*
X205000000Y-85000000D03*
D10*
X205000000Y-87400000D03*
X206697056Y-83302944D03*
X206697056Y-86697056D03*
X207400000Y-85000000D03*
%TD*%
D16*
%TO.P,J7,1,Pin_1*%
%TO.N,unconnected-(J7-Pin_1-Pad1)*%
X203672056Y-122547056D03*
D17*
%TO.P,J7,2,Pin_2*%
%TO.N,/MCU_STM32G474/USART1_RX*%
X203672056Y-120047056D03*
%TO.P,J7,3,Pin_3*%
%TO.N,/MCU_STM32G474/USART1_TX*%
X203672056Y-117547056D03*
%TO.P,J7,4,Pin_4*%
%TO.N,GND*%
X203672056Y-115047056D03*
%TD*%
D10*
%TO.P,H111,1,1*%
%TO.N,GND*%
X202600000Y-145000000D03*
X203302944Y-143302944D03*
X203302944Y-146697056D03*
X205000000Y-142600000D03*
D11*
X205000000Y-145000000D03*
D10*
X205000000Y-147400000D03*
X206697056Y-143302944D03*
X206697056Y-146697056D03*
X207400000Y-145000000D03*
%TD*%
D18*
%TO.P,BT1,1,-*%
%TO.N,GND*%
X144900000Y-136300000D03*
D19*
%TO.P,BT1,2,+*%
%TO.N,Net-(BT1-+)*%
X144900000Y-129100000D03*
%TD*%
D14*
%TO.P,J5,1,Pin_1*%
%TO.N,+9V*%
X203097056Y-137822056D03*
D15*
%TO.P,J5,2,Pin_2*%
%TO.N,Net-(J4-Pin_2)*%
X200597056Y-137822056D03*
%TD*%
D10*
%TO.P,H114,1,1*%
%TO.N,GND*%
X142600000Y-145000000D03*
X143302944Y-143302944D03*
X143302944Y-146697056D03*
X145000000Y-142600000D03*
D11*
X145000000Y-145000000D03*
D10*
X145000000Y-147400000D03*
X146697056Y-143302944D03*
X146697056Y-146697056D03*
X147400000Y-145000000D03*
%TD*%
D20*
%TO.P,R1201,1*%
%TO.N,Net-(U1201-VDD)*%
X185587056Y-115997056D03*
%TO.P,R1201,2*%
%TO.N,+3.3V*%
X186607056Y-115997056D03*
%TD*%
D21*
%TO.P,C103,1*%
%TO.N,+9V*%
X164750000Y-116000000D03*
%TO.P,C103,2*%
%TO.N,GND*%
X166650000Y-116000000D03*
%TD*%
D22*
%TO.P,U1201,1,SDA*%
%TO.N,/I2C_SDA*%
X190572056Y-117392056D03*
%TO.P,U1201,2,SCL*%
%TO.N,/I2C_SCL*%
X190572056Y-118662056D03*
%TO.P,U1201,3,ALERT*%
%TO.N,unconnected-(U1201-ALERT-Pad3)*%
X190572056Y-119932056D03*
%TO.P,U1201,4,GND*%
%TO.N,GND*%
X190572056Y-121202056D03*
%TO.P,U1201,5,A2*%
X185622056Y-121202056D03*
%TO.P,U1201,6,A1*%
X185622056Y-119932056D03*
%TO.P,U1201,7,A0*%
X185622056Y-118662056D03*
%TO.P,U1201,8,VDD*%
%TO.N,Net-(U1201-VDD)*%
X185622056Y-117392056D03*
%TD*%
D23*
%TO.P,C1201,1*%
%TO.N,+3.3V*%
X186577056Y-114897056D03*
%TO.P,C1201,2*%
%TO.N,GND*%
X185617056Y-114897056D03*
%TD*%
D24*
%TO.P,R403,1*%
%TO.N,/ARM_IN_A*%
X184100000Y-128300000D03*
%TO.P,R403,2*%
%TO.N,Net-(U1-AHS)*%
X184100000Y-125375000D03*
%TD*%
D25*
%TO.P,C3,1*%
%TO.N,/ARM_IN_A*%
X179800000Y-112650000D03*
%TO.P,C3,2*%
%TO.N,Net-(U1-AHB)*%
X179800000Y-110750000D03*
%TD*%
D26*
%TO.P,TP9V1,1,1*%
%TO.N,+9V*%
X164000000Y-118200000D03*
%TD*%
D27*
%TO.P,R103,1*%
%TO.N,Net-(U101-FB)*%
X156300000Y-117910000D03*
%TO.P,R103,2*%
%TO.N,GND*%
X156300000Y-116890000D03*
%TD*%
D28*
%TO.P,R102,1*%
%TO.N,+9V*%
X157500000Y-115490000D03*
%TO.P,R102,2*%
%TO.N,Net-(U101-FB)*%
X157500000Y-116510000D03*
%TD*%
D29*
%TO.P,C9,1*%
%TO.N,VBUS*%
X151400000Y-120250000D03*
%TO.P,C9,2*%
%TO.N,GND*%
X151400000Y-115150000D03*
%TD*%
D26*
%TO.P,TP3V3,1,1*%
%TO.N,+3.3V*%
X194200000Y-121000000D03*
%TD*%
D30*
%TO.P,R404,1*%
%TO.N,/ARM_B*%
X171737500Y-120400000D03*
%TO.P,R404,2*%
%TO.N,Net-(U1-BHS)*%
X174662500Y-120400000D03*
%TD*%
D31*
%TO.P,C102,1*%
%TO.N,Net-(U101-VCC)*%
X157725000Y-118000000D03*
%TO.P,C102,2*%
%TO.N,GND*%
X159275000Y-118000000D03*
%TD*%
D32*
%TO.P,U1,1,BHB*%
%TO.N,Net-(U1-BHB)*%
X173572056Y-110684556D03*
%TO.P,U1,2,EN*%
%TO.N,/Pwr_EN*%
X174222056Y-110684556D03*
%TO.P,U1,3,BHI*%
%TO.N,/In_B_H*%
X174872056Y-110684556D03*
%TO.P,U1,4,BLI*%
%TO.N,unconnected-(U1-BLI-Pad4)*%
X175522056Y-110684556D03*
%TO.P,U1,5,ALI*%
%TO.N,unconnected-(U1-ALI-Pad5)*%
X176172056Y-110684556D03*
%TO.P,U1,6,AHI*%
%TO.N,/In_A_H*%
X176822056Y-110684556D03*
%TO.P,U1,7*%
%TO.N,N/C*%
X177472056Y-110684556D03*
%TO.P,U1,8,AHB*%
%TO.N,Net-(U1-AHB)*%
X178122056Y-110684556D03*
%TO.P,U1,9,AHO*%
%TO.N,/Cmd_H_A*%
X178122056Y-116409556D03*
%TO.P,U1,10,AHS*%
%TO.N,Net-(U1-AHS)*%
X177472056Y-116409556D03*
%TO.P,U1,11,ALO*%
%TO.N,/Cmd_L_A*%
X176822056Y-116409556D03*
%TO.P,U1,12,VDD*%
%TO.N,+9V*%
X176172056Y-116409556D03*
%TO.P,U1,13,VSS*%
%TO.N,GND*%
X175522056Y-116409556D03*
%TO.P,U1,14,BLO*%
%TO.N,/Cmd_L_B*%
X174872056Y-116409556D03*
%TO.P,U1,15,BHS*%
%TO.N,Net-(U1-BHS)*%
X174222056Y-116409556D03*
%TO.P,U1,16,BHO*%
%TO.N,/Cmd_H_B*%
X173572056Y-116409556D03*
%TD*%
D26*
%TO.P,TPBOOT0-1,1,1*%
%TO.N,Net-(U6-PB8)*%
X182200000Y-92100000D03*
%TD*%
D33*
%TO.P,C404,1*%
%TO.N,+9V*%
X176300000Y-118625000D03*
%TO.P,C404,2*%
%TO.N,GND*%
X176300000Y-120175000D03*
%TD*%
D27*
%TO.P,R101,1*%
%TO.N,Net-(U101-FSW)*%
X155200000Y-117910000D03*
%TO.P,R101,2*%
%TO.N,GND*%
X155200000Y-116890000D03*
%TD*%
D34*
%TO.P,U101,1,FSW*%
%TO.N,Net-(U101-FSW)*%
X155300000Y-119700000D03*
%TO.P,U101,2,FB*%
%TO.N,Net-(U101-FB)*%
X156300000Y-119700000D03*
%TO.P,U101,3,VCC*%
%TO.N,Net-(U101-VCC)*%
X157300000Y-119700000D03*
%TO.P,U101,4,VIN*%
%TO.N,VBUS*%
X158300000Y-119700000D03*
%TO.P,U101,5,VIN*%
X159300000Y-119700000D03*
D35*
%TO.P,U101,6,VOUT*%
%TO.N,+9V*%
X163900000Y-120200000D03*
%TO.P,U101,7,VOUT*%
X163900000Y-124400000D03*
D34*
%TO.P,U101,8*%
%TO.N,N/C*%
X159300000Y-124900000D03*
%TO.P,U101,9,VIN*%
%TO.N,Net-(U101-EN)*%
X158300000Y-124900000D03*
%TO.P,U101,10,AGND*%
%TO.N,GND*%
X157300000Y-124900000D03*
%TO.P,U101,11,PG*%
%TO.N,unconnected-(U101-PG-Pad11)*%
X156300000Y-124900000D03*
%TO.P,U101,12,EN*%
%TO.N,Net-(U101-EN)*%
X155300000Y-124900000D03*
D35*
%TO.P,U101,13,PGND*%
%TO.N,GND*%
X156750000Y-122300000D03*
%TD*%
D36*
%TO.P,C2,1*%
%TO.N,Net-(U1-BHB)*%
X171897056Y-110609556D03*
%TO.P,C2,2*%
%TO.N,/ARM_B*%
X171897056Y-112509556D03*
%TD*%
D37*
%TO.N,+3.3V*%
X189097056Y-85397056D03*
D38*
X192800000Y-122100000D03*
D37*
X158728768Y-135528768D03*
X191697056Y-95997056D03*
X177627056Y-85977056D03*
X177697056Y-103797056D03*
X156963215Y-145701173D03*
X189797056Y-105697056D03*
X180797056Y-92797056D03*
D38*
X165400000Y-104074000D03*
X193000000Y-108200000D03*
D37*
X177497056Y-95697056D03*
D38*
X190300000Y-107700000D03*
D37*
X166400000Y-105300000D03*
X197000000Y-121000000D03*
X165700000Y-85600000D03*
D38*
X194200000Y-122400000D03*
X192700000Y-115500000D03*
X205900000Y-102900000D03*
D37*
%TO.N,GND*%
X193000000Y-149300000D03*
X168600000Y-111900000D03*
X175000000Y-149300000D03*
X140700000Y-121000000D03*
X183600000Y-119400000D03*
X172400000Y-100000000D03*
X143097056Y-100297056D03*
X140700000Y-124000000D03*
X205000000Y-80800000D03*
X140700000Y-130000000D03*
X172000000Y-149300000D03*
X193097056Y-106297056D03*
X164900000Y-89900000D03*
D38*
X167900000Y-117200000D03*
D37*
X165400000Y-81000000D03*
X145900000Y-80800000D03*
X209200000Y-131500000D03*
X183200000Y-140500000D03*
X205000000Y-149500000D03*
X178097056Y-109297056D03*
X185897056Y-134497056D03*
X145100000Y-114300000D03*
D38*
X195200000Y-128200000D03*
D37*
X180397056Y-102997056D03*
X209200000Y-107500000D03*
X151000000Y-149300000D03*
X181197056Y-95597056D03*
X164800000Y-100300000D03*
X163000000Y-149300000D03*
X150700000Y-140800000D03*
X148000000Y-149300000D03*
X189400000Y-81000000D03*
X168197056Y-128297056D03*
X153097056Y-90297056D03*
X140700000Y-139000000D03*
X141400000Y-82500000D03*
D38*
X189900000Y-130200000D03*
D37*
X169197056Y-127297056D03*
X159400000Y-81000000D03*
X185797056Y-103897056D03*
X140700000Y-112000000D03*
D38*
X149100000Y-110800000D03*
D37*
X146300000Y-114300000D03*
X175100000Y-127400000D03*
X170197056Y-127297056D03*
X178000000Y-149300000D03*
D38*
X193500000Y-103600000D03*
D37*
X140700000Y-97000000D03*
X180700000Y-127300000D03*
X142000000Y-148200000D03*
X154200000Y-133200000D03*
X170197056Y-128297056D03*
X143100000Y-109500000D03*
X145700000Y-114300000D03*
X140700000Y-100000000D03*
X185900000Y-129200000D03*
X140700000Y-136000000D03*
X187000000Y-149300000D03*
X209200000Y-101500000D03*
X179697056Y-82097056D03*
X167097056Y-118297056D03*
X140700000Y-88000000D03*
X160000000Y-149300000D03*
X196000000Y-149300000D03*
X153400000Y-100600000D03*
X173097056Y-105297056D03*
X169197056Y-128297056D03*
X202400000Y-81100000D03*
D38*
X183500000Y-115100000D03*
D37*
X178700000Y-127300000D03*
X140700000Y-91000000D03*
X209200000Y-119500000D03*
X162400000Y-81000000D03*
X148600000Y-80900000D03*
X140700000Y-85000000D03*
X183097056Y-90297056D03*
X140700000Y-118000000D03*
D38*
X158800000Y-116300000D03*
D37*
X203097056Y-95297056D03*
X140700000Y-133000000D03*
X140700000Y-109000000D03*
X169000000Y-149300000D03*
X168400000Y-81000000D03*
X198097056Y-95297056D03*
X209200000Y-95500000D03*
X209200000Y-89500000D03*
D38*
X205100000Y-100400000D03*
D37*
X198300000Y-81100000D03*
X140700000Y-103000000D03*
D38*
X156100000Y-114100000D03*
D37*
X177400000Y-81000000D03*
X191847056Y-100547056D03*
D38*
X184600000Y-89500000D03*
D37*
X145000000Y-149300000D03*
X178900000Y-107800000D03*
X140700000Y-142000000D03*
D38*
X205000000Y-97700000D03*
D37*
X189397056Y-106797056D03*
X186000000Y-107900000D03*
X209200000Y-145000000D03*
X209200000Y-104500000D03*
X180400000Y-81000000D03*
D38*
X189500000Y-127200000D03*
D37*
X140600000Y-145400000D03*
X187097056Y-110297056D03*
X172797056Y-85897056D03*
X142900000Y-81000000D03*
X209200000Y-125500000D03*
X178700000Y-126300000D03*
X168197056Y-127297056D03*
X140700000Y-127000000D03*
X153400000Y-81000000D03*
X199000000Y-149300000D03*
X193000000Y-141000000D03*
X187797056Y-96497056D03*
X184900000Y-102100000D03*
X191600000Y-110800000D03*
X140700000Y-106000000D03*
X143097056Y-90297056D03*
X209200000Y-98500000D03*
X182097056Y-109297056D03*
X166000000Y-149300000D03*
X209200000Y-110500000D03*
X181000000Y-149300000D03*
X183400000Y-81000000D03*
X209200000Y-113500000D03*
X207600000Y-81600000D03*
D38*
X149750000Y-111450000D03*
D37*
X209200000Y-86500000D03*
X209200000Y-128500000D03*
X179700000Y-126300000D03*
X154000000Y-149300000D03*
X209200000Y-122500000D03*
X195400000Y-81000000D03*
X209200000Y-143500000D03*
X209200000Y-92500000D03*
X203097056Y-106297056D03*
X183097056Y-100297056D03*
X171400000Y-81000000D03*
X192400000Y-81000000D03*
D38*
X199500000Y-125500000D03*
X158400000Y-122800000D03*
D37*
X140700000Y-94000000D03*
X180700000Y-126300000D03*
X176297056Y-89697056D03*
X202000000Y-149300000D03*
D38*
X189300000Y-125400000D03*
D37*
X198097056Y-106297056D03*
X186400000Y-81000000D03*
X174400000Y-81000000D03*
X197097056Y-103047056D03*
X157000000Y-149300000D03*
X175400000Y-115100000D03*
X209200000Y-134500000D03*
X209200000Y-116500000D03*
X190000000Y-149300000D03*
X209200000Y-140500000D03*
X184000000Y-149300000D03*
X156400000Y-81000000D03*
X208100000Y-148200000D03*
D38*
X176500000Y-121100000D03*
D37*
X179700000Y-127300000D03*
X171700000Y-140600000D03*
X151200000Y-81000000D03*
X209200000Y-137500000D03*
D38*
%TO.N,/Imes_mot*%
X184700000Y-112100000D03*
X184400000Y-103800000D03*
D37*
%TO.N,VBUS*%
X170097056Y-123500000D03*
X148000000Y-123750000D03*
X147000000Y-122800000D03*
X181400000Y-123200000D03*
X147000000Y-123750000D03*
X148000000Y-121750000D03*
X148000000Y-122800000D03*
X172000000Y-123500000D03*
X180400000Y-123200000D03*
X147000000Y-124800000D03*
X147000000Y-121750000D03*
X181400000Y-121200000D03*
X185674263Y-112822793D03*
X167900000Y-121900000D03*
X171097056Y-123500000D03*
X180400000Y-121200000D03*
X181400000Y-122200000D03*
X180400000Y-122200000D03*
X169200000Y-123500000D03*
X148000000Y-124800000D03*
X167900000Y-122600000D03*
D38*
%TO.N,/VBus_Sense*%
X191500000Y-103100000D03*
X188487056Y-114000000D03*
%TO.N,+9V*%
X165300000Y-126300000D03*
X164100000Y-126300000D03*
X163000000Y-126300000D03*
X196100000Y-127600000D03*
D37*
X176300000Y-117800000D03*
D38*
X194200000Y-127600000D03*
X164800000Y-122000000D03*
%TO.N,/In_A_H*%
X180162712Y-100214922D03*
X176822056Y-108600000D03*
D37*
%TO.N,/In_B_H*%
X174872056Y-109400000D03*
D38*
%TO.N,/MCU_STM32G474/NRST*%
X177000000Y-99500000D03*
X197200000Y-97900000D03*
%TO.N,/ARM_B*%
X174400000Y-123800000D03*
%TO.N,/MCU_STM32G474/SWO*%
X197500000Y-99900000D03*
X185200000Y-95500000D03*
%TO.N,Net-(U6-PB8)*%
X182222056Y-92100000D03*
D37*
%TO.N,/{slash}A*%
X158600000Y-136800000D03*
X163900000Y-142100000D03*
%TO.N,/{slash}B*%
X160278768Y-136878768D03*
X164000000Y-140600000D03*
D38*
%TO.N,/MCU_STM32G474/VCP_TX*%
X200200000Y-95300000D03*
X195500000Y-105500000D03*
%TO.N,/Pwr_EN*%
X177200000Y-100999000D03*
%TO.N,/MCU_STM32G474/VCP_RX*%
X196400000Y-104300000D03*
X205100000Y-95900000D03*
D37*
%TO.N,/I2C_SCL*%
X193300000Y-100000000D03*
%TO.N,/I2C_SDA*%
X191997056Y-99497056D03*
D38*
%TO.N,/ARM_IN_A*%
X183300000Y-129600000D03*
D37*
%TO.N,/Cmd_L_A*%
X177200000Y-120200000D03*
%TO.N,/Cmd_H_A*%
X178422056Y-119300129D03*
%TO.N,/Cmd_H_B*%
X173000000Y-119600000D03*
%TO.N,/Cmd_L_B*%
X174965046Y-118350000D03*
%TD*%
D39*
%TO.N,+3.3V*%
X158728768Y-135528768D02*
X158546232Y-135528768D01*
X186607056Y-115500000D02*
X186607056Y-114927056D01*
X157600000Y-136475000D02*
X157600000Y-138000000D01*
X158200000Y-138600000D02*
X158200000Y-144500000D01*
X192700000Y-115500000D02*
X186607056Y-115500000D01*
X186607056Y-114927056D02*
X186577056Y-114897056D01*
X158200000Y-144500000D02*
X157000000Y-145700000D01*
X157600000Y-138000000D02*
X158200000Y-138600000D01*
X158546232Y-135528768D02*
X157600000Y-136475000D01*
X186607056Y-115997056D02*
X186607056Y-115500000D01*
X194200000Y-121000000D02*
X194200000Y-122400000D01*
%TO.N,GND*%
X166650000Y-117850000D02*
X167097056Y-118297056D01*
X159275000Y-116775000D02*
X158800000Y-116300000D01*
X156750000Y-122300000D02*
X157900000Y-122300000D01*
X155200000Y-116890000D02*
X155200000Y-115000000D01*
X166650000Y-116000000D02*
X166650000Y-117850000D01*
X149100000Y-110800000D02*
X149750000Y-111450000D01*
X176400000Y-121000000D02*
X176500000Y-121100000D01*
X159275000Y-118000000D02*
X159275000Y-116775000D01*
X157300000Y-124900000D02*
X157300000Y-122850000D01*
X149750000Y-111450000D02*
X151400000Y-113100000D01*
X175522056Y-116409556D02*
X175522056Y-115222056D01*
X175522056Y-115222056D02*
X175400000Y-115100000D01*
X155200000Y-115000000D02*
X156100000Y-114100000D01*
X157900000Y-122300000D02*
X158400000Y-122800000D01*
X157300000Y-122850000D02*
X156750000Y-122300000D01*
X151400000Y-113100000D02*
X151400000Y-115150000D01*
X176400000Y-119775000D02*
X176400000Y-121000000D01*
%TO.N,/Imes_mot*%
X183900000Y-111300000D02*
X183900000Y-104300000D01*
X184700000Y-112100000D02*
X183900000Y-111300000D01*
X183900000Y-104300000D02*
X184400000Y-103800000D01*
D40*
%TO.N,/VBus_Sense*%
X188487056Y-114000000D02*
X188687056Y-113800000D01*
X192800000Y-113800000D02*
X193973000Y-112627000D01*
X188687056Y-113800000D02*
X192800000Y-113800000D01*
X193973000Y-105573000D02*
X191500000Y-103100000D01*
X193973000Y-112627000D02*
X193973000Y-105573000D01*
D39*
%TO.N,+9V*%
X164240000Y-115490000D02*
X164750000Y-116000000D01*
X157310000Y-115500000D02*
X157320000Y-115490000D01*
X176175000Y-117375000D02*
X176175000Y-116412500D01*
X176300000Y-118625000D02*
X176300000Y-117800000D01*
X176175000Y-116412500D02*
X176172056Y-116409556D01*
X157320000Y-115490000D02*
X164240000Y-115490000D01*
X176300000Y-117500000D02*
X176175000Y-117375000D01*
X176300000Y-117800000D02*
X176300000Y-117500000D01*
%TO.N,/In_A_H*%
X176822056Y-108600000D02*
X176822056Y-110684556D01*
X176822056Y-103555578D02*
X176822056Y-108600000D01*
X180162712Y-100214922D02*
X176822056Y-103555578D01*
%TO.N,/In_B_H*%
X174872056Y-110684556D02*
X174872056Y-109400000D01*
%TO.N,/MCU_STM32G474/NRST*%
X197200000Y-97900000D02*
X178600000Y-97900000D01*
X178600000Y-97900000D02*
X177000000Y-99500000D01*
%TO.N,Net-(U101-VCC)*%
X157300000Y-118425000D02*
X157725000Y-118000000D01*
X157300000Y-119700000D02*
X157300000Y-118425000D01*
D41*
%TO.N,/ARM_B*%
X174400000Y-123800000D02*
X174400000Y-123000000D01*
X173100000Y-121762500D02*
X171897056Y-120559556D01*
X173162500Y-121762500D02*
X173100000Y-121762500D01*
X171897056Y-120559556D02*
X171897056Y-112509556D01*
X174400000Y-123000000D02*
X173162500Y-121762500D01*
D39*
%TO.N,/MCU_STM32G474/SWO*%
X197500000Y-99100000D02*
X197500000Y-99900000D01*
X187199000Y-97499000D02*
X195601000Y-97499000D01*
X198300000Y-97300000D02*
X198300000Y-98300000D01*
X185200000Y-95500000D02*
X187199000Y-97499000D01*
X197700000Y-96700000D02*
X198300000Y-97300000D01*
X198300000Y-98300000D02*
X197500000Y-99100000D01*
X196400000Y-96700000D02*
X197700000Y-96700000D01*
X195601000Y-97499000D02*
X196400000Y-96700000D01*
D40*
%TO.N,Net-(U6-PB8)*%
X182200000Y-92100000D02*
X182222056Y-92100000D01*
D39*
%TO.N,Net-(U1201-VDD)*%
X185587056Y-117357056D02*
X185587056Y-115997056D01*
X185622056Y-117392056D02*
X185587056Y-117357056D01*
D40*
%TO.N,/{slash}A*%
X158600000Y-136800000D02*
X163900000Y-142100000D01*
%TO.N,/{slash}B*%
X160278768Y-136878768D02*
X160278768Y-137678768D01*
X160278768Y-137678768D02*
X163200000Y-140600000D01*
X163200000Y-140600000D02*
X164000000Y-140600000D01*
D39*
%TO.N,/MCU_STM32G474/VCP_TX*%
X200200000Y-98191364D02*
X200200000Y-95300000D01*
X195500000Y-105500000D02*
X195500000Y-102891364D01*
X195500000Y-102891364D02*
X200200000Y-98191364D01*
%TO.N,/Pwr_EN*%
X174222056Y-109322056D02*
X174222056Y-110684556D01*
X174200000Y-103999000D02*
X174200000Y-109300000D01*
X177200000Y-100999000D02*
X174200000Y-103999000D01*
X174200000Y-109300000D02*
X174222056Y-109322056D01*
%TO.N,/MCU_STM32G474/VCP_RX*%
X196700000Y-104300000D02*
X205100000Y-95900000D01*
X196400000Y-104300000D02*
X196700000Y-104300000D01*
%TO.N,/I2C_SCL*%
X194800000Y-115394112D02*
X192497056Y-117697056D01*
X192497056Y-117697056D02*
X192497056Y-117712055D01*
X192497056Y-117712055D02*
X191547055Y-118662056D01*
X194800000Y-101500000D02*
X194800000Y-115394112D01*
X191547055Y-118662056D02*
X190572056Y-118662056D01*
X193300000Y-100000000D02*
X194800000Y-101500000D01*
%TO.N,Net-(U101-FSW)*%
X155200000Y-119600000D02*
X155300000Y-119700000D01*
X155200000Y-117910000D02*
X155200000Y-119600000D01*
%TO.N,Net-(U101-FB)*%
X156300000Y-117910000D02*
X156300000Y-119700000D01*
X157500000Y-116710000D02*
X156300000Y-117910000D01*
X157500000Y-116510000D02*
X157500000Y-116710000D01*
%TO.N,/I2C_SDA*%
X190572056Y-117392056D02*
X192202056Y-117392056D01*
X194399000Y-115195112D02*
X194399000Y-101899000D01*
X193633900Y-115960212D02*
X193697056Y-115897056D01*
X193399000Y-116195112D02*
X193633900Y-115960212D01*
X193697056Y-115897056D02*
X194194112Y-115400000D01*
X194194112Y-115400000D02*
X194399000Y-115195112D01*
X192202056Y-117392056D02*
X193399000Y-116195112D01*
X194399000Y-101899000D02*
X191997056Y-99497056D01*
%TO.N,Net-(U1-BHB)*%
X173572056Y-110684556D02*
X171972056Y-110684556D01*
X171972056Y-110684556D02*
X171897056Y-110609556D01*
D41*
%TO.N,/ARM_IN_A*%
X182400000Y-122700000D02*
X182400000Y-120900000D01*
X183300000Y-129600000D02*
X183300000Y-129100000D01*
X186400000Y-126300000D02*
X186400000Y-124600000D01*
X186400000Y-124600000D02*
X185300000Y-123500000D01*
X179800000Y-118300000D02*
X179800000Y-112650000D01*
X182400000Y-120900000D02*
X179800000Y-118300000D01*
X185300000Y-123500000D02*
X183200000Y-123500000D01*
X183200000Y-123500000D02*
X182400000Y-122700000D01*
X184100000Y-128300000D02*
X184400000Y-128300000D01*
X183300000Y-129100000D02*
X184100000Y-128300000D01*
X184400000Y-128300000D02*
X186400000Y-126300000D01*
%TO.N,Net-(U1-AHB)*%
X179734556Y-110684556D02*
X179800000Y-110750000D01*
X178122056Y-110684556D02*
X179734556Y-110684556D01*
D39*
%TO.N,/Cmd_L_A*%
X177495056Y-117795056D02*
X176822056Y-117122056D01*
X177200000Y-120200000D02*
X177495056Y-119904944D01*
X177495056Y-119904944D02*
X177495056Y-117795056D01*
X176822056Y-117122056D02*
X176822056Y-116409556D01*
%TO.N,/Cmd_H_A*%
X178400000Y-119278073D02*
X178400000Y-117400000D01*
X178422056Y-119300129D02*
X178400000Y-119278073D01*
X178122056Y-117122056D02*
X178122056Y-116409556D01*
X178400000Y-117400000D02*
X178122056Y-117122056D01*
%TO.N,/Cmd_H_B*%
X173200000Y-119500000D02*
X173572056Y-119127944D01*
X173000000Y-119600000D02*
X173100000Y-119500000D01*
X173572056Y-119127944D02*
X173572056Y-116409556D01*
X173100000Y-119500000D02*
X173200000Y-119500000D01*
%TO.N,/Cmd_L_B*%
X175000000Y-117601890D02*
X174872056Y-117473946D01*
X174965046Y-118350000D02*
X175000000Y-118315046D01*
X175000000Y-118315046D02*
X175000000Y-117601890D01*
X174872056Y-117473946D02*
X174872056Y-116409556D01*
%TO.N,Net-(U1-AHS)*%
X177896056Y-120296056D02*
X178200000Y-120600000D01*
D41*
X181618991Y-125375000D02*
X178200000Y-121956009D01*
D39*
X177896056Y-117496056D02*
X177896056Y-120296056D01*
X177472056Y-116409556D02*
X177472056Y-117072056D01*
D41*
X178200000Y-121956009D02*
X178200000Y-120600000D01*
X184100000Y-125375000D02*
X181618991Y-125375000D01*
D39*
X177472056Y-117072056D02*
X177896056Y-117496056D01*
%TO.N,Net-(U1-BHS)*%
X174440046Y-117640046D02*
X174440046Y-120177546D01*
X174200000Y-116431612D02*
X174200000Y-117400000D01*
X174222056Y-116409556D02*
X174200000Y-116431612D01*
X174440046Y-120177546D02*
X174662500Y-120400000D01*
X174200000Y-117400000D02*
X174440046Y-117640046D01*
%TO.N,Net-(U101-EN)*%
X158300000Y-124900000D02*
X157700000Y-125500000D01*
X157700000Y-125500000D02*
X155900000Y-125500000D01*
X155900000Y-125500000D02*
X155300000Y-124900000D01*
%TD*%
%TA.AperFunction,Conductor*%
%TO.N,GND*%
G36*
X205002544Y-80000604D02*
G01*
X205370311Y-80015778D01*
X205375938Y-80016141D01*
X205460071Y-80023493D01*
X205464478Y-80023960D01*
X205787068Y-80064138D01*
X205793246Y-80065066D01*
X205871876Y-80078923D01*
X205875770Y-80079674D01*
X206199126Y-80147441D01*
X206205732Y-80149016D01*
X206274718Y-80167493D01*
X206277943Y-80168405D01*
X206603336Y-80265243D01*
X206610349Y-80267560D01*
X206664256Y-80287175D01*
X206666874Y-80288161D01*
X206996673Y-80416812D01*
X207003994Y-80419943D01*
X207015734Y-80425416D01*
X207034986Y-80434391D01*
X207036942Y-80435325D01*
X207326298Y-80576746D01*
X207375189Y-80600641D01*
X207384203Y-80605518D01*
X207730421Y-80811772D01*
X207738982Y-80817364D01*
X208067007Y-81051519D01*
X208075076Y-81057798D01*
X208361100Y-81300000D01*
X208382628Y-81318229D01*
X208390164Y-81325165D01*
X208675158Y-81610102D01*
X208682085Y-81617625D01*
X208807285Y-81765418D01*
X208942579Y-81925128D01*
X208948874Y-81933214D01*
X209183079Y-82261168D01*
X209188685Y-82269748D01*
X209395006Y-82615920D01*
X209399885Y-82624933D01*
X209565221Y-82963049D01*
X209566202Y-82965103D01*
X209580658Y-82996095D01*
X209583795Y-83003426D01*
X209712491Y-83333150D01*
X209713495Y-83335812D01*
X209733117Y-83389703D01*
X209735441Y-83396733D01*
X209832316Y-83722012D01*
X209833247Y-83725302D01*
X209851737Y-83794283D01*
X209853323Y-83800928D01*
X209921146Y-84124228D01*
X209921902Y-84128143D01*
X209935773Y-84206765D01*
X209936705Y-84212959D01*
X209976938Y-84535466D01*
X209977419Y-84539996D01*
X209984779Y-84624025D01*
X209985146Y-84629708D01*
X209999894Y-84985406D01*
X210000000Y-84990543D01*
X210000000Y-114924002D01*
X209999500Y-144997438D01*
X209999394Y-145002561D01*
X209984185Y-145370249D01*
X209983819Y-145375930D01*
X209983819Y-145375931D01*
X209976470Y-145459929D01*
X209975990Y-145464460D01*
X209935786Y-145786997D01*
X209934854Y-145793191D01*
X209921005Y-145871733D01*
X209920250Y-145875648D01*
X209852453Y-146198988D01*
X209850867Y-146205634D01*
X209832405Y-146274536D01*
X209831475Y-146277825D01*
X209734622Y-146603147D01*
X209732299Y-146610176D01*
X209712696Y-146664034D01*
X209711691Y-146666698D01*
X209583036Y-146996414D01*
X209579903Y-147003741D01*
X209579902Y-147003743D01*
X209565471Y-147034691D01*
X209564489Y-147036747D01*
X209399182Y-147374889D01*
X209394304Y-147383903D01*
X209188037Y-147730064D01*
X209182431Y-147738644D01*
X208948284Y-148066587D01*
X208941989Y-148074674D01*
X208681566Y-148382155D01*
X208674625Y-148389695D01*
X208389695Y-148674625D01*
X208382155Y-148681566D01*
X208074674Y-148941989D01*
X208066587Y-148948284D01*
X207738644Y-149182431D01*
X207730064Y-149188037D01*
X207383903Y-149394304D01*
X207374889Y-149399182D01*
X207036747Y-149564489D01*
X207034691Y-149565471D01*
X207003743Y-149579902D01*
X206996414Y-149583036D01*
X206666698Y-149711691D01*
X206664034Y-149712696D01*
X206610176Y-149732299D01*
X206603147Y-149734622D01*
X206277825Y-149831475D01*
X206274536Y-149832405D01*
X206205634Y-149850867D01*
X206198988Y-149852453D01*
X205875648Y-149920250D01*
X205871733Y-149921005D01*
X205793191Y-149934854D01*
X205786997Y-149935786D01*
X205464460Y-149975990D01*
X205459929Y-149976470D01*
X205375931Y-149983819D01*
X205370249Y-149984185D01*
X205002563Y-149999394D01*
X204997438Y-149999500D01*
X145002562Y-149999500D01*
X144997437Y-149999394D01*
X144629749Y-149984185D01*
X144624067Y-149983819D01*
X144540069Y-149976470D01*
X144535538Y-149975990D01*
X144213001Y-149935786D01*
X144206807Y-149934854D01*
X144128265Y-149921005D01*
X144124350Y-149920250D01*
X143801010Y-149852453D01*
X143794364Y-149850867D01*
X143725462Y-149832405D01*
X143722173Y-149831475D01*
X143396851Y-149734622D01*
X143389822Y-149732299D01*
X143335964Y-149712696D01*
X143333300Y-149711691D01*
X143003584Y-149583036D01*
X142996255Y-149579902D01*
X142965262Y-149565450D01*
X142963206Y-149564467D01*
X142625119Y-149399186D01*
X142616105Y-149394309D01*
X142269935Y-149188037D01*
X142261355Y-149182431D01*
X141933412Y-148948284D01*
X141925325Y-148941989D01*
X141617844Y-148681566D01*
X141610304Y-148674625D01*
X141325374Y-148389695D01*
X141318433Y-148382155D01*
X141058010Y-148074674D01*
X141051715Y-148066587D01*
X140853036Y-147788319D01*
X140817568Y-147738643D01*
X140811962Y-147730064D01*
X140605683Y-147383883D01*
X140600817Y-147374889D01*
X140435458Y-147036641D01*
X140434595Y-147034837D01*
X140420089Y-147003729D01*
X140416962Y-146996414D01*
X140381089Y-146904480D01*
X140288299Y-146666679D01*
X140287302Y-146664034D01*
X140267692Y-146610157D01*
X140265383Y-146603169D01*
X140168512Y-146277787D01*
X140167604Y-146274576D01*
X140149128Y-146205622D01*
X140147549Y-146199008D01*
X140079737Y-145875594D01*
X140078999Y-145871766D01*
X140065140Y-145793169D01*
X140064216Y-145787028D01*
X140024004Y-145464429D01*
X140023530Y-145459956D01*
X140016177Y-145375906D01*
X140015814Y-145370277D01*
X140000606Y-145002561D01*
X140000500Y-144997438D01*
X140000500Y-144818234D01*
X141300000Y-144818234D01*
X141300000Y-145181765D01*
X141335632Y-145543556D01*
X141406550Y-145900090D01*
X141406553Y-145900101D01*
X141512086Y-146247997D01*
X141651207Y-146583864D01*
X141651209Y-146583869D01*
X141822570Y-146904462D01*
X141822581Y-146904480D01*
X142024551Y-147206750D01*
X142211678Y-147434765D01*
X142211679Y-147434766D01*
X143705747Y-145940697D01*
X143779588Y-146042330D01*
X143957670Y-146220412D01*
X144059301Y-146294251D01*
X142565232Y-147788319D01*
X142565233Y-147788320D01*
X142793249Y-147975448D01*
X143095519Y-148177418D01*
X143095537Y-148177429D01*
X143416130Y-148348790D01*
X143416135Y-148348792D01*
X143752002Y-148487913D01*
X144099898Y-148593446D01*
X144099909Y-148593449D01*
X144456443Y-148664367D01*
X144818234Y-148700000D01*
X145181766Y-148700000D01*
X145543556Y-148664367D01*
X145900090Y-148593449D01*
X145900101Y-148593446D01*
X146247997Y-148487913D01*
X146583864Y-148348792D01*
X146583869Y-148348790D01*
X146904462Y-148177429D01*
X146904480Y-148177418D01*
X147206736Y-147975457D01*
X147206750Y-147975447D01*
X147434765Y-147788320D01*
X147434766Y-147788319D01*
X145940698Y-146294251D01*
X146042330Y-146220412D01*
X146220412Y-146042330D01*
X146294251Y-145940698D01*
X147788319Y-147434766D01*
X147788320Y-147434765D01*
X147975447Y-147206750D01*
X147975457Y-147206736D01*
X148177418Y-146904480D01*
X148177429Y-146904462D01*
X148348790Y-146583869D01*
X148348792Y-146583864D01*
X148487913Y-146247997D01*
X148593446Y-145900101D01*
X148593449Y-145900090D01*
X148644158Y-145645155D01*
X156537715Y-145645155D01*
X156537715Y-145757191D01*
X156566712Y-145865408D01*
X156566712Y-145865409D01*
X156566713Y-145865412D01*
X156570382Y-145871766D01*
X156622730Y-145962436D01*
X156701952Y-146041658D01*
X156798978Y-146097676D01*
X156907197Y-146126673D01*
X156907199Y-146126673D01*
X157019231Y-146126673D01*
X157019233Y-146126673D01*
X157127452Y-146097676D01*
X157224478Y-146041658D01*
X157303700Y-145962436D01*
X157359718Y-145865410D01*
X157387778Y-145760684D01*
X157419869Y-145705101D01*
X158306737Y-144818234D01*
X201300000Y-144818234D01*
X201300000Y-145181765D01*
X201335632Y-145543556D01*
X201406550Y-145900090D01*
X201406553Y-145900101D01*
X201512086Y-146247997D01*
X201651207Y-146583864D01*
X201651209Y-146583869D01*
X201822570Y-146904462D01*
X201822581Y-146904480D01*
X202024551Y-147206750D01*
X202211678Y-147434765D01*
X202211679Y-147434766D01*
X203705747Y-145940697D01*
X203779588Y-146042330D01*
X203957670Y-146220412D01*
X204059301Y-146294251D01*
X202565232Y-147788319D01*
X202565233Y-147788320D01*
X202793249Y-147975448D01*
X203095519Y-148177418D01*
X203095537Y-148177429D01*
X203416130Y-148348790D01*
X203416135Y-148348792D01*
X203752002Y-148487913D01*
X204099898Y-148593446D01*
X204099909Y-148593449D01*
X204456443Y-148664367D01*
X204818234Y-148700000D01*
X205181766Y-148700000D01*
X205543556Y-148664367D01*
X205900090Y-148593449D01*
X205900101Y-148593446D01*
X206247997Y-148487913D01*
X206583864Y-148348792D01*
X206583869Y-148348790D01*
X206904462Y-148177429D01*
X206904480Y-148177418D01*
X207206736Y-147975457D01*
X207206750Y-147975447D01*
X207434765Y-147788320D01*
X207434766Y-147788319D01*
X205940698Y-146294251D01*
X206042330Y-146220412D01*
X206220412Y-146042330D01*
X206294251Y-145940698D01*
X207788319Y-147434766D01*
X207788320Y-147434765D01*
X207975447Y-147206750D01*
X207975457Y-147206736D01*
X208177418Y-146904480D01*
X208177429Y-146904462D01*
X208348790Y-146583869D01*
X208348792Y-146583864D01*
X208487913Y-146247997D01*
X208593446Y-145900101D01*
X208593449Y-145900090D01*
X208664367Y-145543556D01*
X208700000Y-145181765D01*
X208700000Y-144818234D01*
X208664367Y-144456443D01*
X208593449Y-144099909D01*
X208593446Y-144099898D01*
X208487913Y-143752002D01*
X208348792Y-143416135D01*
X208348790Y-143416130D01*
X208177429Y-143095537D01*
X208177418Y-143095519D01*
X207975448Y-142793249D01*
X207788320Y-142565233D01*
X207788319Y-142565232D01*
X206294251Y-144059300D01*
X206220412Y-143957670D01*
X206042330Y-143779588D01*
X205940698Y-143705748D01*
X207434766Y-142211679D01*
X207434765Y-142211678D01*
X207206750Y-142024551D01*
X206904480Y-141822581D01*
X206904462Y-141822570D01*
X206583869Y-141651209D01*
X206583864Y-141651207D01*
X206247997Y-141512086D01*
X205900101Y-141406553D01*
X205900090Y-141406550D01*
X205543556Y-141335632D01*
X205181766Y-141300000D01*
X204818234Y-141300000D01*
X204456443Y-141335632D01*
X204099909Y-141406550D01*
X204099898Y-141406553D01*
X203752002Y-141512086D01*
X203416135Y-141651207D01*
X203416130Y-141651209D01*
X203095537Y-141822570D01*
X203095519Y-141822581D01*
X202793258Y-142024545D01*
X202793254Y-142024548D01*
X202565233Y-142211679D01*
X202565233Y-142211680D01*
X204059301Y-143705748D01*
X203957670Y-143779588D01*
X203779588Y-143957670D01*
X203705748Y-144059301D01*
X202211680Y-142565233D01*
X202211679Y-142565233D01*
X202024548Y-142793254D01*
X202024545Y-142793258D01*
X201822581Y-143095519D01*
X201822570Y-143095537D01*
X201651209Y-143416130D01*
X201651207Y-143416135D01*
X201512086Y-143752002D01*
X201406553Y-144099898D01*
X201406550Y-144099909D01*
X201335632Y-144456443D01*
X201300000Y-144818234D01*
X158306737Y-144818234D01*
X158440460Y-144684511D01*
X158480021Y-144615989D01*
X158500500Y-144539562D01*
X158500500Y-138560438D01*
X158480021Y-138484011D01*
X158451820Y-138435165D01*
X158440464Y-138415495D01*
X158440458Y-138415487D01*
X157936819Y-137911848D01*
X157903334Y-137850525D01*
X157900500Y-137824167D01*
X157900500Y-136650832D01*
X157920185Y-136583793D01*
X157936815Y-136563155D01*
X158002609Y-136497360D01*
X158063931Y-136463877D01*
X158133623Y-136468861D01*
X158189556Y-136510733D01*
X158213973Y-136576197D01*
X158205594Y-136627910D01*
X158205601Y-136627912D01*
X158205583Y-136627978D01*
X158204852Y-136632491D01*
X158203498Y-136635759D01*
X158203497Y-136635763D01*
X158174500Y-136743982D01*
X158174500Y-136856018D01*
X158203497Y-136964237D01*
X158259515Y-137061263D01*
X158338737Y-137140485D01*
X158435763Y-137196503D01*
X158540837Y-137224657D01*
X158596423Y-137256750D01*
X163443249Y-142103576D01*
X163475342Y-142159162D01*
X163490339Y-142215133D01*
X163503497Y-142264238D01*
X163503498Y-142264239D01*
X163559515Y-142361263D01*
X163638737Y-142440485D01*
X163735763Y-142496503D01*
X163843982Y-142525500D01*
X163843984Y-142525500D01*
X163956016Y-142525500D01*
X163956018Y-142525500D01*
X164064237Y-142496503D01*
X164161263Y-142440485D01*
X164240485Y-142361263D01*
X164296503Y-142264237D01*
X164325500Y-142156018D01*
X164325500Y-142043982D01*
X164296503Y-141935763D01*
X164240485Y-141838737D01*
X164161263Y-141759515D01*
X164064239Y-141703498D01*
X164064238Y-141703497D01*
X164015133Y-141690339D01*
X163959162Y-141675342D01*
X163903576Y-141643249D01*
X163397508Y-141137181D01*
X163386895Y-141117744D01*
X163372395Y-141101011D01*
X163370478Y-141087679D01*
X163364023Y-141075858D01*
X163365602Y-141053771D01*
X163362451Y-141031853D01*
X163368046Y-141019601D01*
X163369007Y-141006166D01*
X163382277Y-140988439D01*
X163391476Y-140968297D01*
X163402807Y-140961014D01*
X163410879Y-140950233D01*
X163431624Y-140942495D01*
X163450254Y-140930523D01*
X163472172Y-140927371D01*
X163476343Y-140925816D01*
X163485189Y-140925500D01*
X163679557Y-140925500D01*
X163741556Y-140942112D01*
X163835763Y-140996503D01*
X163943982Y-141025500D01*
X163943984Y-141025500D01*
X164056016Y-141025500D01*
X164056018Y-141025500D01*
X164164237Y-140996503D01*
X164261263Y-140940485D01*
X164340485Y-140861263D01*
X164396503Y-140764237D01*
X164425500Y-140656018D01*
X164425500Y-140543982D01*
X164396503Y-140435763D01*
X164340485Y-140338737D01*
X164261263Y-140259515D01*
X164164237Y-140203497D01*
X164056018Y-140174500D01*
X163943982Y-140174500D01*
X163835763Y-140203497D01*
X163835760Y-140203498D01*
X163741557Y-140257887D01*
X163679557Y-140274500D01*
X163386189Y-140274500D01*
X163319150Y-140254815D01*
X163298508Y-140238181D01*
X160640587Y-137580260D01*
X160634212Y-137568586D01*
X199546556Y-137568586D01*
X199546556Y-138075525D01*
X199586924Y-138278468D01*
X199586926Y-138278476D01*
X199666115Y-138469654D01*
X199675707Y-138484009D01*
X199781080Y-138641713D01*
X199927398Y-138788031D01*
X199927401Y-138788033D01*
X200099458Y-138902997D01*
X200290636Y-138982186D01*
X200479243Y-139019702D01*
X200493586Y-139022555D01*
X200493590Y-139022556D01*
X200493591Y-139022556D01*
X200700522Y-139022556D01*
X200700523Y-139022555D01*
X200903476Y-138982186D01*
X201094654Y-138902997D01*
X201266711Y-138788033D01*
X201413033Y-138641711D01*
X201527997Y-138469654D01*
X201607186Y-138278476D01*
X201647556Y-138075521D01*
X201647556Y-137568591D01*
X201607186Y-137365636D01*
X201527997Y-137174458D01*
X201467409Y-137083781D01*
X201467408Y-137083778D01*
X201423313Y-137017786D01*
X202046556Y-137017786D01*
X202046556Y-138626325D01*
X202049409Y-138656755D01*
X202049409Y-138656757D01*
X202091077Y-138775833D01*
X202094263Y-138784938D01*
X202174906Y-138894206D01*
X202284174Y-138974849D01*
X202305145Y-138982187D01*
X202412355Y-139019702D01*
X202442786Y-139022556D01*
X202442790Y-139022556D01*
X203751326Y-139022556D01*
X203781755Y-139019702D01*
X203781757Y-139019702D01*
X203845846Y-138997275D01*
X203909938Y-138974849D01*
X204019206Y-138894206D01*
X204099849Y-138784938D01*
X204133716Y-138688152D01*
X204144702Y-138656757D01*
X204144702Y-138656755D01*
X204147556Y-138626325D01*
X204147556Y-137017786D01*
X204144702Y-136987356D01*
X204144702Y-136987354D01*
X204099849Y-136859175D01*
X204099848Y-136859173D01*
X204019206Y-136749906D01*
X203909938Y-136669263D01*
X203909936Y-136669262D01*
X203781756Y-136624409D01*
X203751326Y-136621556D01*
X203751322Y-136621556D01*
X202442790Y-136621556D01*
X202442786Y-136621556D01*
X202412356Y-136624409D01*
X202412354Y-136624409D01*
X202284175Y-136669262D01*
X202284173Y-136669263D01*
X202174906Y-136749906D01*
X202094263Y-136859173D01*
X202094262Y-136859175D01*
X202049409Y-136987354D01*
X202049409Y-136987356D01*
X202046556Y-137017786D01*
X201423313Y-137017786D01*
X201413036Y-137002405D01*
X201413030Y-137002397D01*
X201266713Y-136856080D01*
X201177409Y-136796410D01*
X201094654Y-136741115D01*
X200903476Y-136661926D01*
X200903468Y-136661924D01*
X200700525Y-136621556D01*
X200700521Y-136621556D01*
X200493591Y-136621556D01*
X200493586Y-136621556D01*
X200290643Y-136661924D01*
X200290635Y-136661926D01*
X200099459Y-136741114D01*
X199927398Y-136856080D01*
X199781080Y-137002398D01*
X199666114Y-137174459D01*
X199586926Y-137365635D01*
X199586924Y-137365643D01*
X199546556Y-137568586D01*
X160634212Y-137568586D01*
X160607102Y-137518937D01*
X160604268Y-137492579D01*
X160604268Y-137199211D01*
X160620881Y-137137211D01*
X160642077Y-137100498D01*
X160675271Y-137043005D01*
X160704268Y-136934786D01*
X160704268Y-136822750D01*
X160675271Y-136714531D01*
X160619253Y-136617505D01*
X160540031Y-136538283D01*
X160443005Y-136482265D01*
X160334786Y-136453268D01*
X160222750Y-136453268D01*
X160114531Y-136482265D01*
X160114528Y-136482266D01*
X160017508Y-136538281D01*
X160017502Y-136538285D01*
X159938285Y-136617502D01*
X159938281Y-136617508D01*
X159882266Y-136714528D01*
X159882265Y-136714531D01*
X159853268Y-136822750D01*
X159853268Y-136934786D01*
X159877503Y-137025230D01*
X159882265Y-137043004D01*
X159882266Y-137043007D01*
X159936655Y-137137211D01*
X159940805Y-137152699D01*
X159948245Y-137164276D01*
X159953268Y-137199211D01*
X159953268Y-137393579D01*
X159933583Y-137460618D01*
X159880779Y-137506373D01*
X159811621Y-137516317D01*
X159748065Y-137487292D01*
X159741587Y-137481260D01*
X159056750Y-136796423D01*
X159024657Y-136740837D01*
X158996503Y-136635763D01*
X158940485Y-136538737D01*
X158861263Y-136459515D01*
X158796579Y-136422169D01*
X158764239Y-136403498D01*
X158764238Y-136403497D01*
X158764237Y-136403497D01*
X158656018Y-136374500D01*
X158543982Y-136374500D01*
X158435759Y-136403498D01*
X158432491Y-136404852D01*
X158429512Y-136405172D01*
X158427912Y-136405601D01*
X158427845Y-136405351D01*
X158363021Y-136412318D01*
X158300543Y-136381040D01*
X158264893Y-136320950D01*
X158267390Y-136251125D01*
X158297362Y-136202608D01*
X158401925Y-136098045D01*
X158521929Y-135978040D01*
X158583250Y-135944557D01*
X158641700Y-135945947D01*
X158672750Y-135954268D01*
X158672752Y-135954268D01*
X158784784Y-135954268D01*
X158784786Y-135954268D01*
X158893005Y-135925271D01*
X158990031Y-135869253D01*
X159069253Y-135790031D01*
X159125271Y-135693005D01*
X159154268Y-135584786D01*
X159154268Y-135472750D01*
X159125271Y-135364531D01*
X159069253Y-135267505D01*
X158990031Y-135188283D01*
X158893005Y-135132265D01*
X158784786Y-135103268D01*
X158672750Y-135103268D01*
X158564531Y-135132265D01*
X158564528Y-135132266D01*
X158467508Y-135188281D01*
X158467506Y-135188282D01*
X158386889Y-135268899D01*
X158368123Y-135283298D01*
X158368170Y-135283360D01*
X158361718Y-135288310D01*
X157359541Y-136290487D01*
X157359535Y-136290495D01*
X157319982Y-136359004D01*
X157319979Y-136359009D01*
X157314076Y-136381040D01*
X157299500Y-136435438D01*
X157299500Y-138039562D01*
X157311772Y-138085362D01*
X157319979Y-138115990D01*
X157341846Y-138153863D01*
X157341847Y-138153867D01*
X157341848Y-138153867D01*
X157359539Y-138184509D01*
X157359541Y-138184512D01*
X157863181Y-138688152D01*
X157896666Y-138749475D01*
X157899500Y-138775833D01*
X157899500Y-144324167D01*
X157879815Y-144391206D01*
X157863181Y-144411848D01*
X157035675Y-145239354D01*
X156974352Y-145272839D01*
X156947994Y-145275673D01*
X156907197Y-145275673D01*
X156798978Y-145304670D01*
X156798975Y-145304671D01*
X156701955Y-145360686D01*
X156701949Y-145360690D01*
X156622732Y-145439907D01*
X156622728Y-145439913D01*
X156566713Y-145536933D01*
X156566712Y-145536936D01*
X156537715Y-145645155D01*
X148644158Y-145645155D01*
X148650579Y-145612873D01*
X148650586Y-145612837D01*
X148664368Y-145543546D01*
X148700000Y-145181765D01*
X148700000Y-144818234D01*
X148664367Y-144456443D01*
X148593449Y-144099909D01*
X148593446Y-144099898D01*
X148487913Y-143752002D01*
X148348792Y-143416135D01*
X148348790Y-143416130D01*
X148177429Y-143095537D01*
X148177418Y-143095519D01*
X147975448Y-142793249D01*
X147788320Y-142565233D01*
X147788319Y-142565232D01*
X146294251Y-144059300D01*
X146220412Y-143957670D01*
X146042330Y-143779588D01*
X145940698Y-143705748D01*
X147434766Y-142211679D01*
X147434765Y-142211678D01*
X147206750Y-142024551D01*
X146904480Y-141822581D01*
X146904462Y-141822570D01*
X146583869Y-141651209D01*
X146583864Y-141651207D01*
X146247997Y-141512086D01*
X145900101Y-141406553D01*
X145900090Y-141406550D01*
X145543556Y-141335632D01*
X145181766Y-141300000D01*
X144818234Y-141300000D01*
X144456443Y-141335632D01*
X144099909Y-141406550D01*
X144099898Y-141406553D01*
X143752002Y-141512086D01*
X143416135Y-141651207D01*
X143416130Y-141651209D01*
X143095537Y-141822570D01*
X143095519Y-141822581D01*
X142793258Y-142024545D01*
X142793254Y-142024548D01*
X142565233Y-142211679D01*
X142565233Y-142211680D01*
X144059301Y-143705748D01*
X143957670Y-143779588D01*
X143779588Y-143957670D01*
X143705748Y-144059301D01*
X142211680Y-142565233D01*
X142211679Y-142565233D01*
X142024548Y-142793254D01*
X142024545Y-142793258D01*
X141822581Y-143095519D01*
X141822570Y-143095537D01*
X141651209Y-143416130D01*
X141651207Y-143416135D01*
X141512086Y-143752002D01*
X141406553Y-144099898D01*
X141406550Y-144099909D01*
X141335632Y-144456443D01*
X141300000Y-144818234D01*
X140000500Y-144818234D01*
X140000500Y-134728563D01*
X141400000Y-134728563D01*
X141400000Y-136050000D01*
X142663498Y-136050000D01*
X142650000Y-136152527D01*
X142650000Y-136447473D01*
X142663498Y-136550000D01*
X141400000Y-136550000D01*
X141400000Y-137871436D01*
X141415300Y-138085362D01*
X141476109Y-138364895D01*
X141576091Y-138632958D01*
X141713191Y-138884038D01*
X141713192Y-138884039D01*
X141884639Y-139113065D01*
X141884649Y-139113077D01*
X142086922Y-139315350D01*
X142086934Y-139315360D01*
X142315960Y-139486807D01*
X142315961Y-139486808D01*
X142567042Y-139623908D01*
X142567041Y-139623908D01*
X142835104Y-139723890D01*
X143114637Y-139784699D01*
X143328563Y-139799999D01*
X143328566Y-139800000D01*
X144650000Y-139800000D01*
X144650000Y-138536502D01*
X144752527Y-138550000D01*
X145047473Y-138550000D01*
X145150000Y-138536502D01*
X145150000Y-139800000D01*
X146471434Y-139800000D01*
X146471436Y-139799999D01*
X146685362Y-139784699D01*
X146964895Y-139723890D01*
X147232958Y-139623908D01*
X147484038Y-139486808D01*
X147484039Y-139486807D01*
X147713065Y-139315360D01*
X147713077Y-139315350D01*
X147915350Y-139113077D01*
X147915360Y-139113065D01*
X148086807Y-138884039D01*
X148086808Y-138884038D01*
X148223908Y-138632958D01*
X148323890Y-138364895D01*
X148384699Y-138085362D01*
X148399999Y-137871436D01*
X148400000Y-137871434D01*
X148400000Y-136550000D01*
X147136502Y-136550000D01*
X147150000Y-136447473D01*
X147150000Y-136152527D01*
X147136502Y-136050000D01*
X148400000Y-136050000D01*
X148400000Y-134728566D01*
X148399999Y-134728563D01*
X148384700Y-134514647D01*
X148384697Y-134514627D01*
X148381166Y-134498395D01*
X169099500Y-134498395D01*
X169099500Y-136101604D01*
X169114699Y-136255932D01*
X169134422Y-136320950D01*
X169169151Y-136435438D01*
X169174769Y-136453956D01*
X169180072Y-136463877D01*
X169272315Y-136636450D01*
X169299243Y-136669262D01*
X169403589Y-136796410D01*
X169480070Y-136859175D01*
X169563550Y-136927685D01*
X169746046Y-137025232D01*
X169944066Y-137085300D01*
X169944065Y-137085300D01*
X169982647Y-137089100D01*
X170098392Y-137100500D01*
X170098395Y-137100500D01*
X171701605Y-137100500D01*
X171701608Y-137100500D01*
X171855934Y-137085300D01*
X172053954Y-137025232D01*
X172236450Y-136927685D01*
X172396410Y-136796410D01*
X172527685Y-136636450D01*
X172625232Y-136453954D01*
X172685300Y-136255934D01*
X172700500Y-136101608D01*
X172700500Y-135181995D01*
X174099500Y-135181995D01*
X174099500Y-135418004D01*
X174099501Y-135418020D01*
X174130306Y-135652010D01*
X174191394Y-135879993D01*
X174281714Y-136098045D01*
X174281719Y-136098056D01*
X174342083Y-136202608D01*
X174399727Y-136302450D01*
X174399729Y-136302453D01*
X174399730Y-136302454D01*
X174543406Y-136489697D01*
X174543412Y-136489704D01*
X174710295Y-136656587D01*
X174710301Y-136656592D01*
X174897550Y-136800273D01*
X175028918Y-136876118D01*
X175101943Y-136918280D01*
X175101948Y-136918282D01*
X175101951Y-136918284D01*
X175320007Y-137008606D01*
X175547986Y-137069693D01*
X175781989Y-137100500D01*
X175781996Y-137100500D01*
X176018004Y-137100500D01*
X176018011Y-137100500D01*
X176252014Y-137069693D01*
X176479993Y-137008606D01*
X176698049Y-136918284D01*
X176902450Y-136800273D01*
X177089699Y-136656592D01*
X177256592Y-136489699D01*
X177400273Y-136302450D01*
X177518284Y-136098049D01*
X177608606Y-135879993D01*
X177669693Y-135652014D01*
X177700500Y-135418011D01*
X177700500Y-135181989D01*
X177669693Y-134947986D01*
X177608606Y-134720007D01*
X177518284Y-134501951D01*
X177518282Y-134501948D01*
X177518280Y-134501943D01*
X177473960Y-134425179D01*
X177400273Y-134297550D01*
X177256592Y-134110301D01*
X177256587Y-134110295D01*
X177089704Y-133943412D01*
X177089697Y-133943406D01*
X176902454Y-133799730D01*
X176902453Y-133799729D01*
X176902450Y-133799727D01*
X176820957Y-133752677D01*
X176698056Y-133681719D01*
X176698045Y-133681714D01*
X176479993Y-133591394D01*
X176252010Y-133530306D01*
X176018020Y-133499501D01*
X176018017Y-133499500D01*
X176018011Y-133499500D01*
X175781989Y-133499500D01*
X175781983Y-133499500D01*
X175781979Y-133499501D01*
X175547989Y-133530306D01*
X175320006Y-133591394D01*
X175101954Y-133681714D01*
X175101943Y-133681719D01*
X174897545Y-133799730D01*
X174710302Y-133943406D01*
X174710295Y-133943412D01*
X174543412Y-134110295D01*
X174543406Y-134110302D01*
X174399730Y-134297545D01*
X174281719Y-134501943D01*
X174281714Y-134501954D01*
X174191394Y-134720006D01*
X174130306Y-134947989D01*
X174099501Y-135181979D01*
X174099500Y-135181995D01*
X172700500Y-135181995D01*
X172700500Y-134498392D01*
X172685300Y-134344066D01*
X172625232Y-134146046D01*
X172527685Y-133963550D01*
X172475702Y-133900209D01*
X172396410Y-133803589D01*
X172247905Y-133681716D01*
X172236450Y-133672315D01*
X172053954Y-133574768D01*
X171855934Y-133514700D01*
X171855932Y-133514699D01*
X171855934Y-133514699D01*
X171736805Y-133502966D01*
X171701608Y-133499500D01*
X170098392Y-133499500D01*
X170060298Y-133503251D01*
X169944067Y-133514699D01*
X169746043Y-133574769D01*
X169635898Y-133633643D01*
X169563550Y-133672315D01*
X169563548Y-133672316D01*
X169563547Y-133672317D01*
X169403589Y-133803589D01*
X169272317Y-133963547D01*
X169174769Y-134146043D01*
X169174768Y-134146045D01*
X169174768Y-134146046D01*
X169167898Y-134168692D01*
X169114699Y-134344067D01*
X169099500Y-134498395D01*
X148381166Y-134498395D01*
X148323890Y-134235104D01*
X148223908Y-133967041D01*
X148086808Y-133715961D01*
X148086807Y-133715960D01*
X147915360Y-133486934D01*
X147915350Y-133486922D01*
X147713077Y-133284649D01*
X147713065Y-133284639D01*
X147484039Y-133113192D01*
X147484038Y-133113191D01*
X147232957Y-132976091D01*
X147232958Y-132976091D01*
X146964895Y-132876109D01*
X146685362Y-132815300D01*
X146471436Y-132800000D01*
X145150000Y-132800000D01*
X145150000Y-134063497D01*
X145047473Y-134050000D01*
X144752527Y-134050000D01*
X144650000Y-134063497D01*
X144650000Y-132800000D01*
X143328563Y-132800000D01*
X143114637Y-132815300D01*
X142835104Y-132876109D01*
X142567041Y-132976091D01*
X142315961Y-133113191D01*
X142315960Y-133113192D01*
X142086934Y-133284639D01*
X142086922Y-133284649D01*
X141884649Y-133486922D01*
X141884639Y-133486934D01*
X141713192Y-133715960D01*
X141713191Y-133715961D01*
X141576091Y-133967041D01*
X141476109Y-134235104D01*
X141415300Y-134514637D01*
X141400000Y-134728563D01*
X140000500Y-134728563D01*
X140000500Y-128920259D01*
X141699500Y-128920259D01*
X141699500Y-129279740D01*
X141739746Y-129636935D01*
X141739748Y-129636951D01*
X141819737Y-129987407D01*
X141819741Y-129987419D01*
X141938465Y-130326711D01*
X142094432Y-130650579D01*
X142094434Y-130650582D01*
X142285685Y-130954956D01*
X142509812Y-131236003D01*
X142763997Y-131490188D01*
X143045044Y-131714315D01*
X143349418Y-131905566D01*
X143673292Y-132061536D01*
X143928119Y-132150703D01*
X144012580Y-132180258D01*
X144012592Y-132180262D01*
X144363052Y-132260252D01*
X144720260Y-132300499D01*
X144720261Y-132300500D01*
X144720264Y-132300500D01*
X145079739Y-132300500D01*
X145079739Y-132300499D01*
X145436948Y-132260252D01*
X145787408Y-132180262D01*
X146126708Y-132061536D01*
X146450582Y-131905566D01*
X146754956Y-131714315D01*
X147036003Y-131490188D01*
X147290188Y-131236003D01*
X147514315Y-130954956D01*
X147705566Y-130650582D01*
X147861536Y-130326708D01*
X147980262Y-129987408D01*
X148060252Y-129636948D01*
X148100500Y-129279736D01*
X148100500Y-128920264D01*
X148060252Y-128563052D01*
X147980262Y-128212592D01*
X147976030Y-128200499D01*
X147934047Y-128080518D01*
X147861536Y-127873292D01*
X147727314Y-127594578D01*
X147705567Y-127549420D01*
X147633148Y-127434166D01*
X147514315Y-127245044D01*
X147290188Y-126963997D01*
X147036003Y-126709812D01*
X146754956Y-126485685D01*
X146450582Y-126294434D01*
X146450579Y-126294432D01*
X146126711Y-126138465D01*
X145787419Y-126019741D01*
X145787407Y-126019737D01*
X145436951Y-125939748D01*
X145436935Y-125939746D01*
X145079740Y-125899500D01*
X145079736Y-125899500D01*
X144720264Y-125899500D01*
X144720259Y-125899500D01*
X144363064Y-125939746D01*
X144363048Y-125939748D01*
X144012592Y-126019737D01*
X144012580Y-126019741D01*
X143673288Y-126138465D01*
X143349420Y-126294432D01*
X143045045Y-126485684D01*
X142763997Y-126709811D01*
X142509811Y-126963997D01*
X142285684Y-127245045D01*
X142094432Y-127549420D01*
X141938465Y-127873288D01*
X141819741Y-128212580D01*
X141819737Y-128212592D01*
X141739748Y-128563048D01*
X141739746Y-128563064D01*
X141699500Y-128920259D01*
X140000500Y-128920259D01*
X140000500Y-118924003D01*
X146394500Y-118924003D01*
X146394500Y-125376007D01*
X146399197Y-125419686D01*
X146410397Y-125471174D01*
X146412890Y-125481372D01*
X146412891Y-125481375D01*
X146455899Y-125562083D01*
X146455901Y-125562086D01*
X146501660Y-125614895D01*
X146519242Y-125632839D01*
X146519246Y-125632843D01*
X146519247Y-125632844D01*
X146519249Y-125632845D01*
X146599059Y-125677488D01*
X146599063Y-125677490D01*
X146666102Y-125697175D01*
X146724000Y-125705500D01*
X146724004Y-125705500D01*
X148675991Y-125705500D01*
X148676000Y-125705500D01*
X148719684Y-125700803D01*
X148748875Y-125694452D01*
X148771174Y-125689602D01*
X148771190Y-125689598D01*
X148771195Y-125689597D01*
X148781373Y-125687110D01*
X148862085Y-125644100D01*
X148914889Y-125598345D01*
X148932843Y-125580754D01*
X148977490Y-125500937D01*
X148997175Y-125433898D01*
X149005500Y-125376000D01*
X149005500Y-124630247D01*
X154899500Y-124630247D01*
X154899500Y-125169752D01*
X154911131Y-125228229D01*
X154911132Y-125228230D01*
X154955447Y-125294552D01*
X155021769Y-125338867D01*
X155021770Y-125338868D01*
X155080247Y-125350499D01*
X155080250Y-125350500D01*
X155080252Y-125350500D01*
X155274167Y-125350500D01*
X155341206Y-125370185D01*
X155361848Y-125386819D01*
X155659540Y-125684511D01*
X155715489Y-125740460D01*
X155715491Y-125740461D01*
X155715495Y-125740464D01*
X155766188Y-125769731D01*
X155784011Y-125780021D01*
X155860438Y-125800500D01*
X155860440Y-125800500D01*
X157739560Y-125800500D01*
X157739562Y-125800500D01*
X157815989Y-125780021D01*
X157884511Y-125740460D01*
X157940460Y-125684511D01*
X158238152Y-125386819D01*
X158299475Y-125353334D01*
X158325833Y-125350500D01*
X158519750Y-125350500D01*
X158519751Y-125350499D01*
X158534568Y-125347552D01*
X158578229Y-125338868D01*
X158578229Y-125338867D01*
X158578231Y-125338867D01*
X158644552Y-125294552D01*
X158688867Y-125228231D01*
X158688866Y-125228231D01*
X158695652Y-125218077D01*
X158698667Y-125220091D01*
X158729281Y-125182103D01*
X158795576Y-125160039D01*
X158863275Y-125177319D01*
X158902420Y-125219365D01*
X158904348Y-125218077D01*
X158955447Y-125294552D01*
X159021769Y-125338867D01*
X159021770Y-125338868D01*
X159080247Y-125350499D01*
X159080250Y-125350500D01*
X159080252Y-125350500D01*
X159519750Y-125350500D01*
X159519751Y-125350499D01*
X159534568Y-125347552D01*
X159578229Y-125338868D01*
X159578229Y-125338867D01*
X159578231Y-125338867D01*
X159644552Y-125294552D01*
X159688867Y-125228231D01*
X159688867Y-125228229D01*
X159688868Y-125228229D01*
X159698042Y-125182103D01*
X159700500Y-125169748D01*
X159700500Y-124630252D01*
X159700500Y-124630249D01*
X159700499Y-124630247D01*
X159688868Y-124571770D01*
X159688867Y-124571769D01*
X159644552Y-124505447D01*
X159578230Y-124461132D01*
X159578229Y-124461131D01*
X159519752Y-124449500D01*
X159519748Y-124449500D01*
X159080252Y-124449500D01*
X159080247Y-124449500D01*
X159021770Y-124461131D01*
X159021769Y-124461132D01*
X158955447Y-124505447D01*
X158904348Y-124581923D01*
X158901333Y-124579908D01*
X158870707Y-124617904D01*
X158804410Y-124639961D01*
X158736713Y-124622673D01*
X158697582Y-124580632D01*
X158695652Y-124581923D01*
X158644552Y-124505447D01*
X158578230Y-124461132D01*
X158578229Y-124461131D01*
X158519752Y-124449500D01*
X158519748Y-124449500D01*
X158080252Y-124449500D01*
X158080247Y-124449500D01*
X158021770Y-124461131D01*
X158021768Y-124461132D01*
X157955448Y-124505447D01*
X157918035Y-124561437D01*
X157902616Y-124580224D01*
X157582842Y-124899999D01*
X157582842Y-124900001D01*
X157641253Y-124958412D01*
X157645590Y-124966355D01*
X157652838Y-124971781D01*
X157662074Y-124996543D01*
X157674738Y-125019735D01*
X157674092Y-125028763D01*
X157677256Y-125037245D01*
X157671639Y-125063066D01*
X157669754Y-125089427D01*
X157663935Y-125098480D01*
X157662405Y-125105518D01*
X157641255Y-125133773D01*
X157611849Y-125163180D01*
X157550526Y-125196666D01*
X157524166Y-125199500D01*
X157368020Y-125199500D01*
X157300981Y-125179815D01*
X157280339Y-125163181D01*
X156697382Y-124580224D01*
X156681961Y-124561434D01*
X156644552Y-124505447D01*
X156578230Y-124461132D01*
X156578229Y-124461131D01*
X156519752Y-124449500D01*
X156519748Y-124449500D01*
X156080252Y-124449500D01*
X156080247Y-124449500D01*
X156021770Y-124461131D01*
X156021769Y-124461132D01*
X155955447Y-124505447D01*
X155904348Y-124581923D01*
X155901333Y-124579908D01*
X155870707Y-124617904D01*
X155804410Y-124639961D01*
X155736713Y-124622673D01*
X155697582Y-124580632D01*
X155695652Y-124581923D01*
X155644552Y-124505447D01*
X155578230Y-124461132D01*
X155578229Y-124461131D01*
X155519752Y-124449500D01*
X155519748Y-124449500D01*
X155080252Y-124449500D01*
X155080247Y-124449500D01*
X155021770Y-124461131D01*
X155021769Y-124461132D01*
X154955447Y-124505447D01*
X154911132Y-124571769D01*
X154911131Y-124571770D01*
X154899500Y-124630247D01*
X149005500Y-124630247D01*
X149005500Y-124198067D01*
X156880910Y-124198067D01*
X156880910Y-124198068D01*
X157300000Y-124617158D01*
X157300001Y-124617158D01*
X157719088Y-124198068D01*
X157607379Y-124156403D01*
X157607372Y-124156401D01*
X157547844Y-124150000D01*
X157052155Y-124150000D01*
X156992627Y-124156401D01*
X156992619Y-124156403D01*
X156880910Y-124198067D01*
X149005500Y-124198067D01*
X149005500Y-123534720D01*
X155868829Y-123534720D01*
X155868829Y-123534722D01*
X155892622Y-123543597D01*
X155892623Y-123543598D01*
X155952155Y-123549999D01*
X155952172Y-123550000D01*
X157547828Y-123550000D01*
X157547844Y-123549999D01*
X157607372Y-123543598D01*
X157631169Y-123534721D01*
X156750000Y-122653552D01*
X155868829Y-123534720D01*
X149005500Y-123534720D01*
X149005500Y-121729500D01*
X149025185Y-121662461D01*
X149077989Y-121616706D01*
X149129500Y-121605500D01*
X155376000Y-121605500D01*
X155443039Y-121625185D01*
X155488794Y-121677989D01*
X155500000Y-121729500D01*
X155500000Y-123097844D01*
X155506401Y-123157375D01*
X155515277Y-123181170D01*
X156485543Y-122210905D01*
X156546866Y-122177420D01*
X156616558Y-122182404D01*
X156660905Y-122210905D01*
X156750000Y-122300000D01*
X156839095Y-122210905D01*
X156900418Y-122177420D01*
X156970110Y-122182404D01*
X157014457Y-122210905D01*
X157984721Y-123181169D01*
X157993598Y-123157372D01*
X157999999Y-123097844D01*
X158000000Y-123097827D01*
X158000000Y-121729500D01*
X158019685Y-121662461D01*
X158072489Y-121616706D01*
X158124000Y-121605500D01*
X159775991Y-121605500D01*
X159776000Y-121605500D01*
X159819684Y-121600803D01*
X159848875Y-121594452D01*
X159871174Y-121589602D01*
X159871190Y-121589598D01*
X159871195Y-121589597D01*
X159881373Y-121587110D01*
X159962085Y-121544100D01*
X160014889Y-121498345D01*
X160032843Y-121480754D01*
X160077490Y-121400937D01*
X160097175Y-121333898D01*
X160105500Y-121276000D01*
X160105500Y-118924000D01*
X160100803Y-118880316D01*
X160093189Y-118845316D01*
X160089602Y-118828825D01*
X160089394Y-118827976D01*
X160087110Y-118818627D01*
X160080715Y-118806626D01*
X160066560Y-118738209D01*
X160084610Y-118683216D01*
X160161544Y-118558488D01*
X160161547Y-118558481D01*
X160214855Y-118397606D01*
X160224999Y-118298322D01*
X160225000Y-118298309D01*
X160225000Y-118250000D01*
X159399000Y-118250000D01*
X159331961Y-118230315D01*
X159286206Y-118177511D01*
X159275000Y-118126000D01*
X159275000Y-118000000D01*
X159149000Y-118000000D01*
X159081961Y-117980315D01*
X159036206Y-117927511D01*
X159025000Y-117876000D01*
X159025000Y-117750000D01*
X159525000Y-117750000D01*
X160224999Y-117750000D01*
X160224999Y-117701692D01*
X160224998Y-117701677D01*
X160214855Y-117602392D01*
X160161547Y-117441518D01*
X160161542Y-117441507D01*
X160072575Y-117297271D01*
X160072572Y-117297267D01*
X159952732Y-117177427D01*
X159952728Y-117177424D01*
X159808492Y-117088457D01*
X159808481Y-117088452D01*
X159647606Y-117035144D01*
X159548322Y-117025000D01*
X159525000Y-117025000D01*
X159525000Y-117750000D01*
X159025000Y-117750000D01*
X159025000Y-117024999D01*
X159001693Y-117025000D01*
X159001674Y-117025001D01*
X158902392Y-117035144D01*
X158741518Y-117088452D01*
X158741507Y-117088457D01*
X158597271Y-117177424D01*
X158597267Y-117177427D01*
X158477426Y-117297268D01*
X158415392Y-117397841D01*
X158363444Y-117444565D01*
X158294481Y-117455786D01*
X158230399Y-117427943D01*
X158222173Y-117420424D01*
X158203225Y-117401476D01*
X158203221Y-117401473D01*
X158203220Y-117401472D01*
X158083126Y-117340281D01*
X158083124Y-117340280D01*
X158083121Y-117340279D01*
X157983493Y-117324500D01*
X157983488Y-117324500D01*
X157609833Y-117324500D01*
X157588587Y-117318261D01*
X157566499Y-117316682D01*
X157555715Y-117308609D01*
X157542794Y-117304815D01*
X157528294Y-117288081D01*
X157510566Y-117274810D01*
X157505858Y-117262189D01*
X157497039Y-117252011D01*
X157493887Y-117230093D01*
X157486149Y-117209346D01*
X157489011Y-117196185D01*
X157487095Y-117182853D01*
X157496294Y-117162709D01*
X157501001Y-117141073D01*
X157514269Y-117123347D01*
X157516120Y-117119297D01*
X157522152Y-117112819D01*
X157618152Y-117016819D01*
X157679475Y-116983334D01*
X157705833Y-116980500D01*
X157724317Y-116980500D01*
X157740601Y-116978356D01*
X157773173Y-116974068D01*
X157880404Y-116924065D01*
X157964065Y-116840404D01*
X158014068Y-116733173D01*
X158020500Y-116684316D01*
X158020500Y-116335684D01*
X158014068Y-116286827D01*
X157964065Y-116179596D01*
X157880404Y-116095935D01*
X157872733Y-116088264D01*
X157875561Y-116085435D01*
X157844843Y-116047023D01*
X157837635Y-115977526D01*
X157869143Y-115915165D01*
X157872028Y-115912191D01*
X157879978Y-115904263D01*
X157880404Y-115904065D01*
X157957778Y-115826691D01*
X157988585Y-115809927D01*
X158018973Y-115793334D01*
X158019104Y-115793319D01*
X158019150Y-115793295D01*
X158019260Y-115793303D01*
X158045331Y-115790500D01*
X162070500Y-115790500D01*
X162137539Y-115810185D01*
X162183294Y-115862989D01*
X162194500Y-115914500D01*
X162194500Y-126876007D01*
X162199197Y-126919686D01*
X162210397Y-126971174D01*
X162212890Y-126981372D01*
X162212891Y-126981375D01*
X162255899Y-127062083D01*
X162255901Y-127062086D01*
X162301660Y-127114895D01*
X162319242Y-127132839D01*
X162319246Y-127132843D01*
X162319247Y-127132844D01*
X162319249Y-127132845D01*
X162399059Y-127177488D01*
X162399063Y-127177490D01*
X162466102Y-127197175D01*
X162524000Y-127205500D01*
X162524004Y-127205500D01*
X165675991Y-127205500D01*
X165676000Y-127205500D01*
X165719684Y-127200803D01*
X165748875Y-127194452D01*
X165771174Y-127189602D01*
X165771190Y-127189598D01*
X165771195Y-127189597D01*
X165781373Y-127187110D01*
X165862085Y-127144100D01*
X165914889Y-127098345D01*
X165932843Y-127080754D01*
X165977490Y-127000937D01*
X165997175Y-126933898D01*
X166005500Y-126876000D01*
X166005500Y-123443982D01*
X168774500Y-123443982D01*
X168774500Y-123556018D01*
X168793118Y-123625499D01*
X168803497Y-123664236D01*
X168803498Y-123664239D01*
X168820443Y-123693588D01*
X168859515Y-123761263D01*
X168938737Y-123840485D01*
X169035763Y-123896503D01*
X169143982Y-123925500D01*
X169143984Y-123925500D01*
X169256016Y-123925500D01*
X169256018Y-123925500D01*
X169364237Y-123896503D01*
X169461263Y-123840485D01*
X169540485Y-123761263D01*
X169541140Y-123760127D01*
X169541942Y-123759363D01*
X169545433Y-123754814D01*
X169546142Y-123755358D01*
X169591704Y-123711913D01*
X169660310Y-123698687D01*
X169725176Y-123724652D01*
X169751435Y-123754957D01*
X169751623Y-123754814D01*
X169754032Y-123757954D01*
X169755914Y-123760126D01*
X169756571Y-123761263D01*
X169835793Y-123840485D01*
X169932819Y-123896503D01*
X170041038Y-123925500D01*
X170041040Y-123925500D01*
X170153072Y-123925500D01*
X170153074Y-123925500D01*
X170261293Y-123896503D01*
X170358319Y-123840485D01*
X170437541Y-123761263D01*
X170489669Y-123670973D01*
X170540236Y-123622759D01*
X170608843Y-123609535D01*
X170673707Y-123635503D01*
X170704441Y-123670972D01*
X170756571Y-123761263D01*
X170835793Y-123840485D01*
X170932819Y-123896503D01*
X171041038Y-123925500D01*
X171041040Y-123925500D01*
X171153072Y-123925500D01*
X171153074Y-123925500D01*
X171261293Y-123896503D01*
X171358319Y-123840485D01*
X171437541Y-123761263D01*
X171441140Y-123755028D01*
X171491706Y-123706812D01*
X171560313Y-123693588D01*
X171625178Y-123719555D01*
X171655915Y-123755028D01*
X171659515Y-123761263D01*
X171738737Y-123840485D01*
X171835763Y-123896503D01*
X171943982Y-123925500D01*
X171943984Y-123925500D01*
X172056016Y-123925500D01*
X172056018Y-123925500D01*
X172164237Y-123896503D01*
X172261263Y-123840485D01*
X172340485Y-123761263D01*
X172396503Y-123664237D01*
X172425500Y-123556018D01*
X172425500Y-123443982D01*
X172396503Y-123335763D01*
X172340485Y-123238737D01*
X172261263Y-123159515D01*
X172174936Y-123109674D01*
X172164239Y-123103498D01*
X172164238Y-123103497D01*
X172164237Y-123103497D01*
X172056018Y-123074500D01*
X171943982Y-123074500D01*
X171835763Y-123103497D01*
X171835760Y-123103498D01*
X171738740Y-123159513D01*
X171738734Y-123159517D01*
X171659517Y-123238734D01*
X171659513Y-123238740D01*
X171655914Y-123244974D01*
X171605347Y-123293188D01*
X171536739Y-123306410D01*
X171471875Y-123280441D01*
X171441142Y-123244974D01*
X171440846Y-123244461D01*
X171437541Y-123238737D01*
X171358319Y-123159515D01*
X171271992Y-123109674D01*
X171261295Y-123103498D01*
X171261294Y-123103497D01*
X171261293Y-123103497D01*
X171153074Y-123074500D01*
X171041038Y-123074500D01*
X170932819Y-123103497D01*
X170932816Y-123103498D01*
X170835796Y-123159513D01*
X170835790Y-123159517D01*
X170756573Y-123238734D01*
X170756569Y-123238740D01*
X170704443Y-123329025D01*
X170653876Y-123377241D01*
X170585269Y-123390463D01*
X170520404Y-123364495D01*
X170489669Y-123329025D01*
X170447518Y-123256018D01*
X170437541Y-123238737D01*
X170358319Y-123159515D01*
X170271992Y-123109674D01*
X170261295Y-123103498D01*
X170261294Y-123103497D01*
X170261293Y-123103497D01*
X170153074Y-123074500D01*
X170041038Y-123074500D01*
X169932819Y-123103497D01*
X169932816Y-123103498D01*
X169835796Y-123159513D01*
X169835790Y-123159517D01*
X169756573Y-123238734D01*
X169756569Y-123238740D01*
X169755914Y-123239875D01*
X169755110Y-123240640D01*
X169751623Y-123245186D01*
X169750914Y-123244642D01*
X169705346Y-123288089D01*
X169636739Y-123301311D01*
X169571875Y-123275342D01*
X169545619Y-123245042D01*
X169545433Y-123245186D01*
X169543025Y-123242048D01*
X169541142Y-123239875D01*
X169540485Y-123238737D01*
X169461263Y-123159515D01*
X169374936Y-123109674D01*
X169364239Y-123103498D01*
X169364238Y-123103497D01*
X169364237Y-123103497D01*
X169256018Y-123074500D01*
X169143982Y-123074500D01*
X169035763Y-123103497D01*
X169035760Y-123103498D01*
X168938740Y-123159513D01*
X168938734Y-123159517D01*
X168859517Y-123238734D01*
X168859513Y-123238740D01*
X168803498Y-123335760D01*
X168803497Y-123335763D01*
X168774500Y-123443982D01*
X166005500Y-123443982D01*
X166005500Y-121843982D01*
X167474500Y-121843982D01*
X167474500Y-121956018D01*
X167503497Y-122064237D01*
X167559515Y-122161263D01*
X167559517Y-122161265D01*
X167560577Y-122162325D01*
X167561184Y-122163437D01*
X167564462Y-122167709D01*
X167563795Y-122168220D01*
X167594057Y-122223651D01*
X167589068Y-122293342D01*
X167564177Y-122332072D01*
X167564462Y-122332291D01*
X167561847Y-122335698D01*
X167560577Y-122337675D01*
X167559517Y-122338734D01*
X167559513Y-122338740D01*
X167503498Y-122435760D01*
X167503497Y-122435763D01*
X167474500Y-122543982D01*
X167474500Y-122656018D01*
X167476099Y-122661983D01*
X167503497Y-122764236D01*
X167503498Y-122764239D01*
X167508252Y-122772473D01*
X167559515Y-122861263D01*
X167638737Y-122940485D01*
X167735763Y-122996503D01*
X167843982Y-123025500D01*
X167843984Y-123025500D01*
X167956016Y-123025500D01*
X167956018Y-123025500D01*
X168064237Y-122996503D01*
X168161263Y-122940485D01*
X168240485Y-122861263D01*
X168296503Y-122764237D01*
X168325500Y-122656018D01*
X168325500Y-122543982D01*
X168296503Y-122435763D01*
X168240485Y-122338737D01*
X168239429Y-122337681D01*
X168238824Y-122336573D01*
X168235538Y-122332291D01*
X168236205Y-122331778D01*
X168205944Y-122276358D01*
X168210928Y-122206666D01*
X168235823Y-122167928D01*
X168235538Y-122167709D01*
X168238165Y-122164284D01*
X168239429Y-122162319D01*
X168240485Y-122161263D01*
X168296503Y-122064237D01*
X168325500Y-121956018D01*
X168325500Y-121843982D01*
X168296503Y-121735763D01*
X168240485Y-121638737D01*
X168161263Y-121559515D01*
X168089523Y-121518096D01*
X168064239Y-121503498D01*
X168064238Y-121503497D01*
X168064237Y-121503497D01*
X167956018Y-121474500D01*
X167843982Y-121474500D01*
X167735763Y-121503497D01*
X167735760Y-121503498D01*
X167638740Y-121559513D01*
X167638734Y-121559517D01*
X167559517Y-121638734D01*
X167559513Y-121638740D01*
X167503498Y-121735760D01*
X167503497Y-121735763D01*
X167474500Y-121843982D01*
X166005500Y-121843982D01*
X166005500Y-117306099D01*
X166025185Y-117239060D01*
X166077989Y-117193305D01*
X166147147Y-117183361D01*
X166168505Y-117188393D01*
X166247305Y-117214505D01*
X166247309Y-117214506D01*
X166350019Y-117224999D01*
X166900000Y-117224999D01*
X166949972Y-117224999D01*
X166949986Y-117224998D01*
X167052697Y-117214505D01*
X167219119Y-117159358D01*
X167219124Y-117159356D01*
X167368345Y-117067315D01*
X167492315Y-116943345D01*
X167584356Y-116794124D01*
X167584358Y-116794119D01*
X167639505Y-116627697D01*
X167639506Y-116627690D01*
X167649999Y-116524986D01*
X167650000Y-116524973D01*
X167650000Y-116250000D01*
X166900000Y-116250000D01*
X166900000Y-117224999D01*
X166350019Y-117224999D01*
X166399999Y-117224998D01*
X166400000Y-117224998D01*
X166400000Y-115750000D01*
X166900000Y-115750000D01*
X167649999Y-115750000D01*
X167649999Y-115475028D01*
X167649998Y-115475013D01*
X167639505Y-115372302D01*
X167584358Y-115205880D01*
X167584356Y-115205875D01*
X167492315Y-115056654D01*
X167368345Y-114932684D01*
X167219124Y-114840643D01*
X167219119Y-114840641D01*
X167052697Y-114785494D01*
X167052690Y-114785493D01*
X166949986Y-114775000D01*
X166900000Y-114775000D01*
X166900000Y-115750000D01*
X166400000Y-115750000D01*
X166400000Y-114775000D01*
X166399999Y-114774999D01*
X166350029Y-114775000D01*
X166350011Y-114775001D01*
X166247302Y-114785494D01*
X166110413Y-114830855D01*
X166040585Y-114833257D01*
X165980543Y-114797525D01*
X165961980Y-114771469D01*
X165944100Y-114737915D01*
X165898345Y-114685111D01*
X165898339Y-114685104D01*
X165880757Y-114667160D01*
X165880756Y-114667159D01*
X165880754Y-114667157D01*
X165880752Y-114667156D01*
X165880750Y-114667154D01*
X165800940Y-114622511D01*
X165800935Y-114622509D01*
X165733903Y-114602826D01*
X165733899Y-114602825D01*
X165733898Y-114602825D01*
X165676000Y-114594500D01*
X162524000Y-114594500D01*
X162523992Y-114594500D01*
X162480313Y-114599197D01*
X162428825Y-114610397D01*
X162418627Y-114612890D01*
X162418624Y-114612891D01*
X162337916Y-114655899D01*
X162337913Y-114655901D01*
X162285104Y-114701660D01*
X162267160Y-114719242D01*
X162267154Y-114719249D01*
X162222511Y-114799059D01*
X162222509Y-114799064D01*
X162202826Y-114866096D01*
X162202825Y-114866101D01*
X162202825Y-114866102D01*
X162199986Y-114885850D01*
X162194500Y-114924002D01*
X162194500Y-115065500D01*
X162174815Y-115132539D01*
X162122011Y-115178294D01*
X162070500Y-115189500D01*
X158045331Y-115189500D01*
X157978292Y-115169815D01*
X157957650Y-115153181D01*
X157880404Y-115075935D01*
X157839056Y-115056654D01*
X157773173Y-115025932D01*
X157773171Y-115025931D01*
X157773172Y-115025931D01*
X157724317Y-115019500D01*
X157724316Y-115019500D01*
X157275684Y-115019500D01*
X157275683Y-115019500D01*
X157226828Y-115025931D01*
X157119595Y-115075935D01*
X157035935Y-115159595D01*
X156985931Y-115266828D01*
X156979500Y-115315683D01*
X156979500Y-115664316D01*
X156985931Y-115713171D01*
X157035935Y-115820404D01*
X157127267Y-115911736D01*
X157124443Y-115914559D01*
X157155183Y-115953042D01*
X157162352Y-116022542D01*
X157132388Y-116083171D01*
X157121756Y-116094927D01*
X157119596Y-116095935D01*
X157035935Y-116179596D01*
X157026083Y-116200722D01*
X157013559Y-116214572D01*
X156999044Y-116223471D01*
X156987792Y-116236249D01*
X156969876Y-116241354D01*
X156953994Y-116251092D01*
X156936970Y-116250731D01*
X156920597Y-116255397D01*
X156901066Y-116249969D01*
X156884140Y-116249611D01*
X156873146Y-116242211D01*
X156858468Y-116238133D01*
X156739191Y-116167593D01*
X156739188Y-116167592D01*
X156585130Y-116122834D01*
X156550000Y-116120068D01*
X156550000Y-116766000D01*
X156530315Y-116833039D01*
X156477511Y-116878794D01*
X156426000Y-116890000D01*
X156300000Y-116890000D01*
X156300000Y-117016000D01*
X156280315Y-117083039D01*
X156227511Y-117128794D01*
X156176000Y-117140000D01*
X154387156Y-117140000D01*
X154427595Y-117279194D01*
X154509261Y-117417285D01*
X154509268Y-117417294D01*
X154622705Y-117530731D01*
X154622711Y-117530736D01*
X154632575Y-117536569D01*
X154680260Y-117587637D01*
X154692766Y-117656379D01*
X154688505Y-117677994D01*
X154685932Y-117686822D01*
X154679500Y-117735683D01*
X154679500Y-118084316D01*
X154685931Y-118133171D01*
X154708398Y-118181351D01*
X154735935Y-118240404D01*
X154819596Y-118324065D01*
X154827904Y-118327939D01*
X154840922Y-118339401D01*
X154856703Y-118346608D01*
X154866602Y-118362011D01*
X154880343Y-118374110D01*
X154885228Y-118390994D01*
X154894477Y-118405386D01*
X154899500Y-118440321D01*
X154899500Y-118470500D01*
X154879815Y-118537539D01*
X154827011Y-118583294D01*
X154775500Y-118594500D01*
X146723992Y-118594500D01*
X146680313Y-118599197D01*
X146628825Y-118610397D01*
X146618627Y-118612890D01*
X146618624Y-118612891D01*
X146537916Y-118655899D01*
X146537913Y-118655901D01*
X146485104Y-118701660D01*
X146467160Y-118719242D01*
X146467154Y-118719249D01*
X146422511Y-118799059D01*
X146422509Y-118799064D01*
X146402826Y-118866096D01*
X146402825Y-118866101D01*
X146402825Y-118866102D01*
X146394502Y-118923992D01*
X146394500Y-118924003D01*
X140000500Y-118924003D01*
X140000500Y-115849986D01*
X148200001Y-115849986D01*
X148210494Y-115952697D01*
X148265641Y-116119119D01*
X148265643Y-116119124D01*
X148357684Y-116268345D01*
X148481654Y-116392315D01*
X148630875Y-116484356D01*
X148630880Y-116484358D01*
X148797302Y-116539505D01*
X148797309Y-116539506D01*
X148900019Y-116549999D01*
X151149999Y-116549999D01*
X151650000Y-116549999D01*
X153899972Y-116549999D01*
X153899986Y-116549998D01*
X154002697Y-116539505D01*
X154169119Y-116484358D01*
X154169130Y-116484353D01*
X154215863Y-116455528D01*
X154283255Y-116437087D01*
X154349919Y-116458009D01*
X154394688Y-116511651D01*
X154403350Y-116580982D01*
X154400037Y-116595660D01*
X154387155Y-116639999D01*
X154387155Y-116640000D01*
X154950000Y-116640000D01*
X154950000Y-116120068D01*
X155450000Y-116120068D01*
X155450000Y-116640000D01*
X156050000Y-116640000D01*
X156050000Y-116120068D01*
X156049999Y-116120068D01*
X156014869Y-116122834D01*
X156014868Y-116122834D01*
X155860811Y-116167592D01*
X155860810Y-116167592D01*
X155813120Y-116195796D01*
X155745396Y-116212978D01*
X155686880Y-116195796D01*
X155639189Y-116167592D01*
X155485130Y-116122834D01*
X155450000Y-116120068D01*
X154950000Y-116120068D01*
X154949999Y-116120068D01*
X154914869Y-116122834D01*
X154914868Y-116122834D01*
X154760811Y-116167592D01*
X154760804Y-116167595D01*
X154744146Y-116177446D01*
X154676422Y-116194626D01*
X154610160Y-116172464D01*
X154566399Y-116117997D01*
X154559032Y-116048517D01*
X154563323Y-116031707D01*
X154589505Y-115952694D01*
X154589506Y-115952690D01*
X154599999Y-115849986D01*
X154600000Y-115849973D01*
X154600000Y-115400000D01*
X151650000Y-115400000D01*
X151650000Y-116549999D01*
X151149999Y-116549999D01*
X151150000Y-116549998D01*
X151150000Y-115400000D01*
X148200001Y-115400000D01*
X148200001Y-115849986D01*
X140000500Y-115849986D01*
X140000500Y-114450013D01*
X148200000Y-114450013D01*
X148200000Y-114900000D01*
X151150000Y-114900000D01*
X151650000Y-114900000D01*
X154599999Y-114900000D01*
X154599999Y-114450028D01*
X154599998Y-114450013D01*
X154589505Y-114347302D01*
X154534358Y-114180880D01*
X154534356Y-114180875D01*
X154442315Y-114031654D01*
X154318345Y-113907684D01*
X154169124Y-113815643D01*
X154169119Y-113815641D01*
X154002697Y-113760494D01*
X154002690Y-113760493D01*
X153899986Y-113750000D01*
X151650000Y-113750000D01*
X151650000Y-114900000D01*
X151150000Y-114900000D01*
X151150000Y-113750000D01*
X148900028Y-113750000D01*
X148900012Y-113750001D01*
X148797302Y-113760494D01*
X148630880Y-113815641D01*
X148630875Y-113815643D01*
X148481654Y-113907684D01*
X148357684Y-114031654D01*
X148265643Y-114180875D01*
X148265641Y-114180880D01*
X148210494Y-114347302D01*
X148210493Y-114347309D01*
X148200000Y-114450013D01*
X140000500Y-114450013D01*
X140000500Y-112216454D01*
X170871556Y-112216454D01*
X170871556Y-112802658D01*
X170877182Y-112849510D01*
X170882178Y-112891117D01*
X170937695Y-113031899D01*
X171029133Y-113152478D01*
X171149713Y-113243917D01*
X171171078Y-113252342D01*
X171268047Y-113290582D01*
X171323189Y-113333486D01*
X171346383Y-113399393D01*
X171346556Y-113405935D01*
X171346556Y-118679781D01*
X171326871Y-118746820D01*
X171274067Y-118792575D01*
X171268059Y-118795130D01*
X171228062Y-118810903D01*
X171152656Y-118840639D01*
X171032077Y-118932077D01*
X170940639Y-119052656D01*
X170885122Y-119193438D01*
X170879656Y-119238959D01*
X170874500Y-119281898D01*
X170874500Y-121518102D01*
X170880126Y-121564954D01*
X170885122Y-121606561D01*
X170885122Y-121606563D01*
X170885123Y-121606564D01*
X170897812Y-121638740D01*
X170940639Y-121747343D01*
X171032077Y-121867922D01*
X171152656Y-121959360D01*
X171152657Y-121959360D01*
X171152658Y-121959361D01*
X171293436Y-122014877D01*
X171381898Y-122025500D01*
X171381903Y-122025500D01*
X172093097Y-122025500D01*
X172093102Y-122025500D01*
X172181564Y-122014877D01*
X172322342Y-121959361D01*
X172347654Y-121940165D01*
X172412965Y-121915341D01*
X172481329Y-121929768D01*
X172510262Y-121951287D01*
X172761985Y-122203010D01*
X172859856Y-122259515D01*
X172887515Y-122275484D01*
X172887868Y-122275578D01*
X172895086Y-122279718D01*
X172901814Y-122286733D01*
X172921078Y-122299603D01*
X173813181Y-123191706D01*
X173846666Y-123253029D01*
X173849500Y-123279387D01*
X173849500Y-123325399D01*
X173829815Y-123392438D01*
X173828602Y-123394290D01*
X173779228Y-123468182D01*
X173779221Y-123468195D01*
X173726421Y-123595667D01*
X173726418Y-123595677D01*
X173699500Y-123731004D01*
X173699500Y-123731007D01*
X173699500Y-123868993D01*
X173699500Y-123868995D01*
X173699499Y-123868995D01*
X173726418Y-124004322D01*
X173726421Y-124004332D01*
X173779221Y-124131804D01*
X173779228Y-124131817D01*
X173855885Y-124246541D01*
X173855888Y-124246545D01*
X173953454Y-124344111D01*
X173953458Y-124344114D01*
X174068182Y-124420771D01*
X174068195Y-124420778D01*
X174165622Y-124461133D01*
X174195672Y-124473580D01*
X174195676Y-124473580D01*
X174195677Y-124473581D01*
X174331004Y-124500500D01*
X174331007Y-124500500D01*
X174468995Y-124500500D01*
X174560041Y-124482389D01*
X174604328Y-124473580D01*
X174731811Y-124420775D01*
X174846542Y-124344114D01*
X174944114Y-124246542D01*
X175020775Y-124131811D01*
X175073580Y-124004328D01*
X175095028Y-123896502D01*
X175100500Y-123868995D01*
X175100500Y-123731004D01*
X175073581Y-123595677D01*
X175073580Y-123595676D01*
X175073580Y-123595672D01*
X175057155Y-123556018D01*
X175020778Y-123468195D01*
X175020771Y-123468182D01*
X174971398Y-123394290D01*
X174950520Y-123327612D01*
X174950500Y-123325399D01*
X174950500Y-122927527D01*
X174950500Y-122927525D01*
X174912984Y-122787515D01*
X174904300Y-122772474D01*
X174840510Y-122661985D01*
X174315706Y-122137181D01*
X174282221Y-122075858D01*
X174287205Y-122006166D01*
X174329077Y-121950233D01*
X174394541Y-121925816D01*
X174403387Y-121925500D01*
X175029270Y-121925500D01*
X175059699Y-121922646D01*
X175059701Y-121922646D01*
X175123790Y-121900219D01*
X175187882Y-121877793D01*
X175297150Y-121797150D01*
X175377793Y-121687882D01*
X175401275Y-121620775D01*
X175422646Y-121559701D01*
X175422646Y-121559699D01*
X175425500Y-121529269D01*
X175425500Y-121088800D01*
X175445185Y-121021761D01*
X175497989Y-120976006D01*
X175567147Y-120966062D01*
X175614597Y-120983262D01*
X175741507Y-121061542D01*
X175741518Y-121061547D01*
X175902393Y-121114855D01*
X176001683Y-121124999D01*
X176049999Y-121124998D01*
X176050000Y-121124998D01*
X176050000Y-120299000D01*
X176069685Y-120231961D01*
X176122489Y-120186206D01*
X176174000Y-120175000D01*
X176426000Y-120175000D01*
X176493039Y-120194685D01*
X176538794Y-120247489D01*
X176550000Y-120299000D01*
X176550000Y-121124999D01*
X176598308Y-121124999D01*
X176598322Y-121124998D01*
X176697607Y-121114855D01*
X176858481Y-121061547D01*
X176858492Y-121061542D01*
X177002728Y-120972575D01*
X177002732Y-120972572D01*
X177122572Y-120852732D01*
X177122575Y-120852728D01*
X177211542Y-120708492D01*
X177211549Y-120708477D01*
X177216360Y-120693959D01*
X177256131Y-120636513D01*
X177301971Y-120613187D01*
X177364237Y-120596503D01*
X177461263Y-120540485D01*
X177500708Y-120501039D01*
X177508652Y-120496701D01*
X177514078Y-120489454D01*
X177538836Y-120480219D01*
X177562029Y-120467555D01*
X177571059Y-120468200D01*
X177579542Y-120465037D01*
X177605363Y-120470654D01*
X177631720Y-120472539D01*
X177640773Y-120478357D01*
X177647815Y-120479889D01*
X177676069Y-120501040D01*
X177713181Y-120538152D01*
X177746666Y-120599475D01*
X177749500Y-120625833D01*
X177749500Y-122015318D01*
X177766579Y-122079057D01*
X177780201Y-122129896D01*
X177839511Y-122232623D01*
X181342377Y-125735489D01*
X181342378Y-125735490D01*
X181342380Y-125735491D01*
X181401684Y-125769729D01*
X181401687Y-125769732D01*
X181419509Y-125780021D01*
X181445105Y-125794799D01*
X181559682Y-125825500D01*
X182508022Y-125825500D01*
X182575061Y-125845185D01*
X182616425Y-125892922D01*
X182617863Y-125892163D01*
X182622206Y-125900381D01*
X182622207Y-125900382D01*
X182702850Y-126009650D01*
X182812118Y-126090293D01*
X182854845Y-126105244D01*
X182940299Y-126135146D01*
X182970730Y-126138000D01*
X182970734Y-126138000D01*
X185229270Y-126138000D01*
X185259699Y-126135146D01*
X185259701Y-126135146D01*
X185336438Y-126108294D01*
X185387882Y-126090293D01*
X185497150Y-126009650D01*
X185577793Y-125900382D01*
X185608459Y-125812744D01*
X185649180Y-125755968D01*
X185714133Y-125730221D01*
X185782695Y-125743677D01*
X185833098Y-125792065D01*
X185849500Y-125853699D01*
X185849500Y-126020613D01*
X185829815Y-126087652D01*
X185813181Y-126108294D01*
X184520794Y-127400681D01*
X184459471Y-127434166D01*
X184433113Y-127437000D01*
X182981898Y-127437000D01*
X182942853Y-127441688D01*
X182893438Y-127447622D01*
X182752656Y-127503139D01*
X182632077Y-127594577D01*
X182540639Y-127715156D01*
X182485122Y-127855938D01*
X182479188Y-127905353D01*
X182474500Y-127944398D01*
X182474500Y-128655602D01*
X182480126Y-128702454D01*
X182485122Y-128744061D01*
X182540639Y-128884843D01*
X182632078Y-129005422D01*
X182686830Y-129046943D01*
X182728353Y-129103135D01*
X182732904Y-129172856D01*
X182715007Y-129214636D01*
X182679227Y-129268184D01*
X182679221Y-129268195D01*
X182626421Y-129395667D01*
X182626418Y-129395677D01*
X182599500Y-129531004D01*
X182599500Y-129531007D01*
X182599500Y-129668993D01*
X182599500Y-129668995D01*
X182599499Y-129668995D01*
X182626418Y-129804322D01*
X182626421Y-129804332D01*
X182679221Y-129931804D01*
X182679228Y-129931817D01*
X182755885Y-130046541D01*
X182755888Y-130046545D01*
X182853454Y-130144111D01*
X182853458Y-130144114D01*
X182968182Y-130220771D01*
X182968195Y-130220778D01*
X183095667Y-130273578D01*
X183095672Y-130273580D01*
X183095676Y-130273580D01*
X183095677Y-130273581D01*
X183231004Y-130300500D01*
X183231007Y-130300500D01*
X183368995Y-130300500D01*
X183460041Y-130282389D01*
X183504328Y-130273580D01*
X183631811Y-130220775D01*
X183746542Y-130144114D01*
X183822070Y-130068586D01*
X199546556Y-130068586D01*
X199546556Y-130575525D01*
X199586924Y-130778468D01*
X199586926Y-130778476D01*
X199666114Y-130969652D01*
X199781080Y-131141713D01*
X199927398Y-131288031D01*
X199927401Y-131288033D01*
X200099458Y-131402997D01*
X200290636Y-131482186D01*
X200479243Y-131519702D01*
X200493586Y-131522555D01*
X200493590Y-131522556D01*
X200493591Y-131522556D01*
X200700522Y-131522556D01*
X200700523Y-131522555D01*
X200903476Y-131482186D01*
X201094654Y-131402997D01*
X201266711Y-131288033D01*
X201413033Y-131141711D01*
X201527997Y-130969654D01*
X201607186Y-130778476D01*
X201647556Y-130575521D01*
X201647556Y-130068591D01*
X201607186Y-129865636D01*
X201527997Y-129674458D01*
X201467409Y-129583781D01*
X201467408Y-129583778D01*
X201423313Y-129517786D01*
X202046556Y-129517786D01*
X202046556Y-131126325D01*
X202049409Y-131156755D01*
X202049409Y-131156757D01*
X202094262Y-131284936D01*
X202094263Y-131284938D01*
X202174906Y-131394206D01*
X202284174Y-131474849D01*
X202305145Y-131482187D01*
X202412355Y-131519702D01*
X202442786Y-131522556D01*
X202442790Y-131522556D01*
X203751326Y-131522556D01*
X203781755Y-131519702D01*
X203781757Y-131519702D01*
X203866101Y-131490188D01*
X203909938Y-131474849D01*
X204019206Y-131394206D01*
X204099849Y-131284938D01*
X204122275Y-131220846D01*
X204144702Y-131156757D01*
X204144702Y-131156755D01*
X204147556Y-131126325D01*
X204147556Y-129517786D01*
X204144702Y-129487356D01*
X204144702Y-129487354D01*
X204099849Y-129359175D01*
X204099848Y-129359173D01*
X204019206Y-129249906D01*
X203909938Y-129169263D01*
X203909936Y-129169262D01*
X203781756Y-129124409D01*
X203751326Y-129121556D01*
X203751322Y-129121556D01*
X202442790Y-129121556D01*
X202442786Y-129121556D01*
X202412356Y-129124409D01*
X202412354Y-129124409D01*
X202284175Y-129169262D01*
X202284173Y-129169263D01*
X202174906Y-129249906D01*
X202094263Y-129359173D01*
X202094262Y-129359175D01*
X202049409Y-129487354D01*
X202049409Y-129487356D01*
X202046556Y-129517786D01*
X201423313Y-129517786D01*
X201413036Y-129502405D01*
X201413030Y-129502397D01*
X201266713Y-129356080D01*
X201134720Y-129267886D01*
X201094654Y-129241115D01*
X201030728Y-129214636D01*
X200903476Y-129161926D01*
X200903468Y-129161924D01*
X200700525Y-129121556D01*
X200700521Y-129121556D01*
X200493591Y-129121556D01*
X200493586Y-129121556D01*
X200290643Y-129161924D01*
X200290635Y-129161926D01*
X200099459Y-129241114D01*
X199927398Y-129356080D01*
X199781080Y-129502398D01*
X199666114Y-129674459D01*
X199586926Y-129865635D01*
X199586924Y-129865643D01*
X199546556Y-130068586D01*
X183822070Y-130068586D01*
X183844114Y-130046542D01*
X183863655Y-130017296D01*
X183879484Y-129993608D01*
X183920771Y-129931817D01*
X183920771Y-129931816D01*
X183920775Y-129931811D01*
X183973580Y-129804328D01*
X184000500Y-129668993D01*
X184000500Y-129531007D01*
X184000500Y-129531004D01*
X183973581Y-129395677D01*
X183973580Y-129395676D01*
X183973580Y-129395672D01*
X183949423Y-129337353D01*
X183947285Y-129317469D01*
X183940299Y-129298727D01*
X183943627Y-129283439D01*
X183941955Y-129267886D01*
X183950907Y-129250000D01*
X183955163Y-129230456D01*
X183971833Y-129208194D01*
X183973230Y-129205406D01*
X183976319Y-129202206D01*
X183979222Y-129199304D01*
X184040551Y-129165829D01*
X184066888Y-129163000D01*
X185218097Y-129163000D01*
X185218102Y-129163000D01*
X185306564Y-129152377D01*
X185447342Y-129096861D01*
X185567922Y-129005422D01*
X185659361Y-128884842D01*
X185714877Y-128744064D01*
X185725500Y-128655602D01*
X185725500Y-127944398D01*
X185714877Y-127855936D01*
X185714876Y-127855934D01*
X185713514Y-127850545D01*
X185716167Y-127780725D01*
X185746049Y-127732474D01*
X185957580Y-127520943D01*
X193599500Y-127520943D01*
X193599500Y-127679057D01*
X193613813Y-127732472D01*
X193640423Y-127831783D01*
X193640426Y-127831790D01*
X193719475Y-127968709D01*
X193719479Y-127968714D01*
X193719480Y-127968716D01*
X193831284Y-128080520D01*
X193831286Y-128080521D01*
X193831290Y-128080524D01*
X193968209Y-128159573D01*
X193968216Y-128159577D01*
X194120943Y-128200500D01*
X194120945Y-128200500D01*
X194279055Y-128200500D01*
X194279057Y-128200500D01*
X194431784Y-128159577D01*
X194568716Y-128080520D01*
X194680520Y-127968716D01*
X194759577Y-127831784D01*
X194800500Y-127679057D01*
X194800500Y-127520943D01*
X195499500Y-127520943D01*
X195499500Y-127679057D01*
X195513813Y-127732472D01*
X195540423Y-127831783D01*
X195540426Y-127831790D01*
X195619475Y-127968709D01*
X195619479Y-127968714D01*
X195619480Y-127968716D01*
X195731284Y-128080520D01*
X195731286Y-128080521D01*
X195731290Y-128080524D01*
X195868209Y-128159573D01*
X195868216Y-128159577D01*
X196020943Y-128200500D01*
X196020945Y-128200500D01*
X196179055Y-128200500D01*
X196179057Y-128200500D01*
X196331784Y-128159577D01*
X196468716Y-128080520D01*
X196580520Y-127968716D01*
X196659577Y-127831784D01*
X196700500Y-127679057D01*
X196700500Y-127520943D01*
X196659577Y-127368216D01*
X196588465Y-127245045D01*
X196580524Y-127231290D01*
X196580518Y-127231282D01*
X196468717Y-127119481D01*
X196468709Y-127119475D01*
X196331790Y-127040426D01*
X196331786Y-127040424D01*
X196331784Y-127040423D01*
X196179057Y-126999500D01*
X196020943Y-126999500D01*
X195868216Y-127040423D01*
X195868209Y-127040426D01*
X195731290Y-127119475D01*
X195731282Y-127119481D01*
X195619481Y-127231282D01*
X195619475Y-127231290D01*
X195540426Y-127368209D01*
X195540423Y-127368216D01*
X195499500Y-127520943D01*
X194800500Y-127520943D01*
X194759577Y-127368216D01*
X194688465Y-127245045D01*
X194680524Y-127231290D01*
X194680518Y-127231282D01*
X194568717Y-127119481D01*
X194568709Y-127119475D01*
X194431790Y-127040426D01*
X194431786Y-127040424D01*
X194431784Y-127040423D01*
X194279057Y-126999500D01*
X194120943Y-126999500D01*
X193968216Y-127040423D01*
X193968209Y-127040426D01*
X193831290Y-127119475D01*
X193831282Y-127119481D01*
X193719481Y-127231282D01*
X193719475Y-127231290D01*
X193640426Y-127368209D01*
X193640423Y-127368216D01*
X193599500Y-127520943D01*
X185957580Y-127520943D01*
X186840510Y-126638015D01*
X186912984Y-126512485D01*
X186950500Y-126372474D01*
X186950500Y-126227526D01*
X186950500Y-124527525D01*
X186912984Y-124387515D01*
X186905470Y-124374500D01*
X186840510Y-124261985D01*
X185638015Y-123059490D01*
X185512485Y-122987016D01*
X185512482Y-122987015D01*
X185477577Y-122977661D01*
X185477577Y-122977662D01*
X185425025Y-122963581D01*
X185372475Y-122949500D01*
X185372474Y-122949500D01*
X183479387Y-122949500D01*
X183412348Y-122929815D01*
X183391706Y-122913181D01*
X182986819Y-122508294D01*
X182953334Y-122446971D01*
X182950500Y-122420613D01*
X182950500Y-122020943D01*
X192199500Y-122020943D01*
X192199500Y-122179057D01*
X192240422Y-122331778D01*
X192240423Y-122331783D01*
X192240426Y-122331790D01*
X192319475Y-122468709D01*
X192319479Y-122468714D01*
X192319480Y-122468716D01*
X192431284Y-122580520D01*
X192431286Y-122580521D01*
X192431290Y-122580524D01*
X192568209Y-122659573D01*
X192568216Y-122659577D01*
X192720943Y-122700500D01*
X192720945Y-122700500D01*
X192879055Y-122700500D01*
X192879057Y-122700500D01*
X193031784Y-122659577D01*
X193168716Y-122580520D01*
X193280520Y-122468716D01*
X193340839Y-122364239D01*
X193359575Y-122331788D01*
X193360938Y-122328498D01*
X193362831Y-122326148D01*
X193363641Y-122324746D01*
X193363859Y-122324872D01*
X193404778Y-122274093D01*
X193471072Y-122252027D01*
X193538771Y-122269305D01*
X193586383Y-122320441D01*
X193599500Y-122375948D01*
X193599500Y-122479057D01*
X193626687Y-122580518D01*
X193640423Y-122631783D01*
X193640426Y-122631790D01*
X193719475Y-122768709D01*
X193719479Y-122768714D01*
X193719480Y-122768716D01*
X193831284Y-122880520D01*
X193831286Y-122880521D01*
X193831290Y-122880524D01*
X193932125Y-122938740D01*
X193968216Y-122959577D01*
X194120943Y-123000500D01*
X194120945Y-123000500D01*
X194279055Y-123000500D01*
X194279057Y-123000500D01*
X194431784Y-122959577D01*
X194568716Y-122880520D01*
X194680520Y-122768716D01*
X194759577Y-122631784D01*
X194800500Y-122479057D01*
X194800500Y-122320943D01*
X194759577Y-122168216D01*
X194706255Y-122075858D01*
X194680524Y-122031290D01*
X194680518Y-122031282D01*
X194629012Y-121979776D01*
X194568716Y-121919480D01*
X194551092Y-121909305D01*
X194541325Y-121900471D01*
X194536614Y-121892786D01*
X202496556Y-121892786D01*
X202496556Y-123201325D01*
X202499409Y-123231755D01*
X202499409Y-123231757D01*
X202544262Y-123359936D01*
X202544263Y-123359938D01*
X202624906Y-123469206D01*
X202734174Y-123549849D01*
X202776901Y-123564800D01*
X202862355Y-123594702D01*
X202892786Y-123597556D01*
X202892790Y-123597556D01*
X204451326Y-123597556D01*
X204481755Y-123594702D01*
X204481757Y-123594702D01*
X204545846Y-123572275D01*
X204609938Y-123549849D01*
X204719206Y-123469206D01*
X204799849Y-123359938D01*
X204828035Y-123279387D01*
X204844702Y-123231757D01*
X204844702Y-123231755D01*
X204847556Y-123201325D01*
X204847556Y-121892786D01*
X204844702Y-121862356D01*
X204844702Y-121862354D01*
X204804457Y-121747343D01*
X204799849Y-121734174D01*
X204719206Y-121624906D01*
X204609938Y-121544263D01*
X204609936Y-121544262D01*
X204481756Y-121499409D01*
X204451326Y-121496556D01*
X204451322Y-121496556D01*
X202892790Y-121496556D01*
X202892786Y-121496556D01*
X202862356Y-121499409D01*
X202862354Y-121499409D01*
X202734175Y-121544262D01*
X202734173Y-121544263D01*
X202624906Y-121624906D01*
X202544263Y-121734173D01*
X202544262Y-121734175D01*
X202499409Y-121862354D01*
X202499409Y-121862356D01*
X202496556Y-121892786D01*
X194536614Y-121892786D01*
X194529670Y-121881459D01*
X194514284Y-121865323D01*
X194510686Y-121850493D01*
X194504807Y-121840903D01*
X194505093Y-121827437D01*
X194500500Y-121808504D01*
X194500500Y-121707975D01*
X194520185Y-121640936D01*
X194555607Y-121604874D01*
X194646542Y-121544114D01*
X194744114Y-121446542D01*
X194820775Y-121331811D01*
X194824525Y-121322759D01*
X194832740Y-121302924D01*
X194873580Y-121204328D01*
X194889360Y-121124998D01*
X194900500Y-121068995D01*
X194900500Y-120943982D01*
X196574500Y-120943982D01*
X196574500Y-121056018D01*
X196603497Y-121164237D01*
X196659515Y-121261263D01*
X196738737Y-121340485D01*
X196835763Y-121396503D01*
X196943982Y-121425500D01*
X196943984Y-121425500D01*
X197056016Y-121425500D01*
X197056018Y-121425500D01*
X197164237Y-121396503D01*
X197261263Y-121340485D01*
X197340485Y-121261263D01*
X197396503Y-121164237D01*
X197425500Y-121056018D01*
X197425500Y-120943982D01*
X197396503Y-120835763D01*
X197340485Y-120738737D01*
X197261263Y-120659515D01*
X197164237Y-120603497D01*
X197056018Y-120574500D01*
X196943982Y-120574500D01*
X196835763Y-120603497D01*
X196835760Y-120603498D01*
X196738740Y-120659513D01*
X196738734Y-120659517D01*
X196659517Y-120738734D01*
X196659513Y-120738740D01*
X196603498Y-120835760D01*
X196603497Y-120835763D01*
X196574500Y-120943982D01*
X194900500Y-120943982D01*
X194900500Y-120931004D01*
X194873581Y-120795677D01*
X194873580Y-120795676D01*
X194873580Y-120795672D01*
X194842868Y-120721526D01*
X194820778Y-120668195D01*
X194820771Y-120668182D01*
X194744114Y-120553458D01*
X194744111Y-120553454D01*
X194646545Y-120455888D01*
X194646541Y-120455885D01*
X194531817Y-120379228D01*
X194531804Y-120379221D01*
X194404332Y-120326421D01*
X194404322Y-120326418D01*
X194268995Y-120299500D01*
X194268993Y-120299500D01*
X194131007Y-120299500D01*
X194131005Y-120299500D01*
X193995677Y-120326418D01*
X193995667Y-120326421D01*
X193868195Y-120379221D01*
X193868182Y-120379228D01*
X193753458Y-120455885D01*
X193753454Y-120455888D01*
X193655888Y-120553454D01*
X193655885Y-120553458D01*
X193579228Y-120668182D01*
X193579221Y-120668195D01*
X193526421Y-120795667D01*
X193526418Y-120795677D01*
X193499500Y-120931004D01*
X193499500Y-120931007D01*
X193499500Y-121068993D01*
X193499500Y-121068995D01*
X193499499Y-121068995D01*
X193526418Y-121204322D01*
X193526421Y-121204332D01*
X193579221Y-121331804D01*
X193579228Y-121331817D01*
X193655885Y-121446541D01*
X193655888Y-121446545D01*
X193753455Y-121544112D01*
X193753458Y-121544114D01*
X193844391Y-121604874D01*
X193849481Y-121610963D01*
X193856703Y-121614262D01*
X193871564Y-121637387D01*
X193889196Y-121658484D01*
X193891148Y-121667860D01*
X193894477Y-121673040D01*
X193899500Y-121707975D01*
X193899500Y-121808504D01*
X193879815Y-121875543D01*
X193837501Y-121915890D01*
X193831290Y-121919475D01*
X193831281Y-121919482D01*
X193719481Y-122031282D01*
X193719475Y-122031290D01*
X193640422Y-122168215D01*
X193639060Y-122171505D01*
X193637167Y-122173852D01*
X193636359Y-122175254D01*
X193636140Y-122175127D01*
X193595219Y-122225908D01*
X193528924Y-122247972D01*
X193461225Y-122230692D01*
X193413615Y-122179554D01*
X193400500Y-122124051D01*
X193400500Y-122020945D01*
X193400500Y-122020943D01*
X193359577Y-121868216D01*
X193343808Y-121840903D01*
X193280524Y-121731290D01*
X193280518Y-121731282D01*
X193168717Y-121619481D01*
X193168709Y-121619475D01*
X193031790Y-121540426D01*
X193031786Y-121540424D01*
X193031784Y-121540423D01*
X192879057Y-121499500D01*
X192720943Y-121499500D01*
X192568216Y-121540423D01*
X192568209Y-121540426D01*
X192431290Y-121619475D01*
X192431282Y-121619481D01*
X192319481Y-121731282D01*
X192319475Y-121731290D01*
X192240426Y-121868209D01*
X192240423Y-121868216D01*
X192199500Y-122020943D01*
X182950500Y-122020943D01*
X182950500Y-121452057D01*
X184149760Y-121452057D01*
X184149955Y-121454542D01*
X184195774Y-121612254D01*
X184279370Y-121753608D01*
X184279377Y-121753617D01*
X184395494Y-121869734D01*
X184395503Y-121869741D01*
X184536859Y-121953338D01*
X184536862Y-121953339D01*
X184694560Y-121999155D01*
X184694566Y-121999156D01*
X184731406Y-122002055D01*
X184731422Y-122002056D01*
X185372056Y-122002056D01*
X185872056Y-122002056D01*
X186512690Y-122002056D01*
X186512705Y-122002055D01*
X186549545Y-121999156D01*
X186549551Y-121999155D01*
X186707249Y-121953339D01*
X186707252Y-121953338D01*
X186848608Y-121869741D01*
X186848617Y-121869734D01*
X186964734Y-121753617D01*
X186964741Y-121753608D01*
X187048337Y-121612254D01*
X187094156Y-121454542D01*
X187094351Y-121452057D01*
X189099760Y-121452057D01*
X189099955Y-121454542D01*
X189145774Y-121612254D01*
X189229370Y-121753608D01*
X189229377Y-121753617D01*
X189345494Y-121869734D01*
X189345503Y-121869741D01*
X189486859Y-121953338D01*
X189486862Y-121953339D01*
X189644560Y-121999155D01*
X189644566Y-121999156D01*
X189681406Y-122002055D01*
X189681422Y-122002056D01*
X190322056Y-122002056D01*
X190822056Y-122002056D01*
X191462690Y-122002056D01*
X191462705Y-122002055D01*
X191499545Y-121999156D01*
X191499551Y-121999155D01*
X191657249Y-121953339D01*
X191657252Y-121953338D01*
X191737156Y-121906084D01*
X191798608Y-121869741D01*
X191798617Y-121869734D01*
X191914734Y-121753617D01*
X191914741Y-121753608D01*
X191998337Y-121612254D01*
X192044156Y-121454542D01*
X192044351Y-121452057D01*
X192044351Y-121452056D01*
X190822056Y-121452056D01*
X190822056Y-122002056D01*
X190322056Y-122002056D01*
X190322056Y-121452056D01*
X189099761Y-121452056D01*
X189099760Y-121452057D01*
X187094351Y-121452057D01*
X187094351Y-121452056D01*
X185872056Y-121452056D01*
X185872056Y-122002056D01*
X185372056Y-122002056D01*
X185372056Y-121452056D01*
X184149761Y-121452056D01*
X184149760Y-121452057D01*
X182950500Y-121452057D01*
X182950500Y-120827527D01*
X182950500Y-120827525D01*
X182912984Y-120687515D01*
X182912982Y-120687512D01*
X182912982Y-120687510D01*
X182912981Y-120687509D01*
X182891037Y-120649501D01*
X182891035Y-120649499D01*
X182886999Y-120642509D01*
X182840510Y-120561985D01*
X182460582Y-120182057D01*
X184149760Y-120182057D01*
X184149955Y-120184542D01*
X184195774Y-120342254D01*
X184279370Y-120483608D01*
X184284156Y-120489778D01*
X184281809Y-120491598D01*
X184308620Y-120540698D01*
X184303636Y-120610390D01*
X184282597Y-120643125D01*
X184284156Y-120644334D01*
X184279373Y-120650500D01*
X184195774Y-120791857D01*
X184149955Y-120949569D01*
X184149760Y-120952054D01*
X184149761Y-120952056D01*
X185372056Y-120952056D01*
X185872056Y-120952056D01*
X187094351Y-120952056D01*
X187094351Y-120952054D01*
X189099760Y-120952054D01*
X189099761Y-120952056D01*
X192044351Y-120952056D01*
X192044351Y-120952054D01*
X192044156Y-120949569D01*
X191998337Y-120791857D01*
X191914739Y-120650500D01*
X191914734Y-120650494D01*
X191798617Y-120534377D01*
X191798608Y-120534370D01*
X191711130Y-120482636D01*
X191663446Y-120431567D01*
X191650943Y-120362825D01*
X191677588Y-120298236D01*
X191686130Y-120288712D01*
X191686251Y-120288542D01*
X191686254Y-120288539D01*
X191737629Y-120183449D01*
X191747556Y-120115316D01*
X191747556Y-119943586D01*
X202496556Y-119943586D01*
X202496556Y-120150525D01*
X202536924Y-120353468D01*
X202536926Y-120353476D01*
X202614388Y-120540486D01*
X202616115Y-120544654D01*
X202650759Y-120596503D01*
X202731080Y-120716713D01*
X202877398Y-120863031D01*
X202877401Y-120863033D01*
X203049458Y-120977997D01*
X203240636Y-121057186D01*
X203402583Y-121089399D01*
X203443586Y-121097555D01*
X203443590Y-121097556D01*
X203443591Y-121097556D01*
X203900522Y-121097556D01*
X203900523Y-121097555D01*
X204103476Y-121057186D01*
X204294654Y-120977997D01*
X204466711Y-120863033D01*
X204613033Y-120716711D01*
X204727997Y-120544654D01*
X204807186Y-120353476D01*
X204847556Y-120150521D01*
X204847556Y-119943591D01*
X204807186Y-119740636D01*
X204727997Y-119549458D01*
X204613033Y-119377401D01*
X204613031Y-119377398D01*
X204466713Y-119231080D01*
X204327678Y-119138181D01*
X204294654Y-119116115D01*
X204285004Y-119112118D01*
X204103476Y-119036926D01*
X204103468Y-119036924D01*
X203900525Y-118996556D01*
X203900521Y-118996556D01*
X203443591Y-118996556D01*
X203443586Y-118996556D01*
X203240643Y-119036924D01*
X203240635Y-119036926D01*
X203049459Y-119116114D01*
X202877398Y-119231080D01*
X202731080Y-119377398D01*
X202616114Y-119549459D01*
X202536926Y-119740635D01*
X202536924Y-119740643D01*
X202496556Y-119943586D01*
X191747556Y-119943586D01*
X191747556Y-119748796D01*
X191747363Y-119747474D01*
X191739956Y-119696632D01*
X191737629Y-119680663D01*
X191686254Y-119575573D01*
X191686252Y-119575571D01*
X191686252Y-119575570D01*
X191603541Y-119492859D01*
X191498447Y-119441482D01*
X191430317Y-119431556D01*
X191430316Y-119431556D01*
X189713796Y-119431556D01*
X189713795Y-119431556D01*
X189645664Y-119441482D01*
X189540570Y-119492859D01*
X189457859Y-119575570D01*
X189406482Y-119680664D01*
X189396556Y-119748795D01*
X189396556Y-120115316D01*
X189406482Y-120183447D01*
X189406483Y-120183449D01*
X189457858Y-120288539D01*
X189457859Y-120288540D01*
X189457860Y-120288542D01*
X189463829Y-120296903D01*
X189462714Y-120297698D01*
X189491026Y-120349546D01*
X189486042Y-120419238D01*
X189444170Y-120475171D01*
X189432982Y-120482636D01*
X189345500Y-120534373D01*
X189345494Y-120534377D01*
X189229377Y-120650494D01*
X189229373Y-120650500D01*
X189145774Y-120791857D01*
X189099955Y-120949569D01*
X189099760Y-120952054D01*
X187094351Y-120952054D01*
X187094156Y-120949569D01*
X187048337Y-120791857D01*
X186964739Y-120650500D01*
X186959956Y-120644334D01*
X186962308Y-120642509D01*
X186935501Y-120593461D01*
X186940458Y-120523768D01*
X186961521Y-120490992D01*
X186959956Y-120489778D01*
X186964741Y-120483608D01*
X187048337Y-120342254D01*
X187094156Y-120184542D01*
X187094351Y-120182057D01*
X187094351Y-120182056D01*
X185872056Y-120182056D01*
X185872056Y-120952056D01*
X185372056Y-120952056D01*
X185372056Y-120182056D01*
X184149761Y-120182056D01*
X184149760Y-120182057D01*
X182460582Y-120182057D01*
X181190582Y-118912057D01*
X184149760Y-118912057D01*
X184149955Y-118914542D01*
X184195774Y-119072254D01*
X184279370Y-119213608D01*
X184284156Y-119219778D01*
X184281809Y-119221598D01*
X184308620Y-119270698D01*
X184303636Y-119340390D01*
X184282597Y-119373125D01*
X184284156Y-119374334D01*
X184279370Y-119380503D01*
X184195774Y-119521857D01*
X184149955Y-119679569D01*
X184149760Y-119682054D01*
X184149761Y-119682056D01*
X185372056Y-119682056D01*
X185872056Y-119682056D01*
X187094351Y-119682056D01*
X187094351Y-119682054D01*
X187094156Y-119679569D01*
X187048337Y-119521857D01*
X186964741Y-119380503D01*
X186959956Y-119374334D01*
X186962308Y-119372509D01*
X186935501Y-119323461D01*
X186940458Y-119253768D01*
X186961521Y-119220992D01*
X186959956Y-119219778D01*
X186964741Y-119213608D01*
X187048337Y-119072254D01*
X187094156Y-118914542D01*
X187094351Y-118912057D01*
X187094351Y-118912056D01*
X185872056Y-118912056D01*
X185872056Y-119682056D01*
X185372056Y-119682056D01*
X185372056Y-118912056D01*
X184149761Y-118912056D01*
X184149760Y-118912057D01*
X181190582Y-118912057D01*
X180386819Y-118108294D01*
X180353334Y-118046971D01*
X180350500Y-118020613D01*
X180350500Y-114647055D01*
X184838265Y-114647055D01*
X184838266Y-114647056D01*
X185367056Y-114647056D01*
X185367056Y-114092550D01*
X185367054Y-114092549D01*
X185220865Y-114135021D01*
X185220862Y-114135023D01*
X185081681Y-114217334D01*
X185081672Y-114217341D01*
X184967341Y-114331672D01*
X184967334Y-114331681D01*
X184885027Y-114470856D01*
X184885022Y-114470865D01*
X184839911Y-114626137D01*
X184839910Y-114626143D01*
X184838265Y-114647055D01*
X180350500Y-114647055D01*
X180350500Y-113546379D01*
X180370185Y-113479340D01*
X180422989Y-113433585D01*
X180428978Y-113431037D01*
X180547342Y-113384361D01*
X180667922Y-113292922D01*
X180759361Y-113172342D01*
X180814877Y-113031564D01*
X180825500Y-112943102D01*
X180825500Y-112356898D01*
X180814877Y-112268436D01*
X180759361Y-112127658D01*
X180759360Y-112127657D01*
X180759360Y-112127656D01*
X180667922Y-112007077D01*
X180547343Y-111915639D01*
X180427086Y-111868216D01*
X180406564Y-111860123D01*
X180406563Y-111860122D01*
X180406561Y-111860122D01*
X180360926Y-111854642D01*
X180318102Y-111849500D01*
X179281898Y-111849500D01*
X179242853Y-111854188D01*
X179193438Y-111860122D01*
X179052656Y-111915639D01*
X178932077Y-112007077D01*
X178840639Y-112127656D01*
X178785122Y-112268438D01*
X178779188Y-112317853D01*
X178774500Y-112356898D01*
X178774500Y-112943102D01*
X178779775Y-112987029D01*
X178785122Y-113031561D01*
X178840639Y-113172343D01*
X178932077Y-113292922D01*
X179052657Y-113384361D01*
X179086260Y-113397611D01*
X179170991Y-113431026D01*
X179226133Y-113473930D01*
X179249327Y-113539837D01*
X179249500Y-113546379D01*
X179249500Y-118372475D01*
X179254079Y-118389562D01*
X179287016Y-118512485D01*
X179350714Y-118622815D01*
X179359489Y-118638013D01*
X179359491Y-118638016D01*
X181311986Y-120590511D01*
X181345471Y-120651834D01*
X181340487Y-120721526D01*
X181298615Y-120777459D01*
X181256403Y-120797966D01*
X181235763Y-120803497D01*
X181235760Y-120803498D01*
X181138740Y-120859513D01*
X181138734Y-120859517D01*
X181059517Y-120938734D01*
X181059513Y-120938740D01*
X181007387Y-121029025D01*
X180956820Y-121077241D01*
X180888213Y-121090463D01*
X180823348Y-121064495D01*
X180792613Y-121029025D01*
X180782006Y-121010654D01*
X180740485Y-120938737D01*
X180661263Y-120859515D01*
X180564237Y-120803497D01*
X180456018Y-120774500D01*
X180343982Y-120774500D01*
X180235763Y-120803497D01*
X180235760Y-120803498D01*
X180138740Y-120859513D01*
X180138734Y-120859517D01*
X180059517Y-120938734D01*
X180059513Y-120938740D01*
X180003498Y-121035760D01*
X180003497Y-121035763D01*
X179974500Y-121143982D01*
X179974500Y-121256018D01*
X180002643Y-121361047D01*
X180003497Y-121364236D01*
X180003498Y-121364239D01*
X180022125Y-121396501D01*
X180059515Y-121461263D01*
X180138737Y-121540485D01*
X180198888Y-121575213D01*
X180229025Y-121592613D01*
X180277241Y-121643180D01*
X180290463Y-121711787D01*
X180264495Y-121776652D01*
X180229025Y-121807387D01*
X180138740Y-121859513D01*
X180138734Y-121859517D01*
X180059517Y-121938734D01*
X180059513Y-121938740D01*
X180003498Y-122035760D01*
X180003497Y-122035763D01*
X179974500Y-122143982D01*
X179974500Y-122256018D01*
X179996665Y-122338737D01*
X180003497Y-122364236D01*
X180003498Y-122364239D01*
X180010258Y-122375948D01*
X180059515Y-122461263D01*
X180138737Y-122540485D01*
X180208076Y-122580518D01*
X180229025Y-122592613D01*
X180277241Y-122643180D01*
X180290463Y-122711787D01*
X180264495Y-122776652D01*
X180229025Y-122807387D01*
X180138740Y-122859513D01*
X180138734Y-122859517D01*
X180059517Y-122938734D01*
X180059512Y-122938740D01*
X180052583Y-122950743D01*
X180002015Y-122998958D01*
X179933408Y-123012179D01*
X179868543Y-122986210D01*
X179857516Y-122976422D01*
X178686819Y-121805725D01*
X178653334Y-121744402D01*
X178650500Y-121718044D01*
X178650500Y-120540693D01*
X178650500Y-120540691D01*
X178619799Y-120426114D01*
X178560489Y-120323387D01*
X178476613Y-120239511D01*
X178373886Y-120180201D01*
X178288460Y-120157311D01*
X178264682Y-120142817D01*
X178239353Y-120131250D01*
X178235262Y-120124884D01*
X178228802Y-120120947D01*
X178216634Y-120095899D01*
X178201579Y-120072472D01*
X178200033Y-120061724D01*
X178198273Y-120058100D01*
X178196556Y-120037537D01*
X178196556Y-119841816D01*
X178216241Y-119774777D01*
X178269045Y-119729022D01*
X178338203Y-119719078D01*
X178352638Y-119722038D01*
X178366038Y-119725629D01*
X178366041Y-119725629D01*
X178478072Y-119725629D01*
X178478074Y-119725629D01*
X178586293Y-119696632D01*
X178683319Y-119640614D01*
X178762541Y-119561392D01*
X178818559Y-119464366D01*
X178847556Y-119356147D01*
X178847556Y-119244111D01*
X178818559Y-119135892D01*
X178762541Y-119038866D01*
X178736819Y-119013144D01*
X178703334Y-118951821D01*
X178700500Y-118925463D01*
X178700500Y-117360439D01*
X178690870Y-117324500D01*
X178680021Y-117284011D01*
X178674513Y-117274471D01*
X178640464Y-117215495D01*
X178640458Y-117215487D01*
X178558874Y-117133903D01*
X178525389Y-117072580D01*
X178522555Y-117046230D01*
X178522555Y-115727192D01*
X178522553Y-115727173D01*
X178519642Y-115702068D01*
X178519641Y-115702066D01*
X178519641Y-115702065D01*
X178474262Y-115599291D01*
X178394821Y-115519850D01*
X178326506Y-115489686D01*
X178292048Y-115474471D01*
X178266921Y-115471556D01*
X177977199Y-115471556D01*
X177977173Y-115471558D01*
X177952069Y-115474469D01*
X177917606Y-115489686D01*
X177849294Y-115519849D01*
X177847142Y-115520799D01*
X177777863Y-115529870D01*
X177746970Y-115520799D01*
X177744821Y-115519850D01*
X177642047Y-115474471D01*
X177616921Y-115471556D01*
X177327199Y-115471556D01*
X177327173Y-115471558D01*
X177302069Y-115474469D01*
X177267606Y-115489686D01*
X177199294Y-115519849D01*
X177197142Y-115520799D01*
X177127863Y-115529870D01*
X177096970Y-115520799D01*
X177094821Y-115519850D01*
X176992047Y-115474471D01*
X176966921Y-115471556D01*
X176677199Y-115471556D01*
X176677173Y-115471558D01*
X176652069Y-115474469D01*
X176617606Y-115489686D01*
X176549294Y-115519849D01*
X176547142Y-115520799D01*
X176477863Y-115529870D01*
X176446970Y-115520799D01*
X176444821Y-115519850D01*
X176342047Y-115474471D01*
X176335765Y-115473742D01*
X176316924Y-115471556D01*
X176208908Y-115471556D01*
X176141869Y-115451871D01*
X176110533Y-115423043D01*
X176049982Y-115344133D01*
X175924642Y-115247955D01*
X175778687Y-115187500D01*
X175722056Y-115180043D01*
X175722056Y-117639066D01*
X175734316Y-117637453D01*
X175745826Y-117639248D01*
X175757167Y-117636571D01*
X175779720Y-117644533D01*
X175803351Y-117648219D01*
X175812064Y-117655953D01*
X175823051Y-117659832D01*
X175837718Y-117678722D01*
X175855606Y-117694599D01*
X175859848Y-117707224D01*
X175865901Y-117715020D01*
X175870343Y-117738461D01*
X175874009Y-117749370D01*
X175874500Y-117754871D01*
X175874500Y-117856018D01*
X175888034Y-117906528D01*
X175888989Y-117917229D01*
X175884177Y-117941388D01*
X175883591Y-117966009D01*
X175877474Y-117975046D01*
X175875342Y-117985753D01*
X175858231Y-118003476D01*
X175844428Y-118023871D01*
X175828369Y-118034408D01*
X175826814Y-118036020D01*
X175825408Y-118036351D01*
X175821778Y-118038734D01*
X175796782Y-118051470D01*
X175796774Y-118051476D01*
X175701476Y-118146774D01*
X175701473Y-118146778D01*
X175640279Y-118266877D01*
X175635740Y-118295540D01*
X175605810Y-118358674D01*
X175572151Y-118379631D01*
X175603190Y-118405259D01*
X175624465Y-118471811D01*
X175624500Y-118474762D01*
X175624500Y-118883493D01*
X175640279Y-118983121D01*
X175640280Y-118983124D01*
X175640281Y-118983126D01*
X175701472Y-119103220D01*
X175701473Y-119103221D01*
X175701476Y-119103225D01*
X175720424Y-119122173D01*
X175731567Y-119142581D01*
X175746472Y-119160439D01*
X175748000Y-119172675D01*
X175753909Y-119183496D01*
X175752250Y-119206692D01*
X175755133Y-119229770D01*
X175749804Y-119240888D01*
X175748925Y-119253188D01*
X175734988Y-119271805D01*
X175724937Y-119292778D01*
X175709880Y-119305344D01*
X175707053Y-119309121D01*
X175697840Y-119315393D01*
X175614266Y-119366942D01*
X175546874Y-119385382D01*
X175480210Y-119364460D01*
X175435440Y-119310818D01*
X175425711Y-119272980D01*
X175422646Y-119240300D01*
X175422646Y-119240298D01*
X175381311Y-119122173D01*
X175377793Y-119112118D01*
X175297150Y-119002850D01*
X175187882Y-118922207D01*
X175187881Y-118922206D01*
X175180966Y-118917103D01*
X175138716Y-118861456D01*
X175133257Y-118791800D01*
X175166324Y-118730250D01*
X175192598Y-118709947D01*
X175226309Y-118690485D01*
X175305531Y-118611263D01*
X175361549Y-118514237D01*
X175380725Y-118442667D01*
X175417090Y-118383008D01*
X175441360Y-118371218D01*
X175418404Y-118355997D01*
X175394321Y-118301383D01*
X175392649Y-118301832D01*
X175387734Y-118283488D01*
X175361549Y-118185763D01*
X175318098Y-118110503D01*
X175317113Y-118108797D01*
X175300500Y-118046797D01*
X175300500Y-117714154D01*
X175320185Y-117647115D01*
X175322056Y-117644942D01*
X175322056Y-115180043D01*
X175265424Y-115187500D01*
X175119469Y-115247955D01*
X174994130Y-115344132D01*
X174933578Y-115423044D01*
X174877149Y-115464246D01*
X174835204Y-115471556D01*
X174727199Y-115471556D01*
X174727174Y-115471558D01*
X174702068Y-115474469D01*
X174621373Y-115510100D01*
X174599294Y-115519849D01*
X174597142Y-115520799D01*
X174527863Y-115529870D01*
X174496970Y-115520799D01*
X174494821Y-115519850D01*
X174392047Y-115474471D01*
X174366921Y-115471556D01*
X174077199Y-115471556D01*
X174077173Y-115471558D01*
X174052069Y-115474469D01*
X174017606Y-115489686D01*
X173949294Y-115519849D01*
X173947142Y-115520799D01*
X173877863Y-115529870D01*
X173846970Y-115520799D01*
X173844821Y-115519850D01*
X173742047Y-115474471D01*
X173716921Y-115471556D01*
X173427199Y-115471556D01*
X173427173Y-115471558D01*
X173402068Y-115474469D01*
X173402064Y-115474471D01*
X173299291Y-115519849D01*
X173219850Y-115599290D01*
X173174471Y-115702062D01*
X173174471Y-115702064D01*
X173171556Y-115727187D01*
X173171556Y-117091912D01*
X173171558Y-117091938D01*
X173174469Y-117117043D01*
X173174471Y-117117047D01*
X173219849Y-117219820D01*
X173235237Y-117235208D01*
X173268722Y-117296531D01*
X173271556Y-117322889D01*
X173271556Y-118952110D01*
X173262911Y-118981550D01*
X173256388Y-119011537D01*
X173252633Y-119016552D01*
X173251871Y-119019149D01*
X173235237Y-119039791D01*
X173136847Y-119138181D01*
X173075524Y-119171666D01*
X173049166Y-119174500D01*
X172943982Y-119174500D01*
X172835763Y-119203497D01*
X172835760Y-119203498D01*
X172763290Y-119245339D01*
X172695390Y-119261812D01*
X172629363Y-119238959D01*
X172586172Y-119184038D01*
X172586037Y-119183700D01*
X172534361Y-119052658D01*
X172534360Y-119052657D01*
X172534360Y-119052656D01*
X172472752Y-118971413D01*
X172447929Y-118906101D01*
X172447556Y-118896488D01*
X172447556Y-113405935D01*
X172467241Y-113338896D01*
X172520045Y-113293141D01*
X172526034Y-113290593D01*
X172644398Y-113243917D01*
X172764978Y-113152478D01*
X172856417Y-113031898D01*
X172911933Y-112891120D01*
X172922556Y-112802658D01*
X172922556Y-112216454D01*
X172911933Y-112127992D01*
X172856417Y-111987214D01*
X172856416Y-111987213D01*
X172856416Y-111987212D01*
X172764978Y-111866633D01*
X172644399Y-111775195D01*
X172503617Y-111719678D01*
X172457982Y-111714198D01*
X172415158Y-111709056D01*
X171378954Y-111709056D01*
X171339909Y-111713744D01*
X171290494Y-111719678D01*
X171149712Y-111775195D01*
X171029133Y-111866633D01*
X170937695Y-111987212D01*
X170882178Y-112127994D01*
X170876244Y-112177409D01*
X170871556Y-112216454D01*
X140000500Y-112216454D01*
X140000500Y-110305286D01*
X170971556Y-110305286D01*
X170971556Y-110913825D01*
X170974409Y-110944255D01*
X170974409Y-110944257D01*
X171019262Y-111072436D01*
X171019263Y-111072438D01*
X171099906Y-111181706D01*
X171209174Y-111262349D01*
X171251901Y-111277300D01*
X171337355Y-111307202D01*
X171367786Y-111310056D01*
X171367790Y-111310056D01*
X172426326Y-111310056D01*
X172456755Y-111307202D01*
X172456757Y-111307202D01*
X172520846Y-111284775D01*
X172584938Y-111262349D01*
X172694206Y-111181706D01*
X172774849Y-111072438D01*
X172776366Y-111068104D01*
X172789985Y-111049114D01*
X172799695Y-111027853D01*
X172809969Y-111021250D01*
X172817086Y-111011327D01*
X172838812Y-111002713D01*
X172858473Y-110990079D01*
X172877633Y-110987324D01*
X172882038Y-110985578D01*
X172893408Y-110985056D01*
X173047557Y-110985056D01*
X173114596Y-111004741D01*
X173160351Y-111057545D01*
X173171557Y-111109056D01*
X173171557Y-111366912D01*
X173171558Y-111366938D01*
X173174469Y-111392043D01*
X173174471Y-111392047D01*
X173219849Y-111494820D01*
X173219850Y-111494821D01*
X173299291Y-111574262D01*
X173402065Y-111619641D01*
X173427191Y-111622556D01*
X173716920Y-111622555D01*
X173716935Y-111622553D01*
X173716938Y-111622553D01*
X173742043Y-111619642D01*
X173742043Y-111619641D01*
X173742047Y-111619641D01*
X173844821Y-111574262D01*
X173844822Y-111574260D01*
X173846968Y-111573313D01*
X173916246Y-111564241D01*
X173947141Y-111573313D01*
X174052060Y-111619639D01*
X174052065Y-111619641D01*
X174077191Y-111622556D01*
X174366920Y-111622555D01*
X174366935Y-111622553D01*
X174366938Y-111622553D01*
X174392043Y-111619642D01*
X174392043Y-111619641D01*
X174392047Y-111619641D01*
X174494821Y-111574262D01*
X174494822Y-111574260D01*
X174496968Y-111573313D01*
X174566246Y-111564241D01*
X174597141Y-111573313D01*
X174702060Y-111619639D01*
X174702065Y-111619641D01*
X174727191Y-111622556D01*
X175016920Y-111622555D01*
X175016935Y-111622553D01*
X175016938Y-111622553D01*
X175042043Y-111619642D01*
X175042043Y-111619641D01*
X175042047Y-111619641D01*
X175144821Y-111574262D01*
X175144822Y-111574260D01*
X175146968Y-111573313D01*
X175216246Y-111564241D01*
X175247141Y-111573313D01*
X175352060Y-111619639D01*
X175352065Y-111619641D01*
X175377191Y-111622556D01*
X175666920Y-111622555D01*
X175666935Y-111622553D01*
X175666938Y-111622553D01*
X175692043Y-111619642D01*
X175692043Y-111619641D01*
X175692047Y-111619641D01*
X175794821Y-111574262D01*
X175794822Y-111574260D01*
X175796968Y-111573313D01*
X175866246Y-111564241D01*
X175897141Y-111573313D01*
X176002060Y-111619639D01*
X176002065Y-111619641D01*
X176027191Y-111622556D01*
X176316920Y-111622555D01*
X176316935Y-111622553D01*
X176316938Y-111622553D01*
X176342043Y-111619642D01*
X176342043Y-111619641D01*
X176342047Y-111619641D01*
X176444821Y-111574262D01*
X176444822Y-111574260D01*
X176446968Y-111573313D01*
X176516246Y-111564241D01*
X176547141Y-111573313D01*
X176652060Y-111619639D01*
X176652065Y-111619641D01*
X176677191Y-111622556D01*
X176966920Y-111622555D01*
X176966935Y-111622553D01*
X176966938Y-111622553D01*
X176992043Y-111619642D01*
X176992043Y-111619641D01*
X176992047Y-111619641D01*
X177094821Y-111574262D01*
X177094822Y-111574260D01*
X177096968Y-111573313D01*
X177166246Y-111564241D01*
X177197141Y-111573313D01*
X177302060Y-111619639D01*
X177302065Y-111619641D01*
X177327191Y-111622556D01*
X177616920Y-111622555D01*
X177616935Y-111622553D01*
X177616938Y-111622553D01*
X177642043Y-111619642D01*
X177642043Y-111619641D01*
X177642047Y-111619641D01*
X177744821Y-111574262D01*
X177744822Y-111574260D01*
X177746968Y-111573313D01*
X177816246Y-111564241D01*
X177847141Y-111573313D01*
X177952060Y-111619639D01*
X177952065Y-111619641D01*
X177977191Y-111622556D01*
X178266920Y-111622555D01*
X178266935Y-111622553D01*
X178266938Y-111622553D01*
X178292043Y-111619642D01*
X178292044Y-111619641D01*
X178292047Y-111619641D01*
X178394821Y-111574262D01*
X178474262Y-111494821D01*
X178519641Y-111392047D01*
X178522556Y-111366921D01*
X178522556Y-111259056D01*
X178525106Y-111250370D01*
X178523818Y-111241409D01*
X178534796Y-111217368D01*
X178542241Y-111192017D01*
X178549081Y-111186089D01*
X178552843Y-111177853D01*
X178575077Y-111163563D01*
X178595045Y-111146262D01*
X178605559Y-111143974D01*
X178611621Y-111140079D01*
X178646556Y-111135056D01*
X178806991Y-111135056D01*
X178874030Y-111154741D01*
X178917468Y-111204871D01*
X178917863Y-111204663D01*
X178918762Y-111206365D01*
X178919785Y-111207545D01*
X178921057Y-111210707D01*
X178922206Y-111212881D01*
X178922207Y-111212882D01*
X179002850Y-111322150D01*
X179112118Y-111402793D01*
X179149830Y-111415989D01*
X179240299Y-111447646D01*
X179270730Y-111450500D01*
X179270734Y-111450500D01*
X180329270Y-111450500D01*
X180359699Y-111447646D01*
X180359701Y-111447646D01*
X180423790Y-111425219D01*
X180487882Y-111402793D01*
X180597150Y-111322150D01*
X180677793Y-111212882D01*
X180703268Y-111140079D01*
X180722646Y-111084701D01*
X180722646Y-111084699D01*
X180725500Y-111054269D01*
X180725500Y-110445730D01*
X180722646Y-110415300D01*
X180722646Y-110415298D01*
X180686348Y-110311567D01*
X180677793Y-110287118D01*
X180597150Y-110177850D01*
X180487882Y-110097207D01*
X180487880Y-110097206D01*
X180359700Y-110052353D01*
X180329270Y-110049500D01*
X180329266Y-110049500D01*
X179270734Y-110049500D01*
X179270730Y-110049500D01*
X179240300Y-110052353D01*
X179240298Y-110052353D01*
X179112119Y-110097206D01*
X179112117Y-110097207D01*
X179024913Y-110161567D01*
X179002850Y-110177850D01*
X178998540Y-110183689D01*
X178942895Y-110225940D01*
X178898770Y-110234056D01*
X178646555Y-110234056D01*
X178579516Y-110214371D01*
X178533761Y-110161567D01*
X178522555Y-110110056D01*
X178522555Y-110002199D01*
X178522555Y-110002192D01*
X178522553Y-110002173D01*
X178519642Y-109977068D01*
X178519641Y-109977066D01*
X178519641Y-109977065D01*
X178474262Y-109874291D01*
X178394821Y-109794850D01*
X178394819Y-109794849D01*
X178292048Y-109749471D01*
X178266921Y-109746556D01*
X177977199Y-109746556D01*
X177977173Y-109746558D01*
X177952069Y-109749469D01*
X177884077Y-109779490D01*
X177849294Y-109794849D01*
X177847142Y-109795799D01*
X177777863Y-109804870D01*
X177746970Y-109795799D01*
X177744821Y-109794850D01*
X177642047Y-109749471D01*
X177616921Y-109746556D01*
X177327199Y-109746556D01*
X177327173Y-109746558D01*
X177302068Y-109749469D01*
X177302066Y-109749470D01*
X177296641Y-109751866D01*
X177227363Y-109760937D01*
X177164178Y-109731113D01*
X177127148Y-109671863D01*
X177122556Y-109638431D01*
X177122556Y-109191496D01*
X177142241Y-109124457D01*
X177184557Y-109084108D01*
X177190772Y-109080520D01*
X177302576Y-108968716D01*
X177381633Y-108831784D01*
X177422556Y-108679057D01*
X177422556Y-108520943D01*
X177381633Y-108368216D01*
X177318911Y-108259577D01*
X177302580Y-108231290D01*
X177302574Y-108231282D01*
X177190774Y-108119482D01*
X177190772Y-108119480D01*
X177190769Y-108119478D01*
X177190765Y-108119475D01*
X177184555Y-108115890D01*
X177136340Y-108065323D01*
X177122556Y-108008504D01*
X177122556Y-104260438D01*
X183599500Y-104260438D01*
X183599500Y-111339562D01*
X183606829Y-111366912D01*
X183619979Y-111415990D01*
X183619980Y-111415991D01*
X183638256Y-111447646D01*
X183659540Y-111484511D01*
X183659542Y-111484513D01*
X184069263Y-111894234D01*
X184102748Y-111955557D01*
X184101359Y-112014002D01*
X184099500Y-112020939D01*
X184099500Y-112020943D01*
X184099500Y-112179057D01*
X184109521Y-112216454D01*
X184140423Y-112331783D01*
X184140426Y-112331790D01*
X184219475Y-112468709D01*
X184219479Y-112468714D01*
X184219480Y-112468716D01*
X184331284Y-112580520D01*
X184331286Y-112580521D01*
X184331290Y-112580524D01*
X184468209Y-112659573D01*
X184468216Y-112659577D01*
X184620943Y-112700500D01*
X184620945Y-112700500D01*
X184779055Y-112700500D01*
X184779057Y-112700500D01*
X184931784Y-112659577D01*
X184984380Y-112629210D01*
X185075755Y-112576457D01*
X185076449Y-112577660D01*
X185133533Y-112555583D01*
X185201980Y-112569612D01*
X185251976Y-112618419D01*
X185267649Y-112686509D01*
X185263642Y-112711244D01*
X185248763Y-112766773D01*
X185248763Y-112766775D01*
X185248763Y-112878811D01*
X185277760Y-112987030D01*
X185333778Y-113084056D01*
X185413000Y-113163278D01*
X185510026Y-113219296D01*
X185618245Y-113248293D01*
X185618247Y-113248293D01*
X185730279Y-113248293D01*
X185730281Y-113248293D01*
X185838500Y-113219296D01*
X185935526Y-113163278D01*
X186014748Y-113084056D01*
X186070766Y-112987030D01*
X186099763Y-112878811D01*
X186099763Y-112766775D01*
X186070766Y-112658556D01*
X186014748Y-112561530D01*
X185935526Y-112482308D01*
X185838500Y-112426290D01*
X185730281Y-112397293D01*
X185618245Y-112397293D01*
X185510026Y-112426290D01*
X185510025Y-112426290D01*
X185443038Y-112464965D01*
X185375138Y-112481436D01*
X185309111Y-112458584D01*
X185265921Y-112403662D01*
X185259280Y-112334109D01*
X185261255Y-112325518D01*
X185300500Y-112179057D01*
X185300500Y-112020943D01*
X185259577Y-111868216D01*
X185254904Y-111860122D01*
X185180524Y-111731290D01*
X185180518Y-111731282D01*
X185068717Y-111619481D01*
X185068709Y-111619475D01*
X184931790Y-111540426D01*
X184931786Y-111540424D01*
X184931784Y-111540423D01*
X184779057Y-111499500D01*
X184620943Y-111499500D01*
X184620939Y-111499500D01*
X184614002Y-111501359D01*
X184544152Y-111499692D01*
X184494234Y-111469263D01*
X184236819Y-111211848D01*
X184203334Y-111150525D01*
X184200500Y-111124167D01*
X184200500Y-107620943D01*
X189699500Y-107620943D01*
X189699500Y-107779056D01*
X189740423Y-107931783D01*
X189740426Y-107931790D01*
X189819475Y-108068709D01*
X189819479Y-108068714D01*
X189819480Y-108068716D01*
X189931284Y-108180520D01*
X189931286Y-108180521D01*
X189931290Y-108180524D01*
X190019221Y-108231290D01*
X190068216Y-108259577D01*
X190220943Y-108300500D01*
X190220945Y-108300500D01*
X190379055Y-108300500D01*
X190379057Y-108300500D01*
X190531784Y-108259577D01*
X190668716Y-108180520D01*
X190780520Y-108068716D01*
X190859577Y-107931784D01*
X190900500Y-107779057D01*
X190900500Y-107620943D01*
X190859577Y-107468216D01*
X190859573Y-107468209D01*
X190780524Y-107331290D01*
X190780518Y-107331282D01*
X190668717Y-107219481D01*
X190668709Y-107219475D01*
X190531790Y-107140426D01*
X190531786Y-107140424D01*
X190531784Y-107140423D01*
X190379057Y-107099500D01*
X190220943Y-107099500D01*
X190068216Y-107140423D01*
X190068209Y-107140426D01*
X189931290Y-107219475D01*
X189931282Y-107219481D01*
X189819481Y-107331282D01*
X189819475Y-107331290D01*
X189740426Y-107468209D01*
X189740423Y-107468216D01*
X189699500Y-107620943D01*
X184200500Y-107620943D01*
X184200500Y-105641038D01*
X189371556Y-105641038D01*
X189371556Y-105753074D01*
X189400553Y-105861293D01*
X189456571Y-105958319D01*
X189535793Y-106037541D01*
X189632819Y-106093559D01*
X189741038Y-106122556D01*
X189741040Y-106122556D01*
X189853072Y-106122556D01*
X189853074Y-106122556D01*
X189961293Y-106093559D01*
X190058319Y-106037541D01*
X190137541Y-105958319D01*
X190193559Y-105861293D01*
X190222556Y-105753074D01*
X190222556Y-105641038D01*
X190193559Y-105532819D01*
X190137541Y-105435793D01*
X190058319Y-105356571D01*
X189961293Y-105300553D01*
X189853074Y-105271556D01*
X189741038Y-105271556D01*
X189632819Y-105300553D01*
X189632816Y-105300554D01*
X189535796Y-105356569D01*
X189535790Y-105356573D01*
X189456573Y-105435790D01*
X189456569Y-105435796D01*
X189400554Y-105532816D01*
X189400553Y-105532819D01*
X189371556Y-105641038D01*
X184200500Y-105641038D01*
X184200500Y-104524500D01*
X184220185Y-104457461D01*
X184272989Y-104411706D01*
X184324500Y-104400500D01*
X184479055Y-104400500D01*
X184479057Y-104400500D01*
X184631784Y-104359577D01*
X184768716Y-104280520D01*
X184880520Y-104168716D01*
X184959577Y-104031784D01*
X185000500Y-103879057D01*
X185000500Y-103720943D01*
X184959577Y-103568216D01*
X184959573Y-103568209D01*
X184880524Y-103431290D01*
X184880518Y-103431282D01*
X184768717Y-103319481D01*
X184768709Y-103319475D01*
X184631790Y-103240426D01*
X184631786Y-103240424D01*
X184631784Y-103240423D01*
X184479057Y-103199500D01*
X184320943Y-103199500D01*
X184168216Y-103240423D01*
X184168209Y-103240426D01*
X184031290Y-103319475D01*
X184031282Y-103319481D01*
X183919481Y-103431282D01*
X183919475Y-103431290D01*
X183840426Y-103568209D01*
X183840423Y-103568216D01*
X183799500Y-103720943D01*
X183799500Y-103879057D01*
X183801358Y-103885992D01*
X183801071Y-103897991D01*
X183805266Y-103909236D01*
X183800254Y-103932273D01*
X183799693Y-103955842D01*
X183792595Y-103967486D01*
X183790415Y-103977509D01*
X183769264Y-104005763D01*
X183715489Y-104059539D01*
X183715489Y-104059540D01*
X183659538Y-104115491D01*
X183659535Y-104115495D01*
X183619982Y-104184004D01*
X183619979Y-104184009D01*
X183611083Y-104217210D01*
X183599500Y-104260438D01*
X177122556Y-104260438D01*
X177122556Y-104115767D01*
X177142241Y-104048728D01*
X177195045Y-104002973D01*
X177264203Y-103993029D01*
X177327759Y-104022054D01*
X177353942Y-104053766D01*
X177356571Y-104058319D01*
X177435793Y-104137541D01*
X177532819Y-104193559D01*
X177641038Y-104222556D01*
X177641040Y-104222556D01*
X177753072Y-104222556D01*
X177753074Y-104222556D01*
X177861293Y-104193559D01*
X177958319Y-104137541D01*
X178037541Y-104058319D01*
X178093559Y-103961293D01*
X178122556Y-103853074D01*
X178122556Y-103741038D01*
X178093559Y-103632819D01*
X178037541Y-103535793D01*
X177958319Y-103456571D01*
X177861293Y-103400553D01*
X177753074Y-103371556D01*
X177730411Y-103371556D01*
X177663372Y-103351871D01*
X177617617Y-103299067D01*
X177607673Y-103229909D01*
X177636698Y-103166353D01*
X177642730Y-103159875D01*
X178183130Y-102619475D01*
X179956948Y-100845655D01*
X180018269Y-100812172D01*
X180076720Y-100813563D01*
X180083655Y-100815422D01*
X180083657Y-100815422D01*
X180241767Y-100815422D01*
X180241769Y-100815422D01*
X180394496Y-100774499D01*
X180531428Y-100695442D01*
X180643232Y-100583638D01*
X180722289Y-100446706D01*
X180763212Y-100293979D01*
X180763212Y-100135865D01*
X180722289Y-99983138D01*
X180699684Y-99943984D01*
X180643236Y-99846212D01*
X180643230Y-99846204D01*
X180531429Y-99734403D01*
X180531421Y-99734397D01*
X180394502Y-99655348D01*
X180394498Y-99655346D01*
X180394496Y-99655345D01*
X180241769Y-99614422D01*
X180083655Y-99614422D01*
X179930928Y-99655345D01*
X179930921Y-99655348D01*
X179794002Y-99734397D01*
X179793994Y-99734403D01*
X179682193Y-99846204D01*
X179682187Y-99846212D01*
X179603138Y-99983131D01*
X179603135Y-99983138D01*
X179562212Y-100135865D01*
X179562212Y-100293979D01*
X179564070Y-100300914D01*
X179562405Y-100370764D01*
X179531975Y-100420686D01*
X176637545Y-103315118D01*
X176581597Y-103371065D01*
X176581591Y-103371073D01*
X176542038Y-103439582D01*
X176542035Y-103439587D01*
X176521556Y-103516017D01*
X176521556Y-108008504D01*
X176501871Y-108075543D01*
X176459557Y-108115890D01*
X176453346Y-108119475D01*
X176453337Y-108119482D01*
X176341537Y-108231282D01*
X176341531Y-108231290D01*
X176262482Y-108368209D01*
X176262479Y-108368216D01*
X176221556Y-108520943D01*
X176221556Y-108679057D01*
X176254097Y-108800500D01*
X176262479Y-108831783D01*
X176262482Y-108831790D01*
X176341531Y-108968709D01*
X176341537Y-108968717D01*
X176453340Y-109080520D01*
X176459555Y-109084108D01*
X176507771Y-109134675D01*
X176521556Y-109191496D01*
X176521556Y-109638430D01*
X176501871Y-109705469D01*
X176449067Y-109751224D01*
X176379909Y-109761168D01*
X176347475Y-109751867D01*
X176342048Y-109749471D01*
X176316921Y-109746556D01*
X176027199Y-109746556D01*
X176027173Y-109746558D01*
X176002069Y-109749469D01*
X175934077Y-109779490D01*
X175899294Y-109794849D01*
X175897142Y-109795799D01*
X175827863Y-109804870D01*
X175796970Y-109795799D01*
X175794821Y-109794850D01*
X175692047Y-109749471D01*
X175685765Y-109748742D01*
X175666924Y-109746556D01*
X175378070Y-109746556D01*
X175311031Y-109726871D01*
X175265276Y-109674067D01*
X175255332Y-109604909D01*
X175266643Y-109572242D01*
X175265448Y-109571747D01*
X175268554Y-109564245D01*
X175268559Y-109564237D01*
X175297556Y-109456018D01*
X175297556Y-109343982D01*
X175268559Y-109235763D01*
X175212541Y-109138737D01*
X175133319Y-109059515D01*
X175036293Y-109003497D01*
X174928074Y-108974500D01*
X174816038Y-108974500D01*
X174707819Y-109003497D01*
X174707818Y-109003497D01*
X174686499Y-109015806D01*
X174618598Y-109032277D01*
X174552572Y-109009424D01*
X174509382Y-108954503D01*
X174500500Y-108908418D01*
X174500500Y-104174832D01*
X174520185Y-104107793D01*
X174536814Y-104087156D01*
X176994236Y-101629733D01*
X177055557Y-101596250D01*
X177114008Y-101597641D01*
X177120943Y-101599500D01*
X177120945Y-101599500D01*
X177279055Y-101599500D01*
X177279057Y-101599500D01*
X177431784Y-101558577D01*
X177568716Y-101479520D01*
X177680520Y-101367716D01*
X177759577Y-101230784D01*
X177800500Y-101078057D01*
X177800500Y-100919943D01*
X177759577Y-100767216D01*
X177718139Y-100695442D01*
X177680524Y-100630290D01*
X177680518Y-100630282D01*
X177568717Y-100518481D01*
X177568709Y-100518475D01*
X177431790Y-100439426D01*
X177431786Y-100439424D01*
X177431784Y-100439423D01*
X177279057Y-100398500D01*
X177120943Y-100398500D01*
X176968216Y-100439423D01*
X176968209Y-100439426D01*
X176831290Y-100518475D01*
X176831282Y-100518481D01*
X176719481Y-100630282D01*
X176719475Y-100630290D01*
X176640426Y-100767209D01*
X176640423Y-100767216D01*
X176599500Y-100919943D01*
X176599500Y-101078057D01*
X176601358Y-101084992D01*
X176599693Y-101154842D01*
X176569263Y-101204764D01*
X174015489Y-103758540D01*
X173959541Y-103814487D01*
X173959535Y-103814495D01*
X173919982Y-103883004D01*
X173919979Y-103883009D01*
X173899500Y-103959439D01*
X173899500Y-109339562D01*
X173917331Y-109406108D01*
X173921556Y-109438201D01*
X173921556Y-109638430D01*
X173901871Y-109705469D01*
X173849067Y-109751224D01*
X173779909Y-109761168D01*
X173747475Y-109751867D01*
X173742048Y-109749471D01*
X173716921Y-109746556D01*
X173427199Y-109746556D01*
X173427173Y-109746558D01*
X173402068Y-109749469D01*
X173402064Y-109749471D01*
X173299291Y-109794849D01*
X173219850Y-109874290D01*
X173174471Y-109977062D01*
X173174471Y-109977064D01*
X173171556Y-110002187D01*
X173171556Y-110260056D01*
X173169005Y-110268741D01*
X173170294Y-110277703D01*
X173159315Y-110301743D01*
X173151871Y-110327095D01*
X173145030Y-110333022D01*
X173141269Y-110341259D01*
X173119034Y-110355548D01*
X173099067Y-110372850D01*
X173088552Y-110375137D01*
X173082491Y-110379033D01*
X173047556Y-110384056D01*
X172942858Y-110384056D01*
X172875819Y-110364371D01*
X172830064Y-110311567D01*
X172822178Y-110282036D01*
X172821312Y-110282226D01*
X172819702Y-110274854D01*
X172774849Y-110146675D01*
X172774848Y-110146673D01*
X172694206Y-110037406D01*
X172584938Y-109956763D01*
X172584936Y-109956762D01*
X172456756Y-109911909D01*
X172426326Y-109909056D01*
X172426322Y-109909056D01*
X171367790Y-109909056D01*
X171367786Y-109909056D01*
X171337356Y-109911909D01*
X171337354Y-109911909D01*
X171209175Y-109956762D01*
X171209173Y-109956763D01*
X171099906Y-110037406D01*
X171019263Y-110146673D01*
X171019262Y-110146675D01*
X170974409Y-110274854D01*
X170974409Y-110274856D01*
X170971556Y-110305286D01*
X140000500Y-110305286D01*
X140000500Y-105243982D01*
X165974500Y-105243982D01*
X165974500Y-105356018D01*
X166003497Y-105464237D01*
X166059515Y-105561263D01*
X166138737Y-105640485D01*
X166235763Y-105696503D01*
X166343982Y-105725500D01*
X166343984Y-105725500D01*
X166456016Y-105725500D01*
X166456018Y-105725500D01*
X166564237Y-105696503D01*
X166661263Y-105640485D01*
X166740485Y-105561263D01*
X166796503Y-105464237D01*
X166825500Y-105356018D01*
X166825500Y-105243982D01*
X166796503Y-105135763D01*
X166740485Y-105038737D01*
X166661263Y-104959515D01*
X166596579Y-104922169D01*
X166564239Y-104903498D01*
X166564238Y-104903497D01*
X166564237Y-104903497D01*
X166456018Y-104874500D01*
X166343982Y-104874500D01*
X166235763Y-104903497D01*
X166235760Y-104903498D01*
X166138740Y-104959513D01*
X166138734Y-104959517D01*
X166059517Y-105038734D01*
X166059513Y-105038740D01*
X166003498Y-105135760D01*
X166003497Y-105135763D01*
X165974500Y-105243982D01*
X140000500Y-105243982D01*
X140000500Y-103994943D01*
X164799500Y-103994943D01*
X164799500Y-104153057D01*
X164810353Y-104193559D01*
X164840423Y-104305783D01*
X164840426Y-104305790D01*
X164919475Y-104442709D01*
X164919479Y-104442714D01*
X164919480Y-104442716D01*
X165031284Y-104554520D01*
X165031286Y-104554521D01*
X165031290Y-104554524D01*
X165168209Y-104633573D01*
X165168216Y-104633577D01*
X165320943Y-104674500D01*
X165320945Y-104674500D01*
X165479055Y-104674500D01*
X165479057Y-104674500D01*
X165631784Y-104633577D01*
X165768716Y-104554520D01*
X165880520Y-104442716D01*
X165959577Y-104305784D01*
X166000500Y-104153057D01*
X166000500Y-103994943D01*
X165959577Y-103842216D01*
X165946451Y-103819481D01*
X165880524Y-103705290D01*
X165880518Y-103705282D01*
X165768717Y-103593481D01*
X165768709Y-103593475D01*
X165631790Y-103514426D01*
X165631786Y-103514424D01*
X165631784Y-103514423D01*
X165479057Y-103473500D01*
X165320943Y-103473500D01*
X165168216Y-103514423D01*
X165168209Y-103514426D01*
X165031290Y-103593475D01*
X165031282Y-103593481D01*
X164919481Y-103705282D01*
X164919475Y-103705290D01*
X164840426Y-103842209D01*
X164840423Y-103842216D01*
X164799500Y-103994943D01*
X140000500Y-103994943D01*
X140000500Y-99420943D01*
X176399500Y-99420943D01*
X176399500Y-99579057D01*
X176419942Y-99655345D01*
X176440423Y-99731783D01*
X176440426Y-99731790D01*
X176519475Y-99868709D01*
X176519479Y-99868714D01*
X176519480Y-99868716D01*
X176631284Y-99980520D01*
X176631286Y-99980521D01*
X176631290Y-99980524D01*
X176728848Y-100036848D01*
X176768216Y-100059577D01*
X176920943Y-100100500D01*
X176920945Y-100100500D01*
X177079055Y-100100500D01*
X177079057Y-100100500D01*
X177231784Y-100059577D01*
X177368716Y-99980520D01*
X177480520Y-99868716D01*
X177559577Y-99731784D01*
X177600500Y-99579057D01*
X177600500Y-99420943D01*
X177598642Y-99414008D01*
X177600303Y-99344161D01*
X177630733Y-99294236D01*
X178688152Y-98236819D01*
X178749475Y-98203334D01*
X178775833Y-98200500D01*
X196608504Y-98200500D01*
X196675543Y-98220185D01*
X196715891Y-98262500D01*
X196719480Y-98268716D01*
X196831284Y-98380520D01*
X196831286Y-98380521D01*
X196831290Y-98380524D01*
X196968209Y-98459573D01*
X196968216Y-98459577D01*
X197120943Y-98500500D01*
X197120945Y-98500500D01*
X197279054Y-98500500D01*
X197279057Y-98500500D01*
X197372279Y-98475521D01*
X197375331Y-98475593D01*
X197378012Y-98474130D01*
X197410031Y-98476419D01*
X197442126Y-98477184D01*
X197444655Y-98478896D01*
X197447703Y-98479114D01*
X197473402Y-98498352D01*
X197499989Y-98516346D01*
X197501191Y-98519154D01*
X197503637Y-98520985D01*
X197514853Y-98551058D01*
X197527493Y-98580574D01*
X197526986Y-98583587D01*
X197528054Y-98586450D01*
X197521231Y-98617814D01*
X197515907Y-98649477D01*
X197513655Y-98652638D01*
X197513202Y-98654723D01*
X197492051Y-98682977D01*
X197315489Y-98859540D01*
X197259541Y-98915487D01*
X197259535Y-98915495D01*
X197219982Y-98984004D01*
X197219979Y-98984009D01*
X197199500Y-99060439D01*
X197199500Y-99308504D01*
X197179815Y-99375543D01*
X197137501Y-99415890D01*
X197131290Y-99419475D01*
X197131281Y-99419482D01*
X197019481Y-99531282D01*
X197019475Y-99531290D01*
X196940426Y-99668209D01*
X196940423Y-99668216D01*
X196899500Y-99820943D01*
X196899500Y-99979057D01*
X196932041Y-100100500D01*
X196940423Y-100131783D01*
X196940426Y-100131790D01*
X197019475Y-100268709D01*
X197019479Y-100268714D01*
X197019480Y-100268716D01*
X197131284Y-100380520D01*
X197131286Y-100380521D01*
X197131290Y-100380524D01*
X197275254Y-100463641D01*
X197274197Y-100465470D01*
X197319879Y-100502280D01*
X197341947Y-100568573D01*
X197324670Y-100636273D01*
X197305707Y-100660685D01*
X195315489Y-102650904D01*
X195312181Y-102654212D01*
X195250858Y-102687697D01*
X195181166Y-102682713D01*
X195125233Y-102640841D01*
X195100816Y-102575377D01*
X195100500Y-102566531D01*
X195100500Y-101460439D01*
X195080020Y-101384009D01*
X195080017Y-101384004D01*
X195040464Y-101315495D01*
X195040458Y-101315487D01*
X193761819Y-100036848D01*
X193728334Y-99975525D01*
X193725500Y-99949167D01*
X193725500Y-99943984D01*
X193725500Y-99943982D01*
X193696503Y-99835763D01*
X193640485Y-99738737D01*
X193561263Y-99659515D01*
X193464237Y-99603497D01*
X193356018Y-99574500D01*
X193243982Y-99574500D01*
X193135763Y-99603497D01*
X193135760Y-99603498D01*
X193038740Y-99659513D01*
X193038734Y-99659517D01*
X192959517Y-99738734D01*
X192959513Y-99738740D01*
X192932040Y-99786323D01*
X192881472Y-99834538D01*
X192812865Y-99847759D01*
X192748000Y-99821790D01*
X192736973Y-99812002D01*
X192458875Y-99533904D01*
X192425390Y-99472581D01*
X192422556Y-99446223D01*
X192422556Y-99441040D01*
X192422556Y-99441038D01*
X192393559Y-99332819D01*
X192337541Y-99235793D01*
X192258319Y-99156571D01*
X192161293Y-99100553D01*
X192053074Y-99071556D01*
X191941038Y-99071556D01*
X191832819Y-99100553D01*
X191832816Y-99100554D01*
X191735796Y-99156569D01*
X191735790Y-99156573D01*
X191656573Y-99235790D01*
X191656569Y-99235796D01*
X191600554Y-99332816D01*
X191600553Y-99332819D01*
X191571556Y-99441038D01*
X191571556Y-99553074D01*
X191600553Y-99661293D01*
X191656571Y-99758319D01*
X191735793Y-99837541D01*
X191832819Y-99893559D01*
X191941038Y-99922556D01*
X191946223Y-99922556D01*
X192013262Y-99942241D01*
X192033904Y-99958875D01*
X194062181Y-101987152D01*
X194095666Y-102048475D01*
X194098500Y-102074833D01*
X194098500Y-104938811D01*
X194078815Y-105005850D01*
X194026011Y-105051605D01*
X193956853Y-105061549D01*
X193893297Y-105032524D01*
X193886819Y-105026492D01*
X192136629Y-103276302D01*
X192103144Y-103214979D01*
X192101994Y-103187185D01*
X192100500Y-103187185D01*
X192100500Y-103020945D01*
X192100500Y-103020943D01*
X192059577Y-102868216D01*
X192059573Y-102868209D01*
X191980524Y-102731290D01*
X191980518Y-102731282D01*
X191868717Y-102619481D01*
X191868709Y-102619475D01*
X191731790Y-102540426D01*
X191731786Y-102540424D01*
X191731784Y-102540423D01*
X191579057Y-102499500D01*
X191420943Y-102499500D01*
X191268216Y-102540423D01*
X191268209Y-102540426D01*
X191131290Y-102619475D01*
X191131282Y-102619481D01*
X191019481Y-102731282D01*
X191019475Y-102731290D01*
X190940426Y-102868209D01*
X190940423Y-102868216D01*
X190899500Y-103020943D01*
X190899500Y-103179057D01*
X190937127Y-103319481D01*
X190940423Y-103331783D01*
X190940426Y-103331790D01*
X191019475Y-103468709D01*
X191019479Y-103468714D01*
X191019480Y-103468716D01*
X191131284Y-103580520D01*
X191131286Y-103580521D01*
X191131290Y-103580524D01*
X191153733Y-103593481D01*
X191268216Y-103659577D01*
X191420943Y-103700500D01*
X191420945Y-103700500D01*
X191587185Y-103700500D01*
X191587185Y-103703683D01*
X191641398Y-103712102D01*
X191676302Y-103736629D01*
X193611181Y-105671508D01*
X193644666Y-105732831D01*
X193647500Y-105759189D01*
X193647500Y-107698902D01*
X193627815Y-107765941D01*
X193575011Y-107811696D01*
X193505853Y-107821640D01*
X193442297Y-107792615D01*
X193435819Y-107786583D01*
X193368717Y-107719481D01*
X193368709Y-107719475D01*
X193231790Y-107640426D01*
X193231786Y-107640424D01*
X193231784Y-107640423D01*
X193079057Y-107599500D01*
X192920943Y-107599500D01*
X192768216Y-107640423D01*
X192768209Y-107640426D01*
X192631290Y-107719475D01*
X192631282Y-107719481D01*
X192519481Y-107831282D01*
X192519475Y-107831290D01*
X192440426Y-107968209D01*
X192440423Y-107968216D01*
X192399500Y-108120943D01*
X192399500Y-108279057D01*
X192405246Y-108300499D01*
X192440423Y-108431783D01*
X192440426Y-108431790D01*
X192519475Y-108568709D01*
X192519479Y-108568714D01*
X192519480Y-108568716D01*
X192631284Y-108680520D01*
X192631286Y-108680521D01*
X192631290Y-108680524D01*
X192666926Y-108701098D01*
X192768216Y-108759577D01*
X192920943Y-108800500D01*
X192920945Y-108800500D01*
X193079055Y-108800500D01*
X193079057Y-108800500D01*
X193231784Y-108759577D01*
X193368716Y-108680520D01*
X193435819Y-108613417D01*
X193497142Y-108579932D01*
X193566834Y-108584916D01*
X193622767Y-108626788D01*
X193647184Y-108692252D01*
X193647500Y-108701098D01*
X193647500Y-112440811D01*
X193627815Y-112507850D01*
X193611181Y-112528492D01*
X192701492Y-113438181D01*
X192640169Y-113471666D01*
X192613811Y-113474500D01*
X188811089Y-113474500D01*
X188749090Y-113457887D01*
X188718846Y-113440425D01*
X188718840Y-113440423D01*
X188566113Y-113399500D01*
X188407999Y-113399500D01*
X188255272Y-113440423D01*
X188255265Y-113440426D01*
X188118346Y-113519475D01*
X188118338Y-113519481D01*
X188006537Y-113631282D01*
X188006531Y-113631290D01*
X187927482Y-113768209D01*
X187927479Y-113768216D01*
X187886556Y-113920943D01*
X187886556Y-114079057D01*
X187923627Y-114217406D01*
X187927479Y-114231783D01*
X187927482Y-114231790D01*
X188006531Y-114368709D01*
X188006535Y-114368714D01*
X188006536Y-114368716D01*
X188118340Y-114480520D01*
X188118342Y-114480521D01*
X188118346Y-114480524D01*
X188201860Y-114528740D01*
X188255272Y-114559577D01*
X188407999Y-114600500D01*
X188408001Y-114600500D01*
X188566111Y-114600500D01*
X188566113Y-114600500D01*
X188718840Y-114559577D01*
X188855772Y-114480520D01*
X188967576Y-114368716D01*
X189046633Y-114231784D01*
X189050486Y-114217404D01*
X189086850Y-114157746D01*
X189149697Y-114127217D01*
X189170260Y-114125500D01*
X192842851Y-114125500D01*
X192842853Y-114125500D01*
X192925639Y-114103318D01*
X192999862Y-114060465D01*
X193886819Y-113173506D01*
X193948142Y-113140022D01*
X194017833Y-113145006D01*
X194073767Y-113186878D01*
X194098184Y-113252342D01*
X194098500Y-113261188D01*
X194098500Y-115019279D01*
X194078815Y-115086318D01*
X194062181Y-115106960D01*
X193512181Y-115656960D01*
X193450858Y-115690445D01*
X193381166Y-115685461D01*
X193325233Y-115643589D01*
X193300816Y-115578125D01*
X193300500Y-115569279D01*
X193300500Y-115420945D01*
X193300500Y-115420943D01*
X193259577Y-115268216D01*
X193257935Y-115265372D01*
X193180524Y-115131290D01*
X193180518Y-115131282D01*
X193068717Y-115019481D01*
X193068709Y-115019475D01*
X192931790Y-114940426D01*
X192931786Y-114940424D01*
X192931784Y-114940423D01*
X192779057Y-114899500D01*
X192620943Y-114899500D01*
X192468216Y-114940423D01*
X192468209Y-114940426D01*
X192331290Y-115019475D01*
X192331282Y-115019481D01*
X192219479Y-115131284D01*
X192215892Y-115137499D01*
X192165325Y-115185715D01*
X192108504Y-115199500D01*
X187181556Y-115199500D01*
X187114517Y-115179815D01*
X187068762Y-115127011D01*
X187057556Y-115075500D01*
X187057555Y-114687161D01*
X187057555Y-114687156D01*
X187051028Y-114637569D01*
X187000280Y-114528740D01*
X186915372Y-114443832D01*
X186806543Y-114393084D01*
X186806541Y-114393083D01*
X186806542Y-114393083D01*
X186756958Y-114386556D01*
X186397158Y-114386556D01*
X186388802Y-114387656D01*
X186387515Y-114387825D01*
X186318481Y-114377057D01*
X186273020Y-114336704D01*
X186271555Y-114337841D01*
X186266770Y-114331672D01*
X186152439Y-114217341D01*
X186152430Y-114217334D01*
X186013249Y-114135023D01*
X186013246Y-114135021D01*
X185867057Y-114092549D01*
X185867056Y-114092550D01*
X185867056Y-114773056D01*
X185847371Y-114840095D01*
X185794567Y-114885850D01*
X185743056Y-114897056D01*
X185617056Y-114897056D01*
X185617056Y-115023056D01*
X185597371Y-115090095D01*
X185544567Y-115135850D01*
X185493056Y-115147056D01*
X184838266Y-115147056D01*
X184839910Y-115167966D01*
X184885024Y-115323251D01*
X184967334Y-115462430D01*
X184967341Y-115462439D01*
X185081676Y-115576774D01*
X185084173Y-115578711D01*
X185085628Y-115580726D01*
X185087194Y-115582292D01*
X185086941Y-115582544D01*
X185125081Y-115635353D01*
X185128871Y-115705120D01*
X185125535Y-115714741D01*
X185125643Y-115714773D01*
X185122987Y-115723883D01*
X185116556Y-115772739D01*
X185116556Y-116221372D01*
X185122987Y-116270227D01*
X185172991Y-116377460D01*
X185250237Y-116454706D01*
X185264940Y-116481633D01*
X185281533Y-116507452D01*
X185282424Y-116513652D01*
X185283722Y-116516029D01*
X185286556Y-116542387D01*
X185286556Y-116767556D01*
X185266871Y-116834595D01*
X185214067Y-116880350D01*
X185162556Y-116891556D01*
X184763795Y-116891556D01*
X184695664Y-116901482D01*
X184590570Y-116952859D01*
X184507859Y-117035570D01*
X184456482Y-117140664D01*
X184446556Y-117208795D01*
X184446556Y-117575316D01*
X184456482Y-117643447D01*
X184456483Y-117643449D01*
X184507858Y-117748539D01*
X184507859Y-117748540D01*
X184507860Y-117748542D01*
X184513829Y-117756903D01*
X184512714Y-117757698D01*
X184541026Y-117809546D01*
X184536042Y-117879238D01*
X184494170Y-117935171D01*
X184482982Y-117942636D01*
X184395500Y-117994373D01*
X184395494Y-117994377D01*
X184279377Y-118110494D01*
X184279370Y-118110503D01*
X184195774Y-118251857D01*
X184149955Y-118409569D01*
X184149760Y-118412054D01*
X184149761Y-118412056D01*
X187094351Y-118412056D01*
X187094351Y-118412054D01*
X187094156Y-118409569D01*
X187048337Y-118251857D01*
X186964741Y-118110503D01*
X186964734Y-118110494D01*
X186848617Y-117994377D01*
X186848608Y-117994370D01*
X186761130Y-117942636D01*
X186713446Y-117891567D01*
X186700943Y-117822825D01*
X186727588Y-117758236D01*
X186736130Y-117748712D01*
X186736251Y-117748542D01*
X186736254Y-117748539D01*
X186787629Y-117643449D01*
X186797556Y-117575316D01*
X186797556Y-117208796D01*
X186787629Y-117140663D01*
X186736254Y-117035573D01*
X186736252Y-117035571D01*
X186736252Y-117035570D01*
X186653541Y-116952859D01*
X186548447Y-116901482D01*
X186480317Y-116891556D01*
X186480316Y-116891556D01*
X186011556Y-116891556D01*
X186002870Y-116889005D01*
X185993909Y-116890294D01*
X185969868Y-116879315D01*
X185944517Y-116871871D01*
X185938589Y-116865030D01*
X185930353Y-116861269D01*
X185916063Y-116839034D01*
X185898762Y-116819067D01*
X185896474Y-116808552D01*
X185892579Y-116802491D01*
X185887556Y-116767556D01*
X185887556Y-116542387D01*
X185907241Y-116475348D01*
X185923875Y-116454706D01*
X186008792Y-116369789D01*
X186011620Y-116372617D01*
X186050033Y-116341899D01*
X186119530Y-116334691D01*
X186181891Y-116366199D01*
X186185149Y-116369959D01*
X186185320Y-116369789D01*
X186192991Y-116377460D01*
X186276652Y-116461121D01*
X186383883Y-116511124D01*
X186432739Y-116517556D01*
X186432740Y-116517556D01*
X186781373Y-116517556D01*
X186811026Y-116513652D01*
X186830229Y-116511124D01*
X186937460Y-116461121D01*
X187021121Y-116377460D01*
X187071124Y-116270229D01*
X187077556Y-116221372D01*
X187077556Y-115924500D01*
X187097241Y-115857461D01*
X187150045Y-115811706D01*
X187201556Y-115800500D01*
X192108504Y-115800500D01*
X192175543Y-115820185D01*
X192215891Y-115862500D01*
X192219480Y-115868716D01*
X192331284Y-115980520D01*
X192331286Y-115980521D01*
X192331290Y-115980524D01*
X192449059Y-116048517D01*
X192468216Y-116059577D01*
X192620943Y-116100500D01*
X192620945Y-116100500D01*
X192769279Y-116100500D01*
X192836318Y-116120185D01*
X192882073Y-116172989D01*
X192892017Y-116242147D01*
X192862992Y-116305703D01*
X192856960Y-116312181D01*
X192113904Y-117055237D01*
X192086976Y-117069940D01*
X192061158Y-117086533D01*
X192054957Y-117087424D01*
X192052581Y-117088722D01*
X192026223Y-117091556D01*
X191790053Y-117091556D01*
X191723014Y-117071871D01*
X191689133Y-117039606D01*
X191686250Y-117035568D01*
X191603541Y-116952859D01*
X191498447Y-116901482D01*
X191430317Y-116891556D01*
X191430316Y-116891556D01*
X189713796Y-116891556D01*
X189713795Y-116891556D01*
X189645664Y-116901482D01*
X189540570Y-116952859D01*
X189457859Y-117035570D01*
X189406482Y-117140664D01*
X189396556Y-117208795D01*
X189396556Y-117575316D01*
X189406482Y-117643447D01*
X189457859Y-117748541D01*
X189540570Y-117831252D01*
X189540571Y-117831252D01*
X189540573Y-117831254D01*
X189645663Y-117882629D01*
X189679729Y-117887592D01*
X189713795Y-117892556D01*
X189713796Y-117892556D01*
X191430317Y-117892556D01*
X191453027Y-117889247D01*
X191498449Y-117882629D01*
X191603539Y-117831254D01*
X191603541Y-117831251D01*
X191603543Y-117831251D01*
X191607082Y-117828725D01*
X191612717Y-117826766D01*
X191612770Y-117826741D01*
X191612773Y-117826747D01*
X191630766Y-117820494D01*
X191652777Y-117808476D01*
X191663204Y-117809221D01*
X191673080Y-117805790D01*
X191697456Y-117811671D01*
X191722469Y-117813460D01*
X191730838Y-117819725D01*
X191741000Y-117822177D01*
X191758327Y-117840303D01*
X191778402Y-117855332D01*
X191782055Y-117865127D01*
X191789279Y-117872684D01*
X191794055Y-117897300D01*
X191802819Y-117920796D01*
X191800596Y-117931011D01*
X191802588Y-117941274D01*
X191793297Y-117964564D01*
X191787967Y-117989069D01*
X191778454Y-118001776D01*
X191776701Y-118006172D01*
X191766820Y-118017318D01*
X191700433Y-118083706D01*
X191637759Y-118146380D01*
X191576436Y-118179864D01*
X191506744Y-118174880D01*
X191499838Y-118171912D01*
X191498444Y-118171481D01*
X191430317Y-118161556D01*
X191430316Y-118161556D01*
X189713796Y-118161556D01*
X189713795Y-118161556D01*
X189645664Y-118171482D01*
X189540570Y-118222859D01*
X189457859Y-118305570D01*
X189406482Y-118410664D01*
X189396556Y-118478795D01*
X189396556Y-118845316D01*
X189406482Y-118913447D01*
X189457859Y-119018541D01*
X189540570Y-119101252D01*
X189540571Y-119101252D01*
X189540573Y-119101254D01*
X189645663Y-119152629D01*
X189679729Y-119157592D01*
X189713795Y-119162556D01*
X189713796Y-119162556D01*
X191430317Y-119162556D01*
X191453027Y-119159247D01*
X191498449Y-119152629D01*
X191603539Y-119101254D01*
X191686254Y-119018539D01*
X191686255Y-119018538D01*
X191741860Y-118904797D01*
X191743704Y-118905698D01*
X191766953Y-118867127D01*
X191787515Y-118846567D01*
X192737516Y-117896566D01*
X192749844Y-117875211D01*
X192769546Y-117849535D01*
X195040460Y-115578623D01*
X195080022Y-115510100D01*
X195100500Y-115433674D01*
X195100500Y-115354550D01*
X195100500Y-114797056D01*
X202219825Y-114797056D01*
X203267910Y-114797056D01*
X203229426Y-114863713D01*
X203197056Y-114984521D01*
X203197056Y-115109591D01*
X203229426Y-115230399D01*
X203267910Y-115297056D01*
X202219825Y-115297056D01*
X202230298Y-115363182D01*
X202230298Y-115363185D01*
X202295960Y-115565273D01*
X202392435Y-115754613D01*
X202517328Y-115926515D01*
X202517332Y-115926520D01*
X202667591Y-116076779D01*
X202667596Y-116076783D01*
X202839498Y-116201676D01*
X203028838Y-116298151D01*
X203150911Y-116337815D01*
X203208586Y-116377252D01*
X203235785Y-116441611D01*
X203223871Y-116510457D01*
X203176626Y-116561933D01*
X203160046Y-116570307D01*
X203049460Y-116616113D01*
X202877398Y-116731080D01*
X202731080Y-116877398D01*
X202616114Y-117049459D01*
X202536926Y-117240635D01*
X202536924Y-117240643D01*
X202496556Y-117443586D01*
X202496556Y-117650525D01*
X202536924Y-117853468D01*
X202536926Y-117853476D01*
X202612538Y-118036020D01*
X202616115Y-118044654D01*
X202634370Y-118071975D01*
X202731080Y-118216713D01*
X202877398Y-118363031D01*
X202877401Y-118363033D01*
X203049458Y-118477997D01*
X203240636Y-118557186D01*
X203438745Y-118596592D01*
X203443586Y-118597555D01*
X203443590Y-118597556D01*
X203443591Y-118597556D01*
X203900522Y-118597556D01*
X203900523Y-118597555D01*
X204103476Y-118557186D01*
X204294654Y-118477997D01*
X204466711Y-118363033D01*
X204613033Y-118216711D01*
X204727997Y-118044654D01*
X204807186Y-117853476D01*
X204847556Y-117650521D01*
X204847556Y-117443591D01*
X204807186Y-117240636D01*
X204727997Y-117049458D01*
X204613033Y-116877401D01*
X204613031Y-116877398D01*
X204466713Y-116731080D01*
X204294652Y-116616113D01*
X204184065Y-116570307D01*
X204129662Y-116526466D01*
X204107597Y-116460172D01*
X204124876Y-116392472D01*
X204176014Y-116344862D01*
X204193200Y-116337815D01*
X204315273Y-116298151D01*
X204504613Y-116201676D01*
X204676515Y-116076783D01*
X204676520Y-116076779D01*
X204826779Y-115926520D01*
X204826783Y-115926515D01*
X204951676Y-115754613D01*
X205048151Y-115565273D01*
X205113813Y-115363185D01*
X205113813Y-115363182D01*
X205124287Y-115297056D01*
X204076202Y-115297056D01*
X204114686Y-115230399D01*
X204147056Y-115109591D01*
X204147056Y-114984521D01*
X204114686Y-114863713D01*
X204076202Y-114797056D01*
X205124287Y-114797056D01*
X205113813Y-114730929D01*
X205113813Y-114730926D01*
X205048151Y-114528838D01*
X204951676Y-114339498D01*
X204826783Y-114167596D01*
X204826779Y-114167591D01*
X204676520Y-114017332D01*
X204676515Y-114017328D01*
X204504613Y-113892435D01*
X204315273Y-113795960D01*
X204113184Y-113730298D01*
X203922056Y-113700025D01*
X203922056Y-114642910D01*
X203855399Y-114604426D01*
X203734591Y-114572056D01*
X203609521Y-114572056D01*
X203488713Y-114604426D01*
X203422056Y-114642910D01*
X203422056Y-113700025D01*
X203230928Y-113730298D01*
X203230925Y-113730298D01*
X203028838Y-113795960D01*
X202839498Y-113892435D01*
X202667596Y-114017328D01*
X202667591Y-114017332D01*
X202517332Y-114167591D01*
X202517328Y-114167596D01*
X202392435Y-114339498D01*
X202295960Y-114528838D01*
X202230298Y-114730926D01*
X202230298Y-114730929D01*
X202219825Y-114797056D01*
X195100500Y-114797056D01*
X195100500Y-106175685D01*
X195120185Y-106108646D01*
X195172989Y-106062891D01*
X195242147Y-106052947D01*
X195260246Y-106057913D01*
X195260365Y-106057473D01*
X195268214Y-106059576D01*
X195268216Y-106059577D01*
X195420943Y-106100500D01*
X195420945Y-106100500D01*
X195579055Y-106100500D01*
X195579057Y-106100500D01*
X195731784Y-106059577D01*
X195868716Y-105980520D01*
X195980520Y-105868716D01*
X196059577Y-105731784D01*
X196100500Y-105579057D01*
X196100500Y-105420943D01*
X196059577Y-105268216D01*
X195983106Y-105135763D01*
X195980524Y-105131290D01*
X195980518Y-105131282D01*
X195868718Y-105019482D01*
X195868716Y-105019480D01*
X195868713Y-105019478D01*
X195868709Y-105019475D01*
X195862499Y-105015890D01*
X195854216Y-105007203D01*
X195843297Y-105002217D01*
X195830550Y-104982383D01*
X195814284Y-104965323D01*
X195811068Y-104952067D01*
X195805523Y-104943439D01*
X195800500Y-104908504D01*
X195800500Y-104849098D01*
X195820185Y-104782059D01*
X195872989Y-104736304D01*
X195942147Y-104726360D01*
X196005703Y-104755385D01*
X196012181Y-104761417D01*
X196031284Y-104780520D01*
X196031286Y-104780521D01*
X196031290Y-104780524D01*
X196168209Y-104859573D01*
X196168216Y-104859577D01*
X196320943Y-104900500D01*
X196320945Y-104900500D01*
X196479055Y-104900500D01*
X196479057Y-104900500D01*
X196631784Y-104859577D01*
X196768716Y-104780520D01*
X196880520Y-104668716D01*
X196946448Y-104554524D01*
X196959576Y-104531786D01*
X196959578Y-104531781D01*
X196975278Y-104473186D01*
X197007370Y-104417599D01*
X198604026Y-102820943D01*
X205299500Y-102820943D01*
X205299500Y-102979057D01*
X205310724Y-103020943D01*
X205340423Y-103131783D01*
X205340426Y-103131790D01*
X205419475Y-103268709D01*
X205419479Y-103268714D01*
X205419480Y-103268716D01*
X205531284Y-103380520D01*
X205531286Y-103380521D01*
X205531290Y-103380524D01*
X205619221Y-103431290D01*
X205668216Y-103459577D01*
X205820943Y-103500500D01*
X205820945Y-103500500D01*
X205979055Y-103500500D01*
X205979057Y-103500500D01*
X206131784Y-103459577D01*
X206268716Y-103380520D01*
X206380520Y-103268716D01*
X206459577Y-103131784D01*
X206500500Y-102979057D01*
X206500500Y-102820943D01*
X206459577Y-102668216D01*
X206400870Y-102566531D01*
X206380524Y-102531290D01*
X206380518Y-102531282D01*
X206268717Y-102419481D01*
X206268709Y-102419475D01*
X206131790Y-102340426D01*
X206131786Y-102340424D01*
X206131784Y-102340423D01*
X205979057Y-102299500D01*
X205820943Y-102299500D01*
X205668216Y-102340423D01*
X205668209Y-102340426D01*
X205531290Y-102419475D01*
X205531282Y-102419481D01*
X205419481Y-102531282D01*
X205419475Y-102531290D01*
X205340426Y-102668209D01*
X205340423Y-102668216D01*
X205299500Y-102820943D01*
X198604026Y-102820943D01*
X204894236Y-96530733D01*
X204955557Y-96497250D01*
X205014008Y-96498641D01*
X205020943Y-96500500D01*
X205020945Y-96500500D01*
X205179055Y-96500500D01*
X205179057Y-96500500D01*
X205331784Y-96459577D01*
X205468716Y-96380520D01*
X205580520Y-96268716D01*
X205659577Y-96131784D01*
X205700500Y-95979057D01*
X205700500Y-95820943D01*
X205659577Y-95668216D01*
X205620512Y-95600553D01*
X205580524Y-95531290D01*
X205580518Y-95531282D01*
X205468717Y-95419481D01*
X205468709Y-95419475D01*
X205331790Y-95340426D01*
X205331786Y-95340424D01*
X205331784Y-95340423D01*
X205179057Y-95299500D01*
X205020943Y-95299500D01*
X204868216Y-95340423D01*
X204868209Y-95340426D01*
X204731290Y-95419475D01*
X204731282Y-95419481D01*
X204619481Y-95531282D01*
X204619475Y-95531290D01*
X204540426Y-95668209D01*
X204540423Y-95668216D01*
X204499500Y-95820943D01*
X204499500Y-95979057D01*
X204501358Y-95985992D01*
X204499693Y-96055842D01*
X204469263Y-96105764D01*
X196827647Y-103747380D01*
X196766324Y-103780865D01*
X196696632Y-103775881D01*
X196677966Y-103767086D01*
X196631786Y-103740424D01*
X196631785Y-103740423D01*
X196631784Y-103740423D01*
X196479057Y-103699500D01*
X196320943Y-103699500D01*
X196168216Y-103740423D01*
X196168209Y-103740426D01*
X196031290Y-103819475D01*
X196031282Y-103819481D01*
X196012181Y-103838583D01*
X195950858Y-103872068D01*
X195881166Y-103867084D01*
X195825233Y-103825212D01*
X195800816Y-103759748D01*
X195800500Y-103750902D01*
X195800500Y-103067197D01*
X195820185Y-103000158D01*
X195836819Y-102979516D01*
X198120895Y-100695440D01*
X200440460Y-98375875D01*
X200480022Y-98307352D01*
X200500500Y-98230926D01*
X200500500Y-98151802D01*
X200500500Y-95891496D01*
X200520185Y-95824457D01*
X200562501Y-95784108D01*
X200568716Y-95780520D01*
X200680520Y-95668716D01*
X200759577Y-95531784D01*
X200800500Y-95379057D01*
X200800500Y-95220943D01*
X200759577Y-95068216D01*
X200731437Y-95019475D01*
X200680524Y-94931290D01*
X200680518Y-94931282D01*
X200568717Y-94819481D01*
X200568709Y-94819475D01*
X200431790Y-94740426D01*
X200431786Y-94740424D01*
X200431784Y-94740423D01*
X200279057Y-94699500D01*
X200120943Y-94699500D01*
X199968216Y-94740423D01*
X199968209Y-94740426D01*
X199831290Y-94819475D01*
X199831282Y-94819481D01*
X199719481Y-94931282D01*
X199719475Y-94931290D01*
X199640426Y-95068209D01*
X199640423Y-95068216D01*
X199599500Y-95220943D01*
X199599500Y-95379057D01*
X199640289Y-95531282D01*
X199640423Y-95531783D01*
X199640426Y-95531790D01*
X199719475Y-95668709D01*
X199719481Y-95668717D01*
X199831284Y-95780520D01*
X199837499Y-95784108D01*
X199885715Y-95834675D01*
X199899500Y-95891496D01*
X199899500Y-98015531D01*
X199879815Y-98082570D01*
X199863181Y-98103212D01*
X198260685Y-99705707D01*
X198199362Y-99739192D01*
X198129670Y-99734208D01*
X198073737Y-99692336D01*
X198063918Y-99675093D01*
X198063641Y-99675254D01*
X197980524Y-99531290D01*
X197980518Y-99531282D01*
X197868718Y-99419482D01*
X197868716Y-99419480D01*
X197868713Y-99419478D01*
X197868709Y-99419475D01*
X197862499Y-99415890D01*
X197854216Y-99407203D01*
X197843297Y-99402217D01*
X197830550Y-99382383D01*
X197814284Y-99365323D01*
X197811068Y-99352067D01*
X197805523Y-99343439D01*
X197800500Y-99308504D01*
X197800500Y-99275833D01*
X197820185Y-99208794D01*
X197836819Y-99188152D01*
X198540456Y-98484515D01*
X198540460Y-98484511D01*
X198548038Y-98471385D01*
X198580021Y-98415989D01*
X198600500Y-98339562D01*
X198600500Y-97260438D01*
X198580021Y-97184011D01*
X198567418Y-97162181D01*
X198540464Y-97115495D01*
X198540458Y-97115487D01*
X197884512Y-96459541D01*
X197884504Y-96459535D01*
X197815995Y-96419982D01*
X197815990Y-96419979D01*
X197790513Y-96413152D01*
X197739562Y-96399500D01*
X196439562Y-96399500D01*
X196360438Y-96399500D01*
X196284010Y-96419978D01*
X196215489Y-96459540D01*
X196215486Y-96459542D01*
X195512848Y-97162181D01*
X195451525Y-97195666D01*
X195425167Y-97198500D01*
X187374833Y-97198500D01*
X187307794Y-97178815D01*
X187287152Y-97162181D01*
X186066009Y-95941038D01*
X191271556Y-95941038D01*
X191271556Y-96053074D01*
X191300553Y-96161293D01*
X191356571Y-96258319D01*
X191435793Y-96337541D01*
X191532819Y-96393559D01*
X191641038Y-96422556D01*
X191641040Y-96422556D01*
X191753072Y-96422556D01*
X191753074Y-96422556D01*
X191861293Y-96393559D01*
X191958319Y-96337541D01*
X192037541Y-96258319D01*
X192093559Y-96161293D01*
X192122556Y-96053074D01*
X192122556Y-95941038D01*
X192093559Y-95832819D01*
X192037541Y-95735793D01*
X191958319Y-95656571D01*
X191861293Y-95600553D01*
X191753074Y-95571556D01*
X191641038Y-95571556D01*
X191532819Y-95600553D01*
X191532816Y-95600554D01*
X191435796Y-95656569D01*
X191435790Y-95656573D01*
X191356573Y-95735790D01*
X191356569Y-95735796D01*
X191300554Y-95832816D01*
X191300553Y-95832819D01*
X191271556Y-95941038D01*
X186066009Y-95941038D01*
X185830735Y-95705764D01*
X185797250Y-95644441D01*
X185798642Y-95585987D01*
X185800500Y-95579057D01*
X185800500Y-95420943D01*
X185759577Y-95268216D01*
X185759573Y-95268209D01*
X185680524Y-95131290D01*
X185680518Y-95131282D01*
X185568717Y-95019481D01*
X185568709Y-95019475D01*
X185431790Y-94940426D01*
X185431786Y-94940424D01*
X185431784Y-94940423D01*
X185279057Y-94899500D01*
X185120943Y-94899500D01*
X184968216Y-94940423D01*
X184968209Y-94940426D01*
X184831290Y-95019475D01*
X184831282Y-95019481D01*
X184719481Y-95131282D01*
X184719475Y-95131290D01*
X184640426Y-95268209D01*
X184640423Y-95268216D01*
X184599500Y-95420943D01*
X184599500Y-95579057D01*
X184623525Y-95668717D01*
X184640423Y-95731783D01*
X184640426Y-95731790D01*
X184719475Y-95868709D01*
X184719479Y-95868714D01*
X184719480Y-95868716D01*
X184831284Y-95980520D01*
X184831286Y-95980521D01*
X184831290Y-95980524D01*
X184956952Y-96053074D01*
X184968216Y-96059577D01*
X185120943Y-96100500D01*
X185120945Y-96100500D01*
X185279054Y-96100500D01*
X185279057Y-96100500D01*
X185285987Y-96098643D01*
X185355833Y-96100302D01*
X185405764Y-96130735D01*
X186662848Y-97387819D01*
X186696333Y-97449142D01*
X186691349Y-97518834D01*
X186649477Y-97574767D01*
X186584013Y-97599184D01*
X186575167Y-97599500D01*
X178560438Y-97599500D01*
X178484010Y-97619978D01*
X178415489Y-97659540D01*
X178415486Y-97659542D01*
X177205764Y-98869263D01*
X177144441Y-98902748D01*
X177085992Y-98901358D01*
X177079057Y-98899500D01*
X176920943Y-98899500D01*
X176768216Y-98940423D01*
X176768209Y-98940426D01*
X176631290Y-99019475D01*
X176631282Y-99019481D01*
X176519481Y-99131282D01*
X176519475Y-99131290D01*
X176440426Y-99268209D01*
X176440423Y-99268216D01*
X176399500Y-99420943D01*
X140000500Y-99420943D01*
X140000500Y-95641038D01*
X177071556Y-95641038D01*
X177071556Y-95753074D01*
X177100553Y-95861293D01*
X177156571Y-95958319D01*
X177235793Y-96037541D01*
X177332819Y-96093559D01*
X177441038Y-96122556D01*
X177441040Y-96122556D01*
X177553072Y-96122556D01*
X177553074Y-96122556D01*
X177661293Y-96093559D01*
X177758319Y-96037541D01*
X177837541Y-95958319D01*
X177893559Y-95861293D01*
X177922556Y-95753074D01*
X177922556Y-95641038D01*
X177893559Y-95532819D01*
X177837541Y-95435793D01*
X177758319Y-95356571D01*
X177661293Y-95300553D01*
X177553074Y-95271556D01*
X177441038Y-95271556D01*
X177332819Y-95300553D01*
X177332816Y-95300554D01*
X177235796Y-95356569D01*
X177235790Y-95356573D01*
X177156573Y-95435790D01*
X177156569Y-95435796D01*
X177100554Y-95532816D01*
X177100553Y-95532819D01*
X177071556Y-95641038D01*
X140000500Y-95641038D01*
X140000500Y-92741038D01*
X180371556Y-92741038D01*
X180371556Y-92853074D01*
X180400553Y-92961293D01*
X180456571Y-93058319D01*
X180535793Y-93137541D01*
X180632819Y-93193559D01*
X180741038Y-93222556D01*
X180741040Y-93222556D01*
X180853072Y-93222556D01*
X180853074Y-93222556D01*
X180961293Y-93193559D01*
X181058319Y-93137541D01*
X181137541Y-93058319D01*
X181193559Y-92961293D01*
X181222556Y-92853074D01*
X181222556Y-92741038D01*
X181193559Y-92632819D01*
X181137541Y-92535793D01*
X181058319Y-92456571D01*
X180961293Y-92400553D01*
X180853074Y-92371556D01*
X180741038Y-92371556D01*
X180632819Y-92400553D01*
X180632816Y-92400554D01*
X180535796Y-92456569D01*
X180535790Y-92456573D01*
X180456573Y-92535790D01*
X180456569Y-92535796D01*
X180400554Y-92632816D01*
X180400553Y-92632819D01*
X180371556Y-92741038D01*
X140000500Y-92741038D01*
X140000500Y-92168995D01*
X181499499Y-92168995D01*
X181526418Y-92304322D01*
X181526421Y-92304332D01*
X181579221Y-92431804D01*
X181579228Y-92431817D01*
X181655885Y-92546541D01*
X181655888Y-92546545D01*
X181753454Y-92644111D01*
X181753458Y-92644114D01*
X181868182Y-92720771D01*
X181868195Y-92720778D01*
X181995667Y-92773578D01*
X181995672Y-92773580D01*
X181995676Y-92773580D01*
X181995677Y-92773581D01*
X182131004Y-92800500D01*
X182131007Y-92800500D01*
X182268995Y-92800500D01*
X182360041Y-92782389D01*
X182404328Y-92773580D01*
X182531811Y-92720775D01*
X182646542Y-92644114D01*
X182744114Y-92546542D01*
X182820775Y-92431811D01*
X182873580Y-92304328D01*
X182900500Y-92168993D01*
X182900500Y-92031007D01*
X182900500Y-92031004D01*
X182873581Y-91895677D01*
X182873580Y-91895676D01*
X182873580Y-91895672D01*
X182873578Y-91895667D01*
X182820778Y-91768195D01*
X182820771Y-91768182D01*
X182744114Y-91653458D01*
X182744111Y-91653454D01*
X182646545Y-91555888D01*
X182646541Y-91555885D01*
X182531817Y-91479228D01*
X182531804Y-91479221D01*
X182404332Y-91426421D01*
X182404322Y-91426418D01*
X182268995Y-91399500D01*
X182268993Y-91399500D01*
X182131007Y-91399500D01*
X182131005Y-91399500D01*
X181995677Y-91426418D01*
X181995667Y-91426421D01*
X181868195Y-91479221D01*
X181868182Y-91479228D01*
X181753458Y-91555885D01*
X181753454Y-91555888D01*
X181655888Y-91653454D01*
X181655885Y-91653458D01*
X181579228Y-91768182D01*
X181579221Y-91768195D01*
X181526421Y-91895667D01*
X181526418Y-91895677D01*
X181499500Y-92031004D01*
X181499500Y-92031007D01*
X181499500Y-92168993D01*
X181499500Y-92168995D01*
X181499499Y-92168995D01*
X140000500Y-92168995D01*
X140000500Y-85002561D01*
X140000606Y-84997437D01*
X140008018Y-84818234D01*
X141300000Y-84818234D01*
X141300000Y-85181765D01*
X141335632Y-85543556D01*
X141406550Y-85900090D01*
X141406553Y-85900101D01*
X141512086Y-86247997D01*
X141651207Y-86583864D01*
X141651209Y-86583869D01*
X141822570Y-86904462D01*
X141822581Y-86904480D01*
X142024551Y-87206750D01*
X142211678Y-87434765D01*
X142211679Y-87434766D01*
X143705747Y-85940697D01*
X143779588Y-86042330D01*
X143957670Y-86220412D01*
X144059301Y-86294251D01*
X142565232Y-87788319D01*
X142565233Y-87788320D01*
X142793249Y-87975448D01*
X143095519Y-88177418D01*
X143095537Y-88177429D01*
X143416130Y-88348790D01*
X143416135Y-88348792D01*
X143752002Y-88487913D01*
X144099898Y-88593446D01*
X144099909Y-88593449D01*
X144456443Y-88664367D01*
X144818234Y-88700000D01*
X145181766Y-88700000D01*
X145543556Y-88664367D01*
X145900090Y-88593449D01*
X145900101Y-88593446D01*
X146247997Y-88487913D01*
X146583864Y-88348792D01*
X146583869Y-88348790D01*
X146904462Y-88177429D01*
X146904480Y-88177418D01*
X147206736Y-87975457D01*
X147206750Y-87975447D01*
X147434765Y-87788320D01*
X147434766Y-87788319D01*
X145940698Y-86294251D01*
X146042330Y-86220412D01*
X146220412Y-86042330D01*
X146294251Y-85940698D01*
X147788319Y-87434766D01*
X147788320Y-87434765D01*
X147975447Y-87206750D01*
X147975457Y-87206736D01*
X148177418Y-86904480D01*
X148177429Y-86904462D01*
X148348790Y-86583869D01*
X148348792Y-86583864D01*
X148487913Y-86247997D01*
X148593446Y-85900101D01*
X148593449Y-85900090D01*
X148664282Y-85543982D01*
X165274500Y-85543982D01*
X165274500Y-85656018D01*
X165303497Y-85764237D01*
X165359515Y-85861263D01*
X165438737Y-85940485D01*
X165535763Y-85996503D01*
X165643982Y-86025500D01*
X165643984Y-86025500D01*
X165756016Y-86025500D01*
X165756018Y-86025500D01*
X165864237Y-85996503D01*
X165961263Y-85940485D01*
X165980710Y-85921038D01*
X177201556Y-85921038D01*
X177201556Y-86033074D01*
X177230553Y-86141293D01*
X177286571Y-86238319D01*
X177365793Y-86317541D01*
X177462819Y-86373559D01*
X177571038Y-86402556D01*
X177571040Y-86402556D01*
X177683072Y-86402556D01*
X177683074Y-86402556D01*
X177791293Y-86373559D01*
X177888319Y-86317541D01*
X177967541Y-86238319D01*
X178023559Y-86141293D01*
X178052556Y-86033074D01*
X178052556Y-85921038D01*
X178023559Y-85812819D01*
X177967541Y-85715793D01*
X177888319Y-85636571D01*
X177791293Y-85580553D01*
X177683074Y-85551556D01*
X177571038Y-85551556D01*
X177462819Y-85580553D01*
X177462816Y-85580554D01*
X177365796Y-85636569D01*
X177365790Y-85636573D01*
X177286573Y-85715790D01*
X177286569Y-85715796D01*
X177230554Y-85812816D01*
X177230553Y-85812819D01*
X177201556Y-85921038D01*
X165980710Y-85921038D01*
X166040485Y-85861263D01*
X166040826Y-85860670D01*
X166046463Y-85850910D01*
X166079574Y-85793559D01*
X166096503Y-85764237D01*
X166125500Y-85656018D01*
X166125500Y-85543982D01*
X166096503Y-85435763D01*
X166041813Y-85341038D01*
X188671556Y-85341038D01*
X188671556Y-85453074D01*
X188700553Y-85561293D01*
X188756571Y-85658319D01*
X188835793Y-85737541D01*
X188932819Y-85793559D01*
X189041038Y-85822556D01*
X189041040Y-85822556D01*
X189153072Y-85822556D01*
X189153074Y-85822556D01*
X189261293Y-85793559D01*
X189358319Y-85737541D01*
X189437541Y-85658319D01*
X189493559Y-85561293D01*
X189522556Y-85453074D01*
X189522556Y-85341038D01*
X189493559Y-85232819D01*
X189437541Y-85135793D01*
X189358319Y-85056571D01*
X189261293Y-85000553D01*
X189153074Y-84971556D01*
X189041038Y-84971556D01*
X188932819Y-85000553D01*
X188932816Y-85000554D01*
X188835796Y-85056569D01*
X188835790Y-85056573D01*
X188756573Y-85135790D01*
X188756569Y-85135796D01*
X188700554Y-85232816D01*
X188700553Y-85232819D01*
X188671556Y-85341038D01*
X166041813Y-85341038D01*
X166040485Y-85338737D01*
X165961263Y-85259515D01*
X165864237Y-85203497D01*
X165756018Y-85174500D01*
X165643982Y-85174500D01*
X165535763Y-85203497D01*
X165535760Y-85203498D01*
X165438740Y-85259513D01*
X165438734Y-85259517D01*
X165359517Y-85338734D01*
X165359513Y-85338740D01*
X165303498Y-85435760D01*
X165303497Y-85435763D01*
X165274500Y-85543982D01*
X148664282Y-85543982D01*
X148664367Y-85543556D01*
X148666323Y-85523701D01*
X148700000Y-85181765D01*
X148700000Y-84818234D01*
X201300000Y-84818234D01*
X201300000Y-85181765D01*
X201335632Y-85543556D01*
X201406550Y-85900090D01*
X201406553Y-85900101D01*
X201512086Y-86247997D01*
X201651207Y-86583864D01*
X201651209Y-86583869D01*
X201822570Y-86904462D01*
X201822581Y-86904480D01*
X202024551Y-87206750D01*
X202211678Y-87434765D01*
X202211679Y-87434766D01*
X203705747Y-85940697D01*
X203779588Y-86042330D01*
X203957670Y-86220412D01*
X204059301Y-86294251D01*
X202565232Y-87788319D01*
X202565233Y-87788320D01*
X202793249Y-87975448D01*
X203095519Y-88177418D01*
X203095537Y-88177429D01*
X203416130Y-88348790D01*
X203416135Y-88348792D01*
X203752002Y-88487913D01*
X204099898Y-88593446D01*
X204099909Y-88593449D01*
X204456443Y-88664367D01*
X204818234Y-88700000D01*
X205181766Y-88700000D01*
X205543556Y-88664367D01*
X205900090Y-88593449D01*
X205900101Y-88593446D01*
X206247997Y-88487913D01*
X206583864Y-88348792D01*
X206583869Y-88348790D01*
X206904462Y-88177429D01*
X206904480Y-88177418D01*
X207206736Y-87975457D01*
X207206750Y-87975447D01*
X207434765Y-87788320D01*
X207434766Y-87788319D01*
X205940698Y-86294251D01*
X206042330Y-86220412D01*
X206220412Y-86042330D01*
X206294251Y-85940698D01*
X207788319Y-87434766D01*
X207788320Y-87434765D01*
X207975447Y-87206750D01*
X207975457Y-87206736D01*
X208177418Y-86904480D01*
X208177429Y-86904462D01*
X208348790Y-86583869D01*
X208348792Y-86583864D01*
X208487913Y-86247997D01*
X208593446Y-85900101D01*
X208593449Y-85900090D01*
X208664367Y-85543556D01*
X208700000Y-85181765D01*
X208700000Y-84818234D01*
X208664367Y-84456443D01*
X208593449Y-84099909D01*
X208593446Y-84099898D01*
X208487913Y-83752002D01*
X208348792Y-83416135D01*
X208348790Y-83416130D01*
X208177429Y-83095537D01*
X208177418Y-83095519D01*
X207975448Y-82793249D01*
X207788320Y-82565233D01*
X207788319Y-82565232D01*
X206294251Y-84059300D01*
X206220412Y-83957670D01*
X206042330Y-83779588D01*
X205940698Y-83705748D01*
X207434766Y-82211679D01*
X207434765Y-82211678D01*
X207206750Y-82024551D01*
X206904480Y-81822581D01*
X206904462Y-81822570D01*
X206583869Y-81651209D01*
X206583864Y-81651207D01*
X206247997Y-81512086D01*
X205900101Y-81406553D01*
X205900090Y-81406550D01*
X205543556Y-81335632D01*
X205181766Y-81300000D01*
X204818234Y-81300000D01*
X204456443Y-81335632D01*
X204099909Y-81406550D01*
X204099898Y-81406553D01*
X203752002Y-81512086D01*
X203416135Y-81651207D01*
X203416130Y-81651209D01*
X203095537Y-81822570D01*
X203095519Y-81822581D01*
X202793258Y-82024545D01*
X202793254Y-82024548D01*
X202565233Y-82211679D01*
X202565233Y-82211680D01*
X204059301Y-83705748D01*
X203957670Y-83779588D01*
X203779588Y-83957670D01*
X203705748Y-84059301D01*
X202211680Y-82565233D01*
X202211679Y-82565233D01*
X202024548Y-82793254D01*
X202024545Y-82793258D01*
X201822581Y-83095519D01*
X201822570Y-83095537D01*
X201651209Y-83416130D01*
X201651207Y-83416135D01*
X201512086Y-83752002D01*
X201406553Y-84099898D01*
X201406550Y-84099909D01*
X201335632Y-84456443D01*
X201300000Y-84818234D01*
X148700000Y-84818234D01*
X148664367Y-84456443D01*
X148593449Y-84099909D01*
X148593446Y-84099898D01*
X148487913Y-83752002D01*
X148348792Y-83416135D01*
X148348790Y-83416130D01*
X148177429Y-83095537D01*
X148177418Y-83095519D01*
X147975448Y-82793249D01*
X147788320Y-82565233D01*
X147788319Y-82565232D01*
X146294251Y-84059300D01*
X146220412Y-83957670D01*
X146042330Y-83779588D01*
X145940698Y-83705748D01*
X147434766Y-82211679D01*
X147434765Y-82211678D01*
X147206750Y-82024551D01*
X146904480Y-81822581D01*
X146904462Y-81822570D01*
X146583869Y-81651209D01*
X146583864Y-81651207D01*
X146247997Y-81512086D01*
X145900101Y-81406553D01*
X145900090Y-81406550D01*
X145543556Y-81335632D01*
X145181766Y-81300000D01*
X144818234Y-81300000D01*
X144456443Y-81335632D01*
X144099909Y-81406550D01*
X144099898Y-81406553D01*
X143752002Y-81512086D01*
X143416135Y-81651207D01*
X143416130Y-81651209D01*
X143095537Y-81822570D01*
X143095519Y-81822581D01*
X142793258Y-82024545D01*
X142793254Y-82024548D01*
X142565233Y-82211679D01*
X142565233Y-82211680D01*
X144059301Y-83705748D01*
X143957670Y-83779588D01*
X143779588Y-83957670D01*
X143705748Y-84059301D01*
X142211680Y-82565233D01*
X142211679Y-82565233D01*
X142024548Y-82793254D01*
X142024545Y-82793258D01*
X141822581Y-83095519D01*
X141822570Y-83095537D01*
X141651209Y-83416130D01*
X141651207Y-83416135D01*
X141512086Y-83752002D01*
X141406553Y-84099898D01*
X141406550Y-84099909D01*
X141335632Y-84456443D01*
X141300000Y-84818234D01*
X140008018Y-84818234D01*
X140008356Y-84810063D01*
X140015123Y-84646446D01*
X140015816Y-84629708D01*
X140016177Y-84624098D01*
X140023531Y-84540031D01*
X140024003Y-84535582D01*
X140064218Y-84212959D01*
X140065138Y-84206842D01*
X140079003Y-84128210D01*
X140079732Y-84124428D01*
X140147553Y-83800974D01*
X140149123Y-83794394D01*
X140167614Y-83725385D01*
X140168500Y-83722251D01*
X140265389Y-83396810D01*
X140267685Y-83389862D01*
X140287331Y-83335886D01*
X140288276Y-83333380D01*
X140416976Y-83003551D01*
X140420079Y-82996292D01*
X140434634Y-82965080D01*
X140435415Y-82963445D01*
X140600823Y-82625097D01*
X140605683Y-82616116D01*
X140811973Y-82269918D01*
X140817568Y-82261356D01*
X141051728Y-81933394D01*
X141057996Y-81925342D01*
X141318443Y-81617832D01*
X141325362Y-81610316D01*
X141610316Y-81325362D01*
X141617832Y-81318443D01*
X141925342Y-81057996D01*
X141933394Y-81051728D01*
X142261372Y-80817556D01*
X142269918Y-80811973D01*
X142616116Y-80605683D01*
X142625097Y-80600823D01*
X142963445Y-80435415D01*
X142965080Y-80434634D01*
X142996292Y-80420079D01*
X143003551Y-80416976D01*
X143333380Y-80288276D01*
X143335886Y-80287331D01*
X143389862Y-80267685D01*
X143396810Y-80265389D01*
X143722251Y-80168500D01*
X143725385Y-80167614D01*
X143794394Y-80149123D01*
X143800974Y-80147553D01*
X144124428Y-80079732D01*
X144128210Y-80079003D01*
X144206842Y-80065138D01*
X144212959Y-80064218D01*
X144535582Y-80024003D01*
X144540031Y-80023531D01*
X144624098Y-80016177D01*
X144629716Y-80015815D01*
X144997437Y-80000605D01*
X145002561Y-80000500D01*
X204997433Y-80000500D01*
X205002544Y-80000604D01*
G37*
%TD.AperFunction*%
%TD*%
%TA.AperFunction,Conductor*%
%TO.N,+9V*%
G36*
X165743039Y-114819685D02*
G01*
X165788794Y-114872489D01*
X165800000Y-114924000D01*
X165800000Y-126876000D01*
X165780315Y-126943039D01*
X165727511Y-126988794D01*
X165676000Y-127000000D01*
X162524000Y-127000000D01*
X162456961Y-126980315D01*
X162411206Y-126927511D01*
X162400000Y-126876000D01*
X162400000Y-114924000D01*
X162419685Y-114856961D01*
X162472489Y-114811206D01*
X162524000Y-114800000D01*
X165676000Y-114800000D01*
X165743039Y-114819685D01*
G37*
%TD.AperFunction*%
%TD*%
%TA.AperFunction,Conductor*%
%TO.N,VBUS*%
G36*
X154842539Y-118819685D02*
G01*
X154888294Y-118872489D01*
X154899500Y-118924000D01*
X154899500Y-119969752D01*
X154911131Y-120028229D01*
X154911132Y-120028230D01*
X154955447Y-120094552D01*
X155021769Y-120138867D01*
X155021770Y-120138868D01*
X155080247Y-120150499D01*
X155080250Y-120150500D01*
X155080252Y-120150500D01*
X155519750Y-120150500D01*
X155519751Y-120150499D01*
X155534568Y-120147552D01*
X155578229Y-120138868D01*
X155578229Y-120138867D01*
X155578231Y-120138867D01*
X155644552Y-120094552D01*
X155688867Y-120028231D01*
X155688866Y-120028231D01*
X155695652Y-120018077D01*
X155698667Y-120020091D01*
X155729281Y-119982103D01*
X155795576Y-119960039D01*
X155863275Y-119977319D01*
X155902420Y-120019365D01*
X155904348Y-120018077D01*
X155955447Y-120094552D01*
X156021769Y-120138867D01*
X156021770Y-120138868D01*
X156080247Y-120150499D01*
X156080250Y-120150500D01*
X156080252Y-120150500D01*
X156519750Y-120150500D01*
X156519751Y-120150499D01*
X156534568Y-120147552D01*
X156578229Y-120138868D01*
X156578229Y-120138867D01*
X156578231Y-120138867D01*
X156644552Y-120094552D01*
X156688867Y-120028231D01*
X156688866Y-120028231D01*
X156695652Y-120018077D01*
X156698667Y-120020091D01*
X156729281Y-119982103D01*
X156795576Y-119960039D01*
X156863275Y-119977319D01*
X156902420Y-120019365D01*
X156904348Y-120018077D01*
X156955447Y-120094552D01*
X157021769Y-120138867D01*
X157021770Y-120138868D01*
X157080247Y-120150499D01*
X157080250Y-120150500D01*
X157080252Y-120150500D01*
X157519750Y-120150500D01*
X157519751Y-120150499D01*
X157534568Y-120147552D01*
X157578229Y-120138868D01*
X157578229Y-120138867D01*
X157578231Y-120138867D01*
X157644552Y-120094552D01*
X157688867Y-120028231D01*
X157688867Y-120028229D01*
X157688868Y-120028229D01*
X157700499Y-119969752D01*
X157700500Y-119969750D01*
X157700500Y-119430249D01*
X157700499Y-119430247D01*
X157688868Y-119371770D01*
X157688867Y-119371768D01*
X157644553Y-119305449D01*
X157636816Y-119297712D01*
X157603333Y-119236387D01*
X157600500Y-119210033D01*
X157600500Y-118924000D01*
X157620185Y-118856961D01*
X157672989Y-118811206D01*
X157724500Y-118800000D01*
X159776000Y-118800000D01*
X159843039Y-118819685D01*
X159888794Y-118872489D01*
X159900000Y-118924000D01*
X159900000Y-121276000D01*
X159880315Y-121343039D01*
X159827511Y-121388794D01*
X159776000Y-121400000D01*
X157674014Y-121400000D01*
X157606975Y-121380315D01*
X157605123Y-121379102D01*
X157578231Y-121361133D01*
X157578229Y-121361132D01*
X157578226Y-121361131D01*
X157519752Y-121349500D01*
X157519748Y-121349500D01*
X155980252Y-121349500D01*
X155980247Y-121349500D01*
X155921773Y-121361131D01*
X155921769Y-121361133D01*
X155894877Y-121379102D01*
X155828199Y-121399980D01*
X155825986Y-121400000D01*
X148800000Y-121400000D01*
X148800000Y-125376000D01*
X148780315Y-125443039D01*
X148727511Y-125488794D01*
X148676000Y-125500000D01*
X146724000Y-125500000D01*
X146656961Y-125480315D01*
X146611206Y-125427511D01*
X146600000Y-125376000D01*
X146600000Y-118924000D01*
X146619685Y-118856961D01*
X146672489Y-118811206D01*
X146724000Y-118800000D01*
X154775500Y-118800000D01*
X154842539Y-118819685D01*
G37*
%TD.AperFunction*%
%TD*%
M02*
