%TF.GenerationSoftware,KiCad,Pcbnew,9.0.0*%
%TF.CreationDate,2025-03-28T09:56:41+01:00*%
%TF.ProjectId,Inverter_KiCAD,496e7665-7274-4657-925f-4b694341442e,rev?*%
%TF.SameCoordinates,Original*%
%TF.FileFunction,Legend,Top*%
%TF.FilePolarity,Positive*%
%FSLAX46Y46*%
G04 Gerber Fmt 4.6, Leading zero omitted, Abs format (unit mm)*
G04 Created by KiCad (PCBNEW 9.0.0) date 2025-03-28 09:56:41*
%MOMM*%
%LPD*%
G01*
G04 APERTURE LIST*
%ADD10C,0.300000*%
%ADD11C,0.150000*%
%ADD12C,0.100000*%
%ADD13C,0.120000*%
%ADD14C,0.152400*%
%ADD15C,0.200000*%
%ADD16C,0.000000*%
G04 APERTURE END LIST*
D10*
G36*
X208454830Y-121083051D02*
G01*
X208491835Y-121120056D01*
X208536542Y-121209469D01*
X208536542Y-121595489D01*
X208050828Y-121595489D01*
X208050828Y-121209470D01*
X208095535Y-121120055D01*
X208132539Y-121083051D01*
X208221952Y-121038346D01*
X208365418Y-121038346D01*
X208454830Y-121083051D01*
G37*
G36*
X209717495Y-122062156D02*
G01*
X207584161Y-122062156D01*
X207584161Y-121174060D01*
X207750828Y-121174060D01*
X207750828Y-121745489D01*
X207753710Y-121774753D01*
X207776108Y-121828825D01*
X207817492Y-121870209D01*
X207871564Y-121892607D01*
X207900828Y-121895489D01*
X209400828Y-121895489D01*
X209430092Y-121892607D01*
X209484164Y-121870209D01*
X209525548Y-121828825D01*
X209547946Y-121774753D01*
X209547946Y-121716225D01*
X209525548Y-121662153D01*
X209484164Y-121620769D01*
X209430092Y-121598371D01*
X209400828Y-121595489D01*
X208836542Y-121595489D01*
X208836542Y-121466444D01*
X209486847Y-121011231D01*
X209509169Y-120992088D01*
X209540622Y-120942731D01*
X209550793Y-120885095D01*
X209538134Y-120827953D01*
X209504570Y-120780005D01*
X209455213Y-120748552D01*
X209397577Y-120738381D01*
X209340435Y-120751040D01*
X209314809Y-120765461D01*
X208822020Y-121110413D01*
X208820706Y-121106979D01*
X208749278Y-120964121D01*
X208741351Y-120951529D01*
X208739835Y-120947868D01*
X208736451Y-120943745D01*
X208733613Y-120939236D01*
X208730621Y-120936641D01*
X208721180Y-120925137D01*
X208649751Y-120853708D01*
X208638249Y-120844268D01*
X208635653Y-120841275D01*
X208631139Y-120838434D01*
X208627020Y-120835053D01*
X208623360Y-120833537D01*
X208610767Y-120825610D01*
X208467910Y-120754182D01*
X208440446Y-120743672D01*
X208435070Y-120743290D01*
X208430092Y-120741228D01*
X208400828Y-120738346D01*
X208186542Y-120738346D01*
X208157278Y-120741228D01*
X208152299Y-120743290D01*
X208146924Y-120743672D01*
X208119461Y-120754182D01*
X207976603Y-120825610D01*
X207964008Y-120833538D01*
X207960349Y-120835054D01*
X207956228Y-120838435D01*
X207951718Y-120841275D01*
X207949123Y-120844266D01*
X207937618Y-120853709D01*
X207866190Y-120925138D01*
X207856752Y-120936637D01*
X207853758Y-120939235D01*
X207850915Y-120943751D01*
X207847536Y-120947869D01*
X207846021Y-120951525D01*
X207838093Y-120964121D01*
X207766664Y-121106978D01*
X207756155Y-121134441D01*
X207755773Y-121139815D01*
X207753710Y-121144796D01*
X207750828Y-121174060D01*
X207584161Y-121174060D01*
X207584161Y-119388504D01*
X207750828Y-119388504D01*
X207762306Y-119445893D01*
X207794872Y-119494523D01*
X207817623Y-119513154D01*
X208380411Y-119888346D01*
X207817623Y-120263538D01*
X207794872Y-120282169D01*
X207762306Y-120330799D01*
X207750828Y-120388188D01*
X207762186Y-120445603D01*
X207794651Y-120494302D01*
X207843281Y-120526868D01*
X207900670Y-120538346D01*
X207958085Y-120526988D01*
X207984033Y-120513154D01*
X208650827Y-120068623D01*
X209317623Y-120513154D01*
X209343571Y-120526989D01*
X209400986Y-120538346D01*
X209458375Y-120526868D01*
X209507005Y-120494302D01*
X209539471Y-120445603D01*
X209550828Y-120388189D01*
X209539350Y-120330799D01*
X209506784Y-120282169D01*
X209484033Y-120263539D01*
X208921244Y-119888346D01*
X209484033Y-119513153D01*
X209506784Y-119494523D01*
X209539350Y-119445893D01*
X209550828Y-119388503D01*
X209539471Y-119331089D01*
X209507005Y-119282390D01*
X209458375Y-119249824D01*
X209400986Y-119238346D01*
X209343571Y-119249703D01*
X209317623Y-119263538D01*
X208650827Y-119708068D01*
X207984033Y-119263538D01*
X207958085Y-119249704D01*
X207900670Y-119238346D01*
X207843281Y-119249824D01*
X207794651Y-119282390D01*
X207762186Y-119331089D01*
X207750828Y-119388504D01*
X207584161Y-119388504D01*
X207584161Y-119071679D01*
X209717495Y-119071679D01*
X209717495Y-122062156D01*
G37*
D11*
X181936779Y-147459875D02*
X181936779Y-146459875D01*
X181936779Y-146459875D02*
X182317731Y-146459875D01*
X182317731Y-146459875D02*
X182412969Y-146507494D01*
X182412969Y-146507494D02*
X182460588Y-146555113D01*
X182460588Y-146555113D02*
X182508207Y-146650351D01*
X182508207Y-146650351D02*
X182508207Y-146793208D01*
X182508207Y-146793208D02*
X182460588Y-146888446D01*
X182460588Y-146888446D02*
X182412969Y-146936065D01*
X182412969Y-146936065D02*
X182317731Y-146983684D01*
X182317731Y-146983684D02*
X181936779Y-146983684D01*
X183508207Y-147364636D02*
X183460588Y-147412256D01*
X183460588Y-147412256D02*
X183317731Y-147459875D01*
X183317731Y-147459875D02*
X183222493Y-147459875D01*
X183222493Y-147459875D02*
X183079636Y-147412256D01*
X183079636Y-147412256D02*
X182984398Y-147317017D01*
X182984398Y-147317017D02*
X182936779Y-147221779D01*
X182936779Y-147221779D02*
X182889160Y-147031303D01*
X182889160Y-147031303D02*
X182889160Y-146888446D01*
X182889160Y-146888446D02*
X182936779Y-146697970D01*
X182936779Y-146697970D02*
X182984398Y-146602732D01*
X182984398Y-146602732D02*
X183079636Y-146507494D01*
X183079636Y-146507494D02*
X183222493Y-146459875D01*
X183222493Y-146459875D02*
X183317731Y-146459875D01*
X183317731Y-146459875D02*
X183460588Y-146507494D01*
X183460588Y-146507494D02*
X183508207Y-146555113D01*
X184270112Y-146936065D02*
X184412969Y-146983684D01*
X184412969Y-146983684D02*
X184460588Y-147031303D01*
X184460588Y-147031303D02*
X184508207Y-147126541D01*
X184508207Y-147126541D02*
X184508207Y-147269398D01*
X184508207Y-147269398D02*
X184460588Y-147364636D01*
X184460588Y-147364636D02*
X184412969Y-147412256D01*
X184412969Y-147412256D02*
X184317731Y-147459875D01*
X184317731Y-147459875D02*
X183936779Y-147459875D01*
X183936779Y-147459875D02*
X183936779Y-146459875D01*
X183936779Y-146459875D02*
X184270112Y-146459875D01*
X184270112Y-146459875D02*
X184365350Y-146507494D01*
X184365350Y-146507494D02*
X184412969Y-146555113D01*
X184412969Y-146555113D02*
X184460588Y-146650351D01*
X184460588Y-146650351D02*
X184460588Y-146745589D01*
X184460588Y-146745589D02*
X184412969Y-146840827D01*
X184412969Y-146840827D02*
X184365350Y-146888446D01*
X184365350Y-146888446D02*
X184270112Y-146936065D01*
X184270112Y-146936065D02*
X183936779Y-146936065D01*
X184698684Y-147555113D02*
X185460588Y-147555113D01*
X185698684Y-147459875D02*
X185698684Y-146459875D01*
X185698684Y-146459875D02*
X186032017Y-147174160D01*
X186032017Y-147174160D02*
X186365350Y-146459875D01*
X186365350Y-146459875D02*
X186365350Y-147459875D01*
X186984398Y-147459875D02*
X186889160Y-147412256D01*
X186889160Y-147412256D02*
X186841541Y-147364636D01*
X186841541Y-147364636D02*
X186793922Y-147269398D01*
X186793922Y-147269398D02*
X186793922Y-146983684D01*
X186793922Y-146983684D02*
X186841541Y-146888446D01*
X186841541Y-146888446D02*
X186889160Y-146840827D01*
X186889160Y-146840827D02*
X186984398Y-146793208D01*
X186984398Y-146793208D02*
X187127255Y-146793208D01*
X187127255Y-146793208D02*
X187222493Y-146840827D01*
X187222493Y-146840827D02*
X187270112Y-146888446D01*
X187270112Y-146888446D02*
X187317731Y-146983684D01*
X187317731Y-146983684D02*
X187317731Y-147269398D01*
X187317731Y-147269398D02*
X187270112Y-147364636D01*
X187270112Y-147364636D02*
X187222493Y-147412256D01*
X187222493Y-147412256D02*
X187127255Y-147459875D01*
X187127255Y-147459875D02*
X186984398Y-147459875D01*
X187603446Y-146793208D02*
X187984398Y-146793208D01*
X187746303Y-146459875D02*
X187746303Y-147317017D01*
X187746303Y-147317017D02*
X187793922Y-147412256D01*
X187793922Y-147412256D02*
X187889160Y-147459875D01*
X187889160Y-147459875D02*
X187984398Y-147459875D01*
X188698684Y-147412256D02*
X188603446Y-147459875D01*
X188603446Y-147459875D02*
X188412970Y-147459875D01*
X188412970Y-147459875D02*
X188317732Y-147412256D01*
X188317732Y-147412256D02*
X188270113Y-147317017D01*
X188270113Y-147317017D02*
X188270113Y-146936065D01*
X188270113Y-146936065D02*
X188317732Y-146840827D01*
X188317732Y-146840827D02*
X188412970Y-146793208D01*
X188412970Y-146793208D02*
X188603446Y-146793208D01*
X188603446Y-146793208D02*
X188698684Y-146840827D01*
X188698684Y-146840827D02*
X188746303Y-146936065D01*
X188746303Y-146936065D02*
X188746303Y-147031303D01*
X188746303Y-147031303D02*
X188270113Y-147126541D01*
X189603446Y-146793208D02*
X189603446Y-147459875D01*
X189174875Y-146793208D02*
X189174875Y-147317017D01*
X189174875Y-147317017D02*
X189222494Y-147412256D01*
X189222494Y-147412256D02*
X189317732Y-147459875D01*
X189317732Y-147459875D02*
X189460589Y-147459875D01*
X189460589Y-147459875D02*
X189555827Y-147412256D01*
X189555827Y-147412256D02*
X189603446Y-147364636D01*
X190079637Y-147459875D02*
X190079637Y-146793208D01*
X190079637Y-146983684D02*
X190127256Y-146888446D01*
X190127256Y-146888446D02*
X190174875Y-146840827D01*
X190174875Y-146840827D02*
X190270113Y-146793208D01*
X190270113Y-146793208D02*
X190365351Y-146793208D01*
X190460590Y-147555113D02*
X191222494Y-147555113D01*
X191365352Y-146793208D02*
X191603447Y-147459875D01*
X191603447Y-147459875D02*
X191841542Y-146793208D01*
X192127257Y-146459875D02*
X192746304Y-146459875D01*
X192746304Y-146459875D02*
X192412971Y-146840827D01*
X192412971Y-146840827D02*
X192555828Y-146840827D01*
X192555828Y-146840827D02*
X192651066Y-146888446D01*
X192651066Y-146888446D02*
X192698685Y-146936065D01*
X192698685Y-146936065D02*
X192746304Y-147031303D01*
X192746304Y-147031303D02*
X192746304Y-147269398D01*
X192746304Y-147269398D02*
X192698685Y-147364636D01*
X192698685Y-147364636D02*
X192651066Y-147412256D01*
X192651066Y-147412256D02*
X192555828Y-147459875D01*
X192555828Y-147459875D02*
X192270114Y-147459875D01*
X192270114Y-147459875D02*
X192174876Y-147412256D01*
X192174876Y-147412256D02*
X192127257Y-147364636D01*
X182270112Y-148546009D02*
X182412969Y-148593628D01*
X182412969Y-148593628D02*
X182460588Y-148641247D01*
X182460588Y-148641247D02*
X182508207Y-148736485D01*
X182508207Y-148736485D02*
X182508207Y-148879342D01*
X182508207Y-148879342D02*
X182460588Y-148974580D01*
X182460588Y-148974580D02*
X182412969Y-149022200D01*
X182412969Y-149022200D02*
X182317731Y-149069819D01*
X182317731Y-149069819D02*
X181936779Y-149069819D01*
X181936779Y-149069819D02*
X181936779Y-148069819D01*
X181936779Y-148069819D02*
X182270112Y-148069819D01*
X182270112Y-148069819D02*
X182365350Y-148117438D01*
X182365350Y-148117438D02*
X182412969Y-148165057D01*
X182412969Y-148165057D02*
X182460588Y-148260295D01*
X182460588Y-148260295D02*
X182460588Y-148355533D01*
X182460588Y-148355533D02*
X182412969Y-148450771D01*
X182412969Y-148450771D02*
X182365350Y-148498390D01*
X182365350Y-148498390D02*
X182270112Y-148546009D01*
X182270112Y-148546009D02*
X181936779Y-148546009D01*
X182841541Y-148403152D02*
X183079636Y-149069819D01*
X183317731Y-148403152D02*
X183079636Y-149069819D01*
X183079636Y-149069819D02*
X182984398Y-149307914D01*
X182984398Y-149307914D02*
X182936779Y-149355533D01*
X182936779Y-149355533D02*
X182841541Y-149403152D01*
X184460589Y-149069819D02*
X184460589Y-148069819D01*
X185032017Y-149069819D02*
X184603446Y-148498390D01*
X185032017Y-148069819D02*
X184460589Y-148641247D01*
X185841541Y-149022200D02*
X185746303Y-149069819D01*
X185746303Y-149069819D02*
X185555827Y-149069819D01*
X185555827Y-149069819D02*
X185460589Y-149022200D01*
X185460589Y-149022200D02*
X185412970Y-148926961D01*
X185412970Y-148926961D02*
X185412970Y-148546009D01*
X185412970Y-148546009D02*
X185460589Y-148450771D01*
X185460589Y-148450771D02*
X185555827Y-148403152D01*
X185555827Y-148403152D02*
X185746303Y-148403152D01*
X185746303Y-148403152D02*
X185841541Y-148450771D01*
X185841541Y-148450771D02*
X185889160Y-148546009D01*
X185889160Y-148546009D02*
X185889160Y-148641247D01*
X185889160Y-148641247D02*
X185412970Y-148736485D01*
X186317732Y-148403152D02*
X186317732Y-149069819D01*
X186317732Y-148498390D02*
X186365351Y-148450771D01*
X186365351Y-148450771D02*
X186460589Y-148403152D01*
X186460589Y-148403152D02*
X186603446Y-148403152D01*
X186603446Y-148403152D02*
X186698684Y-148450771D01*
X186698684Y-148450771D02*
X186746303Y-148546009D01*
X186746303Y-148546009D02*
X186746303Y-149069819D01*
X187222494Y-148403152D02*
X187222494Y-149069819D01*
X187222494Y-148498390D02*
X187270113Y-148450771D01*
X187270113Y-148450771D02*
X187365351Y-148403152D01*
X187365351Y-148403152D02*
X187508208Y-148403152D01*
X187508208Y-148403152D02*
X187603446Y-148450771D01*
X187603446Y-148450771D02*
X187651065Y-148546009D01*
X187651065Y-148546009D02*
X187651065Y-149069819D01*
X188032018Y-148403152D02*
X188270113Y-149069819D01*
X188508208Y-148403152D02*
X188270113Y-149069819D01*
X188270113Y-149069819D02*
X188174875Y-149307914D01*
X188174875Y-149307914D02*
X188127256Y-149355533D01*
X188127256Y-149355533D02*
X188032018Y-149403152D01*
X189603447Y-149022200D02*
X189746304Y-149069819D01*
X189746304Y-149069819D02*
X189984399Y-149069819D01*
X189984399Y-149069819D02*
X190079637Y-149022200D01*
X190079637Y-149022200D02*
X190127256Y-148974580D01*
X190127256Y-148974580D02*
X190174875Y-148879342D01*
X190174875Y-148879342D02*
X190174875Y-148784104D01*
X190174875Y-148784104D02*
X190127256Y-148688866D01*
X190127256Y-148688866D02*
X190079637Y-148641247D01*
X190079637Y-148641247D02*
X189984399Y-148593628D01*
X189984399Y-148593628D02*
X189793923Y-148546009D01*
X189793923Y-148546009D02*
X189698685Y-148498390D01*
X189698685Y-148498390D02*
X189651066Y-148450771D01*
X189651066Y-148450771D02*
X189603447Y-148355533D01*
X189603447Y-148355533D02*
X189603447Y-148260295D01*
X189603447Y-148260295D02*
X189651066Y-148165057D01*
X189651066Y-148165057D02*
X189698685Y-148117438D01*
X189698685Y-148117438D02*
X189793923Y-148069819D01*
X189793923Y-148069819D02*
X190032018Y-148069819D01*
X190032018Y-148069819D02*
X190174875Y-148117438D01*
X191032018Y-149069819D02*
X191032018Y-148546009D01*
X191032018Y-148546009D02*
X190984399Y-148450771D01*
X190984399Y-148450771D02*
X190889161Y-148403152D01*
X190889161Y-148403152D02*
X190698685Y-148403152D01*
X190698685Y-148403152D02*
X190603447Y-148450771D01*
X191032018Y-149022200D02*
X190936780Y-149069819D01*
X190936780Y-149069819D02*
X190698685Y-149069819D01*
X190698685Y-149069819D02*
X190603447Y-149022200D01*
X190603447Y-149022200D02*
X190555828Y-148926961D01*
X190555828Y-148926961D02*
X190555828Y-148831723D01*
X190555828Y-148831723D02*
X190603447Y-148736485D01*
X190603447Y-148736485D02*
X190698685Y-148688866D01*
X190698685Y-148688866D02*
X190936780Y-148688866D01*
X190936780Y-148688866D02*
X191032018Y-148641247D01*
X191508209Y-149069819D02*
X191508209Y-148403152D01*
X191508209Y-148069819D02*
X191460590Y-148117438D01*
X191460590Y-148117438D02*
X191508209Y-148165057D01*
X191508209Y-148165057D02*
X191555828Y-148117438D01*
X191555828Y-148117438D02*
X191508209Y-148069819D01*
X191508209Y-148069819D02*
X191508209Y-148165057D01*
X191984399Y-148403152D02*
X191984399Y-149069819D01*
X191984399Y-148498390D02*
X192032018Y-148450771D01*
X192032018Y-148450771D02*
X192127256Y-148403152D01*
X192127256Y-148403152D02*
X192270113Y-148403152D01*
X192270113Y-148403152D02*
X192365351Y-148450771D01*
X192365351Y-148450771D02*
X192412970Y-148546009D01*
X192412970Y-148546009D02*
X192412970Y-149069819D01*
X192746304Y-148403152D02*
X193127256Y-148403152D01*
X192889161Y-148069819D02*
X192889161Y-148926961D01*
X192889161Y-148926961D02*
X192936780Y-149022200D01*
X192936780Y-149022200D02*
X193032018Y-149069819D01*
X193032018Y-149069819D02*
X193127256Y-149069819D01*
X194555828Y-148546009D02*
X194222495Y-148546009D01*
X194222495Y-149069819D02*
X194222495Y-148069819D01*
X194222495Y-148069819D02*
X194698685Y-148069819D01*
X195222495Y-149069819D02*
X195127257Y-149022200D01*
X195127257Y-149022200D02*
X195079638Y-148926961D01*
X195079638Y-148926961D02*
X195079638Y-148069819D01*
X195984400Y-149022200D02*
X195889162Y-149069819D01*
X195889162Y-149069819D02*
X195698686Y-149069819D01*
X195698686Y-149069819D02*
X195603448Y-149022200D01*
X195603448Y-149022200D02*
X195555829Y-148926961D01*
X195555829Y-148926961D02*
X195555829Y-148546009D01*
X195555829Y-148546009D02*
X195603448Y-148450771D01*
X195603448Y-148450771D02*
X195698686Y-148403152D01*
X195698686Y-148403152D02*
X195889162Y-148403152D01*
X195889162Y-148403152D02*
X195984400Y-148450771D01*
X195984400Y-148450771D02*
X196032019Y-148546009D01*
X196032019Y-148546009D02*
X196032019Y-148641247D01*
X196032019Y-148641247D02*
X195555829Y-148736485D01*
X196889162Y-148403152D02*
X196889162Y-149069819D01*
X196460591Y-148403152D02*
X196460591Y-148926961D01*
X196460591Y-148926961D02*
X196508210Y-149022200D01*
X196508210Y-149022200D02*
X196603448Y-149069819D01*
X196603448Y-149069819D02*
X196746305Y-149069819D01*
X196746305Y-149069819D02*
X196841543Y-149022200D01*
X196841543Y-149022200D02*
X196889162Y-148974580D01*
X197365353Y-149069819D02*
X197365353Y-148403152D01*
X197365353Y-148593628D02*
X197412972Y-148498390D01*
X197412972Y-148498390D02*
X197460591Y-148450771D01*
X197460591Y-148450771D02*
X197555829Y-148403152D01*
X197555829Y-148403152D02*
X197651067Y-148403152D01*
D10*
G36*
X209717495Y-118873559D02*
G01*
X207584161Y-118873559D01*
X207584161Y-117702632D01*
X207750828Y-117702632D01*
X207750828Y-118559774D01*
X207753710Y-118589038D01*
X207776108Y-118643110D01*
X207817492Y-118684494D01*
X207871564Y-118706892D01*
X207930092Y-118706892D01*
X207984164Y-118684494D01*
X208025548Y-118643110D01*
X208047946Y-118589038D01*
X208050828Y-118559774D01*
X208050828Y-118281203D01*
X209400828Y-118281203D01*
X209430092Y-118278321D01*
X209484164Y-118255923D01*
X209525548Y-118214539D01*
X209547946Y-118160467D01*
X209547946Y-118101939D01*
X209525548Y-118047867D01*
X209484164Y-118006483D01*
X209430092Y-117984085D01*
X209400828Y-117981203D01*
X208050828Y-117981203D01*
X208050828Y-117702632D01*
X208047946Y-117673368D01*
X208025548Y-117619296D01*
X207984164Y-117577912D01*
X207930092Y-117555514D01*
X207871564Y-117555514D01*
X207817492Y-117577912D01*
X207776108Y-117619296D01*
X207753710Y-117673368D01*
X207750828Y-117702632D01*
X207584161Y-117702632D01*
X207584161Y-116345647D01*
X207750828Y-116345647D01*
X207762306Y-116403036D01*
X207794872Y-116451666D01*
X207817623Y-116470297D01*
X208380411Y-116845489D01*
X207817623Y-117220681D01*
X207794872Y-117239312D01*
X207762306Y-117287942D01*
X207750828Y-117345331D01*
X207762186Y-117402746D01*
X207794651Y-117451445D01*
X207843281Y-117484011D01*
X207900670Y-117495489D01*
X207958085Y-117484131D01*
X207984033Y-117470297D01*
X208650827Y-117025766D01*
X209317623Y-117470297D01*
X209343571Y-117484132D01*
X209400986Y-117495489D01*
X209458375Y-117484011D01*
X209507005Y-117451445D01*
X209539471Y-117402746D01*
X209550828Y-117345332D01*
X209539350Y-117287942D01*
X209506784Y-117239312D01*
X209484033Y-117220682D01*
X208921244Y-116845489D01*
X209484033Y-116470296D01*
X209506784Y-116451666D01*
X209539350Y-116403036D01*
X209550828Y-116345646D01*
X209539471Y-116288232D01*
X209507005Y-116239533D01*
X209458375Y-116206967D01*
X209400986Y-116195489D01*
X209343571Y-116206846D01*
X209317623Y-116220681D01*
X208650827Y-116665211D01*
X207984033Y-116220681D01*
X207958085Y-116206847D01*
X207900670Y-116195489D01*
X207843281Y-116206967D01*
X207794651Y-116239533D01*
X207762186Y-116288232D01*
X207750828Y-116345647D01*
X207584161Y-116345647D01*
X207584161Y-116028822D01*
X209717495Y-116028822D01*
X209717495Y-118873559D01*
G37*
D11*
X183554198Y-108956636D02*
X183506579Y-109004256D01*
X183506579Y-109004256D02*
X183363722Y-109051875D01*
X183363722Y-109051875D02*
X183268484Y-109051875D01*
X183268484Y-109051875D02*
X183125627Y-109004256D01*
X183125627Y-109004256D02*
X183030389Y-108909017D01*
X183030389Y-108909017D02*
X182982770Y-108813779D01*
X182982770Y-108813779D02*
X182935151Y-108623303D01*
X182935151Y-108623303D02*
X182935151Y-108480446D01*
X182935151Y-108480446D02*
X182982770Y-108289970D01*
X182982770Y-108289970D02*
X183030389Y-108194732D01*
X183030389Y-108194732D02*
X183125627Y-108099494D01*
X183125627Y-108099494D02*
X183268484Y-108051875D01*
X183268484Y-108051875D02*
X183363722Y-108051875D01*
X183363722Y-108051875D02*
X183506579Y-108099494D01*
X183506579Y-108099494D02*
X183554198Y-108147113D01*
X183935151Y-108147113D02*
X183982770Y-108099494D01*
X183982770Y-108099494D02*
X184078008Y-108051875D01*
X184078008Y-108051875D02*
X184316103Y-108051875D01*
X184316103Y-108051875D02*
X184411341Y-108099494D01*
X184411341Y-108099494D02*
X184458960Y-108147113D01*
X184458960Y-108147113D02*
X184506579Y-108242351D01*
X184506579Y-108242351D02*
X184506579Y-108337589D01*
X184506579Y-108337589D02*
X184458960Y-108480446D01*
X184458960Y-108480446D02*
X183887532Y-109051875D01*
X183887532Y-109051875D02*
X184506579Y-109051875D01*
X184982770Y-109051875D02*
X185173246Y-109051875D01*
X185173246Y-109051875D02*
X185268484Y-109004256D01*
X185268484Y-109004256D02*
X185316103Y-108956636D01*
X185316103Y-108956636D02*
X185411341Y-108813779D01*
X185411341Y-108813779D02*
X185458960Y-108623303D01*
X185458960Y-108623303D02*
X185458960Y-108242351D01*
X185458960Y-108242351D02*
X185411341Y-108147113D01*
X185411341Y-108147113D02*
X185363722Y-108099494D01*
X185363722Y-108099494D02*
X185268484Y-108051875D01*
X185268484Y-108051875D02*
X185078008Y-108051875D01*
X185078008Y-108051875D02*
X184982770Y-108099494D01*
X184982770Y-108099494D02*
X184935151Y-108147113D01*
X184935151Y-108147113D02*
X184887532Y-108242351D01*
X184887532Y-108242351D02*
X184887532Y-108480446D01*
X184887532Y-108480446D02*
X184935151Y-108575684D01*
X184935151Y-108575684D02*
X184982770Y-108623303D01*
X184982770Y-108623303D02*
X185078008Y-108670922D01*
X185078008Y-108670922D02*
X185268484Y-108670922D01*
X185268484Y-108670922D02*
X185363722Y-108623303D01*
X185363722Y-108623303D02*
X185411341Y-108575684D01*
X185411341Y-108575684D02*
X185458960Y-108480446D01*
X197257142Y-89154819D02*
X196923809Y-88678628D01*
X196685714Y-89154819D02*
X196685714Y-88154819D01*
X196685714Y-88154819D02*
X197066666Y-88154819D01*
X197066666Y-88154819D02*
X197161904Y-88202438D01*
X197161904Y-88202438D02*
X197209523Y-88250057D01*
X197209523Y-88250057D02*
X197257142Y-88345295D01*
X197257142Y-88345295D02*
X197257142Y-88488152D01*
X197257142Y-88488152D02*
X197209523Y-88583390D01*
X197209523Y-88583390D02*
X197161904Y-88631009D01*
X197161904Y-88631009D02*
X197066666Y-88678628D01*
X197066666Y-88678628D02*
X196685714Y-88678628D01*
X198209523Y-89154819D02*
X197638095Y-89154819D01*
X197923809Y-89154819D02*
X197923809Y-88154819D01*
X197923809Y-88154819D02*
X197828571Y-88297676D01*
X197828571Y-88297676D02*
X197733333Y-88392914D01*
X197733333Y-88392914D02*
X197638095Y-88440533D01*
X198685714Y-89154819D02*
X198876190Y-89154819D01*
X198876190Y-89154819D02*
X198971428Y-89107200D01*
X198971428Y-89107200D02*
X199019047Y-89059580D01*
X199019047Y-89059580D02*
X199114285Y-88916723D01*
X199114285Y-88916723D02*
X199161904Y-88726247D01*
X199161904Y-88726247D02*
X199161904Y-88345295D01*
X199161904Y-88345295D02*
X199114285Y-88250057D01*
X199114285Y-88250057D02*
X199066666Y-88202438D01*
X199066666Y-88202438D02*
X198971428Y-88154819D01*
X198971428Y-88154819D02*
X198780952Y-88154819D01*
X198780952Y-88154819D02*
X198685714Y-88202438D01*
X198685714Y-88202438D02*
X198638095Y-88250057D01*
X198638095Y-88250057D02*
X198590476Y-88345295D01*
X198590476Y-88345295D02*
X198590476Y-88583390D01*
X198590476Y-88583390D02*
X198638095Y-88678628D01*
X198638095Y-88678628D02*
X198685714Y-88726247D01*
X198685714Y-88726247D02*
X198780952Y-88773866D01*
X198780952Y-88773866D02*
X198971428Y-88773866D01*
X198971428Y-88773866D02*
X199066666Y-88726247D01*
X199066666Y-88726247D02*
X199114285Y-88678628D01*
X199114285Y-88678628D02*
X199161904Y-88583390D01*
X193067142Y-110824819D02*
X192733809Y-110348628D01*
X192495714Y-110824819D02*
X192495714Y-109824819D01*
X192495714Y-109824819D02*
X192876666Y-109824819D01*
X192876666Y-109824819D02*
X192971904Y-109872438D01*
X192971904Y-109872438D02*
X193019523Y-109920057D01*
X193019523Y-109920057D02*
X193067142Y-110015295D01*
X193067142Y-110015295D02*
X193067142Y-110158152D01*
X193067142Y-110158152D02*
X193019523Y-110253390D01*
X193019523Y-110253390D02*
X192971904Y-110301009D01*
X192971904Y-110301009D02*
X192876666Y-110348628D01*
X192876666Y-110348628D02*
X192495714Y-110348628D01*
X193448095Y-109920057D02*
X193495714Y-109872438D01*
X193495714Y-109872438D02*
X193590952Y-109824819D01*
X193590952Y-109824819D02*
X193829047Y-109824819D01*
X193829047Y-109824819D02*
X193924285Y-109872438D01*
X193924285Y-109872438D02*
X193971904Y-109920057D01*
X193971904Y-109920057D02*
X194019523Y-110015295D01*
X194019523Y-110015295D02*
X194019523Y-110110533D01*
X194019523Y-110110533D02*
X193971904Y-110253390D01*
X193971904Y-110253390D02*
X193400476Y-110824819D01*
X193400476Y-110824819D02*
X194019523Y-110824819D01*
X194352857Y-109824819D02*
X194971904Y-109824819D01*
X194971904Y-109824819D02*
X194638571Y-110205771D01*
X194638571Y-110205771D02*
X194781428Y-110205771D01*
X194781428Y-110205771D02*
X194876666Y-110253390D01*
X194876666Y-110253390D02*
X194924285Y-110301009D01*
X194924285Y-110301009D02*
X194971904Y-110396247D01*
X194971904Y-110396247D02*
X194971904Y-110634342D01*
X194971904Y-110634342D02*
X194924285Y-110729580D01*
X194924285Y-110729580D02*
X194876666Y-110777200D01*
X194876666Y-110777200D02*
X194781428Y-110824819D01*
X194781428Y-110824819D02*
X194495714Y-110824819D01*
X194495714Y-110824819D02*
X194400476Y-110777200D01*
X194400476Y-110777200D02*
X194352857Y-110729580D01*
X189833333Y-113854819D02*
X189500000Y-113378628D01*
X189261905Y-113854819D02*
X189261905Y-112854819D01*
X189261905Y-112854819D02*
X189642857Y-112854819D01*
X189642857Y-112854819D02*
X189738095Y-112902438D01*
X189738095Y-112902438D02*
X189785714Y-112950057D01*
X189785714Y-112950057D02*
X189833333Y-113045295D01*
X189833333Y-113045295D02*
X189833333Y-113188152D01*
X189833333Y-113188152D02*
X189785714Y-113283390D01*
X189785714Y-113283390D02*
X189738095Y-113331009D01*
X189738095Y-113331009D02*
X189642857Y-113378628D01*
X189642857Y-113378628D02*
X189261905Y-113378628D01*
X190166667Y-112854819D02*
X190785714Y-112854819D01*
X190785714Y-112854819D02*
X190452381Y-113235771D01*
X190452381Y-113235771D02*
X190595238Y-113235771D01*
X190595238Y-113235771D02*
X190690476Y-113283390D01*
X190690476Y-113283390D02*
X190738095Y-113331009D01*
X190738095Y-113331009D02*
X190785714Y-113426247D01*
X190785714Y-113426247D02*
X190785714Y-113664342D01*
X190785714Y-113664342D02*
X190738095Y-113759580D01*
X190738095Y-113759580D02*
X190690476Y-113807200D01*
X190690476Y-113807200D02*
X190595238Y-113854819D01*
X190595238Y-113854819D02*
X190309524Y-113854819D01*
X190309524Y-113854819D02*
X190214286Y-113807200D01*
X190214286Y-113807200D02*
X190166667Y-113759580D01*
X201754198Y-108451875D02*
X201420865Y-107975684D01*
X201182770Y-108451875D02*
X201182770Y-107451875D01*
X201182770Y-107451875D02*
X201563722Y-107451875D01*
X201563722Y-107451875D02*
X201658960Y-107499494D01*
X201658960Y-107499494D02*
X201706579Y-107547113D01*
X201706579Y-107547113D02*
X201754198Y-107642351D01*
X201754198Y-107642351D02*
X201754198Y-107785208D01*
X201754198Y-107785208D02*
X201706579Y-107880446D01*
X201706579Y-107880446D02*
X201658960Y-107928065D01*
X201658960Y-107928065D02*
X201563722Y-107975684D01*
X201563722Y-107975684D02*
X201182770Y-107975684D01*
X202135151Y-107547113D02*
X202182770Y-107499494D01*
X202182770Y-107499494D02*
X202278008Y-107451875D01*
X202278008Y-107451875D02*
X202516103Y-107451875D01*
X202516103Y-107451875D02*
X202611341Y-107499494D01*
X202611341Y-107499494D02*
X202658960Y-107547113D01*
X202658960Y-107547113D02*
X202706579Y-107642351D01*
X202706579Y-107642351D02*
X202706579Y-107737589D01*
X202706579Y-107737589D02*
X202658960Y-107880446D01*
X202658960Y-107880446D02*
X202087532Y-108451875D01*
X202087532Y-108451875D02*
X202706579Y-108451875D01*
X203087532Y-107547113D02*
X203135151Y-107499494D01*
X203135151Y-107499494D02*
X203230389Y-107451875D01*
X203230389Y-107451875D02*
X203468484Y-107451875D01*
X203468484Y-107451875D02*
X203563722Y-107499494D01*
X203563722Y-107499494D02*
X203611341Y-107547113D01*
X203611341Y-107547113D02*
X203658960Y-107642351D01*
X203658960Y-107642351D02*
X203658960Y-107737589D01*
X203658960Y-107737589D02*
X203611341Y-107880446D01*
X203611341Y-107880446D02*
X203039913Y-108451875D01*
X203039913Y-108451875D02*
X203658960Y-108451875D01*
X191430389Y-108851875D02*
X190954199Y-108851875D01*
X190954199Y-108851875D02*
X190954199Y-107851875D01*
X192287532Y-108851875D02*
X191716104Y-108851875D01*
X192001818Y-108851875D02*
X192001818Y-107851875D01*
X192001818Y-107851875D02*
X191906580Y-107994732D01*
X191906580Y-107994732D02*
X191811342Y-108089970D01*
X191811342Y-108089970D02*
X191716104Y-108137589D01*
X196157142Y-83054819D02*
X195823809Y-82578628D01*
X195585714Y-83054819D02*
X195585714Y-82054819D01*
X195585714Y-82054819D02*
X195966666Y-82054819D01*
X195966666Y-82054819D02*
X196061904Y-82102438D01*
X196061904Y-82102438D02*
X196109523Y-82150057D01*
X196109523Y-82150057D02*
X196157142Y-82245295D01*
X196157142Y-82245295D02*
X196157142Y-82388152D01*
X196157142Y-82388152D02*
X196109523Y-82483390D01*
X196109523Y-82483390D02*
X196061904Y-82531009D01*
X196061904Y-82531009D02*
X195966666Y-82578628D01*
X195966666Y-82578628D02*
X195585714Y-82578628D01*
X197109523Y-83054819D02*
X196538095Y-83054819D01*
X196823809Y-83054819D02*
X196823809Y-82054819D01*
X196823809Y-82054819D02*
X196728571Y-82197676D01*
X196728571Y-82197676D02*
X196633333Y-82292914D01*
X196633333Y-82292914D02*
X196538095Y-82340533D01*
X197966666Y-82054819D02*
X197776190Y-82054819D01*
X197776190Y-82054819D02*
X197680952Y-82102438D01*
X197680952Y-82102438D02*
X197633333Y-82150057D01*
X197633333Y-82150057D02*
X197538095Y-82292914D01*
X197538095Y-82292914D02*
X197490476Y-82483390D01*
X197490476Y-82483390D02*
X197490476Y-82864342D01*
X197490476Y-82864342D02*
X197538095Y-82959580D01*
X197538095Y-82959580D02*
X197585714Y-83007200D01*
X197585714Y-83007200D02*
X197680952Y-83054819D01*
X197680952Y-83054819D02*
X197871428Y-83054819D01*
X197871428Y-83054819D02*
X197966666Y-83007200D01*
X197966666Y-83007200D02*
X198014285Y-82959580D01*
X198014285Y-82959580D02*
X198061904Y-82864342D01*
X198061904Y-82864342D02*
X198061904Y-82626247D01*
X198061904Y-82626247D02*
X198014285Y-82531009D01*
X198014285Y-82531009D02*
X197966666Y-82483390D01*
X197966666Y-82483390D02*
X197871428Y-82435771D01*
X197871428Y-82435771D02*
X197680952Y-82435771D01*
X197680952Y-82435771D02*
X197585714Y-82483390D01*
X197585714Y-82483390D02*
X197538095Y-82531009D01*
X197538095Y-82531009D02*
X197490476Y-82626247D01*
X176761905Y-112754819D02*
X176761905Y-111754819D01*
X176761905Y-111754819D02*
X177000000Y-111754819D01*
X177000000Y-111754819D02*
X177142857Y-111802438D01*
X177142857Y-111802438D02*
X177238095Y-111897676D01*
X177238095Y-111897676D02*
X177285714Y-111992914D01*
X177285714Y-111992914D02*
X177333333Y-112183390D01*
X177333333Y-112183390D02*
X177333333Y-112326247D01*
X177333333Y-112326247D02*
X177285714Y-112516723D01*
X177285714Y-112516723D02*
X177238095Y-112611961D01*
X177238095Y-112611961D02*
X177142857Y-112707200D01*
X177142857Y-112707200D02*
X177000000Y-112754819D01*
X177000000Y-112754819D02*
X176761905Y-112754819D01*
X178238095Y-111754819D02*
X177761905Y-111754819D01*
X177761905Y-111754819D02*
X177714286Y-112231009D01*
X177714286Y-112231009D02*
X177761905Y-112183390D01*
X177761905Y-112183390D02*
X177857143Y-112135771D01*
X177857143Y-112135771D02*
X178095238Y-112135771D01*
X178095238Y-112135771D02*
X178190476Y-112183390D01*
X178190476Y-112183390D02*
X178238095Y-112231009D01*
X178238095Y-112231009D02*
X178285714Y-112326247D01*
X178285714Y-112326247D02*
X178285714Y-112564342D01*
X178285714Y-112564342D02*
X178238095Y-112659580D01*
X178238095Y-112659580D02*
X178190476Y-112707200D01*
X178190476Y-112707200D02*
X178095238Y-112754819D01*
X178095238Y-112754819D02*
X177857143Y-112754819D01*
X177857143Y-112754819D02*
X177761905Y-112707200D01*
X177761905Y-112707200D02*
X177714286Y-112659580D01*
X203454198Y-92751875D02*
X203120865Y-92275684D01*
X202882770Y-92751875D02*
X202882770Y-91751875D01*
X202882770Y-91751875D02*
X203263722Y-91751875D01*
X203263722Y-91751875D02*
X203358960Y-91799494D01*
X203358960Y-91799494D02*
X203406579Y-91847113D01*
X203406579Y-91847113D02*
X203454198Y-91942351D01*
X203454198Y-91942351D02*
X203454198Y-92085208D01*
X203454198Y-92085208D02*
X203406579Y-92180446D01*
X203406579Y-92180446D02*
X203358960Y-92228065D01*
X203358960Y-92228065D02*
X203263722Y-92275684D01*
X203263722Y-92275684D02*
X202882770Y-92275684D01*
X203835151Y-91847113D02*
X203882770Y-91799494D01*
X203882770Y-91799494D02*
X203978008Y-91751875D01*
X203978008Y-91751875D02*
X204216103Y-91751875D01*
X204216103Y-91751875D02*
X204311341Y-91799494D01*
X204311341Y-91799494D02*
X204358960Y-91847113D01*
X204358960Y-91847113D02*
X204406579Y-91942351D01*
X204406579Y-91942351D02*
X204406579Y-92037589D01*
X204406579Y-92037589D02*
X204358960Y-92180446D01*
X204358960Y-92180446D02*
X203787532Y-92751875D01*
X203787532Y-92751875D02*
X204406579Y-92751875D01*
X205358960Y-92751875D02*
X204787532Y-92751875D01*
X205073246Y-92751875D02*
X205073246Y-91751875D01*
X205073246Y-91751875D02*
X204978008Y-91894732D01*
X204978008Y-91894732D02*
X204882770Y-91989970D01*
X204882770Y-91989970D02*
X204787532Y-92037589D01*
X183459580Y-115266666D02*
X183507200Y-115314285D01*
X183507200Y-115314285D02*
X183554819Y-115457142D01*
X183554819Y-115457142D02*
X183554819Y-115552380D01*
X183554819Y-115552380D02*
X183507200Y-115695237D01*
X183507200Y-115695237D02*
X183411961Y-115790475D01*
X183411961Y-115790475D02*
X183316723Y-115838094D01*
X183316723Y-115838094D02*
X183126247Y-115885713D01*
X183126247Y-115885713D02*
X182983390Y-115885713D01*
X182983390Y-115885713D02*
X182792914Y-115838094D01*
X182792914Y-115838094D02*
X182697676Y-115790475D01*
X182697676Y-115790475D02*
X182602438Y-115695237D01*
X182602438Y-115695237D02*
X182554819Y-115552380D01*
X182554819Y-115552380D02*
X182554819Y-115457142D01*
X182554819Y-115457142D02*
X182602438Y-115314285D01*
X182602438Y-115314285D02*
X182650057Y-115266666D01*
X183554819Y-114314285D02*
X183554819Y-114885713D01*
X183554819Y-114599999D02*
X182554819Y-114599999D01*
X182554819Y-114599999D02*
X182697676Y-114695237D01*
X182697676Y-114695237D02*
X182792914Y-114790475D01*
X182792914Y-114790475D02*
X182840533Y-114885713D01*
X201063722Y-105456875D02*
X201063722Y-106171160D01*
X201063722Y-106171160D02*
X201016103Y-106314017D01*
X201016103Y-106314017D02*
X200920865Y-106409256D01*
X200920865Y-106409256D02*
X200778008Y-106456875D01*
X200778008Y-106456875D02*
X200682770Y-106456875D01*
X201968484Y-105456875D02*
X201778008Y-105456875D01*
X201778008Y-105456875D02*
X201682770Y-105504494D01*
X201682770Y-105504494D02*
X201635151Y-105552113D01*
X201635151Y-105552113D02*
X201539913Y-105694970D01*
X201539913Y-105694970D02*
X201492294Y-105885446D01*
X201492294Y-105885446D02*
X201492294Y-106266398D01*
X201492294Y-106266398D02*
X201539913Y-106361636D01*
X201539913Y-106361636D02*
X201587532Y-106409256D01*
X201587532Y-106409256D02*
X201682770Y-106456875D01*
X201682770Y-106456875D02*
X201873246Y-106456875D01*
X201873246Y-106456875D02*
X201968484Y-106409256D01*
X201968484Y-106409256D02*
X202016103Y-106361636D01*
X202016103Y-106361636D02*
X202063722Y-106266398D01*
X202063722Y-106266398D02*
X202063722Y-106028303D01*
X202063722Y-106028303D02*
X202016103Y-105933065D01*
X202016103Y-105933065D02*
X201968484Y-105885446D01*
X201968484Y-105885446D02*
X201873246Y-105837827D01*
X201873246Y-105837827D02*
X201682770Y-105837827D01*
X201682770Y-105837827D02*
X201587532Y-105885446D01*
X201587532Y-105885446D02*
X201539913Y-105933065D01*
X201539913Y-105933065D02*
X201492294Y-106028303D01*
X194857142Y-92554819D02*
X194523809Y-92078628D01*
X194285714Y-92554819D02*
X194285714Y-91554819D01*
X194285714Y-91554819D02*
X194666666Y-91554819D01*
X194666666Y-91554819D02*
X194761904Y-91602438D01*
X194761904Y-91602438D02*
X194809523Y-91650057D01*
X194809523Y-91650057D02*
X194857142Y-91745295D01*
X194857142Y-91745295D02*
X194857142Y-91888152D01*
X194857142Y-91888152D02*
X194809523Y-91983390D01*
X194809523Y-91983390D02*
X194761904Y-92031009D01*
X194761904Y-92031009D02*
X194666666Y-92078628D01*
X194666666Y-92078628D02*
X194285714Y-92078628D01*
X195238095Y-91650057D02*
X195285714Y-91602438D01*
X195285714Y-91602438D02*
X195380952Y-91554819D01*
X195380952Y-91554819D02*
X195619047Y-91554819D01*
X195619047Y-91554819D02*
X195714285Y-91602438D01*
X195714285Y-91602438D02*
X195761904Y-91650057D01*
X195761904Y-91650057D02*
X195809523Y-91745295D01*
X195809523Y-91745295D02*
X195809523Y-91840533D01*
X195809523Y-91840533D02*
X195761904Y-91983390D01*
X195761904Y-91983390D02*
X195190476Y-92554819D01*
X195190476Y-92554819D02*
X195809523Y-92554819D01*
X196428571Y-91554819D02*
X196523809Y-91554819D01*
X196523809Y-91554819D02*
X196619047Y-91602438D01*
X196619047Y-91602438D02*
X196666666Y-91650057D01*
X196666666Y-91650057D02*
X196714285Y-91745295D01*
X196714285Y-91745295D02*
X196761904Y-91935771D01*
X196761904Y-91935771D02*
X196761904Y-92173866D01*
X196761904Y-92173866D02*
X196714285Y-92364342D01*
X196714285Y-92364342D02*
X196666666Y-92459580D01*
X196666666Y-92459580D02*
X196619047Y-92507200D01*
X196619047Y-92507200D02*
X196523809Y-92554819D01*
X196523809Y-92554819D02*
X196428571Y-92554819D01*
X196428571Y-92554819D02*
X196333333Y-92507200D01*
X196333333Y-92507200D02*
X196285714Y-92459580D01*
X196285714Y-92459580D02*
X196238095Y-92364342D01*
X196238095Y-92364342D02*
X196190476Y-92173866D01*
X196190476Y-92173866D02*
X196190476Y-91935771D01*
X196190476Y-91935771D02*
X196238095Y-91745295D01*
X196238095Y-91745295D02*
X196285714Y-91650057D01*
X196285714Y-91650057D02*
X196333333Y-91602438D01*
X196333333Y-91602438D02*
X196428571Y-91554819D01*
X167909580Y-119716666D02*
X167957200Y-119764285D01*
X167957200Y-119764285D02*
X168004819Y-119907142D01*
X168004819Y-119907142D02*
X168004819Y-120002380D01*
X168004819Y-120002380D02*
X167957200Y-120145237D01*
X167957200Y-120145237D02*
X167861961Y-120240475D01*
X167861961Y-120240475D02*
X167766723Y-120288094D01*
X167766723Y-120288094D02*
X167576247Y-120335713D01*
X167576247Y-120335713D02*
X167433390Y-120335713D01*
X167433390Y-120335713D02*
X167242914Y-120288094D01*
X167242914Y-120288094D02*
X167147676Y-120240475D01*
X167147676Y-120240475D02*
X167052438Y-120145237D01*
X167052438Y-120145237D02*
X167004819Y-120002380D01*
X167004819Y-120002380D02*
X167004819Y-119907142D01*
X167004819Y-119907142D02*
X167052438Y-119764285D01*
X167052438Y-119764285D02*
X167100057Y-119716666D01*
X167338152Y-118859523D02*
X168004819Y-118859523D01*
X166957200Y-119097618D02*
X167671485Y-119335713D01*
X167671485Y-119335713D02*
X167671485Y-118716666D01*
X164634198Y-85651875D02*
X164300865Y-85175684D01*
X164062770Y-85651875D02*
X164062770Y-84651875D01*
X164062770Y-84651875D02*
X164443722Y-84651875D01*
X164443722Y-84651875D02*
X164538960Y-84699494D01*
X164538960Y-84699494D02*
X164586579Y-84747113D01*
X164586579Y-84747113D02*
X164634198Y-84842351D01*
X164634198Y-84842351D02*
X164634198Y-84985208D01*
X164634198Y-84985208D02*
X164586579Y-85080446D01*
X164586579Y-85080446D02*
X164538960Y-85128065D01*
X164538960Y-85128065D02*
X164443722Y-85175684D01*
X164443722Y-85175684D02*
X164062770Y-85175684D01*
X165015151Y-84747113D02*
X165062770Y-84699494D01*
X165062770Y-84699494D02*
X165158008Y-84651875D01*
X165158008Y-84651875D02*
X165396103Y-84651875D01*
X165396103Y-84651875D02*
X165491341Y-84699494D01*
X165491341Y-84699494D02*
X165538960Y-84747113D01*
X165538960Y-84747113D02*
X165586579Y-84842351D01*
X165586579Y-84842351D02*
X165586579Y-84937589D01*
X165586579Y-84937589D02*
X165538960Y-85080446D01*
X165538960Y-85080446D02*
X164967532Y-85651875D01*
X164967532Y-85651875D02*
X165586579Y-85651875D01*
X166491341Y-84651875D02*
X166015151Y-84651875D01*
X166015151Y-84651875D02*
X165967532Y-85128065D01*
X165967532Y-85128065D02*
X166015151Y-85080446D01*
X166015151Y-85080446D02*
X166110389Y-85032827D01*
X166110389Y-85032827D02*
X166348484Y-85032827D01*
X166348484Y-85032827D02*
X166443722Y-85080446D01*
X166443722Y-85080446D02*
X166491341Y-85128065D01*
X166491341Y-85128065D02*
X166538960Y-85223303D01*
X166538960Y-85223303D02*
X166538960Y-85461398D01*
X166538960Y-85461398D02*
X166491341Y-85556636D01*
X166491341Y-85556636D02*
X166443722Y-85604256D01*
X166443722Y-85604256D02*
X166348484Y-85651875D01*
X166348484Y-85651875D02*
X166110389Y-85651875D01*
X166110389Y-85651875D02*
X166015151Y-85604256D01*
X166015151Y-85604256D02*
X165967532Y-85556636D01*
X190857142Y-122859580D02*
X190809523Y-122907200D01*
X190809523Y-122907200D02*
X190666666Y-122954819D01*
X190666666Y-122954819D02*
X190571428Y-122954819D01*
X190571428Y-122954819D02*
X190428571Y-122907200D01*
X190428571Y-122907200D02*
X190333333Y-122811961D01*
X190333333Y-122811961D02*
X190285714Y-122716723D01*
X190285714Y-122716723D02*
X190238095Y-122526247D01*
X190238095Y-122526247D02*
X190238095Y-122383390D01*
X190238095Y-122383390D02*
X190285714Y-122192914D01*
X190285714Y-122192914D02*
X190333333Y-122097676D01*
X190333333Y-122097676D02*
X190428571Y-122002438D01*
X190428571Y-122002438D02*
X190571428Y-121954819D01*
X190571428Y-121954819D02*
X190666666Y-121954819D01*
X190666666Y-121954819D02*
X190809523Y-122002438D01*
X190809523Y-122002438D02*
X190857142Y-122050057D01*
X191809523Y-122954819D02*
X191238095Y-122954819D01*
X191523809Y-122954819D02*
X191523809Y-121954819D01*
X191523809Y-121954819D02*
X191428571Y-122097676D01*
X191428571Y-122097676D02*
X191333333Y-122192914D01*
X191333333Y-122192914D02*
X191238095Y-122240533D01*
X192380952Y-122383390D02*
X192285714Y-122335771D01*
X192285714Y-122335771D02*
X192238095Y-122288152D01*
X192238095Y-122288152D02*
X192190476Y-122192914D01*
X192190476Y-122192914D02*
X192190476Y-122145295D01*
X192190476Y-122145295D02*
X192238095Y-122050057D01*
X192238095Y-122050057D02*
X192285714Y-122002438D01*
X192285714Y-122002438D02*
X192380952Y-121954819D01*
X192380952Y-121954819D02*
X192571428Y-121954819D01*
X192571428Y-121954819D02*
X192666666Y-122002438D01*
X192666666Y-122002438D02*
X192714285Y-122050057D01*
X192714285Y-122050057D02*
X192761904Y-122145295D01*
X192761904Y-122145295D02*
X192761904Y-122192914D01*
X192761904Y-122192914D02*
X192714285Y-122288152D01*
X192714285Y-122288152D02*
X192666666Y-122335771D01*
X192666666Y-122335771D02*
X192571428Y-122383390D01*
X192571428Y-122383390D02*
X192380952Y-122383390D01*
X192380952Y-122383390D02*
X192285714Y-122431009D01*
X192285714Y-122431009D02*
X192238095Y-122478628D01*
X192238095Y-122478628D02*
X192190476Y-122573866D01*
X192190476Y-122573866D02*
X192190476Y-122764342D01*
X192190476Y-122764342D02*
X192238095Y-122859580D01*
X192238095Y-122859580D02*
X192285714Y-122907200D01*
X192285714Y-122907200D02*
X192380952Y-122954819D01*
X192380952Y-122954819D02*
X192571428Y-122954819D01*
X192571428Y-122954819D02*
X192666666Y-122907200D01*
X192666666Y-122907200D02*
X192714285Y-122859580D01*
X192714285Y-122859580D02*
X192761904Y-122764342D01*
X192761904Y-122764342D02*
X192761904Y-122573866D01*
X192761904Y-122573866D02*
X192714285Y-122478628D01*
X192714285Y-122478628D02*
X192666666Y-122431009D01*
X192666666Y-122431009D02*
X192571428Y-122383390D01*
X188250714Y-89254819D02*
X188250714Y-88254819D01*
X188250714Y-88254819D02*
X188488809Y-88254819D01*
X188488809Y-88254819D02*
X188631666Y-88302438D01*
X188631666Y-88302438D02*
X188726904Y-88397676D01*
X188726904Y-88397676D02*
X188774523Y-88492914D01*
X188774523Y-88492914D02*
X188822142Y-88683390D01*
X188822142Y-88683390D02*
X188822142Y-88826247D01*
X188822142Y-88826247D02*
X188774523Y-89016723D01*
X188774523Y-89016723D02*
X188726904Y-89111961D01*
X188726904Y-89111961D02*
X188631666Y-89207200D01*
X188631666Y-89207200D02*
X188488809Y-89254819D01*
X188488809Y-89254819D02*
X188250714Y-89254819D01*
X189774523Y-89254819D02*
X189203095Y-89254819D01*
X189488809Y-89254819D02*
X189488809Y-88254819D01*
X189488809Y-88254819D02*
X189393571Y-88397676D01*
X189393571Y-88397676D02*
X189298333Y-88492914D01*
X189298333Y-88492914D02*
X189203095Y-88540533D01*
X190393571Y-88254819D02*
X190488809Y-88254819D01*
X190488809Y-88254819D02*
X190584047Y-88302438D01*
X190584047Y-88302438D02*
X190631666Y-88350057D01*
X190631666Y-88350057D02*
X190679285Y-88445295D01*
X190679285Y-88445295D02*
X190726904Y-88635771D01*
X190726904Y-88635771D02*
X190726904Y-88873866D01*
X190726904Y-88873866D02*
X190679285Y-89064342D01*
X190679285Y-89064342D02*
X190631666Y-89159580D01*
X190631666Y-89159580D02*
X190584047Y-89207200D01*
X190584047Y-89207200D02*
X190488809Y-89254819D01*
X190488809Y-89254819D02*
X190393571Y-89254819D01*
X190393571Y-89254819D02*
X190298333Y-89207200D01*
X190298333Y-89207200D02*
X190250714Y-89159580D01*
X190250714Y-89159580D02*
X190203095Y-89064342D01*
X190203095Y-89064342D02*
X190155476Y-88873866D01*
X190155476Y-88873866D02*
X190155476Y-88635771D01*
X190155476Y-88635771D02*
X190203095Y-88445295D01*
X190203095Y-88445295D02*
X190250714Y-88350057D01*
X190250714Y-88350057D02*
X190298333Y-88302438D01*
X190298333Y-88302438D02*
X190393571Y-88254819D01*
X184435151Y-134051875D02*
X184435151Y-134861398D01*
X184435151Y-134861398D02*
X184482770Y-134956636D01*
X184482770Y-134956636D02*
X184530389Y-135004256D01*
X184530389Y-135004256D02*
X184625627Y-135051875D01*
X184625627Y-135051875D02*
X184816103Y-135051875D01*
X184816103Y-135051875D02*
X184911341Y-135004256D01*
X184911341Y-135004256D02*
X184958960Y-134956636D01*
X184958960Y-134956636D02*
X185006579Y-134861398D01*
X185006579Y-134861398D02*
X185006579Y-134051875D01*
X185387532Y-134051875D02*
X186006579Y-134051875D01*
X186006579Y-134051875D02*
X185673246Y-134432827D01*
X185673246Y-134432827D02*
X185816103Y-134432827D01*
X185816103Y-134432827D02*
X185911341Y-134480446D01*
X185911341Y-134480446D02*
X185958960Y-134528065D01*
X185958960Y-134528065D02*
X186006579Y-134623303D01*
X186006579Y-134623303D02*
X186006579Y-134861398D01*
X186006579Y-134861398D02*
X185958960Y-134956636D01*
X185958960Y-134956636D02*
X185911341Y-135004256D01*
X185911341Y-135004256D02*
X185816103Y-135051875D01*
X185816103Y-135051875D02*
X185530389Y-135051875D01*
X185530389Y-135051875D02*
X185435151Y-135004256D01*
X185435151Y-135004256D02*
X185387532Y-134956636D01*
X182272906Y-130386875D02*
X182272906Y-130624970D01*
X182034811Y-130529732D02*
X182272906Y-130624970D01*
X182272906Y-130624970D02*
X182511001Y-130529732D01*
X182130049Y-130815446D02*
X182272906Y-130624970D01*
X182272906Y-130624970D02*
X182415763Y-130815446D01*
X143585714Y-89954819D02*
X143585714Y-88954819D01*
X143585714Y-89431009D02*
X144157142Y-89431009D01*
X144157142Y-89954819D02*
X144157142Y-88954819D01*
X145157142Y-89954819D02*
X144585714Y-89954819D01*
X144871428Y-89954819D02*
X144871428Y-88954819D01*
X144871428Y-88954819D02*
X144776190Y-89097676D01*
X144776190Y-89097676D02*
X144680952Y-89192914D01*
X144680952Y-89192914D02*
X144585714Y-89240533D01*
X146109523Y-89954819D02*
X145538095Y-89954819D01*
X145823809Y-89954819D02*
X145823809Y-88954819D01*
X145823809Y-88954819D02*
X145728571Y-89097676D01*
X145728571Y-89097676D02*
X145633333Y-89192914D01*
X145633333Y-89192914D02*
X145538095Y-89240533D01*
X146442857Y-88954819D02*
X147061904Y-88954819D01*
X147061904Y-88954819D02*
X146728571Y-89335771D01*
X146728571Y-89335771D02*
X146871428Y-89335771D01*
X146871428Y-89335771D02*
X146966666Y-89383390D01*
X146966666Y-89383390D02*
X147014285Y-89431009D01*
X147014285Y-89431009D02*
X147061904Y-89526247D01*
X147061904Y-89526247D02*
X147061904Y-89764342D01*
X147061904Y-89764342D02*
X147014285Y-89859580D01*
X147014285Y-89859580D02*
X146966666Y-89907200D01*
X146966666Y-89907200D02*
X146871428Y-89954819D01*
X146871428Y-89954819D02*
X146585714Y-89954819D01*
X146585714Y-89954819D02*
X146490476Y-89907200D01*
X146490476Y-89907200D02*
X146442857Y-89859580D01*
X173066666Y-130754819D02*
X173066666Y-131469104D01*
X173066666Y-131469104D02*
X173019047Y-131611961D01*
X173019047Y-131611961D02*
X172923809Y-131707200D01*
X172923809Y-131707200D02*
X172780952Y-131754819D01*
X172780952Y-131754819D02*
X172685714Y-131754819D01*
X174066666Y-131754819D02*
X173495238Y-131754819D01*
X173780952Y-131754819D02*
X173780952Y-130754819D01*
X173780952Y-130754819D02*
X173685714Y-130897676D01*
X173685714Y-130897676D02*
X173590476Y-130992914D01*
X173590476Y-130992914D02*
X173495238Y-131040533D01*
X179328571Y-135414700D02*
X180471429Y-135414700D01*
X179900000Y-135986128D02*
X179900000Y-134843271D01*
X166328571Y-135414700D02*
X167471429Y-135414700D01*
D12*
X192463723Y-82906856D02*
X192606580Y-82954475D01*
X192606580Y-82954475D02*
X192844675Y-82954475D01*
X192844675Y-82954475D02*
X192939913Y-82906856D01*
X192939913Y-82906856D02*
X192987532Y-82859236D01*
X192987532Y-82859236D02*
X193035151Y-82763998D01*
X193035151Y-82763998D02*
X193035151Y-82668760D01*
X193035151Y-82668760D02*
X192987532Y-82573522D01*
X192987532Y-82573522D02*
X192939913Y-82525903D01*
X192939913Y-82525903D02*
X192844675Y-82478284D01*
X192844675Y-82478284D02*
X192654199Y-82430665D01*
X192654199Y-82430665D02*
X192558961Y-82383046D01*
X192558961Y-82383046D02*
X192511342Y-82335427D01*
X192511342Y-82335427D02*
X192463723Y-82240189D01*
X192463723Y-82240189D02*
X192463723Y-82144951D01*
X192463723Y-82144951D02*
X192511342Y-82049713D01*
X192511342Y-82049713D02*
X192558961Y-82002094D01*
X192558961Y-82002094D02*
X192654199Y-81954475D01*
X192654199Y-81954475D02*
X192892294Y-81954475D01*
X192892294Y-81954475D02*
X193035151Y-82002094D01*
X193368485Y-81954475D02*
X193606580Y-82954475D01*
X193606580Y-82954475D02*
X193797056Y-82240189D01*
X193797056Y-82240189D02*
X193987532Y-82954475D01*
X193987532Y-82954475D02*
X194225628Y-81954475D01*
X194558961Y-82049713D02*
X194606580Y-82002094D01*
X194606580Y-82002094D02*
X194701818Y-81954475D01*
X194701818Y-81954475D02*
X194939913Y-81954475D01*
X194939913Y-81954475D02*
X195035151Y-82002094D01*
X195035151Y-82002094D02*
X195082770Y-82049713D01*
X195082770Y-82049713D02*
X195130389Y-82144951D01*
X195130389Y-82144951D02*
X195130389Y-82240189D01*
X195130389Y-82240189D02*
X195082770Y-82383046D01*
X195082770Y-82383046D02*
X194511342Y-82954475D01*
X194511342Y-82954475D02*
X195130389Y-82954475D01*
D11*
X197257142Y-87354819D02*
X196923809Y-86878628D01*
X196685714Y-87354819D02*
X196685714Y-86354819D01*
X196685714Y-86354819D02*
X197066666Y-86354819D01*
X197066666Y-86354819D02*
X197161904Y-86402438D01*
X197161904Y-86402438D02*
X197209523Y-86450057D01*
X197209523Y-86450057D02*
X197257142Y-86545295D01*
X197257142Y-86545295D02*
X197257142Y-86688152D01*
X197257142Y-86688152D02*
X197209523Y-86783390D01*
X197209523Y-86783390D02*
X197161904Y-86831009D01*
X197161904Y-86831009D02*
X197066666Y-86878628D01*
X197066666Y-86878628D02*
X196685714Y-86878628D01*
X198209523Y-87354819D02*
X197638095Y-87354819D01*
X197923809Y-87354819D02*
X197923809Y-86354819D01*
X197923809Y-86354819D02*
X197828571Y-86497676D01*
X197828571Y-86497676D02*
X197733333Y-86592914D01*
X197733333Y-86592914D02*
X197638095Y-86640533D01*
X198780952Y-86783390D02*
X198685714Y-86735771D01*
X198685714Y-86735771D02*
X198638095Y-86688152D01*
X198638095Y-86688152D02*
X198590476Y-86592914D01*
X198590476Y-86592914D02*
X198590476Y-86545295D01*
X198590476Y-86545295D02*
X198638095Y-86450057D01*
X198638095Y-86450057D02*
X198685714Y-86402438D01*
X198685714Y-86402438D02*
X198780952Y-86354819D01*
X198780952Y-86354819D02*
X198971428Y-86354819D01*
X198971428Y-86354819D02*
X199066666Y-86402438D01*
X199066666Y-86402438D02*
X199114285Y-86450057D01*
X199114285Y-86450057D02*
X199161904Y-86545295D01*
X199161904Y-86545295D02*
X199161904Y-86592914D01*
X199161904Y-86592914D02*
X199114285Y-86688152D01*
X199114285Y-86688152D02*
X199066666Y-86735771D01*
X199066666Y-86735771D02*
X198971428Y-86783390D01*
X198971428Y-86783390D02*
X198780952Y-86783390D01*
X198780952Y-86783390D02*
X198685714Y-86831009D01*
X198685714Y-86831009D02*
X198638095Y-86878628D01*
X198638095Y-86878628D02*
X198590476Y-86973866D01*
X198590476Y-86973866D02*
X198590476Y-87164342D01*
X198590476Y-87164342D02*
X198638095Y-87259580D01*
X198638095Y-87259580D02*
X198685714Y-87307200D01*
X198685714Y-87307200D02*
X198780952Y-87354819D01*
X198780952Y-87354819D02*
X198971428Y-87354819D01*
X198971428Y-87354819D02*
X199066666Y-87307200D01*
X199066666Y-87307200D02*
X199114285Y-87259580D01*
X199114285Y-87259580D02*
X199161904Y-87164342D01*
X199161904Y-87164342D02*
X199161904Y-86973866D01*
X199161904Y-86973866D02*
X199114285Y-86878628D01*
X199114285Y-86878628D02*
X199066666Y-86831009D01*
X199066666Y-86831009D02*
X198971428Y-86783390D01*
X188473214Y-90754819D02*
X188473214Y-89754819D01*
X188473214Y-89754819D02*
X188711309Y-89754819D01*
X188711309Y-89754819D02*
X188854166Y-89802438D01*
X188854166Y-89802438D02*
X188949404Y-89897676D01*
X188949404Y-89897676D02*
X188997023Y-89992914D01*
X188997023Y-89992914D02*
X189044642Y-90183390D01*
X189044642Y-90183390D02*
X189044642Y-90326247D01*
X189044642Y-90326247D02*
X188997023Y-90516723D01*
X188997023Y-90516723D02*
X188949404Y-90611961D01*
X188949404Y-90611961D02*
X188854166Y-90707200D01*
X188854166Y-90707200D02*
X188711309Y-90754819D01*
X188711309Y-90754819D02*
X188473214Y-90754819D01*
X189997023Y-90754819D02*
X189425595Y-90754819D01*
X189711309Y-90754819D02*
X189711309Y-89754819D01*
X189711309Y-89754819D02*
X189616071Y-89897676D01*
X189616071Y-89897676D02*
X189520833Y-89992914D01*
X189520833Y-89992914D02*
X189425595Y-90040533D01*
X190949404Y-90754819D02*
X190377976Y-90754819D01*
X190663690Y-90754819D02*
X190663690Y-89754819D01*
X190663690Y-89754819D02*
X190568452Y-89897676D01*
X190568452Y-89897676D02*
X190473214Y-89992914D01*
X190473214Y-89992914D02*
X190377976Y-90040533D01*
X189157142Y-83054819D02*
X188823809Y-82578628D01*
X188585714Y-83054819D02*
X188585714Y-82054819D01*
X188585714Y-82054819D02*
X188966666Y-82054819D01*
X188966666Y-82054819D02*
X189061904Y-82102438D01*
X189061904Y-82102438D02*
X189109523Y-82150057D01*
X189109523Y-82150057D02*
X189157142Y-82245295D01*
X189157142Y-82245295D02*
X189157142Y-82388152D01*
X189157142Y-82388152D02*
X189109523Y-82483390D01*
X189109523Y-82483390D02*
X189061904Y-82531009D01*
X189061904Y-82531009D02*
X188966666Y-82578628D01*
X188966666Y-82578628D02*
X188585714Y-82578628D01*
X190109523Y-83054819D02*
X189538095Y-83054819D01*
X189823809Y-83054819D02*
X189823809Y-82054819D01*
X189823809Y-82054819D02*
X189728571Y-82197676D01*
X189728571Y-82197676D02*
X189633333Y-82292914D01*
X189633333Y-82292914D02*
X189538095Y-82340533D01*
X190442857Y-82054819D02*
X191109523Y-82054819D01*
X191109523Y-82054819D02*
X190680952Y-83054819D01*
X196363722Y-127876875D02*
X196363722Y-128591160D01*
X196363722Y-128591160D02*
X196316103Y-128734017D01*
X196316103Y-128734017D02*
X196220865Y-128829256D01*
X196220865Y-128829256D02*
X196078008Y-128876875D01*
X196078008Y-128876875D02*
X195982770Y-128876875D01*
X197268484Y-128210208D02*
X197268484Y-128876875D01*
X197030389Y-127829256D02*
X196792294Y-128543541D01*
X196792294Y-128543541D02*
X197411341Y-128543541D01*
X177457142Y-85524819D02*
X177123809Y-85048628D01*
X176885714Y-85524819D02*
X176885714Y-84524819D01*
X176885714Y-84524819D02*
X177266666Y-84524819D01*
X177266666Y-84524819D02*
X177361904Y-84572438D01*
X177361904Y-84572438D02*
X177409523Y-84620057D01*
X177409523Y-84620057D02*
X177457142Y-84715295D01*
X177457142Y-84715295D02*
X177457142Y-84858152D01*
X177457142Y-84858152D02*
X177409523Y-84953390D01*
X177409523Y-84953390D02*
X177361904Y-85001009D01*
X177361904Y-85001009D02*
X177266666Y-85048628D01*
X177266666Y-85048628D02*
X176885714Y-85048628D01*
X178409523Y-85524819D02*
X177838095Y-85524819D01*
X178123809Y-85524819D02*
X178123809Y-84524819D01*
X178123809Y-84524819D02*
X178028571Y-84667676D01*
X178028571Y-84667676D02*
X177933333Y-84762914D01*
X177933333Y-84762914D02*
X177838095Y-84810533D01*
X179266666Y-84858152D02*
X179266666Y-85524819D01*
X179028571Y-84477200D02*
X178790476Y-85191485D01*
X178790476Y-85191485D02*
X179409523Y-85191485D01*
X194101817Y-137147113D02*
X194006579Y-137099494D01*
X194006579Y-137099494D02*
X193911341Y-137004256D01*
X193911341Y-137004256D02*
X193768484Y-136861398D01*
X193768484Y-136861398D02*
X193673246Y-136813779D01*
X193673246Y-136813779D02*
X193578008Y-136813779D01*
X193625627Y-137051875D02*
X193530389Y-137004256D01*
X193530389Y-137004256D02*
X193435151Y-136909017D01*
X193435151Y-136909017D02*
X193387532Y-136718541D01*
X193387532Y-136718541D02*
X193387532Y-136385208D01*
X193387532Y-136385208D02*
X193435151Y-136194732D01*
X193435151Y-136194732D02*
X193530389Y-136099494D01*
X193530389Y-136099494D02*
X193625627Y-136051875D01*
X193625627Y-136051875D02*
X193816103Y-136051875D01*
X193816103Y-136051875D02*
X193911341Y-136099494D01*
X193911341Y-136099494D02*
X194006579Y-136194732D01*
X194006579Y-136194732D02*
X194054198Y-136385208D01*
X194054198Y-136385208D02*
X194054198Y-136718541D01*
X194054198Y-136718541D02*
X194006579Y-136909017D01*
X194006579Y-136909017D02*
X193911341Y-137004256D01*
X193911341Y-137004256D02*
X193816103Y-137051875D01*
X193816103Y-137051875D02*
X193625627Y-137051875D01*
X194958960Y-136051875D02*
X194482770Y-136051875D01*
X194482770Y-136051875D02*
X194435151Y-136528065D01*
X194435151Y-136528065D02*
X194482770Y-136480446D01*
X194482770Y-136480446D02*
X194578008Y-136432827D01*
X194578008Y-136432827D02*
X194816103Y-136432827D01*
X194816103Y-136432827D02*
X194911341Y-136480446D01*
X194911341Y-136480446D02*
X194958960Y-136528065D01*
X194958960Y-136528065D02*
X195006579Y-136623303D01*
X195006579Y-136623303D02*
X195006579Y-136861398D01*
X195006579Y-136861398D02*
X194958960Y-136956636D01*
X194958960Y-136956636D02*
X194911341Y-137004256D01*
X194911341Y-137004256D02*
X194816103Y-137051875D01*
X194816103Y-137051875D02*
X194578008Y-137051875D01*
X194578008Y-137051875D02*
X194482770Y-137004256D01*
X194482770Y-137004256D02*
X194435151Y-136956636D01*
X194857142Y-130754819D02*
X194523809Y-130278628D01*
X194285714Y-130754819D02*
X194285714Y-129754819D01*
X194285714Y-129754819D02*
X194666666Y-129754819D01*
X194666666Y-129754819D02*
X194761904Y-129802438D01*
X194761904Y-129802438D02*
X194809523Y-129850057D01*
X194809523Y-129850057D02*
X194857142Y-129945295D01*
X194857142Y-129945295D02*
X194857142Y-130088152D01*
X194857142Y-130088152D02*
X194809523Y-130183390D01*
X194809523Y-130183390D02*
X194761904Y-130231009D01*
X194761904Y-130231009D02*
X194666666Y-130278628D01*
X194666666Y-130278628D02*
X194285714Y-130278628D01*
X195809523Y-130754819D02*
X195238095Y-130754819D01*
X195523809Y-130754819D02*
X195523809Y-129754819D01*
X195523809Y-129754819D02*
X195428571Y-129897676D01*
X195428571Y-129897676D02*
X195333333Y-129992914D01*
X195333333Y-129992914D02*
X195238095Y-130040533D01*
X196190476Y-129850057D02*
X196238095Y-129802438D01*
X196238095Y-129802438D02*
X196333333Y-129754819D01*
X196333333Y-129754819D02*
X196571428Y-129754819D01*
X196571428Y-129754819D02*
X196666666Y-129802438D01*
X196666666Y-129802438D02*
X196714285Y-129850057D01*
X196714285Y-129850057D02*
X196761904Y-129945295D01*
X196761904Y-129945295D02*
X196761904Y-130040533D01*
X196761904Y-130040533D02*
X196714285Y-130183390D01*
X196714285Y-130183390D02*
X196142857Y-130754819D01*
X196142857Y-130754819D02*
X196761904Y-130754819D01*
X190857142Y-127989580D02*
X190809523Y-128037200D01*
X190809523Y-128037200D02*
X190666666Y-128084819D01*
X190666666Y-128084819D02*
X190571428Y-128084819D01*
X190571428Y-128084819D02*
X190428571Y-128037200D01*
X190428571Y-128037200D02*
X190333333Y-127941961D01*
X190333333Y-127941961D02*
X190285714Y-127846723D01*
X190285714Y-127846723D02*
X190238095Y-127656247D01*
X190238095Y-127656247D02*
X190238095Y-127513390D01*
X190238095Y-127513390D02*
X190285714Y-127322914D01*
X190285714Y-127322914D02*
X190333333Y-127227676D01*
X190333333Y-127227676D02*
X190428571Y-127132438D01*
X190428571Y-127132438D02*
X190571428Y-127084819D01*
X190571428Y-127084819D02*
X190666666Y-127084819D01*
X190666666Y-127084819D02*
X190809523Y-127132438D01*
X190809523Y-127132438D02*
X190857142Y-127180057D01*
X191809523Y-128084819D02*
X191238095Y-128084819D01*
X191523809Y-128084819D02*
X191523809Y-127084819D01*
X191523809Y-127084819D02*
X191428571Y-127227676D01*
X191428571Y-127227676D02*
X191333333Y-127322914D01*
X191333333Y-127322914D02*
X191238095Y-127370533D01*
X192142857Y-127084819D02*
X192809523Y-127084819D01*
X192809523Y-127084819D02*
X192380952Y-128084819D01*
X183751875Y-90939913D02*
X183275684Y-91273246D01*
X183751875Y-91511341D02*
X182751875Y-91511341D01*
X182751875Y-91511341D02*
X182751875Y-91130389D01*
X182751875Y-91130389D02*
X182799494Y-91035151D01*
X182799494Y-91035151D02*
X182847113Y-90987532D01*
X182847113Y-90987532D02*
X182942351Y-90939913D01*
X182942351Y-90939913D02*
X183085208Y-90939913D01*
X183085208Y-90939913D02*
X183180446Y-90987532D01*
X183180446Y-90987532D02*
X183228065Y-91035151D01*
X183228065Y-91035151D02*
X183275684Y-91130389D01*
X183275684Y-91130389D02*
X183275684Y-91511341D01*
X183751875Y-89987532D02*
X183751875Y-90558960D01*
X183751875Y-90273246D02*
X182751875Y-90273246D01*
X182751875Y-90273246D02*
X182894732Y-90368484D01*
X182894732Y-90368484D02*
X182989970Y-90463722D01*
X182989970Y-90463722D02*
X183037589Y-90558960D01*
X182751875Y-89082770D02*
X182751875Y-89558960D01*
X182751875Y-89558960D02*
X183228065Y-89606579D01*
X183228065Y-89606579D02*
X183180446Y-89558960D01*
X183180446Y-89558960D02*
X183132827Y-89463722D01*
X183132827Y-89463722D02*
X183132827Y-89225627D01*
X183132827Y-89225627D02*
X183180446Y-89130389D01*
X183180446Y-89130389D02*
X183228065Y-89082770D01*
X183228065Y-89082770D02*
X183323303Y-89035151D01*
X183323303Y-89035151D02*
X183561398Y-89035151D01*
X183561398Y-89035151D02*
X183656636Y-89082770D01*
X183656636Y-89082770D02*
X183704256Y-89130389D01*
X183704256Y-89130389D02*
X183751875Y-89225627D01*
X183751875Y-89225627D02*
X183751875Y-89463722D01*
X183751875Y-89463722D02*
X183704256Y-89558960D01*
X183704256Y-89558960D02*
X183656636Y-89606579D01*
X200454819Y-125052857D02*
X199978628Y-125386190D01*
X200454819Y-125624285D02*
X199454819Y-125624285D01*
X199454819Y-125624285D02*
X199454819Y-125243333D01*
X199454819Y-125243333D02*
X199502438Y-125148095D01*
X199502438Y-125148095D02*
X199550057Y-125100476D01*
X199550057Y-125100476D02*
X199645295Y-125052857D01*
X199645295Y-125052857D02*
X199788152Y-125052857D01*
X199788152Y-125052857D02*
X199883390Y-125100476D01*
X199883390Y-125100476D02*
X199931009Y-125148095D01*
X199931009Y-125148095D02*
X199978628Y-125243333D01*
X199978628Y-125243333D02*
X199978628Y-125624285D01*
X200454819Y-124100476D02*
X200454819Y-124671904D01*
X200454819Y-124386190D02*
X199454819Y-124386190D01*
X199454819Y-124386190D02*
X199597676Y-124481428D01*
X199597676Y-124481428D02*
X199692914Y-124576666D01*
X199692914Y-124576666D02*
X199740533Y-124671904D01*
X199454819Y-123481428D02*
X199454819Y-123386190D01*
X199454819Y-123386190D02*
X199502438Y-123290952D01*
X199502438Y-123290952D02*
X199550057Y-123243333D01*
X199550057Y-123243333D02*
X199645295Y-123195714D01*
X199645295Y-123195714D02*
X199835771Y-123148095D01*
X199835771Y-123148095D02*
X200073866Y-123148095D01*
X200073866Y-123148095D02*
X200264342Y-123195714D01*
X200264342Y-123195714D02*
X200359580Y-123243333D01*
X200359580Y-123243333D02*
X200407200Y-123290952D01*
X200407200Y-123290952D02*
X200454819Y-123386190D01*
X200454819Y-123386190D02*
X200454819Y-123481428D01*
X200454819Y-123481428D02*
X200407200Y-123576666D01*
X200407200Y-123576666D02*
X200359580Y-123624285D01*
X200359580Y-123624285D02*
X200264342Y-123671904D01*
X200264342Y-123671904D02*
X200073866Y-123719523D01*
X200073866Y-123719523D02*
X199835771Y-123719523D01*
X199835771Y-123719523D02*
X199645295Y-123671904D01*
X199645295Y-123671904D02*
X199550057Y-123624285D01*
X199550057Y-123624285D02*
X199502438Y-123576666D01*
X199502438Y-123576666D02*
X199454819Y-123481428D01*
X203285714Y-89754819D02*
X203285714Y-88754819D01*
X203285714Y-89231009D02*
X203857142Y-89231009D01*
X203857142Y-89754819D02*
X203857142Y-88754819D01*
X204857142Y-89754819D02*
X204285714Y-89754819D01*
X204571428Y-89754819D02*
X204571428Y-88754819D01*
X204571428Y-88754819D02*
X204476190Y-88897676D01*
X204476190Y-88897676D02*
X204380952Y-88992914D01*
X204380952Y-88992914D02*
X204285714Y-89040533D01*
X205476190Y-88754819D02*
X205571428Y-88754819D01*
X205571428Y-88754819D02*
X205666666Y-88802438D01*
X205666666Y-88802438D02*
X205714285Y-88850057D01*
X205714285Y-88850057D02*
X205761904Y-88945295D01*
X205761904Y-88945295D02*
X205809523Y-89135771D01*
X205809523Y-89135771D02*
X205809523Y-89373866D01*
X205809523Y-89373866D02*
X205761904Y-89564342D01*
X205761904Y-89564342D02*
X205714285Y-89659580D01*
X205714285Y-89659580D02*
X205666666Y-89707200D01*
X205666666Y-89707200D02*
X205571428Y-89754819D01*
X205571428Y-89754819D02*
X205476190Y-89754819D01*
X205476190Y-89754819D02*
X205380952Y-89707200D01*
X205380952Y-89707200D02*
X205333333Y-89659580D01*
X205333333Y-89659580D02*
X205285714Y-89564342D01*
X205285714Y-89564342D02*
X205238095Y-89373866D01*
X205238095Y-89373866D02*
X205238095Y-89135771D01*
X205238095Y-89135771D02*
X205285714Y-88945295D01*
X205285714Y-88945295D02*
X205333333Y-88850057D01*
X205333333Y-88850057D02*
X205380952Y-88802438D01*
X205380952Y-88802438D02*
X205476190Y-88754819D01*
X206285714Y-89754819D02*
X206476190Y-89754819D01*
X206476190Y-89754819D02*
X206571428Y-89707200D01*
X206571428Y-89707200D02*
X206619047Y-89659580D01*
X206619047Y-89659580D02*
X206714285Y-89516723D01*
X206714285Y-89516723D02*
X206761904Y-89326247D01*
X206761904Y-89326247D02*
X206761904Y-88945295D01*
X206761904Y-88945295D02*
X206714285Y-88850057D01*
X206714285Y-88850057D02*
X206666666Y-88802438D01*
X206666666Y-88802438D02*
X206571428Y-88754819D01*
X206571428Y-88754819D02*
X206380952Y-88754819D01*
X206380952Y-88754819D02*
X206285714Y-88802438D01*
X206285714Y-88802438D02*
X206238095Y-88850057D01*
X206238095Y-88850057D02*
X206190476Y-88945295D01*
X206190476Y-88945295D02*
X206190476Y-89183390D01*
X206190476Y-89183390D02*
X206238095Y-89278628D01*
X206238095Y-89278628D02*
X206285714Y-89326247D01*
X206285714Y-89326247D02*
X206380952Y-89373866D01*
X206380952Y-89373866D02*
X206571428Y-89373866D01*
X206571428Y-89373866D02*
X206666666Y-89326247D01*
X206666666Y-89326247D02*
X206714285Y-89278628D01*
X206714285Y-89278628D02*
X206761904Y-89183390D01*
X199754819Y-118633333D02*
X200469104Y-118633333D01*
X200469104Y-118633333D02*
X200611961Y-118680952D01*
X200611961Y-118680952D02*
X200707200Y-118776190D01*
X200707200Y-118776190D02*
X200754819Y-118919047D01*
X200754819Y-118919047D02*
X200754819Y-119014285D01*
X199754819Y-118252380D02*
X199754819Y-117585714D01*
X199754819Y-117585714D02*
X200754819Y-118014285D01*
X180433333Y-108554819D02*
X180100000Y-108078628D01*
X179861905Y-108554819D02*
X179861905Y-107554819D01*
X179861905Y-107554819D02*
X180242857Y-107554819D01*
X180242857Y-107554819D02*
X180338095Y-107602438D01*
X180338095Y-107602438D02*
X180385714Y-107650057D01*
X180385714Y-107650057D02*
X180433333Y-107745295D01*
X180433333Y-107745295D02*
X180433333Y-107888152D01*
X180433333Y-107888152D02*
X180385714Y-107983390D01*
X180385714Y-107983390D02*
X180338095Y-108031009D01*
X180338095Y-108031009D02*
X180242857Y-108078628D01*
X180242857Y-108078628D02*
X179861905Y-108078628D01*
X181385714Y-108554819D02*
X180814286Y-108554819D01*
X181100000Y-108554819D02*
X181100000Y-107554819D01*
X181100000Y-107554819D02*
X181004762Y-107697676D01*
X181004762Y-107697676D02*
X180909524Y-107792914D01*
X180909524Y-107792914D02*
X180814286Y-107840533D01*
X183710151Y-91831875D02*
X183710151Y-92641398D01*
X183710151Y-92641398D02*
X183757770Y-92736636D01*
X183757770Y-92736636D02*
X183805389Y-92784256D01*
X183805389Y-92784256D02*
X183900627Y-92831875D01*
X183900627Y-92831875D02*
X184091103Y-92831875D01*
X184091103Y-92831875D02*
X184186341Y-92784256D01*
X184186341Y-92784256D02*
X184233960Y-92736636D01*
X184233960Y-92736636D02*
X184281579Y-92641398D01*
X184281579Y-92641398D02*
X184281579Y-91831875D01*
X185186341Y-91831875D02*
X184995865Y-91831875D01*
X184995865Y-91831875D02*
X184900627Y-91879494D01*
X184900627Y-91879494D02*
X184853008Y-91927113D01*
X184853008Y-91927113D02*
X184757770Y-92069970D01*
X184757770Y-92069970D02*
X184710151Y-92260446D01*
X184710151Y-92260446D02*
X184710151Y-92641398D01*
X184710151Y-92641398D02*
X184757770Y-92736636D01*
X184757770Y-92736636D02*
X184805389Y-92784256D01*
X184805389Y-92784256D02*
X184900627Y-92831875D01*
X184900627Y-92831875D02*
X185091103Y-92831875D01*
X185091103Y-92831875D02*
X185186341Y-92784256D01*
X185186341Y-92784256D02*
X185233960Y-92736636D01*
X185233960Y-92736636D02*
X185281579Y-92641398D01*
X185281579Y-92641398D02*
X185281579Y-92403303D01*
X185281579Y-92403303D02*
X185233960Y-92308065D01*
X185233960Y-92308065D02*
X185186341Y-92260446D01*
X185186341Y-92260446D02*
X185091103Y-92212827D01*
X185091103Y-92212827D02*
X184900627Y-92212827D01*
X184900627Y-92212827D02*
X184805389Y-92260446D01*
X184805389Y-92260446D02*
X184757770Y-92308065D01*
X184757770Y-92308065D02*
X184710151Y-92403303D01*
X199357142Y-83159580D02*
X199309523Y-83207200D01*
X199309523Y-83207200D02*
X199166666Y-83254819D01*
X199166666Y-83254819D02*
X199071428Y-83254819D01*
X199071428Y-83254819D02*
X198928571Y-83207200D01*
X198928571Y-83207200D02*
X198833333Y-83111961D01*
X198833333Y-83111961D02*
X198785714Y-83016723D01*
X198785714Y-83016723D02*
X198738095Y-82826247D01*
X198738095Y-82826247D02*
X198738095Y-82683390D01*
X198738095Y-82683390D02*
X198785714Y-82492914D01*
X198785714Y-82492914D02*
X198833333Y-82397676D01*
X198833333Y-82397676D02*
X198928571Y-82302438D01*
X198928571Y-82302438D02*
X199071428Y-82254819D01*
X199071428Y-82254819D02*
X199166666Y-82254819D01*
X199166666Y-82254819D02*
X199309523Y-82302438D01*
X199309523Y-82302438D02*
X199357142Y-82350057D01*
X199690476Y-82254819D02*
X200309523Y-82254819D01*
X200309523Y-82254819D02*
X199976190Y-82635771D01*
X199976190Y-82635771D02*
X200119047Y-82635771D01*
X200119047Y-82635771D02*
X200214285Y-82683390D01*
X200214285Y-82683390D02*
X200261904Y-82731009D01*
X200261904Y-82731009D02*
X200309523Y-82826247D01*
X200309523Y-82826247D02*
X200309523Y-83064342D01*
X200309523Y-83064342D02*
X200261904Y-83159580D01*
X200261904Y-83159580D02*
X200214285Y-83207200D01*
X200214285Y-83207200D02*
X200119047Y-83254819D01*
X200119047Y-83254819D02*
X199833333Y-83254819D01*
X199833333Y-83254819D02*
X199738095Y-83207200D01*
X199738095Y-83207200D02*
X199690476Y-83159580D01*
X201261904Y-83254819D02*
X200690476Y-83254819D01*
X200976190Y-83254819D02*
X200976190Y-82254819D01*
X200976190Y-82254819D02*
X200880952Y-82397676D01*
X200880952Y-82397676D02*
X200785714Y-82492914D01*
X200785714Y-82492914D02*
X200690476Y-82540533D01*
X175934198Y-105316636D02*
X175886579Y-105364256D01*
X175886579Y-105364256D02*
X175743722Y-105411875D01*
X175743722Y-105411875D02*
X175648484Y-105411875D01*
X175648484Y-105411875D02*
X175505627Y-105364256D01*
X175505627Y-105364256D02*
X175410389Y-105269017D01*
X175410389Y-105269017D02*
X175362770Y-105173779D01*
X175362770Y-105173779D02*
X175315151Y-104983303D01*
X175315151Y-104983303D02*
X175315151Y-104840446D01*
X175315151Y-104840446D02*
X175362770Y-104649970D01*
X175362770Y-104649970D02*
X175410389Y-104554732D01*
X175410389Y-104554732D02*
X175505627Y-104459494D01*
X175505627Y-104459494D02*
X175648484Y-104411875D01*
X175648484Y-104411875D02*
X175743722Y-104411875D01*
X175743722Y-104411875D02*
X175886579Y-104459494D01*
X175886579Y-104459494D02*
X175934198Y-104507113D01*
X176315151Y-104507113D02*
X176362770Y-104459494D01*
X176362770Y-104459494D02*
X176458008Y-104411875D01*
X176458008Y-104411875D02*
X176696103Y-104411875D01*
X176696103Y-104411875D02*
X176791341Y-104459494D01*
X176791341Y-104459494D02*
X176838960Y-104507113D01*
X176838960Y-104507113D02*
X176886579Y-104602351D01*
X176886579Y-104602351D02*
X176886579Y-104697589D01*
X176886579Y-104697589D02*
X176838960Y-104840446D01*
X176838960Y-104840446D02*
X176267532Y-105411875D01*
X176267532Y-105411875D02*
X176886579Y-105411875D01*
X177743722Y-104745208D02*
X177743722Y-105411875D01*
X177505627Y-104364256D02*
X177267532Y-105078541D01*
X177267532Y-105078541D02*
X177886579Y-105078541D01*
D12*
X196413723Y-108406856D02*
X196556580Y-108454475D01*
X196556580Y-108454475D02*
X196794675Y-108454475D01*
X196794675Y-108454475D02*
X196889913Y-108406856D01*
X196889913Y-108406856D02*
X196937532Y-108359236D01*
X196937532Y-108359236D02*
X196985151Y-108263998D01*
X196985151Y-108263998D02*
X196985151Y-108168760D01*
X196985151Y-108168760D02*
X196937532Y-108073522D01*
X196937532Y-108073522D02*
X196889913Y-108025903D01*
X196889913Y-108025903D02*
X196794675Y-107978284D01*
X196794675Y-107978284D02*
X196604199Y-107930665D01*
X196604199Y-107930665D02*
X196508961Y-107883046D01*
X196508961Y-107883046D02*
X196461342Y-107835427D01*
X196461342Y-107835427D02*
X196413723Y-107740189D01*
X196413723Y-107740189D02*
X196413723Y-107644951D01*
X196413723Y-107644951D02*
X196461342Y-107549713D01*
X196461342Y-107549713D02*
X196508961Y-107502094D01*
X196508961Y-107502094D02*
X196604199Y-107454475D01*
X196604199Y-107454475D02*
X196842294Y-107454475D01*
X196842294Y-107454475D02*
X196985151Y-107502094D01*
X197318485Y-107454475D02*
X197556580Y-108454475D01*
X197556580Y-108454475D02*
X197747056Y-107740189D01*
X197747056Y-107740189D02*
X197937532Y-108454475D01*
X197937532Y-108454475D02*
X198175628Y-107454475D01*
X198461342Y-107454475D02*
X199128008Y-107454475D01*
X199128008Y-107454475D02*
X198699437Y-108454475D01*
D11*
X200685714Y-149154819D02*
X200685714Y-148154819D01*
X200685714Y-148631009D02*
X201257142Y-148631009D01*
X201257142Y-149154819D02*
X201257142Y-148154819D01*
X202257142Y-149154819D02*
X201685714Y-149154819D01*
X201971428Y-149154819D02*
X201971428Y-148154819D01*
X201971428Y-148154819D02*
X201876190Y-148297676D01*
X201876190Y-148297676D02*
X201780952Y-148392914D01*
X201780952Y-148392914D02*
X201685714Y-148440533D01*
X203209523Y-149154819D02*
X202638095Y-149154819D01*
X202923809Y-149154819D02*
X202923809Y-148154819D01*
X202923809Y-148154819D02*
X202828571Y-148297676D01*
X202828571Y-148297676D02*
X202733333Y-148392914D01*
X202733333Y-148392914D02*
X202638095Y-148440533D01*
X204161904Y-149154819D02*
X203590476Y-149154819D01*
X203876190Y-149154819D02*
X203876190Y-148154819D01*
X203876190Y-148154819D02*
X203780952Y-148297676D01*
X203780952Y-148297676D02*
X203685714Y-148392914D01*
X203685714Y-148392914D02*
X203590476Y-148440533D01*
X176961905Y-110954819D02*
X176961905Y-109954819D01*
X176961905Y-109954819D02*
X177200000Y-109954819D01*
X177200000Y-109954819D02*
X177342857Y-110002438D01*
X177342857Y-110002438D02*
X177438095Y-110097676D01*
X177438095Y-110097676D02*
X177485714Y-110192914D01*
X177485714Y-110192914D02*
X177533333Y-110383390D01*
X177533333Y-110383390D02*
X177533333Y-110526247D01*
X177533333Y-110526247D02*
X177485714Y-110716723D01*
X177485714Y-110716723D02*
X177438095Y-110811961D01*
X177438095Y-110811961D02*
X177342857Y-110907200D01*
X177342857Y-110907200D02*
X177200000Y-110954819D01*
X177200000Y-110954819D02*
X176961905Y-110954819D01*
X178485714Y-110954819D02*
X177914286Y-110954819D01*
X178200000Y-110954819D02*
X178200000Y-109954819D01*
X178200000Y-109954819D02*
X178104762Y-110097676D01*
X178104762Y-110097676D02*
X178009524Y-110192914D01*
X178009524Y-110192914D02*
X177914286Y-110240533D01*
D12*
X181066667Y-83109800D02*
X181209524Y-83157419D01*
X181209524Y-83157419D02*
X181447619Y-83157419D01*
X181447619Y-83157419D02*
X181542857Y-83109800D01*
X181542857Y-83109800D02*
X181590476Y-83062180D01*
X181590476Y-83062180D02*
X181638095Y-82966942D01*
X181638095Y-82966942D02*
X181638095Y-82871704D01*
X181638095Y-82871704D02*
X181590476Y-82776466D01*
X181590476Y-82776466D02*
X181542857Y-82728847D01*
X181542857Y-82728847D02*
X181447619Y-82681228D01*
X181447619Y-82681228D02*
X181257143Y-82633609D01*
X181257143Y-82633609D02*
X181161905Y-82585990D01*
X181161905Y-82585990D02*
X181114286Y-82538371D01*
X181114286Y-82538371D02*
X181066667Y-82443133D01*
X181066667Y-82443133D02*
X181066667Y-82347895D01*
X181066667Y-82347895D02*
X181114286Y-82252657D01*
X181114286Y-82252657D02*
X181161905Y-82205038D01*
X181161905Y-82205038D02*
X181257143Y-82157419D01*
X181257143Y-82157419D02*
X181495238Y-82157419D01*
X181495238Y-82157419D02*
X181638095Y-82205038D01*
X181971429Y-82157419D02*
X182209524Y-83157419D01*
X182209524Y-83157419D02*
X182400000Y-82443133D01*
X182400000Y-82443133D02*
X182590476Y-83157419D01*
X182590476Y-83157419D02*
X182828572Y-82157419D01*
X183733333Y-83157419D02*
X183161905Y-83157419D01*
X183447619Y-83157419D02*
X183447619Y-82157419D01*
X183447619Y-82157419D02*
X183352381Y-82300276D01*
X183352381Y-82300276D02*
X183257143Y-82395514D01*
X183257143Y-82395514D02*
X183161905Y-82443133D01*
D11*
X182254819Y-127661904D02*
X183064342Y-127661904D01*
X183064342Y-127661904D02*
X183159580Y-127614285D01*
X183159580Y-127614285D02*
X183207200Y-127566666D01*
X183207200Y-127566666D02*
X183254819Y-127471428D01*
X183254819Y-127471428D02*
X183254819Y-127280952D01*
X183254819Y-127280952D02*
X183207200Y-127185714D01*
X183207200Y-127185714D02*
X183159580Y-127138095D01*
X183159580Y-127138095D02*
X183064342Y-127090476D01*
X183064342Y-127090476D02*
X182254819Y-127090476D01*
X182254819Y-126709523D02*
X182254819Y-126042857D01*
X182254819Y-126042857D02*
X183254819Y-126471428D01*
X176069104Y-129019047D02*
X176069104Y-128542857D01*
X176354819Y-129114285D02*
X175354819Y-128780952D01*
X175354819Y-128780952D02*
X176354819Y-128447619D01*
X176354819Y-127542857D02*
X175878628Y-127876190D01*
X176354819Y-128114285D02*
X175354819Y-128114285D01*
X175354819Y-128114285D02*
X175354819Y-127733333D01*
X175354819Y-127733333D02*
X175402438Y-127638095D01*
X175402438Y-127638095D02*
X175450057Y-127590476D01*
X175450057Y-127590476D02*
X175545295Y-127542857D01*
X175545295Y-127542857D02*
X175688152Y-127542857D01*
X175688152Y-127542857D02*
X175783390Y-127590476D01*
X175783390Y-127590476D02*
X175831009Y-127638095D01*
X175831009Y-127638095D02*
X175878628Y-127733333D01*
X175878628Y-127733333D02*
X175878628Y-128114285D01*
X176354819Y-127114285D02*
X175354819Y-127114285D01*
X175354819Y-127114285D02*
X176069104Y-126780952D01*
X176069104Y-126780952D02*
X175354819Y-126447619D01*
X175354819Y-126447619D02*
X176354819Y-126447619D01*
X176450057Y-126209524D02*
X176450057Y-125447619D01*
X176069104Y-125257142D02*
X176069104Y-124780952D01*
X176354819Y-125352380D02*
X175354819Y-125019047D01*
X175354819Y-125019047D02*
X176354819Y-124685714D01*
X190806239Y-133231636D02*
X190758620Y-133279256D01*
X190758620Y-133279256D02*
X190615763Y-133326875D01*
X190615763Y-133326875D02*
X190520525Y-133326875D01*
X190520525Y-133326875D02*
X190377668Y-133279256D01*
X190377668Y-133279256D02*
X190282430Y-133184017D01*
X190282430Y-133184017D02*
X190234811Y-133088779D01*
X190234811Y-133088779D02*
X190187192Y-132898303D01*
X190187192Y-132898303D02*
X190187192Y-132755446D01*
X190187192Y-132755446D02*
X190234811Y-132564970D01*
X190234811Y-132564970D02*
X190282430Y-132469732D01*
X190282430Y-132469732D02*
X190377668Y-132374494D01*
X190377668Y-132374494D02*
X190520525Y-132326875D01*
X190520525Y-132326875D02*
X190615763Y-132326875D01*
X190615763Y-132326875D02*
X190758620Y-132374494D01*
X190758620Y-132374494D02*
X190806239Y-132422113D01*
X191663382Y-132326875D02*
X191472906Y-132326875D01*
X191472906Y-132326875D02*
X191377668Y-132374494D01*
X191377668Y-132374494D02*
X191330049Y-132422113D01*
X191330049Y-132422113D02*
X191234811Y-132564970D01*
X191234811Y-132564970D02*
X191187192Y-132755446D01*
X191187192Y-132755446D02*
X191187192Y-133136398D01*
X191187192Y-133136398D02*
X191234811Y-133231636D01*
X191234811Y-133231636D02*
X191282430Y-133279256D01*
X191282430Y-133279256D02*
X191377668Y-133326875D01*
X191377668Y-133326875D02*
X191568144Y-133326875D01*
X191568144Y-133326875D02*
X191663382Y-133279256D01*
X191663382Y-133279256D02*
X191711001Y-133231636D01*
X191711001Y-133231636D02*
X191758620Y-133136398D01*
X191758620Y-133136398D02*
X191758620Y-132898303D01*
X191758620Y-132898303D02*
X191711001Y-132803065D01*
X191711001Y-132803065D02*
X191663382Y-132755446D01*
X191663382Y-132755446D02*
X191568144Y-132707827D01*
X191568144Y-132707827D02*
X191377668Y-132707827D01*
X191377668Y-132707827D02*
X191282430Y-132755446D01*
X191282430Y-132755446D02*
X191234811Y-132803065D01*
X191234811Y-132803065D02*
X191187192Y-132898303D01*
X143559580Y-113742857D02*
X143607200Y-113790476D01*
X143607200Y-113790476D02*
X143654819Y-113933333D01*
X143654819Y-113933333D02*
X143654819Y-114028571D01*
X143654819Y-114028571D02*
X143607200Y-114171428D01*
X143607200Y-114171428D02*
X143511961Y-114266666D01*
X143511961Y-114266666D02*
X143416723Y-114314285D01*
X143416723Y-114314285D02*
X143226247Y-114361904D01*
X143226247Y-114361904D02*
X143083390Y-114361904D01*
X143083390Y-114361904D02*
X142892914Y-114314285D01*
X142892914Y-114314285D02*
X142797676Y-114266666D01*
X142797676Y-114266666D02*
X142702438Y-114171428D01*
X142702438Y-114171428D02*
X142654819Y-114028571D01*
X142654819Y-114028571D02*
X142654819Y-113933333D01*
X142654819Y-113933333D02*
X142702438Y-113790476D01*
X142702438Y-113790476D02*
X142750057Y-113742857D01*
X143654819Y-112790476D02*
X143654819Y-113361904D01*
X143654819Y-113076190D02*
X142654819Y-113076190D01*
X142654819Y-113076190D02*
X142797676Y-113171428D01*
X142797676Y-113171428D02*
X142892914Y-113266666D01*
X142892914Y-113266666D02*
X142940533Y-113361904D01*
X142988152Y-111933333D02*
X143654819Y-111933333D01*
X142607200Y-112171428D02*
X143321485Y-112409523D01*
X143321485Y-112409523D02*
X143321485Y-111790476D01*
D12*
X168166667Y-83009800D02*
X168309524Y-83057419D01*
X168309524Y-83057419D02*
X168547619Y-83057419D01*
X168547619Y-83057419D02*
X168642857Y-83009800D01*
X168642857Y-83009800D02*
X168690476Y-82962180D01*
X168690476Y-82962180D02*
X168738095Y-82866942D01*
X168738095Y-82866942D02*
X168738095Y-82771704D01*
X168738095Y-82771704D02*
X168690476Y-82676466D01*
X168690476Y-82676466D02*
X168642857Y-82628847D01*
X168642857Y-82628847D02*
X168547619Y-82581228D01*
X168547619Y-82581228D02*
X168357143Y-82533609D01*
X168357143Y-82533609D02*
X168261905Y-82485990D01*
X168261905Y-82485990D02*
X168214286Y-82438371D01*
X168214286Y-82438371D02*
X168166667Y-82343133D01*
X168166667Y-82343133D02*
X168166667Y-82247895D01*
X168166667Y-82247895D02*
X168214286Y-82152657D01*
X168214286Y-82152657D02*
X168261905Y-82105038D01*
X168261905Y-82105038D02*
X168357143Y-82057419D01*
X168357143Y-82057419D02*
X168595238Y-82057419D01*
X168595238Y-82057419D02*
X168738095Y-82105038D01*
X169071429Y-82057419D02*
X169309524Y-83057419D01*
X169309524Y-83057419D02*
X169500000Y-82343133D01*
X169500000Y-82343133D02*
X169690476Y-83057419D01*
X169690476Y-83057419D02*
X169928572Y-82057419D01*
X170452381Y-82485990D02*
X170357143Y-82438371D01*
X170357143Y-82438371D02*
X170309524Y-82390752D01*
X170309524Y-82390752D02*
X170261905Y-82295514D01*
X170261905Y-82295514D02*
X170261905Y-82247895D01*
X170261905Y-82247895D02*
X170309524Y-82152657D01*
X170309524Y-82152657D02*
X170357143Y-82105038D01*
X170357143Y-82105038D02*
X170452381Y-82057419D01*
X170452381Y-82057419D02*
X170642857Y-82057419D01*
X170642857Y-82057419D02*
X170738095Y-82105038D01*
X170738095Y-82105038D02*
X170785714Y-82152657D01*
X170785714Y-82152657D02*
X170833333Y-82247895D01*
X170833333Y-82247895D02*
X170833333Y-82295514D01*
X170833333Y-82295514D02*
X170785714Y-82390752D01*
X170785714Y-82390752D02*
X170738095Y-82438371D01*
X170738095Y-82438371D02*
X170642857Y-82485990D01*
X170642857Y-82485990D02*
X170452381Y-82485990D01*
X170452381Y-82485990D02*
X170357143Y-82533609D01*
X170357143Y-82533609D02*
X170309524Y-82581228D01*
X170309524Y-82581228D02*
X170261905Y-82676466D01*
X170261905Y-82676466D02*
X170261905Y-82866942D01*
X170261905Y-82866942D02*
X170309524Y-82962180D01*
X170309524Y-82962180D02*
X170357143Y-83009800D01*
X170357143Y-83009800D02*
X170452381Y-83057419D01*
X170452381Y-83057419D02*
X170642857Y-83057419D01*
X170642857Y-83057419D02*
X170738095Y-83009800D01*
X170738095Y-83009800D02*
X170785714Y-82962180D01*
X170785714Y-82962180D02*
X170833333Y-82866942D01*
X170833333Y-82866942D02*
X170833333Y-82676466D01*
X170833333Y-82676466D02*
X170785714Y-82581228D01*
X170785714Y-82581228D02*
X170738095Y-82533609D01*
X170738095Y-82533609D02*
X170642857Y-82485990D01*
D11*
X138831009Y-131235714D02*
X138878628Y-131092857D01*
X138878628Y-131092857D02*
X138926247Y-131045238D01*
X138926247Y-131045238D02*
X139021485Y-130997619D01*
X139021485Y-130997619D02*
X139164342Y-130997619D01*
X139164342Y-130997619D02*
X139259580Y-131045238D01*
X139259580Y-131045238D02*
X139307200Y-131092857D01*
X139307200Y-131092857D02*
X139354819Y-131188095D01*
X139354819Y-131188095D02*
X139354819Y-131569047D01*
X139354819Y-131569047D02*
X138354819Y-131569047D01*
X138354819Y-131569047D02*
X138354819Y-131235714D01*
X138354819Y-131235714D02*
X138402438Y-131140476D01*
X138402438Y-131140476D02*
X138450057Y-131092857D01*
X138450057Y-131092857D02*
X138545295Y-131045238D01*
X138545295Y-131045238D02*
X138640533Y-131045238D01*
X138640533Y-131045238D02*
X138735771Y-131092857D01*
X138735771Y-131092857D02*
X138783390Y-131140476D01*
X138783390Y-131140476D02*
X138831009Y-131235714D01*
X138831009Y-131235714D02*
X138831009Y-131569047D01*
X138354819Y-130711904D02*
X138354819Y-130140476D01*
X139354819Y-130426190D02*
X138354819Y-130426190D01*
X139354819Y-129283333D02*
X139354819Y-129854761D01*
X139354819Y-129569047D02*
X138354819Y-129569047D01*
X138354819Y-129569047D02*
X138497676Y-129664285D01*
X138497676Y-129664285D02*
X138592914Y-129759523D01*
X138592914Y-129759523D02*
X138640533Y-129854761D01*
X183454198Y-107756636D02*
X183406579Y-107804256D01*
X183406579Y-107804256D02*
X183263722Y-107851875D01*
X183263722Y-107851875D02*
X183168484Y-107851875D01*
X183168484Y-107851875D02*
X183025627Y-107804256D01*
X183025627Y-107804256D02*
X182930389Y-107709017D01*
X182930389Y-107709017D02*
X182882770Y-107613779D01*
X182882770Y-107613779D02*
X182835151Y-107423303D01*
X182835151Y-107423303D02*
X182835151Y-107280446D01*
X182835151Y-107280446D02*
X182882770Y-107089970D01*
X182882770Y-107089970D02*
X182930389Y-106994732D01*
X182930389Y-106994732D02*
X183025627Y-106899494D01*
X183025627Y-106899494D02*
X183168484Y-106851875D01*
X183168484Y-106851875D02*
X183263722Y-106851875D01*
X183263722Y-106851875D02*
X183406579Y-106899494D01*
X183406579Y-106899494D02*
X183454198Y-106947113D01*
X183835151Y-106947113D02*
X183882770Y-106899494D01*
X183882770Y-106899494D02*
X183978008Y-106851875D01*
X183978008Y-106851875D02*
X184216103Y-106851875D01*
X184216103Y-106851875D02*
X184311341Y-106899494D01*
X184311341Y-106899494D02*
X184358960Y-106947113D01*
X184358960Y-106947113D02*
X184406579Y-107042351D01*
X184406579Y-107042351D02*
X184406579Y-107137589D01*
X184406579Y-107137589D02*
X184358960Y-107280446D01*
X184358960Y-107280446D02*
X183787532Y-107851875D01*
X183787532Y-107851875D02*
X184406579Y-107851875D01*
X185263722Y-106851875D02*
X185073246Y-106851875D01*
X185073246Y-106851875D02*
X184978008Y-106899494D01*
X184978008Y-106899494D02*
X184930389Y-106947113D01*
X184930389Y-106947113D02*
X184835151Y-107089970D01*
X184835151Y-107089970D02*
X184787532Y-107280446D01*
X184787532Y-107280446D02*
X184787532Y-107661398D01*
X184787532Y-107661398D02*
X184835151Y-107756636D01*
X184835151Y-107756636D02*
X184882770Y-107804256D01*
X184882770Y-107804256D02*
X184978008Y-107851875D01*
X184978008Y-107851875D02*
X185168484Y-107851875D01*
X185168484Y-107851875D02*
X185263722Y-107804256D01*
X185263722Y-107804256D02*
X185311341Y-107756636D01*
X185311341Y-107756636D02*
X185358960Y-107661398D01*
X185358960Y-107661398D02*
X185358960Y-107423303D01*
X185358960Y-107423303D02*
X185311341Y-107328065D01*
X185311341Y-107328065D02*
X185263722Y-107280446D01*
X185263722Y-107280446D02*
X185168484Y-107232827D01*
X185168484Y-107232827D02*
X184978008Y-107232827D01*
X184978008Y-107232827D02*
X184882770Y-107280446D01*
X184882770Y-107280446D02*
X184835151Y-107328065D01*
X184835151Y-107328065D02*
X184787532Y-107423303D01*
X184533333Y-129154819D02*
X184200000Y-128678628D01*
X183961905Y-129154819D02*
X183961905Y-128154819D01*
X183961905Y-128154819D02*
X184342857Y-128154819D01*
X184342857Y-128154819D02*
X184438095Y-128202438D01*
X184438095Y-128202438D02*
X184485714Y-128250057D01*
X184485714Y-128250057D02*
X184533333Y-128345295D01*
X184533333Y-128345295D02*
X184533333Y-128488152D01*
X184533333Y-128488152D02*
X184485714Y-128583390D01*
X184485714Y-128583390D02*
X184438095Y-128631009D01*
X184438095Y-128631009D02*
X184342857Y-128678628D01*
X184342857Y-128678628D02*
X183961905Y-128678628D01*
X185390476Y-128154819D02*
X185200000Y-128154819D01*
X185200000Y-128154819D02*
X185104762Y-128202438D01*
X185104762Y-128202438D02*
X185057143Y-128250057D01*
X185057143Y-128250057D02*
X184961905Y-128392914D01*
X184961905Y-128392914D02*
X184914286Y-128583390D01*
X184914286Y-128583390D02*
X184914286Y-128964342D01*
X184914286Y-128964342D02*
X184961905Y-129059580D01*
X184961905Y-129059580D02*
X185009524Y-129107200D01*
X185009524Y-129107200D02*
X185104762Y-129154819D01*
X185104762Y-129154819D02*
X185295238Y-129154819D01*
X185295238Y-129154819D02*
X185390476Y-129107200D01*
X185390476Y-129107200D02*
X185438095Y-129059580D01*
X185438095Y-129059580D02*
X185485714Y-128964342D01*
X185485714Y-128964342D02*
X185485714Y-128726247D01*
X185485714Y-128726247D02*
X185438095Y-128631009D01*
X185438095Y-128631009D02*
X185390476Y-128583390D01*
X185390476Y-128583390D02*
X185295238Y-128535771D01*
X185295238Y-128535771D02*
X185104762Y-128535771D01*
X185104762Y-128535771D02*
X185009524Y-128583390D01*
X185009524Y-128583390D02*
X184961905Y-128631009D01*
X184961905Y-128631009D02*
X184914286Y-128726247D01*
X186733333Y-115054819D02*
X186400000Y-114578628D01*
X186161905Y-115054819D02*
X186161905Y-114054819D01*
X186161905Y-114054819D02*
X186542857Y-114054819D01*
X186542857Y-114054819D02*
X186638095Y-114102438D01*
X186638095Y-114102438D02*
X186685714Y-114150057D01*
X186685714Y-114150057D02*
X186733333Y-114245295D01*
X186733333Y-114245295D02*
X186733333Y-114388152D01*
X186733333Y-114388152D02*
X186685714Y-114483390D01*
X186685714Y-114483390D02*
X186638095Y-114531009D01*
X186638095Y-114531009D02*
X186542857Y-114578628D01*
X186542857Y-114578628D02*
X186161905Y-114578628D01*
X187638095Y-114054819D02*
X187161905Y-114054819D01*
X187161905Y-114054819D02*
X187114286Y-114531009D01*
X187114286Y-114531009D02*
X187161905Y-114483390D01*
X187161905Y-114483390D02*
X187257143Y-114435771D01*
X187257143Y-114435771D02*
X187495238Y-114435771D01*
X187495238Y-114435771D02*
X187590476Y-114483390D01*
X187590476Y-114483390D02*
X187638095Y-114531009D01*
X187638095Y-114531009D02*
X187685714Y-114626247D01*
X187685714Y-114626247D02*
X187685714Y-114864342D01*
X187685714Y-114864342D02*
X187638095Y-114959580D01*
X187638095Y-114959580D02*
X187590476Y-115007200D01*
X187590476Y-115007200D02*
X187495238Y-115054819D01*
X187495238Y-115054819D02*
X187257143Y-115054819D01*
X187257143Y-115054819D02*
X187161905Y-115007200D01*
X187161905Y-115007200D02*
X187114286Y-114959580D01*
X187959580Y-87442857D02*
X188007200Y-87490476D01*
X188007200Y-87490476D02*
X188054819Y-87633333D01*
X188054819Y-87633333D02*
X188054819Y-87728571D01*
X188054819Y-87728571D02*
X188007200Y-87871428D01*
X188007200Y-87871428D02*
X187911961Y-87966666D01*
X187911961Y-87966666D02*
X187816723Y-88014285D01*
X187816723Y-88014285D02*
X187626247Y-88061904D01*
X187626247Y-88061904D02*
X187483390Y-88061904D01*
X187483390Y-88061904D02*
X187292914Y-88014285D01*
X187292914Y-88014285D02*
X187197676Y-87966666D01*
X187197676Y-87966666D02*
X187102438Y-87871428D01*
X187102438Y-87871428D02*
X187054819Y-87728571D01*
X187054819Y-87728571D02*
X187054819Y-87633333D01*
X187054819Y-87633333D02*
X187102438Y-87490476D01*
X187102438Y-87490476D02*
X187150057Y-87442857D01*
X187150057Y-87061904D02*
X187102438Y-87014285D01*
X187102438Y-87014285D02*
X187054819Y-86919047D01*
X187054819Y-86919047D02*
X187054819Y-86680952D01*
X187054819Y-86680952D02*
X187102438Y-86585714D01*
X187102438Y-86585714D02*
X187150057Y-86538095D01*
X187150057Y-86538095D02*
X187245295Y-86490476D01*
X187245295Y-86490476D02*
X187340533Y-86490476D01*
X187340533Y-86490476D02*
X187483390Y-86538095D01*
X187483390Y-86538095D02*
X188054819Y-87109523D01*
X188054819Y-87109523D02*
X188054819Y-86490476D01*
X187054819Y-85871428D02*
X187054819Y-85776190D01*
X187054819Y-85776190D02*
X187102438Y-85680952D01*
X187102438Y-85680952D02*
X187150057Y-85633333D01*
X187150057Y-85633333D02*
X187245295Y-85585714D01*
X187245295Y-85585714D02*
X187435771Y-85538095D01*
X187435771Y-85538095D02*
X187673866Y-85538095D01*
X187673866Y-85538095D02*
X187864342Y-85585714D01*
X187864342Y-85585714D02*
X187959580Y-85633333D01*
X187959580Y-85633333D02*
X188007200Y-85680952D01*
X188007200Y-85680952D02*
X188054819Y-85776190D01*
X188054819Y-85776190D02*
X188054819Y-85871428D01*
X188054819Y-85871428D02*
X188007200Y-85966666D01*
X188007200Y-85966666D02*
X187959580Y-86014285D01*
X187959580Y-86014285D02*
X187864342Y-86061904D01*
X187864342Y-86061904D02*
X187673866Y-86109523D01*
X187673866Y-86109523D02*
X187435771Y-86109523D01*
X187435771Y-86109523D02*
X187245295Y-86061904D01*
X187245295Y-86061904D02*
X187150057Y-86014285D01*
X187150057Y-86014285D02*
X187102438Y-85966666D01*
X187102438Y-85966666D02*
X187054819Y-85871428D01*
X158859580Y-116842857D02*
X158907200Y-116890476D01*
X158907200Y-116890476D02*
X158954819Y-117033333D01*
X158954819Y-117033333D02*
X158954819Y-117128571D01*
X158954819Y-117128571D02*
X158907200Y-117271428D01*
X158907200Y-117271428D02*
X158811961Y-117366666D01*
X158811961Y-117366666D02*
X158716723Y-117414285D01*
X158716723Y-117414285D02*
X158526247Y-117461904D01*
X158526247Y-117461904D02*
X158383390Y-117461904D01*
X158383390Y-117461904D02*
X158192914Y-117414285D01*
X158192914Y-117414285D02*
X158097676Y-117366666D01*
X158097676Y-117366666D02*
X158002438Y-117271428D01*
X158002438Y-117271428D02*
X157954819Y-117128571D01*
X157954819Y-117128571D02*
X157954819Y-117033333D01*
X157954819Y-117033333D02*
X158002438Y-116890476D01*
X158002438Y-116890476D02*
X158050057Y-116842857D01*
X158954819Y-115890476D02*
X158954819Y-116461904D01*
X158954819Y-116176190D02*
X157954819Y-116176190D01*
X157954819Y-116176190D02*
X158097676Y-116271428D01*
X158097676Y-116271428D02*
X158192914Y-116366666D01*
X158192914Y-116366666D02*
X158240533Y-116461904D01*
X157954819Y-115271428D02*
X157954819Y-115176190D01*
X157954819Y-115176190D02*
X158002438Y-115080952D01*
X158002438Y-115080952D02*
X158050057Y-115033333D01*
X158050057Y-115033333D02*
X158145295Y-114985714D01*
X158145295Y-114985714D02*
X158335771Y-114938095D01*
X158335771Y-114938095D02*
X158573866Y-114938095D01*
X158573866Y-114938095D02*
X158764342Y-114985714D01*
X158764342Y-114985714D02*
X158859580Y-115033333D01*
X158859580Y-115033333D02*
X158907200Y-115080952D01*
X158907200Y-115080952D02*
X158954819Y-115176190D01*
X158954819Y-115176190D02*
X158954819Y-115271428D01*
X158954819Y-115271428D02*
X158907200Y-115366666D01*
X158907200Y-115366666D02*
X158859580Y-115414285D01*
X158859580Y-115414285D02*
X158764342Y-115461904D01*
X158764342Y-115461904D02*
X158573866Y-115509523D01*
X158573866Y-115509523D02*
X158335771Y-115509523D01*
X158335771Y-115509523D02*
X158145295Y-115461904D01*
X158145295Y-115461904D02*
X158050057Y-115414285D01*
X158050057Y-115414285D02*
X158002438Y-115366666D01*
X158002438Y-115366666D02*
X157954819Y-115271428D01*
X190257142Y-129954819D02*
X189923809Y-129478628D01*
X189685714Y-129954819D02*
X189685714Y-128954819D01*
X189685714Y-128954819D02*
X190066666Y-128954819D01*
X190066666Y-128954819D02*
X190161904Y-129002438D01*
X190161904Y-129002438D02*
X190209523Y-129050057D01*
X190209523Y-129050057D02*
X190257142Y-129145295D01*
X190257142Y-129145295D02*
X190257142Y-129288152D01*
X190257142Y-129288152D02*
X190209523Y-129383390D01*
X190209523Y-129383390D02*
X190161904Y-129431009D01*
X190161904Y-129431009D02*
X190066666Y-129478628D01*
X190066666Y-129478628D02*
X189685714Y-129478628D01*
X191209523Y-129954819D02*
X190638095Y-129954819D01*
X190923809Y-129954819D02*
X190923809Y-128954819D01*
X190923809Y-128954819D02*
X190828571Y-129097676D01*
X190828571Y-129097676D02*
X190733333Y-129192914D01*
X190733333Y-129192914D02*
X190638095Y-129240533D01*
X192161904Y-129954819D02*
X191590476Y-129954819D01*
X191876190Y-129954819D02*
X191876190Y-128954819D01*
X191876190Y-128954819D02*
X191780952Y-129097676D01*
X191780952Y-129097676D02*
X191685714Y-129192914D01*
X191685714Y-129192914D02*
X191590476Y-129240533D01*
X166420865Y-94518084D02*
X166420865Y-94994275D01*
X166087532Y-93994275D02*
X166420865Y-94518084D01*
X166420865Y-94518084D02*
X166754198Y-93994275D01*
X167611341Y-94994275D02*
X167039913Y-94994275D01*
X167325627Y-94994275D02*
X167325627Y-93994275D01*
X167325627Y-93994275D02*
X167230389Y-94137132D01*
X167230389Y-94137132D02*
X167135151Y-94232370D01*
X167135151Y-94232370D02*
X167039913Y-94279989D01*
X166135151Y-91994275D02*
X165563723Y-91994275D01*
X165849437Y-91994275D02*
X165849437Y-90994275D01*
X165849437Y-90994275D02*
X165754199Y-91137132D01*
X165754199Y-91137132D02*
X165658961Y-91232370D01*
X165658961Y-91232370D02*
X165563723Y-91279989D01*
X166992294Y-90994275D02*
X166801818Y-90994275D01*
X166801818Y-90994275D02*
X166706580Y-91041894D01*
X166706580Y-91041894D02*
X166658961Y-91089513D01*
X166658961Y-91089513D02*
X166563723Y-91232370D01*
X166563723Y-91232370D02*
X166516104Y-91422846D01*
X166516104Y-91422846D02*
X166516104Y-91803798D01*
X166516104Y-91803798D02*
X166563723Y-91899036D01*
X166563723Y-91899036D02*
X166611342Y-91946656D01*
X166611342Y-91946656D02*
X166706580Y-91994275D01*
X166706580Y-91994275D02*
X166897056Y-91994275D01*
X166897056Y-91994275D02*
X166992294Y-91946656D01*
X166992294Y-91946656D02*
X167039913Y-91899036D01*
X167039913Y-91899036D02*
X167087532Y-91803798D01*
X167087532Y-91803798D02*
X167087532Y-91565703D01*
X167087532Y-91565703D02*
X167039913Y-91470465D01*
X167039913Y-91470465D02*
X166992294Y-91422846D01*
X166992294Y-91422846D02*
X166897056Y-91375227D01*
X166897056Y-91375227D02*
X166706580Y-91375227D01*
X166706580Y-91375227D02*
X166611342Y-91422846D01*
X166611342Y-91422846D02*
X166563723Y-91470465D01*
X166563723Y-91470465D02*
X166516104Y-91565703D01*
X167516104Y-91994275D02*
X167516104Y-90994275D01*
X167516104Y-90994275D02*
X167849437Y-91708560D01*
X167849437Y-91708560D02*
X168182770Y-90994275D01*
X168182770Y-90994275D02*
X168182770Y-91994275D01*
X166897056Y-92751875D02*
X166897056Y-92989970D01*
X166658961Y-92894732D02*
X166897056Y-92989970D01*
X166897056Y-92989970D02*
X167135151Y-92894732D01*
X166754199Y-93180446D02*
X166897056Y-92989970D01*
X166897056Y-92989970D02*
X167039913Y-93180446D01*
X171554819Y-127961904D02*
X172364342Y-127961904D01*
X172364342Y-127961904D02*
X172459580Y-127914285D01*
X172459580Y-127914285D02*
X172507200Y-127866666D01*
X172507200Y-127866666D02*
X172554819Y-127771428D01*
X172554819Y-127771428D02*
X172554819Y-127580952D01*
X172554819Y-127580952D02*
X172507200Y-127485714D01*
X172507200Y-127485714D02*
X172459580Y-127438095D01*
X172459580Y-127438095D02*
X172364342Y-127390476D01*
X172364342Y-127390476D02*
X171554819Y-127390476D01*
X171983390Y-126771428D02*
X171935771Y-126866666D01*
X171935771Y-126866666D02*
X171888152Y-126914285D01*
X171888152Y-126914285D02*
X171792914Y-126961904D01*
X171792914Y-126961904D02*
X171745295Y-126961904D01*
X171745295Y-126961904D02*
X171650057Y-126914285D01*
X171650057Y-126914285D02*
X171602438Y-126866666D01*
X171602438Y-126866666D02*
X171554819Y-126771428D01*
X171554819Y-126771428D02*
X171554819Y-126580952D01*
X171554819Y-126580952D02*
X171602438Y-126485714D01*
X171602438Y-126485714D02*
X171650057Y-126438095D01*
X171650057Y-126438095D02*
X171745295Y-126390476D01*
X171745295Y-126390476D02*
X171792914Y-126390476D01*
X171792914Y-126390476D02*
X171888152Y-126438095D01*
X171888152Y-126438095D02*
X171935771Y-126485714D01*
X171935771Y-126485714D02*
X171983390Y-126580952D01*
X171983390Y-126580952D02*
X171983390Y-126771428D01*
X171983390Y-126771428D02*
X172031009Y-126866666D01*
X172031009Y-126866666D02*
X172078628Y-126914285D01*
X172078628Y-126914285D02*
X172173866Y-126961904D01*
X172173866Y-126961904D02*
X172364342Y-126961904D01*
X172364342Y-126961904D02*
X172459580Y-126914285D01*
X172459580Y-126914285D02*
X172507200Y-126866666D01*
X172507200Y-126866666D02*
X172554819Y-126771428D01*
X172554819Y-126771428D02*
X172554819Y-126580952D01*
X172554819Y-126580952D02*
X172507200Y-126485714D01*
X172507200Y-126485714D02*
X172459580Y-126438095D01*
X172459580Y-126438095D02*
X172364342Y-126390476D01*
X172364342Y-126390476D02*
X172173866Y-126390476D01*
X172173866Y-126390476D02*
X172078628Y-126438095D01*
X172078628Y-126438095D02*
X172031009Y-126485714D01*
X172031009Y-126485714D02*
X171983390Y-126580952D01*
X173666160Y-129487531D02*
X173666160Y-129011341D01*
X173951875Y-129582769D02*
X172951875Y-129249436D01*
X172951875Y-129249436D02*
X173951875Y-128916103D01*
X173951875Y-128011341D02*
X173475684Y-128344674D01*
X173951875Y-128582769D02*
X172951875Y-128582769D01*
X172951875Y-128582769D02*
X172951875Y-128201817D01*
X172951875Y-128201817D02*
X172999494Y-128106579D01*
X172999494Y-128106579D02*
X173047113Y-128058960D01*
X173047113Y-128058960D02*
X173142351Y-128011341D01*
X173142351Y-128011341D02*
X173285208Y-128011341D01*
X173285208Y-128011341D02*
X173380446Y-128058960D01*
X173380446Y-128058960D02*
X173428065Y-128106579D01*
X173428065Y-128106579D02*
X173475684Y-128201817D01*
X173475684Y-128201817D02*
X173475684Y-128582769D01*
X173951875Y-127582769D02*
X172951875Y-127582769D01*
X172951875Y-127582769D02*
X173666160Y-127249436D01*
X173666160Y-127249436D02*
X172951875Y-126916103D01*
X172951875Y-126916103D02*
X173951875Y-126916103D01*
X174047113Y-126678008D02*
X174047113Y-125916103D01*
X173428065Y-125344674D02*
X173475684Y-125201817D01*
X173475684Y-125201817D02*
X173523303Y-125154198D01*
X173523303Y-125154198D02*
X173618541Y-125106579D01*
X173618541Y-125106579D02*
X173761398Y-125106579D01*
X173761398Y-125106579D02*
X173856636Y-125154198D01*
X173856636Y-125154198D02*
X173904256Y-125201817D01*
X173904256Y-125201817D02*
X173951875Y-125297055D01*
X173951875Y-125297055D02*
X173951875Y-125678007D01*
X173951875Y-125678007D02*
X172951875Y-125678007D01*
X172951875Y-125678007D02*
X172951875Y-125344674D01*
X172951875Y-125344674D02*
X172999494Y-125249436D01*
X172999494Y-125249436D02*
X173047113Y-125201817D01*
X173047113Y-125201817D02*
X173142351Y-125154198D01*
X173142351Y-125154198D02*
X173237589Y-125154198D01*
X173237589Y-125154198D02*
X173332827Y-125201817D01*
X173332827Y-125201817D02*
X173380446Y-125249436D01*
X173380446Y-125249436D02*
X173428065Y-125344674D01*
X173428065Y-125344674D02*
X173428065Y-125678007D01*
X143154819Y-120261904D02*
X143964342Y-120261904D01*
X143964342Y-120261904D02*
X144059580Y-120214285D01*
X144059580Y-120214285D02*
X144107200Y-120166666D01*
X144107200Y-120166666D02*
X144154819Y-120071428D01*
X144154819Y-120071428D02*
X144154819Y-119880952D01*
X144154819Y-119880952D02*
X144107200Y-119785714D01*
X144107200Y-119785714D02*
X144059580Y-119738095D01*
X144059580Y-119738095D02*
X143964342Y-119690476D01*
X143964342Y-119690476D02*
X143154819Y-119690476D01*
X143250057Y-119261904D02*
X143202438Y-119214285D01*
X143202438Y-119214285D02*
X143154819Y-119119047D01*
X143154819Y-119119047D02*
X143154819Y-118880952D01*
X143154819Y-118880952D02*
X143202438Y-118785714D01*
X143202438Y-118785714D02*
X143250057Y-118738095D01*
X143250057Y-118738095D02*
X143345295Y-118690476D01*
X143345295Y-118690476D02*
X143440533Y-118690476D01*
X143440533Y-118690476D02*
X143583390Y-118738095D01*
X143583390Y-118738095D02*
X144154819Y-119309523D01*
X144154819Y-119309523D02*
X144154819Y-118690476D01*
X140257763Y-122602943D02*
X140495858Y-122602943D01*
X140400620Y-122841038D02*
X140495858Y-122602943D01*
X140495858Y-122602943D02*
X140400620Y-122364848D01*
X140686334Y-122745800D02*
X140495858Y-122602943D01*
X140495858Y-122602943D02*
X140686334Y-122460086D01*
X196366666Y-137254819D02*
X196366666Y-137969104D01*
X196366666Y-137969104D02*
X196319047Y-138111961D01*
X196319047Y-138111961D02*
X196223809Y-138207200D01*
X196223809Y-138207200D02*
X196080952Y-138254819D01*
X196080952Y-138254819D02*
X195985714Y-138254819D01*
X197319047Y-137254819D02*
X196842857Y-137254819D01*
X196842857Y-137254819D02*
X196795238Y-137731009D01*
X196795238Y-137731009D02*
X196842857Y-137683390D01*
X196842857Y-137683390D02*
X196938095Y-137635771D01*
X196938095Y-137635771D02*
X197176190Y-137635771D01*
X197176190Y-137635771D02*
X197271428Y-137683390D01*
X197271428Y-137683390D02*
X197319047Y-137731009D01*
X197319047Y-137731009D02*
X197366666Y-137826247D01*
X197366666Y-137826247D02*
X197366666Y-138064342D01*
X197366666Y-138064342D02*
X197319047Y-138159580D01*
X197319047Y-138159580D02*
X197271428Y-138207200D01*
X197271428Y-138207200D02*
X197176190Y-138254819D01*
X197176190Y-138254819D02*
X196938095Y-138254819D01*
X196938095Y-138254819D02*
X196842857Y-138207200D01*
X196842857Y-138207200D02*
X196795238Y-138159580D01*
X158716666Y-145529819D02*
X158716666Y-146244104D01*
X158716666Y-146244104D02*
X158669047Y-146386961D01*
X158669047Y-146386961D02*
X158573809Y-146482200D01*
X158573809Y-146482200D02*
X158430952Y-146529819D01*
X158430952Y-146529819D02*
X158335714Y-146529819D01*
X159097619Y-145529819D02*
X159716666Y-145529819D01*
X159716666Y-145529819D02*
X159383333Y-145910771D01*
X159383333Y-145910771D02*
X159526190Y-145910771D01*
X159526190Y-145910771D02*
X159621428Y-145958390D01*
X159621428Y-145958390D02*
X159669047Y-146006009D01*
X159669047Y-146006009D02*
X159716666Y-146101247D01*
X159716666Y-146101247D02*
X159716666Y-146339342D01*
X159716666Y-146339342D02*
X159669047Y-146434580D01*
X159669047Y-146434580D02*
X159621428Y-146482200D01*
X159621428Y-146482200D02*
X159526190Y-146529819D01*
X159526190Y-146529819D02*
X159240476Y-146529819D01*
X159240476Y-146529819D02*
X159145238Y-146482200D01*
X159145238Y-146482200D02*
X159097619Y-146434580D01*
X174754198Y-86516636D02*
X174706579Y-86564256D01*
X174706579Y-86564256D02*
X174563722Y-86611875D01*
X174563722Y-86611875D02*
X174468484Y-86611875D01*
X174468484Y-86611875D02*
X174325627Y-86564256D01*
X174325627Y-86564256D02*
X174230389Y-86469017D01*
X174230389Y-86469017D02*
X174182770Y-86373779D01*
X174182770Y-86373779D02*
X174135151Y-86183303D01*
X174135151Y-86183303D02*
X174135151Y-86040446D01*
X174135151Y-86040446D02*
X174182770Y-85849970D01*
X174182770Y-85849970D02*
X174230389Y-85754732D01*
X174230389Y-85754732D02*
X174325627Y-85659494D01*
X174325627Y-85659494D02*
X174468484Y-85611875D01*
X174468484Y-85611875D02*
X174563722Y-85611875D01*
X174563722Y-85611875D02*
X174706579Y-85659494D01*
X174706579Y-85659494D02*
X174754198Y-85707113D01*
X175087532Y-85611875D02*
X175706579Y-85611875D01*
X175706579Y-85611875D02*
X175373246Y-85992827D01*
X175373246Y-85992827D02*
X175516103Y-85992827D01*
X175516103Y-85992827D02*
X175611341Y-86040446D01*
X175611341Y-86040446D02*
X175658960Y-86088065D01*
X175658960Y-86088065D02*
X175706579Y-86183303D01*
X175706579Y-86183303D02*
X175706579Y-86421398D01*
X175706579Y-86421398D02*
X175658960Y-86516636D01*
X175658960Y-86516636D02*
X175611341Y-86564256D01*
X175611341Y-86564256D02*
X175516103Y-86611875D01*
X175516103Y-86611875D02*
X175230389Y-86611875D01*
X175230389Y-86611875D02*
X175135151Y-86564256D01*
X175135151Y-86564256D02*
X175087532Y-86516636D01*
X176182770Y-86611875D02*
X176373246Y-86611875D01*
X176373246Y-86611875D02*
X176468484Y-86564256D01*
X176468484Y-86564256D02*
X176516103Y-86516636D01*
X176516103Y-86516636D02*
X176611341Y-86373779D01*
X176611341Y-86373779D02*
X176658960Y-86183303D01*
X176658960Y-86183303D02*
X176658960Y-85802351D01*
X176658960Y-85802351D02*
X176611341Y-85707113D01*
X176611341Y-85707113D02*
X176563722Y-85659494D01*
X176563722Y-85659494D02*
X176468484Y-85611875D01*
X176468484Y-85611875D02*
X176278008Y-85611875D01*
X176278008Y-85611875D02*
X176182770Y-85659494D01*
X176182770Y-85659494D02*
X176135151Y-85707113D01*
X176135151Y-85707113D02*
X176087532Y-85802351D01*
X176087532Y-85802351D02*
X176087532Y-86040446D01*
X176087532Y-86040446D02*
X176135151Y-86135684D01*
X176135151Y-86135684D02*
X176182770Y-86183303D01*
X176182770Y-86183303D02*
X176278008Y-86230922D01*
X176278008Y-86230922D02*
X176468484Y-86230922D01*
X176468484Y-86230922D02*
X176563722Y-86183303D01*
X176563722Y-86183303D02*
X176611341Y-86135684D01*
X176611341Y-86135684D02*
X176658960Y-86040446D01*
X170338095Y-106354819D02*
X170338095Y-107164342D01*
X170338095Y-107164342D02*
X170385714Y-107259580D01*
X170385714Y-107259580D02*
X170433333Y-107307200D01*
X170433333Y-107307200D02*
X170528571Y-107354819D01*
X170528571Y-107354819D02*
X170719047Y-107354819D01*
X170719047Y-107354819D02*
X170814285Y-107307200D01*
X170814285Y-107307200D02*
X170861904Y-107259580D01*
X170861904Y-107259580D02*
X170909523Y-107164342D01*
X170909523Y-107164342D02*
X170909523Y-106354819D01*
X171861904Y-106354819D02*
X171385714Y-106354819D01*
X171385714Y-106354819D02*
X171338095Y-106831009D01*
X171338095Y-106831009D02*
X171385714Y-106783390D01*
X171385714Y-106783390D02*
X171480952Y-106735771D01*
X171480952Y-106735771D02*
X171719047Y-106735771D01*
X171719047Y-106735771D02*
X171814285Y-106783390D01*
X171814285Y-106783390D02*
X171861904Y-106831009D01*
X171861904Y-106831009D02*
X171909523Y-106926247D01*
X171909523Y-106926247D02*
X171909523Y-107164342D01*
X171909523Y-107164342D02*
X171861904Y-107259580D01*
X171861904Y-107259580D02*
X171814285Y-107307200D01*
X171814285Y-107307200D02*
X171719047Y-107354819D01*
X171719047Y-107354819D02*
X171480952Y-107354819D01*
X171480952Y-107354819D02*
X171385714Y-107307200D01*
X171385714Y-107307200D02*
X171338095Y-107259580D01*
X203904198Y-111716636D02*
X203856579Y-111764256D01*
X203856579Y-111764256D02*
X203713722Y-111811875D01*
X203713722Y-111811875D02*
X203618484Y-111811875D01*
X203618484Y-111811875D02*
X203475627Y-111764256D01*
X203475627Y-111764256D02*
X203380389Y-111669017D01*
X203380389Y-111669017D02*
X203332770Y-111573779D01*
X203332770Y-111573779D02*
X203285151Y-111383303D01*
X203285151Y-111383303D02*
X203285151Y-111240446D01*
X203285151Y-111240446D02*
X203332770Y-111049970D01*
X203332770Y-111049970D02*
X203380389Y-110954732D01*
X203380389Y-110954732D02*
X203475627Y-110859494D01*
X203475627Y-110859494D02*
X203618484Y-110811875D01*
X203618484Y-110811875D02*
X203713722Y-110811875D01*
X203713722Y-110811875D02*
X203856579Y-110859494D01*
X203856579Y-110859494D02*
X203904198Y-110907113D01*
X204237532Y-110811875D02*
X204856579Y-110811875D01*
X204856579Y-110811875D02*
X204523246Y-111192827D01*
X204523246Y-111192827D02*
X204666103Y-111192827D01*
X204666103Y-111192827D02*
X204761341Y-111240446D01*
X204761341Y-111240446D02*
X204808960Y-111288065D01*
X204808960Y-111288065D02*
X204856579Y-111383303D01*
X204856579Y-111383303D02*
X204856579Y-111621398D01*
X204856579Y-111621398D02*
X204808960Y-111716636D01*
X204808960Y-111716636D02*
X204761341Y-111764256D01*
X204761341Y-111764256D02*
X204666103Y-111811875D01*
X204666103Y-111811875D02*
X204380389Y-111811875D01*
X204380389Y-111811875D02*
X204285151Y-111764256D01*
X204285151Y-111764256D02*
X204237532Y-111716636D01*
X205428008Y-111240446D02*
X205332770Y-111192827D01*
X205332770Y-111192827D02*
X205285151Y-111145208D01*
X205285151Y-111145208D02*
X205237532Y-111049970D01*
X205237532Y-111049970D02*
X205237532Y-111002351D01*
X205237532Y-111002351D02*
X205285151Y-110907113D01*
X205285151Y-110907113D02*
X205332770Y-110859494D01*
X205332770Y-110859494D02*
X205428008Y-110811875D01*
X205428008Y-110811875D02*
X205618484Y-110811875D01*
X205618484Y-110811875D02*
X205713722Y-110859494D01*
X205713722Y-110859494D02*
X205761341Y-110907113D01*
X205761341Y-110907113D02*
X205808960Y-111002351D01*
X205808960Y-111002351D02*
X205808960Y-111049970D01*
X205808960Y-111049970D02*
X205761341Y-111145208D01*
X205761341Y-111145208D02*
X205713722Y-111192827D01*
X205713722Y-111192827D02*
X205618484Y-111240446D01*
X205618484Y-111240446D02*
X205428008Y-111240446D01*
X205428008Y-111240446D02*
X205332770Y-111288065D01*
X205332770Y-111288065D02*
X205285151Y-111335684D01*
X205285151Y-111335684D02*
X205237532Y-111430922D01*
X205237532Y-111430922D02*
X205237532Y-111621398D01*
X205237532Y-111621398D02*
X205285151Y-111716636D01*
X205285151Y-111716636D02*
X205332770Y-111764256D01*
X205332770Y-111764256D02*
X205428008Y-111811875D01*
X205428008Y-111811875D02*
X205618484Y-111811875D01*
X205618484Y-111811875D02*
X205713722Y-111764256D01*
X205713722Y-111764256D02*
X205761341Y-111716636D01*
X205761341Y-111716636D02*
X205808960Y-111621398D01*
X205808960Y-111621398D02*
X205808960Y-111430922D01*
X205808960Y-111430922D02*
X205761341Y-111335684D01*
X205761341Y-111335684D02*
X205713722Y-111288065D01*
X205713722Y-111288065D02*
X205618484Y-111240446D01*
X193159580Y-94842857D02*
X193207200Y-94890476D01*
X193207200Y-94890476D02*
X193254819Y-95033333D01*
X193254819Y-95033333D02*
X193254819Y-95128571D01*
X193254819Y-95128571D02*
X193207200Y-95271428D01*
X193207200Y-95271428D02*
X193111961Y-95366666D01*
X193111961Y-95366666D02*
X193016723Y-95414285D01*
X193016723Y-95414285D02*
X192826247Y-95461904D01*
X192826247Y-95461904D02*
X192683390Y-95461904D01*
X192683390Y-95461904D02*
X192492914Y-95414285D01*
X192492914Y-95414285D02*
X192397676Y-95366666D01*
X192397676Y-95366666D02*
X192302438Y-95271428D01*
X192302438Y-95271428D02*
X192254819Y-95128571D01*
X192254819Y-95128571D02*
X192254819Y-95033333D01*
X192254819Y-95033333D02*
X192302438Y-94890476D01*
X192302438Y-94890476D02*
X192350057Y-94842857D01*
X192254819Y-94509523D02*
X192254819Y-93890476D01*
X192254819Y-93890476D02*
X192635771Y-94223809D01*
X192635771Y-94223809D02*
X192635771Y-94080952D01*
X192635771Y-94080952D02*
X192683390Y-93985714D01*
X192683390Y-93985714D02*
X192731009Y-93938095D01*
X192731009Y-93938095D02*
X192826247Y-93890476D01*
X192826247Y-93890476D02*
X193064342Y-93890476D01*
X193064342Y-93890476D02*
X193159580Y-93938095D01*
X193159580Y-93938095D02*
X193207200Y-93985714D01*
X193207200Y-93985714D02*
X193254819Y-94080952D01*
X193254819Y-94080952D02*
X193254819Y-94366666D01*
X193254819Y-94366666D02*
X193207200Y-94461904D01*
X193207200Y-94461904D02*
X193159580Y-94509523D01*
X192254819Y-93271428D02*
X192254819Y-93176190D01*
X192254819Y-93176190D02*
X192302438Y-93080952D01*
X192302438Y-93080952D02*
X192350057Y-93033333D01*
X192350057Y-93033333D02*
X192445295Y-92985714D01*
X192445295Y-92985714D02*
X192635771Y-92938095D01*
X192635771Y-92938095D02*
X192873866Y-92938095D01*
X192873866Y-92938095D02*
X193064342Y-92985714D01*
X193064342Y-92985714D02*
X193159580Y-93033333D01*
X193159580Y-93033333D02*
X193207200Y-93080952D01*
X193207200Y-93080952D02*
X193254819Y-93176190D01*
X193254819Y-93176190D02*
X193254819Y-93271428D01*
X193254819Y-93271428D02*
X193207200Y-93366666D01*
X193207200Y-93366666D02*
X193159580Y-93414285D01*
X193159580Y-93414285D02*
X193064342Y-93461904D01*
X193064342Y-93461904D02*
X192873866Y-93509523D01*
X192873866Y-93509523D02*
X192635771Y-93509523D01*
X192635771Y-93509523D02*
X192445295Y-93461904D01*
X192445295Y-93461904D02*
X192350057Y-93414285D01*
X192350057Y-93414285D02*
X192302438Y-93366666D01*
X192302438Y-93366666D02*
X192254819Y-93271428D01*
X185761905Y-126454819D02*
X185761905Y-125454819D01*
X185761905Y-125454819D02*
X186000000Y-125454819D01*
X186000000Y-125454819D02*
X186142857Y-125502438D01*
X186142857Y-125502438D02*
X186238095Y-125597676D01*
X186238095Y-125597676D02*
X186285714Y-125692914D01*
X186285714Y-125692914D02*
X186333333Y-125883390D01*
X186333333Y-125883390D02*
X186333333Y-126026247D01*
X186333333Y-126026247D02*
X186285714Y-126216723D01*
X186285714Y-126216723D02*
X186238095Y-126311961D01*
X186238095Y-126311961D02*
X186142857Y-126407200D01*
X186142857Y-126407200D02*
X186000000Y-126454819D01*
X186000000Y-126454819D02*
X185761905Y-126454819D01*
X186666667Y-125454819D02*
X187285714Y-125454819D01*
X187285714Y-125454819D02*
X186952381Y-125835771D01*
X186952381Y-125835771D02*
X187095238Y-125835771D01*
X187095238Y-125835771D02*
X187190476Y-125883390D01*
X187190476Y-125883390D02*
X187238095Y-125931009D01*
X187238095Y-125931009D02*
X187285714Y-126026247D01*
X187285714Y-126026247D02*
X187285714Y-126264342D01*
X187285714Y-126264342D02*
X187238095Y-126359580D01*
X187238095Y-126359580D02*
X187190476Y-126407200D01*
X187190476Y-126407200D02*
X187095238Y-126454819D01*
X187095238Y-126454819D02*
X186809524Y-126454819D01*
X186809524Y-126454819D02*
X186714286Y-126407200D01*
X186714286Y-126407200D02*
X186666667Y-126359580D01*
X159059580Y-109822857D02*
X159107200Y-109870476D01*
X159107200Y-109870476D02*
X159154819Y-110013333D01*
X159154819Y-110013333D02*
X159154819Y-110108571D01*
X159154819Y-110108571D02*
X159107200Y-110251428D01*
X159107200Y-110251428D02*
X159011961Y-110346666D01*
X159011961Y-110346666D02*
X158916723Y-110394285D01*
X158916723Y-110394285D02*
X158726247Y-110441904D01*
X158726247Y-110441904D02*
X158583390Y-110441904D01*
X158583390Y-110441904D02*
X158392914Y-110394285D01*
X158392914Y-110394285D02*
X158297676Y-110346666D01*
X158297676Y-110346666D02*
X158202438Y-110251428D01*
X158202438Y-110251428D02*
X158154819Y-110108571D01*
X158154819Y-110108571D02*
X158154819Y-110013333D01*
X158154819Y-110013333D02*
X158202438Y-109870476D01*
X158202438Y-109870476D02*
X158250057Y-109822857D01*
X159154819Y-108870476D02*
X159154819Y-109441904D01*
X159154819Y-109156190D02*
X158154819Y-109156190D01*
X158154819Y-109156190D02*
X158297676Y-109251428D01*
X158297676Y-109251428D02*
X158392914Y-109346666D01*
X158392914Y-109346666D02*
X158440533Y-109441904D01*
X159154819Y-108394285D02*
X159154819Y-108203809D01*
X159154819Y-108203809D02*
X159107200Y-108108571D01*
X159107200Y-108108571D02*
X159059580Y-108060952D01*
X159059580Y-108060952D02*
X158916723Y-107965714D01*
X158916723Y-107965714D02*
X158726247Y-107918095D01*
X158726247Y-107918095D02*
X158345295Y-107918095D01*
X158345295Y-107918095D02*
X158250057Y-107965714D01*
X158250057Y-107965714D02*
X158202438Y-108013333D01*
X158202438Y-108013333D02*
X158154819Y-108108571D01*
X158154819Y-108108571D02*
X158154819Y-108299047D01*
X158154819Y-108299047D02*
X158202438Y-108394285D01*
X158202438Y-108394285D02*
X158250057Y-108441904D01*
X158250057Y-108441904D02*
X158345295Y-108489523D01*
X158345295Y-108489523D02*
X158583390Y-108489523D01*
X158583390Y-108489523D02*
X158678628Y-108441904D01*
X158678628Y-108441904D02*
X158726247Y-108394285D01*
X158726247Y-108394285D02*
X158773866Y-108299047D01*
X158773866Y-108299047D02*
X158773866Y-108108571D01*
X158773866Y-108108571D02*
X158726247Y-108013333D01*
X158726247Y-108013333D02*
X158678628Y-107965714D01*
X158678628Y-107965714D02*
X158583390Y-107918095D01*
X180433333Y-115354819D02*
X180100000Y-114878628D01*
X179861905Y-115354819D02*
X179861905Y-114354819D01*
X179861905Y-114354819D02*
X180242857Y-114354819D01*
X180242857Y-114354819D02*
X180338095Y-114402438D01*
X180338095Y-114402438D02*
X180385714Y-114450057D01*
X180385714Y-114450057D02*
X180433333Y-114545295D01*
X180433333Y-114545295D02*
X180433333Y-114688152D01*
X180433333Y-114688152D02*
X180385714Y-114783390D01*
X180385714Y-114783390D02*
X180338095Y-114831009D01*
X180338095Y-114831009D02*
X180242857Y-114878628D01*
X180242857Y-114878628D02*
X179861905Y-114878628D01*
X180766667Y-114354819D02*
X181433333Y-114354819D01*
X181433333Y-114354819D02*
X181004762Y-115354819D01*
X171454198Y-89156636D02*
X171406579Y-89204256D01*
X171406579Y-89204256D02*
X171263722Y-89251875D01*
X171263722Y-89251875D02*
X171168484Y-89251875D01*
X171168484Y-89251875D02*
X171025627Y-89204256D01*
X171025627Y-89204256D02*
X170930389Y-89109017D01*
X170930389Y-89109017D02*
X170882770Y-89013779D01*
X170882770Y-89013779D02*
X170835151Y-88823303D01*
X170835151Y-88823303D02*
X170835151Y-88680446D01*
X170835151Y-88680446D02*
X170882770Y-88489970D01*
X170882770Y-88489970D02*
X170930389Y-88394732D01*
X170930389Y-88394732D02*
X171025627Y-88299494D01*
X171025627Y-88299494D02*
X171168484Y-88251875D01*
X171168484Y-88251875D02*
X171263722Y-88251875D01*
X171263722Y-88251875D02*
X171406579Y-88299494D01*
X171406579Y-88299494D02*
X171454198Y-88347113D01*
X171835151Y-88347113D02*
X171882770Y-88299494D01*
X171882770Y-88299494D02*
X171978008Y-88251875D01*
X171978008Y-88251875D02*
X172216103Y-88251875D01*
X172216103Y-88251875D02*
X172311341Y-88299494D01*
X172311341Y-88299494D02*
X172358960Y-88347113D01*
X172358960Y-88347113D02*
X172406579Y-88442351D01*
X172406579Y-88442351D02*
X172406579Y-88537589D01*
X172406579Y-88537589D02*
X172358960Y-88680446D01*
X172358960Y-88680446D02*
X171787532Y-89251875D01*
X171787532Y-89251875D02*
X172406579Y-89251875D01*
X173358960Y-89251875D02*
X172787532Y-89251875D01*
X173073246Y-89251875D02*
X173073246Y-88251875D01*
X173073246Y-88251875D02*
X172978008Y-88394732D01*
X172978008Y-88394732D02*
X172882770Y-88489970D01*
X172882770Y-88489970D02*
X172787532Y-88537589D01*
X149685714Y-145454819D02*
X149685714Y-144454819D01*
X149685714Y-144931009D02*
X150257142Y-144931009D01*
X150257142Y-145454819D02*
X150257142Y-144454819D01*
X151257142Y-145454819D02*
X150685714Y-145454819D01*
X150971428Y-145454819D02*
X150971428Y-144454819D01*
X150971428Y-144454819D02*
X150876190Y-144597676D01*
X150876190Y-144597676D02*
X150780952Y-144692914D01*
X150780952Y-144692914D02*
X150685714Y-144740533D01*
X152209523Y-145454819D02*
X151638095Y-145454819D01*
X151923809Y-145454819D02*
X151923809Y-144454819D01*
X151923809Y-144454819D02*
X151828571Y-144597676D01*
X151828571Y-144597676D02*
X151733333Y-144692914D01*
X151733333Y-144692914D02*
X151638095Y-144740533D01*
X153066666Y-144788152D02*
X153066666Y-145454819D01*
X152828571Y-144407200D02*
X152590476Y-145121485D01*
X152590476Y-145121485D02*
X153209523Y-145121485D01*
X173354198Y-96056636D02*
X173306579Y-96104256D01*
X173306579Y-96104256D02*
X173163722Y-96151875D01*
X173163722Y-96151875D02*
X173068484Y-96151875D01*
X173068484Y-96151875D02*
X172925627Y-96104256D01*
X172925627Y-96104256D02*
X172830389Y-96009017D01*
X172830389Y-96009017D02*
X172782770Y-95913779D01*
X172782770Y-95913779D02*
X172735151Y-95723303D01*
X172735151Y-95723303D02*
X172735151Y-95580446D01*
X172735151Y-95580446D02*
X172782770Y-95389970D01*
X172782770Y-95389970D02*
X172830389Y-95294732D01*
X172830389Y-95294732D02*
X172925627Y-95199494D01*
X172925627Y-95199494D02*
X173068484Y-95151875D01*
X173068484Y-95151875D02*
X173163722Y-95151875D01*
X173163722Y-95151875D02*
X173306579Y-95199494D01*
X173306579Y-95199494D02*
X173354198Y-95247113D01*
X173735151Y-95247113D02*
X173782770Y-95199494D01*
X173782770Y-95199494D02*
X173878008Y-95151875D01*
X173878008Y-95151875D02*
X174116103Y-95151875D01*
X174116103Y-95151875D02*
X174211341Y-95199494D01*
X174211341Y-95199494D02*
X174258960Y-95247113D01*
X174258960Y-95247113D02*
X174306579Y-95342351D01*
X174306579Y-95342351D02*
X174306579Y-95437589D01*
X174306579Y-95437589D02*
X174258960Y-95580446D01*
X174258960Y-95580446D02*
X173687532Y-96151875D01*
X173687532Y-96151875D02*
X174306579Y-96151875D01*
X174878008Y-95580446D02*
X174782770Y-95532827D01*
X174782770Y-95532827D02*
X174735151Y-95485208D01*
X174735151Y-95485208D02*
X174687532Y-95389970D01*
X174687532Y-95389970D02*
X174687532Y-95342351D01*
X174687532Y-95342351D02*
X174735151Y-95247113D01*
X174735151Y-95247113D02*
X174782770Y-95199494D01*
X174782770Y-95199494D02*
X174878008Y-95151875D01*
X174878008Y-95151875D02*
X175068484Y-95151875D01*
X175068484Y-95151875D02*
X175163722Y-95199494D01*
X175163722Y-95199494D02*
X175211341Y-95247113D01*
X175211341Y-95247113D02*
X175258960Y-95342351D01*
X175258960Y-95342351D02*
X175258960Y-95389970D01*
X175258960Y-95389970D02*
X175211341Y-95485208D01*
X175211341Y-95485208D02*
X175163722Y-95532827D01*
X175163722Y-95532827D02*
X175068484Y-95580446D01*
X175068484Y-95580446D02*
X174878008Y-95580446D01*
X174878008Y-95580446D02*
X174782770Y-95628065D01*
X174782770Y-95628065D02*
X174735151Y-95675684D01*
X174735151Y-95675684D02*
X174687532Y-95770922D01*
X174687532Y-95770922D02*
X174687532Y-95961398D01*
X174687532Y-95961398D02*
X174735151Y-96056636D01*
X174735151Y-96056636D02*
X174782770Y-96104256D01*
X174782770Y-96104256D02*
X174878008Y-96151875D01*
X174878008Y-96151875D02*
X175068484Y-96151875D01*
X175068484Y-96151875D02*
X175163722Y-96104256D01*
X175163722Y-96104256D02*
X175211341Y-96056636D01*
X175211341Y-96056636D02*
X175258960Y-95961398D01*
X175258960Y-95961398D02*
X175258960Y-95770922D01*
X175258960Y-95770922D02*
X175211341Y-95675684D01*
X175211341Y-95675684D02*
X175163722Y-95628065D01*
X175163722Y-95628065D02*
X175068484Y-95580446D01*
X188861905Y-88154819D02*
X188861905Y-87154819D01*
X188861905Y-87154819D02*
X189100000Y-87154819D01*
X189100000Y-87154819D02*
X189242857Y-87202438D01*
X189242857Y-87202438D02*
X189338095Y-87297676D01*
X189338095Y-87297676D02*
X189385714Y-87392914D01*
X189385714Y-87392914D02*
X189433333Y-87583390D01*
X189433333Y-87583390D02*
X189433333Y-87726247D01*
X189433333Y-87726247D02*
X189385714Y-87916723D01*
X189385714Y-87916723D02*
X189338095Y-88011961D01*
X189338095Y-88011961D02*
X189242857Y-88107200D01*
X189242857Y-88107200D02*
X189100000Y-88154819D01*
X189100000Y-88154819D02*
X188861905Y-88154819D01*
X189909524Y-88154819D02*
X190100000Y-88154819D01*
X190100000Y-88154819D02*
X190195238Y-88107200D01*
X190195238Y-88107200D02*
X190242857Y-88059580D01*
X190242857Y-88059580D02*
X190338095Y-87916723D01*
X190338095Y-87916723D02*
X190385714Y-87726247D01*
X190385714Y-87726247D02*
X190385714Y-87345295D01*
X190385714Y-87345295D02*
X190338095Y-87250057D01*
X190338095Y-87250057D02*
X190290476Y-87202438D01*
X190290476Y-87202438D02*
X190195238Y-87154819D01*
X190195238Y-87154819D02*
X190004762Y-87154819D01*
X190004762Y-87154819D02*
X189909524Y-87202438D01*
X189909524Y-87202438D02*
X189861905Y-87250057D01*
X189861905Y-87250057D02*
X189814286Y-87345295D01*
X189814286Y-87345295D02*
X189814286Y-87583390D01*
X189814286Y-87583390D02*
X189861905Y-87678628D01*
X189861905Y-87678628D02*
X189909524Y-87726247D01*
X189909524Y-87726247D02*
X190004762Y-87773866D01*
X190004762Y-87773866D02*
X190195238Y-87773866D01*
X190195238Y-87773866D02*
X190290476Y-87726247D01*
X190290476Y-87726247D02*
X190338095Y-87678628D01*
X190338095Y-87678628D02*
X190385714Y-87583390D01*
X180256636Y-91619913D02*
X180304256Y-91667532D01*
X180304256Y-91667532D02*
X180351875Y-91810389D01*
X180351875Y-91810389D02*
X180351875Y-91905627D01*
X180351875Y-91905627D02*
X180304256Y-92048484D01*
X180304256Y-92048484D02*
X180209017Y-92143722D01*
X180209017Y-92143722D02*
X180113779Y-92191341D01*
X180113779Y-92191341D02*
X179923303Y-92238960D01*
X179923303Y-92238960D02*
X179780446Y-92238960D01*
X179780446Y-92238960D02*
X179589970Y-92191341D01*
X179589970Y-92191341D02*
X179494732Y-92143722D01*
X179494732Y-92143722D02*
X179399494Y-92048484D01*
X179399494Y-92048484D02*
X179351875Y-91905627D01*
X179351875Y-91905627D02*
X179351875Y-91810389D01*
X179351875Y-91810389D02*
X179399494Y-91667532D01*
X179399494Y-91667532D02*
X179447113Y-91619913D01*
X179351875Y-91286579D02*
X179351875Y-90667532D01*
X179351875Y-90667532D02*
X179732827Y-91000865D01*
X179732827Y-91000865D02*
X179732827Y-90858008D01*
X179732827Y-90858008D02*
X179780446Y-90762770D01*
X179780446Y-90762770D02*
X179828065Y-90715151D01*
X179828065Y-90715151D02*
X179923303Y-90667532D01*
X179923303Y-90667532D02*
X180161398Y-90667532D01*
X180161398Y-90667532D02*
X180256636Y-90715151D01*
X180256636Y-90715151D02*
X180304256Y-90762770D01*
X180304256Y-90762770D02*
X180351875Y-90858008D01*
X180351875Y-90858008D02*
X180351875Y-91143722D01*
X180351875Y-91143722D02*
X180304256Y-91238960D01*
X180304256Y-91238960D02*
X180256636Y-91286579D01*
X179447113Y-90286579D02*
X179399494Y-90238960D01*
X179399494Y-90238960D02*
X179351875Y-90143722D01*
X179351875Y-90143722D02*
X179351875Y-89905627D01*
X179351875Y-89905627D02*
X179399494Y-89810389D01*
X179399494Y-89810389D02*
X179447113Y-89762770D01*
X179447113Y-89762770D02*
X179542351Y-89715151D01*
X179542351Y-89715151D02*
X179637589Y-89715151D01*
X179637589Y-89715151D02*
X179780446Y-89762770D01*
X179780446Y-89762770D02*
X180351875Y-90334198D01*
X180351875Y-90334198D02*
X180351875Y-89715151D01*
X190854198Y-104896636D02*
X190806579Y-104944256D01*
X190806579Y-104944256D02*
X190663722Y-104991875D01*
X190663722Y-104991875D02*
X190568484Y-104991875D01*
X190568484Y-104991875D02*
X190425627Y-104944256D01*
X190425627Y-104944256D02*
X190330389Y-104849017D01*
X190330389Y-104849017D02*
X190282770Y-104753779D01*
X190282770Y-104753779D02*
X190235151Y-104563303D01*
X190235151Y-104563303D02*
X190235151Y-104420446D01*
X190235151Y-104420446D02*
X190282770Y-104229970D01*
X190282770Y-104229970D02*
X190330389Y-104134732D01*
X190330389Y-104134732D02*
X190425627Y-104039494D01*
X190425627Y-104039494D02*
X190568484Y-103991875D01*
X190568484Y-103991875D02*
X190663722Y-103991875D01*
X190663722Y-103991875D02*
X190806579Y-104039494D01*
X190806579Y-104039494D02*
X190854198Y-104087113D01*
X191235151Y-104087113D02*
X191282770Y-104039494D01*
X191282770Y-104039494D02*
X191378008Y-103991875D01*
X191378008Y-103991875D02*
X191616103Y-103991875D01*
X191616103Y-103991875D02*
X191711341Y-104039494D01*
X191711341Y-104039494D02*
X191758960Y-104087113D01*
X191758960Y-104087113D02*
X191806579Y-104182351D01*
X191806579Y-104182351D02*
X191806579Y-104277589D01*
X191806579Y-104277589D02*
X191758960Y-104420446D01*
X191758960Y-104420446D02*
X191187532Y-104991875D01*
X191187532Y-104991875D02*
X191806579Y-104991875D01*
X192139913Y-103991875D02*
X192806579Y-103991875D01*
X192806579Y-103991875D02*
X192378008Y-104991875D01*
X199285714Y-90154819D02*
X199285714Y-89154819D01*
X199285714Y-89154819D02*
X199523809Y-89154819D01*
X199523809Y-89154819D02*
X199666666Y-89202438D01*
X199666666Y-89202438D02*
X199761904Y-89297676D01*
X199761904Y-89297676D02*
X199809523Y-89392914D01*
X199809523Y-89392914D02*
X199857142Y-89583390D01*
X199857142Y-89583390D02*
X199857142Y-89726247D01*
X199857142Y-89726247D02*
X199809523Y-89916723D01*
X199809523Y-89916723D02*
X199761904Y-90011961D01*
X199761904Y-90011961D02*
X199666666Y-90107200D01*
X199666666Y-90107200D02*
X199523809Y-90154819D01*
X199523809Y-90154819D02*
X199285714Y-90154819D01*
X200809523Y-90154819D02*
X200238095Y-90154819D01*
X200523809Y-90154819D02*
X200523809Y-89154819D01*
X200523809Y-89154819D02*
X200428571Y-89297676D01*
X200428571Y-89297676D02*
X200333333Y-89392914D01*
X200333333Y-89392914D02*
X200238095Y-89440533D01*
X201190476Y-89250057D02*
X201238095Y-89202438D01*
X201238095Y-89202438D02*
X201333333Y-89154819D01*
X201333333Y-89154819D02*
X201571428Y-89154819D01*
X201571428Y-89154819D02*
X201666666Y-89202438D01*
X201666666Y-89202438D02*
X201714285Y-89250057D01*
X201714285Y-89250057D02*
X201761904Y-89345295D01*
X201761904Y-89345295D02*
X201761904Y-89440533D01*
X201761904Y-89440533D02*
X201714285Y-89583390D01*
X201714285Y-89583390D02*
X201142857Y-90154819D01*
X201142857Y-90154819D02*
X201761904Y-90154819D01*
X145459580Y-113642857D02*
X145507200Y-113690476D01*
X145507200Y-113690476D02*
X145554819Y-113833333D01*
X145554819Y-113833333D02*
X145554819Y-113928571D01*
X145554819Y-113928571D02*
X145507200Y-114071428D01*
X145507200Y-114071428D02*
X145411961Y-114166666D01*
X145411961Y-114166666D02*
X145316723Y-114214285D01*
X145316723Y-114214285D02*
X145126247Y-114261904D01*
X145126247Y-114261904D02*
X144983390Y-114261904D01*
X144983390Y-114261904D02*
X144792914Y-114214285D01*
X144792914Y-114214285D02*
X144697676Y-114166666D01*
X144697676Y-114166666D02*
X144602438Y-114071428D01*
X144602438Y-114071428D02*
X144554819Y-113928571D01*
X144554819Y-113928571D02*
X144554819Y-113833333D01*
X144554819Y-113833333D02*
X144602438Y-113690476D01*
X144602438Y-113690476D02*
X144650057Y-113642857D01*
X145554819Y-112690476D02*
X145554819Y-113261904D01*
X145554819Y-112976190D02*
X144554819Y-112976190D01*
X144554819Y-112976190D02*
X144697676Y-113071428D01*
X144697676Y-113071428D02*
X144792914Y-113166666D01*
X144792914Y-113166666D02*
X144840533Y-113261904D01*
X144554819Y-111785714D02*
X144554819Y-112261904D01*
X144554819Y-112261904D02*
X145031009Y-112309523D01*
X145031009Y-112309523D02*
X144983390Y-112261904D01*
X144983390Y-112261904D02*
X144935771Y-112166666D01*
X144935771Y-112166666D02*
X144935771Y-111928571D01*
X144935771Y-111928571D02*
X144983390Y-111833333D01*
X144983390Y-111833333D02*
X145031009Y-111785714D01*
X145031009Y-111785714D02*
X145126247Y-111738095D01*
X145126247Y-111738095D02*
X145364342Y-111738095D01*
X145364342Y-111738095D02*
X145459580Y-111785714D01*
X145459580Y-111785714D02*
X145507200Y-111833333D01*
X145507200Y-111833333D02*
X145554819Y-111928571D01*
X145554819Y-111928571D02*
X145554819Y-112166666D01*
X145554819Y-112166666D02*
X145507200Y-112261904D01*
X145507200Y-112261904D02*
X145459580Y-112309523D01*
X194906636Y-103689913D02*
X194954256Y-103737532D01*
X194954256Y-103737532D02*
X195001875Y-103880389D01*
X195001875Y-103880389D02*
X195001875Y-103975627D01*
X195001875Y-103975627D02*
X194954256Y-104118484D01*
X194954256Y-104118484D02*
X194859017Y-104213722D01*
X194859017Y-104213722D02*
X194763779Y-104261341D01*
X194763779Y-104261341D02*
X194573303Y-104308960D01*
X194573303Y-104308960D02*
X194430446Y-104308960D01*
X194430446Y-104308960D02*
X194239970Y-104261341D01*
X194239970Y-104261341D02*
X194144732Y-104213722D01*
X194144732Y-104213722D02*
X194049494Y-104118484D01*
X194049494Y-104118484D02*
X194001875Y-103975627D01*
X194001875Y-103975627D02*
X194001875Y-103880389D01*
X194001875Y-103880389D02*
X194049494Y-103737532D01*
X194049494Y-103737532D02*
X194097113Y-103689913D01*
X195001875Y-102737532D02*
X195001875Y-103308960D01*
X195001875Y-103023246D02*
X194001875Y-103023246D01*
X194001875Y-103023246D02*
X194144732Y-103118484D01*
X194144732Y-103118484D02*
X194239970Y-103213722D01*
X194239970Y-103213722D02*
X194287589Y-103308960D01*
X194001875Y-101880389D02*
X194001875Y-102070865D01*
X194001875Y-102070865D02*
X194049494Y-102166103D01*
X194049494Y-102166103D02*
X194097113Y-102213722D01*
X194097113Y-102213722D02*
X194239970Y-102308960D01*
X194239970Y-102308960D02*
X194430446Y-102356579D01*
X194430446Y-102356579D02*
X194811398Y-102356579D01*
X194811398Y-102356579D02*
X194906636Y-102308960D01*
X194906636Y-102308960D02*
X194954256Y-102261341D01*
X194954256Y-102261341D02*
X195001875Y-102166103D01*
X195001875Y-102166103D02*
X195001875Y-101975627D01*
X195001875Y-101975627D02*
X194954256Y-101880389D01*
X194954256Y-101880389D02*
X194906636Y-101832770D01*
X194906636Y-101832770D02*
X194811398Y-101785151D01*
X194811398Y-101785151D02*
X194573303Y-101785151D01*
X194573303Y-101785151D02*
X194478065Y-101832770D01*
X194478065Y-101832770D02*
X194430446Y-101880389D01*
X194430446Y-101880389D02*
X194382827Y-101975627D01*
X194382827Y-101975627D02*
X194382827Y-102166103D01*
X194382827Y-102166103D02*
X194430446Y-102261341D01*
X194430446Y-102261341D02*
X194478065Y-102308960D01*
X194478065Y-102308960D02*
X194573303Y-102356579D01*
X190730389Y-136759580D02*
X190682770Y-136807200D01*
X190682770Y-136807200D02*
X190539913Y-136854819D01*
X190539913Y-136854819D02*
X190444675Y-136854819D01*
X190444675Y-136854819D02*
X190301818Y-136807200D01*
X190301818Y-136807200D02*
X190206580Y-136711961D01*
X190206580Y-136711961D02*
X190158961Y-136616723D01*
X190158961Y-136616723D02*
X190111342Y-136426247D01*
X190111342Y-136426247D02*
X190111342Y-136283390D01*
X190111342Y-136283390D02*
X190158961Y-136092914D01*
X190158961Y-136092914D02*
X190206580Y-135997676D01*
X190206580Y-135997676D02*
X190301818Y-135902438D01*
X190301818Y-135902438D02*
X190444675Y-135854819D01*
X190444675Y-135854819D02*
X190539913Y-135854819D01*
X190539913Y-135854819D02*
X190682770Y-135902438D01*
X190682770Y-135902438D02*
X190730389Y-135950057D01*
X191063723Y-135854819D02*
X191730389Y-135854819D01*
X191730389Y-135854819D02*
X191301818Y-136854819D01*
X196159580Y-97642857D02*
X196207200Y-97690476D01*
X196207200Y-97690476D02*
X196254819Y-97833333D01*
X196254819Y-97833333D02*
X196254819Y-97928571D01*
X196254819Y-97928571D02*
X196207200Y-98071428D01*
X196207200Y-98071428D02*
X196111961Y-98166666D01*
X196111961Y-98166666D02*
X196016723Y-98214285D01*
X196016723Y-98214285D02*
X195826247Y-98261904D01*
X195826247Y-98261904D02*
X195683390Y-98261904D01*
X195683390Y-98261904D02*
X195492914Y-98214285D01*
X195492914Y-98214285D02*
X195397676Y-98166666D01*
X195397676Y-98166666D02*
X195302438Y-98071428D01*
X195302438Y-98071428D02*
X195254819Y-97928571D01*
X195254819Y-97928571D02*
X195254819Y-97833333D01*
X195254819Y-97833333D02*
X195302438Y-97690476D01*
X195302438Y-97690476D02*
X195350057Y-97642857D01*
X195350057Y-97261904D02*
X195302438Y-97214285D01*
X195302438Y-97214285D02*
X195254819Y-97119047D01*
X195254819Y-97119047D02*
X195254819Y-96880952D01*
X195254819Y-96880952D02*
X195302438Y-96785714D01*
X195302438Y-96785714D02*
X195350057Y-96738095D01*
X195350057Y-96738095D02*
X195445295Y-96690476D01*
X195445295Y-96690476D02*
X195540533Y-96690476D01*
X195540533Y-96690476D02*
X195683390Y-96738095D01*
X195683390Y-96738095D02*
X196254819Y-97309523D01*
X196254819Y-97309523D02*
X196254819Y-96690476D01*
X195254819Y-96357142D02*
X195254819Y-95738095D01*
X195254819Y-95738095D02*
X195635771Y-96071428D01*
X195635771Y-96071428D02*
X195635771Y-95928571D01*
X195635771Y-95928571D02*
X195683390Y-95833333D01*
X195683390Y-95833333D02*
X195731009Y-95785714D01*
X195731009Y-95785714D02*
X195826247Y-95738095D01*
X195826247Y-95738095D02*
X196064342Y-95738095D01*
X196064342Y-95738095D02*
X196159580Y-95785714D01*
X196159580Y-95785714D02*
X196207200Y-95833333D01*
X196207200Y-95833333D02*
X196254819Y-95928571D01*
X196254819Y-95928571D02*
X196254819Y-96214285D01*
X196254819Y-96214285D02*
X196207200Y-96309523D01*
X196207200Y-96309523D02*
X196159580Y-96357142D01*
X162559580Y-129466666D02*
X162607200Y-129514285D01*
X162607200Y-129514285D02*
X162654819Y-129657142D01*
X162654819Y-129657142D02*
X162654819Y-129752380D01*
X162654819Y-129752380D02*
X162607200Y-129895237D01*
X162607200Y-129895237D02*
X162511961Y-129990475D01*
X162511961Y-129990475D02*
X162416723Y-130038094D01*
X162416723Y-130038094D02*
X162226247Y-130085713D01*
X162226247Y-130085713D02*
X162083390Y-130085713D01*
X162083390Y-130085713D02*
X161892914Y-130038094D01*
X161892914Y-130038094D02*
X161797676Y-129990475D01*
X161797676Y-129990475D02*
X161702438Y-129895237D01*
X161702438Y-129895237D02*
X161654819Y-129752380D01*
X161654819Y-129752380D02*
X161654819Y-129657142D01*
X161654819Y-129657142D02*
X161702438Y-129514285D01*
X161702438Y-129514285D02*
X161750057Y-129466666D01*
X162083390Y-128895237D02*
X162035771Y-128990475D01*
X162035771Y-128990475D02*
X161988152Y-129038094D01*
X161988152Y-129038094D02*
X161892914Y-129085713D01*
X161892914Y-129085713D02*
X161845295Y-129085713D01*
X161845295Y-129085713D02*
X161750057Y-129038094D01*
X161750057Y-129038094D02*
X161702438Y-128990475D01*
X161702438Y-128990475D02*
X161654819Y-128895237D01*
X161654819Y-128895237D02*
X161654819Y-128704761D01*
X161654819Y-128704761D02*
X161702438Y-128609523D01*
X161702438Y-128609523D02*
X161750057Y-128561904D01*
X161750057Y-128561904D02*
X161845295Y-128514285D01*
X161845295Y-128514285D02*
X161892914Y-128514285D01*
X161892914Y-128514285D02*
X161988152Y-128561904D01*
X161988152Y-128561904D02*
X162035771Y-128609523D01*
X162035771Y-128609523D02*
X162083390Y-128704761D01*
X162083390Y-128704761D02*
X162083390Y-128895237D01*
X162083390Y-128895237D02*
X162131009Y-128990475D01*
X162131009Y-128990475D02*
X162178628Y-129038094D01*
X162178628Y-129038094D02*
X162273866Y-129085713D01*
X162273866Y-129085713D02*
X162464342Y-129085713D01*
X162464342Y-129085713D02*
X162559580Y-129038094D01*
X162559580Y-129038094D02*
X162607200Y-128990475D01*
X162607200Y-128990475D02*
X162654819Y-128895237D01*
X162654819Y-128895237D02*
X162654819Y-128704761D01*
X162654819Y-128704761D02*
X162607200Y-128609523D01*
X162607200Y-128609523D02*
X162559580Y-128561904D01*
X162559580Y-128561904D02*
X162464342Y-128514285D01*
X162464342Y-128514285D02*
X162273866Y-128514285D01*
X162273866Y-128514285D02*
X162178628Y-128561904D01*
X162178628Y-128561904D02*
X162131009Y-128609523D01*
X162131009Y-128609523D02*
X162083390Y-128704761D01*
X185257142Y-83154819D02*
X184923809Y-82678628D01*
X184685714Y-83154819D02*
X184685714Y-82154819D01*
X184685714Y-82154819D02*
X185066666Y-82154819D01*
X185066666Y-82154819D02*
X185161904Y-82202438D01*
X185161904Y-82202438D02*
X185209523Y-82250057D01*
X185209523Y-82250057D02*
X185257142Y-82345295D01*
X185257142Y-82345295D02*
X185257142Y-82488152D01*
X185257142Y-82488152D02*
X185209523Y-82583390D01*
X185209523Y-82583390D02*
X185161904Y-82631009D01*
X185161904Y-82631009D02*
X185066666Y-82678628D01*
X185066666Y-82678628D02*
X184685714Y-82678628D01*
X186209523Y-83154819D02*
X185638095Y-83154819D01*
X185923809Y-83154819D02*
X185923809Y-82154819D01*
X185923809Y-82154819D02*
X185828571Y-82297676D01*
X185828571Y-82297676D02*
X185733333Y-82392914D01*
X185733333Y-82392914D02*
X185638095Y-82440533D01*
X186542857Y-82154819D02*
X187161904Y-82154819D01*
X187161904Y-82154819D02*
X186828571Y-82535771D01*
X186828571Y-82535771D02*
X186971428Y-82535771D01*
X186971428Y-82535771D02*
X187066666Y-82583390D01*
X187066666Y-82583390D02*
X187114285Y-82631009D01*
X187114285Y-82631009D02*
X187161904Y-82726247D01*
X187161904Y-82726247D02*
X187161904Y-82964342D01*
X187161904Y-82964342D02*
X187114285Y-83059580D01*
X187114285Y-83059580D02*
X187066666Y-83107200D01*
X187066666Y-83107200D02*
X186971428Y-83154819D01*
X186971428Y-83154819D02*
X186685714Y-83154819D01*
X186685714Y-83154819D02*
X186590476Y-83107200D01*
X186590476Y-83107200D02*
X186542857Y-83059580D01*
X172557142Y-83154819D02*
X172223809Y-82678628D01*
X171985714Y-83154819D02*
X171985714Y-82154819D01*
X171985714Y-82154819D02*
X172366666Y-82154819D01*
X172366666Y-82154819D02*
X172461904Y-82202438D01*
X172461904Y-82202438D02*
X172509523Y-82250057D01*
X172509523Y-82250057D02*
X172557142Y-82345295D01*
X172557142Y-82345295D02*
X172557142Y-82488152D01*
X172557142Y-82488152D02*
X172509523Y-82583390D01*
X172509523Y-82583390D02*
X172461904Y-82631009D01*
X172461904Y-82631009D02*
X172366666Y-82678628D01*
X172366666Y-82678628D02*
X171985714Y-82678628D01*
X172938095Y-82250057D02*
X172985714Y-82202438D01*
X172985714Y-82202438D02*
X173080952Y-82154819D01*
X173080952Y-82154819D02*
X173319047Y-82154819D01*
X173319047Y-82154819D02*
X173414285Y-82202438D01*
X173414285Y-82202438D02*
X173461904Y-82250057D01*
X173461904Y-82250057D02*
X173509523Y-82345295D01*
X173509523Y-82345295D02*
X173509523Y-82440533D01*
X173509523Y-82440533D02*
X173461904Y-82583390D01*
X173461904Y-82583390D02*
X172890476Y-83154819D01*
X172890476Y-83154819D02*
X173509523Y-83154819D01*
X174366666Y-82488152D02*
X174366666Y-83154819D01*
X174128571Y-82107200D02*
X173890476Y-82821485D01*
X173890476Y-82821485D02*
X174509523Y-82821485D01*
X197424819Y-122538094D02*
X196424819Y-122538094D01*
X196424819Y-122538094D02*
X196424819Y-122299999D01*
X196424819Y-122299999D02*
X196472438Y-122157142D01*
X196472438Y-122157142D02*
X196567676Y-122061904D01*
X196567676Y-122061904D02*
X196662914Y-122014285D01*
X196662914Y-122014285D02*
X196853390Y-121966666D01*
X196853390Y-121966666D02*
X196996247Y-121966666D01*
X196996247Y-121966666D02*
X197186723Y-122014285D01*
X197186723Y-122014285D02*
X197281961Y-122061904D01*
X197281961Y-122061904D02*
X197377200Y-122157142D01*
X197377200Y-122157142D02*
X197424819Y-122299999D01*
X197424819Y-122299999D02*
X197424819Y-122538094D01*
X196853390Y-121395237D02*
X196805771Y-121490475D01*
X196805771Y-121490475D02*
X196758152Y-121538094D01*
X196758152Y-121538094D02*
X196662914Y-121585713D01*
X196662914Y-121585713D02*
X196615295Y-121585713D01*
X196615295Y-121585713D02*
X196520057Y-121538094D01*
X196520057Y-121538094D02*
X196472438Y-121490475D01*
X196472438Y-121490475D02*
X196424819Y-121395237D01*
X196424819Y-121395237D02*
X196424819Y-121204761D01*
X196424819Y-121204761D02*
X196472438Y-121109523D01*
X196472438Y-121109523D02*
X196520057Y-121061904D01*
X196520057Y-121061904D02*
X196615295Y-121014285D01*
X196615295Y-121014285D02*
X196662914Y-121014285D01*
X196662914Y-121014285D02*
X196758152Y-121061904D01*
X196758152Y-121061904D02*
X196805771Y-121109523D01*
X196805771Y-121109523D02*
X196853390Y-121204761D01*
X196853390Y-121204761D02*
X196853390Y-121395237D01*
X196853390Y-121395237D02*
X196901009Y-121490475D01*
X196901009Y-121490475D02*
X196948628Y-121538094D01*
X196948628Y-121538094D02*
X197043866Y-121585713D01*
X197043866Y-121585713D02*
X197234342Y-121585713D01*
X197234342Y-121585713D02*
X197329580Y-121538094D01*
X197329580Y-121538094D02*
X197377200Y-121490475D01*
X197377200Y-121490475D02*
X197424819Y-121395237D01*
X197424819Y-121395237D02*
X197424819Y-121204761D01*
X197424819Y-121204761D02*
X197377200Y-121109523D01*
X197377200Y-121109523D02*
X197329580Y-121061904D01*
X197329580Y-121061904D02*
X197234342Y-121014285D01*
X197234342Y-121014285D02*
X197043866Y-121014285D01*
X197043866Y-121014285D02*
X196948628Y-121061904D01*
X196948628Y-121061904D02*
X196901009Y-121109523D01*
X196901009Y-121109523D02*
X196853390Y-121204761D01*
X141459580Y-113542857D02*
X141507200Y-113590476D01*
X141507200Y-113590476D02*
X141554819Y-113733333D01*
X141554819Y-113733333D02*
X141554819Y-113828571D01*
X141554819Y-113828571D02*
X141507200Y-113971428D01*
X141507200Y-113971428D02*
X141411961Y-114066666D01*
X141411961Y-114066666D02*
X141316723Y-114114285D01*
X141316723Y-114114285D02*
X141126247Y-114161904D01*
X141126247Y-114161904D02*
X140983390Y-114161904D01*
X140983390Y-114161904D02*
X140792914Y-114114285D01*
X140792914Y-114114285D02*
X140697676Y-114066666D01*
X140697676Y-114066666D02*
X140602438Y-113971428D01*
X140602438Y-113971428D02*
X140554819Y-113828571D01*
X140554819Y-113828571D02*
X140554819Y-113733333D01*
X140554819Y-113733333D02*
X140602438Y-113590476D01*
X140602438Y-113590476D02*
X140650057Y-113542857D01*
X141554819Y-112590476D02*
X141554819Y-113161904D01*
X141554819Y-112876190D02*
X140554819Y-112876190D01*
X140554819Y-112876190D02*
X140697676Y-112971428D01*
X140697676Y-112971428D02*
X140792914Y-113066666D01*
X140792914Y-113066666D02*
X140840533Y-113161904D01*
X140554819Y-112257142D02*
X140554819Y-111638095D01*
X140554819Y-111638095D02*
X140935771Y-111971428D01*
X140935771Y-111971428D02*
X140935771Y-111828571D01*
X140935771Y-111828571D02*
X140983390Y-111733333D01*
X140983390Y-111733333D02*
X141031009Y-111685714D01*
X141031009Y-111685714D02*
X141126247Y-111638095D01*
X141126247Y-111638095D02*
X141364342Y-111638095D01*
X141364342Y-111638095D02*
X141459580Y-111685714D01*
X141459580Y-111685714D02*
X141507200Y-111733333D01*
X141507200Y-111733333D02*
X141554819Y-111828571D01*
X141554819Y-111828571D02*
X141554819Y-112114285D01*
X141554819Y-112114285D02*
X141507200Y-112209523D01*
X141507200Y-112209523D02*
X141459580Y-112257142D01*
X191557142Y-112359580D02*
X191509523Y-112407200D01*
X191509523Y-112407200D02*
X191366666Y-112454819D01*
X191366666Y-112454819D02*
X191271428Y-112454819D01*
X191271428Y-112454819D02*
X191128571Y-112407200D01*
X191128571Y-112407200D02*
X191033333Y-112311961D01*
X191033333Y-112311961D02*
X190985714Y-112216723D01*
X190985714Y-112216723D02*
X190938095Y-112026247D01*
X190938095Y-112026247D02*
X190938095Y-111883390D01*
X190938095Y-111883390D02*
X190985714Y-111692914D01*
X190985714Y-111692914D02*
X191033333Y-111597676D01*
X191033333Y-111597676D02*
X191128571Y-111502438D01*
X191128571Y-111502438D02*
X191271428Y-111454819D01*
X191271428Y-111454819D02*
X191366666Y-111454819D01*
X191366666Y-111454819D02*
X191509523Y-111502438D01*
X191509523Y-111502438D02*
X191557142Y-111550057D01*
X191938095Y-111550057D02*
X191985714Y-111502438D01*
X191985714Y-111502438D02*
X192080952Y-111454819D01*
X192080952Y-111454819D02*
X192319047Y-111454819D01*
X192319047Y-111454819D02*
X192414285Y-111502438D01*
X192414285Y-111502438D02*
X192461904Y-111550057D01*
X192461904Y-111550057D02*
X192509523Y-111645295D01*
X192509523Y-111645295D02*
X192509523Y-111740533D01*
X192509523Y-111740533D02*
X192461904Y-111883390D01*
X192461904Y-111883390D02*
X191890476Y-112454819D01*
X191890476Y-112454819D02*
X192509523Y-112454819D01*
X193414285Y-111454819D02*
X192938095Y-111454819D01*
X192938095Y-111454819D02*
X192890476Y-111931009D01*
X192890476Y-111931009D02*
X192938095Y-111883390D01*
X192938095Y-111883390D02*
X193033333Y-111835771D01*
X193033333Y-111835771D02*
X193271428Y-111835771D01*
X193271428Y-111835771D02*
X193366666Y-111883390D01*
X193366666Y-111883390D02*
X193414285Y-111931009D01*
X193414285Y-111931009D02*
X193461904Y-112026247D01*
X193461904Y-112026247D02*
X193461904Y-112264342D01*
X193461904Y-112264342D02*
X193414285Y-112359580D01*
X193414285Y-112359580D02*
X193366666Y-112407200D01*
X193366666Y-112407200D02*
X193271428Y-112454819D01*
X193271428Y-112454819D02*
X193033333Y-112454819D01*
X193033333Y-112454819D02*
X192938095Y-112407200D01*
X192938095Y-112407200D02*
X192890476Y-112359580D01*
D13*
%TO.C,C29*%
X186567392Y-108012056D02*
X186351720Y-108012056D01*
X186567392Y-108732056D02*
X186351720Y-108732056D01*
%TO.C,R19*%
X195346359Y-88920000D02*
X195653641Y-88920000D01*
X195346359Y-89680000D02*
X195653641Y-89680000D01*
%TO.C,BU33SD5WG-TR1*%
X193590000Y-125062500D02*
X193590000Y-124262500D01*
X193590000Y-125062500D02*
X193590000Y-125862500D01*
X196710000Y-125062500D02*
X196710000Y-124262500D01*
X196710000Y-125062500D02*
X196710000Y-125862500D01*
X193640000Y-126362500D02*
X193310000Y-126602500D01*
X193310000Y-126122500D01*
X193640000Y-126362500D01*
G36*
X193640000Y-126362500D02*
G01*
X193310000Y-126602500D01*
X193310000Y-126122500D01*
X193640000Y-126362500D01*
G37*
%TO.C,R23*%
X193863641Y-108820000D02*
X193556359Y-108820000D01*
X193863641Y-109580000D02*
X193556359Y-109580000D01*
%TO.C,R3*%
X187846359Y-113020000D02*
X188153641Y-113020000D01*
X187846359Y-113780000D02*
X188153641Y-113780000D01*
%TO.C,C5*%
X188592164Y-130740000D02*
X188807836Y-130740000D01*
X188592164Y-131460000D02*
X188807836Y-131460000D01*
%TO.C,R22*%
X202067056Y-109533415D02*
X202067056Y-109840697D01*
X202827056Y-109533415D02*
X202827056Y-109840697D01*
%TO.C,L1*%
X189322335Y-108462056D02*
X188996777Y-108462056D01*
X189322335Y-109482056D02*
X188996777Y-109482056D01*
%TO.C,R16*%
X197017056Y-84233415D02*
X197017056Y-84540697D01*
X197777056Y-84233415D02*
X197777056Y-84540697D01*
%TO.C,D5*%
X179400000Y-113035000D02*
X181685000Y-113035000D01*
X181685000Y-111565000D02*
X179400000Y-111565000D01*
X181685000Y-113035000D02*
X181685000Y-111565000D01*
%TO.C,R21*%
X203868415Y-90687056D02*
X204175697Y-90687056D01*
X203868415Y-91447056D02*
X204175697Y-91447056D01*
%TO.C,C1*%
X182390000Y-121115748D02*
X182390000Y-118284252D01*
X187610000Y-121115748D02*
X187610000Y-118284252D01*
%TO.C,J6*%
X199632056Y-96057056D02*
X199632056Y-95992056D01*
X199632056Y-105002056D02*
X199632056Y-104937056D01*
X203162056Y-95992056D02*
X199632056Y-95992056D01*
X203162056Y-96057056D02*
X203162056Y-95992056D01*
X203162056Y-105002056D02*
X199632056Y-105002056D01*
X203162056Y-105002056D02*
X203162056Y-104937056D01*
X204487056Y-104937056D02*
X203162056Y-104937056D01*
%TO.C,R20*%
X195446359Y-90520000D02*
X195753641Y-90520000D01*
X195446359Y-91280000D02*
X195753641Y-91280000D01*
%TO.C,C4*%
X168590000Y-120965748D02*
X168590000Y-118134252D01*
X173810000Y-120965748D02*
X173810000Y-118134252D01*
%TO.C,R25*%
X165440697Y-83567056D02*
X165133415Y-83567056D01*
X165440697Y-84327056D02*
X165133415Y-84327056D01*
%TO.C,C18*%
X191646267Y-123390000D02*
X191353733Y-123390000D01*
X191646267Y-124410000D02*
X191353733Y-124410000D01*
%TO.C,D10*%
X191587500Y-90035000D02*
X193872500Y-90035000D01*
X193872500Y-88565000D02*
X191587500Y-88565000D01*
X193872500Y-90035000D02*
X193872500Y-88565000D01*
D14*
%TO.C,U3*%
X183076156Y-137213256D02*
X187317956Y-137213256D01*
X187317956Y-131980856D02*
X183076156Y-131980856D01*
D13*
%TO.C,J1*%
X168190000Y-133890000D02*
X168190000Y-136710000D01*
X168190000Y-133890000D02*
X169890000Y-132590000D01*
X168190000Y-136710000D02*
X169890000Y-138010000D01*
X169890000Y-132590000D02*
X178610000Y-132590000D01*
X169890000Y-138010000D02*
X178610000Y-138010000D01*
X178610000Y-132590000D02*
X178610000Y-138010000D01*
%TO.C,R18*%
X195356359Y-87320000D02*
X195663641Y-87320000D01*
X195356359Y-88080000D02*
X195663641Y-88080000D01*
%TO.C,D11*%
X191600000Y-91635000D02*
X193885000Y-91635000D01*
X193885000Y-90165000D02*
X191600000Y-90165000D01*
X193885000Y-91635000D02*
X193885000Y-90165000D01*
%TO.C,R17*%
X189960697Y-83517056D02*
X189653415Y-83517056D01*
X189960697Y-84277056D02*
X189653415Y-84277056D01*
%TO.C,J4*%
X198037056Y-126812056D02*
X198037056Y-132782056D01*
X198037056Y-132782056D02*
X205657056Y-132782056D01*
X198047056Y-130522056D02*
X198797056Y-130522056D01*
X198047056Y-132022056D02*
X198047056Y-132772056D01*
X198047056Y-132772056D02*
X199847056Y-132772056D01*
X198797056Y-127572056D02*
X201847056Y-127572056D01*
X198797056Y-130522056D02*
X198797056Y-127572056D01*
X199847056Y-132022056D02*
X198047056Y-132022056D01*
X199847056Y-132772056D02*
X199847056Y-132022056D01*
X201347056Y-132022056D02*
X201347056Y-132772056D01*
X201347056Y-132772056D02*
X202347056Y-132772056D01*
X202347056Y-132022056D02*
X201347056Y-132022056D01*
X202347056Y-132772056D02*
X202347056Y-132022056D01*
X203847056Y-132022056D02*
X203847056Y-132772056D01*
X203847056Y-132772056D02*
X205647056Y-132772056D01*
X204697056Y-133072056D02*
X205947056Y-133072056D01*
X204897056Y-127572056D02*
X201847056Y-127572056D01*
X204897056Y-130522056D02*
X204897056Y-127572056D01*
X205647056Y-130522056D02*
X204897056Y-130522056D01*
X205647056Y-132022056D02*
X203847056Y-132022056D01*
X205647056Y-132772056D02*
X205647056Y-132022056D01*
X205657056Y-126812056D02*
X198037056Y-126812056D01*
X205657056Y-132782056D02*
X205657056Y-126812056D01*
X205947056Y-133072056D02*
X205947056Y-131822056D01*
%TO.C,C22*%
X161589220Y-89437056D02*
X161804892Y-89437056D01*
X161589220Y-90157056D02*
X161804892Y-90157056D01*
%TO.C,R14*%
X178253641Y-83520000D02*
X177946359Y-83520000D01*
X178253641Y-84280000D02*
X177946359Y-84280000D01*
%TO.C,Q5*%
X194047056Y-132562056D02*
X193397056Y-132562056D01*
X194047056Y-132562056D02*
X194697056Y-132562056D01*
X194047056Y-135682056D02*
X193397056Y-135682056D01*
X194047056Y-135682056D02*
X194697056Y-135682056D01*
X192884556Y-132612056D02*
X192644556Y-132282056D01*
X193124556Y-132282056D01*
X192884556Y-132612056D01*
G36*
X192884556Y-132612056D02*
G01*
X192644556Y-132282056D01*
X193124556Y-132282056D01*
X192884556Y-132612056D01*
G37*
%TO.C,R12*%
X194110915Y-131142056D02*
X194418197Y-131142056D01*
X194110915Y-131902056D02*
X194418197Y-131902056D01*
%TO.C,C17*%
X191646267Y-125690000D02*
X191353733Y-125690000D01*
X191646267Y-126710000D02*
X191353733Y-126710000D01*
%TO.C,R15*%
X181817056Y-90950697D02*
X181817056Y-90643415D01*
X182577056Y-90950697D02*
X182577056Y-90643415D01*
%TO.C,R10*%
X198020000Y-124256359D02*
X198020000Y-124563641D01*
X198780000Y-124256359D02*
X198780000Y-124563641D01*
%TO.C,J7*%
X200922056Y-124147056D02*
X200922056Y-125397056D01*
X200922056Y-125397056D02*
X202172056Y-125397056D01*
X201212056Y-112487056D02*
X201212056Y-125107056D01*
X201212056Y-125107056D02*
X207182056Y-125107056D01*
X201222056Y-112497056D02*
X201222056Y-114297056D01*
X201222056Y-114297056D02*
X201972056Y-114297056D01*
X201222056Y-115797056D02*
X201222056Y-121797056D01*
X201222056Y-121797056D02*
X201972056Y-121797056D01*
X201222056Y-123297056D02*
X201222056Y-125097056D01*
X201222056Y-125097056D02*
X201972056Y-125097056D01*
X201972056Y-112497056D02*
X201222056Y-112497056D01*
X201972056Y-114297056D02*
X201972056Y-112497056D01*
X201972056Y-115797056D02*
X201222056Y-115797056D01*
X201972056Y-121797056D02*
X201972056Y-115797056D01*
X201972056Y-123297056D02*
X201222056Y-123297056D01*
X201972056Y-125097056D02*
X201972056Y-123297056D01*
X203472056Y-112497056D02*
X203472056Y-113247056D01*
X203472056Y-113247056D02*
X206422056Y-113247056D01*
X203472056Y-124347056D02*
X206422056Y-124347056D01*
X203472056Y-125097056D02*
X203472056Y-124347056D01*
X206422056Y-113247056D02*
X206422056Y-118797056D01*
X206422056Y-124347056D02*
X206422056Y-118797056D01*
X207182056Y-112487056D02*
X201212056Y-112487056D01*
X207182056Y-125107056D02*
X207182056Y-112487056D01*
%TO.C,R1*%
X180753641Y-108820000D02*
X180446359Y-108820000D01*
X180753641Y-109580000D02*
X180446359Y-109580000D01*
%TO.C,U6*%
X179362056Y-94667056D02*
X179362056Y-95617056D01*
X179362056Y-104887056D02*
X179362056Y-103937056D01*
X180312056Y-94667056D02*
X179362056Y-94667056D01*
X180312056Y-104887056D02*
X179362056Y-104887056D01*
X188632056Y-94667056D02*
X189582056Y-94667056D01*
X188632056Y-104887056D02*
X189582056Y-104887056D01*
X189582056Y-94667056D02*
X189582056Y-95617056D01*
X189582056Y-104887056D02*
X189582056Y-103937056D01*
X178747056Y-95617056D02*
X178407056Y-95147056D01*
X179087056Y-95147056D01*
X178747056Y-95617056D01*
G36*
X178747056Y-95617056D02*
G01*
X178407056Y-95147056D01*
X179087056Y-95147056D01*
X178747056Y-95617056D01*
G37*
%TO.C,C31*%
X198137056Y-84289220D02*
X198137056Y-84504892D01*
X198857056Y-84289220D02*
X198857056Y-84504892D01*
%TO.C,C24*%
X176684892Y-103437056D02*
X176469220Y-103437056D01*
X176684892Y-104157056D02*
X176469220Y-104157056D01*
%TO.C,D1*%
X179500000Y-111235000D02*
X181785000Y-111235000D01*
X181785000Y-109765000D02*
X179500000Y-109765000D01*
X181785000Y-111235000D02*
X181785000Y-109765000D01*
D15*
%TO.C,U7*%
X177150000Y-124723792D02*
X177150000Y-125068833D01*
X177150000Y-128731167D02*
X177150000Y-129076208D01*
X182450000Y-124050001D02*
X182450000Y-125068833D01*
X182450000Y-128731167D02*
X182450000Y-129076208D01*
D13*
%TO.C,C6*%
X190865070Y-133672056D02*
X191080742Y-133672056D01*
X190865070Y-134392056D02*
X191080742Y-134392056D01*
%TO.C,C14*%
X143092164Y-114640000D02*
X143307836Y-114640000D01*
X143092164Y-115360000D02*
X143307836Y-115360000D01*
%TO.C,BT1*%
X140750000Y-124850000D02*
X140750000Y-137700000D01*
X140750000Y-137700000D02*
X143300000Y-140550000D01*
X143300000Y-140550000D02*
X146450000Y-140550000D01*
X146450000Y-140550000D02*
X149050000Y-137700000D01*
X149050000Y-124850000D02*
X140750000Y-124850000D01*
X149050000Y-137700000D02*
X149050000Y-124850000D01*
%TO.C,C26*%
X186567392Y-107012056D02*
X186351720Y-107012056D01*
X186567392Y-107732056D02*
X186351720Y-107732056D01*
%TO.C,R6*%
X184646359Y-127120000D02*
X184953641Y-127120000D01*
X184646359Y-127880000D02*
X184953641Y-127880000D01*
%TO.C,R5*%
X188746359Y-114220000D02*
X189053641Y-114220000D01*
X188746359Y-114980000D02*
X189053641Y-114980000D01*
%TO.C,C20*%
X187607836Y-84540000D02*
X187392164Y-84540000D01*
X187607836Y-85260000D02*
X187392164Y-85260000D01*
%TO.C,C10*%
X147040000Y-110940000D02*
X150990000Y-110940000D01*
X147040000Y-120395563D02*
X147040000Y-110940000D01*
X148104437Y-121460000D02*
X147040000Y-120395563D01*
X148104437Y-121460000D02*
X150990000Y-121460000D01*
X156495563Y-121460000D02*
X153610000Y-121460000D01*
X156495563Y-121460000D02*
X157560000Y-120395563D01*
X157560000Y-110940000D02*
X153610000Y-110940000D01*
X157560000Y-120395563D02*
X157560000Y-110940000D01*
%TO.C,R11*%
X192017056Y-131140697D02*
X192017056Y-130833415D01*
X192777056Y-131140697D02*
X192777056Y-130833415D01*
%TO.C,Y1*%
X163468056Y-90757056D02*
X170326056Y-90757056D01*
X170326056Y-95837056D02*
X163468056Y-95837056D01*
X161198234Y-92456316D02*
G75*
G02*
X163595056Y-90757056I2396821J-840739D01*
G01*
X163595059Y-95837056D02*
G75*
G02*
X161198234Y-94137797I-3J2540001D01*
G01*
X170199056Y-90757056D02*
G75*
G02*
X172595878Y-92456316I0J-2540000D01*
G01*
X172595878Y-94137796D02*
G75*
G02*
X170199056Y-95837056I-2396822J840740D01*
G01*
D15*
%TO.C,U8*%
X166447056Y-125113248D02*
X166447056Y-125458289D01*
X166447056Y-129120623D02*
X166447056Y-129465664D01*
X171747056Y-124439457D02*
X171747056Y-125458289D01*
X171747056Y-129120623D02*
X171747056Y-129465664D01*
D14*
%TO.C,U2*%
X141083800Y-117379100D02*
X141083800Y-121620900D01*
X146316200Y-121620900D02*
X146316200Y-117379100D01*
D13*
%TO.C,J5*%
X198037056Y-134312056D02*
X198037056Y-140282056D01*
X198037056Y-140282056D02*
X205657056Y-140282056D01*
X198047056Y-138022056D02*
X198797056Y-138022056D01*
X198047056Y-139522056D02*
X198047056Y-140272056D01*
X198047056Y-140272056D02*
X199847056Y-140272056D01*
X198797056Y-135072056D02*
X201847056Y-135072056D01*
X198797056Y-138022056D02*
X198797056Y-135072056D01*
X199847056Y-139522056D02*
X198047056Y-139522056D01*
X199847056Y-140272056D02*
X199847056Y-139522056D01*
X201347056Y-139522056D02*
X201347056Y-140272056D01*
X201347056Y-140272056D02*
X202347056Y-140272056D01*
X202347056Y-139522056D02*
X201347056Y-139522056D01*
X202347056Y-140272056D02*
X202347056Y-139522056D01*
X203847056Y-139522056D02*
X203847056Y-140272056D01*
X203847056Y-140272056D02*
X205647056Y-140272056D01*
X204697056Y-140572056D02*
X205947056Y-140572056D01*
X204897056Y-135072056D02*
X201847056Y-135072056D01*
X204897056Y-138022056D02*
X204897056Y-135072056D01*
X205647056Y-138022056D02*
X204897056Y-138022056D01*
X205647056Y-139522056D02*
X203847056Y-139522056D01*
X205647056Y-140272056D02*
X205647056Y-139522056D01*
X205657056Y-134312056D02*
X198037056Y-134312056D01*
X205657056Y-140282056D02*
X205657056Y-134312056D01*
X205947056Y-140572056D02*
X205947056Y-139322056D01*
%TO.C,J3*%
X157285000Y-138670000D02*
X157285000Y-138605000D01*
X157285000Y-145075000D02*
X157285000Y-145010000D01*
X160815000Y-138605000D02*
X157285000Y-138605000D01*
X160815000Y-138670000D02*
X160815000Y-138605000D01*
X160815000Y-145075000D02*
X157285000Y-145075000D01*
X160815000Y-145075000D02*
X160815000Y-145010000D01*
X162140000Y-145010000D02*
X160815000Y-145010000D01*
D16*
%TO.C,G\u002A\u002A\u002A1*%
G36*
X191451913Y-143493555D02*
G01*
X191598932Y-143493768D01*
X191726660Y-143494167D01*
X191836606Y-143494770D01*
X191930282Y-143495593D01*
X192009198Y-143496654D01*
X192074864Y-143497971D01*
X192128792Y-143499560D01*
X192172490Y-143501439D01*
X192207471Y-143503625D01*
X192235243Y-143506136D01*
X192257319Y-143508989D01*
X192275208Y-143512200D01*
X192290420Y-143515789D01*
X192304467Y-143519770D01*
X192307660Y-143520734D01*
X192366337Y-143542715D01*
X192420423Y-143569939D01*
X192452357Y-143591896D01*
X192466241Y-143608521D01*
X192487414Y-143640916D01*
X192516527Y-143690304D01*
X192554233Y-143757907D01*
X192601182Y-143844949D01*
X192658028Y-143952654D01*
X192725422Y-144082245D01*
X192804016Y-144234945D01*
X192894461Y-144411977D01*
X192997409Y-144614564D01*
X192999715Y-144619111D01*
X193499435Y-145604649D01*
X193310456Y-145614132D01*
X193222508Y-145618300D01*
X193117075Y-145622922D01*
X193006516Y-145627475D01*
X192903195Y-145631437D01*
X192888812Y-145631957D01*
X192656149Y-145640299D01*
X192489654Y-145301428D01*
X192430697Y-145180465D01*
X192384347Y-145082237D01*
X192349478Y-145002960D01*
X192324964Y-144938848D01*
X192309678Y-144886118D01*
X192302493Y-144840985D01*
X192302283Y-144799665D01*
X192307921Y-144758373D01*
X192316582Y-144720025D01*
X192336444Y-144585601D01*
X192328289Y-144456448D01*
X192292900Y-144335447D01*
X192231059Y-144225482D01*
X192160288Y-144144737D01*
X192081832Y-144077073D01*
X192009233Y-144031733D01*
X191933649Y-144005046D01*
X191846240Y-143993338D01*
X191792493Y-143991950D01*
X191723003Y-143993145D01*
X191671930Y-143998256D01*
X191627869Y-144009575D01*
X191579415Y-144029392D01*
X191559199Y-144038811D01*
X191453207Y-144099587D01*
X191370952Y-144171948D01*
X191307009Y-144261047D01*
X191288669Y-144295676D01*
X191265430Y-144345458D01*
X191251076Y-144386383D01*
X191243539Y-144428808D01*
X191240752Y-144483089D01*
X191240531Y-144536720D01*
X191241947Y-144608796D01*
X191246748Y-144660985D01*
X191256732Y-144703221D01*
X191273696Y-144745440D01*
X191281086Y-144760968D01*
X191343888Y-144866989D01*
X191421774Y-144953395D01*
X191499006Y-145013778D01*
X191564262Y-145061203D01*
X191616454Y-145107026D01*
X191660068Y-145157230D01*
X191699592Y-145217797D01*
X191739513Y-145294712D01*
X191784317Y-145393958D01*
X191784595Y-145394599D01*
X191815836Y-145466977D01*
X191842370Y-145529035D01*
X191862141Y-145575918D01*
X191873093Y-145602772D01*
X191874621Y-145607198D01*
X191860343Y-145608518D01*
X191820122Y-145609704D01*
X191757883Y-145610706D01*
X191677547Y-145611475D01*
X191583038Y-145611961D01*
X191486810Y-145612115D01*
X191098998Y-145612115D01*
X191029659Y-145481456D01*
X191007156Y-145438552D01*
X190973058Y-145372871D01*
X190929335Y-145288240D01*
X190877960Y-145188488D01*
X190820902Y-145077442D01*
X190760134Y-144958931D01*
X190697626Y-144836782D01*
X190689516Y-144820916D01*
X190619307Y-144683994D01*
X190560950Y-144571367D01*
X190513036Y-144480566D01*
X190474161Y-144409126D01*
X190442915Y-144354580D01*
X190417893Y-144314462D01*
X190397687Y-144286304D01*
X190380890Y-144267639D01*
X190367974Y-144257218D01*
X190317236Y-144223402D01*
X189350385Y-144223402D01*
X188383535Y-144223402D01*
X188340924Y-144273022D01*
X188325884Y-144296080D01*
X188299142Y-144343120D01*
X188262173Y-144411321D01*
X188216452Y-144497863D01*
X188163454Y-144599927D01*
X188104653Y-144714693D01*
X188041524Y-144839341D01*
X187975543Y-144971052D01*
X187969936Y-144982311D01*
X187641559Y-145641980D01*
X187241982Y-145641980D01*
X187136251Y-145641719D01*
X187041021Y-145640984D01*
X186960157Y-145639845D01*
X186897524Y-145638372D01*
X186856985Y-145636637D01*
X186842406Y-145634709D01*
X186842405Y-145634688D01*
X186848891Y-145620466D01*
X186867657Y-145581621D01*
X186897662Y-145520260D01*
X186937866Y-145438491D01*
X186987227Y-145338421D01*
X187044706Y-145222155D01*
X187109261Y-145091803D01*
X187179852Y-144949470D01*
X187255440Y-144797264D01*
X187331441Y-144644409D01*
X187411516Y-144483382D01*
X187488114Y-144329210D01*
X187560130Y-144184126D01*
X187626459Y-144050360D01*
X187685996Y-143930143D01*
X187737639Y-143825709D01*
X187780281Y-143739287D01*
X187812819Y-143673110D01*
X187834148Y-143629409D01*
X187842875Y-143611078D01*
X187870623Y-143567055D01*
X187906526Y-143530626D01*
X187907431Y-143529957D01*
X187913534Y-143525706D01*
X187920598Y-143521863D01*
X187930095Y-143518404D01*
X187943498Y-143515305D01*
X187962278Y-143512544D01*
X187987908Y-143510096D01*
X188021860Y-143507938D01*
X188065606Y-143506047D01*
X188120619Y-143504399D01*
X188188370Y-143502970D01*
X188270332Y-143501737D01*
X188367976Y-143500676D01*
X188482776Y-143499764D01*
X188616203Y-143498978D01*
X188769729Y-143498293D01*
X188944827Y-143497686D01*
X189142968Y-143497134D01*
X189365625Y-143496613D01*
X189614271Y-143496099D01*
X189890377Y-143495570D01*
X190080094Y-143495216D01*
X190374581Y-143494675D01*
X190640714Y-143494218D01*
X190880004Y-143493859D01*
X191093960Y-143493618D01*
X191284093Y-143493511D01*
X191451913Y-143493555D01*
G37*
G36*
X193325686Y-138994091D02*
G01*
X193427691Y-139034487D01*
X193516252Y-139094958D01*
X193527034Y-139104822D01*
X193574214Y-139149631D01*
X193506755Y-139253912D01*
X193468350Y-139317527D01*
X193427748Y-139391813D01*
X193388615Y-139469274D01*
X193354616Y-139542415D01*
X193329416Y-139603741D01*
X193317816Y-139640272D01*
X193314647Y-139659972D01*
X193320194Y-139672706D01*
X193340149Y-139681566D01*
X193380199Y-139689647D01*
X193420442Y-139696061D01*
X193588029Y-139736690D01*
X193750369Y-139804315D01*
X193901909Y-139896071D01*
X194037097Y-140009092D01*
X194048246Y-140020183D01*
X194103480Y-140085322D01*
X194161931Y-140170006D01*
X194218280Y-140265159D01*
X194267208Y-140361707D01*
X194303395Y-140450576D01*
X194307113Y-140461798D01*
X194312993Y-140494530D01*
X194318443Y-140551800D01*
X194323128Y-140628283D01*
X194326714Y-140718653D01*
X194328692Y-140805243D01*
X194330473Y-140908954D01*
X194333057Y-140989098D01*
X194337674Y-141051970D01*
X194345552Y-141103866D01*
X194357920Y-141151082D01*
X194376007Y-141199911D01*
X194401042Y-141256649D01*
X194428126Y-141314571D01*
X194436745Y-141337469D01*
X194435224Y-141357578D01*
X194420350Y-141382432D01*
X194388913Y-141419565D01*
X194378326Y-141431386D01*
X194332922Y-141486819D01*
X194287917Y-141549602D01*
X194262270Y-141590516D01*
X194236915Y-141636727D01*
X194225214Y-141666979D01*
X194225247Y-141690794D01*
X194235097Y-141717698D01*
X194236168Y-141720085D01*
X194250170Y-141778227D01*
X194247293Y-141841686D01*
X194242036Y-141884075D01*
X194234620Y-141948302D01*
X194225932Y-142026497D01*
X194216857Y-142110788D01*
X194214449Y-142133625D01*
X194204887Y-142215085D01*
X194194291Y-142289484D01*
X194183764Y-142350018D01*
X194174406Y-142389881D01*
X194171733Y-142397409D01*
X194153761Y-142425318D01*
X194118787Y-142468737D01*
X194071368Y-142522900D01*
X194016060Y-142583040D01*
X193957420Y-142644389D01*
X193900006Y-142702182D01*
X193848372Y-142751651D01*
X193807076Y-142788030D01*
X193780675Y-142806551D01*
X193780599Y-142806586D01*
X193747832Y-142815120D01*
X193717644Y-142803056D01*
X193708277Y-142796341D01*
X193686210Y-142776800D01*
X193667329Y-142752396D01*
X193651308Y-142720666D01*
X193637815Y-142679143D01*
X193626524Y-142625363D01*
X193617104Y-142556863D01*
X193609228Y-142471177D01*
X193602565Y-142365841D01*
X193596787Y-142238391D01*
X193591565Y-142086361D01*
X193586571Y-141907288D01*
X193585848Y-141879017D01*
X193577336Y-141543038D01*
X193817482Y-141334193D01*
X193890098Y-141270074D01*
X193955716Y-141210303D01*
X194010662Y-141158374D01*
X194051264Y-141117781D01*
X194073849Y-141092018D01*
X194076509Y-141087809D01*
X194086515Y-141055355D01*
X194096036Y-141003138D01*
X194103321Y-140941233D01*
X194104467Y-140927077D01*
X194108193Y-140865514D01*
X194107857Y-140828125D01*
X194102874Y-140809423D01*
X194092662Y-140803920D01*
X194091352Y-140803884D01*
X194072321Y-140811040D01*
X194032062Y-140830821D01*
X193975081Y-140860699D01*
X193905886Y-140898146D01*
X193828981Y-140940634D01*
X193748875Y-140985632D01*
X193670073Y-141030615D01*
X193597082Y-141073052D01*
X193534408Y-141110415D01*
X193486557Y-141140176D01*
X193460881Y-141157626D01*
X193418474Y-141194213D01*
X193388387Y-141234559D01*
X193367159Y-141285988D01*
X193351330Y-141355826D01*
X193343474Y-141406128D01*
X193330059Y-141514132D01*
X193324323Y-141598207D01*
X193326432Y-141663328D01*
X193336553Y-141714470D01*
X193354852Y-141756608D01*
X193355216Y-141757244D01*
X193387369Y-141813110D01*
X193290215Y-141958393D01*
X193193062Y-142103676D01*
X193101272Y-141964474D01*
X193064391Y-141907421D01*
X193034584Y-141859181D01*
X193015218Y-141825345D01*
X193009483Y-141812061D01*
X193015456Y-141791526D01*
X193030503Y-141755283D01*
X193038437Y-141738140D01*
X193050435Y-141710317D01*
X193057824Y-141682927D01*
X193060983Y-141649330D01*
X193060292Y-141602884D01*
X193056130Y-141536948D01*
X193052563Y-141490774D01*
X193044228Y-141397174D01*
X193035285Y-141327909D01*
X193024179Y-141277465D01*
X193009354Y-141240330D01*
X192989257Y-141210988D01*
X192967334Y-141188488D01*
X192942451Y-141169940D01*
X192897311Y-141140584D01*
X192836299Y-141102938D01*
X192763802Y-141059519D01*
X192684206Y-141012843D01*
X192601897Y-140965428D01*
X192521261Y-140919790D01*
X192446684Y-140878448D01*
X192382553Y-140843917D01*
X192333253Y-140818715D01*
X192303171Y-140805360D01*
X192297137Y-140803884D01*
X192285940Y-140807738D01*
X192280213Y-140823055D01*
X192279363Y-140855467D01*
X192282794Y-140910606D01*
X192284125Y-140927077D01*
X192289709Y-140987427D01*
X192295482Y-141038136D01*
X192300399Y-141070319D01*
X192301436Y-141074648D01*
X192315001Y-141093160D01*
X192348537Y-141128619D01*
X192399366Y-141178501D01*
X192464812Y-141240284D01*
X192542199Y-141311446D01*
X192628850Y-141389463D01*
X192722089Y-141471813D01*
X192732247Y-141480692D01*
X192814762Y-141552737D01*
X192806843Y-141786806D01*
X192800000Y-141977511D01*
X192793012Y-142150107D01*
X192785978Y-142302849D01*
X192778997Y-142433993D01*
X192772168Y-142541793D01*
X192765588Y-142624505D01*
X192759357Y-142680386D01*
X192755053Y-142703352D01*
X192734943Y-142746617D01*
X192703623Y-142785766D01*
X192669157Y-142812312D01*
X192645359Y-142818811D01*
X192618696Y-142812618D01*
X192598842Y-142805386D01*
X192570497Y-142786415D01*
X192527888Y-142749235D01*
X192475629Y-142698778D01*
X192418335Y-142639976D01*
X192360618Y-142577763D01*
X192307093Y-142517069D01*
X192262374Y-142462829D01*
X192231073Y-142419974D01*
X192220048Y-142400420D01*
X192203779Y-142347820D01*
X192190352Y-142276193D01*
X192182075Y-142200063D01*
X192174027Y-142104477D01*
X192163847Y-142010019D01*
X192152472Y-141923745D01*
X192140838Y-141852714D01*
X192129883Y-141803982D01*
X192129213Y-141801743D01*
X192126314Y-141758818D01*
X192144152Y-141717121D01*
X192171323Y-141672441D01*
X192119028Y-141585341D01*
X192080406Y-141525704D01*
X192035995Y-141463827D01*
X192007303Y-141427529D01*
X191947872Y-141356817D01*
X192003925Y-141211009D01*
X192059977Y-141065201D01*
X192061368Y-140772021D01*
X192062759Y-140478842D01*
X192150530Y-140301651D01*
X192193118Y-140218766D01*
X192230257Y-140155187D01*
X192267677Y-140102522D01*
X192311109Y-140052385D01*
X192343909Y-140018549D01*
X192464362Y-139914789D01*
X192601320Y-139826196D01*
X192747707Y-139756319D01*
X192896449Y-139708711D01*
X192996945Y-139690681D01*
X193081468Y-139680848D01*
X193053307Y-139598998D01*
X193018747Y-139511994D01*
X192972958Y-139415296D01*
X192922171Y-139321112D01*
X192872620Y-139241649D01*
X192866010Y-139232215D01*
X192838623Y-139191584D01*
X192820232Y-139159970D01*
X192815362Y-139147114D01*
X192828558Y-139123266D01*
X192864038Y-139093689D01*
X192915642Y-139061749D01*
X192977208Y-139030814D01*
X193042576Y-139004253D01*
X193105584Y-138985432D01*
X193114861Y-138983400D01*
X193218616Y-138976240D01*
X193325686Y-138994091D01*
G37*
G36*
X191374924Y-137263845D02*
G01*
X191414430Y-137351206D01*
X191450705Y-137429781D01*
X191481715Y-137495295D01*
X191505429Y-137543475D01*
X191519811Y-137570049D01*
X191522206Y-137573393D01*
X191542630Y-137580968D01*
X191587141Y-137589479D01*
X191650017Y-137598053D01*
X191725534Y-137605815D01*
X191745506Y-137607508D01*
X191827227Y-137615255D01*
X191919452Y-137625799D01*
X192015782Y-137638217D01*
X192109813Y-137651587D01*
X192195145Y-137664986D01*
X192265375Y-137677491D01*
X192314101Y-137688180D01*
X192323088Y-137690744D01*
X192338605Y-137683735D01*
X192367214Y-137656232D01*
X192409791Y-137607218D01*
X192467215Y-137535671D01*
X192540365Y-137440574D01*
X192553400Y-137423352D01*
X192760818Y-137148800D01*
X192873951Y-137197190D01*
X192923814Y-137218281D01*
X192994750Y-137247964D01*
X193080194Y-137283508D01*
X193173585Y-137322183D01*
X193268357Y-137361260D01*
X193270800Y-137362265D01*
X193356370Y-137397542D01*
X193432101Y-137428925D01*
X193493811Y-137454666D01*
X193537316Y-137473019D01*
X193558433Y-137482237D01*
X193559731Y-137482915D01*
X193559909Y-137498010D01*
X193557815Y-137537538D01*
X193553874Y-137596193D01*
X193548514Y-137668666D01*
X193542162Y-137749650D01*
X193535245Y-137833835D01*
X193528189Y-137915915D01*
X193521422Y-137990581D01*
X193515369Y-138052524D01*
X193510459Y-138096437D01*
X193510291Y-138097756D01*
X193509269Y-138129128D01*
X193520273Y-138151606D01*
X193549386Y-138174688D01*
X193566594Y-138185675D01*
X193776838Y-138324250D01*
X193984327Y-138475139D01*
X194021910Y-138504131D01*
X194080356Y-138548849D01*
X194130874Y-138585963D01*
X194168590Y-138612003D01*
X194188629Y-138623497D01*
X194189912Y-138623755D01*
X194207159Y-138617353D01*
X194246757Y-138599506D01*
X194304408Y-138572250D01*
X194375816Y-138537621D01*
X194456681Y-138497656D01*
X194469281Y-138491367D01*
X194552534Y-138450041D01*
X194628219Y-138413002D01*
X194691693Y-138382479D01*
X194738314Y-138360703D01*
X194763439Y-138349903D01*
X194764716Y-138349473D01*
X194778061Y-138349535D01*
X194795999Y-138358864D01*
X194821174Y-138380033D01*
X194856230Y-138415618D01*
X194903810Y-138468193D01*
X194966559Y-138540331D01*
X194996168Y-138574856D01*
X195062981Y-138652967D01*
X195128972Y-138730113D01*
X195189547Y-138800924D01*
X195240111Y-138860030D01*
X195276070Y-138902060D01*
X195277306Y-138903503D01*
X195357533Y-138997261D01*
X195176174Y-139286469D01*
X194994816Y-139575676D01*
X195118346Y-139798466D01*
X195164416Y-139883420D01*
X195209664Y-139970165D01*
X195250097Y-140050820D01*
X195281723Y-140117503D01*
X195293257Y-140143787D01*
X195344638Y-140266318D01*
X195584438Y-140268819D01*
X195668882Y-140269826D01*
X195745189Y-140270971D01*
X195807283Y-140272143D01*
X195849084Y-140273235D01*
X195861570Y-140273784D01*
X195901491Y-140276043D01*
X195951254Y-140278403D01*
X195959437Y-140278749D01*
X196019974Y-140281251D01*
X196120170Y-140695625D01*
X196145921Y-140802449D01*
X196169208Y-140899676D01*
X196189146Y-140983566D01*
X196204852Y-141050382D01*
X196215443Y-141096382D01*
X196220036Y-141117829D01*
X196220157Y-141118830D01*
X196207863Y-141128743D01*
X196173565Y-141151562D01*
X196120948Y-141184962D01*
X196053699Y-141226617D01*
X195975502Y-141274204D01*
X195939728Y-141295731D01*
X195659509Y-141463800D01*
X195659746Y-141856486D01*
X195659983Y-142249171D01*
X195954897Y-142410006D01*
X196039752Y-142456662D01*
X196115020Y-142498776D01*
X196176993Y-142534210D01*
X196221960Y-142560831D01*
X196246212Y-142576501D01*
X196249411Y-142579573D01*
X196245697Y-142597555D01*
X196235723Y-142639548D01*
X196220626Y-142701089D01*
X196201542Y-142777715D01*
X196179608Y-142864963D01*
X196155961Y-142958369D01*
X196131736Y-143053472D01*
X196108070Y-143145808D01*
X196086099Y-143230914D01*
X196066960Y-143304328D01*
X196051789Y-143361585D01*
X196041722Y-143398225D01*
X196037997Y-143409859D01*
X196021102Y-143413425D01*
X195980045Y-143418016D01*
X195920494Y-143423252D01*
X195848118Y-143428750D01*
X195768587Y-143434126D01*
X195687570Y-143438999D01*
X195610735Y-143442985D01*
X195543752Y-143445702D01*
X195492289Y-143446768D01*
X195491141Y-143446770D01*
X195382029Y-143446918D01*
X195335238Y-143555178D01*
X195284961Y-143665019D01*
X195223904Y-143788275D01*
X195157134Y-143915377D01*
X195089719Y-144036758D01*
X195026728Y-144142851D01*
X195009281Y-144170532D01*
X194968982Y-144234646D01*
X194943475Y-144279373D01*
X194930532Y-144309864D01*
X194927924Y-144331271D01*
X194932776Y-144347450D01*
X194945132Y-144369933D01*
X194970290Y-144413549D01*
X195005639Y-144473851D01*
X195048570Y-144546391D01*
X195096472Y-144626721D01*
X195105328Y-144641509D01*
X195261921Y-144902826D01*
X194953384Y-145212673D01*
X194874862Y-145291222D01*
X194803193Y-145362330D01*
X194741055Y-145423386D01*
X194691129Y-145471777D01*
X194656092Y-145504893D01*
X194638626Y-145520121D01*
X194637247Y-145520823D01*
X194622454Y-145513584D01*
X194585189Y-145494232D01*
X194529291Y-145464795D01*
X194458595Y-145427295D01*
X194376937Y-145383758D01*
X194333088Y-145360300D01*
X194036528Y-145201474D01*
X193917416Y-144965581D01*
X193798304Y-144729687D01*
X193870531Y-144668419D01*
X193937925Y-144607876D01*
X194017646Y-144530950D01*
X194103324Y-144444276D01*
X194188588Y-144354488D01*
X194267070Y-144268222D01*
X194332397Y-144192114D01*
X194355754Y-144163014D01*
X194543455Y-143899358D01*
X194705279Y-143623086D01*
X194841730Y-143332998D01*
X194953310Y-143027891D01*
X195040521Y-142706566D01*
X195102157Y-142379252D01*
X195111257Y-142296190D01*
X195117698Y-142190021D01*
X195121529Y-142067380D01*
X195122797Y-141934901D01*
X195121552Y-141799221D01*
X195117843Y-141666972D01*
X195111718Y-141544791D01*
X195103227Y-141439312D01*
X195094747Y-141371315D01*
X195028804Y-141035520D01*
X194937211Y-140714308D01*
X194819255Y-140405831D01*
X194674220Y-140108236D01*
X194501392Y-139819674D01*
X194488351Y-139799939D01*
X194292060Y-139530776D01*
X194075071Y-139281765D01*
X193838965Y-139054019D01*
X193585323Y-138848653D01*
X193315723Y-138666781D01*
X193031748Y-138509517D01*
X192734976Y-138377975D01*
X192426988Y-138273269D01*
X192260510Y-138229219D01*
X192125620Y-138198825D01*
X192002703Y-138175694D01*
X191883922Y-138158986D01*
X191761441Y-138147858D01*
X191627423Y-138141469D01*
X191474031Y-138138978D01*
X191419183Y-138138867D01*
X191249066Y-138140845D01*
X191102221Y-138146955D01*
X190972257Y-138157834D01*
X190852788Y-138174118D01*
X190737425Y-138196442D01*
X190662942Y-138214156D01*
X190614416Y-138225778D01*
X190576928Y-138233534D01*
X190562236Y-138235513D01*
X190550625Y-138222786D01*
X190528372Y-138187428D01*
X190497883Y-138133670D01*
X190461564Y-138065745D01*
X190424380Y-137993001D01*
X190302945Y-137750489D01*
X190312316Y-137638357D01*
X190319278Y-137563849D01*
X190328324Y-137479791D01*
X190338682Y-137392082D01*
X190349581Y-137306617D01*
X190360251Y-137229294D01*
X190369921Y-137166009D01*
X190377819Y-137122660D01*
X190381674Y-137107869D01*
X190388053Y-137097250D01*
X190401006Y-137088392D01*
X190424455Y-137080466D01*
X190462322Y-137072647D01*
X190518530Y-137064108D01*
X190597000Y-137054022D01*
X190689535Y-137042981D01*
X190790900Y-137030930D01*
X190891825Y-137018634D01*
X190984886Y-137007018D01*
X191062662Y-136997008D01*
X191115112Y-136989904D01*
X191244080Y-136971601D01*
X191374924Y-137263845D01*
G37*
G36*
X189448094Y-137666770D02*
G01*
X189516850Y-137708424D01*
X189547502Y-137737678D01*
X189558224Y-137755385D01*
X189581437Y-137798509D01*
X189616445Y-137865665D01*
X189662558Y-137955474D01*
X189719080Y-138066551D01*
X189785320Y-138197515D01*
X189860584Y-138346985D01*
X189944178Y-138513577D01*
X190035411Y-138695910D01*
X190133589Y-138892601D01*
X190238018Y-139102269D01*
X190348006Y-139323530D01*
X190462859Y-139555005D01*
X190581884Y-139795309D01*
X190704389Y-140043060D01*
X190755652Y-140146859D01*
X190904304Y-140447952D01*
X191040287Y-140723441D01*
X191164143Y-140974511D01*
X191276411Y-141202344D01*
X191377630Y-141408123D01*
X191468339Y-141593031D01*
X191549078Y-141758250D01*
X191620387Y-141904965D01*
X191682805Y-142034358D01*
X191736872Y-142147612D01*
X191783127Y-142245909D01*
X191822109Y-142330434D01*
X191854359Y-142402368D01*
X191880415Y-142462896D01*
X191900817Y-142513199D01*
X191916105Y-142554461D01*
X191926818Y-142587864D01*
X191933496Y-142614593D01*
X191936677Y-142635829D01*
X191936903Y-142652756D01*
X191934711Y-142666557D01*
X191930642Y-142678415D01*
X191925235Y-142689512D01*
X191919813Y-142699561D01*
X191896045Y-142725278D01*
X191855833Y-142752915D01*
X191832280Y-142765165D01*
X191762628Y-142797359D01*
X190130846Y-142801594D01*
X189873014Y-142802232D01*
X189643371Y-142802720D01*
X189440243Y-142803036D01*
X189261955Y-142803163D01*
X189106832Y-142803080D01*
X188973200Y-142802767D01*
X188859384Y-142802205D01*
X188763709Y-142801374D01*
X188684499Y-142800255D01*
X188620082Y-142798828D01*
X188568780Y-142797074D01*
X188528921Y-142794972D01*
X188498828Y-142792504D01*
X188476828Y-142789648D01*
X188461245Y-142786387D01*
X188450404Y-142782700D01*
X188448597Y-142781881D01*
X188407285Y-142754404D01*
X188381584Y-142716665D01*
X188371486Y-142665777D01*
X188376983Y-142598854D01*
X188398068Y-142513008D01*
X188434731Y-142405352D01*
X188447448Y-142371786D01*
X188490817Y-142261088D01*
X188527428Y-142174162D01*
X188560450Y-142106610D01*
X188593052Y-142054036D01*
X188628403Y-142012045D01*
X188669673Y-141976241D01*
X188720030Y-141942228D01*
X188782644Y-141905610D01*
X188784130Y-141904772D01*
X188859153Y-141850965D01*
X188932702Y-141778208D01*
X188995750Y-141696443D01*
X189032730Y-141630866D01*
X189050684Y-141588399D01*
X189061412Y-141550844D01*
X189066252Y-141508729D01*
X189066541Y-141452579D01*
X189064885Y-141403126D01*
X189053578Y-141288961D01*
X189027663Y-141194975D01*
X188983880Y-141113720D01*
X188918969Y-141037751D01*
X188894898Y-141014887D01*
X188804900Y-140945491D01*
X188710502Y-140900462D01*
X188604249Y-140876994D01*
X188514833Y-140871866D01*
X188444990Y-140873100D01*
X188392791Y-140879180D01*
X188346122Y-140892405D01*
X188296751Y-140913278D01*
X188200293Y-140972033D01*
X188112207Y-141052471D01*
X188040635Y-141146414D01*
X188011849Y-141199593D01*
X187997894Y-141230692D01*
X187987329Y-141258966D01*
X187979838Y-141288850D01*
X187975104Y-141324781D01*
X187972811Y-141371197D01*
X187972644Y-141432534D01*
X187974286Y-141513230D01*
X187977422Y-141617720D01*
X187978871Y-141662497D01*
X187982763Y-141781956D01*
X187033039Y-143690826D01*
X186921704Y-143914561D01*
X186814007Y-144130906D01*
X186710698Y-144338359D01*
X186612528Y-144535416D01*
X186520245Y-144720575D01*
X186434600Y-144892335D01*
X186356342Y-145049191D01*
X186286222Y-145189642D01*
X186224989Y-145312185D01*
X186173393Y-145415318D01*
X186132184Y-145497538D01*
X186102112Y-145557343D01*
X186083926Y-145593229D01*
X186078351Y-145603831D01*
X186062720Y-145605249D01*
X186021113Y-145607169D01*
X185957415Y-145609463D01*
X185875508Y-145612002D01*
X185779275Y-145614659D01*
X185672599Y-145617306D01*
X185664889Y-145617486D01*
X185542991Y-145620170D01*
X185447844Y-145621802D01*
X185376351Y-145622283D01*
X185325414Y-145621513D01*
X185291934Y-145619394D01*
X185272815Y-145615824D01*
X185264957Y-145610706D01*
X185264969Y-145604654D01*
X185273769Y-145585908D01*
X185295272Y-145542133D01*
X185328757Y-145474751D01*
X185373504Y-145385188D01*
X185428792Y-145274866D01*
X185493899Y-145145212D01*
X185568107Y-144997647D01*
X185650694Y-144833598D01*
X185740939Y-144654487D01*
X185838122Y-144461739D01*
X185941523Y-144256778D01*
X186050420Y-144041029D01*
X186164093Y-143815915D01*
X186281822Y-143582860D01*
X186402886Y-143343290D01*
X186526564Y-143098627D01*
X186652136Y-142850296D01*
X186778881Y-142599721D01*
X186906078Y-142348327D01*
X187033007Y-142097537D01*
X187158948Y-141848775D01*
X187283179Y-141603467D01*
X187404981Y-141363035D01*
X187523631Y-141128904D01*
X187638411Y-140902498D01*
X187748599Y-140685242D01*
X187853475Y-140478559D01*
X187952317Y-140283874D01*
X188044407Y-140102610D01*
X188129022Y-139936192D01*
X188205442Y-139786045D01*
X188272947Y-139653591D01*
X188330816Y-139540256D01*
X188378329Y-139447463D01*
X188414764Y-139376637D01*
X188439402Y-139329202D01*
X188451521Y-139306581D01*
X188452604Y-139304851D01*
X188483769Y-139279437D01*
X188525117Y-139256529D01*
X188527181Y-139255640D01*
X188563463Y-139243426D01*
X188593270Y-139245396D01*
X188630749Y-139261434D01*
X188675633Y-139291711D01*
X188717609Y-139332205D01*
X188724307Y-139340510D01*
X188737348Y-139362276D01*
X188762433Y-139408583D01*
X188798414Y-139477178D01*
X188844146Y-139565809D01*
X188898483Y-139672221D01*
X188960277Y-139794163D01*
X189028382Y-139929381D01*
X189101652Y-140075621D01*
X189178941Y-140230632D01*
X189247900Y-140369541D01*
X189731823Y-141346309D01*
X189727571Y-141539861D01*
X189726838Y-141637986D01*
X189729882Y-141713251D01*
X189737192Y-141772477D01*
X189747484Y-141816536D01*
X189795710Y-141930239D01*
X189869047Y-142029502D01*
X189965180Y-142111707D01*
X190052188Y-142161222D01*
X190097554Y-142180422D01*
X190140038Y-142192125D01*
X190189712Y-142198071D01*
X190256651Y-142200003D01*
X190276855Y-142200063D01*
X190347411Y-142199073D01*
X190398630Y-142194745D01*
X190441013Y-142185037D01*
X190485060Y-142167910D01*
X190515773Y-142153646D01*
X190625025Y-142085784D01*
X190715366Y-141997066D01*
X190781502Y-141894049D01*
X190801145Y-141850350D01*
X190813156Y-141810587D01*
X190819284Y-141764914D01*
X190821279Y-141703481D01*
X190821303Y-141669963D01*
X190819021Y-141589301D01*
X190811851Y-141527513D01*
X190798146Y-141473784D01*
X190786651Y-141442294D01*
X190751057Y-141373874D01*
X190700000Y-141302360D01*
X190640807Y-141236288D01*
X190580806Y-141184194D01*
X190546716Y-141162812D01*
X190524067Y-141150954D01*
X190502994Y-141138561D01*
X190482621Y-141124088D01*
X190462073Y-141105986D01*
X190440470Y-141082709D01*
X190416939Y-141052710D01*
X190390600Y-141014442D01*
X190360579Y-140966359D01*
X190325998Y-140906914D01*
X190285980Y-140834560D01*
X190239649Y-140747749D01*
X190186129Y-140644936D01*
X190124542Y-140524573D01*
X190054012Y-140385114D01*
X189973662Y-140225011D01*
X189882616Y-140042719D01*
X189779997Y-139836689D01*
X189671284Y-139618157D01*
X189542785Y-139359339D01*
X189427892Y-139126979D01*
X189326558Y-138920976D01*
X189238732Y-138741227D01*
X189164366Y-138587631D01*
X189103411Y-138460086D01*
X189055819Y-138358491D01*
X189021540Y-138282744D01*
X189000524Y-138232742D01*
X188992725Y-138208386D01*
X188992669Y-138207431D01*
X189000952Y-138149976D01*
X189026349Y-138076234D01*
X189069689Y-137984254D01*
X189131797Y-137872089D01*
X189142837Y-137853312D01*
X189191876Y-137774171D01*
X189232873Y-137718431D01*
X189270175Y-137682319D01*
X189308129Y-137662064D01*
X189351080Y-137653891D01*
X189373445Y-137653149D01*
X189448094Y-137666770D01*
G37*
D13*
%TO.C,C39*%
X175504892Y-84637056D02*
X175289220Y-84637056D01*
X175504892Y-85357056D02*
X175289220Y-85357056D01*
%TO.C,U5*%
X160875000Y-111325000D02*
X160875000Y-109375000D01*
X160875000Y-111325000D02*
X160875000Y-113275000D01*
X170995000Y-111325000D02*
X170995000Y-109375000D01*
X170995000Y-111325000D02*
X170995000Y-113275000D01*
X160930000Y-114025000D02*
X160600000Y-114265000D01*
X160600000Y-113785000D01*
X160930000Y-114025000D01*
G36*
X160930000Y-114025000D02*
G01*
X160600000Y-114265000D01*
X160600000Y-113785000D01*
X160930000Y-114025000D01*
G37*
%TO.C,C38*%
X204654892Y-109837056D02*
X204439220Y-109837056D01*
X204654892Y-110557056D02*
X204439220Y-110557056D01*
%TO.C,C30*%
X192340000Y-96392164D02*
X192340000Y-96607836D01*
X193060000Y-96392164D02*
X193060000Y-96607836D01*
%TO.C,D3*%
X183465000Y-124500000D02*
X183465000Y-126785000D01*
X183465000Y-126785000D02*
X184935000Y-126785000D01*
X184935000Y-126785000D02*
X184935000Y-124500000D01*
%TO.C,C19*%
X159540000Y-109172164D02*
X159540000Y-109387836D01*
X160260000Y-109172164D02*
X160260000Y-109387836D01*
%TO.C,R7*%
X180753641Y-113320000D02*
X180446359Y-113320000D01*
X180753641Y-114080000D02*
X180446359Y-114080000D01*
%TO.C,C21*%
X172204892Y-89637056D02*
X171989220Y-89637056D01*
X172204892Y-90357056D02*
X171989220Y-90357056D01*
%TO.C,C28*%
X176504892Y-95337056D02*
X176289220Y-95337056D01*
X176504892Y-96057056D02*
X176289220Y-96057056D01*
%TO.C,D9*%
X191600000Y-88435000D02*
X193885000Y-88435000D01*
X193885000Y-86965000D02*
X191600000Y-86965000D01*
X193885000Y-88435000D02*
X193885000Y-86965000D01*
%TO.C,C32*%
X180637056Y-91904892D02*
X180637056Y-91689220D01*
X181357056Y-91904892D02*
X181357056Y-91689220D01*
%TO.C,C27*%
X191389220Y-105337056D02*
X191604892Y-105337056D01*
X191389220Y-106057056D02*
X191604892Y-106057056D01*
%TO.C,D12*%
X199587056Y-91832056D02*
X201872056Y-91832056D01*
X201872056Y-90362056D02*
X199587056Y-90362056D01*
X201872056Y-91832056D02*
X201872056Y-90362056D01*
%TO.C,C15*%
X144992164Y-114640000D02*
X145207836Y-114640000D01*
X144992164Y-115360000D02*
X145207836Y-115360000D01*
%TO.C,C16*%
X192739220Y-102687056D02*
X192954892Y-102687056D01*
X192739220Y-103407056D02*
X192954892Y-103407056D01*
%TO.C,C7*%
X190809220Y-134937056D02*
X191024892Y-134937056D01*
X190809220Y-135657056D02*
X191024892Y-135657056D01*
%TO.C,C23*%
X193787056Y-96753733D02*
X193787056Y-97046267D01*
X194807056Y-96753733D02*
X194807056Y-97046267D01*
%TO.C,C8*%
X150740000Y-125104437D02*
X150740000Y-134560000D01*
X150740000Y-134560000D02*
X154690000Y-134560000D01*
X151804437Y-124040000D02*
X150740000Y-125104437D01*
X151804437Y-124040000D02*
X154690000Y-124040000D01*
X160195563Y-124040000D02*
X157310000Y-124040000D01*
X160195563Y-124040000D02*
X161260000Y-125104437D01*
X161260000Y-125104437D02*
X161260000Y-134560000D01*
X161260000Y-134560000D02*
X157310000Y-134560000D01*
%TO.C,R13*%
X185520000Y-84246359D02*
X185520000Y-84553641D01*
X186280000Y-84246359D02*
X186280000Y-84553641D01*
%TO.C,R24*%
X172817056Y-84293415D02*
X172817056Y-84600697D01*
X173577056Y-84293415D02*
X173577056Y-84600697D01*
%TO.C,D8*%
X197665000Y-121000000D02*
X197665000Y-123285000D01*
X197665000Y-123285000D02*
X199135000Y-123285000D01*
X199135000Y-123285000D02*
X199135000Y-121000000D01*
%TO.C,C13*%
X141407836Y-114640000D02*
X141192164Y-114640000D01*
X141407836Y-115360000D02*
X141192164Y-115360000D01*
%TO.C,C25*%
X189113289Y-110262056D02*
X189405823Y-110262056D01*
X189113289Y-111282056D02*
X189405823Y-111282056D01*
%TD*%
M02*
