%TF.GenerationSoftware,KiCad,Pcbnew,8.0.7*%
%TF.CreationDate,2025-01-22T21:35:01+01:00*%
%TF.ProjectId,Inverter_KiCAD,496e7665-7274-4657-925f-4b694341442e,rev?*%
%TF.SameCoordinates,Original*%
%TF.FileFunction,Paste,Top*%
%TF.FilePolarity,Positive*%
%FSLAX46Y46*%
G04 Gerber Fmt 4.6, Leading zero omitted, Abs format (unit mm)*
G04 Created by KiCad (PCBNEW 8.0.7) date 2025-01-22 21:35:01*
%MOMM*%
%LPD*%
G01*
G04 APERTURE LIST*
G04 Aperture macros list*
%AMRoundRect*
0 Rectangle with rounded corners*
0 $1 Rounding radius*
0 $2 $3 $4 $5 $6 $7 $8 $9 X,Y pos of 4 corners*
0 Add a 4 corners polygon primitive as box body*
4,1,4,$2,$3,$4,$5,$6,$7,$8,$9,$2,$3,0*
0 Add four circle primitives for the rounded corners*
1,1,$1+$1,$2,$3*
1,1,$1+$1,$4,$5*
1,1,$1+$1,$6,$7*
1,1,$1+$1,$8,$9*
0 Add four rect primitives between the rounded corners*
20,1,$1+$1,$2,$3,$4,$5,0*
20,1,$1+$1,$4,$5,$6,$7,0*
20,1,$1+$1,$6,$7,$8,$9,0*
20,1,$1+$1,$8,$9,$2,$3,0*%
G04 Aperture macros list end*
%ADD10C,0.000000*%
%ADD11R,2.400000X0.740000*%
%ADD12RoundRect,0.140000X0.140000X0.170000X-0.140000X0.170000X-0.140000X-0.170000X0.140000X-0.170000X0*%
%ADD13RoundRect,0.135000X-0.135000X-0.185000X0.135000X-0.185000X0.135000X0.185000X-0.135000X0.185000X0*%
%ADD14RoundRect,0.135000X0.135000X0.185000X-0.135000X0.185000X-0.135000X-0.185000X0.135000X-0.185000X0*%
%ADD15RoundRect,0.135000X-0.185000X0.135000X-0.185000X-0.135000X0.185000X-0.135000X0.185000X0.135000X0*%
%ADD16RoundRect,0.218750X0.218750X0.256250X-0.218750X0.256250X-0.218750X-0.256250X0.218750X-0.256250X0*%
%ADD17RoundRect,0.250000X1.100000X-0.325000X1.100000X0.325000X-1.100000X0.325000X-1.100000X-0.325000X0*%
%ADD18RoundRect,0.250000X2.450000X-0.650000X2.450000X0.650000X-2.450000X0.650000X-2.450000X-0.650000X0*%
%ADD19R,1.460500X0.508000*%
%ADD20RoundRect,0.225000X-0.225000X-0.275000X0.225000X-0.275000X0.225000X0.275000X-0.225000X0.275000X0*%
%ADD21RoundRect,0.140000X-0.140000X-0.170000X0.140000X-0.170000X0.140000X0.170000X-0.140000X0.170000X0*%
%ADD22RoundRect,0.150000X-0.587500X-0.150000X0.587500X-0.150000X0.587500X0.150000X-0.587500X0.150000X0*%
%ADD23RoundRect,0.237500X-0.237500X0.300000X-0.237500X-0.300000X0.237500X-0.300000X0.237500X0.300000X0*%
%ADD24RoundRect,0.135000X0.185000X-0.135000X0.185000X0.135000X-0.185000X0.135000X-0.185000X-0.135000X0*%
%ADD25RoundRect,0.075000X-0.700000X-0.075000X0.700000X-0.075000X0.700000X0.075000X-0.700000X0.075000X0*%
%ADD26RoundRect,0.075000X-0.075000X-0.700000X0.075000X-0.700000X0.075000X0.700000X-0.075000X0.700000X0*%
%ADD27RoundRect,0.375000X0.375000X-0.625000X0.375000X0.625000X-0.375000X0.625000X-0.375000X-0.625000X0*%
%ADD28RoundRect,0.500000X1.400000X-0.500000X1.400000X0.500000X-1.400000X0.500000X-1.400000X-0.500000X0*%
%ADD29RoundRect,0.140000X-0.170000X0.140000X-0.170000X-0.140000X0.170000X-0.140000X0.170000X0.140000X0*%
%ADD30R,0.409999X0.810001*%
%ADD31R,4.318000X1.016000*%
%ADD32R,0.508000X1.460500*%
%ADD33RoundRect,0.150000X0.150000X-0.825000X0.150000X0.825000X-0.150000X0.825000X-0.150000X-0.825000X0*%
%ADD34RoundRect,0.218750X0.256250X-0.218750X0.256250X0.218750X-0.256250X0.218750X-0.256250X-0.218750X0*%
%ADD35RoundRect,0.140000X0.170000X-0.140000X0.170000X0.140000X-0.170000X0.140000X-0.170000X-0.140000X0*%
%ADD36RoundRect,0.237500X-0.300000X-0.237500X0.300000X-0.237500X0.300000X0.237500X-0.300000X0.237500X0*%
%ADD37RoundRect,0.237500X0.237500X-0.300000X0.237500X0.300000X-0.237500X0.300000X-0.237500X-0.300000X0*%
%ADD38RoundRect,0.250000X-1.100000X0.325000X-1.100000X-0.325000X1.100000X-0.325000X1.100000X0.325000X0*%
%ADD39RoundRect,0.218750X-0.256250X0.218750X-0.256250X-0.218750X0.256250X-0.218750X0.256250X0.218750X0*%
G04 APERTURE END LIST*
D10*
%TO.C,U7*%
G36*
X179700000Y-128499999D02*
G01*
X177833999Y-128499999D01*
X177833999Y-127000000D01*
X179700000Y-127000000D01*
X179700000Y-128499999D01*
G37*
G36*
X179700000Y-126800003D02*
G01*
X177833999Y-126800003D01*
X177833999Y-125300003D01*
X179700000Y-125300003D01*
X179700000Y-126800003D01*
G37*
G36*
X181766001Y-128499999D02*
G01*
X179900000Y-128499999D01*
X179900000Y-127000000D01*
X181766001Y-127000000D01*
X181766001Y-128499999D01*
G37*
G36*
X181766001Y-126800003D02*
G01*
X179900000Y-126800003D01*
X179900000Y-125300003D01*
X181766001Y-125300003D01*
X181766001Y-126800003D01*
G37*
%TO.C,U8*%
G36*
X168997056Y-128889455D02*
G01*
X167131055Y-128889455D01*
X167131055Y-127389456D01*
X168997056Y-127389456D01*
X168997056Y-128889455D01*
G37*
G36*
X168997056Y-127189459D02*
G01*
X167131055Y-127189459D01*
X167131055Y-125689459D01*
X168997056Y-125689459D01*
X168997056Y-127189459D01*
G37*
G36*
X171063057Y-128889455D02*
G01*
X169197056Y-128889455D01*
X169197056Y-127389456D01*
X171063057Y-127389456D01*
X171063057Y-128889455D01*
G37*
G36*
X171063057Y-127189459D02*
G01*
X169197056Y-127189459D01*
X169197056Y-125689459D01*
X171063057Y-125689459D01*
X171063057Y-127189459D01*
G37*
%TD*%
D11*
%TO.C,J3*%
X161000000Y-144380000D03*
X157100000Y-144380000D03*
X161000000Y-143110000D03*
X157100000Y-143110000D03*
X161000000Y-141840000D03*
X157100000Y-141840000D03*
X161000000Y-140570000D03*
X157100000Y-140570000D03*
X161000000Y-139300000D03*
X157100000Y-139300000D03*
%TD*%
D12*
%TO.C,C29*%
X186939556Y-108372056D03*
X185979556Y-108372056D03*
%TD*%
D13*
%TO.C,R19*%
X194990000Y-89300000D03*
X196010000Y-89300000D03*
%TD*%
D14*
%TO.C,R23*%
X194007056Y-109197056D03*
X192987056Y-109197056D03*
%TD*%
D13*
%TO.C,R3*%
X187487056Y-113097056D03*
X188507056Y-113097056D03*
%TD*%
D12*
%TO.C,C5*%
X188200000Y-131100000D03*
X187240000Y-131100000D03*
%TD*%
D15*
%TO.C,R22*%
X202447056Y-109177056D03*
X202447056Y-110197056D03*
%TD*%
D16*
%TO.C,L1*%
X189947056Y-108972056D03*
X188372056Y-108972056D03*
%TD*%
D15*
%TO.C,R16*%
X197397056Y-83877056D03*
X197397056Y-84897056D03*
%TD*%
D16*
%TO.C,D5*%
X181087500Y-115500000D03*
X179512500Y-115500000D03*
%TD*%
D13*
%TO.C,R21*%
X203512056Y-91067056D03*
X204532056Y-91067056D03*
%TD*%
D17*
%TO.C,C10*%
X153800000Y-122075000D03*
X153800000Y-119125000D03*
%TD*%
D16*
%TO.C,D4*%
X181087500Y-112200000D03*
X179512500Y-112200000D03*
%TD*%
D18*
%TO.C,C1*%
X185000000Y-122250000D03*
X185000000Y-117150000D03*
%TD*%
D11*
%TO.C,J6*%
X199447056Y-96687056D03*
X203347056Y-96687056D03*
X199447056Y-97957056D03*
X203347056Y-97957056D03*
X199447056Y-99227056D03*
X203347056Y-99227056D03*
X199447056Y-100497056D03*
X203347056Y-100497056D03*
X199447056Y-101767056D03*
X203347056Y-101767056D03*
X199447056Y-103037056D03*
X203347056Y-103037056D03*
X199447056Y-104307056D03*
X203347056Y-104307056D03*
%TD*%
D13*
%TO.C,R20*%
X195090000Y-90900000D03*
X196110000Y-90900000D03*
%TD*%
D18*
%TO.C,C4*%
X171200000Y-122100000D03*
X171200000Y-117000000D03*
%TD*%
D14*
%TO.C,R25*%
X165797056Y-83947056D03*
X164777056Y-83947056D03*
%TD*%
D13*
%TO.C,R4*%
X182590000Y-112300000D03*
X183610000Y-112300000D03*
%TD*%
D16*
%TO.C,D10*%
X193175000Y-89300000D03*
X191600000Y-89300000D03*
%TD*%
D19*
%TO.C,U3*%
X182472906Y-132692056D03*
X182472906Y-133962056D03*
X182472906Y-135232056D03*
X182472906Y-136502056D03*
X187921206Y-136502056D03*
X187921206Y-135232056D03*
X187921206Y-133962056D03*
X187921206Y-132692056D03*
%TD*%
D20*
%TO.C,SW2*%
X191747056Y-83897056D03*
X195847056Y-83897056D03*
X191747056Y-85497056D03*
X195847056Y-85497056D03*
%TD*%
D13*
%TO.C,R18*%
X195000000Y-87700000D03*
X196020000Y-87700000D03*
%TD*%
D16*
%TO.C,D11*%
X193187500Y-90900000D03*
X191612500Y-90900000D03*
%TD*%
D14*
%TO.C,R17*%
X190317056Y-83897056D03*
X189297056Y-83897056D03*
%TD*%
D21*
%TO.C,C22*%
X161217056Y-89797056D03*
X162177056Y-89797056D03*
%TD*%
D22*
%TO.C,Q5*%
X193109556Y-133172056D03*
X193109556Y-135072056D03*
X194984556Y-134122056D03*
%TD*%
D23*
%TO.C,C17*%
X195097056Y-127134556D03*
X195097056Y-128859556D03*
%TD*%
D13*
%TO.C,R12*%
X193754556Y-131522056D03*
X194774556Y-131522056D03*
%TD*%
D24*
%TO.C,R15*%
X182197056Y-91307056D03*
X182197056Y-90287056D03*
%TD*%
%TO.C,R10*%
X198400000Y-117510000D03*
X198400000Y-116490000D03*
%TD*%
D13*
%TO.C,R8*%
X182590000Y-113900000D03*
X183610000Y-113900000D03*
%TD*%
D14*
%TO.C,R1*%
X180310000Y-109200000D03*
X179290000Y-109200000D03*
%TD*%
D25*
%TO.C,U6*%
X178797056Y-96027056D03*
X178797056Y-96527056D03*
X178797056Y-97027056D03*
X178797056Y-97527056D03*
X178797056Y-98027056D03*
X178797056Y-98527056D03*
X178797056Y-99027056D03*
X178797056Y-99527056D03*
X178797056Y-100027056D03*
X178797056Y-100527056D03*
X178797056Y-101027056D03*
X178797056Y-101527056D03*
X178797056Y-102027056D03*
X178797056Y-102527056D03*
X178797056Y-103027056D03*
X178797056Y-103527056D03*
D26*
X180722056Y-105452056D03*
X181222056Y-105452056D03*
X181722056Y-105452056D03*
X182222056Y-105452056D03*
X182722056Y-105452056D03*
X183222056Y-105452056D03*
X183722056Y-105452056D03*
X184222056Y-105452056D03*
X184722056Y-105452056D03*
X185222056Y-105452056D03*
X185722056Y-105452056D03*
X186222056Y-105452056D03*
X186722056Y-105452056D03*
X187222056Y-105452056D03*
X187722056Y-105452056D03*
X188222056Y-105452056D03*
D25*
X190147056Y-103527056D03*
X190147056Y-103027056D03*
X190147056Y-102527056D03*
X190147056Y-102027056D03*
X190147056Y-101527056D03*
X190147056Y-101027056D03*
X190147056Y-100527056D03*
X190147056Y-100027056D03*
X190147056Y-99527056D03*
X190147056Y-99027056D03*
X190147056Y-98527056D03*
X190147056Y-98027056D03*
X190147056Y-97527056D03*
X190147056Y-97027056D03*
X190147056Y-96527056D03*
X190147056Y-96027056D03*
D26*
X188222056Y-94102056D03*
X187722056Y-94102056D03*
X187222056Y-94102056D03*
X186722056Y-94102056D03*
X186222056Y-94102056D03*
X185722056Y-94102056D03*
X185222056Y-94102056D03*
X184722056Y-94102056D03*
X184222056Y-94102056D03*
X183722056Y-94102056D03*
X183222056Y-94102056D03*
X182722056Y-94102056D03*
X182222056Y-94102056D03*
X181722056Y-94102056D03*
X181222056Y-94102056D03*
X180722056Y-94102056D03*
%TD*%
D27*
%TO.C,U4*%
X190497056Y-124497056D03*
X192797056Y-124497056D03*
D28*
X192797056Y-118197056D03*
D27*
X195097056Y-124497056D03*
%TD*%
D29*
%TO.C,C31*%
X198497056Y-83917056D03*
X198497056Y-84877056D03*
%TD*%
D12*
%TO.C,C24*%
X177057056Y-103797056D03*
X176097056Y-103797056D03*
%TD*%
D20*
%TO.C,SW7*%
X195697056Y-109197056D03*
X199797056Y-109197056D03*
X195697056Y-110797056D03*
X199797056Y-110797056D03*
%TD*%
D16*
%TO.C,D1*%
X181087500Y-110500000D03*
X179512500Y-110500000D03*
%TD*%
D20*
%TO.C,SW1*%
X180350000Y-83900000D03*
X184450000Y-83900000D03*
X180350000Y-85500000D03*
X184450000Y-85500000D03*
%TD*%
D30*
%TO.C,U7*%
X181705000Y-124207600D03*
X180435000Y-124207600D03*
X179165000Y-124207600D03*
X177895000Y-124207600D03*
X177895000Y-129592400D03*
X179165000Y-129592400D03*
X180435000Y-129592400D03*
X181705000Y-129592400D03*
%TD*%
D21*
%TO.C,C6*%
X190492906Y-134032056D03*
X191452906Y-134032056D03*
%TD*%
%TO.C,C14*%
X142720000Y-115000000D03*
X143680000Y-115000000D03*
%TD*%
D20*
%TO.C,SW8*%
X167447056Y-83897056D03*
X171547056Y-83897056D03*
X167447056Y-85497056D03*
X171547056Y-85497056D03*
%TD*%
D12*
%TO.C,C26*%
X186939556Y-107372056D03*
X185979556Y-107372056D03*
%TD*%
D13*
%TO.C,R6*%
X184290000Y-127500000D03*
X185310000Y-127500000D03*
%TD*%
%TO.C,R5*%
X188487056Y-114497056D03*
X189507056Y-114497056D03*
%TD*%
D16*
%TO.C,D7*%
X181087500Y-113900000D03*
X179512500Y-113900000D03*
%TD*%
D17*
%TO.C,C9*%
X150400000Y-122075000D03*
X150400000Y-119125000D03*
%TD*%
D12*
%TO.C,C20*%
X187980000Y-84900000D03*
X187020000Y-84900000D03*
%TD*%
D24*
%TO.C,R11*%
X192397056Y-131497056D03*
X192397056Y-130477056D03*
%TD*%
D31*
%TO.C,Y1*%
X162198056Y-93297056D03*
X171596056Y-93297056D03*
%TD*%
D30*
%TO.C,U8*%
X171002056Y-124597056D03*
X169732056Y-124597056D03*
X168462056Y-124597056D03*
X167192056Y-124597056D03*
X167192056Y-129981856D03*
X168462056Y-129981856D03*
X169732056Y-129981856D03*
X171002056Y-129981856D03*
%TD*%
D32*
%TO.C,U2*%
X141795000Y-122224150D03*
X143065000Y-122224150D03*
X144335000Y-122224150D03*
X145605000Y-122224150D03*
X145605000Y-116775850D03*
X144335000Y-116775850D03*
X143065000Y-116775850D03*
X141795000Y-116775850D03*
%TD*%
D12*
%TO.C,C39*%
X175877056Y-84997056D03*
X174917056Y-84997056D03*
%TD*%
D33*
%TO.C,U5*%
X161490000Y-113800000D03*
X162760000Y-113800000D03*
X164030000Y-113800000D03*
X165300000Y-113800000D03*
X166570000Y-113800000D03*
X167840000Y-113800000D03*
X169110000Y-113800000D03*
X170380000Y-113800000D03*
X170380000Y-108850000D03*
X169110000Y-108850000D03*
X167840000Y-108850000D03*
X166570000Y-108850000D03*
X165300000Y-108850000D03*
X164030000Y-108850000D03*
X162760000Y-108850000D03*
X161490000Y-108850000D03*
%TD*%
D34*
%TO.C,D6*%
X208000000Y-129587500D03*
X208000000Y-128012500D03*
%TD*%
D12*
%TO.C,C38*%
X205027056Y-110197056D03*
X204067056Y-110197056D03*
%TD*%
D35*
%TO.C,C30*%
X192697056Y-95977056D03*
X192697056Y-95017056D03*
%TD*%
D34*
%TO.C,D3*%
X184200000Y-124512500D03*
X184200000Y-126087500D03*
%TD*%
D29*
%TO.C,C19*%
X160100000Y-108520000D03*
X160100000Y-109480000D03*
%TD*%
D14*
%TO.C,R7*%
X180910000Y-116900000D03*
X179890000Y-116900000D03*
%TD*%
D12*
%TO.C,C21*%
X172577056Y-89997056D03*
X171617056Y-89997056D03*
%TD*%
%TO.C,C28*%
X176877056Y-95697056D03*
X175917056Y-95697056D03*
%TD*%
D16*
%TO.C,D9*%
X193187500Y-87700000D03*
X191612500Y-87700000D03*
%TD*%
D35*
%TO.C,C32*%
X180997056Y-92277056D03*
X180997056Y-91317056D03*
%TD*%
D21*
%TO.C,C27*%
X191017056Y-105697056D03*
X191977056Y-105697056D03*
%TD*%
D16*
%TO.C,D12*%
X201174556Y-91097056D03*
X199599556Y-91097056D03*
%TD*%
D21*
%TO.C,C15*%
X144620000Y-115000000D03*
X145580000Y-115000000D03*
%TD*%
%TO.C,C16*%
X192367056Y-103047056D03*
X193327056Y-103047056D03*
%TD*%
D15*
%TO.C,R9*%
X208000000Y-131190000D03*
X208000000Y-132210000D03*
%TD*%
D21*
%TO.C,C7*%
X190437056Y-135297056D03*
X191397056Y-135297056D03*
%TD*%
D36*
%TO.C,C18*%
X192834556Y-115747056D03*
X194559556Y-115747056D03*
%TD*%
D37*
%TO.C,C23*%
X194297056Y-95897056D03*
X194297056Y-94172056D03*
%TD*%
D38*
%TO.C,C8*%
X151700000Y-124125000D03*
X151700000Y-127075000D03*
%TD*%
D15*
%TO.C,R13*%
X185900000Y-83890000D03*
X185900000Y-84910000D03*
%TD*%
%TO.C,R24*%
X173197056Y-83937056D03*
X173197056Y-84957056D03*
%TD*%
D39*
%TO.C,D8*%
X198400000Y-119312500D03*
X198400000Y-120887500D03*
%TD*%
D12*
%TO.C,C13*%
X141780000Y-115000000D03*
X140820000Y-115000000D03*
%TD*%
D36*
%TO.C,C25*%
X188397056Y-110772056D03*
X190122056Y-110772056D03*
%TD*%
D14*
%TO.C,R14*%
X177590000Y-83900000D03*
X178610000Y-83900000D03*
%TD*%
M02*
