%TF.GenerationSoftware,KiCad,Pcbnew,8.0.7*%
%TF.CreationDate,2025-01-22T21:35:01+01:00*%
%TF.ProjectId,Inverter_KiCAD,496e7665-7274-4657-925f-4b694341442e,rev?*%
%TF.SameCoordinates,Original*%
%TF.FileFunction,Soldermask,Bot*%
%TF.FilePolarity,Negative*%
%FSLAX46Y46*%
G04 Gerber Fmt 4.6, Leading zero omitted, Abs format (unit mm)*
G04 Created by KiCad (PCBNEW 8.0.7) date 2025-01-22 21:35:01*
%MOMM*%
%LPD*%
G01*
G04 APERTURE LIST*
G04 Aperture macros list*
%AMRoundRect*
0 Rectangle with rounded corners*
0 $1 Rounding radius*
0 $2 $3 $4 $5 $6 $7 $8 $9 X,Y pos of 4 corners*
0 Add a 4 corners polygon primitive as box body*
4,1,4,$2,$3,$4,$5,$6,$7,$8,$9,$2,$3,0*
0 Add four circle primitives for the rounded corners*
1,1,$1+$1,$2,$3*
1,1,$1+$1,$4,$5*
1,1,$1+$1,$6,$7*
1,1,$1+$1,$8,$9*
0 Add four rect primitives between the rounded corners*
20,1,$1+$1,$2,$3,$4,$5,0*
20,1,$1+$1,$4,$5,$6,$7,0*
20,1,$1+$1,$6,$7,$8,$9,0*
20,1,$1+$1,$8,$9,$2,$3,0*%
G04 Aperture macros list end*
%ADD10C,1.400000*%
%ADD11RoundRect,0.770000X0.980000X0.980000X-0.980000X0.980000X-0.980000X-0.980000X0.980000X-0.980000X0*%
%ADD12C,3.500000*%
%ADD13R,1.505000X5.600000*%
%ADD14RoundRect,0.250000X-2.450000X0.650000X-2.450000X-0.650000X2.450000X-0.650000X2.450000X0.650000X0*%
%ADD15R,1.700000X1.700000*%
%ADD16O,1.700000X1.700000*%
%ADD17C,0.800000*%
%ADD18C,6.400000*%
%ADD19RoundRect,0.135000X0.135000X0.185000X-0.135000X0.185000X-0.135000X-0.185000X0.135000X-0.185000X0*%
%ADD20RoundRect,0.250000X0.600000X0.750000X-0.600000X0.750000X-0.600000X-0.750000X0.600000X-0.750000X0*%
%ADD21O,1.700000X2.000000*%
%ADD22RoundRect,0.135000X0.185000X-0.135000X0.185000X0.135000X-0.185000X0.135000X-0.185000X-0.135000X0*%
%ADD23R,3.400000X2.710000*%
%ADD24RoundRect,0.150000X0.150000X-0.737500X0.150000X0.737500X-0.150000X0.737500X-0.150000X-0.737500X0*%
%ADD25RoundRect,0.250000X0.725000X-0.600000X0.725000X0.600000X-0.725000X0.600000X-0.725000X-0.600000X0*%
%ADD26O,1.950000X1.700000*%
%ADD27RoundRect,1.500000X-1.500000X1.500000X-1.500000X-1.500000X1.500000X-1.500000X1.500000X1.500000X0*%
%ADD28C,6.000000*%
%ADD29RoundRect,0.140000X-0.140000X-0.170000X0.140000X-0.170000X0.140000X0.170000X-0.140000X0.170000X0*%
%ADD30RoundRect,0.250000X-0.250000X-0.475000X0.250000X-0.475000X0.250000X0.475000X-0.250000X0.475000X0*%
%ADD31RoundRect,0.140000X-0.170000X0.140000X-0.170000X-0.140000X0.170000X-0.140000X0.170000X0.140000X0*%
%ADD32RoundRect,0.250000X0.250000X0.475000X-0.250000X0.475000X-0.250000X-0.475000X0.250000X-0.475000X0*%
%ADD33RoundRect,0.250000X2.450000X-0.650000X2.450000X0.650000X-2.450000X0.650000X-2.450000X-0.650000X0*%
%ADD34RoundRect,0.135000X-0.135000X-0.185000X0.135000X-0.185000X0.135000X0.185000X-0.135000X0.185000X0*%
%ADD35RoundRect,0.150000X0.825000X0.150000X-0.825000X0.150000X-0.825000X-0.150000X0.825000X-0.150000X0*%
%ADD36RoundRect,0.140000X0.140000X0.170000X-0.140000X0.170000X-0.140000X-0.170000X0.140000X-0.170000X0*%
%ADD37RoundRect,0.250000X0.475000X-0.250000X0.475000X0.250000X-0.475000X0.250000X-0.475000X-0.250000X0*%
%ADD38RoundRect,0.100000X-0.100000X0.675000X-0.100000X-0.675000X0.100000X-0.675000X0.100000X0.675000X0*%
%ADD39R,3.000000X3.000000*%
%ADD40RoundRect,0.250000X-0.475000X0.250000X-0.475000X-0.250000X0.475000X-0.250000X0.475000X0.250000X0*%
G04 APERTURE END LIST*
D10*
%TO.C,J1*%
X178800000Y-145200000D03*
X167800000Y-145200000D03*
D11*
X170800000Y-135200000D03*
D12*
X175800000Y-135200000D03*
%TD*%
D13*
%TO.C,L2*%
X160000000Y-112600000D03*
X164005000Y-112600000D03*
%TD*%
D14*
%TO.C,C12*%
X153200000Y-120950000D03*
X153200000Y-126050000D03*
%TD*%
D15*
%TO.C,J2*%
X164100000Y-123400000D03*
D16*
X164100000Y-125940000D03*
X164100000Y-128480000D03*
%TD*%
D17*
%TO.C,H113*%
X142600000Y-85000000D03*
X143302944Y-83302944D03*
X143302944Y-86697056D03*
X145000000Y-82600000D03*
D18*
X145000000Y-85000000D03*
D17*
X145000000Y-87400000D03*
X146697056Y-83302944D03*
X146697056Y-86697056D03*
X147400000Y-85000000D03*
%TD*%
D19*
%TO.C,R29*%
X154810000Y-110800000D03*
X153790000Y-110800000D03*
%TD*%
D20*
%TO.C,J4*%
X203097056Y-130322056D03*
D21*
X200597056Y-130322056D03*
%TD*%
D22*
%TO.C,R2*%
X152000000Y-115910000D03*
X152000000Y-114890000D03*
%TD*%
D23*
%TO.C,U9*%
X155400000Y-115200000D03*
D24*
X157305000Y-117762500D03*
X156035000Y-117762500D03*
X154765000Y-117762500D03*
X153495000Y-117762500D03*
X153495000Y-112637500D03*
X154765000Y-112637500D03*
X156035000Y-112637500D03*
X157305000Y-112637500D03*
%TD*%
D17*
%TO.C,H109*%
X202600000Y-85000000D03*
X203302944Y-83302944D03*
X203302944Y-86697056D03*
X205000000Y-82600000D03*
D18*
X205000000Y-85000000D03*
D17*
X205000000Y-87400000D03*
X206697056Y-83302944D03*
X206697056Y-86697056D03*
X207400000Y-85000000D03*
%TD*%
D25*
%TO.C,J7*%
X203672056Y-122547056D03*
D26*
X203672056Y-120047056D03*
X203672056Y-117547056D03*
X203672056Y-115047056D03*
%TD*%
D17*
%TO.C,H111*%
X202600000Y-145000000D03*
X203302944Y-143302944D03*
X203302944Y-146697056D03*
X205000000Y-142600000D03*
D18*
X205000000Y-145000000D03*
D17*
X205000000Y-147400000D03*
X206697056Y-143302944D03*
X206697056Y-146697056D03*
X207400000Y-145000000D03*
%TD*%
D19*
%TO.C,R30*%
X157020000Y-110300000D03*
X156000000Y-110300000D03*
%TD*%
D27*
%TO.C,BT1*%
X145000000Y-129150000D03*
D28*
X145000000Y-136350000D03*
%TD*%
D29*
%TO.C,C40*%
X159020000Y-116600000D03*
X159980000Y-116600000D03*
%TD*%
D20*
%TO.C,J5*%
X203097056Y-137822056D03*
D21*
X200597056Y-137822056D03*
%TD*%
D30*
%TO.C,C43*%
X164750000Y-107800000D03*
X166650000Y-107800000D03*
%TD*%
D17*
%TO.C,H114*%
X142600000Y-145000000D03*
X143302944Y-143302944D03*
X143302944Y-146697056D03*
X145000000Y-142600000D03*
D18*
X145000000Y-145000000D03*
D17*
X145000000Y-147400000D03*
X146697056Y-143302944D03*
X146697056Y-146697056D03*
X147400000Y-145000000D03*
%TD*%
D22*
%TO.C,R31*%
X156000000Y-109310000D03*
X156000000Y-108290000D03*
%TD*%
D31*
%TO.C,C37*%
X152000000Y-110920000D03*
X152000000Y-111880000D03*
%TD*%
D32*
%TO.C,C42*%
X162850000Y-105800000D03*
X160950000Y-105800000D03*
%TD*%
%TO.C,C41*%
X162850000Y-107800000D03*
X160950000Y-107800000D03*
%TD*%
D33*
%TO.C,C11*%
X159200000Y-125950000D03*
X159200000Y-120850000D03*
%TD*%
D34*
%TO.C,R1201*%
X185587056Y-115997056D03*
X186607056Y-115997056D03*
%TD*%
D35*
%TO.C,U1201*%
X190572056Y-117392056D03*
X190572056Y-118662056D03*
X190572056Y-119932056D03*
X190572056Y-121202056D03*
X185622056Y-121202056D03*
X185622056Y-119932056D03*
X185622056Y-118662056D03*
X185622056Y-117392056D03*
%TD*%
D36*
%TO.C,C1201*%
X186577056Y-114897056D03*
X185617056Y-114897056D03*
%TD*%
D37*
%TO.C,C3*%
X180097056Y-112447056D03*
X180097056Y-110547056D03*
%TD*%
D38*
%TO.C,U1*%
X173572056Y-110672056D03*
X174222056Y-110672056D03*
X174872056Y-110672056D03*
X175522056Y-110672056D03*
X176172056Y-110672056D03*
X176822056Y-110672056D03*
X177472056Y-110672056D03*
X178122056Y-110672056D03*
X178122056Y-116422056D03*
X177472056Y-116422056D03*
X176822056Y-116422056D03*
X176172056Y-116422056D03*
X175522056Y-116422056D03*
X174872056Y-116422056D03*
X174222056Y-116422056D03*
X173572056Y-116422056D03*
D39*
X175847056Y-113547056D03*
%TD*%
D40*
%TO.C,C2*%
X171897056Y-110609556D03*
X171897056Y-112509556D03*
%TD*%
M02*
