%TF.GenerationSoftware,KiCad,Pcbnew,8.0.7*%
%TF.CreationDate,2025-01-28T22:36:31+01:00*%
%TF.ProjectId,test1,74657374-312e-46b6-9963-61645f706362,rev?*%
%TF.SameCoordinates,Original*%
%TF.FileFunction,Legend,Bot*%
%TF.FilePolarity,Positive*%
%FSLAX46Y46*%
G04 Gerber Fmt 4.6, Leading zero omitted, Abs format (unit mm)*
G04 Created by KiCad (PCBNEW 8.0.7) date 2025-01-28 22:36:31*
%MOMM*%
%LPD*%
G01*
G04 APERTURE LIST*
%ADD10C,0.150000*%
%ADD11C,0.100000*%
%ADD12C,0.120000*%
G04 APERTURE END LIST*
D10*
X51504761Y-71449942D02*
X51409523Y-71497561D01*
X51409523Y-71497561D02*
X51314285Y-71592800D01*
X51314285Y-71592800D02*
X51171428Y-71735657D01*
X51171428Y-71735657D02*
X51076190Y-71783276D01*
X51076190Y-71783276D02*
X50980952Y-71783276D01*
X51028571Y-71545180D02*
X50933333Y-71592800D01*
X50933333Y-71592800D02*
X50838095Y-71688038D01*
X50838095Y-71688038D02*
X50790476Y-71878514D01*
X50790476Y-71878514D02*
X50790476Y-72211847D01*
X50790476Y-72211847D02*
X50838095Y-72402323D01*
X50838095Y-72402323D02*
X50933333Y-72497561D01*
X50933333Y-72497561D02*
X51028571Y-72545180D01*
X51028571Y-72545180D02*
X51219047Y-72545180D01*
X51219047Y-72545180D02*
X51314285Y-72497561D01*
X51314285Y-72497561D02*
X51409523Y-72402323D01*
X51409523Y-72402323D02*
X51457142Y-72211847D01*
X51457142Y-72211847D02*
X51457142Y-71878514D01*
X51457142Y-71878514D02*
X51409523Y-71688038D01*
X51409523Y-71688038D02*
X51314285Y-71592800D01*
X51314285Y-71592800D02*
X51219047Y-71545180D01*
X51219047Y-71545180D02*
X51028571Y-71545180D01*
X52409523Y-71545180D02*
X51838095Y-71545180D01*
X52123809Y-71545180D02*
X52123809Y-72545180D01*
X52123809Y-72545180D02*
X52028571Y-72402323D01*
X52028571Y-72402323D02*
X51933333Y-72307085D01*
X51933333Y-72307085D02*
X51838095Y-72259466D01*
X71399166Y-79419580D02*
X71446785Y-79467200D01*
X71446785Y-79467200D02*
X71589642Y-79514819D01*
X71589642Y-79514819D02*
X71684880Y-79514819D01*
X71684880Y-79514819D02*
X71827737Y-79467200D01*
X71827737Y-79467200D02*
X71922975Y-79371961D01*
X71922975Y-79371961D02*
X71970594Y-79276723D01*
X71970594Y-79276723D02*
X72018213Y-79086247D01*
X72018213Y-79086247D02*
X72018213Y-78943390D01*
X72018213Y-78943390D02*
X71970594Y-78752914D01*
X71970594Y-78752914D02*
X71922975Y-78657676D01*
X71922975Y-78657676D02*
X71827737Y-78562438D01*
X71827737Y-78562438D02*
X71684880Y-78514819D01*
X71684880Y-78514819D02*
X71589642Y-78514819D01*
X71589642Y-78514819D02*
X71446785Y-78562438D01*
X71446785Y-78562438D02*
X71399166Y-78610057D01*
X71065832Y-78514819D02*
X70446785Y-78514819D01*
X70446785Y-78514819D02*
X70780118Y-78895771D01*
X70780118Y-78895771D02*
X70637261Y-78895771D01*
X70637261Y-78895771D02*
X70542023Y-78943390D01*
X70542023Y-78943390D02*
X70494404Y-78991009D01*
X70494404Y-78991009D02*
X70446785Y-79086247D01*
X70446785Y-79086247D02*
X70446785Y-79324342D01*
X70446785Y-79324342D02*
X70494404Y-79419580D01*
X70494404Y-79419580D02*
X70542023Y-79467200D01*
X70542023Y-79467200D02*
X70637261Y-79514819D01*
X70637261Y-79514819D02*
X70922975Y-79514819D01*
X70922975Y-79514819D02*
X71018213Y-79467200D01*
X71018213Y-79467200D02*
X71065832Y-79419580D01*
X65859580Y-89833333D02*
X65907200Y-89785714D01*
X65907200Y-89785714D02*
X65954819Y-89642857D01*
X65954819Y-89642857D02*
X65954819Y-89547619D01*
X65954819Y-89547619D02*
X65907200Y-89404762D01*
X65907200Y-89404762D02*
X65811961Y-89309524D01*
X65811961Y-89309524D02*
X65716723Y-89261905D01*
X65716723Y-89261905D02*
X65526247Y-89214286D01*
X65526247Y-89214286D02*
X65383390Y-89214286D01*
X65383390Y-89214286D02*
X65192914Y-89261905D01*
X65192914Y-89261905D02*
X65097676Y-89309524D01*
X65097676Y-89309524D02*
X65002438Y-89404762D01*
X65002438Y-89404762D02*
X64954819Y-89547619D01*
X64954819Y-89547619D02*
X64954819Y-89642857D01*
X64954819Y-89642857D02*
X65002438Y-89785714D01*
X65002438Y-89785714D02*
X65050057Y-89833333D01*
X64954819Y-90690476D02*
X64954819Y-90500000D01*
X64954819Y-90500000D02*
X65002438Y-90404762D01*
X65002438Y-90404762D02*
X65050057Y-90357143D01*
X65050057Y-90357143D02*
X65192914Y-90261905D01*
X65192914Y-90261905D02*
X65383390Y-90214286D01*
X65383390Y-90214286D02*
X65764342Y-90214286D01*
X65764342Y-90214286D02*
X65859580Y-90261905D01*
X65859580Y-90261905D02*
X65907200Y-90309524D01*
X65907200Y-90309524D02*
X65954819Y-90404762D01*
X65954819Y-90404762D02*
X65954819Y-90595238D01*
X65954819Y-90595238D02*
X65907200Y-90690476D01*
X65907200Y-90690476D02*
X65859580Y-90738095D01*
X65859580Y-90738095D02*
X65764342Y-90785714D01*
X65764342Y-90785714D02*
X65526247Y-90785714D01*
X65526247Y-90785714D02*
X65431009Y-90738095D01*
X65431009Y-90738095D02*
X65383390Y-90690476D01*
X65383390Y-90690476D02*
X65335771Y-90595238D01*
X65335771Y-90595238D02*
X65335771Y-90404762D01*
X65335771Y-90404762D02*
X65383390Y-90309524D01*
X65383390Y-90309524D02*
X65431009Y-90261905D01*
X65431009Y-90261905D02*
X65526247Y-90214286D01*
X97342857Y-94959580D02*
X97390476Y-95007200D01*
X97390476Y-95007200D02*
X97533333Y-95054819D01*
X97533333Y-95054819D02*
X97628571Y-95054819D01*
X97628571Y-95054819D02*
X97771428Y-95007200D01*
X97771428Y-95007200D02*
X97866666Y-94911961D01*
X97866666Y-94911961D02*
X97914285Y-94816723D01*
X97914285Y-94816723D02*
X97961904Y-94626247D01*
X97961904Y-94626247D02*
X97961904Y-94483390D01*
X97961904Y-94483390D02*
X97914285Y-94292914D01*
X97914285Y-94292914D02*
X97866666Y-94197676D01*
X97866666Y-94197676D02*
X97771428Y-94102438D01*
X97771428Y-94102438D02*
X97628571Y-94054819D01*
X97628571Y-94054819D02*
X97533333Y-94054819D01*
X97533333Y-94054819D02*
X97390476Y-94102438D01*
X97390476Y-94102438D02*
X97342857Y-94150057D01*
X97009523Y-94054819D02*
X96390476Y-94054819D01*
X96390476Y-94054819D02*
X96723809Y-94435771D01*
X96723809Y-94435771D02*
X96580952Y-94435771D01*
X96580952Y-94435771D02*
X96485714Y-94483390D01*
X96485714Y-94483390D02*
X96438095Y-94531009D01*
X96438095Y-94531009D02*
X96390476Y-94626247D01*
X96390476Y-94626247D02*
X96390476Y-94864342D01*
X96390476Y-94864342D02*
X96438095Y-94959580D01*
X96438095Y-94959580D02*
X96485714Y-95007200D01*
X96485714Y-95007200D02*
X96580952Y-95054819D01*
X96580952Y-95054819D02*
X96866666Y-95054819D01*
X96866666Y-95054819D02*
X96961904Y-95007200D01*
X96961904Y-95007200D02*
X97009523Y-94959580D01*
X95533333Y-94054819D02*
X95723809Y-94054819D01*
X95723809Y-94054819D02*
X95819047Y-94102438D01*
X95819047Y-94102438D02*
X95866666Y-94150057D01*
X95866666Y-94150057D02*
X95961904Y-94292914D01*
X95961904Y-94292914D02*
X96009523Y-94483390D01*
X96009523Y-94483390D02*
X96009523Y-94864342D01*
X96009523Y-94864342D02*
X95961904Y-94959580D01*
X95961904Y-94959580D02*
X95914285Y-95007200D01*
X95914285Y-95007200D02*
X95819047Y-95054819D01*
X95819047Y-95054819D02*
X95628571Y-95054819D01*
X95628571Y-95054819D02*
X95533333Y-95007200D01*
X95533333Y-95007200D02*
X95485714Y-94959580D01*
X95485714Y-94959580D02*
X95438095Y-94864342D01*
X95438095Y-94864342D02*
X95438095Y-94626247D01*
X95438095Y-94626247D02*
X95485714Y-94531009D01*
X95485714Y-94531009D02*
X95533333Y-94483390D01*
X95533333Y-94483390D02*
X95628571Y-94435771D01*
X95628571Y-94435771D02*
X95819047Y-94435771D01*
X95819047Y-94435771D02*
X95914285Y-94483390D01*
X95914285Y-94483390D02*
X95961904Y-94531009D01*
X95961904Y-94531009D02*
X96009523Y-94626247D01*
X63966666Y-75754819D02*
X64299999Y-75278628D01*
X64538094Y-75754819D02*
X64538094Y-74754819D01*
X64538094Y-74754819D02*
X64157142Y-74754819D01*
X64157142Y-74754819D02*
X64061904Y-74802438D01*
X64061904Y-74802438D02*
X64014285Y-74850057D01*
X64014285Y-74850057D02*
X63966666Y-74945295D01*
X63966666Y-74945295D02*
X63966666Y-75088152D01*
X63966666Y-75088152D02*
X64014285Y-75183390D01*
X64014285Y-75183390D02*
X64061904Y-75231009D01*
X64061904Y-75231009D02*
X64157142Y-75278628D01*
X64157142Y-75278628D02*
X64538094Y-75278628D01*
X63109523Y-74754819D02*
X63299999Y-74754819D01*
X63299999Y-74754819D02*
X63395237Y-74802438D01*
X63395237Y-74802438D02*
X63442856Y-74850057D01*
X63442856Y-74850057D02*
X63538094Y-74992914D01*
X63538094Y-74992914D02*
X63585713Y-75183390D01*
X63585713Y-75183390D02*
X63585713Y-75564342D01*
X63585713Y-75564342D02*
X63538094Y-75659580D01*
X63538094Y-75659580D02*
X63490475Y-75707200D01*
X63490475Y-75707200D02*
X63395237Y-75754819D01*
X63395237Y-75754819D02*
X63204761Y-75754819D01*
X63204761Y-75754819D02*
X63109523Y-75707200D01*
X63109523Y-75707200D02*
X63061904Y-75659580D01*
X63061904Y-75659580D02*
X63014285Y-75564342D01*
X63014285Y-75564342D02*
X63014285Y-75326247D01*
X63014285Y-75326247D02*
X63061904Y-75231009D01*
X63061904Y-75231009D02*
X63109523Y-75183390D01*
X63109523Y-75183390D02*
X63204761Y-75135771D01*
X63204761Y-75135771D02*
X63395237Y-75135771D01*
X63395237Y-75135771D02*
X63490475Y-75183390D01*
X63490475Y-75183390D02*
X63538094Y-75231009D01*
X63538094Y-75231009D02*
X63585713Y-75326247D01*
X62359580Y-89833333D02*
X62407200Y-89785714D01*
X62407200Y-89785714D02*
X62454819Y-89642857D01*
X62454819Y-89642857D02*
X62454819Y-89547619D01*
X62454819Y-89547619D02*
X62407200Y-89404762D01*
X62407200Y-89404762D02*
X62311961Y-89309524D01*
X62311961Y-89309524D02*
X62216723Y-89261905D01*
X62216723Y-89261905D02*
X62026247Y-89214286D01*
X62026247Y-89214286D02*
X61883390Y-89214286D01*
X61883390Y-89214286D02*
X61692914Y-89261905D01*
X61692914Y-89261905D02*
X61597676Y-89309524D01*
X61597676Y-89309524D02*
X61502438Y-89404762D01*
X61502438Y-89404762D02*
X61454819Y-89547619D01*
X61454819Y-89547619D02*
X61454819Y-89642857D01*
X61454819Y-89642857D02*
X61502438Y-89785714D01*
X61502438Y-89785714D02*
X61550057Y-89833333D01*
X61883390Y-90404762D02*
X61835771Y-90309524D01*
X61835771Y-90309524D02*
X61788152Y-90261905D01*
X61788152Y-90261905D02*
X61692914Y-90214286D01*
X61692914Y-90214286D02*
X61645295Y-90214286D01*
X61645295Y-90214286D02*
X61550057Y-90261905D01*
X61550057Y-90261905D02*
X61502438Y-90309524D01*
X61502438Y-90309524D02*
X61454819Y-90404762D01*
X61454819Y-90404762D02*
X61454819Y-90595238D01*
X61454819Y-90595238D02*
X61502438Y-90690476D01*
X61502438Y-90690476D02*
X61550057Y-90738095D01*
X61550057Y-90738095D02*
X61645295Y-90785714D01*
X61645295Y-90785714D02*
X61692914Y-90785714D01*
X61692914Y-90785714D02*
X61788152Y-90738095D01*
X61788152Y-90738095D02*
X61835771Y-90690476D01*
X61835771Y-90690476D02*
X61883390Y-90595238D01*
X61883390Y-90595238D02*
X61883390Y-90404762D01*
X61883390Y-90404762D02*
X61931009Y-90309524D01*
X61931009Y-90309524D02*
X61978628Y-90261905D01*
X61978628Y-90261905D02*
X62073866Y-90214286D01*
X62073866Y-90214286D02*
X62264342Y-90214286D01*
X62264342Y-90214286D02*
X62359580Y-90261905D01*
X62359580Y-90261905D02*
X62407200Y-90309524D01*
X62407200Y-90309524D02*
X62454819Y-90404762D01*
X62454819Y-90404762D02*
X62454819Y-90595238D01*
X62454819Y-90595238D02*
X62407200Y-90690476D01*
X62407200Y-90690476D02*
X62359580Y-90738095D01*
X62359580Y-90738095D02*
X62264342Y-90785714D01*
X62264342Y-90785714D02*
X62073866Y-90785714D01*
X62073866Y-90785714D02*
X61978628Y-90738095D01*
X61978628Y-90738095D02*
X61931009Y-90690476D01*
X61931009Y-90690476D02*
X61883390Y-90595238D01*
D11*
X70766666Y-87457419D02*
X71242856Y-87457419D01*
X71242856Y-87457419D02*
X71242856Y-86457419D01*
X69909523Y-87457419D02*
X70480951Y-87457419D01*
X70195237Y-87457419D02*
X70195237Y-86457419D01*
X70195237Y-86457419D02*
X70290475Y-86600276D01*
X70290475Y-86600276D02*
X70385713Y-86695514D01*
X70385713Y-86695514D02*
X70480951Y-86743133D01*
D10*
X64904819Y-61911905D02*
X63904819Y-61911905D01*
X63904819Y-61911905D02*
X63904819Y-62150000D01*
X63904819Y-62150000D02*
X63952438Y-62292857D01*
X63952438Y-62292857D02*
X64047676Y-62388095D01*
X64047676Y-62388095D02*
X64142914Y-62435714D01*
X64142914Y-62435714D02*
X64333390Y-62483333D01*
X64333390Y-62483333D02*
X64476247Y-62483333D01*
X64476247Y-62483333D02*
X64666723Y-62435714D01*
X64666723Y-62435714D02*
X64761961Y-62388095D01*
X64761961Y-62388095D02*
X64857200Y-62292857D01*
X64857200Y-62292857D02*
X64904819Y-62150000D01*
X64904819Y-62150000D02*
X64904819Y-61911905D01*
X63904819Y-63340476D02*
X63904819Y-63150000D01*
X63904819Y-63150000D02*
X63952438Y-63054762D01*
X63952438Y-63054762D02*
X64000057Y-63007143D01*
X64000057Y-63007143D02*
X64142914Y-62911905D01*
X64142914Y-62911905D02*
X64333390Y-62864286D01*
X64333390Y-62864286D02*
X64714342Y-62864286D01*
X64714342Y-62864286D02*
X64809580Y-62911905D01*
X64809580Y-62911905D02*
X64857200Y-62959524D01*
X64857200Y-62959524D02*
X64904819Y-63054762D01*
X64904819Y-63054762D02*
X64904819Y-63245238D01*
X64904819Y-63245238D02*
X64857200Y-63340476D01*
X64857200Y-63340476D02*
X64809580Y-63388095D01*
X64809580Y-63388095D02*
X64714342Y-63435714D01*
X64714342Y-63435714D02*
X64476247Y-63435714D01*
X64476247Y-63435714D02*
X64381009Y-63388095D01*
X64381009Y-63388095D02*
X64333390Y-63340476D01*
X64333390Y-63340476D02*
X64285771Y-63245238D01*
X64285771Y-63245238D02*
X64285771Y-63054762D01*
X64285771Y-63054762D02*
X64333390Y-62959524D01*
X64333390Y-62959524D02*
X64381009Y-62911905D01*
X64381009Y-62911905D02*
X64476247Y-62864286D01*
X53951009Y-88566666D02*
X53951009Y-88233333D01*
X54474819Y-88233333D02*
X53474819Y-88233333D01*
X53474819Y-88233333D02*
X53474819Y-88709523D01*
X54474819Y-89614285D02*
X54474819Y-89042857D01*
X54474819Y-89328571D02*
X53474819Y-89328571D01*
X53474819Y-89328571D02*
X53617676Y-89233333D01*
X53617676Y-89233333D02*
X53712914Y-89138095D01*
X53712914Y-89138095D02*
X53760533Y-89042857D01*
X93766666Y-94254819D02*
X94242856Y-94254819D01*
X94242856Y-94254819D02*
X94242856Y-93254819D01*
X93528570Y-93254819D02*
X92909523Y-93254819D01*
X92909523Y-93254819D02*
X93242856Y-93635771D01*
X93242856Y-93635771D02*
X93099999Y-93635771D01*
X93099999Y-93635771D02*
X93004761Y-93683390D01*
X93004761Y-93683390D02*
X92957142Y-93731009D01*
X92957142Y-93731009D02*
X92909523Y-93826247D01*
X92909523Y-93826247D02*
X92909523Y-94064342D01*
X92909523Y-94064342D02*
X92957142Y-94159580D01*
X92957142Y-94159580D02*
X93004761Y-94207200D01*
X93004761Y-94207200D02*
X93099999Y-94254819D01*
X93099999Y-94254819D02*
X93385713Y-94254819D01*
X93385713Y-94254819D02*
X93480951Y-94207200D01*
X93480951Y-94207200D02*
X93528570Y-94159580D01*
X65539580Y-66783333D02*
X65587200Y-66735714D01*
X65587200Y-66735714D02*
X65634819Y-66592857D01*
X65634819Y-66592857D02*
X65634819Y-66497619D01*
X65634819Y-66497619D02*
X65587200Y-66354762D01*
X65587200Y-66354762D02*
X65491961Y-66259524D01*
X65491961Y-66259524D02*
X65396723Y-66211905D01*
X65396723Y-66211905D02*
X65206247Y-66164286D01*
X65206247Y-66164286D02*
X65063390Y-66164286D01*
X65063390Y-66164286D02*
X64872914Y-66211905D01*
X64872914Y-66211905D02*
X64777676Y-66259524D01*
X64777676Y-66259524D02*
X64682438Y-66354762D01*
X64682438Y-66354762D02*
X64634819Y-66497619D01*
X64634819Y-66497619D02*
X64634819Y-66592857D01*
X64634819Y-66592857D02*
X64682438Y-66735714D01*
X64682438Y-66735714D02*
X64730057Y-66783333D01*
X65634819Y-67259524D02*
X65634819Y-67450000D01*
X65634819Y-67450000D02*
X65587200Y-67545238D01*
X65587200Y-67545238D02*
X65539580Y-67592857D01*
X65539580Y-67592857D02*
X65396723Y-67688095D01*
X65396723Y-67688095D02*
X65206247Y-67735714D01*
X65206247Y-67735714D02*
X64825295Y-67735714D01*
X64825295Y-67735714D02*
X64730057Y-67688095D01*
X64730057Y-67688095D02*
X64682438Y-67640476D01*
X64682438Y-67640476D02*
X64634819Y-67545238D01*
X64634819Y-67545238D02*
X64634819Y-67354762D01*
X64634819Y-67354762D02*
X64682438Y-67259524D01*
X64682438Y-67259524D02*
X64730057Y-67211905D01*
X64730057Y-67211905D02*
X64825295Y-67164286D01*
X64825295Y-67164286D02*
X65063390Y-67164286D01*
X65063390Y-67164286D02*
X65158628Y-67211905D01*
X65158628Y-67211905D02*
X65206247Y-67259524D01*
X65206247Y-67259524D02*
X65253866Y-67354762D01*
X65253866Y-67354762D02*
X65253866Y-67545238D01*
X65253866Y-67545238D02*
X65206247Y-67640476D01*
X65206247Y-67640476D02*
X65158628Y-67688095D01*
X65158628Y-67688095D02*
X65063390Y-67735714D01*
X62114285Y-69854819D02*
X62114285Y-68854819D01*
X62114285Y-68854819D02*
X61876190Y-68854819D01*
X61876190Y-68854819D02*
X61733333Y-68902438D01*
X61733333Y-68902438D02*
X61638095Y-68997676D01*
X61638095Y-68997676D02*
X61590476Y-69092914D01*
X61590476Y-69092914D02*
X61542857Y-69283390D01*
X61542857Y-69283390D02*
X61542857Y-69426247D01*
X61542857Y-69426247D02*
X61590476Y-69616723D01*
X61590476Y-69616723D02*
X61638095Y-69711961D01*
X61638095Y-69711961D02*
X61733333Y-69807200D01*
X61733333Y-69807200D02*
X61876190Y-69854819D01*
X61876190Y-69854819D02*
X62114285Y-69854819D01*
X60590476Y-69854819D02*
X61161904Y-69854819D01*
X60876190Y-69854819D02*
X60876190Y-68854819D01*
X60876190Y-68854819D02*
X60971428Y-68997676D01*
X60971428Y-68997676D02*
X61066666Y-69092914D01*
X61066666Y-69092914D02*
X61161904Y-69140533D01*
X59971428Y-68854819D02*
X59876190Y-68854819D01*
X59876190Y-68854819D02*
X59780952Y-68902438D01*
X59780952Y-68902438D02*
X59733333Y-68950057D01*
X59733333Y-68950057D02*
X59685714Y-69045295D01*
X59685714Y-69045295D02*
X59638095Y-69235771D01*
X59638095Y-69235771D02*
X59638095Y-69473866D01*
X59638095Y-69473866D02*
X59685714Y-69664342D01*
X59685714Y-69664342D02*
X59733333Y-69759580D01*
X59733333Y-69759580D02*
X59780952Y-69807200D01*
X59780952Y-69807200D02*
X59876190Y-69854819D01*
X59876190Y-69854819D02*
X59971428Y-69854819D01*
X59971428Y-69854819D02*
X60066666Y-69807200D01*
X60066666Y-69807200D02*
X60114285Y-69759580D01*
X60114285Y-69759580D02*
X60161904Y-69664342D01*
X60161904Y-69664342D02*
X60209523Y-69473866D01*
X60209523Y-69473866D02*
X60209523Y-69235771D01*
X60209523Y-69235771D02*
X60161904Y-69045295D01*
X60161904Y-69045295D02*
X60114285Y-68950057D01*
X60114285Y-68950057D02*
X60066666Y-68902438D01*
X60066666Y-68902438D02*
X59971428Y-68854819D01*
X68366666Y-79524819D02*
X68699999Y-79048628D01*
X68938094Y-79524819D02*
X68938094Y-78524819D01*
X68938094Y-78524819D02*
X68557142Y-78524819D01*
X68557142Y-78524819D02*
X68461904Y-78572438D01*
X68461904Y-78572438D02*
X68414285Y-78620057D01*
X68414285Y-78620057D02*
X68366666Y-78715295D01*
X68366666Y-78715295D02*
X68366666Y-78858152D01*
X68366666Y-78858152D02*
X68414285Y-78953390D01*
X68414285Y-78953390D02*
X68461904Y-79001009D01*
X68461904Y-79001009D02*
X68557142Y-79048628D01*
X68557142Y-79048628D02*
X68938094Y-79048628D01*
X68033332Y-78524819D02*
X67414285Y-78524819D01*
X67414285Y-78524819D02*
X67747618Y-78905771D01*
X67747618Y-78905771D02*
X67604761Y-78905771D01*
X67604761Y-78905771D02*
X67509523Y-78953390D01*
X67509523Y-78953390D02*
X67461904Y-79001009D01*
X67461904Y-79001009D02*
X67414285Y-79096247D01*
X67414285Y-79096247D02*
X67414285Y-79334342D01*
X67414285Y-79334342D02*
X67461904Y-79429580D01*
X67461904Y-79429580D02*
X67509523Y-79477200D01*
X67509523Y-79477200D02*
X67604761Y-79524819D01*
X67604761Y-79524819D02*
X67890475Y-79524819D01*
X67890475Y-79524819D02*
X67985713Y-79477200D01*
X67985713Y-79477200D02*
X68033332Y-79429580D01*
X94242857Y-98359580D02*
X94290476Y-98407200D01*
X94290476Y-98407200D02*
X94433333Y-98454819D01*
X94433333Y-98454819D02*
X94528571Y-98454819D01*
X94528571Y-98454819D02*
X94671428Y-98407200D01*
X94671428Y-98407200D02*
X94766666Y-98311961D01*
X94766666Y-98311961D02*
X94814285Y-98216723D01*
X94814285Y-98216723D02*
X94861904Y-98026247D01*
X94861904Y-98026247D02*
X94861904Y-97883390D01*
X94861904Y-97883390D02*
X94814285Y-97692914D01*
X94814285Y-97692914D02*
X94766666Y-97597676D01*
X94766666Y-97597676D02*
X94671428Y-97502438D01*
X94671428Y-97502438D02*
X94528571Y-97454819D01*
X94528571Y-97454819D02*
X94433333Y-97454819D01*
X94433333Y-97454819D02*
X94290476Y-97502438D01*
X94290476Y-97502438D02*
X94242857Y-97550057D01*
X93909523Y-97454819D02*
X93290476Y-97454819D01*
X93290476Y-97454819D02*
X93623809Y-97835771D01*
X93623809Y-97835771D02*
X93480952Y-97835771D01*
X93480952Y-97835771D02*
X93385714Y-97883390D01*
X93385714Y-97883390D02*
X93338095Y-97931009D01*
X93338095Y-97931009D02*
X93290476Y-98026247D01*
X93290476Y-98026247D02*
X93290476Y-98264342D01*
X93290476Y-98264342D02*
X93338095Y-98359580D01*
X93338095Y-98359580D02*
X93385714Y-98407200D01*
X93385714Y-98407200D02*
X93480952Y-98454819D01*
X93480952Y-98454819D02*
X93766666Y-98454819D01*
X93766666Y-98454819D02*
X93861904Y-98407200D01*
X93861904Y-98407200D02*
X93909523Y-98359580D01*
X92433333Y-97788152D02*
X92433333Y-98454819D01*
X92671428Y-97407200D02*
X92909523Y-98121485D01*
X92909523Y-98121485D02*
X92290476Y-98121485D01*
X112688094Y-66704819D02*
X112688094Y-65704819D01*
X112688094Y-65704819D02*
X112449999Y-65704819D01*
X112449999Y-65704819D02*
X112307142Y-65752438D01*
X112307142Y-65752438D02*
X112211904Y-65847676D01*
X112211904Y-65847676D02*
X112164285Y-65942914D01*
X112164285Y-65942914D02*
X112116666Y-66133390D01*
X112116666Y-66133390D02*
X112116666Y-66276247D01*
X112116666Y-66276247D02*
X112164285Y-66466723D01*
X112164285Y-66466723D02*
X112211904Y-66561961D01*
X112211904Y-66561961D02*
X112307142Y-66657200D01*
X112307142Y-66657200D02*
X112449999Y-66704819D01*
X112449999Y-66704819D02*
X112688094Y-66704819D01*
X111164285Y-66704819D02*
X111735713Y-66704819D01*
X111449999Y-66704819D02*
X111449999Y-65704819D01*
X111449999Y-65704819D02*
X111545237Y-65847676D01*
X111545237Y-65847676D02*
X111640475Y-65942914D01*
X111640475Y-65942914D02*
X111735713Y-65990533D01*
X80704819Y-61511905D02*
X79704819Y-61511905D01*
X79704819Y-61511905D02*
X79704819Y-61750000D01*
X79704819Y-61750000D02*
X79752438Y-61892857D01*
X79752438Y-61892857D02*
X79847676Y-61988095D01*
X79847676Y-61988095D02*
X79942914Y-62035714D01*
X79942914Y-62035714D02*
X80133390Y-62083333D01*
X80133390Y-62083333D02*
X80276247Y-62083333D01*
X80276247Y-62083333D02*
X80466723Y-62035714D01*
X80466723Y-62035714D02*
X80561961Y-61988095D01*
X80561961Y-61988095D02*
X80657200Y-61892857D01*
X80657200Y-61892857D02*
X80704819Y-61750000D01*
X80704819Y-61750000D02*
X80704819Y-61511905D01*
X80133390Y-62654762D02*
X80085771Y-62559524D01*
X80085771Y-62559524D02*
X80038152Y-62511905D01*
X80038152Y-62511905D02*
X79942914Y-62464286D01*
X79942914Y-62464286D02*
X79895295Y-62464286D01*
X79895295Y-62464286D02*
X79800057Y-62511905D01*
X79800057Y-62511905D02*
X79752438Y-62559524D01*
X79752438Y-62559524D02*
X79704819Y-62654762D01*
X79704819Y-62654762D02*
X79704819Y-62845238D01*
X79704819Y-62845238D02*
X79752438Y-62940476D01*
X79752438Y-62940476D02*
X79800057Y-62988095D01*
X79800057Y-62988095D02*
X79895295Y-63035714D01*
X79895295Y-63035714D02*
X79942914Y-63035714D01*
X79942914Y-63035714D02*
X80038152Y-62988095D01*
X80038152Y-62988095D02*
X80085771Y-62940476D01*
X80085771Y-62940476D02*
X80133390Y-62845238D01*
X80133390Y-62845238D02*
X80133390Y-62654762D01*
X80133390Y-62654762D02*
X80181009Y-62559524D01*
X80181009Y-62559524D02*
X80228628Y-62511905D01*
X80228628Y-62511905D02*
X80323866Y-62464286D01*
X80323866Y-62464286D02*
X80514342Y-62464286D01*
X80514342Y-62464286D02*
X80609580Y-62511905D01*
X80609580Y-62511905D02*
X80657200Y-62559524D01*
X80657200Y-62559524D02*
X80704819Y-62654762D01*
X80704819Y-62654762D02*
X80704819Y-62845238D01*
X80704819Y-62845238D02*
X80657200Y-62940476D01*
X80657200Y-62940476D02*
X80609580Y-62988095D01*
X80609580Y-62988095D02*
X80514342Y-63035714D01*
X80514342Y-63035714D02*
X80323866Y-63035714D01*
X80323866Y-63035714D02*
X80228628Y-62988095D01*
X80228628Y-62988095D02*
X80181009Y-62940476D01*
X80181009Y-62940476D02*
X80133390Y-62845238D01*
X73561904Y-74354819D02*
X73561904Y-75164342D01*
X73561904Y-75164342D02*
X73514285Y-75259580D01*
X73514285Y-75259580D02*
X73466666Y-75307200D01*
X73466666Y-75307200D02*
X73371428Y-75354819D01*
X73371428Y-75354819D02*
X73180952Y-75354819D01*
X73180952Y-75354819D02*
X73085714Y-75307200D01*
X73085714Y-75307200D02*
X73038095Y-75259580D01*
X73038095Y-75259580D02*
X72990476Y-75164342D01*
X72990476Y-75164342D02*
X72990476Y-74354819D01*
X72085714Y-74688152D02*
X72085714Y-75354819D01*
X72323809Y-74307200D02*
X72561904Y-75021485D01*
X72561904Y-75021485D02*
X71942857Y-75021485D01*
X59359580Y-89833333D02*
X59407200Y-89785714D01*
X59407200Y-89785714D02*
X59454819Y-89642857D01*
X59454819Y-89642857D02*
X59454819Y-89547619D01*
X59454819Y-89547619D02*
X59407200Y-89404762D01*
X59407200Y-89404762D02*
X59311961Y-89309524D01*
X59311961Y-89309524D02*
X59216723Y-89261905D01*
X59216723Y-89261905D02*
X59026247Y-89214286D01*
X59026247Y-89214286D02*
X58883390Y-89214286D01*
X58883390Y-89214286D02*
X58692914Y-89261905D01*
X58692914Y-89261905D02*
X58597676Y-89309524D01*
X58597676Y-89309524D02*
X58502438Y-89404762D01*
X58502438Y-89404762D02*
X58454819Y-89547619D01*
X58454819Y-89547619D02*
X58454819Y-89642857D01*
X58454819Y-89642857D02*
X58502438Y-89785714D01*
X58502438Y-89785714D02*
X58550057Y-89833333D01*
X58788152Y-90690476D02*
X59454819Y-90690476D01*
X58407200Y-90452381D02*
X59121485Y-90214286D01*
X59121485Y-90214286D02*
X59121485Y-90833333D01*
X97042857Y-98419580D02*
X97090476Y-98467200D01*
X97090476Y-98467200D02*
X97233333Y-98514819D01*
X97233333Y-98514819D02*
X97328571Y-98514819D01*
X97328571Y-98514819D02*
X97471428Y-98467200D01*
X97471428Y-98467200D02*
X97566666Y-98371961D01*
X97566666Y-98371961D02*
X97614285Y-98276723D01*
X97614285Y-98276723D02*
X97661904Y-98086247D01*
X97661904Y-98086247D02*
X97661904Y-97943390D01*
X97661904Y-97943390D02*
X97614285Y-97752914D01*
X97614285Y-97752914D02*
X97566666Y-97657676D01*
X97566666Y-97657676D02*
X97471428Y-97562438D01*
X97471428Y-97562438D02*
X97328571Y-97514819D01*
X97328571Y-97514819D02*
X97233333Y-97514819D01*
X97233333Y-97514819D02*
X97090476Y-97562438D01*
X97090476Y-97562438D02*
X97042857Y-97610057D01*
X96709523Y-97514819D02*
X96090476Y-97514819D01*
X96090476Y-97514819D02*
X96423809Y-97895771D01*
X96423809Y-97895771D02*
X96280952Y-97895771D01*
X96280952Y-97895771D02*
X96185714Y-97943390D01*
X96185714Y-97943390D02*
X96138095Y-97991009D01*
X96138095Y-97991009D02*
X96090476Y-98086247D01*
X96090476Y-98086247D02*
X96090476Y-98324342D01*
X96090476Y-98324342D02*
X96138095Y-98419580D01*
X96138095Y-98419580D02*
X96185714Y-98467200D01*
X96185714Y-98467200D02*
X96280952Y-98514819D01*
X96280952Y-98514819D02*
X96566666Y-98514819D01*
X96566666Y-98514819D02*
X96661904Y-98467200D01*
X96661904Y-98467200D02*
X96709523Y-98419580D01*
X95185714Y-97514819D02*
X95661904Y-97514819D01*
X95661904Y-97514819D02*
X95709523Y-97991009D01*
X95709523Y-97991009D02*
X95661904Y-97943390D01*
X95661904Y-97943390D02*
X95566666Y-97895771D01*
X95566666Y-97895771D02*
X95328571Y-97895771D01*
X95328571Y-97895771D02*
X95233333Y-97943390D01*
X95233333Y-97943390D02*
X95185714Y-97991009D01*
X95185714Y-97991009D02*
X95138095Y-98086247D01*
X95138095Y-98086247D02*
X95138095Y-98324342D01*
X95138095Y-98324342D02*
X95185714Y-98419580D01*
X95185714Y-98419580D02*
X95233333Y-98467200D01*
X95233333Y-98467200D02*
X95328571Y-98514819D01*
X95328571Y-98514819D02*
X95566666Y-98514819D01*
X95566666Y-98514819D02*
X95661904Y-98467200D01*
X95661904Y-98467200D02*
X95709523Y-98419580D01*
X55059580Y-83833333D02*
X55107200Y-83785714D01*
X55107200Y-83785714D02*
X55154819Y-83642857D01*
X55154819Y-83642857D02*
X55154819Y-83547619D01*
X55154819Y-83547619D02*
X55107200Y-83404762D01*
X55107200Y-83404762D02*
X55011961Y-83309524D01*
X55011961Y-83309524D02*
X54916723Y-83261905D01*
X54916723Y-83261905D02*
X54726247Y-83214286D01*
X54726247Y-83214286D02*
X54583390Y-83214286D01*
X54583390Y-83214286D02*
X54392914Y-83261905D01*
X54392914Y-83261905D02*
X54297676Y-83309524D01*
X54297676Y-83309524D02*
X54202438Y-83404762D01*
X54202438Y-83404762D02*
X54154819Y-83547619D01*
X54154819Y-83547619D02*
X54154819Y-83642857D01*
X54154819Y-83642857D02*
X54202438Y-83785714D01*
X54202438Y-83785714D02*
X54250057Y-83833333D01*
X54154819Y-84166667D02*
X54154819Y-84833333D01*
X54154819Y-84833333D02*
X55154819Y-84404762D01*
X53038094Y-62404819D02*
X53038094Y-61404819D01*
X53038094Y-61404819D02*
X52799999Y-61404819D01*
X52799999Y-61404819D02*
X52657142Y-61452438D01*
X52657142Y-61452438D02*
X52561904Y-61547676D01*
X52561904Y-61547676D02*
X52514285Y-61642914D01*
X52514285Y-61642914D02*
X52466666Y-61833390D01*
X52466666Y-61833390D02*
X52466666Y-61976247D01*
X52466666Y-61976247D02*
X52514285Y-62166723D01*
X52514285Y-62166723D02*
X52561904Y-62261961D01*
X52561904Y-62261961D02*
X52657142Y-62357200D01*
X52657142Y-62357200D02*
X52799999Y-62404819D01*
X52799999Y-62404819D02*
X53038094Y-62404819D01*
X51561904Y-61404819D02*
X52038094Y-61404819D01*
X52038094Y-61404819D02*
X52085713Y-61881009D01*
X52085713Y-61881009D02*
X52038094Y-61833390D01*
X52038094Y-61833390D02*
X51942856Y-61785771D01*
X51942856Y-61785771D02*
X51704761Y-61785771D01*
X51704761Y-61785771D02*
X51609523Y-61833390D01*
X51609523Y-61833390D02*
X51561904Y-61881009D01*
X51561904Y-61881009D02*
X51514285Y-61976247D01*
X51514285Y-61976247D02*
X51514285Y-62214342D01*
X51514285Y-62214342D02*
X51561904Y-62309580D01*
X51561904Y-62309580D02*
X51609523Y-62357200D01*
X51609523Y-62357200D02*
X51704761Y-62404819D01*
X51704761Y-62404819D02*
X51942856Y-62404819D01*
X51942856Y-62404819D02*
X52038094Y-62357200D01*
X52038094Y-62357200D02*
X52085713Y-62309580D01*
X58866666Y-75854819D02*
X59199999Y-75378628D01*
X59438094Y-75854819D02*
X59438094Y-74854819D01*
X59438094Y-74854819D02*
X59057142Y-74854819D01*
X59057142Y-74854819D02*
X58961904Y-74902438D01*
X58961904Y-74902438D02*
X58914285Y-74950057D01*
X58914285Y-74950057D02*
X58866666Y-75045295D01*
X58866666Y-75045295D02*
X58866666Y-75188152D01*
X58866666Y-75188152D02*
X58914285Y-75283390D01*
X58914285Y-75283390D02*
X58961904Y-75331009D01*
X58961904Y-75331009D02*
X59057142Y-75378628D01*
X59057142Y-75378628D02*
X59438094Y-75378628D01*
X58485713Y-74950057D02*
X58438094Y-74902438D01*
X58438094Y-74902438D02*
X58342856Y-74854819D01*
X58342856Y-74854819D02*
X58104761Y-74854819D01*
X58104761Y-74854819D02*
X58009523Y-74902438D01*
X58009523Y-74902438D02*
X57961904Y-74950057D01*
X57961904Y-74950057D02*
X57914285Y-75045295D01*
X57914285Y-75045295D02*
X57914285Y-75140533D01*
X57914285Y-75140533D02*
X57961904Y-75283390D01*
X57961904Y-75283390D02*
X58533332Y-75854819D01*
X58533332Y-75854819D02*
X57914285Y-75854819D01*
X95704819Y-62261905D02*
X94704819Y-62261905D01*
X94704819Y-62261905D02*
X94704819Y-62500000D01*
X94704819Y-62500000D02*
X94752438Y-62642857D01*
X94752438Y-62642857D02*
X94847676Y-62738095D01*
X94847676Y-62738095D02*
X94942914Y-62785714D01*
X94942914Y-62785714D02*
X95133390Y-62833333D01*
X95133390Y-62833333D02*
X95276247Y-62833333D01*
X95276247Y-62833333D02*
X95466723Y-62785714D01*
X95466723Y-62785714D02*
X95561961Y-62738095D01*
X95561961Y-62738095D02*
X95657200Y-62642857D01*
X95657200Y-62642857D02*
X95704819Y-62500000D01*
X95704819Y-62500000D02*
X95704819Y-62261905D01*
X95704819Y-63309524D02*
X95704819Y-63500000D01*
X95704819Y-63500000D02*
X95657200Y-63595238D01*
X95657200Y-63595238D02*
X95609580Y-63642857D01*
X95609580Y-63642857D02*
X95466723Y-63738095D01*
X95466723Y-63738095D02*
X95276247Y-63785714D01*
X95276247Y-63785714D02*
X94895295Y-63785714D01*
X94895295Y-63785714D02*
X94800057Y-63738095D01*
X94800057Y-63738095D02*
X94752438Y-63690476D01*
X94752438Y-63690476D02*
X94704819Y-63595238D01*
X94704819Y-63595238D02*
X94704819Y-63404762D01*
X94704819Y-63404762D02*
X94752438Y-63309524D01*
X94752438Y-63309524D02*
X94800057Y-63261905D01*
X94800057Y-63261905D02*
X94895295Y-63214286D01*
X94895295Y-63214286D02*
X95133390Y-63214286D01*
X95133390Y-63214286D02*
X95228628Y-63261905D01*
X95228628Y-63261905D02*
X95276247Y-63309524D01*
X95276247Y-63309524D02*
X95323866Y-63404762D01*
X95323866Y-63404762D02*
X95323866Y-63595238D01*
X95323866Y-63595238D02*
X95276247Y-63690476D01*
X95276247Y-63690476D02*
X95228628Y-63738095D01*
X95228628Y-63738095D02*
X95133390Y-63785714D01*
X64361904Y-81654819D02*
X64361904Y-82464342D01*
X64361904Y-82464342D02*
X64314285Y-82559580D01*
X64314285Y-82559580D02*
X64266666Y-82607200D01*
X64266666Y-82607200D02*
X64171428Y-82654819D01*
X64171428Y-82654819D02*
X63980952Y-82654819D01*
X63980952Y-82654819D02*
X63885714Y-82607200D01*
X63885714Y-82607200D02*
X63838095Y-82559580D01*
X63838095Y-82559580D02*
X63790476Y-82464342D01*
X63790476Y-82464342D02*
X63790476Y-81654819D01*
X63409523Y-81654819D02*
X62790476Y-81654819D01*
X62790476Y-81654819D02*
X63123809Y-82035771D01*
X63123809Y-82035771D02*
X62980952Y-82035771D01*
X62980952Y-82035771D02*
X62885714Y-82083390D01*
X62885714Y-82083390D02*
X62838095Y-82131009D01*
X62838095Y-82131009D02*
X62790476Y-82226247D01*
X62790476Y-82226247D02*
X62790476Y-82464342D01*
X62790476Y-82464342D02*
X62838095Y-82559580D01*
X62838095Y-82559580D02*
X62885714Y-82607200D01*
X62885714Y-82607200D02*
X62980952Y-82654819D01*
X62980952Y-82654819D02*
X63266666Y-82654819D01*
X63266666Y-82654819D02*
X63361904Y-82607200D01*
X63361904Y-82607200D02*
X63409523Y-82559580D01*
X96104819Y-102611905D02*
X95104819Y-102611905D01*
X95104819Y-102611905D02*
X95104819Y-102850000D01*
X95104819Y-102850000D02*
X95152438Y-102992857D01*
X95152438Y-102992857D02*
X95247676Y-103088095D01*
X95247676Y-103088095D02*
X95342914Y-103135714D01*
X95342914Y-103135714D02*
X95533390Y-103183333D01*
X95533390Y-103183333D02*
X95676247Y-103183333D01*
X95676247Y-103183333D02*
X95866723Y-103135714D01*
X95866723Y-103135714D02*
X95961961Y-103088095D01*
X95961961Y-103088095D02*
X96057200Y-102992857D01*
X96057200Y-102992857D02*
X96104819Y-102850000D01*
X96104819Y-102850000D02*
X96104819Y-102611905D01*
X95104819Y-103516667D02*
X95104819Y-104183333D01*
X95104819Y-104183333D02*
X96104819Y-103754762D01*
X70366666Y-75254819D02*
X70699999Y-74778628D01*
X70938094Y-75254819D02*
X70938094Y-74254819D01*
X70938094Y-74254819D02*
X70557142Y-74254819D01*
X70557142Y-74254819D02*
X70461904Y-74302438D01*
X70461904Y-74302438D02*
X70414285Y-74350057D01*
X70414285Y-74350057D02*
X70366666Y-74445295D01*
X70366666Y-74445295D02*
X70366666Y-74588152D01*
X70366666Y-74588152D02*
X70414285Y-74683390D01*
X70414285Y-74683390D02*
X70461904Y-74731009D01*
X70461904Y-74731009D02*
X70557142Y-74778628D01*
X70557142Y-74778628D02*
X70938094Y-74778628D01*
X69461904Y-74254819D02*
X69938094Y-74254819D01*
X69938094Y-74254819D02*
X69985713Y-74731009D01*
X69985713Y-74731009D02*
X69938094Y-74683390D01*
X69938094Y-74683390D02*
X69842856Y-74635771D01*
X69842856Y-74635771D02*
X69604761Y-74635771D01*
X69604761Y-74635771D02*
X69509523Y-74683390D01*
X69509523Y-74683390D02*
X69461904Y-74731009D01*
X69461904Y-74731009D02*
X69414285Y-74826247D01*
X69414285Y-74826247D02*
X69414285Y-75064342D01*
X69414285Y-75064342D02*
X69461904Y-75159580D01*
X69461904Y-75159580D02*
X69509523Y-75207200D01*
X69509523Y-75207200D02*
X69604761Y-75254819D01*
X69604761Y-75254819D02*
X69842856Y-75254819D01*
X69842856Y-75254819D02*
X69938094Y-75207200D01*
X69938094Y-75207200D02*
X69985713Y-75159580D01*
X61699166Y-83619580D02*
X61746785Y-83667200D01*
X61746785Y-83667200D02*
X61889642Y-83714819D01*
X61889642Y-83714819D02*
X61984880Y-83714819D01*
X61984880Y-83714819D02*
X62127737Y-83667200D01*
X62127737Y-83667200D02*
X62222975Y-83571961D01*
X62222975Y-83571961D02*
X62270594Y-83476723D01*
X62270594Y-83476723D02*
X62318213Y-83286247D01*
X62318213Y-83286247D02*
X62318213Y-83143390D01*
X62318213Y-83143390D02*
X62270594Y-82952914D01*
X62270594Y-82952914D02*
X62222975Y-82857676D01*
X62222975Y-82857676D02*
X62127737Y-82762438D01*
X62127737Y-82762438D02*
X61984880Y-82714819D01*
X61984880Y-82714819D02*
X61889642Y-82714819D01*
X61889642Y-82714819D02*
X61746785Y-82762438D01*
X61746785Y-82762438D02*
X61699166Y-82810057D01*
X60794404Y-82714819D02*
X61270594Y-82714819D01*
X61270594Y-82714819D02*
X61318213Y-83191009D01*
X61318213Y-83191009D02*
X61270594Y-83143390D01*
X61270594Y-83143390D02*
X61175356Y-83095771D01*
X61175356Y-83095771D02*
X60937261Y-83095771D01*
X60937261Y-83095771D02*
X60842023Y-83143390D01*
X60842023Y-83143390D02*
X60794404Y-83191009D01*
X60794404Y-83191009D02*
X60746785Y-83286247D01*
X60746785Y-83286247D02*
X60746785Y-83524342D01*
X60746785Y-83524342D02*
X60794404Y-83619580D01*
X60794404Y-83619580D02*
X60842023Y-83667200D01*
X60842023Y-83667200D02*
X60937261Y-83714819D01*
X60937261Y-83714819D02*
X61175356Y-83714819D01*
X61175356Y-83714819D02*
X61270594Y-83667200D01*
X61270594Y-83667200D02*
X61318213Y-83619580D01*
X58754819Y-57566666D02*
X59469104Y-57566666D01*
X59469104Y-57566666D02*
X59611961Y-57519047D01*
X59611961Y-57519047D02*
X59707200Y-57423809D01*
X59707200Y-57423809D02*
X59754819Y-57280952D01*
X59754819Y-57280952D02*
X59754819Y-57185714D01*
X58754819Y-57947619D02*
X58754819Y-58566666D01*
X58754819Y-58566666D02*
X59135771Y-58233333D01*
X59135771Y-58233333D02*
X59135771Y-58376190D01*
X59135771Y-58376190D02*
X59183390Y-58471428D01*
X59183390Y-58471428D02*
X59231009Y-58519047D01*
X59231009Y-58519047D02*
X59326247Y-58566666D01*
X59326247Y-58566666D02*
X59564342Y-58566666D01*
X59564342Y-58566666D02*
X59659580Y-58519047D01*
X59659580Y-58519047D02*
X59707200Y-58471428D01*
X59707200Y-58471428D02*
X59754819Y-58376190D01*
X59754819Y-58376190D02*
X59754819Y-58090476D01*
X59754819Y-58090476D02*
X59707200Y-57995238D01*
X59707200Y-57995238D02*
X59659580Y-57947619D01*
X52766666Y-80424819D02*
X53099999Y-79948628D01*
X53338094Y-80424819D02*
X53338094Y-79424819D01*
X53338094Y-79424819D02*
X52957142Y-79424819D01*
X52957142Y-79424819D02*
X52861904Y-79472438D01*
X52861904Y-79472438D02*
X52814285Y-79520057D01*
X52814285Y-79520057D02*
X52766666Y-79615295D01*
X52766666Y-79615295D02*
X52766666Y-79758152D01*
X52766666Y-79758152D02*
X52814285Y-79853390D01*
X52814285Y-79853390D02*
X52861904Y-79901009D01*
X52861904Y-79901009D02*
X52957142Y-79948628D01*
X52957142Y-79948628D02*
X53338094Y-79948628D01*
X51814285Y-80424819D02*
X52385713Y-80424819D01*
X52099999Y-80424819D02*
X52099999Y-79424819D01*
X52099999Y-79424819D02*
X52195237Y-79567676D01*
X52195237Y-79567676D02*
X52290475Y-79662914D01*
X52290475Y-79662914D02*
X52385713Y-79710533D01*
X72142857Y-64179580D02*
X72190476Y-64227200D01*
X72190476Y-64227200D02*
X72333333Y-64274819D01*
X72333333Y-64274819D02*
X72428571Y-64274819D01*
X72428571Y-64274819D02*
X72571428Y-64227200D01*
X72571428Y-64227200D02*
X72666666Y-64131961D01*
X72666666Y-64131961D02*
X72714285Y-64036723D01*
X72714285Y-64036723D02*
X72761904Y-63846247D01*
X72761904Y-63846247D02*
X72761904Y-63703390D01*
X72761904Y-63703390D02*
X72714285Y-63512914D01*
X72714285Y-63512914D02*
X72666666Y-63417676D01*
X72666666Y-63417676D02*
X72571428Y-63322438D01*
X72571428Y-63322438D02*
X72428571Y-63274819D01*
X72428571Y-63274819D02*
X72333333Y-63274819D01*
X72333333Y-63274819D02*
X72190476Y-63322438D01*
X72190476Y-63322438D02*
X72142857Y-63370057D01*
X71190476Y-64274819D02*
X71761904Y-64274819D01*
X71476190Y-64274819D02*
X71476190Y-63274819D01*
X71476190Y-63274819D02*
X71571428Y-63417676D01*
X71571428Y-63417676D02*
X71666666Y-63512914D01*
X71666666Y-63512914D02*
X71761904Y-63560533D01*
X70571428Y-63274819D02*
X70476190Y-63274819D01*
X70476190Y-63274819D02*
X70380952Y-63322438D01*
X70380952Y-63322438D02*
X70333333Y-63370057D01*
X70333333Y-63370057D02*
X70285714Y-63465295D01*
X70285714Y-63465295D02*
X70238095Y-63655771D01*
X70238095Y-63655771D02*
X70238095Y-63893866D01*
X70238095Y-63893866D02*
X70285714Y-64084342D01*
X70285714Y-64084342D02*
X70333333Y-64179580D01*
X70333333Y-64179580D02*
X70380952Y-64227200D01*
X70380952Y-64227200D02*
X70476190Y-64274819D01*
X70476190Y-64274819D02*
X70571428Y-64274819D01*
X70571428Y-64274819D02*
X70666666Y-64227200D01*
X70666666Y-64227200D02*
X70714285Y-64179580D01*
X70714285Y-64179580D02*
X70761904Y-64084342D01*
X70761904Y-64084342D02*
X70809523Y-63893866D01*
X70809523Y-63893866D02*
X70809523Y-63655771D01*
X70809523Y-63655771D02*
X70761904Y-63465295D01*
X70761904Y-63465295D02*
X70714285Y-63370057D01*
X70714285Y-63370057D02*
X70666666Y-63322438D01*
X70666666Y-63322438D02*
X70571428Y-63274819D01*
X57014285Y-77554819D02*
X57014285Y-76554819D01*
X57014285Y-76554819D02*
X56776190Y-76554819D01*
X56776190Y-76554819D02*
X56633333Y-76602438D01*
X56633333Y-76602438D02*
X56538095Y-76697676D01*
X56538095Y-76697676D02*
X56490476Y-76792914D01*
X56490476Y-76792914D02*
X56442857Y-76983390D01*
X56442857Y-76983390D02*
X56442857Y-77126247D01*
X56442857Y-77126247D02*
X56490476Y-77316723D01*
X56490476Y-77316723D02*
X56538095Y-77411961D01*
X56538095Y-77411961D02*
X56633333Y-77507200D01*
X56633333Y-77507200D02*
X56776190Y-77554819D01*
X56776190Y-77554819D02*
X57014285Y-77554819D01*
X55490476Y-77554819D02*
X56061904Y-77554819D01*
X55776190Y-77554819D02*
X55776190Y-76554819D01*
X55776190Y-76554819D02*
X55871428Y-76697676D01*
X55871428Y-76697676D02*
X55966666Y-76792914D01*
X55966666Y-76792914D02*
X56061904Y-76840533D01*
X54538095Y-77554819D02*
X55109523Y-77554819D01*
X54823809Y-77554819D02*
X54823809Y-76554819D01*
X54823809Y-76554819D02*
X54919047Y-76697676D01*
X54919047Y-76697676D02*
X55014285Y-76792914D01*
X55014285Y-76792914D02*
X55109523Y-76840533D01*
X113088094Y-94504819D02*
X113088094Y-93504819D01*
X113088094Y-93504819D02*
X112849999Y-93504819D01*
X112849999Y-93504819D02*
X112707142Y-93552438D01*
X112707142Y-93552438D02*
X112611904Y-93647676D01*
X112611904Y-93647676D02*
X112564285Y-93742914D01*
X112564285Y-93742914D02*
X112516666Y-93933390D01*
X112516666Y-93933390D02*
X112516666Y-94076247D01*
X112516666Y-94076247D02*
X112564285Y-94266723D01*
X112564285Y-94266723D02*
X112611904Y-94361961D01*
X112611904Y-94361961D02*
X112707142Y-94457200D01*
X112707142Y-94457200D02*
X112849999Y-94504819D01*
X112849999Y-94504819D02*
X113088094Y-94504819D01*
X112135713Y-93600057D02*
X112088094Y-93552438D01*
X112088094Y-93552438D02*
X111992856Y-93504819D01*
X111992856Y-93504819D02*
X111754761Y-93504819D01*
X111754761Y-93504819D02*
X111659523Y-93552438D01*
X111659523Y-93552438D02*
X111611904Y-93600057D01*
X111611904Y-93600057D02*
X111564285Y-93695295D01*
X111564285Y-93695295D02*
X111564285Y-93790533D01*
X111564285Y-93790533D02*
X111611904Y-93933390D01*
X111611904Y-93933390D02*
X112183332Y-94504819D01*
X112183332Y-94504819D02*
X111564285Y-94504819D01*
X79904819Y-102160714D02*
X78904819Y-102160714D01*
X78904819Y-102160714D02*
X78904819Y-102398809D01*
X78904819Y-102398809D02*
X78952438Y-102541666D01*
X78952438Y-102541666D02*
X79047676Y-102636904D01*
X79047676Y-102636904D02*
X79142914Y-102684523D01*
X79142914Y-102684523D02*
X79333390Y-102732142D01*
X79333390Y-102732142D02*
X79476247Y-102732142D01*
X79476247Y-102732142D02*
X79666723Y-102684523D01*
X79666723Y-102684523D02*
X79761961Y-102636904D01*
X79761961Y-102636904D02*
X79857200Y-102541666D01*
X79857200Y-102541666D02*
X79904819Y-102398809D01*
X79904819Y-102398809D02*
X79904819Y-102160714D01*
X79000057Y-103113095D02*
X78952438Y-103160714D01*
X78952438Y-103160714D02*
X78904819Y-103255952D01*
X78904819Y-103255952D02*
X78904819Y-103494047D01*
X78904819Y-103494047D02*
X78952438Y-103589285D01*
X78952438Y-103589285D02*
X79000057Y-103636904D01*
X79000057Y-103636904D02*
X79095295Y-103684523D01*
X79095295Y-103684523D02*
X79190533Y-103684523D01*
X79190533Y-103684523D02*
X79333390Y-103636904D01*
X79333390Y-103636904D02*
X79904819Y-103065476D01*
X79904819Y-103065476D02*
X79904819Y-103684523D01*
X79000057Y-104065476D02*
X78952438Y-104113095D01*
X78952438Y-104113095D02*
X78904819Y-104208333D01*
X78904819Y-104208333D02*
X78904819Y-104446428D01*
X78904819Y-104446428D02*
X78952438Y-104541666D01*
X78952438Y-104541666D02*
X79000057Y-104589285D01*
X79000057Y-104589285D02*
X79095295Y-104636904D01*
X79095295Y-104636904D02*
X79190533Y-104636904D01*
X79190533Y-104636904D02*
X79333390Y-104589285D01*
X79333390Y-104589285D02*
X79904819Y-104017857D01*
X79904819Y-104017857D02*
X79904819Y-104636904D01*
X112688094Y-80404819D02*
X112688094Y-79404819D01*
X112688094Y-79404819D02*
X112449999Y-79404819D01*
X112449999Y-79404819D02*
X112307142Y-79452438D01*
X112307142Y-79452438D02*
X112211904Y-79547676D01*
X112211904Y-79547676D02*
X112164285Y-79642914D01*
X112164285Y-79642914D02*
X112116666Y-79833390D01*
X112116666Y-79833390D02*
X112116666Y-79976247D01*
X112116666Y-79976247D02*
X112164285Y-80166723D01*
X112164285Y-80166723D02*
X112211904Y-80261961D01*
X112211904Y-80261961D02*
X112307142Y-80357200D01*
X112307142Y-80357200D02*
X112449999Y-80404819D01*
X112449999Y-80404819D02*
X112688094Y-80404819D01*
X111259523Y-79738152D02*
X111259523Y-80404819D01*
X111497618Y-79357200D02*
X111735713Y-80071485D01*
X111735713Y-80071485D02*
X111116666Y-80071485D01*
X63604819Y-102611905D02*
X62604819Y-102611905D01*
X62604819Y-102611905D02*
X62604819Y-102850000D01*
X62604819Y-102850000D02*
X62652438Y-102992857D01*
X62652438Y-102992857D02*
X62747676Y-103088095D01*
X62747676Y-103088095D02*
X62842914Y-103135714D01*
X62842914Y-103135714D02*
X63033390Y-103183333D01*
X63033390Y-103183333D02*
X63176247Y-103183333D01*
X63176247Y-103183333D02*
X63366723Y-103135714D01*
X63366723Y-103135714D02*
X63461961Y-103088095D01*
X63461961Y-103088095D02*
X63557200Y-102992857D01*
X63557200Y-102992857D02*
X63604819Y-102850000D01*
X63604819Y-102850000D02*
X63604819Y-102611905D01*
X62604819Y-103516667D02*
X62604819Y-104135714D01*
X62604819Y-104135714D02*
X62985771Y-103802381D01*
X62985771Y-103802381D02*
X62985771Y-103945238D01*
X62985771Y-103945238D02*
X63033390Y-104040476D01*
X63033390Y-104040476D02*
X63081009Y-104088095D01*
X63081009Y-104088095D02*
X63176247Y-104135714D01*
X63176247Y-104135714D02*
X63414342Y-104135714D01*
X63414342Y-104135714D02*
X63509580Y-104088095D01*
X63509580Y-104088095D02*
X63557200Y-104040476D01*
X63557200Y-104040476D02*
X63604819Y-103945238D01*
X63604819Y-103945238D02*
X63604819Y-103659524D01*
X63604819Y-103659524D02*
X63557200Y-103564286D01*
X63557200Y-103564286D02*
X63509580Y-103516667D01*
X57359580Y-78433333D02*
X57407200Y-78385714D01*
X57407200Y-78385714D02*
X57454819Y-78242857D01*
X57454819Y-78242857D02*
X57454819Y-78147619D01*
X57454819Y-78147619D02*
X57407200Y-78004762D01*
X57407200Y-78004762D02*
X57311961Y-77909524D01*
X57311961Y-77909524D02*
X57216723Y-77861905D01*
X57216723Y-77861905D02*
X57026247Y-77814286D01*
X57026247Y-77814286D02*
X56883390Y-77814286D01*
X56883390Y-77814286D02*
X56692914Y-77861905D01*
X56692914Y-77861905D02*
X56597676Y-77909524D01*
X56597676Y-77909524D02*
X56502438Y-78004762D01*
X56502438Y-78004762D02*
X56454819Y-78147619D01*
X56454819Y-78147619D02*
X56454819Y-78242857D01*
X56454819Y-78242857D02*
X56502438Y-78385714D01*
X56502438Y-78385714D02*
X56550057Y-78433333D01*
X56550057Y-78814286D02*
X56502438Y-78861905D01*
X56502438Y-78861905D02*
X56454819Y-78957143D01*
X56454819Y-78957143D02*
X56454819Y-79195238D01*
X56454819Y-79195238D02*
X56502438Y-79290476D01*
X56502438Y-79290476D02*
X56550057Y-79338095D01*
X56550057Y-79338095D02*
X56645295Y-79385714D01*
X56645295Y-79385714D02*
X56740533Y-79385714D01*
X56740533Y-79385714D02*
X56883390Y-79338095D01*
X56883390Y-79338095D02*
X57454819Y-78766667D01*
X57454819Y-78766667D02*
X57454819Y-79385714D01*
%TO.C,Q1*%
D12*
X54850000Y-72850000D02*
X51350000Y-72850000D01*
X51350000Y-76350000D01*
X54850000Y-76350000D01*
X54850000Y-72850000D01*
%TO.C,C3*%
X71340336Y-77540000D02*
X71124664Y-77540000D01*
X71340336Y-78260000D02*
X71124664Y-78260000D01*
%TO.C,C6*%
X64765000Y-87261252D02*
X64765000Y-86738748D01*
X66235000Y-87261252D02*
X66235000Y-86738748D01*
%TO.C,C36*%
X96507836Y-95540000D02*
X96292164Y-95540000D01*
X96507836Y-96260000D02*
X96292164Y-96260000D01*
%TO.C,R6*%
X65648859Y-74820000D02*
X65956141Y-74820000D01*
X65648859Y-75580000D02*
X65956141Y-75580000D01*
%TO.C,C8*%
X61265000Y-87261252D02*
X61265000Y-86738748D01*
X62735000Y-87261252D02*
X62735000Y-86738748D01*
%TO.C,D6*%
X65740000Y-62000000D02*
X65740000Y-63160000D01*
X66050000Y-63160000D02*
X65740000Y-63160000D01*
X67350000Y-63160000D02*
X67660000Y-63160000D01*
X67660000Y-62000000D02*
X67660000Y-63160000D01*
D10*
X66275000Y-61350000D02*
G75*
G02*
X66125000Y-61350000I-75000J0D01*
G01*
X66125000Y-61350000D02*
G75*
G02*
X66275000Y-61350000I75000J0D01*
G01*
D12*
%TO.C,F1*%
X51290000Y-88297936D02*
X51290000Y-89502064D01*
X53110000Y-88297936D02*
X53110000Y-89502064D01*
%TO.C,L3*%
X93750279Y-94690000D02*
X93424721Y-94690000D01*
X93750279Y-95710000D02*
X93424721Y-95710000D01*
%TO.C,C9*%
X62765000Y-66688748D02*
X62765000Y-67211252D01*
X64235000Y-66688748D02*
X64235000Y-67211252D01*
%TO.C,D10*%
X58750000Y-70250000D02*
X64560000Y-70250000D01*
X58750000Y-74550000D02*
X64560000Y-74550000D01*
X64560000Y-74550000D02*
X64560000Y-70250000D01*
%TO.C,R3*%
X68353641Y-77520000D02*
X68046359Y-77520000D01*
X68353641Y-78280000D02*
X68046359Y-78280000D01*
%TO.C,C34*%
X93592164Y-96340000D02*
X93807836Y-96340000D01*
X93592164Y-97060000D02*
X93807836Y-97060000D01*
%TO.C,D1*%
X111300000Y-63040000D02*
X112460000Y-63040000D01*
X111300000Y-64960000D02*
X112460000Y-64960000D01*
X112460000Y-63350000D02*
X112460000Y-63040000D01*
X112460000Y-64650000D02*
X112460000Y-64960000D01*
D10*
X110725000Y-64500000D02*
G75*
G02*
X110575000Y-64500000I-75000J0D01*
G01*
X110575000Y-64500000D02*
G75*
G02*
X110725000Y-64500000I75000J0D01*
G01*
D12*
%TO.C,D8*%
X81540000Y-61600000D02*
X81540000Y-62760000D01*
X81850000Y-62760000D02*
X81540000Y-62760000D01*
X83150000Y-62760000D02*
X83460000Y-62760000D01*
X83460000Y-61600000D02*
X83460000Y-62760000D01*
D10*
X82075000Y-60950000D02*
G75*
G02*
X81925000Y-60950000I-75000J0D01*
G01*
X81925000Y-60950000D02*
G75*
G02*
X82075000Y-60950000I75000J0D01*
G01*
D12*
%TO.C,U4*%
X71760000Y-67090000D02*
X68000000Y-67090000D01*
X71760000Y-68350000D02*
X71760000Y-67090000D01*
X71760000Y-72650000D02*
X71760000Y-73910000D01*
X71760000Y-73910000D02*
X68000000Y-73910000D01*
X66960000Y-74140000D02*
X66480000Y-74140000D01*
X66720000Y-73810000D01*
X66960000Y-74140000D01*
G36*
X66960000Y-74140000D02*
G01*
X66480000Y-74140000D01*
X66720000Y-73810000D01*
X66960000Y-74140000D01*
G37*
%TO.C,C4*%
X58265000Y-87261252D02*
X58265000Y-86738748D01*
X59735000Y-87261252D02*
X59735000Y-86738748D01*
%TO.C,C35*%
X96507836Y-96540000D02*
X96292164Y-96540000D01*
X96507836Y-97260000D02*
X96292164Y-97260000D01*
%TO.C,C7*%
X54065000Y-81561252D02*
X54065000Y-81038748D01*
X55535000Y-81561252D02*
X55535000Y-81038748D01*
%TO.C,D5*%
X51790000Y-63550000D02*
X51790000Y-63240000D01*
X51790000Y-64850000D02*
X51790000Y-65160000D01*
X52950000Y-63240000D02*
X51790000Y-63240000D01*
X52950000Y-65160000D02*
X51790000Y-65160000D01*
D10*
X53675000Y-63700000D02*
G75*
G02*
X53525000Y-63700000I-75000J0D01*
G01*
X53525000Y-63700000D02*
G75*
G02*
X53675000Y-63700000I75000J0D01*
G01*
D12*
%TO.C,R2*%
X61453641Y-74820000D02*
X61146359Y-74820000D01*
X61453641Y-75580000D02*
X61146359Y-75580000D01*
%TO.C,D9*%
X96540000Y-62350000D02*
X96540000Y-63510000D01*
X96850000Y-63510000D02*
X96540000Y-63510000D01*
X98150000Y-63510000D02*
X98460000Y-63510000D01*
X98460000Y-62350000D02*
X98460000Y-63510000D01*
D10*
X97075000Y-61700000D02*
G75*
G02*
X96925000Y-61700000I-75000J0D01*
G01*
X96925000Y-61700000D02*
G75*
G02*
X97075000Y-61700000I75000J0D01*
G01*
D12*
%TO.C,U3*%
X61387500Y-75975000D02*
X61626916Y-75975000D01*
X61387500Y-81095000D02*
X61626916Y-81095000D01*
X65287500Y-75975000D02*
X65048084Y-75975000D01*
X65287500Y-81095000D02*
X65048084Y-81095000D01*
X60877500Y-81330000D02*
X60397500Y-81330000D01*
X60637500Y-81000000D01*
X60877500Y-81330000D01*
G36*
X60877500Y-81330000D02*
G01*
X60397500Y-81330000D01*
X60637500Y-81000000D01*
X60877500Y-81330000D01*
G37*
%TO.C,D7*%
X96940000Y-102700000D02*
X96940000Y-103860000D01*
X97250000Y-103860000D02*
X96940000Y-103860000D01*
X98550000Y-103860000D02*
X98860000Y-103860000D01*
X98860000Y-102700000D02*
X98860000Y-103860000D01*
D10*
X97475000Y-102050000D02*
G75*
G02*
X97325000Y-102050000I-75000J0D01*
G01*
X97325000Y-102050000D02*
G75*
G02*
X97475000Y-102050000I75000J0D01*
G01*
D12*
%TO.C,R5*%
X68048859Y-74820000D02*
X68356141Y-74820000D01*
X68048859Y-75580000D02*
X68356141Y-75580000D01*
%TO.C,C5*%
X61640336Y-81740000D02*
X61424664Y-81740000D01*
X61640336Y-82460000D02*
X61424664Y-82460000D01*
%TO.C,J3*%
X58590000Y-53730000D02*
X58590000Y-51130000D01*
X58590000Y-56330000D02*
X58590000Y-55000000D01*
X59920000Y-56330000D02*
X58590000Y-56330000D01*
X61190000Y-53730000D02*
X58590000Y-53730000D01*
X61190000Y-56330000D02*
X61190000Y-53730000D01*
X84110000Y-51130000D02*
X58590000Y-51130000D01*
X84110000Y-56330000D02*
X61190000Y-56330000D01*
X84110000Y-56330000D02*
X84110000Y-51130000D01*
%TO.C,R1*%
X52753641Y-78420000D02*
X52446359Y-78420000D01*
X52753641Y-79180000D02*
X52446359Y-79180000D01*
%TO.C,C10*%
X71238748Y-64765000D02*
X71761252Y-64765000D01*
X71238748Y-66235000D02*
X71761252Y-66235000D01*
%TO.C,D11*%
X52087500Y-78105000D02*
X54372500Y-78105000D01*
X54372500Y-76635000D02*
X52087500Y-76635000D01*
X54372500Y-78105000D02*
X54372500Y-76635000D01*
%TO.C,D2*%
X111700000Y-90840000D02*
X112860000Y-90840000D01*
X111700000Y-92760000D02*
X112860000Y-92760000D01*
X112860000Y-91150000D02*
X112860000Y-90840000D01*
X112860000Y-92450000D02*
X112860000Y-92760000D01*
D10*
X111125000Y-92300000D02*
G75*
G02*
X110975000Y-92300000I-75000J0D01*
G01*
X110975000Y-92300000D02*
G75*
G02*
X111125000Y-92300000I75000J0D01*
G01*
D12*
%TO.C,D22*%
X80740000Y-102725000D02*
X80740000Y-103885000D01*
X81050000Y-103885000D02*
X80740000Y-103885000D01*
X82350000Y-103885000D02*
X82660000Y-103885000D01*
X82660000Y-102725000D02*
X82660000Y-103885000D01*
D10*
X81275000Y-102075000D02*
G75*
G02*
X81125000Y-102075000I-75000J0D01*
G01*
X81125000Y-102075000D02*
G75*
G02*
X81275000Y-102075000I75000J0D01*
G01*
D12*
%TO.C,D4*%
X111300000Y-76740000D02*
X112460000Y-76740000D01*
X111300000Y-78660000D02*
X112460000Y-78660000D01*
X112460000Y-77050000D02*
X112460000Y-76740000D01*
X112460000Y-78350000D02*
X112460000Y-78660000D01*
D10*
X110725000Y-78200000D02*
G75*
G02*
X110575000Y-78200000I-75000J0D01*
G01*
X110575000Y-78200000D02*
G75*
G02*
X110725000Y-78200000I75000J0D01*
G01*
D12*
%TO.C,D3*%
X64440000Y-102700000D02*
X64440000Y-103860000D01*
X64750000Y-103860000D02*
X64440000Y-103860000D01*
X66050000Y-103860000D02*
X66360000Y-103860000D01*
X66360000Y-102700000D02*
X66360000Y-103860000D01*
D10*
X64975000Y-102050000D02*
G75*
G02*
X64825000Y-102050000I-75000J0D01*
G01*
X64825000Y-102050000D02*
G75*
G02*
X64975000Y-102050000I75000J0D01*
G01*
D12*
%TO.C,C2*%
X56265000Y-81561252D02*
X56265000Y-81038748D01*
X57735000Y-81561252D02*
X57735000Y-81038748D01*
%TD*%
M02*
