%TF.GenerationSoftware,KiCad,Pcbnew,9.0.0*%
%TF.CreationDate,2025-03-28T10:16:05+01:00*%
%TF.ProjectId,test1,74657374-312e-46b6-9963-61645f706362,rev?*%
%TF.SameCoordinates,Original*%
%TF.FileFunction,Paste,Bot*%
%TF.FilePolarity,Positive*%
%FSLAX46Y46*%
G04 Gerber Fmt 4.6, Leading zero omitted, Abs format (unit mm)*
G04 Created by KiCad (PCBNEW 9.0.0) date 2025-03-28 10:16:05*
%MOMM*%
%LPD*%
G01*
G04 APERTURE LIST*
G04 Aperture macros list*
%AMRoundRect*
0 Rectangle with rounded corners*
0 $1 Rounding radius*
0 $2 $3 $4 $5 $6 $7 $8 $9 X,Y pos of 4 corners*
0 Add a 4 corners polygon primitive as box body*
4,1,4,$2,$3,$4,$5,$6,$7,$8,$9,$2,$3,0*
0 Add four circle primitives for the rounded corners*
1,1,$1+$1,$2,$3*
1,1,$1+$1,$4,$5*
1,1,$1+$1,$6,$7*
1,1,$1+$1,$8,$9*
0 Add four rect primitives between the rounded corners*
20,1,$1+$1,$2,$3,$4,$5,0*
20,1,$1+$1,$4,$5,$6,$7,0*
20,1,$1+$1,$6,$7,$8,$9,0*
20,1,$1+$1,$8,$9,$2,$3,0*%
G04 Aperture macros list end*
%ADD10R,0.420000X0.660000*%
%ADD11R,0.545000X0.570000*%
%ADD12R,0.420000X0.470000*%
%ADD13R,2.370000X1.830000*%
%ADD14RoundRect,0.125000X-0.125000X0.175000X-0.125000X-0.175000X0.125000X-0.175000X0.125000X0.175000X0*%
%ADD15RoundRect,0.250000X0.625000X-0.375000X0.625000X0.375000X-0.625000X0.375000X-0.625000X-0.375000X0*%
%ADD16RoundRect,0.250000X-0.900000X1.000000X-0.900000X-1.000000X0.900000X-1.000000X0.900000X1.000000X0*%
%ADD17RoundRect,0.225000X-0.250000X0.225000X-0.250000X-0.225000X0.250000X-0.225000X0.250000X0.225000X0*%
%ADD18RoundRect,0.125000X-0.175000X-0.125000X0.175000X-0.125000X0.175000X0.125000X-0.175000X0.125000X0*%
%ADD19RoundRect,0.135000X0.185000X-0.135000X0.185000X0.135000X-0.185000X0.135000X-0.185000X-0.135000X0*%
%ADD20RoundRect,0.125000X0.175000X0.125000X-0.175000X0.125000X-0.175000X-0.125000X0.175000X-0.125000X0*%
%ADD21RoundRect,0.250000X-0.475000X0.250000X-0.475000X-0.250000X0.475000X-0.250000X0.475000X0.250000X0*%
%ADD22RoundRect,0.225000X-0.225000X-0.250000X0.225000X-0.250000X0.225000X0.250000X-0.225000X0.250000X0*%
%ADD23RoundRect,0.135000X-0.135000X-0.185000X0.135000X-0.185000X0.135000X0.185000X-0.135000X0.185000X0*%
%ADD24RoundRect,0.218750X0.218750X0.256250X-0.218750X0.256250X-0.218750X-0.256250X0.218750X-0.256250X0*%
%ADD25R,0.400000X0.500000*%
%ADD26R,1.500000X1.500000*%
%ADD27RoundRect,0.135000X-0.185000X0.135000X-0.185000X-0.135000X0.185000X-0.135000X0.185000X0.135000X0*%
%ADD28RoundRect,0.250000X-0.250000X-0.475000X0.250000X-0.475000X0.250000X0.475000X-0.250000X0.475000X0*%
G04 APERTURE END LIST*
D10*
%TO.C,Q1*%
X52125000Y-76070000D03*
D11*
X51642500Y-74315000D03*
D12*
X52125000Y-72985000D03*
X52775000Y-72985000D03*
D13*
X53100000Y-74135000D03*
D12*
X53425000Y-72985000D03*
X54075000Y-72985000D03*
D11*
X54557500Y-74315000D03*
D10*
X52775000Y-76070000D03*
X53425000Y-76070000D03*
X54075000Y-76070000D03*
%TD*%
D14*
%TO.C,D6*%
X66200000Y-62000000D03*
X67200000Y-62000000D03*
X66700000Y-63300000D03*
%TD*%
D15*
%TO.C,F1*%
X52200000Y-90300000D03*
X52200000Y-87500000D03*
%TD*%
D16*
%TO.C,D10*%
X59800000Y-68200000D03*
X59800000Y-72500000D03*
%TD*%
D17*
%TO.C,C48*%
X104300000Y-74925000D03*
X104300000Y-76475000D03*
%TD*%
D18*
%TO.C,D1*%
X111300000Y-64500000D03*
X111300000Y-63500000D03*
X112600000Y-64000000D03*
%TD*%
D14*
%TO.C,D8*%
X82000000Y-61600000D03*
X83000000Y-61600000D03*
X82500000Y-62900000D03*
%TD*%
D19*
%TO.C,R9*%
X61400000Y-77010000D03*
X61400000Y-75990000D03*
%TD*%
D20*
%TO.C,D5*%
X52950000Y-63700000D03*
X52950000Y-64700000D03*
X51650000Y-64200000D03*
%TD*%
D19*
%TO.C,R7*%
X59100000Y-77000000D03*
X59100000Y-75980000D03*
%TD*%
D21*
%TO.C,C11*%
X56800000Y-78850000D03*
X56800000Y-80750000D03*
%TD*%
D14*
%TO.C,D9*%
X97000000Y-62350000D03*
X98000000Y-62350000D03*
X97500000Y-63650000D03*
%TD*%
%TO.C,D7*%
X97400000Y-102700000D03*
X98400000Y-102700000D03*
X97900000Y-104000000D03*
%TD*%
D22*
%TO.C,C46*%
X63225000Y-76500000D03*
X64775000Y-76500000D03*
%TD*%
D23*
%TO.C,R1*%
X52090000Y-78800000D03*
X53110000Y-78800000D03*
%TD*%
D24*
%TO.C,D11*%
X53675000Y-77370000D03*
X52100000Y-77370000D03*
%TD*%
D25*
%TO.C,U2*%
X59800000Y-78100000D03*
X60800000Y-78100000D03*
X61800000Y-78100000D03*
X62800000Y-78100000D03*
X63800000Y-78100000D03*
D26*
X68400000Y-78600000D03*
X68400000Y-82800000D03*
D25*
X63800000Y-83300000D03*
X62800000Y-83300000D03*
X61800000Y-83300000D03*
X60800000Y-83300000D03*
X59800000Y-83300000D03*
D26*
X61250000Y-80700000D03*
%TD*%
D18*
%TO.C,D2*%
X111700000Y-92300000D03*
X111700000Y-91300000D03*
X113000000Y-91800000D03*
%TD*%
D14*
%TO.C,D22*%
X81200000Y-102725000D03*
X82200000Y-102725000D03*
X81700000Y-104025000D03*
%TD*%
D27*
%TO.C,R8*%
X60300000Y-75990000D03*
X60300000Y-77010000D03*
%TD*%
D18*
%TO.C,D4*%
X111300000Y-78200000D03*
X111300000Y-77200000D03*
X112600000Y-77700000D03*
%TD*%
D28*
%TO.C,C47*%
X68400000Y-76200000D03*
X70300000Y-76200000D03*
%TD*%
D19*
%TO.C,R4*%
X75000000Y-88610000D03*
X75000000Y-87590000D03*
%TD*%
D14*
%TO.C,D3*%
X64900000Y-102700000D03*
X65900000Y-102700000D03*
X65400000Y-104000000D03*
%TD*%
M02*
