%TF.GenerationSoftware,KiCad,Pcbnew,8.0.7*%
%TF.CreationDate,2025-01-28T22:36:31+01:00*%
%TF.ProjectId,test1,74657374-312e-46b6-9963-61645f706362,rev?*%
%TF.SameCoordinates,Original*%
%TF.FileFunction,Soldermask,Bot*%
%TF.FilePolarity,Negative*%
%FSLAX46Y46*%
G04 Gerber Fmt 4.6, Leading zero omitted, Abs format (unit mm)*
G04 Created by KiCad (PCBNEW 8.0.7) date 2025-01-28 22:36:31*
%MOMM*%
%LPD*%
G01*
G04 APERTURE LIST*
G04 Aperture macros list*
%AMRoundRect*
0 Rectangle with rounded corners*
0 $1 Rounding radius*
0 $2 $3 $4 $5 $6 $7 $8 $9 X,Y pos of 4 corners*
0 Add a 4 corners polygon primitive as box body*
4,1,4,$2,$3,$4,$5,$6,$7,$8,$9,$2,$3,0*
0 Add four circle primitives for the rounded corners*
1,1,$1+$1,$2,$3*
1,1,$1+$1,$4,$5*
1,1,$1+$1,$6,$7*
1,1,$1+$1,$8,$9*
0 Add four rect primitives between the rounded corners*
20,1,$1+$1,$2,$3,$4,$5,0*
20,1,$1+$1,$4,$5,$6,$7,0*
20,1,$1+$1,$6,$7,$8,$9,0*
20,1,$1+$1,$8,$9,$2,$3,0*%
G04 Aperture macros list end*
%ADD10RoundRect,1.500000X1.500000X-1.500000X1.500000X1.500000X-1.500000X1.500000X-1.500000X-1.500000X0*%
%ADD11C,6.000000*%
%ADD12RoundRect,0.250000X-0.600000X-0.725000X0.600000X-0.725000X0.600000X0.725000X-0.600000X0.725000X0*%
%ADD13O,1.700000X1.950000*%
%ADD14C,2.743200*%
%ADD15RoundRect,0.250000X-0.725000X0.600000X-0.725000X-0.600000X0.725000X-0.600000X0.725000X0.600000X0*%
%ADD16O,1.950000X1.700000*%
%ADD17RoundRect,0.250000X0.725000X-0.600000X0.725000X0.600000X-0.725000X0.600000X-0.725000X-0.600000X0*%
%ADD18C,4.700000*%
%ADD19R,0.420000X0.660000*%
%ADD20R,0.545000X0.570000*%
%ADD21R,0.420000X0.470000*%
%ADD22R,2.370000X1.830000*%
%ADD23RoundRect,0.140000X-0.140000X-0.170000X0.140000X-0.170000X0.140000X0.170000X-0.140000X0.170000X0*%
%ADD24RoundRect,0.250000X-0.475000X0.250000X-0.475000X-0.250000X0.475000X-0.250000X0.475000X0.250000X0*%
%ADD25RoundRect,0.135000X0.135000X0.185000X-0.135000X0.185000X-0.135000X-0.185000X0.135000X-0.185000X0*%
%ADD26R,5.600000X1.505000*%
%ADD27RoundRect,0.125000X-0.125000X0.175000X-0.125000X-0.175000X0.125000X-0.175000X0.125000X0.175000X0*%
%ADD28RoundRect,0.250000X0.625000X-0.375000X0.625000X0.375000X-0.625000X0.375000X-0.625000X-0.375000X0*%
%ADD29RoundRect,0.218750X-0.218750X-0.256250X0.218750X-0.256250X0.218750X0.256250X-0.218750X0.256250X0*%
%ADD30RoundRect,0.250000X0.475000X-0.250000X0.475000X0.250000X-0.475000X0.250000X-0.475000X-0.250000X0*%
%ADD31RoundRect,0.250000X1.000000X0.900000X-1.000000X0.900000X-1.000000X-0.900000X1.000000X-0.900000X0*%
%ADD32RoundRect,0.135000X-0.135000X-0.185000X0.135000X-0.185000X0.135000X0.185000X-0.135000X0.185000X0*%
%ADD33RoundRect,0.140000X0.140000X0.170000X-0.140000X0.170000X-0.140000X-0.170000X0.140000X-0.170000X0*%
%ADD34RoundRect,0.125000X-0.175000X-0.125000X0.175000X-0.125000X0.175000X0.125000X-0.175000X0.125000X0*%
%ADD35RoundRect,0.375000X-0.625000X-0.375000X0.625000X-0.375000X0.625000X0.375000X-0.625000X0.375000X0*%
%ADD36RoundRect,0.500000X-0.500000X-1.400000X0.500000X-1.400000X0.500000X1.400000X-0.500000X1.400000X0*%
%ADD37RoundRect,0.125000X0.175000X0.125000X-0.175000X0.125000X-0.175000X-0.125000X0.175000X-0.125000X0*%
%ADD38R,2.710000X3.400000*%
%ADD39RoundRect,0.150000X-0.737500X-0.150000X0.737500X-0.150000X0.737500X0.150000X-0.737500X0.150000X0*%
%ADD40R,1.700000X1.700000*%
%ADD41O,1.700000X1.700000*%
%ADD42RoundRect,0.250000X0.250000X0.475000X-0.250000X0.475000X-0.250000X-0.475000X0.250000X-0.475000X0*%
%ADD43RoundRect,0.218750X0.218750X0.256250X-0.218750X0.256250X-0.218750X-0.256250X0.218750X-0.256250X0*%
G04 APERTURE END LIST*
D10*
%TO.C,BT1*%
X46500000Y-92700000D03*
D11*
X46500000Y-85500000D03*
%TD*%
D12*
%TO.C,UART10*%
X61250000Y-100700000D03*
D13*
X63750000Y-100700000D03*
X66250000Y-100700000D03*
X68750000Y-100700000D03*
%TD*%
D14*
%TO.C,ARU1*%
X49100000Y-77550000D03*
X49100000Y-74050000D03*
%TD*%
D15*
%TO.C,UART2*%
X55000000Y-60500000D03*
D16*
X55000000Y-63000000D03*
X55000000Y-65500000D03*
X55000000Y-68000000D03*
%TD*%
D17*
%TO.C,UART1*%
X108700000Y-67750000D03*
D16*
X108700000Y-65250000D03*
X108700000Y-62750000D03*
X108700000Y-60250000D03*
%TD*%
D17*
%TO.C,UART5*%
X108700000Y-81500000D03*
D16*
X108700000Y-79000000D03*
X108700000Y-76500000D03*
X108700000Y-74000000D03*
%TD*%
D18*
%TO.C,H4*%
X110500000Y-54000000D03*
%TD*%
%TO.C,H2*%
X54000000Y-102000000D03*
%TD*%
D17*
%TO.C,UART3*%
X108700000Y-95250000D03*
D16*
X108700000Y-92750000D03*
X108700000Y-90250000D03*
X108700000Y-87750000D03*
%TD*%
D18*
%TO.C,H3*%
X110500000Y-102000000D03*
%TD*%
D12*
%TO.C,UART4*%
X77750000Y-100700000D03*
D13*
X80250000Y-100700000D03*
X82750000Y-100700000D03*
X85250000Y-100700000D03*
%TD*%
D12*
%TO.C,LIDAR1*%
X93500000Y-60000000D03*
D13*
X96000000Y-60000000D03*
X98500000Y-60000000D03*
X101000000Y-60000000D03*
%TD*%
D12*
%TO.C,UART8*%
X78750000Y-60000000D03*
D13*
X81250000Y-60000000D03*
X83750000Y-60000000D03*
X86250000Y-60000000D03*
%TD*%
D12*
%TO.C,UART6*%
X63500000Y-60000000D03*
D13*
X66000000Y-60000000D03*
X68500000Y-60000000D03*
X71000000Y-60000000D03*
%TD*%
D18*
%TO.C,H1*%
X54000000Y-54000000D03*
%TD*%
D12*
%TO.C,UART7*%
X94200000Y-100800000D03*
D13*
X96700000Y-100800000D03*
X99200000Y-100800000D03*
X101700000Y-100800000D03*
%TD*%
D19*
%TO.C,Q1*%
X52125000Y-76070000D03*
D20*
X51642500Y-74315000D03*
D21*
X52125000Y-72985000D03*
X52775000Y-72985000D03*
D22*
X53100000Y-74135000D03*
D21*
X53425000Y-72985000D03*
X54075000Y-72985000D03*
D20*
X54557500Y-74315000D03*
D19*
X52775000Y-76070000D03*
X53425000Y-76070000D03*
X54075000Y-76070000D03*
%TD*%
D23*
%TO.C,C3*%
X70752500Y-77900000D03*
X71712500Y-77900000D03*
%TD*%
D24*
%TO.C,C6*%
X65500000Y-86050000D03*
X65500000Y-87950000D03*
%TD*%
D23*
%TO.C,C36*%
X95920000Y-95900000D03*
X96880000Y-95900000D03*
%TD*%
D25*
%TO.C,R6*%
X66312500Y-75200000D03*
X65292500Y-75200000D03*
%TD*%
D24*
%TO.C,C8*%
X62000000Y-86050000D03*
X62000000Y-87950000D03*
%TD*%
D26*
%TO.C,L1*%
X70600000Y-80800000D03*
X70600000Y-84805000D03*
%TD*%
D27*
%TO.C,D6*%
X66200000Y-62000000D03*
X67200000Y-62000000D03*
X66700000Y-63300000D03*
%TD*%
D28*
%TO.C,F1*%
X52200000Y-90300000D03*
X52200000Y-87500000D03*
%TD*%
D29*
%TO.C,L3*%
X92800000Y-95200000D03*
X94375000Y-95200000D03*
%TD*%
D30*
%TO.C,C9*%
X63500000Y-67900000D03*
X63500000Y-66000000D03*
%TD*%
D31*
%TO.C,D10*%
X63050000Y-72400000D03*
X58750000Y-72400000D03*
%TD*%
D32*
%TO.C,R3*%
X67690000Y-77900000D03*
X68710000Y-77900000D03*
%TD*%
D33*
%TO.C,C34*%
X94180000Y-96700000D03*
X93220000Y-96700000D03*
%TD*%
D34*
%TO.C,D1*%
X111300000Y-64500000D03*
X111300000Y-63500000D03*
X112600000Y-64000000D03*
%TD*%
D27*
%TO.C,D8*%
X82000000Y-61600000D03*
X83000000Y-61600000D03*
X82500000Y-62900000D03*
%TD*%
D35*
%TO.C,U4*%
X66700000Y-72800000D03*
X66700000Y-70500000D03*
D36*
X73000000Y-70500000D03*
D35*
X66700000Y-68200000D03*
%TD*%
D24*
%TO.C,C4*%
X59000000Y-86050000D03*
X59000000Y-87950000D03*
%TD*%
D23*
%TO.C,C35*%
X95920000Y-96900000D03*
X96880000Y-96900000D03*
%TD*%
D24*
%TO.C,C7*%
X54800000Y-80350000D03*
X54800000Y-82250000D03*
%TD*%
D37*
%TO.C,D5*%
X52950000Y-63700000D03*
X52950000Y-64700000D03*
X51650000Y-64200000D03*
%TD*%
D32*
%TO.C,R2*%
X60790000Y-75200000D03*
X61810000Y-75200000D03*
%TD*%
D27*
%TO.C,D9*%
X97000000Y-62350000D03*
X98000000Y-62350000D03*
X97500000Y-63650000D03*
%TD*%
D38*
%TO.C,U3*%
X63337500Y-78535000D03*
D39*
X60775000Y-80440000D03*
X60775000Y-79170000D03*
X60775000Y-77900000D03*
X60775000Y-76630000D03*
X65900000Y-76630000D03*
X65900000Y-77900000D03*
X65900000Y-79170000D03*
X65900000Y-80440000D03*
%TD*%
D27*
%TO.C,D7*%
X97400000Y-102700000D03*
X98400000Y-102700000D03*
X97900000Y-104000000D03*
%TD*%
D25*
%TO.C,R5*%
X68712500Y-75200000D03*
X67692500Y-75200000D03*
%TD*%
D23*
%TO.C,C5*%
X61052500Y-82100000D03*
X62012500Y-82100000D03*
%TD*%
D40*
%TO.C,J3*%
X59920000Y-55000000D03*
D41*
X59920000Y-52460000D03*
X62460000Y-55000000D03*
X62460000Y-52460000D03*
X65000000Y-55000000D03*
X65000000Y-52460000D03*
X67540000Y-55000000D03*
X67540000Y-52460000D03*
X70080000Y-55000000D03*
X70080000Y-52460000D03*
X72620000Y-55000000D03*
X72620000Y-52460000D03*
X75160000Y-55000000D03*
X75160000Y-52460000D03*
X77700000Y-55000000D03*
X77700000Y-52460000D03*
X80240000Y-55000000D03*
X80240000Y-52460000D03*
X82780000Y-55000000D03*
X82780000Y-52460000D03*
%TD*%
D32*
%TO.C,R1*%
X52090000Y-78800000D03*
X53110000Y-78800000D03*
%TD*%
D42*
%TO.C,C10*%
X72450000Y-65500000D03*
X70550000Y-65500000D03*
%TD*%
D43*
%TO.C,D11*%
X53675000Y-77370000D03*
X52100000Y-77370000D03*
%TD*%
D34*
%TO.C,D2*%
X111700000Y-92300000D03*
X111700000Y-91300000D03*
X113000000Y-91800000D03*
%TD*%
D27*
%TO.C,D22*%
X81200000Y-102725000D03*
X82200000Y-102725000D03*
X81700000Y-104025000D03*
%TD*%
D34*
%TO.C,D4*%
X111300000Y-78200000D03*
X111300000Y-77200000D03*
X112600000Y-77700000D03*
%TD*%
D27*
%TO.C,D3*%
X64900000Y-102700000D03*
X65900000Y-102700000D03*
X65400000Y-104000000D03*
%TD*%
D24*
%TO.C,C2*%
X57000000Y-80350000D03*
X57000000Y-82250000D03*
%TD*%
M02*
