%TF.GenerationSoftware,KiCad,Pcbnew,8.0.7*%
%TF.CreationDate,2025-02-10T20:26:25+01:00*%
%TF.ProjectId,test1,74657374-312e-46b6-9963-61645f706362,rev?*%
%TF.SameCoordinates,Original*%
%TF.FileFunction,Soldermask,Top*%
%TF.FilePolarity,Negative*%
%FSLAX46Y46*%
G04 Gerber Fmt 4.6, Leading zero omitted, Abs format (unit mm)*
G04 Created by KiCad (PCBNEW 8.0.7) date 2025-02-10 20:26:25*
%MOMM*%
%LPD*%
G01*
G04 APERTURE LIST*
G04 Aperture macros list*
%AMRoundRect*
0 Rectangle with rounded corners*
0 $1 Rounding radius*
0 $2 $3 $4 $5 $6 $7 $8 $9 X,Y pos of 4 corners*
0 Add a 4 corners polygon primitive as box body*
4,1,4,$2,$3,$4,$5,$6,$7,$8,$9,$2,$3,0*
0 Add four circle primitives for the rounded corners*
1,1,$1+$1,$2,$3*
1,1,$1+$1,$4,$5*
1,1,$1+$1,$6,$7*
1,1,$1+$1,$8,$9*
0 Add four rect primitives between the rounded corners*
20,1,$1+$1,$2,$3,$4,$5,0*
20,1,$1+$1,$4,$5,$6,$7,0*
20,1,$1+$1,$6,$7,$8,$9,0*
20,1,$1+$1,$8,$9,$2,$3,0*%
G04 Aperture macros list end*
%ADD10RoundRect,0.135000X0.185000X-0.135000X0.185000X0.135000X-0.185000X0.135000X-0.185000X-0.135000X0*%
%ADD11RoundRect,0.250000X-0.600000X-0.725000X0.600000X-0.725000X0.600000X0.725000X-0.600000X0.725000X0*%
%ADD12O,1.700000X1.950000*%
%ADD13RoundRect,0.140000X-0.140000X-0.170000X0.140000X-0.170000X0.140000X0.170000X-0.140000X0.170000X0*%
%ADD14C,2.743200*%
%ADD15RoundRect,0.225000X-0.225000X-0.250000X0.225000X-0.250000X0.225000X0.250000X-0.225000X0.250000X0*%
%ADD16RoundRect,0.250000X-0.725000X0.600000X-0.725000X-0.600000X0.725000X-0.600000X0.725000X0.600000X0*%
%ADD17O,1.950000X1.700000*%
%ADD18RoundRect,0.075000X0.075000X-0.675000X0.075000X0.675000X-0.075000X0.675000X-0.075000X-0.675000X0*%
%ADD19RoundRect,0.075000X0.675000X-0.075000X0.675000X0.075000X-0.675000X0.075000X-0.675000X-0.075000X0*%
%ADD20RoundRect,0.225000X-0.225000X-0.275000X0.225000X-0.275000X0.225000X0.275000X-0.225000X0.275000X0*%
%ADD21RoundRect,0.250000X0.725000X-0.600000X0.725000X0.600000X-0.725000X0.600000X-0.725000X-0.600000X0*%
%ADD22RoundRect,0.140000X-0.170000X0.140000X-0.170000X-0.140000X0.170000X-0.140000X0.170000X0.140000X0*%
%ADD23RoundRect,0.140000X0.140000X0.170000X-0.140000X0.170000X-0.140000X-0.170000X0.140000X-0.170000X0*%
%ADD24RoundRect,0.218750X0.256250X-0.218750X0.256250X0.218750X-0.256250X0.218750X-0.256250X-0.218750X0*%
%ADD25C,2.000000*%
%ADD26RoundRect,0.135000X-0.185000X0.135000X-0.185000X-0.135000X0.185000X-0.135000X0.185000X0.135000X0*%
%ADD27RoundRect,0.135000X-0.135000X-0.185000X0.135000X-0.185000X0.135000X0.185000X-0.135000X0.185000X0*%
%ADD28R,2.400000X0.740000*%
%ADD29C,4.700000*%
%ADD30RoundRect,0.250000X-1.000000X1.950000X-1.000000X-1.950000X1.000000X-1.950000X1.000000X1.950000X0*%
%ADD31RoundRect,0.225000X0.225000X0.250000X-0.225000X0.250000X-0.225000X-0.250000X0.225000X-0.250000X0*%
%ADD32RoundRect,0.135000X0.135000X0.185000X-0.135000X0.185000X-0.135000X-0.185000X0.135000X-0.185000X0*%
%ADD33RoundRect,0.225000X-0.250000X0.225000X-0.250000X-0.225000X0.250000X-0.225000X0.250000X0.225000X0*%
%ADD34RoundRect,1.500000X1.500000X-1.500000X1.500000X1.500000X-1.500000X1.500000X-1.500000X-1.500000X0*%
%ADD35C,6.000000*%
%ADD36RoundRect,0.140000X0.170000X-0.140000X0.170000X0.140000X-0.170000X0.140000X-0.170000X-0.140000X0*%
%ADD37R,1.700000X1.700000*%
%ADD38O,1.700000X1.700000*%
G04 APERTURE END LIST*
D10*
%TO.C,R13*%
X59000000Y-91020000D03*
X59000000Y-90000000D03*
%TD*%
D11*
%TO.C,UART10*%
X61250000Y-100700000D03*
D12*
X63750000Y-100700000D03*
X66250000Y-100700000D03*
X68750000Y-100700000D03*
%TD*%
D13*
%TO.C,C12*%
X81520000Y-95400000D03*
X82480000Y-95400000D03*
%TD*%
%TO.C,C19*%
X103920000Y-78300000D03*
X104880000Y-78300000D03*
%TD*%
D14*
%TO.C,ARU1*%
X49100000Y-77550000D03*
X49100000Y-74050000D03*
%TD*%
D15*
%TO.C,C37*%
X104025000Y-72800000D03*
X105575000Y-72800000D03*
%TD*%
D16*
%TO.C,UART2*%
X55000000Y-60500000D03*
D17*
X55000000Y-63000000D03*
X55000000Y-65500000D03*
X55000000Y-68000000D03*
%TD*%
D18*
%TO.C,U1*%
X78250000Y-93175000D03*
X78750000Y-93175000D03*
X79250000Y-93175000D03*
X79750000Y-93175000D03*
X80250000Y-93175000D03*
X80750000Y-93175000D03*
X81250000Y-93175000D03*
X81750000Y-93175000D03*
X82250000Y-93175000D03*
X82750000Y-93175000D03*
X83250000Y-93175000D03*
X83750000Y-93175000D03*
X84250000Y-93175000D03*
X84750000Y-93175000D03*
X85250000Y-93175000D03*
X85750000Y-93175000D03*
X86250000Y-93175000D03*
X86750000Y-93175000D03*
X87250000Y-93175000D03*
X87750000Y-93175000D03*
X88250000Y-93175000D03*
X88750000Y-93175000D03*
X89250000Y-93175000D03*
X89750000Y-93175000D03*
X90250000Y-93175000D03*
X90750000Y-93175000D03*
X91250000Y-93175000D03*
X91750000Y-93175000D03*
X92250000Y-93175000D03*
X92750000Y-93175000D03*
X93250000Y-93175000D03*
X93750000Y-93175000D03*
X94250000Y-93175000D03*
X94750000Y-93175000D03*
X95250000Y-93175000D03*
X95750000Y-93175000D03*
X96250000Y-93175000D03*
X96750000Y-93175000D03*
X97250000Y-93175000D03*
X97750000Y-93175000D03*
X98250000Y-93175000D03*
X98750000Y-93175000D03*
X99250000Y-93175000D03*
X99750000Y-93175000D03*
D19*
X101675000Y-91250000D03*
X101675000Y-90750000D03*
X101675000Y-90250000D03*
X101675000Y-89750000D03*
X101675000Y-89250000D03*
X101675000Y-88750000D03*
X101675000Y-88250000D03*
X101675000Y-87750000D03*
X101675000Y-87250000D03*
X101675000Y-86750000D03*
X101675000Y-86250000D03*
X101675000Y-85750000D03*
X101675000Y-85250000D03*
X101675000Y-84750000D03*
X101675000Y-84250000D03*
X101675000Y-83750000D03*
X101675000Y-83250000D03*
X101675000Y-82750000D03*
X101675000Y-82250000D03*
X101675000Y-81750000D03*
X101675000Y-81250000D03*
X101675000Y-80750000D03*
X101675000Y-80250000D03*
X101675000Y-79750000D03*
X101675000Y-79250000D03*
X101675000Y-78750000D03*
X101675000Y-78250000D03*
X101675000Y-77750000D03*
X101675000Y-77250000D03*
X101675000Y-76750000D03*
X101675000Y-76250000D03*
X101675000Y-75750000D03*
X101675000Y-75250000D03*
X101675000Y-74750000D03*
X101675000Y-74250000D03*
X101675000Y-73750000D03*
X101675000Y-73250000D03*
X101675000Y-72750000D03*
X101675000Y-72250000D03*
X101675000Y-71750000D03*
X101675000Y-71250000D03*
X101675000Y-70750000D03*
X101675000Y-70250000D03*
X101675000Y-69750000D03*
D18*
X99750000Y-67825000D03*
X99250000Y-67825000D03*
X98750000Y-67825000D03*
X98250000Y-67825000D03*
X97750000Y-67825000D03*
X97250000Y-67825000D03*
X96750000Y-67825000D03*
X96250000Y-67825000D03*
X95750000Y-67825000D03*
X95250000Y-67825000D03*
X94750000Y-67825000D03*
X94250000Y-67825000D03*
X93750000Y-67825000D03*
X93250000Y-67825000D03*
X92750000Y-67825000D03*
X92250000Y-67825000D03*
X91750000Y-67825000D03*
X91250000Y-67825000D03*
X90750000Y-67825000D03*
X90250000Y-67825000D03*
X89750000Y-67825000D03*
X89250000Y-67825000D03*
X88750000Y-67825000D03*
X88250000Y-67825000D03*
X87750000Y-67825000D03*
X87250000Y-67825000D03*
X86750000Y-67825000D03*
X86250000Y-67825000D03*
X85750000Y-67825000D03*
X85250000Y-67825000D03*
X84750000Y-67825000D03*
X84250000Y-67825000D03*
X83750000Y-67825000D03*
X83250000Y-67825000D03*
X82750000Y-67825000D03*
X82250000Y-67825000D03*
X81750000Y-67825000D03*
X81250000Y-67825000D03*
X80750000Y-67825000D03*
X80250000Y-67825000D03*
X79750000Y-67825000D03*
X79250000Y-67825000D03*
X78750000Y-67825000D03*
X78250000Y-67825000D03*
D19*
X76325000Y-69750000D03*
X76325000Y-70250000D03*
X76325000Y-70750000D03*
X76325000Y-71250000D03*
X76325000Y-71750000D03*
X76325000Y-72250000D03*
X76325000Y-72750000D03*
X76325000Y-73250000D03*
X76325000Y-73750000D03*
X76325000Y-74250000D03*
X76325000Y-74750000D03*
X76325000Y-75250000D03*
X76325000Y-75750000D03*
X76325000Y-76250000D03*
X76325000Y-76750000D03*
X76325000Y-77250000D03*
X76325000Y-77750000D03*
X76325000Y-78250000D03*
X76325000Y-78750000D03*
X76325000Y-79250000D03*
X76325000Y-79750000D03*
X76325000Y-80250000D03*
X76325000Y-80750000D03*
X76325000Y-81250000D03*
X76325000Y-81750000D03*
X76325000Y-82250000D03*
X76325000Y-82750000D03*
X76325000Y-83250000D03*
X76325000Y-83750000D03*
X76325000Y-84250000D03*
X76325000Y-84750000D03*
X76325000Y-85250000D03*
X76325000Y-85750000D03*
X76325000Y-86250000D03*
X76325000Y-86750000D03*
X76325000Y-87250000D03*
X76325000Y-87750000D03*
X76325000Y-88250000D03*
X76325000Y-88750000D03*
X76325000Y-89250000D03*
X76325000Y-89750000D03*
X76325000Y-90250000D03*
X76325000Y-90750000D03*
X76325000Y-91250000D03*
%TD*%
D20*
%TO.C,SW4*%
X65650000Y-88000000D03*
X69750000Y-88000000D03*
X65650000Y-89600000D03*
X69750000Y-89600000D03*
%TD*%
D21*
%TO.C,UART1*%
X108700000Y-67750000D03*
D17*
X108700000Y-65250000D03*
X108700000Y-62750000D03*
X108700000Y-60250000D03*
%TD*%
D22*
%TO.C,C33*%
X72000000Y-85940000D03*
X72000000Y-86900000D03*
%TD*%
D23*
%TO.C,C17*%
X80500000Y-95400000D03*
X79540000Y-95400000D03*
%TD*%
D22*
%TO.C,C27*%
X74200000Y-79320000D03*
X74200000Y-80280000D03*
%TD*%
D24*
%TO.C,D18*%
X43300000Y-100875000D03*
X43300000Y-99300000D03*
%TD*%
D25*
%TO.C,TP3V3*%
X70900000Y-93000000D03*
%TD*%
D23*
%TO.C,C18*%
X81380000Y-65600000D03*
X80420000Y-65600000D03*
%TD*%
D26*
%TO.C,R23*%
X49800000Y-102190000D03*
X49800000Y-103210000D03*
%TD*%
D21*
%TO.C,UART5*%
X108700000Y-81500000D03*
D17*
X108700000Y-79000000D03*
X108700000Y-76500000D03*
X108700000Y-74000000D03*
%TD*%
D27*
%TO.C,R15*%
X69790000Y-86400000D03*
X70810000Y-86400000D03*
%TD*%
D26*
%TO.C,R19*%
X71100000Y-87890000D03*
X71100000Y-88910000D03*
%TD*%
D20*
%TO.C,SW1*%
X66700000Y-81800000D03*
X70800000Y-81800000D03*
X66700000Y-83400000D03*
X70800000Y-83400000D03*
%TD*%
D23*
%TO.C,C22*%
X91480000Y-65600000D03*
X90520000Y-65600000D03*
%TD*%
D25*
%TO.C,TPVBUS*%
X55900000Y-73000000D03*
%TD*%
D28*
%TO.C,J2*%
X65450000Y-67390000D03*
X69350000Y-67390000D03*
X65450000Y-68660000D03*
X69350000Y-68660000D03*
X65450000Y-69930000D03*
X69350000Y-69930000D03*
X65450000Y-71200000D03*
X69350000Y-71200000D03*
X65450000Y-72470000D03*
X69350000Y-72470000D03*
X65450000Y-73740000D03*
X69350000Y-73740000D03*
X65450000Y-75010000D03*
X69350000Y-75010000D03*
%TD*%
D23*
%TO.C,C43*%
X74680000Y-68900000D03*
X73720000Y-68900000D03*
%TD*%
D26*
%TO.C,R21*%
X45400000Y-102190000D03*
X45400000Y-103210000D03*
%TD*%
D10*
%TO.C,R16*%
X70800000Y-80510000D03*
X70800000Y-79490000D03*
%TD*%
D29*
%TO.C,H4*%
X110500000Y-54000000D03*
%TD*%
D13*
%TO.C,C21*%
X83520000Y-95400000D03*
X84480000Y-95400000D03*
%TD*%
D30*
%TO.C,C1*%
X57500000Y-77500000D03*
X57500000Y-85900000D03*
%TD*%
D31*
%TO.C,C38*%
X73975000Y-89700000D03*
X72425000Y-89700000D03*
%TD*%
D29*
%TO.C,H2*%
X54000000Y-102000000D03*
%TD*%
D24*
%TO.C,D20*%
X47500000Y-100887500D03*
X47500000Y-99312500D03*
%TD*%
D21*
%TO.C,UART3*%
X108700000Y-95250000D03*
D17*
X108700000Y-92750000D03*
X108700000Y-90250000D03*
X108700000Y-87750000D03*
%TD*%
D26*
%TO.C,R18*%
X67100000Y-92380000D03*
X67100000Y-93400000D03*
%TD*%
D32*
%TO.C,R12*%
X65720000Y-81400000D03*
X64700000Y-81400000D03*
%TD*%
D23*
%TO.C,C25*%
X74180000Y-71700000D03*
X73220000Y-71700000D03*
%TD*%
D24*
%TO.C,D21*%
X49800000Y-100875000D03*
X49800000Y-99300000D03*
%TD*%
D23*
%TO.C,C31*%
X60980000Y-90000000D03*
X60020000Y-90000000D03*
%TD*%
D13*
%TO.C,C23*%
X87920000Y-65600000D03*
X88880000Y-65600000D03*
%TD*%
D29*
%TO.C,H3*%
X110500000Y-102000000D03*
%TD*%
D20*
%TO.C,SW3*%
X61550000Y-92400000D03*
X65650000Y-92400000D03*
X61550000Y-94000000D03*
X65650000Y-94000000D03*
%TD*%
D22*
%TO.C,C16*%
X103700000Y-89920000D03*
X103700000Y-90880000D03*
%TD*%
D26*
%TO.C,R22*%
X47500000Y-102200000D03*
X47500000Y-103220000D03*
%TD*%
%TO.C,R20*%
X43300000Y-102190000D03*
X43300000Y-103210000D03*
%TD*%
D11*
%TO.C,UART4*%
X77750000Y-100700000D03*
D12*
X80250000Y-100700000D03*
X82750000Y-100700000D03*
X85250000Y-100700000D03*
%TD*%
D22*
%TO.C,C28*%
X74100000Y-91320000D03*
X74100000Y-92280000D03*
%TD*%
D11*
%TO.C,LIDAR1*%
X93500000Y-60000000D03*
D12*
X96000000Y-60000000D03*
X98500000Y-60000000D03*
X101000000Y-60000000D03*
%TD*%
D23*
%TO.C,C26*%
X94680000Y-65600000D03*
X93720000Y-65600000D03*
%TD*%
D33*
%TO.C,C29*%
X90300000Y-95362500D03*
X90300000Y-96912500D03*
%TD*%
D24*
%TO.C,D19*%
X45400000Y-100875000D03*
X45400000Y-99300000D03*
%TD*%
D13*
%TO.C,C32*%
X62520000Y-91000000D03*
X63480000Y-91000000D03*
%TD*%
D11*
%TO.C,UART8*%
X78750000Y-60000000D03*
D12*
X81250000Y-60000000D03*
X83750000Y-60000000D03*
X86250000Y-60000000D03*
%TD*%
D20*
%TO.C,SW2*%
X53950000Y-92400000D03*
X58050000Y-92400000D03*
X53950000Y-94000000D03*
X58050000Y-94000000D03*
%TD*%
D23*
%TO.C,C44*%
X74080000Y-88200000D03*
X73120000Y-88200000D03*
%TD*%
D25*
%TO.C,TP5V*%
X60400000Y-65500000D03*
%TD*%
D22*
%TO.C,C14*%
X103800000Y-81420000D03*
X103800000Y-82380000D03*
%TD*%
D13*
%TO.C,C41*%
X85820000Y-65600000D03*
X86780000Y-65600000D03*
%TD*%
%TO.C,C42*%
X104780000Y-74200000D03*
X103820000Y-74200000D03*
%TD*%
%TO.C,C40*%
X83620000Y-65600000D03*
X84580000Y-65600000D03*
%TD*%
D11*
%TO.C,UART6*%
X63500000Y-60000000D03*
D12*
X66000000Y-60000000D03*
X68500000Y-60000000D03*
X71000000Y-60000000D03*
%TD*%
D13*
%TO.C,C15*%
X104140000Y-71500000D03*
X105100000Y-71500000D03*
%TD*%
D34*
%TO.C,BT1*%
X46500000Y-92700000D03*
D35*
X46500000Y-85500000D03*
%TD*%
D13*
%TO.C,C20*%
X99820000Y-95200000D03*
X100780000Y-95200000D03*
%TD*%
D10*
%TO.C,R17*%
X57900000Y-91020000D03*
X57900000Y-90000000D03*
%TD*%
D36*
%TO.C,C39*%
X93300000Y-96400000D03*
X93300000Y-95440000D03*
%TD*%
D23*
%TO.C,C24*%
X74180000Y-83300000D03*
X73220000Y-83300000D03*
%TD*%
D32*
%TO.C,R14*%
X65610000Y-91000000D03*
X64590000Y-91000000D03*
%TD*%
D13*
%TO.C,C13*%
X98320000Y-65600000D03*
X99280000Y-65600000D03*
%TD*%
D22*
%TO.C,C30*%
X73100000Y-80720000D03*
X73100000Y-81680000D03*
%TD*%
D29*
%TO.C,H1*%
X54000000Y-54000000D03*
%TD*%
D11*
%TO.C,UART7*%
X94200000Y-100800000D03*
D12*
X96700000Y-100800000D03*
X99200000Y-100800000D03*
X101700000Y-100800000D03*
%TD*%
D31*
%TO.C,C45*%
X74350000Y-70400000D03*
X72800000Y-70400000D03*
%TD*%
D37*
%TO.C,J3*%
X59920000Y-55000000D03*
D38*
X59920000Y-52460000D03*
X62460000Y-55000000D03*
X62460000Y-52460000D03*
X65000000Y-55000000D03*
X65000000Y-52460000D03*
X67540000Y-55000000D03*
X67540000Y-52460000D03*
X70080000Y-55000000D03*
X70080000Y-52460000D03*
X72620000Y-55000000D03*
X72620000Y-52460000D03*
X75160000Y-55000000D03*
X75160000Y-52460000D03*
X77700000Y-55000000D03*
X77700000Y-52460000D03*
X80240000Y-55000000D03*
X80240000Y-52460000D03*
X82780000Y-55000000D03*
X82780000Y-52460000D03*
%TD*%
M02*
