M48
; DRILL file {KiCad 9.0.0} date 2025-03-28T10:16:02+0100
; FORMAT={-:-/ absolute / inch / decimal}
; #@! TF.CreationDate,2025-03-28T10:16:02+01:00
; #@! TF.GenerationSoftware,Kicad,Pcbnew,9.0.0
; #@! TF.FileFunction,Plated,1,4,PTH
FMAT,2
INCH
; #@! TA.AperFunction,Plated,PTH,ViaDrill
T1C0.0118
; #@! TA.AperFunction,Plated,PTH,ComponentDrill
T2C0.0374
; #@! TA.AperFunction,Plated,PTH,ComponentDrill
T3C0.0394
; #@! TA.AperFunction,Plated,PTH,ComponentDrill
T4C0.0560
; #@! TA.AperFunction,Plated,PTH,ComponentDrill
T5C0.1063
; #@! TA.AperFunction,Plated,PTH,ComponentDrill
T6C0.1772
%
G90
G05
T1
X1.6142Y-2.874
X1.6142Y-2.9134
X1.6142Y-2.9528
X1.6142Y-2.9921
X1.6142Y-3.0315
X1.6142Y-3.0709
X1.6142Y-3.1102
X1.6142Y-3.1496
X1.6142Y-3.189
X1.6142Y-3.2165
X1.6142Y-3.2441
X1.6142Y-3.2756
X1.6142Y-3.3071
X1.6142Y-3.3465
X1.6142Y-3.3858
X1.6142Y-3.4252
X1.6142Y-3.4646
X1.6142Y-3.5039
X1.6142Y-3.5433
X1.6142Y-3.5827
X1.6142Y-3.622
X1.6142Y-3.6614
X1.6142Y-3.7008
X1.6142Y-3.7402
X1.6142Y-3.7717
X1.6142Y-3.8031
X1.6142Y-3.8307
X1.6142Y-3.8583
X1.6142Y-3.8976
X1.6142Y-3.937
X1.6142Y-3.9764
X1.6142Y-4.0157
X1.6142Y-4.0551
X1.6142Y-4.0945
X1.624Y-2.8346
X1.6437Y-2.8051
X1.6535Y-4.1339
X1.6831Y-2.7953
X1.6929Y-4.1339
X1.7323Y-2.7953
X1.7323Y-4.1339
X1.7717Y-2.7953
X1.7717Y-4.1339
X1.811Y-2.7953
X1.811Y-4.1339
X1.8504Y-2.7953
X1.8504Y-4.1339
X1.8898Y-2.7953
X1.8898Y-4.1339
X1.9193Y-2.7756
X1.9291Y-4.1339
X1.9627Y-2.732
X1.9685Y-4.1339
X1.9882Y-2.6969
X1.998Y-2.0768
X1.998Y-2.1063
X1.998Y-2.1457
X1.998Y-2.185
X1.998Y-2.2244
X1.998Y-2.2638
X1.998Y-2.3031
X1.998Y-2.3425
X1.998Y-2.3819
X1.998Y-2.4213
X1.998Y-2.4606
X1.998Y-2.5
X1.998Y-2.5394
X1.998Y-2.5787
X1.998Y-2.6181
X1.998Y-2.6575
X2.0Y-3.2992
X2.0Y-3.7717
X2.0079Y-4.1339
X2.0177Y-2.03
X2.0472Y-4.1339
X2.0571Y-2.0079
X2.0571Y-3.376
X2.0866Y-4.1339
X2.0906Y-3.0827
X2.0965Y-2.0079
X2.126Y-4.1339
X2.1358Y-2.0079
X2.1565Y-3.05
X2.1654Y-3.2677
X2.1654Y-4.1339
X2.1722Y-2.9909
X2.1722Y-3.0106
X2.1722Y-3.0303
X2.1752Y-2.0079
X2.1762Y-3.05
X2.1919Y-2.9909
X2.1919Y-3.0106
X2.1919Y-3.0303
X2.1949Y-3.3563
X2.1949Y-3.5827
X2.1959Y-3.05
X2.1969Y-3.7717
X2.2047Y-3.4646
X2.2047Y-4.1339
X2.2146Y-2.0079
X2.2146Y-3.9764
X2.2441Y-2.2126
X2.2441Y-2.3819
X2.2441Y-2.5
X2.2441Y-3.878
X2.2441Y-4.1339
X2.2539Y-2.0079
X2.2835Y-4.1339
X2.2933Y-2.0079
X2.3228Y-4.1339
X2.3327Y-2.0079
X2.3425Y-3.9764
X2.3504Y-3.2165
X2.3622Y-4.1339
X2.3701Y-3.7717
X2.372Y-2.0079
X2.3937Y-2.6142
X2.4016Y-4.1339
X2.4114Y-2.0079
X2.4213Y-2.2146
X2.4213Y-2.3819
X2.4213Y-2.5
X2.4291Y-2.94
X2.4311Y-3.5335
X2.437Y-3.315
X2.4409Y-4.1339
X2.4508Y-2.0079
X2.4598Y-2.9813
X2.4803Y-4.1339
X2.4902Y-2.0079
X2.5197Y-4.1339
X2.5295Y-2.0079
X2.5591Y-2.5
X2.5591Y-4.1339
X2.5689Y-2.0079
X2.5856Y-3.0
X2.5866Y-3.2756
X2.5984Y-4.1339
X2.6083Y-2.0079
X2.6142Y-2.5197
X2.626Y-4.063
X2.6378Y-2.5945
X2.6378Y-4.1339
X2.6457Y-2.7835
X2.6457Y-2.9055
X2.6476Y-2.0079
X2.6693Y-3.1496
X2.6693Y-3.1772
X2.6693Y-3.2047
X2.6772Y-3.6772
X2.6772Y-4.1339
X2.687Y-2.0079
X2.7165Y-2.5
X2.7165Y-3.1496
X2.7165Y-3.1772
X2.7165Y-3.2047
X2.7165Y-4.1339
X2.7264Y-2.0079
X2.7559Y-4.1339
X2.7638Y-3.6614
X2.7657Y-2.0079
X2.7835Y-3.7825
X2.7854Y-2.2343
X2.7854Y-3.9764
X2.7953Y-4.1339
X2.8051Y-2.0079
X2.8071Y-2.7323
X2.8307Y-3.2835
X2.8346Y-4.1339
X2.8445Y-2.0079
X2.8543Y-3.4567
X2.8583Y-2.6811
X2.8701Y-3.0906
X2.8701Y-3.622
X2.874Y-2.2441
X2.874Y-4.1339
X2.8798Y-2.9374
X2.8839Y-2.0079
X2.8839Y-3.9764
X2.8898Y-3.4449
X2.8937Y-2.4724
X2.8937Y-2.6811
X2.9094Y-2.5906
X2.9134Y-3.4154
X2.9134Y-3.8976
X2.9134Y-4.1339
X2.9232Y-2.0079
X2.9232Y-2.9035
X2.9252Y-2.6811
X2.9257Y-3.3845
X2.9311Y-2.9469
X2.937Y-3.7717
X2.9376Y-3.3199
X2.9449Y-2.8228
X2.9449Y-3.1194
X2.9449Y-3.5512
X2.9469Y-3.2067
X2.9528Y-2.3622
X2.9528Y-2.7717
X2.9528Y-4.1339
X2.9567Y-3.2795
X2.9567Y-3.5945
X2.9626Y-2.0079
X2.9685Y-3.6457
X2.9764Y-2.7008
X2.9921Y-3.9764
X2.9921Y-4.1339
X3.002Y-2.0079
X3.0315Y-4.1339
X3.0354Y-3.7402
X3.0394Y-3.7717
X3.0413Y-2.0079
X3.0499Y-3.3074
X3.0512Y-2.7638
X3.0546Y-3.2237
X3.055Y-3.1085
X3.0551Y-2.8228
X3.0551Y-3.5394
X3.0692Y-2.2444
X3.0709Y-4.1339
X3.0807Y-2.0079
X3.0906Y-3.7283
X3.0945Y-3.7717
X3.1102Y-2.5968
X3.1102Y-2.7874
X3.1102Y-2.9055
X3.1102Y-3.0236
X3.1102Y-3.1417
X3.1102Y-3.2598
X3.1102Y-3.378
X3.1102Y-3.4961
X3.1102Y-3.6142
X3.1102Y-4.1339
X3.1201Y-2.0079
X3.1496Y-4.1339
X3.1594Y-2.0079
X3.1604Y-2.6174
X3.1614Y-2.5591
X3.1811Y-3.622
X3.1836Y-3.7249
X3.189Y-4.1339
X3.1988Y-2.0079
X3.2087Y-2.5492
X3.2087Y-2.6133
X3.2126Y-3.7231
X3.2283Y-2.7874
X3.2283Y-2.9055
X3.2283Y-3.0236
X3.2283Y-3.1417
X3.2283Y-3.2598
X3.2283Y-3.378
X3.2283Y-3.4961
X3.2283Y-3.6142
X3.2283Y-4.1339
X3.2382Y-2.0079
X3.252Y-3.7795
X3.2657Y-2.4961
X3.2677Y-4.1339
X3.2776Y-2.0079
X3.2835Y-4.0689
X3.2953Y-3.622
X3.2982Y-2.6161
X3.3071Y-3.5984
X3.3071Y-4.1339
X3.311Y-2.4764
X3.315Y-2.7165
X3.3169Y-2.0079
X3.3346Y-2.5591
X3.3386Y-3.6142
X3.3425Y-2.7205
X3.3465Y-2.7874
X3.3465Y-2.9055
X3.3465Y-3.0236
X3.3465Y-3.1417
X3.3465Y-3.2598
X3.3465Y-3.378
X3.3465Y-3.4961
X3.3465Y-4.1339
X3.3563Y-2.0079
X3.3583Y-3.7205
X3.3858Y-3.7188
X3.3858Y-4.1339
X3.3957Y-2.0079
X3.4154Y-2.1949
X3.4173Y-2.6142
X3.4252Y-2.126
X3.4252Y-2.4803
X3.435Y-2.0079
X3.4409Y-2.7283
X3.4449Y-3.9665
X3.4646Y-2.7874
X3.4646Y-2.9055
X3.4646Y-3.0236
X3.4646Y-3.1417
X3.4646Y-3.2598
X3.4646Y-3.378
X3.4646Y-3.4961
X3.4646Y-3.6142
X3.4646Y-4.1339
X3.4744Y-2.0079
X3.4764Y-2.7165
X3.4921Y-3.8386
X3.5039Y-2.4764
X3.5039Y-4.1339
X3.5138Y-2.0079
X3.5304Y-2.5807
X3.5315Y-3.6063
X3.5335Y-2.5394
X3.5433Y-2.126
X3.5433Y-2.2441
X3.5433Y-3.9665
X3.5433Y-4.1339
X3.5512Y-3.7165
X3.5531Y-2.0079
X3.5827Y-2.7874
X3.5827Y-2.9055
X3.5827Y-3.0236
X3.5827Y-3.1417
X3.5827Y-3.2598
X3.5827Y-3.378
X3.5827Y-3.4961
X3.5827Y-3.6142
X3.5827Y-4.1339
X3.5925Y-2.0079
X3.5984Y-2.7165
X3.6024Y-3.7402
X3.6142Y-2.6181
X3.622Y-2.3031
X3.622Y-4.1339
X3.6319Y-2.0079
X3.6319Y-3.9665
X3.6339Y-3.7243
X3.6614Y-2.4803
X3.6614Y-4.1339
X3.6713Y-2.0079
X3.689Y-2.5512
X3.7008Y-2.7874
X3.7008Y-2.9055
X3.7008Y-3.0236
X3.7008Y-3.1417
X3.7008Y-3.2598
X3.7008Y-3.378
X3.7008Y-3.4961
X3.7008Y-4.1339
X3.7047Y-3.6142
X3.7106Y-2.0079
X3.7126Y-2.7165
X3.7293Y-2.6122
X3.7402Y-4.1339
X3.75Y-2.0079
X3.7677Y-3.748
X3.7795Y-2.126
X3.7795Y-2.4803
X3.7795Y-4.1339
X3.7894Y-2.0079
X3.8071Y-3.6142
X3.8189Y-2.7874
X3.8189Y-2.9055
X3.8189Y-3.0236
X3.8189Y-3.1417
X3.8189Y-3.2598
X3.8189Y-3.378
X3.8189Y-3.4961
X3.8189Y-3.8681
X3.8189Y-4.1339
X3.8287Y-2.0079
X3.8472Y-3.737
X3.8504Y-2.7165
X3.8583Y-4.1339
X3.8677Y-2.6176
X3.8681Y-2.0079
X3.8681Y-2.3031
X3.872Y-2.5256
X3.8976Y-2.126
X3.8976Y-2.4803
X3.8976Y-4.1339
X3.9075Y-2.0079
X3.9075Y-4.0689
X3.9252Y-2.5965
X3.9252Y-3.7205
X3.937Y-2.1949
X3.937Y-2.7874
X3.937Y-2.9055
X3.937Y-3.0236
X3.937Y-3.1417
X3.937Y-3.2598
X3.937Y-3.378
X3.937Y-3.4961
X3.937Y-3.6142
X3.937Y-3.8681
X3.937Y-4.1339
X3.9469Y-2.0079
X3.9488Y-3.5551
X3.9528Y-3.0984
X3.9528Y-3.2205
X3.9528Y-3.5906
X3.9567Y-2.8425
X3.9567Y-2.8858
X3.9764Y-4.1339
X3.9862Y-2.0079
X3.9862Y-2.6772
X3.9862Y-3.6614
X4.0157Y-2.0079
X4.0157Y-2.126
X4.0157Y-2.4803
X4.0157Y-4.1339
X4.0236Y-2.3622
X4.0512Y-3.2008
X4.0551Y-2.0079
X4.0551Y-2.8268
X4.0551Y-2.9035
X4.0551Y-3.0827
X4.0551Y-3.3661
X4.0551Y-3.5354
X4.0551Y-4.1339
X4.0591Y-2.8661
X4.0669Y-3.0079
X4.0846Y-3.7303
X4.0846Y-3.8681
X4.0906Y-3.0394
X4.0945Y-2.0079
X4.0945Y-4.1339
X4.1142Y-2.6181
X4.126Y-3.1378
X4.1339Y-2.0079
X4.1339Y-2.126
X4.1339Y-2.2441
X4.1339Y-2.3622
X4.1339Y-2.4803
X4.1339Y-2.7461
X4.1339Y-4.1339
X4.1457Y-3.0906
X4.1535Y-3.2677
X4.1535Y-3.4252
X4.1535Y-3.5728
X4.1654Y-2.9134
X4.1693Y-2.815
X4.1732Y-2.0079
X4.1732Y-4.1339
X4.1811Y-2.878
X4.2028Y-3.9862
X4.2126Y-2.0079
X4.2126Y-2.8445
X4.2126Y-3.002
X4.2126Y-4.1339
X4.2421Y-3.8681
X4.252Y-2.0079
X4.252Y-4.1339
X4.2913Y-2.0079
X4.2913Y-3.3366
X4.2913Y-4.1339
X4.3307Y-2.0079
X4.3307Y-2.2441
X4.3307Y-4.1339
X4.3602Y-2.7461
X4.3701Y-2.0079
X4.3701Y-4.1339
X4.3799Y-3.8681
X4.3898Y-2.372
X4.3898Y-2.6181
X4.3898Y-2.9035
X4.3898Y-3.3071
X4.4094Y-2.0079
X4.4094Y-4.1339
X4.439Y-4.1339
X4.4488Y-2.0079
X4.4587Y-2.4744
X4.4685Y-2.0276
X4.4685Y-4.1142
X4.4783Y-2.0571
X4.4868Y-4.056
X4.4874Y-2.4805
X4.4882Y-2.0866
X4.4882Y-2.126
X4.4882Y-2.1654
X4.4882Y-2.2047
X4.4882Y-2.2441
X4.4882Y-2.2835
X4.4882Y-2.3228
X4.4882Y-2.3622
X4.4882Y-2.4016
X4.4882Y-2.4409
X4.4882Y-2.5197
X4.4882Y-2.5591
X4.4882Y-2.5984
X4.4882Y-2.6378
X4.4882Y-2.6772
X4.4882Y-2.7165
X4.4882Y-2.7559
X4.4882Y-2.7953
X4.4882Y-2.8346
X4.4882Y-2.874
X4.4882Y-2.9134
X4.4882Y-2.9528
X4.4882Y-2.9921
X4.4882Y-3.0315
X4.4882Y-3.0709
X4.4882Y-3.1102
X4.4882Y-3.1496
X4.4882Y-3.189
X4.4882Y-3.2283
X4.4882Y-3.2677
X4.4882Y-3.3071
X4.4882Y-3.3465
X4.4882Y-3.3858
X4.4882Y-3.4252
X4.4882Y-3.4646
X4.4882Y-3.5039
X4.4882Y-3.5433
X4.4882Y-3.5827
X4.4882Y-3.622
X4.4882Y-3.6614
X4.4882Y-3.7008
X4.4882Y-3.7402
X4.4882Y-3.7795
X4.4882Y-3.8189
X4.4882Y-3.8583
X4.4882Y-3.8976
X4.4882Y-3.937
X4.4882Y-3.9764
X4.4882Y-4.0157
X4.4882Y-4.0945
T2
X2.1654Y-2.3819
X2.1654Y-2.4803
X2.1654Y-2.5787
X2.1654Y-2.6772
X2.4114Y-3.9646
X2.5Y-2.3622
X2.5098Y-3.9646
X2.5984Y-2.3622
X2.6083Y-3.9646
X2.6969Y-2.3622
X2.7067Y-3.9646
X2.7953Y-2.3622
X3.061Y-3.9646
X3.1004Y-2.3622
X3.1594Y-3.9646
X3.1988Y-2.3622
X3.2579Y-3.9646
X3.2972Y-2.3622
X3.3563Y-3.9646
X3.3957Y-2.3622
X3.6811Y-2.3622
X3.7087Y-3.9685
X3.7795Y-2.3622
X3.8071Y-3.9685
X3.878Y-2.3622
X3.9055Y-3.9685
X3.9764Y-2.3622
X4.0039Y-3.9685
X4.2795Y-2.372
X4.2795Y-2.4705
X4.2795Y-2.5689
X4.2795Y-2.6673
X4.2795Y-2.9134
X4.2795Y-3.0118
X4.2795Y-3.1102
X4.2795Y-3.2087
X4.2795Y-3.4547
X4.2795Y-3.5531
X4.2795Y-3.6516
X4.2795Y-3.75
T3
X2.3591Y-2.0654
X2.3591Y-2.1654
X2.4591Y-2.0654
X2.4591Y-2.1654
X2.5591Y-2.0654
X2.5591Y-2.1654
X2.6591Y-2.0654
X2.6591Y-2.1654
X2.7591Y-2.0654
X2.7591Y-2.1654
X2.8591Y-2.0654
X2.8591Y-2.1654
X2.9591Y-2.0654
X2.9591Y-2.1654
X3.0591Y-2.0654
X3.0591Y-2.1654
X3.1591Y-2.0654
X3.1591Y-2.1654
X3.2591Y-2.0654
X3.2591Y-2.1654
X3.4772Y-2.0827
X3.5772Y-2.0827
X3.6772Y-2.0827
T4
X1.9331Y-2.9154
X1.9331Y-3.0531
T5
X2.126Y-2.126
X2.126Y-4.0157
X4.3504Y-2.126
X4.3504Y-4.0157
T6
X1.8307Y-3.3661
X1.8307Y-3.6496
M30
