%TF.GenerationSoftware,KiCad,Pcbnew,7.0.5-7.0.5~ubuntu22.04.1*%
%TF.CreationDate,2023-07-11T09:47:34+02:00*%
%TF.ProjectId,Inverter_KiCAD,496e7665-7274-4657-925f-4b694341442e,rev?*%
%TF.SameCoordinates,Original*%
%TF.FileFunction,Soldermask,Bot*%
%TF.FilePolarity,Negative*%
%FSLAX46Y46*%
G04 Gerber Fmt 4.6, Leading zero omitted, Abs format (unit mm)*
G04 Created by KiCad (PCBNEW 7.0.5-7.0.5~ubuntu22.04.1) date 2023-07-11 09:47:34*
%MOMM*%
%LPD*%
G01*
G04 APERTURE LIST*
G04 Aperture macros list*
%AMRoundRect*
0 Rectangle with rounded corners*
0 $1 Rounding radius*
0 $2 $3 $4 $5 $6 $7 $8 $9 X,Y pos of 4 corners*
0 Add a 4 corners polygon primitive as box body*
4,1,4,$2,$3,$4,$5,$6,$7,$8,$9,$2,$3,0*
0 Add four circle primitives for the rounded corners*
1,1,$1+$1,$2,$3*
1,1,$1+$1,$4,$5*
1,1,$1+$1,$6,$7*
1,1,$1+$1,$8,$9*
0 Add four rect primitives between the rounded corners*
20,1,$1+$1,$2,$3,$4,$5,0*
20,1,$1+$1,$4,$5,$6,$7,0*
20,1,$1+$1,$6,$7,$8,$9,0*
20,1,$1+$1,$8,$9,$2,$3,0*%
G04 Aperture macros list end*
%ADD10C,1.524000*%
%ADD11R,4.000000X4.000000*%
%ADD12C,4.000000*%
%ADD13C,1.600000*%
%ADD14R,1.905000X2.000000*%
%ADD15O,1.905000X2.000000*%
%ADD16C,2.400000*%
%ADD17C,0.800000*%
%ADD18C,6.400000*%
%ADD19C,0.650000*%
%ADD20O,2.100000X1.000000*%
%ADD21O,1.600000X1.000000*%
%ADD22RoundRect,0.250000X-0.725000X0.600000X-0.725000X-0.600000X0.725000X-0.600000X0.725000X0.600000X0*%
%ADD23O,1.950000X1.700000*%
%ADD24R,1.700000X1.700000*%
%ADD25O,1.700000X1.700000*%
%ADD26C,2.006600*%
%ADD27C,1.600200*%
%ADD28C,3.708400*%
%ADD29C,1.498600*%
%ADD30RoundRect,0.250000X-0.750000X0.600000X-0.750000X-0.600000X0.750000X-0.600000X0.750000X0.600000X0*%
%ADD31O,2.000000X1.700000*%
%ADD32C,2.800000*%
%ADD33C,3.200000*%
%ADD34RoundRect,0.155000X-0.155000X0.212500X-0.155000X-0.212500X0.155000X-0.212500X0.155000X0.212500X0*%
%ADD35RoundRect,0.160000X-0.160000X0.197500X-0.160000X-0.197500X0.160000X-0.197500X0.160000X0.197500X0*%
%ADD36R,0.508000X1.460500*%
%ADD37RoundRect,0.160000X0.160000X-0.197500X0.160000X0.197500X-0.160000X0.197500X-0.160000X-0.197500X0*%
%ADD38RoundRect,0.155000X0.155000X-0.212500X0.155000X0.212500X-0.155000X0.212500X-0.155000X-0.212500X0*%
%ADD39RoundRect,0.254000X-0.254000X-0.746000X0.254000X-0.746000X0.254000X0.746000X-0.254000X0.746000X0*%
%ADD40RoundRect,0.317500X-0.317500X-0.682500X0.317500X-0.682500X0.317500X0.682500X-0.317500X0.682500X0*%
%ADD41RoundRect,0.265000X-0.265000X-0.735000X0.265000X-0.735000X0.265000X0.735000X-0.265000X0.735000X0*%
%ADD42RoundRect,0.150000X0.825000X0.150000X-0.825000X0.150000X-0.825000X-0.150000X0.825000X-0.150000X0*%
G04 APERTURE END LIST*
D10*
%TO.C,U301*%
X122500000Y-123592500D03*
X122500000Y-121052500D03*
X122500000Y-118512500D03*
X122500000Y-113432500D03*
X122500000Y-110892500D03*
X122500000Y-108352500D03*
X122500000Y-105812500D03*
%TD*%
D11*
%TO.C,C1004*%
X89000000Y-29000000D03*
D12*
X89000000Y-39000000D03*
%TD*%
D13*
%TO.C,U701*%
X65500000Y-123592500D03*
X65500000Y-121052500D03*
X65500000Y-118512500D03*
X65500000Y-113432500D03*
X65500000Y-110892500D03*
X65500000Y-108352500D03*
X65500000Y-105812500D03*
%TD*%
D14*
%TO.C,Q202*%
X87540000Y-102940000D03*
D15*
X90080000Y-102940000D03*
X92620000Y-102940000D03*
%TD*%
D16*
%TO.C,J104*%
X212000000Y-86920000D03*
X212000000Y-92000000D03*
X212000000Y-97080000D03*
%TD*%
D14*
%TO.C,Q403*%
X193660000Y-102940000D03*
D15*
X196200000Y-102940000D03*
X198740000Y-102940000D03*
%TD*%
D17*
%TO.C,H103*%
X215400000Y-196000000D03*
X214697056Y-197697056D03*
X214697056Y-194302944D03*
X213000000Y-198400000D03*
D18*
X213000000Y-196000000D03*
D17*
X213000000Y-193600000D03*
X211302944Y-197697056D03*
X211302944Y-194302944D03*
X210600000Y-196000000D03*
%TD*%
%TO.C,H108*%
X44600000Y-58000000D03*
X45302944Y-56302944D03*
X45302944Y-59697056D03*
X47000000Y-55600000D03*
D18*
X47000000Y-58000000D03*
D17*
X47000000Y-60400000D03*
X48697056Y-56302944D03*
X48697056Y-59697056D03*
X49400000Y-58000000D03*
%TD*%
%TO.C,H107*%
X210600000Y-72000000D03*
X211302944Y-70302944D03*
X211302944Y-73697056D03*
X213000000Y-69600000D03*
D18*
X213000000Y-72000000D03*
D17*
X213000000Y-74400000D03*
X214697056Y-70302944D03*
X214697056Y-73697056D03*
X215400000Y-72000000D03*
%TD*%
D19*
%TO.C,J801*%
X211400000Y-186890000D03*
X211400000Y-181110000D03*
D20*
X210870000Y-188320000D03*
D21*
X215050000Y-188320000D03*
D20*
X210870000Y-179680000D03*
D21*
X215050000Y-179680000D03*
%TD*%
D22*
%TO.C,J802*%
X132400000Y-151000000D03*
D23*
X132400000Y-153500000D03*
X132400000Y-156000000D03*
X132400000Y-158500000D03*
X132400000Y-161000000D03*
%TD*%
D14*
%TO.C,Q303*%
X146100000Y-102940000D03*
D15*
X148640000Y-102940000D03*
X151180000Y-102940000D03*
%TD*%
D11*
%TO.C,C1003*%
X125000000Y-29000000D03*
D12*
X125000000Y-39000000D03*
%TD*%
D24*
%TO.C,J101*%
X185260000Y-130570000D03*
D25*
X185260000Y-133110000D03*
X182720000Y-130570000D03*
X182720000Y-133110000D03*
X180180000Y-130570000D03*
X180180000Y-133110000D03*
X177640000Y-130570000D03*
X177640000Y-133110000D03*
X175100000Y-130570000D03*
X175100000Y-133110000D03*
X172560000Y-130570000D03*
X172560000Y-133110000D03*
X170020000Y-130570000D03*
X170020000Y-133110000D03*
X167480000Y-130570000D03*
X167480000Y-133110000D03*
X164940000Y-130570000D03*
X164940000Y-133110000D03*
X162400000Y-130570000D03*
X162400000Y-133110000D03*
X159860000Y-130570000D03*
X159860000Y-133110000D03*
X157320000Y-130570000D03*
X157320000Y-133110000D03*
X154780000Y-130570000D03*
X154780000Y-133110000D03*
X152240000Y-130570000D03*
X152240000Y-133110000D03*
X149700000Y-130570000D03*
X149700000Y-133110000D03*
X147160000Y-130570000D03*
X147160000Y-133110000D03*
X144620000Y-130570000D03*
X144620000Y-133110000D03*
X142080000Y-130570000D03*
X142080000Y-133110000D03*
X139540000Y-130570000D03*
X139540000Y-133110000D03*
%TD*%
D17*
%TO.C,H102*%
X34600000Y-130000000D03*
X35302944Y-128302944D03*
X35302944Y-131697056D03*
X37000000Y-127600000D03*
D18*
X37000000Y-130000000D03*
D17*
X37000000Y-132400000D03*
X38697056Y-128302944D03*
X38697056Y-131697056D03*
X39400000Y-130000000D03*
%TD*%
D26*
%TO.C,U501*%
X74000000Y-194750000D03*
X79499999Y-194750000D03*
X83000000Y-133249996D03*
X74000000Y-133249996D03*
%TD*%
D14*
%TO.C,Q203*%
X98540000Y-102940000D03*
D15*
X101080000Y-102940000D03*
X103620000Y-102940000D03*
%TD*%
D14*
%TO.C,Q402*%
X182660000Y-102940000D03*
D15*
X185200000Y-102940000D03*
X187740000Y-102940000D03*
%TD*%
D17*
%TO.C,H104*%
X210600000Y-130000000D03*
X211302944Y-128302944D03*
X211302944Y-131697056D03*
X213000000Y-127600000D03*
D18*
X213000000Y-130000000D03*
D17*
X213000000Y-132400000D03*
X214697056Y-128302944D03*
X214697056Y-131697056D03*
X215400000Y-130000000D03*
%TD*%
D24*
%TO.C,J1302*%
X194400000Y-148100000D03*
D25*
X196940000Y-148100000D03*
X199480000Y-148100000D03*
%TD*%
D16*
%TO.C,J102*%
X42525000Y-76825000D03*
X42525000Y-71745000D03*
%TD*%
D27*
%TO.C,J1301*%
X204160000Y-149515000D03*
X204160000Y-152285000D03*
X204160000Y-155054999D03*
X204160000Y-157824999D03*
X204160000Y-160594998D03*
X206700000Y-150900000D03*
X206700000Y-153670000D03*
X206700000Y-156439999D03*
X206700000Y-159209999D03*
D28*
X205430000Y-167549998D03*
X205430000Y-142560000D03*
%TD*%
D11*
%TO.C,C1002*%
X161000000Y-29000000D03*
D12*
X161000000Y-39000000D03*
%TD*%
D29*
%TO.C,U502*%
X116154000Y-144560000D03*
X116154000Y-147100000D03*
X116154000Y-149640000D03*
%TD*%
D30*
%TO.C,J1102*%
X113800000Y-131800000D03*
D31*
X113800000Y-134300000D03*
%TD*%
D22*
%TO.C,J804*%
X132400000Y-137462500D03*
D23*
X132400000Y-139962500D03*
X132400000Y-142462500D03*
X132400000Y-144962500D03*
%TD*%
D32*
%TO.C,F501*%
X61000000Y-177250000D03*
X61000000Y-154750000D03*
%TD*%
D33*
%TO.C,J501*%
X51825000Y-173140000D03*
X51825000Y-164000000D03*
X51825000Y-154860000D03*
%TD*%
D14*
%TO.C,Q302*%
X135100000Y-102940000D03*
D15*
X137640000Y-102940000D03*
X140180000Y-102940000D03*
%TD*%
D30*
%TO.C,J1101*%
X120600000Y-131800000D03*
D31*
X120600000Y-134300000D03*
%TD*%
D17*
%TO.C,H101*%
X34600000Y-196000000D03*
X35302944Y-194302944D03*
X35302944Y-197697056D03*
X37000000Y-193600000D03*
D18*
X37000000Y-196000000D03*
D17*
X37000000Y-198400000D03*
X38697056Y-194302944D03*
X38697056Y-197697056D03*
X39400000Y-196000000D03*
%TD*%
D24*
%TO.C,J103*%
X185260000Y-191530000D03*
D25*
X185260000Y-194070000D03*
X182720000Y-191530000D03*
X182720000Y-194070000D03*
X180180000Y-191530000D03*
X180180000Y-194070000D03*
X177640000Y-191530000D03*
X177640000Y-194070000D03*
X175100000Y-191530000D03*
X175100000Y-194070000D03*
X172560000Y-191530000D03*
X172560000Y-194070000D03*
X170020000Y-191530000D03*
X170020000Y-194070000D03*
X167480000Y-191530000D03*
X167480000Y-194070000D03*
X164940000Y-191530000D03*
X164940000Y-194070000D03*
X162400000Y-191530000D03*
X162400000Y-194070000D03*
X159860000Y-191530000D03*
X159860000Y-194070000D03*
X157320000Y-191530000D03*
X157320000Y-194070000D03*
X154780000Y-191530000D03*
X154780000Y-194070000D03*
X152240000Y-191530000D03*
X152240000Y-194070000D03*
X149700000Y-191530000D03*
X149700000Y-194070000D03*
X147160000Y-191530000D03*
X147160000Y-194070000D03*
X144620000Y-191530000D03*
X144620000Y-194070000D03*
X142080000Y-191530000D03*
X142080000Y-194070000D03*
X139540000Y-191530000D03*
X139540000Y-194070000D03*
%TD*%
D10*
%TO.C,U302*%
X159600000Y-105812500D03*
X159600000Y-108352500D03*
X159600000Y-110892500D03*
X159600000Y-113432500D03*
X159600000Y-118512500D03*
X159600000Y-121052500D03*
X159600000Y-123592500D03*
%TD*%
%TO.C,U202*%
X112040000Y-123592500D03*
X112040000Y-121052500D03*
X112040000Y-118512500D03*
X112040000Y-113432500D03*
X112040000Y-110892500D03*
X112040000Y-108352500D03*
X112040000Y-105812500D03*
%TD*%
D11*
%TO.C,C1001*%
X197000000Y-29000000D03*
D12*
X197000000Y-39000000D03*
%TD*%
D10*
%TO.C,U201*%
X74940000Y-123592500D03*
X74940000Y-121052500D03*
X74940000Y-118512500D03*
X74940000Y-113432500D03*
X74940000Y-110892500D03*
X74940000Y-108352500D03*
X74940000Y-105812500D03*
%TD*%
D11*
%TO.C,C1005*%
X53000000Y-29000000D03*
D12*
X53000000Y-39000000D03*
%TD*%
D10*
%TO.C,U402*%
X207160000Y-123592500D03*
X207160000Y-121052500D03*
X207160000Y-118512500D03*
X207160000Y-113432500D03*
X207160000Y-110892500D03*
X207160000Y-108352500D03*
X207160000Y-105812500D03*
%TD*%
D17*
%TO.C,H105*%
X34600000Y-18000000D03*
X35302944Y-16302944D03*
X35302944Y-19697056D03*
X37000000Y-15600000D03*
D18*
X37000000Y-18000000D03*
D17*
X37000000Y-20400000D03*
X38697056Y-16302944D03*
X38697056Y-19697056D03*
X39400000Y-18000000D03*
%TD*%
D10*
%TO.C,U401*%
X170060000Y-123592500D03*
X170060000Y-121052500D03*
X170060000Y-118512500D03*
X170060000Y-113432500D03*
X170060000Y-110892500D03*
X170060000Y-108352500D03*
X170060000Y-105812500D03*
%TD*%
D17*
%TO.C,H106*%
X210600000Y-18000000D03*
X211302944Y-16302944D03*
X211302944Y-19697056D03*
X213000000Y-15600000D03*
D18*
X213000000Y-18000000D03*
D17*
X213000000Y-20400000D03*
X214697056Y-16302944D03*
X214697056Y-19697056D03*
X215400000Y-18000000D03*
%TD*%
D16*
%TO.C,J901*%
X42525000Y-84545000D03*
X42525000Y-89625000D03*
%TD*%
D34*
%TO.C,C410*%
X185060000Y-121487500D03*
X185060000Y-120352500D03*
%TD*%
D35*
%TO.C,R205*%
X96170000Y-108642500D03*
X96170000Y-109837500D03*
%TD*%
D36*
%TO.C,U204*%
X88540000Y-113275850D03*
X89810000Y-113275850D03*
X91080000Y-113275850D03*
X92350000Y-113275850D03*
X92350000Y-118724150D03*
X91080000Y-118724150D03*
X89810000Y-118724150D03*
X88540000Y-118724150D03*
%TD*%
D34*
%TO.C,C211*%
X90940000Y-120352500D03*
X90940000Y-121487500D03*
%TD*%
D36*
%TO.C,U404*%
X183660000Y-113275850D03*
X184930000Y-113275850D03*
X186200000Y-113275850D03*
X187470000Y-113275850D03*
X187470000Y-118724150D03*
X186200000Y-118724150D03*
X184930000Y-118724150D03*
X183660000Y-118724150D03*
%TD*%
D34*
%TO.C,C311*%
X138500000Y-120352500D03*
X138500000Y-121487500D03*
%TD*%
%TO.C,C210*%
X89940000Y-120352500D03*
X89940000Y-121487500D03*
%TD*%
D37*
%TO.C,R206*%
X98170000Y-109837500D03*
X98170000Y-108642500D03*
%TD*%
D38*
%TO.C,C205*%
X97170000Y-109807500D03*
X97170000Y-108672500D03*
%TD*%
D34*
%TO.C,C308*%
X142190000Y-122272500D03*
X142190000Y-123407500D03*
%TD*%
%TO.C,C408*%
X189750000Y-122272500D03*
X189750000Y-123407500D03*
%TD*%
D39*
%TO.C,U403*%
X189750000Y-111550000D03*
D40*
X192290000Y-111550000D03*
X194830000Y-111550000D03*
D39*
X197370000Y-111550000D03*
X197370000Y-120450000D03*
D40*
X194830000Y-120450000D03*
X192290000Y-120450000D03*
D41*
X189750000Y-120450000D03*
%TD*%
D35*
%TO.C,R305*%
X143730000Y-108642500D03*
X143730000Y-109837500D03*
%TD*%
D34*
%TO.C,C209*%
X88545000Y-120352500D03*
X88545000Y-121487500D03*
%TD*%
D37*
%TO.C,R306*%
X145730000Y-109837500D03*
X145730000Y-108642500D03*
%TD*%
D38*
%TO.C,C307*%
X142190000Y-109807500D03*
X142190000Y-108672500D03*
%TD*%
%TO.C,C305*%
X144730000Y-109807500D03*
X144730000Y-108672500D03*
%TD*%
D34*
%TO.C,C1301*%
X192600000Y-151900000D03*
X192600000Y-150765000D03*
%TD*%
D38*
%TO.C,C407*%
X189750000Y-109807500D03*
X189750000Y-108672500D03*
%TD*%
D35*
%TO.C,R405*%
X191290000Y-108642500D03*
X191290000Y-109837500D03*
%TD*%
D38*
%TO.C,C405*%
X192290000Y-109807500D03*
X192290000Y-108672500D03*
%TD*%
D36*
%TO.C,U304*%
X136100000Y-113275850D03*
X137370000Y-113275850D03*
X138640000Y-113275850D03*
X139910000Y-113275850D03*
X139910000Y-118724150D03*
X138640000Y-118724150D03*
X137370000Y-118724150D03*
X136100000Y-118724150D03*
%TD*%
D39*
%TO.C,U203*%
X94630000Y-111550000D03*
D40*
X97170000Y-111550000D03*
X99710000Y-111550000D03*
D39*
X102250000Y-111550000D03*
X102250000Y-120450000D03*
D40*
X99710000Y-120450000D03*
X97170000Y-120450000D03*
D41*
X94630000Y-120450000D03*
%TD*%
D34*
%TO.C,C310*%
X137500000Y-120352500D03*
X137500000Y-121487500D03*
%TD*%
D37*
%TO.C,R406*%
X193290000Y-109837500D03*
X193290000Y-108642500D03*
%TD*%
D34*
%TO.C,C309*%
X136105000Y-120352500D03*
X136105000Y-121487500D03*
%TD*%
D39*
%TO.C,U303*%
X142190000Y-111550000D03*
D40*
X144730000Y-111550000D03*
X147270000Y-111550000D03*
D39*
X149810000Y-111550000D03*
X149810000Y-120450000D03*
D40*
X147270000Y-120450000D03*
X144730000Y-120450000D03*
D41*
X142190000Y-120450000D03*
%TD*%
D34*
%TO.C,C409*%
X183665000Y-120352500D03*
X183665000Y-121487500D03*
%TD*%
%TO.C,C208*%
X94630000Y-122272500D03*
X94630000Y-123407500D03*
%TD*%
D42*
%TO.C,U1301*%
X199375000Y-150755000D03*
X199375000Y-152025000D03*
X199375000Y-153295000D03*
X199375000Y-154565000D03*
X199375000Y-155835000D03*
X199375000Y-157105000D03*
X199375000Y-158375000D03*
X199375000Y-159645000D03*
X194425000Y-159645000D03*
X194425000Y-158375000D03*
X194425000Y-157105000D03*
X194425000Y-155835000D03*
X194425000Y-154565000D03*
X194425000Y-153295000D03*
X194425000Y-152025000D03*
X194425000Y-150755000D03*
%TD*%
D34*
%TO.C,C411*%
X186060000Y-120352500D03*
X186060000Y-121487500D03*
%TD*%
D38*
%TO.C,C207*%
X94630000Y-109807500D03*
X94630000Y-108672500D03*
%TD*%
M02*
