%TF.GenerationSoftware,KiCad,Pcbnew,7.0.5-7.0.5~ubuntu22.04.1*%
%TF.CreationDate,2023-07-11T09:47:34+02:00*%
%TF.ProjectId,Inverter_KiCAD,496e7665-7274-4657-925f-4b694341442e,rev?*%
%TF.SameCoordinates,Original*%
%TF.FileFunction,Paste,Bot*%
%TF.FilePolarity,Positive*%
%FSLAX46Y46*%
G04 Gerber Fmt 4.6, Leading zero omitted, Abs format (unit mm)*
G04 Created by KiCad (PCBNEW 7.0.5-7.0.5~ubuntu22.04.1) date 2023-07-11 09:47:34*
%MOMM*%
%LPD*%
G01*
G04 APERTURE LIST*
G04 Aperture macros list*
%AMRoundRect*
0 Rectangle with rounded corners*
0 $1 Rounding radius*
0 $2 $3 $4 $5 $6 $7 $8 $9 X,Y pos of 4 corners*
0 Add a 4 corners polygon primitive as box body*
4,1,4,$2,$3,$4,$5,$6,$7,$8,$9,$2,$3,0*
0 Add four circle primitives for the rounded corners*
1,1,$1+$1,$2,$3*
1,1,$1+$1,$4,$5*
1,1,$1+$1,$6,$7*
1,1,$1+$1,$8,$9*
0 Add four rect primitives between the rounded corners*
20,1,$1+$1,$2,$3,$4,$5,0*
20,1,$1+$1,$4,$5,$6,$7,0*
20,1,$1+$1,$6,$7,$8,$9,0*
20,1,$1+$1,$8,$9,$2,$3,0*%
G04 Aperture macros list end*
%ADD10RoundRect,0.155000X-0.155000X0.212500X-0.155000X-0.212500X0.155000X-0.212500X0.155000X0.212500X0*%
%ADD11RoundRect,0.160000X-0.160000X0.197500X-0.160000X-0.197500X0.160000X-0.197500X0.160000X0.197500X0*%
%ADD12R,0.508000X1.460500*%
%ADD13RoundRect,0.160000X0.160000X-0.197500X0.160000X0.197500X-0.160000X0.197500X-0.160000X-0.197500X0*%
%ADD14RoundRect,0.155000X0.155000X-0.212500X0.155000X0.212500X-0.155000X0.212500X-0.155000X-0.212500X0*%
%ADD15RoundRect,0.254000X-0.254000X-0.746000X0.254000X-0.746000X0.254000X0.746000X-0.254000X0.746000X0*%
%ADD16RoundRect,0.317500X-0.317500X-0.682500X0.317500X-0.682500X0.317500X0.682500X-0.317500X0.682500X0*%
%ADD17RoundRect,0.265000X-0.265000X-0.735000X0.265000X-0.735000X0.265000X0.735000X-0.265000X0.735000X0*%
%ADD18RoundRect,0.150000X0.825000X0.150000X-0.825000X0.150000X-0.825000X-0.150000X0.825000X-0.150000X0*%
G04 APERTURE END LIST*
D10*
%TO.C,C410*%
X185060000Y-121487500D03*
X185060000Y-120352500D03*
%TD*%
D11*
%TO.C,R205*%
X96170000Y-108642500D03*
X96170000Y-109837500D03*
%TD*%
D12*
%TO.C,U204*%
X88540000Y-113275850D03*
X89810000Y-113275850D03*
X91080000Y-113275850D03*
X92350000Y-113275850D03*
X92350000Y-118724150D03*
X91080000Y-118724150D03*
X89810000Y-118724150D03*
X88540000Y-118724150D03*
%TD*%
D10*
%TO.C,C211*%
X90940000Y-120352500D03*
X90940000Y-121487500D03*
%TD*%
D12*
%TO.C,U404*%
X183660000Y-113275850D03*
X184930000Y-113275850D03*
X186200000Y-113275850D03*
X187470000Y-113275850D03*
X187470000Y-118724150D03*
X186200000Y-118724150D03*
X184930000Y-118724150D03*
X183660000Y-118724150D03*
%TD*%
D10*
%TO.C,C311*%
X138500000Y-120352500D03*
X138500000Y-121487500D03*
%TD*%
%TO.C,C210*%
X89940000Y-120352500D03*
X89940000Y-121487500D03*
%TD*%
D13*
%TO.C,R206*%
X98170000Y-109837500D03*
X98170000Y-108642500D03*
%TD*%
D14*
%TO.C,C205*%
X97170000Y-109807500D03*
X97170000Y-108672500D03*
%TD*%
D10*
%TO.C,C308*%
X142190000Y-122272500D03*
X142190000Y-123407500D03*
%TD*%
%TO.C,C408*%
X189750000Y-122272500D03*
X189750000Y-123407500D03*
%TD*%
D15*
%TO.C,U403*%
X189750000Y-111550000D03*
D16*
X192290000Y-111550000D03*
X194830000Y-111550000D03*
D15*
X197370000Y-111550000D03*
X197370000Y-120450000D03*
D16*
X194830000Y-120450000D03*
X192290000Y-120450000D03*
D17*
X189750000Y-120450000D03*
%TD*%
D11*
%TO.C,R305*%
X143730000Y-108642500D03*
X143730000Y-109837500D03*
%TD*%
D10*
%TO.C,C209*%
X88545000Y-120352500D03*
X88545000Y-121487500D03*
%TD*%
D13*
%TO.C,R306*%
X145730000Y-109837500D03*
X145730000Y-108642500D03*
%TD*%
D14*
%TO.C,C307*%
X142190000Y-109807500D03*
X142190000Y-108672500D03*
%TD*%
%TO.C,C305*%
X144730000Y-109807500D03*
X144730000Y-108672500D03*
%TD*%
D10*
%TO.C,C1301*%
X192600000Y-151900000D03*
X192600000Y-150765000D03*
%TD*%
D14*
%TO.C,C407*%
X189750000Y-109807500D03*
X189750000Y-108672500D03*
%TD*%
D11*
%TO.C,R405*%
X191290000Y-108642500D03*
X191290000Y-109837500D03*
%TD*%
D14*
%TO.C,C405*%
X192290000Y-109807500D03*
X192290000Y-108672500D03*
%TD*%
D12*
%TO.C,U304*%
X136100000Y-113275850D03*
X137370000Y-113275850D03*
X138640000Y-113275850D03*
X139910000Y-113275850D03*
X139910000Y-118724150D03*
X138640000Y-118724150D03*
X137370000Y-118724150D03*
X136100000Y-118724150D03*
%TD*%
D15*
%TO.C,U203*%
X94630000Y-111550000D03*
D16*
X97170000Y-111550000D03*
X99710000Y-111550000D03*
D15*
X102250000Y-111550000D03*
X102250000Y-120450000D03*
D16*
X99710000Y-120450000D03*
X97170000Y-120450000D03*
D17*
X94630000Y-120450000D03*
%TD*%
D10*
%TO.C,C310*%
X137500000Y-120352500D03*
X137500000Y-121487500D03*
%TD*%
D13*
%TO.C,R406*%
X193290000Y-109837500D03*
X193290000Y-108642500D03*
%TD*%
D10*
%TO.C,C309*%
X136105000Y-120352500D03*
X136105000Y-121487500D03*
%TD*%
D15*
%TO.C,U303*%
X142190000Y-111550000D03*
D16*
X144730000Y-111550000D03*
X147270000Y-111550000D03*
D15*
X149810000Y-111550000D03*
X149810000Y-120450000D03*
D16*
X147270000Y-120450000D03*
X144730000Y-120450000D03*
D17*
X142190000Y-120450000D03*
%TD*%
D10*
%TO.C,C409*%
X183665000Y-120352500D03*
X183665000Y-121487500D03*
%TD*%
%TO.C,C208*%
X94630000Y-122272500D03*
X94630000Y-123407500D03*
%TD*%
D18*
%TO.C,U1301*%
X199375000Y-150755000D03*
X199375000Y-152025000D03*
X199375000Y-153295000D03*
X199375000Y-154565000D03*
X199375000Y-155835000D03*
X199375000Y-157105000D03*
X199375000Y-158375000D03*
X199375000Y-159645000D03*
X194425000Y-159645000D03*
X194425000Y-158375000D03*
X194425000Y-157105000D03*
X194425000Y-155835000D03*
X194425000Y-154565000D03*
X194425000Y-153295000D03*
X194425000Y-152025000D03*
X194425000Y-150755000D03*
%TD*%
D10*
%TO.C,C411*%
X186060000Y-120352500D03*
X186060000Y-121487500D03*
%TD*%
D14*
%TO.C,C207*%
X94630000Y-109807500D03*
X94630000Y-108672500D03*
%TD*%
M02*
