M48
; DRILL file {KiCad 7.0.5-7.0.5~ubuntu22.04.1} date mar. 11 juil. 2023 09:47:37
; FORMAT={-:-/ absolute / inch / decimal}
; #@! TF.CreationDate,2023-07-11T09:47:37+02:00
; #@! TF.GenerationSoftware,Kicad,Pcbnew,7.0.5-7.0.5~ubuntu22.04.1
; #@! TF.FileFunction,Plated,1,4,PTH
FMAT,2
INCH
; #@! TA.AperFunction,Plated,PTH,ViaDrill
T1C0.0157
; #@! TA.AperFunction,Plated,PTH,ComponentDrill
T2C0.0197
; #@! TA.AperFunction,Plated,PTH,ComponentDrill
T3C0.0236
; #@! TA.AperFunction,Plated,PTH,ComponentDrill
T4C0.0300
; #@! TA.AperFunction,Plated,PTH,ComponentDrill
T5C0.0354
; #@! TA.AperFunction,Plated,PTH,ComponentDrill
T6C0.0374
; #@! TA.AperFunction,Plated,PTH,ComponentDrill
T7C0.0390
; #@! TA.AperFunction,Plated,PTH,ComponentDrill
T8C0.0394
; #@! TA.AperFunction,Plated,PTH,ComponentDrill
T9C0.0430
; #@! TA.AperFunction,Plated,PTH,ComponentDrill
T10C0.0433
; #@! TA.AperFunction,Plated,PTH,ComponentDrill
T11C0.0551
; #@! TA.AperFunction,Plated,PTH,ComponentDrill
T12C0.0590
; #@! TA.AperFunction,Plated,PTH,ComponentDrill
T13C0.0630
; #@! TA.AperFunction,Plated,PTH,ComponentDrill
T14C0.0787
; #@! TA.AperFunction,Plated,PTH,ComponentDrill
T15C0.1260
; #@! TA.AperFunction,Plated,PTH,ComponentDrill
T16C0.1260
%
G90
G05
T1
X1.3386Y-4.311
X1.3386Y-4.3504
X1.3386Y-4.3898
X1.3386Y-4.4291
X1.3386Y-4.4685
X1.378Y-4.311
X1.378Y-4.3504
X1.378Y-4.3898
X1.378Y-4.4291
X1.378Y-4.4685
X1.4173Y-4.311
X1.4173Y-4.3504
X1.4173Y-4.3898
X1.4173Y-4.4291
X1.4173Y-4.4685
X1.4567Y-4.311
X1.4567Y-4.3504
X1.4567Y-4.3898
X1.4606Y-4.7323
X1.4961Y-4.3504
X1.4961Y-4.3898
X1.5335Y-4.8189
X1.6697Y-4.7555
X1.6929Y-4.4858
X1.7047Y-3.7953
X1.7398Y-4.6657
X1.8402Y-4.6657
X1.8662Y-4.2028
X2.1114Y-4.485
X2.1756Y-4.7713
X2.2047Y-4.4815
X2.2146Y-4.6693
X2.248Y-4.0315
X2.2559Y-4.7923
X2.2994Y-4.7923
X2.3306Y-4.8494
X2.3516Y-4.3594
X2.4489Y-4.7836
X2.4886Y-4.3618
X2.4886Y-4.4756
X3.2874Y-3.9961
X3.3346Y-4.9173
X3.4582Y-4.7362
X3.4843Y-4.815
X3.5069Y-3.961
X3.5463Y-3.961
X3.5728Y-4.8209
X3.5856Y-3.961
X3.6726Y-4.9001
X3.6732Y-4.7126
X3.6732Y-4.8189
X3.7256Y-4.4461
X3.7599Y-4.9882
X3.7638Y-4.8386
X3.8031Y-5.3012
X3.8563Y-5.0075
X3.8684Y-4.8485
X3.9567Y-4.8703
X3.9677Y-4.2898
X3.9764Y-4.7658
X4.065Y-4.1535
X4.1811Y-4.1526
X4.185Y-4.9173
X4.3366Y-4.7886
X4.3661Y-6.2047
X4.3661Y-6.2677
X4.3661Y-6.3307
X4.3661Y-6.3937
X4.4193Y-5.4941
X4.4449Y-7.8268
X4.4741Y-4.8539
X4.4882Y-5.5315
X4.4961Y-7.8268
X4.5079Y-6.5591
X4.5079Y-6.6772
X4.5079Y-6.7953
X4.5079Y-6.9134
X4.5079Y-7.0315
X4.5472Y-7.8268
X4.5787Y-4.9646
X4.6054Y-4.8516
X4.6349Y-7.4384
X4.6445Y-7.2677
X4.6457Y-7.8268
X4.8465Y-4.9721
X4.874Y-5.1177
X4.923Y-5.1216
X4.9606Y-5.6417
X4.9843Y-6.0417
X5.0315Y-5.7638
X5.0315Y-5.8031
X5.0315Y-5.8425
X5.0354Y-5.9213
X5.1614Y-3.9764
X5.2693Y-5.1559
X5.3071Y-5.0728
X5.3307Y-4.7382
X5.3445Y-4.8681
X5.3799Y-3.961
X5.3937Y-5.5827
X5.4193Y-3.961
X5.43Y-5.0649
X5.4331Y-4.9134
X5.4587Y-3.961
X5.4887Y-5.3948
X5.4941Y-5.0658
X5.5374Y-4.9001
X5.5413Y-4.7297
X5.5495Y-4.8172
X5.5699Y-6.4282
X5.5976Y-4.4469
X5.6027Y-6.3704
X5.6236Y-6.3244
X5.628Y-5.3268
X5.6378Y-4.843
X5.6557Y-6.4982
X5.6708Y-6.4582
X5.6745Y-5.3747
X5.6776Y-6.2446
X5.6807Y-6.3465
X5.687Y-6.3918
X5.712Y-5.3871
X5.7377Y-6.3539
X5.7479Y-4.8702
X5.7717Y-6.3277
X5.7756Y-5.7992
X5.8072Y-5.771
X5.8268Y-4.8228
X5.8423Y-5.7532
X5.8652Y-5.4751
X5.8809Y-5.7609
X5.8858Y-4.9016
X5.9291Y-6.2835
X5.936Y-4.1535
X5.941Y-6.4616
X5.9479Y-6.1417
X5.9488Y-6.3582
X5.9667Y-5.5766
X5.9803Y-6.2412
X5.9843Y-6.4646
X5.9952Y-5.6181
X6.0066Y-5.5804
X6.0118Y-6.3691
X6.0307Y-5.7087
X6.0315Y-6.4655
X6.0316Y-5.6693
X6.0354Y-6.5118
X6.0523Y-5.6087
X6.0571Y-4.1555
X6.0591Y-6.3622
X6.0636Y-5.6464
X6.0796Y-5.871
X6.1142Y-5.8898
X6.1496Y-5.331
X6.1665Y-5.373
X6.1693Y-6.7175
X6.1811Y-6.0906
X6.185Y-6.5118
X6.1969Y-6.3976
X6.2107Y-6.6998
X6.2176Y-6.3642
X6.2224Y-4.7886
X6.2362Y-6.0118
X6.2598Y-6.7128
X6.2628Y-6.5079
X6.2663Y-6.1782
X6.2717Y-6.6535
X6.2812Y-6.4731
X6.2934Y-6.3749
X6.2962Y-6.6843
X6.311Y-6.1752
X6.3268Y-6.748
X6.3346Y-6.3159
X6.3395Y-6.3797
X6.3416Y-6.419
X6.377Y-6.3917
X6.3809Y-6.4938
X6.3887Y-6.7402
X6.4016Y-6.2087
X6.4167Y-6.5105
X6.4214Y-6.4714
X6.439Y-5.0645
X6.4408Y-6.4124
X6.4449Y-6.7482
X6.4685Y-6.5039
X6.4803Y-6.7244
X6.4808Y-6.2446
X6.4874Y-6.4102
X6.4882Y-6.3002
X6.5079Y-6.1772
X6.5096Y-6.6161
X6.5236Y-6.3927
X6.5787Y-6.5669
X6.6496Y-6.2874
X6.6949Y-6.1555
X6.6949Y-6.1988
X6.7043Y-6.4173
X6.7131Y-6.3784
X6.7571Y-6.3595
X6.7613Y-6.404
X6.7985Y-6.3431
X6.8066Y-6.1767
X6.8162Y-6.3782
X6.857Y-6.3097
X6.874Y-6.1496
X6.9275Y-6.2018
X6.9352Y-6.1538
X6.9846Y-6.1954
X6.9992Y-6.14
X7.0225Y-6.2381
X7.0314Y-6.1889
X7.0315Y-3.9843
X7.1981Y-4.7842
X7.2008Y-4.9173
X7.252Y-3.9606
X7.2618Y-5.0468
X7.2913Y-3.9606
X7.3307Y-3.9606
X7.3346Y-4.8386
X7.3528Y-4.907
X7.4094Y-4.7126
X7.4213Y-4.8976
X7.4701Y-4.4457
X7.5468Y-4.9464
X7.5827Y-6.0157
X7.6299Y-4.8189
X7.7205Y-4.7795
X7.8071Y-4.1535
X7.9252Y-6.248
X7.9291Y-4.9173
X7.9301Y-4.1555
X7.9331Y-6.0866
X8.0118Y-7.248
X8.1063Y-7.1614
X8.1063Y-7.3346
X8.1999Y-7.248
X8.2087Y-7.1102
X8.2165Y-7.374
X8.3212Y-7.2008
T2
X1.3622Y-0.7087
X1.3622Y-5.1181
X1.3622Y-7.7165
X1.3899Y-0.6418
X1.3899Y-0.7755
X1.3899Y-5.0513
X1.3899Y-5.1849
X1.3899Y-7.6497
X1.3899Y-7.7833
X1.4567Y-0.6142
X1.4567Y-0.8031
X1.4567Y-5.0236
X1.4567Y-5.2126
X1.4567Y-7.622
X1.4567Y-7.811
X1.5235Y-0.6418
X1.5235Y-0.7755
X1.5235Y-5.0513
X1.5235Y-5.1849
X1.5235Y-7.6497
X1.5235Y-7.7833
X1.5512Y-0.7087
X1.5512Y-5.1181
X1.5512Y-7.7165
X1.7559Y-2.2835
X1.7836Y-2.2167
X1.7836Y-2.3503
X1.8504Y-2.189
X1.8504Y-2.378
X1.9172Y-2.2167
X1.9172Y-2.3503
X1.9449Y-2.2835
X8.2913Y-0.7087
X8.2913Y-2.8346
X8.2913Y-5.1181
X8.2913Y-7.7165
X8.319Y-0.6418
X8.319Y-0.7755
X8.319Y-2.7678
X8.319Y-2.9015
X8.319Y-5.0513
X8.319Y-5.1849
X8.319Y-7.6497
X8.319Y-7.7833
X8.3858Y-0.6142
X8.3858Y-0.8031
X8.3858Y-2.7402
X8.3858Y-2.9291
X8.3858Y-5.0236
X8.3858Y-5.2126
X8.3858Y-7.622
X8.3858Y-7.811
X8.4526Y-0.6418
X8.4526Y-0.7755
X8.4526Y-2.7678
X8.4526Y-2.9015
X8.4526Y-5.0513
X8.4526Y-5.1849
X8.4526Y-7.6497
X8.4526Y-7.7833
X8.4803Y-0.7087
X8.4803Y-2.8346
X8.4803Y-5.1181
X8.4803Y-7.7165
T4
X2.9504Y-4.1658
X2.9504Y-4.2658
X2.9504Y-4.3658
X2.9504Y-4.4658
X2.9504Y-4.6658
X2.9504Y-4.7658
X2.9504Y-4.8658
X4.411Y-4.1658
X4.411Y-4.2658
X4.411Y-4.3658
X4.411Y-4.4658
X4.411Y-4.6658
X4.411Y-4.7658
X4.411Y-4.8658
X4.8228Y-4.1658
X4.8228Y-4.2658
X4.8228Y-4.3658
X4.8228Y-4.4658
X4.8228Y-4.6658
X4.8228Y-4.7658
X4.8228Y-4.8658
X6.2835Y-4.1658
X6.2835Y-4.2658
X6.2835Y-4.3658
X6.2835Y-4.4658
X6.2835Y-4.6658
X6.2835Y-4.7658
X6.2835Y-4.8658
X6.6953Y-4.1658
X6.6953Y-4.2658
X6.6953Y-4.3658
X6.6953Y-4.4658
X6.6953Y-4.6658
X6.6953Y-4.7658
X6.6953Y-4.8658
X8.1559Y-4.1658
X8.1559Y-4.2658
X8.1559Y-4.3658
X8.1559Y-4.4658
X8.1559Y-4.6658
X8.1559Y-4.7658
X8.1559Y-4.8658
T5
X2.5787Y-4.1658
X2.5787Y-4.2658
X2.5787Y-4.3658
X2.5787Y-4.4658
X2.5787Y-4.6658
X2.5787Y-4.7658
X2.5787Y-4.8658
T6
X5.2126Y-5.4119
X5.2126Y-5.5103
X5.2126Y-5.6088
X5.2126Y-5.7072
X5.2126Y-5.9449
X5.2126Y-6.0433
X5.2126Y-6.1417
X5.2126Y-6.2402
X5.2126Y-6.3386
T7
X4.573Y-5.6913
X4.573Y-5.7913
X4.573Y-5.8913
T8
X4.4803Y-5.189
X4.4803Y-5.2874
X4.748Y-5.189
X4.748Y-5.2874
X5.4937Y-5.1406
X5.4937Y-5.2406
X5.4937Y-7.5406
X5.4937Y-7.6406
X5.5937Y-5.1406
X5.5937Y-5.2406
X5.5937Y-7.5406
X5.5937Y-7.6406
X5.6937Y-5.1406
X5.6937Y-5.2406
X5.6937Y-7.5406
X5.6937Y-7.6406
X5.7937Y-5.1406
X5.7937Y-5.2406
X5.7937Y-7.5406
X5.7937Y-7.6406
X5.8937Y-5.1406
X5.8937Y-5.2406
X5.8937Y-7.5406
X5.8937Y-7.6406
X5.9937Y-5.1406
X5.9937Y-5.2406
X5.9937Y-7.5406
X5.9937Y-7.6406
X6.0937Y-5.1406
X6.0937Y-5.2406
X6.0937Y-7.5406
X6.0937Y-7.6406
X6.1937Y-5.1406
X6.1937Y-5.2406
X6.1937Y-7.5406
X6.1937Y-7.6406
X6.2937Y-5.1406
X6.2937Y-5.2406
X6.2937Y-7.5406
X6.2937Y-7.6406
X6.3937Y-5.1406
X6.3937Y-5.2406
X6.3937Y-7.5406
X6.3937Y-7.6406
X6.4937Y-5.1406
X6.4937Y-5.2406
X6.4937Y-7.5406
X6.4937Y-7.6406
X6.5937Y-5.1406
X6.5937Y-5.2406
X6.5937Y-7.5406
X6.5937Y-7.6406
X6.6937Y-5.1406
X6.6937Y-5.2406
X6.6937Y-7.5406
X6.6937Y-7.6406
X6.7937Y-5.1406
X6.7937Y-5.2406
X6.7937Y-7.5406
X6.7937Y-7.6406
X6.8937Y-5.1406
X6.8937Y-5.2406
X6.8937Y-7.5406
X6.8937Y-7.6406
X6.9937Y-5.1406
X6.9937Y-5.2406
X6.9937Y-7.5406
X6.9937Y-7.6406
X7.0937Y-5.1406
X7.0937Y-5.2406
X7.0937Y-7.5406
X7.0937Y-7.6406
X7.1937Y-5.1406
X7.1937Y-5.2406
X7.1937Y-7.5406
X7.1937Y-7.6406
X7.2937Y-5.1406
X7.2937Y-5.2406
X7.2937Y-7.5406
X7.2937Y-7.6406
X7.6535Y-5.8307
X7.7535Y-5.8307
X7.8535Y-5.8307
T9
X8.0378Y-5.8864
X8.0378Y-5.9955
X8.0378Y-6.1045
X8.0378Y-6.2136
X8.0378Y-6.3226
X8.1378Y-5.9409
X8.1378Y-6.05
X8.1378Y-6.1591
X8.1378Y-6.2681
T10
X3.4465Y-4.0528
X3.5465Y-4.0528
X3.6465Y-4.0528
X3.8795Y-4.0528
X3.9795Y-4.0528
X4.0795Y-4.0528
X5.3189Y-4.0528
X5.4189Y-4.0528
X5.5189Y-4.0528
X5.752Y-4.0528
X5.852Y-4.0528
X5.952Y-4.0528
X7.1913Y-4.0528
X7.2913Y-4.0528
X7.3913Y-4.0528
X7.6244Y-4.0528
X7.7244Y-4.0528
X7.8244Y-4.0528
T11
X2.4016Y-6.0925
X2.4016Y-6.9783
T12
X2.9134Y-5.2461
X2.9134Y-7.6673
X3.1299Y-7.6673
X3.2677Y-5.2461
T13
X1.6742Y-2.8246
X1.6742Y-3.0246
X1.6742Y-3.3285
X1.6742Y-3.5285
X2.0404Y-6.0969
X2.0404Y-6.4567
X2.0404Y-6.8165
X8.3465Y-3.422
X8.3465Y-3.622
X8.3465Y-3.822
T14
X2.0866Y-1.1417
X2.0866Y-1.5354
X3.5039Y-1.1417
X3.5039Y-1.5354
X4.9213Y-1.1417
X4.9213Y-1.5354
X6.3386Y-1.1417
X6.3386Y-1.5354
X7.7559Y-1.1417
X7.7559Y-1.5354
T15
X1.4567Y-0.7087
X1.4567Y-5.1181
X1.4567Y-7.7165
X1.8504Y-2.2835
X8.3858Y-0.7087
X8.3858Y-2.8346
X8.3858Y-5.1181
X8.3858Y-7.7165
T16
X8.0878Y-5.6126
X8.0878Y-6.5965
T3
G00X8.2803Y-7.074
M15
G01X8.3236Y-7.074
M16
G05
G00X8.2803Y-7.4142
M15
G01X8.3236Y-7.4142
M16
G05
G00X8.4547Y-7.074
M15
G01X8.4783Y-7.074
M16
G05
G00X8.4547Y-7.4142
M15
G01X8.4783Y-7.4142
M16
G05
T0
M30
